<?xml version="1.0" standalone="no"?>
<!DOCTYPE svg PUBLIC "-//W3C//DTD SVG 1.1//EN" "http://www.w3.org/Graphics/SVG/1.1/DTD/svg11.dtd" >
<svg xmlns="http://www.w3.org/2000/svg">
<metadata></metadata>
<defs>
<font id="tatsana_suksaregular" horiz-adv-x="0" >
<font-face units-per-em="2048" ascent="1536" descent="-512" />
<missing-glyph horiz-adv-x="552" />
<glyph unicode="&#xe2f;&#xe2f;" horiz-adv-x="1515" d="M778 68v501q-38 -61 -115.5 -96t-173.5 -35q-184 0 -295.5 96t-111.5 275v135q0 96 62.5 154.5t164.5 58.5q100 0 160.5 -56.5t60.5 -148.5q0 -90 -55 -146t-143 -56q-49 0 -80 22l-2 -2q8 -90 72 -142.5t178 -52.5q124 0 202 74t78 195v235q0 37 19.5 53.5t66.5 16.5 q46 0 65 -16.5t19 -53.5v-1011q0 -36 -19 -52t-67 -16q-47 0 -66.5 16t-19.5 52zM1167 68v1011q0 37 19.5 53.5t66.5 16.5q48 0 67 -16t19 -54v-1011q0 -36 -19 -52t-67 -16q-47 0 -66.5 16t-19.5 52zM313 862q39 0 62.5 24.5t23.5 65.5t-23.5 65.5t-62.5 24.5t-62.5 -24.5 t-23.5 -65.5t23.5 -65.5t62.5 -24.5z" />
<glyph unicode="&#xe4f;&#x22;" horiz-adv-x="1454" d="M1294 537q0 -238 -156 -384.5t-411 -146.5t-411 146.5t-156 384.5q0 239 156 385.5t411 146.5t411 -146.5t156 -385.5zM1145 537q0 183 -115 294t-303 111t-303 -111t-115 -294q0 -181 115 -292.5t303 -111.5t303 111.5t115 292.5zM727 315q-95 0 -152 61.5t-57 160.5 t57 160t152 61q94 0 151.5 -61.5t57.5 -159.5q0 -99 -58 -160.5t-151 -61.5zM508 1198l-27 432q0 39 16.5 53.5t61.5 14.5t60.5 -14.5t17.5 -53.5l-23 -432q-1 -18 -13.5 -25.5t-39.5 -7.5q-28 0 -40 7t-13 26zM846 1198l-27 432q0 39 16.5 53.5t61.5 14.5t60.5 -14.5 t17.5 -53.5l-23 -432q-1 -19 -13 -26t-40 -7t-40 7t-13 26z" />
<glyph unicode="&#xe24;&#xe32;" horiz-adv-x="1890" d="M1546 -465v1253q0 117 -82.5 181.5t-210.5 64.5q-105 0 -233 -53q63 -97 63 -227v-1219q0 -36 -19 -51.5t-67 -15.5t-67 15.5t-19 51.5v1198q0 142 -88 221.5t-233 79.5q-90 0 -177 -33.5t-149 -85.5v-6l217 -82q24 -9 30.5 -20t6.5 -47q0 -34 -6.5 -44t-30.5 -16 q-77 -21 -116 -69t-39 -137v-127l2 -2q26 22 80 22q86 0 139 -54t53 -143q0 -91 -59.5 -146.5t-157.5 -55.5q-104 0 -166.5 60t-62.5 159v272q0 214 192 264v7l-201 71q-23 8 -32 18.5t-9 34.5v56q0 27 8.5 40.5t39.5 41.5q83 73 202.5 116t259.5 43q189 0 312 -90 q8 8 18 13q158 77 336 77q122 0 219.5 -39t158 -122.5t60.5 -200.5v-1274q0 -36 -19 -51.5t-67 -15.5t-67 15.5t-19 51.5zM385 100q39 0 62.5 24.5t23.5 65.5q0 40 -24 65.5t-62 25.5q-39 0 -63.5 -25.5t-24.5 -65.5q0 -41 24 -65.5t64 -24.5z" />
<glyph unicode="&#xe26;&#xe32;" horiz-adv-x="1986" d="M1642 -465v1253q0 117 -82 181.5t-210 64.5q-106 0 -234 -53q64 -98 64 -227v-1219q0 -36 -19.5 -51.5t-68.5 -15.5q-48 0 -67 15.5t-19 51.5v1198q0 142 -87 221.5t-231 79.5q-96 0 -185.5 -32t-152.5 -84v-7l254 -98q25 -10 32 -20.5t7 -42.5q0 -31 -7 -41t-30 -15 q-60 -14 -89.5 -56t-29.5 -124v-315q0 -95 -61 -153t-160 -58q-98 0 -157.5 54.5t-59.5 143.5q0 88 53.5 141.5t141.5 53.5q47 0 75 -21l3 2q-7 51 -7 136q0 185 160 235v6l-233 82q-22 8 -31.5 19t-9.5 34v56q0 27 8.5 41t38.5 41q83 73 202.5 116t260.5 43q188 0 311 -90 q8 8 18 13q158 77 336 77q122 0 219.5 -39t158.5 -122.5t61 -200.5v-1274q0 -36 -19 -51.5t-67 -15.5q-49 0 -68 15.5t-19 51.5zM262 96q38 0 61 25t23 65t-23 65t-61 25t-62 -25t-24 -65t24 -65t62 -25z" />
<glyph unicode="fi" horiz-adv-x="1335" d="M1167 1198l-77 -76q-3 -2 -7 -6l-5.5 -5.5t-5 -3.5t-5.5 -3t-6 -1.5t-8 -0.5t-8 0.5t-6 1.5t-5.5 3t-5 3.5l-5.5 5.5t-7 6l-78 76q-18 18 -18 37t18 37l78 76q18 18 37 18t37 -18l77 -76q19 -19 19 -37t-19 -37zM965 72v811q0 40 18.5 55.5t69.5 15.5t69.5 -15.5 t18.5 -55.5v-811q0 -40 -19 -56t-69 -16t-69 16t-19 56zM285 70v741h-183q-30 0 -40.5 15.5t-10.5 54.5t10.5 54t40.5 15h183v133q0 92 22.5 159.5t64.5 106t94 56.5t118 18q80 0 123 -18q32 -13 32 -68q0 -39 -8.5 -52t-30.5 -13q-9 0 -39 3t-47 3q-78 0 -115.5 -40.5 t-37.5 -145.5v-142h213q30 0 40.5 -15t10.5 -54t-10.5 -54.5t-40.5 -15.5h-213v-741q0 -39 -19 -54.5t-69 -15.5t-69 15.5t-19 54.5z" />
<glyph unicode="fl" horiz-adv-x="1286" d="M285 70v741h-183q-30 0 -40.5 15.5t-10.5 54.5t10.5 54t40.5 15h183v133q0 92 22.5 159.5t64.5 106t94 56.5t118 18q80 0 123 -18q32 -13 32 -68q0 -39 -8.5 -52t-30.5 -13q-9 0 -39 3t-47 3q-78 0 -115.5 -40.5t-37.5 -145.5v-142h213q30 0 40.5 -15t10.5 -54 t-10.5 -54.5t-40.5 -15.5h-213v-741q0 -39 -19 -54.5t-69 -15.5t-69 15.5t-19 54.5zM940 70v1273q0 39 19 54.5t69 15.5t69 -15.5t19 -54.5v-1273q0 -39 -19 -54.5t-69 -15.5t-69 15.5t-19 54.5z" />
<glyph />
<glyph />
<glyph unicode="&#xd;" horiz-adv-x="552" />
<glyph unicode=" "  horiz-adv-x="552" />
<glyph unicode="&#x09;" horiz-adv-x="552" />
<glyph unicode="&#xa0;" horiz-adv-x="552" />
<glyph unicode="!" horiz-adv-x="696" d="M281 455l-31 878q2 44 23 62t77 18t79.5 -18.5t25.5 -61.5l-35 -878q-2 -28 -17 -40t-53 -12t-52.5 12t-16.5 40zM481 96l-94 -92q-18 -18 -37 -18t-37 18l-94 92q-16 16 -16 37q0 19 16 35l94 92q19 19 37 19q14 0 37 -19l94 -92q19 -19 19 -35q0 -18 -19 -37z" />
<glyph unicode="&#x22;" horiz-adv-x="870" d="M215 852l-27 494q0 38 17 52.5t61 14.5t60 -14t18 -53l-22 -494q-1 -18 -14 -25.5t-40 -7.5q-28 0 -40 7t-13 26zM553 852l-27 494q0 38 17 52.5t61 14.5t60 -14t18 -53l-23 -494q-1 -19 -13 -26t-40 -7t-40 7t-13 26z" />
<glyph unicode="#" horiz-adv-x="1222" d="M1044 416h-188l-70 -375q-6 -24 -22 -32.5t-53 -8.5q-72 0 -72 35l68 381h-269l-69 -373q-4 -26 -20.5 -34.5t-55.5 -8.5q-70 0 -70 35l70 381h-170q-20 0 -27.5 13.5t-7.5 47.5t7.5 48t27.5 14h190l62 329h-168q-19 0 -26 14t-7 48t7 47.5t26 13.5h190l70 381 q4 24 21.5 32.5t56.5 8.5q73 0 73 -35l-71 -387h268l72 379q4 26 20 34.5t54 8.5q71 0 71 -35l-69 -387h163q20 0 27.5 -13.5t7.5 -47.5t-7.5 -48t-27.5 -14h-186l-63 -329h167q19 0 27 -14t8 -48q0 -33 -8 -47t-27 -14zM731 539l62 329h-269l-63 -329h270z" />
<glyph unicode="$" horiz-adv-x="1132" d="M535 -154v131q-99 3 -192 21.5t-150 48.5q-37 20 -50.5 37.5t-13.5 54.5q0 41 11.5 57.5t37.5 16.5q28 0 101 -29q118 -46 256 -53v508q-11 5 -43 23q-194 105 -273.5 202t-79.5 226q0 147 104.5 239t291.5 105v131q0 20 11 28.5t36 8.5q26 0 37.5 -8.5t11.5 -28.5v-129 q143 -6 246 -45q32 -13 45.5 -31t13.5 -55q0 -38 -7 -53t-28 -15q-9 0 -92 23q-91 21 -178 24v-489q214 -118 294.5 -214t80.5 -239q0 -156 -97 -250.5t-278 -111.5v-134q0 -20 -11 -28t-38 -8q-25 0 -36 8t-11 28zM535 850v430q-104 -13 -157.5 -61t-53.5 -121t45.5 -125.5 t165.5 -122.5zM631 584v-447q90 15 141 65t51 126q0 83 -41 137t-151 119z" />
<glyph unicode="%" horiz-adv-x="1828" d="M416 20l891 1440q15 24 30 33.5t47 9.5q64 0 64 -37q0 -15 -10 -28l-891 -1440q-15 -24 -30.5 -33.5t-47.5 -9.5q-63 0 -63 37q0 15 10 28zM459 690q-149 0 -232.5 98t-83.5 275t83.5 275t232.5 98q148 0 230.5 -98t82.5 -275t-82.5 -275t-230.5 -98zM459 815 q80 0 122 63.5t42 184.5t-42 185.5t-122 64.5t-123 -64.5t-43 -185.5t43 -184.5t123 -63.5zM1370 -23q-148 0 -230.5 98t-82.5 275t82.5 275t230.5 98q149 0 232.5 -98t83.5 -275t-83.5 -275t-232.5 -98zM1370 100q80 0 123 64.5t43 185.5t-43 184.5t-123 63.5t-122 -63.5 t-42 -184.5t42 -185.5t122 -64.5z" />
<glyph unicode="&#x26;" horiz-adv-x="1355" d="M1098 61l-78 91q-94 -88 -196 -130t-246 -42q-203 0 -333 109.5t-130 283.5q0 147 91 247t251 156q-170 158 -170 334q0 140 101.5 226.5t266.5 86.5q176 0 273.5 -84t97.5 -219q0 -130 -80 -222.5t-246 -166.5l334 -360q77 127 92 311q3 40 19.5 54t64.5 14q86 0 86 -62 q0 -184 -166 -418l191 -196q16 -16 16 -35q0 -39 -98 -39q-53 0 -80 12t-61 49zM616 838q240 100 240 268q0 87 -53.5 134.5t-140.5 47.5q-92 0 -147.5 -49t-55.5 -133q0 -131 157 -268zM924 256l-383 412q-240 -88 -240 -285q0 -117 85 -185.5t214 -68.5q200 0 324 127z " />
<glyph unicode="'" horiz-adv-x="530" d="M215 852l-27 498q0 38 16 50.5t60 12.5q45 0 61 -12.5t17 -50.5l-23 -498q-1 -19 -13 -26t-40 -7q-27 0 -38.5 7t-12.5 26z" />
<glyph unicode="(" horiz-adv-x="620" d="M543 -254q0 -33 -68 -33q-40 0 -65.5 12.5t-51.5 51.5q-264 404 -264 850q0 229 65 435t199 413q27 39 52 52t67 13q66 0 66 -33q0 -11 -15 -41q-130 -227 -188.5 -424.5t-58.5 -414.5q0 -218 58 -416t187 -424q17 -30 17 -41z" />
<glyph unicode=")" horiz-adv-x="620" d="M262 -223q-26 -39 -51 -51.5t-66 -12.5q-67 0 -67 33q0 13 16 41q130 225 188 423t58 417q0 218 -58.5 415.5t-189.5 423.5q-14 28 -14 41q0 33 65 33q42 0 67 -13t52 -52q134 -207 199 -413t65 -435q0 -231 -65 -438t-199 -412z" />
<glyph unicode="*" horiz-adv-x="1099" d="M690 799l-141 221l-141 -221q-16 -25 -37 -25q-31 0 -70 28t-39 56q0 14 12 29l172 207l-251 65q-33 9 -33 43q0 38 16.5 74.5t44.5 36.5q10 0 25 -6l241 -97l-20 265q0 28 18 40.5t62 12.5q42 0 60 -12.5t18 -40.5l-17 -265l242 95q15 6 25 6q28 0 44.5 -36.5 t16.5 -74.5q0 -32 -33 -41l-256 -65l174 -207q13 -16 13 -29q0 -28 -39.5 -56t-69.5 -28q-21 0 -37 25z" />
<glyph unicode="+" horiz-adv-x="1204" d="M1061 444h-381v-389q0 -32 -17 -43.5t-61 -11.5q-42 0 -60 12t-18 43v389h-381q-33 0 -44 15.5t-11 56.5t11 56.5t44 15.5h381v389q0 31 18 43t60 12q44 0 61 -11.5t17 -43.5v-389h381q33 0 44 -15.5t11 -56.5t-11 -56.5t-44 -15.5z" />
<glyph unicode="," horiz-adv-x="442" d="M70 -174l96 342q11 37 32 51t70 14q94 0 94 -51q0 -12 -8 -32l-141 -347q-15 -36 -31 -47.5t-51 -11.5q-70 0 -70 41q0 5 9 41z" />
<glyph unicode="-" horiz-adv-x="643" d="M506 475h-367q-32 0 -43.5 16t-11.5 62t11.5 62t43.5 16h367q31 0 43 -16.5t12 -61.5t-12 -61.5t-43 -16.5z" />
<glyph unicode="." horiz-adv-x="561" d="M414 96l-95 -92q-18 -18 -36 -18q-19 0 -37 18l-96 92q-17 17 -17 37q0 18 17 35l96 92q23 19 37 19q17 0 36 -19l95 -92q16 -16 16 -35q0 -21 -16 -37z" />
<glyph unicode="/" horiz-adv-x="944" d="M160 68l473 1304q8 23 25 32t57 9q76 0 76 -43q0 -7 -7 -24l-471 -1303q-8 -23 -26 -33t-58 -10q-73 0 -73 43q0 15 4 25z" />
<glyph unicode="0" horiz-adv-x="1204" d="M604 -23q-247 0 -378.5 188.5t-131.5 541.5t131.5 541t378.5 188t376.5 -187.5t129.5 -541.5t-129.5 -542t-376.5 -188zM604 123q318 0 318 584q0 583 -318 583q-319 0 -319 -583q0 -584 319 -584z" />
<glyph unicode="1" horiz-adv-x="1204" d="M586 72v735q0 237 8 389h-4l-201 -186q-25 -25 -51 -25q-30 0 -63 34t-33 62q0 19 11 34t38 38l274 227q22 19 38.5 26t43.5 7h70q57 0 57 -57v-1284q0 -39 -19.5 -55.5t-72.5 -16.5q-54 0 -75 16.5t-21 55.5z" />
<glyph unicode="2" horiz-adv-x="1204" d="M1004 0h-809q-60 0 -60 57v49q0 31 13 51t51 56l321 301q163 152 239.5 267.5t76.5 236.5t-70 193.5t-209 72.5q-124 0 -281 -57q-54 -15 -65 -15q-23 0 -34 14.5t-11 53.5q0 37 10.5 55t36.5 29q55 25 156 48.5t209 23.5q210 0 331 -106t121 -294q0 -154 -81.5 -286.5 t-280.5 -321.5q-174 -167 -308 -276v-5q222 7 508 7h136q33 0 45 -16.5t12 -61.5q0 -43 -12 -59.5t-45 -16.5z" />
<glyph unicode="3" horiz-adv-x="1204" d="M711 735v-4q156 -26 247 -117.5t91 -248.5q0 -180 -138.5 -284t-380.5 -104q-111 0 -206 16t-140 34q-25 11 -36 28t-11 54q0 38 11 51.5t34 13.5q29 0 103 -20q128 -29 233 -29q164 0 253 64.5t89 189.5q0 133 -102.5 204.5t-278.5 71.5q-41 0 -57 15.5t-16 58.5 q0 41 15.5 55.5t57.5 14.5q171 0 268 68.5t97 189.5q0 110 -72.5 171.5t-204.5 61.5q-119 0 -280 -53q-44 -14 -64 -14q-23 0 -33 14t-10 51t10 54t35 28q61 24 158.5 45t202.5 21q212 0 327 -95.5t115 -259.5q0 -283 -317 -346z" />
<glyph unicode="4" horiz-adv-x="1204" d="M1073 313h-141v-245q0 -37 -19 -52.5t-69 -15.5t-69 15.5t-19 52.5v245h-586q-38 0 -55 17t-17 55v49q0 18 3.5 32t7.5 22t16 28l518 840q20 32 37.5 44.5t54.5 12.5h113q84 0 84 -84v-864h141q33 0 44 -16t11 -60t-11 -60t-44 -16zM758 465v461q0 170 6 352h-4 q-21 -38 -166 -279l-324 -534h488z" />
<glyph unicode="5" horiz-adv-x="1204" d="M940 1264h-555l-10 -418q106 26 200 26q211 0 341.5 -115.5t130.5 -314.5q0 -220 -134.5 -342.5t-377.5 -122.5q-191 0 -318 52q-25 10 -36 27t-11 53q0 38 11 52.5t34 14.5q19 0 100 -22q114 -29 199 -29q168 0 256 78t88 223q0 146 -90 225.5t-240 79.5 q-72 0 -163 -19.5t-113 -19.5q-39 0 -39 39l10 598q0 84 84 84h633q31 0 42 -16t11 -60q0 -42 -11 -57.5t-42 -15.5z" />
<glyph unicode="6" horiz-adv-x="1204" d="M299 721h2q53 84 143.5 135t210.5 51q204 0 324.5 -121.5t120.5 -324.5q0 -218 -126.5 -351t-346.5 -133q-245 0 -376.5 171t-131.5 509q0 375 163 577t441 202q147 0 256 -41q26 -11 36.5 -29t10.5 -55q0 -35 -10 -49.5t-31 -14.5q-16 0 -63 15q-102 26 -189 26 q-193 0 -312 -143.5t-122 -423.5zM627 117q131 0 209.5 88.5t78.5 238.5q0 149 -79 235.5t-215 86.5q-135 0 -217 -85.5t-82 -221.5q0 -153 84 -247.5t221 -94.5z" />
<glyph unicode="7" horiz-adv-x="1204" d="M354 104l488 1153h-676q-33 0 -44 16.5t-11 61.5t11 61.5t44 16.5h792q72 0 72 -72v-41q0 -52 -18 -94l-471 -1132q-18 -43 -38.5 -58.5t-68.5 -15.5q-96 0 -96 51q0 17 16 53z" />
<glyph unicode="8" horiz-adv-x="1204" d="M811 739q154 -60 230.5 -148.5t76.5 -219.5q0 -183 -138 -288.5t-368 -105.5q-233 0 -370.5 101.5t-137.5 275.5q0 133 77 226.5t229 158.5q-265 118 -265 346q0 157 128.5 254t347.5 97q212 0 335 -91.5t123 -250.5q0 -117 -62.5 -201t-205.5 -154zM639 801 q256 93 256 270q0 108 -74 167.5t-209 59.5q-131 0 -207.5 -60t-76.5 -159q0 -106 79.5 -170.5t231.5 -107.5zM592 670q-140 -43 -219.5 -120.5t-79.5 -184.5q0 -119 86 -183.5t237 -64.5q147 0 230.5 63.5t83.5 179.5q0 113 -84.5 188t-253.5 122z" />
<glyph unicode="9" horiz-adv-x="1204" d="M909 698h-2q-52 -85 -142 -134.5t-210 -49.5q-203 0 -322.5 120t-119.5 322q0 216 126 348t345 132q247 0 376.5 -169.5t129.5 -510.5q0 -390 -158.5 -584.5t-437.5 -194.5q-170 0 -275 41q-28 10 -38.5 28.5t-10.5 55.5q0 35 10 49.5t31 14.5q18 0 65 -14 q102 -27 207 -27q203 0 313 140t113 433zM590 653q134 0 215.5 83.5t81.5 213.5q0 154 -83.5 250t-219.5 96q-130 0 -207.5 -87.5t-77.5 -235.5t77.5 -234t213.5 -86z" />
<glyph unicode=":" horiz-adv-x="602" d="M432 784l-94 -94q-16 -16 -37 -16t-37 16l-94 94q-18 18 -18 37q0 17 18 35l94 92q17 17 37 17q17 0 37 -17l94 -92q19 -19 19 -35q0 -18 -19 -37zM432 96l-94 -94q-16 -16 -37 -16t-37 16l-94 94q-18 18 -18 37q0 17 18 35l94 92q16 16 37 16q18 0 37 -16l94 -92 q19 -19 19 -35q0 -18 -19 -37z" />
<glyph unicode=";" horiz-adv-x="602" d="M432 784l-94 -94q-16 -16 -37 -16t-37 16l-94 94q-18 18 -18 37q0 17 18 35l94 92q17 17 37 17q17 0 37 -17l94 -92q19 -19 19 -35q0 -18 -19 -37zM100 -174l97 342q11 37 32 51t70 14q94 0 94 -51q0 -12 -8 -32l-141 -347q-15 -36 -31 -47.5t-51 -11.5q-70 0 -70 41 q0 9 8 41z" />
<glyph unicode="&#x3c;" horiz-adv-x="1204" d="M1042 43l-809 315q-92 36 -116.5 61.5t-24.5 92.5q0 70 24.5 97t116.5 63l809 319q15 6 27 6q41 0 41 -77q0 -48 -15.5 -68t-52.5 -33l-434 -166q-161 -62 -377 -131v-4q208 -73 377 -137l434 -166q37 -13 52.5 -32.5t15.5 -67.5q0 -78 -41 -78q-12 0 -27 6z" />
<glyph unicode="=" horiz-adv-x="1204" d="M1061 647h-918q-33 0 -44 15.5t-11 56.5t11 56.5t44 15.5h918q33 0 44 -15.5t11 -56.5t-11 -56.5t-44 -15.5zM1061 246h-918q-33 0 -44 15t-11 56t11 56.5t44 15.5h918q33 0 44 -15.5t11 -56.5t-11 -56t-44 -15z" />
<glyph unicode="&#x3e;" horiz-adv-x="1204" d="M971 358l-811 -315q-24 -6 -25 -6q-41 0 -41 78q0 48 15.5 67.5t52.5 32.5l434 166q215 80 379 137v4q-228 73 -379 131l-434 166q-37 13 -52.5 33t-15.5 68q0 77 41 77q13 0 25 -6l811 -319q92 -36 116.5 -63t24.5 -97q0 -67 -25 -93t-116 -61z" />
<glyph unicode="?" horiz-adv-x="886" d="M532 481v-20q0 -32 -19.5 -46t-66.5 -14t-65.5 13.5t-18.5 46.5v35q0 100 25.5 162.5t108.5 160.5q46 56 70 90t44.5 86.5t20.5 106.5q0 82 -51 132t-138 50q-85 0 -196 -35q-73 -22 -90 -22q-41 0 -41 65q0 40 13.5 59t45.5 33q127 52 291 52q170 0 264 -91t94 -219 q0 -99 -38 -174t-134 -192q-77 -94 -98 -143.5t-21 -135.5zM580 96l-95 -92q-18 -18 -36 -18q-19 0 -37 18l-95 92q-18 18 -18 37q0 17 18 35l95 92q23 19 37 19q17 0 36 -19l95 -92q16 -16 16 -35q0 -21 -16 -37z" />
<glyph unicode="@" horiz-adv-x="2023" d="M1223 344h-6q-81 -203 -297 -203q-154 0 -241 99.5t-87 281.5q0 107 31.5 205t87.5 173t139.5 120t181.5 45q102 0 168.5 -45t89.5 -115h4l19 72q6 28 24 38.5t58 10.5t55.5 -10t15.5 -31q0 -14 -2 -22l-98 -404q-35 -144 -35 -194q0 -46 25 -71.5t74 -25.5 q118 0 196 135.5t78 327.5q0 277 -172 436.5t-459 159.5q-219 0 -388.5 -94t-265 -269t-95.5 -405q0 -173 55.5 -309t156 -223.5t238 -133t303.5 -45.5q218 0 424 84q30 13 45 13q19 0 27 -14.5t8 -49.5q0 -25 -8 -37.5t-37 -23.5q-80 -34 -205 -57t-258 -23q-194 0 -354 53 t-276.5 153.5t-181 256.5t-64.5 354q0 196 64 360.5t178.5 278.5t277 177t354.5 63q344 0 551 -191t207 -514q0 -159 -51 -293t-149 -215.5t-224 -81.5q-87 0 -137.5 39t-50.5 105q0 25 6 59zM948 274q90 0 157.5 67.5t100.5 174t33 232.5q0 96 -44.5 143t-125.5 47 q-135 0 -222 -121t-87 -295q0 -248 188 -248z" />
<glyph unicode="A" horiz-adv-x="1327" d="M1085 82l-118 305h-607l-118 -305q-20 -52 -43.5 -69t-73.5 -17q-45 0 -65.5 12.5t-20.5 48.5q0 28 16 64l488 1192q27 67 48.5 86.5t72.5 19.5t72 -19.5t48 -86.5l488 -1192q16 -36 16 -64q0 -36 -20.5 -48.5t-65.5 -12.5q-50 0 -73.5 17t-43.5 69zM905 545l-114 295 q-26 66 -125 360h-4q-99 -294 -125 -360l-115 -295h483z" />
<glyph unicode="B" horiz-adv-x="1202" d="M569 0h-315q-38 0 -54 16t-16 54v1273q0 38 16 54t54 16h305q228 0 358 -92t130 -270q0 -121 -50 -197t-153 -123v-4q241 -87 241 -321q0 -90 -26.5 -160.5t-72.5 -116t-112.5 -75t-141 -42t-163.5 -12.5zM367 801h149q79 0 138.5 11t107.5 37t73 72.5t25 112.5 q0 232 -338 232h-155v-465zM367 147h161q138 0 221 32t115.5 86.5t32.5 137.5q0 128 -91.5 193.5t-297.5 65.5h-141v-515z" />
<glyph unicode="C" horiz-adv-x="1261" d="M1128 47q-53 -29 -139.5 -49.5t-189.5 -20.5q-316 0 -503 191.5t-187 538.5q0 175 51 314t142.5 229.5t217.5 138t277 47.5q99 0 183.5 -19t137.5 -47q33 -19 44.5 -38.5t11.5 -57.5q0 -64 -41 -64q-22 0 -76 21q-112 47 -254 47q-229 0 -362.5 -149t-133.5 -422 q0 -271 133.5 -419.5t364.5 -148.5q127 0 252 47q77 25 84 25q43 0 43 -70q0 -36 -11.5 -55.5t-44.5 -38.5z" />
<glyph unicode="D" horiz-adv-x="1433" d="M512 0h-258q-38 0 -54 16t-16 54v1273q0 38 16 54t54 16h260q387 0 599 -179t212 -527q0 -349 -211.5 -528t-601.5 -179zM373 152h106q319 0 485 139.5t166 415.5q0 275 -164 412.5t-479 137.5h-114v-1105z" />
<glyph unicode="E" horiz-adv-x="1097" d="M901 0h-647q-38 0 -54 16t-16 54v1273q0 38 16 54t54 16h641q34 0 47.5 -18t13.5 -62t-13.5 -62t-47.5 -18h-524v-442h481q32 0 45.5 -17.5t13.5 -60.5t-13.5 -60.5t-45.5 -17.5h-481v-495h530q34 0 48 -17.5t14 -62.5q0 -44 -14 -62t-48 -18z" />
<glyph unicode="F" horiz-adv-x="1015" d="M838 637h-467v-563q0 -41 -19.5 -57.5t-72.5 -16.5q-54 0 -74.5 16.5t-20.5 57.5v1269q0 38 16 54t54 16h614q34 0 48 -18.5t14 -63.5q0 -44 -14 -62t-48 -18h-497v-458h467q32 0 45.5 -17.5t13.5 -60.5t-13.5 -60.5t-45.5 -17.5z" />
<glyph unicode="G" horiz-adv-x="1456" d="M1120 199v430h-202q-33 0 -46.5 17t-13.5 59q0 44 13 60.5t47 16.5h315q38 0 54 -15.5t16 -53.5v-609q-186 -127 -498 -127q-329 0 -512.5 191.5t-183.5 538.5q0 346 186 537.5t518 191.5q118 0 226.5 -26t172.5 -60q33 -17 44.5 -37t11.5 -58q0 -63 -43 -63 q-20 0 -86 25q-157 61 -320 61q-240 0 -376 -151t-136 -420q0 -266 131 -417t371 -151q194 0 311 60z" />
<glyph unicode="H" horiz-adv-x="1437" d="M1065 74v575h-692v-575q0 -40 -20.5 -57t-73.5 -17q-54 0 -74.5 16.5t-20.5 57.5v1265q0 41 20.5 57.5t74.5 16.5q53 0 73.5 -17t20.5 -57v-530h692v530q0 41 20 57.5t74 16.5q53 0 73.5 -17t20.5 -57v-1265q0 -40 -20.5 -57t-73.5 -17q-54 0 -74 16.5t-20 57.5z" />
<glyph unicode="I" horiz-adv-x="557" d="M184 74v1265q0 41 20.5 57.5t74.5 16.5q53 0 73.5 -17t20.5 -57v-1265q0 -40 -20.5 -57t-73.5 -17q-54 0 -74.5 16.5t-20.5 57.5z" />
<glyph unicode="J" horiz-adv-x="768" d="M406 379v960q0 41 20 57.5t74 16.5q53 0 73.5 -17t20.5 -57v-979q0 -182 -80 -282.5t-248 -100.5q-98 0 -160 21q-35 11 -51 31t-16 59q0 74 51 74q16 0 63.5 -10.5t79.5 -10.5q87 0 130 57.5t43 180.5z" />
<glyph unicode="K" horiz-adv-x="1208" d="M973 49l-596 668h-6v-643q0 -41 -19.5 -57.5t-72.5 -16.5q-54 0 -74.5 16.5t-20.5 57.5v1265q0 41 20.5 57.5t74.5 16.5q53 0 72.5 -16.5t19.5 -57.5v-573h6l553 604q23 24 45 33.5t63 9.5q97 0 97 -59q0 -28 -27 -58l-520 -544l567 -627q31 -34 31 -64q0 -61 -96 -61 q-45 0 -68.5 10.5t-48.5 38.5z" />
<glyph unicode="L" horiz-adv-x="1011" d="M903 0h-649q-38 0 -54 16t-16 54v1269q0 41 20.5 57.5t74.5 16.5q53 0 72.5 -16.5t19.5 -57.5v-1179h532q34 0 47 -17t13 -63q0 -44 -13 -62t-47 -18z" />
<glyph unicode="M" horiz-adv-x="1888" d="M1526 74v753q0 161 4 379h-4q-32 -82 -148 -354l-331 -789q-15 -37 -36.5 -50t-70.5 -13t-70 13t-36 50l-334 799q-79 190 -142 344h-4q4 -218 4 -379v-753q0 -41 -18 -57.5t-68 -16.5q-51 0 -69.5 16.5t-18.5 57.5v1239q0 54 34 77t108 23q92 0 130.5 -29t69.5 -108 l269 -670q73 -183 149 -395h4q65 183 158 405l272 660q35 85 69 111t120 26q71 0 104 -23.5t33 -76.5v-1239q0 -40 -19.5 -57t-66.5 -17q-51 0 -71.5 17t-20.5 57z" />
<glyph unicode="N" horiz-adv-x="1472" d="M1118 229h4q-8 148 -8 344v768q0 40 18.5 56t67.5 16q50 0 69 -16t19 -56v-1247q0 -53 -24 -73.5t-88 -20.5q-67 0 -96.5 23t-82.5 108l-426 674q-111 176 -215 373h-4q6 -132 6 -318v-788q0 -40 -18.5 -56t-67.5 -16q-50 0 -69 16t-19 56v1253q0 49 25 68.5t92 19.5 q39 0 63.5 -5.5t46 -24.5t34.5 -37t40 -62l398 -641q118 -194 235 -414z" />
<glyph unicode="O" horiz-adv-x="1560" d="M780 -23q-311 0 -487 194t-176 536t175.5 535.5t487.5 193.5t488 -193.5t176 -535.5t-176 -536t-488 -194zM780 129q218 0 341.5 150t123.5 428t-123.5 427.5t-341.5 149.5t-341.5 -149.5t-123.5 -427.5t123.5 -428t341.5 -150z" />
<glyph unicode="P" horiz-adv-x="1052" d="M184 74v1269q0 39 15 54.5t53 15.5h221q526 0 526 -418q0 -420 -546 -420h-82v-501q0 -40 -21 -57t-74 -17t-72.5 16.5t-19.5 57.5zM371 729h51q199 0 293 59t94 213q0 137 -92.5 199t-253.5 62h-92v-533z" />
<glyph unicode="Q" horiz-adv-x="1560" d="M1401 -27q24 -27 24 -55q0 -40 -30 -69t-68 -29q-35 0 -84 39q-108 80 -235 151q-98 -33 -228 -33q-311 0 -487 194t-176 536t175.5 535.5t487.5 193.5t488 -193.5t176 -535.5q0 -206 -66.5 -362t-191.5 -249q136 -50 215 -123zM780 129q218 0 341.5 150t123.5 428 t-123.5 427.5t-341.5 149.5t-341.5 -149.5t-123.5 -427.5t123.5 -428t341.5 -150z" />
<glyph unicode="R" horiz-adv-x="1089" d="M848 47l-449 574h-28v-547q0 -40 -21 -57t-74 -17t-72.5 16.5t-19.5 57.5v1269q0 38 16 54t54 16h250q112 0 201 -21t159.5 -65.5t109 -123t38.5 -185.5q0 -176 -106.5 -271t-293.5 -118l418 -508q27 -30 27 -62q0 -30 -22.5 -44.5t-73.5 -14.5q-43 0 -66 10t-47 37z M371 770h78q189 0 278.5 55.5t89.5 196.5q0 235 -330 235h-116v-487z" />
<glyph unicode="S" horiz-adv-x="1058" d="M956 338q0 -171 -108.5 -266t-319.5 -95q-100 0 -193 19t-153 51q-38 20 -50.5 37.5t-12.5 56.5q0 42 11 59t34 17q26 0 104 -31q137 -53 254 -53q114 0 178 51t64 140q0 56 -14.5 98t-53.5 82t-89.5 74t-139.5 84q-190 109 -264 201t-74 222q0 158 115 254.5t321 96.5 q152 0 262 -43q31 -11 44.5 -29t13.5 -57q0 -68 -37 -68q-11 0 -98 21q-95 22 -170 22q-127 0 -192.5 -52.5t-65.5 -135.5q0 -45 12.5 -78t49.5 -68.5t84.5 -67t137.5 -85.5q194 -112 272 -210.5t78 -246.5z" />
<glyph unicode="T" horiz-adv-x="1132" d="M473 74v1177h-364q-34 0 -47 18t-13 64q0 44 13 62t47 18h915q33 0 46 -17.5t13 -62.5q0 -46 -12.5 -64t-46.5 -18h-362v-1177q0 -40 -21 -57t-74 -17q-54 0 -74 16.5t-20 57.5z" />
<glyph unicode="U" horiz-adv-x="1433" d="M1071 500v839q0 40 20.5 57t73.5 17q54 0 74.5 -16.5t20.5 -57.5v-864q0 -227 -140 -362.5t-401 -135.5q-263 0 -404 135t-141 363v864q0 41 20 57.5t74 16.5q53 0 73.5 -17t20.5 -57v-839q0 -367 353 -367q179 0 267.5 93.5t88.5 273.5z" />
<glyph unicode="V" horiz-adv-x="1271" d="M627 186h4q94 292 145 430l260 719q17 46 40.5 62t72.5 16q94 0 94 -57q0 -21 -14 -56l-469 -1218q-20 -53 -46.5 -69.5t-84.5 -16.5q-57 0 -83 17.5t-46 70.5l-457 1216q-14 35 -14 58q0 55 88 55q50 0 74.5 -17t39.5 -61l258 -712q65 -178 138 -437z" />
<glyph unicode="W" horiz-adv-x="1923" d="M1393 174h4q14 87 92 406l190 755q12 46 34.5 62t72.5 16q88 0 88 -57q0 -20 -12 -56l-338 -1212q-14 -56 -44 -74t-94 -18q-66 0 -95 19t-44 77l-205 807q-18 70 -77 322h-4q-33 -146 -80 -330l-199 -801q-14 -58 -43.5 -76t-95.5 -18q-65 0 -94 18.5t-46 75.5 l-342 1210q-12 36 -12 56q0 57 92 57q54 0 77.5 -16t35.5 -62l201 -778q45 -165 90 -383h4q30 165 90 404l188 743q13 53 43 72.5t97 19.5q68 0 95.5 -19t41.5 -73l196 -741q48 -182 93 -406z" />
<glyph unicode="X" horiz-adv-x="1298" d="M1026 68l-121 174q-221 326 -256 383q-36 -55 -266 -383l-125 -181q-25 -36 -48.5 -49.5t-68.5 -13.5q-52 0 -75 12.5t-23 42.5q0 19 16 45l461 629l-424 578q-16 20 -16 45q0 34 24 48.5t78 14.5q47 0 71 -15.5t52 -56.5l127 -186q198 -292 232 -346q7 11 92 145 t127 197l131 201q22 35 45 48t65 13q49 0 72 -12t23 -41q0 -19 -17 -43l-418 -590l445 -621q18 -23 18 -43q0 -35 -25 -50t-79 -15q-44 0 -66.5 14.5t-50.5 55.5z" />
<glyph unicode="Y" horiz-adv-x="1153" d="M481 74v510l-440 723q-16 24 -16 45q0 33 20 47t72 14q50 0 75 -15.5t48 -56.5l118 -213q15 -27 66.5 -117.5t92.5 -164.5t58 -109h5q72 140 211 391l118 218q22 38 45.5 52.5t75.5 14.5q98 0 98 -53q0 -23 -16 -45l-442 -733v-508q0 -40 -21 -57t-74 -17t-73.5 17 t-20.5 57z" />
<glyph unicode="Z" horiz-adv-x="1134" d="M993 0h-839q-38 0 -54 16t-16 54v53q0 26 7.5 44.5t29.5 49.5l694 1034h-645q-34 0 -46.5 18t-12.5 64q0 45 13 62.5t46 17.5h797q38 0 53.5 -16t15.5 -54v-51q0 -39 -37 -94l-696 -1038h690q34 0 47 -17t13 -63q0 -44 -13 -62t-47 -18z" />
<glyph unicode="[" horiz-adv-x="692" d="M520 -287h-264q-38 0 -55 17.5t-17 54.5v1683q0 37 17 54.5t55 17.5h264q29 0 40 -14.5t11 -52.5t-11 -53t-40 -15h-166v-1557h166q29 0 40 -14.5t11 -52.5t-11 -53t-40 -15z" />
<glyph unicode="\" horiz-adv-x="944" d="M631 43l-471 1303q-4 20 -4 24q0 43 73 43q40 0 57 -9t25 -32l473 -1304q7 -17 7 -25q0 -43 -74 -43q-41 0 -59.5 10t-26.5 33z" />
<glyph unicode="]" horiz-adv-x="692" d="M436 -287h-264q-29 0 -40 15t-11 53t11 52.5t40 14.5h166v1557h-166q-29 0 -40 15t-11 53t11 52.5t40 14.5h264q72 0 72 -72v-1683q0 -72 -72 -72z" />
<glyph unicode="^" horiz-adv-x="1103" d="M805 606l-129 344q-77 203 -119 342h-4q-70 -202 -123 -342l-131 -344q-15 -39 -32 -51t-54 -12q-78 0 -78 49q0 21 15 55l276 694q16 40 41 56t84 16q60 0 85.5 -16t41.5 -56l276 -694q15 -45 15 -55q0 -28 -19 -38.5t-57 -10.5t-55.5 12t-32.5 51z" />
<glyph unicode="_" horiz-adv-x="962" d="M911 -256h-860q-27 0 -39 10.5t-12 38.5t12 38.5t39 10.5h860q28 0 40 -10.5t12 -38.5t-12 -38.5t-40 -10.5z" />
<glyph unicode="`" horiz-adv-x="915" d="M422 1106l-176 244q-15 22 -15 34q0 37 88 37q50 0 73.5 -11.5t37.5 -39.5l119 -237q12 -21 12 -35q0 -29 -59 -29q-35 0 -50.5 7.5t-29.5 29.5z" />
<glyph unicode="a" horiz-adv-x="999" d="M715 59v19q0 33 4 69h-4q-43 -75 -121 -119t-184 -44q-147 0 -237.5 75t-90.5 211q0 151 119.5 234.5t337.5 83.5q92 0 172 -13v27q0 114 -55.5 177t-172.5 63q-96 0 -217 -41q-53 -17 -71 -17q-19 0 -28 13.5t-9 46.5q0 34 8 50t31 26q138 57 305 57q185 0 278.5 -101 t93.5 -270v-547q0 -32 -17.5 -45.5t-61.5 -13.5t-62 13.5t-18 45.5zM713 463q-62 10 -146 10q-305 0 -305 -188q0 -79 47.5 -123.5t130.5 -44.5q81 0 143.5 39.5t94.5 103.5q35 66 35 203z" />
<glyph unicode="b" horiz-adv-x="1167" d="M328 150h-4q4 -54 4 -93q0 -33 -18 -45t-70 -12q-49 0 -66.5 12t-17.5 45v1286q0 39 18.5 54.5t67.5 15.5q50 0 69 -15.5t19 -54.5v-274q0 -148 -6 -274h4q53 86 138 134t191 48q189 0 302.5 -133t113.5 -367q0 -235 -112 -367.5t-308 -132.5q-108 0 -194 45t-131 128z M616 123q124 0 199.5 92t75.5 264q0 170 -75.5 261t-199.5 91q-134 0 -212 -90.5t-78 -263.5t78 -263.5t212 -90.5z" />
<glyph unicode="c" horiz-adv-x="954" d="M827 18q-34 -17 -99.5 -29t-139.5 -12q-105 0 -195.5 32t-160.5 92.5t-110 158t-40 219.5t42.5 219t114 156.5t160.5 91t187 31.5q141 0 233 -41q45 -19 45 -82q0 -61 -30 -61q-3 0 -64 16q-90 25 -166 25q-153 0 -245.5 -90t-92.5 -265q0 -174 93 -265t245 -91 q93 0 172 27q46 16 64 16q30 0 30 -64q0 -34 -9.5 -52t-33.5 -32z" />
<glyph unicode="d" horiz-adv-x="1167" d="M848 154h-4q-38 -85 -120.5 -131t-199.5 -46q-195 0 -312.5 136t-117.5 364q0 229 117.5 364.5t304.5 135.5q109 0 195.5 -45t126.5 -123h4q-6 126 -6 285v249q0 39 19.5 54.5t68.5 15.5q50 0 69 -15.5t19 -54.5v-1284q0 -32 -18 -45.5t-64 -13.5q-49 0 -67.5 13.5 t-18.5 45.5q0 41 4 95zM555 123q132 0 208.5 90.5t76.5 263.5t-76.5 263.5t-208.5 90.5q-126 0 -201 -90.5t-75 -261.5q0 -173 74.5 -264.5t201.5 -91.5z" />
<glyph unicode="e" horiz-adv-x="1028" d="M934 438h-660q5 -150 87.5 -233.5t232.5 -83.5q85 0 164 22q12 4 30.5 10.5t30.5 10.5t19 4q34 0 34 -66q0 -32 -12 -50.5t-43 -31.5q-88 -43 -235 -43q-81 0 -153 18t-134.5 57.5t-107 97.5t-70 142t-25.5 187q0 238 122.5 368t317.5 130q196 0 301 -120t105 -347 q0 -36 -4 -72zM274 569h496q0 127 -64.5 201t-177.5 74q-112 0 -179 -75t-75 -200z" />
<glyph unicode="f" horiz-adv-x="770" d="M285 70v745h-183q-30 0 -40.5 15.5t-10.5 54.5t10.5 54t40.5 15h183v129q0 92 22.5 159.5t64.5 106t94 56.5t118 18q74 0 123 -18q32 -13 32 -68q0 -39 -8.5 -52t-30.5 -13q-9 0 -39 3t-47 3q-78 0 -115.5 -40.5t-37.5 -145.5v-138h213q30 0 40.5 -15t10.5 -54 t-10.5 -54.5t-40.5 -15.5h-213v-745q0 -39 -19 -54.5t-69 -15.5t-69 15.5t-19 54.5z" />
<glyph unicode="g" horiz-adv-x="1183" d="M854 168h-4q-40 -78 -122.5 -124t-195.5 -46q-194 0 -316 130t-122 355q0 228 118.5 361t307.5 133q109 0 198 -47t130 -127h4q-4 58 -4 92q0 32 19 45.5t69 13.5q49 0 67.5 -13.5t18.5 -45.5v-907q0 -193 -116 -296.5t-341 -103.5q-96 0 -183.5 17.5t-135.5 38.5 q-31 14 -42 32t-11 56q0 37 10 51t33 14q6 0 18 -3.5t28.5 -9.5t26.5 -9q119 -45 240 -45q299 0 299 262q0 88 6 176zM559 143q133 0 212 90.5t79 258.5q0 166 -79 254t-212 88q-128 0 -203 -89t-75 -256q0 -165 77 -255.5t201 -90.5z" />
<glyph unicode="h" horiz-adv-x="1181" d="M850 70v467q0 65 -11 115.5t-36.5 92t-72 64t-112.5 22.5q-130 0 -204 -101t-74 -255v-405q0 -39 -18.5 -54.5t-67.5 -15.5q-50 0 -69 15.5t-19 54.5v1273q0 39 19 54.5t69 15.5q49 0 67.5 -15.5t18.5 -54.5v-354q0 -96 -4 -198h4q104 186 326 186q168 0 264 -104 t96 -289v-514q0 -39 -19.5 -54.5t-68.5 -15.5t-68.5 15.5t-19.5 54.5z" />
<glyph unicode="i" horiz-adv-x="565" d="M397 1198l-80 -78q-18 -18 -34 -18q-17 0 -35 18l-80 78q-18 18 -18 37t18 37l78 76q18 18 37 18q18 0 36 -18l78 -76q19 -19 19 -37t-19 -37zM195 72v811q0 40 18.5 55.5t69.5 15.5t69.5 -15.5t18.5 -55.5v-811q0 -40 -19 -56t-69 -16t-69 16t-19 56z" />
<glyph unicode="j" horiz-adv-x="585" d="M213 -129v1012q0 40 18.5 55.5t69.5 15.5t69.5 -15.5t18.5 -55.5v-1035q0 -131 -59.5 -199.5t-194.5 -68.5q-30 0 -46.5 1t-39 5t-33.5 12.5t-19.5 24.5t-8.5 39q0 39 12 54.5t37 15.5q12 0 38 -3t42 -3q96 0 96 145zM418 1198l-80 -78q-18 -18 -35 -18t-35 18l-80 78 q-18 18 -18 37t18 37l78 76q18 18 37 18t37 -18l78 -76q18 -18 18 -37t-18 -37z" />
<glyph unicode="k" horiz-adv-x="1013" d="M770 63l-418 441h-8v-434q0 -39 -19 -54.5t-69 -15.5q-52 0 -71 15.5t-19 54.5v1273q0 39 19 54.5t71 15.5q50 0 69 -15.5t19 -54.5v-790h8l355 356q24 25 47 35t63 10q84 0 84 -53q0 -30 -33 -63l-325 -303l415 -416q33 -38 33 -64q0 -55 -88 -55q-47 0 -72 12.5 t-61 50.5z" />
<glyph unicode="l" horiz-adv-x="516" d="M170 70v1273q0 39 19 54.5t69 15.5t69 -15.5t19 -54.5v-1273q0 -39 -19 -54.5t-69 -15.5t-69 15.5t-19 54.5z" />
<glyph unicode="m" horiz-adv-x="1728" d="M1399 70v487q0 274 -199 274q-117 0 -184.5 -99t-67.5 -245v-417q0 -38 -19.5 -54t-66.5 -16q-50 0 -69 15.5t-19 54.5v487q0 274 -201 274q-117 0 -183 -98.5t-66 -245.5v-417q0 -39 -19.5 -54.5t-68.5 -15.5q-47 0 -65.5 15.5t-18.5 54.5v815q0 38 19.5 53.5t66.5 15.5 t65.5 -15.5t18.5 -53.5v-19q0 -23 -5 -73h5q43 84 120.5 134t180.5 50q106 0 180.5 -54t103.5 -143h6q43 89 127 143t199 54q156 0 245 -98.5t89 -274.5v-534q0 -39 -18.5 -54.5t-67.5 -15.5t-68.5 15.5t-19.5 54.5z" />
<glyph unicode="n" horiz-adv-x="1165" d="M836 70v467q0 294 -232 294q-132 0 -205 -99.5t-73 -256.5v-405q0 -39 -18.5 -54.5t-67.5 -15.5q-50 0 -69 15.5t-19 54.5v815q0 38 19.5 53.5t68.5 15.5t66.5 -15t17.5 -54v-19q0 -23 -5 -73h5q103 184 329 184q167 0 262 -104t95 -289v-514q0 -39 -18.5 -54.5 t-67.5 -15.5q-50 0 -69 15.5t-19 54.5z" />
<glyph unicode="o" horiz-adv-x="1155" d="M578 -23q-226 0 -356 134t-130 368q0 232 130 365t356 133t355.5 -133t129.5 -365q0 -234 -129.5 -368t-355.5 -134zM578 119q139 0 220 93t81 267q0 173 -81.5 266t-219.5 93t-220 -93t-82 -266q0 -174 81.5 -267t220.5 -93z" />
<glyph unicode="p" horiz-adv-x="1167" d="M156 -319v1214q0 32 18.5 45.5t67.5 13.5t67.5 -13.5t18.5 -45.5q0 -40 -4 -98h4q108 180 334 180q185 0 299 -135.5t114 -364.5t-113.5 -364.5t-306.5 -135.5q-109 0 -194 43.5t-131 129.5h-4q6 -117 6 -291v-178q0 -39 -19.5 -54.5t-70.5 -15.5q-49 0 -67.5 15.5 t-18.5 54.5zM616 123q124 0 198.5 92t74.5 264q0 170 -74.5 260t-198.5 90q-134 0 -212 -89.5t-78 -262.5t78 -263.5t212 -90.5z" />
<glyph unicode="q" horiz-adv-x="1163" d="M838 -319v217q0 83 4 239h-4q-37 -73 -117.5 -116.5t-194.5 -43.5q-194 0 -313 135.5t-119 364.5t117 364.5t305 135.5q108 0 195.5 -47t128.5 -127h4q-4 58 -4 92q0 32 19 45.5t69 13.5q49 0 67.5 -13.5t18.5 -45.5v-1214q0 -39 -19 -54.5t-69 -15.5t-69 15.5t-19 54.5z M555 121q131 0 209 93t78 267q0 172 -77.5 262.5t-209.5 90.5q-126 0 -200 -91t-74 -264t75.5 -265.5t198.5 -92.5z" />
<glyph unicode="r" horiz-adv-x="702" d="M147 70v815q0 39 19 54t70 15q49 0 67.5 -15t18.5 -54q0 -35 -5 -103h5q43 90 112.5 142.5t159.5 52.5q36 0 55 -8q19 -7 27 -22.5t8 -55.5q0 -78 -43 -78q-7 0 -28 2t-35 2q-51 0 -94 -19t-79.5 -59.5t-57.5 -113.5t-21 -172v-383q0 -39 -19 -54.5t-69 -15.5 q-52 0 -71.5 15.5t-19.5 54.5z" />
<glyph unicode="s" horiz-adv-x="804" d="M717 236q0 -122 -87.5 -190.5t-232.5 -68.5q-74 0 -146 14t-114 36q-23 11 -33 27t-10 50q0 66 43 66q20 0 60 -16q111 -39 190 -39q66 0 109 30t43 86q0 61 -38 101.5t-153 105.5q-140 80 -196 140t-56 153q0 115 85.5 180.5t246.5 65.5q107 0 197 -35q27 -11 37 -25 t10 -47q0 -35 -9 -47t-28 -12q-12 0 -62 10q-92 21 -145 21q-73 0 -115.5 -27.5t-42.5 -77.5t41 -85.5t174 -110.5q66 -37 103.5 -63.5t70 -62t45.5 -78.5t13 -101z" />
<glyph unicode="t" horiz-adv-x="770" d="M260 274v541h-176q-30 0 -40.5 15.5t-10.5 54.5t10.5 54t40.5 15h178v250q0 35 19.5 48.5t64.5 13.5t65.5 -14t20.5 -48v-250h221q30 0 41 -15t11 -54t-11 -54.5t-41 -15.5h-221v-516q0 -168 146 -168q23 0 57 5t43 5q39 0 39 -65q0 -32 -8.5 -46.5t-30.5 -23.5 q-49 -18 -129 -18q-138 0 -213.5 74t-75.5 212z" />
<glyph unicode="u" horiz-adv-x="1165" d="M840 70v18q0 34 4 74h-4q-102 -185 -326 -185q-163 0 -260.5 95.5t-97.5 289.5v523q0 39 18.5 54t67.5 15q50 0 69 -15t19 -54v-473q0 -138 54 -213.5t179 -75.5q131 0 204 99.5t73 256.5v406q0 39 18.5 54t67.5 15q50 0 69 -15t19 -54v-815q0 -39 -19 -54.5t-69 -15.5 t-68 15.5t-18 54.5z" />
<glyph unicode="v" horiz-adv-x="948" d="M473 137h4q6 19 117 346l135 394q15 44 37 60.5t68 16.5q79 0 79 -55q0 -19 -16 -59l-295 -764q-19 -51 -44 -68.5t-83 -17.5t-84.5 17.5t-46.5 68.5l-289 766q-14 42 -14 59q0 28 20 40.5t64 12.5q47 0 67.5 -13.5t34.5 -53.5l131 -404q20 -63 59.5 -179.5t55.5 -166.5z " />
<glyph unicode="w" horiz-adv-x="1495" d="M1081 135h4q24 93 93 346l104 402q11 40 30.5 54.5t63.5 14.5q78 0 78 -53q0 -12 -14 -59l-230 -768q-15 -50 -42.5 -67t-84.5 -17q-65 0 -93.5 17t-41.5 67l-82 301q-80 289 -112 430h-4q-54 -212 -111 -420l-86 -311q-12 -47 -40.5 -64.5t-90.5 -17.5t-90 16.5 t-43 65.5l-234 768q-14 47 -14 59q0 55 88 55q47 0 68.5 -14t31.5 -53l109 -404q43 -152 88 -346h4q34 149 105 400l92 333q13 48 38.5 66t90.5 18q64 0 89.5 -17.5t39.5 -66.5l90 -335q68 -244 106 -400z" />
<glyph unicode="x" horiz-adv-x="962" d="M725 68l-84 125q-100 141 -156 231h-4q-14 -22 -41.5 -61.5t-65.5 -94t-57 -82.5l-86 -127q-24 -34 -44 -46.5t-64 -12.5q-88 0 -88 49q0 19 16 41l307 408l-268 352q-18 24 -18 51q0 53 90 53q46 0 67 -13t50 -54l65 -96q61 -86 152 -224h4q68 108 145 224l70 104 q24 36 44.5 47.5t63.5 11.5q82 0 82 -51q0 -16 -14 -37l-273 -368l287 -394q19 -28 19 -49q0 -55 -86 -55q-44 0 -65.5 14t-47.5 54z" />
<glyph unicode="y" horiz-adv-x="948" d="M399 -49l-348 891q-14 42 -14 59q0 28 20 40.5t64 12.5q47 0 67.5 -13.5t34.5 -53.5l135 -404q33 -97 113 -346h4q19 58 69 201.5t60 173.5l125 365q15 44 38 60.5t69 16.5q77 0 77 -55q0 -24 -14 -59l-352 -918q-74 -193 -142 -263.5t-182 -70.5q-79 0 -119 21 q-34 14 -34 65q0 68 39 68q12 0 43 -6t53 -6q62 0 103.5 47t90.5 174z" />
<glyph unicode="z" horiz-adv-x="937" d="M805 0h-664q-32 0 -45.5 13.5t-13.5 45.5v45q0 33 22 62l535 649h-487q-30 0 -41 15.5t-11 54.5t11 54t41 15h626q34 0 47 -13t13 -46v-43q0 -32 -23 -61l-528 -652h518q30 0 40.5 -14.5t10.5 -54.5q0 -39 -10.5 -54.5t-40.5 -15.5z" />
<glyph unicode="{" horiz-adv-x="724" d="M231 66v208q0 114 -28.5 167.5t-112.5 78.5q-43 13 -56.5 31t-13.5 76q0 57 13 75t57 31q84 25 112.5 78.5t28.5 167.5v209q0 173 91.5 262.5t263.5 89.5q28 0 39.5 -12.5t11.5 -44.5q0 -36 -6 -48t-25 -12q-207 0 -207 -243v-185q0 -126 -20.5 -195t-67.5 -106.5 t-141 -64.5v-4q94 -31 141 -70t67.5 -107t20.5 -190v-184q0 -244 207 -244q19 0 25 -12t6 -47q0 -32 -11.5 -45t-39.5 -13q-172 0 -263.5 90t-91.5 263z" />
<glyph unicode="|" horiz-adv-x="528" d="M184 -383v1921q0 31 18 43t62 12t62 -12t18 -43v-1921q0 -31 -18 -43t-62 -12t-62 12t-18 43z" />
<glyph unicode="}" horiz-adv-x="724" d="M326 74v184q0 122 20.5 190t67 107t139.5 70v4q-93 27 -139.5 64t-67 106.5t-20.5 195.5v185q0 243 -207 243q-19 0 -25 12t-6 48q0 32 11.5 44.5t39.5 12.5q172 0 263.5 -89.5t91.5 -262.5v-209q0 -114 28.5 -167.5t112.5 -78.5q44 -13 57 -31t13 -75q0 -58 -13.5 -76 t-56.5 -31q-84 -25 -112.5 -78.5t-28.5 -167.5v-208q0 -173 -91.5 -263t-263.5 -90q-28 0 -39.5 13t-11.5 45q0 35 6 47t25 12q207 0 207 244z" />
<glyph unicode="~" horiz-adv-x="1212" d="M1079 461q-36 -41 -102 -65.5t-137 -24.5q-76 0 -146 26.5t-115.5 57.5t-109.5 57.5t-129 26.5q-98 0 -188 -86q-15 -11 -25 -11q-15 0 -23 14t-8 54q0 31 5.5 48t23.5 36q37 40 102.5 65t134.5 25q63 0 119.5 -17.5t99 -42t84.5 -49t92.5 -42t104.5 -17.5q101 0 191 86 q13 10 24 10q15 0 23 -13.5t8 -53.5q0 -31 -5.5 -48t-23.5 -36z" />
<glyph unicode="&#xa1;" horiz-adv-x="696" d="M477 782l-94 -92q-22 -18 -37 -18q-19 0 -37 18l-94 92q-16 16 -16 35q0 21 16 37l94 92q19 19 37 19t37 -19l94 -92q19 -19 19 -37q0 -16 -19 -35zM246 -385l30 870q2 28 17 40t53 12t53 -12t17 -40l35 -870q-2 -42 -25.5 -60t-79.5 -18t-77 18t-23 60z" />
<glyph unicode="&#xa2;" horiz-adv-x="1034" d="M297 -217l78 250q-117 58 -184.5 171t-67.5 275q0 122 42.5 219t114 156.5t160.5 91t187 31.5h41l73 237q8 25 50 25q49 0 49 -27q0 -8 -4 -20l-70 -227q44 -9 94 -29q45 -19 45 -82q0 -61 -31 -61q-2 0 -63 16q-42 13 -90 18l-211 -682q56 -22 135 -22q93 0 172 27 q46 16 64 16q30 0 30 -64q0 -34 -9.5 -52t-33.5 -32q-73 -41 -239 -41q-91 0 -164 23l-76 -240q-8 -24 -47 -24q-49 0 -49 26q0 9 4 21zM424 193l199 641q-143 -6 -229.5 -97.5t-86.5 -257.5q0 -193 117 -286z" />
<glyph unicode="&#xa3;" horiz-adv-x="1062" d="M891 0h-725q-27 0 -37 16t-10 58t10 59t37 17h145v542h-127q-23 0 -31 13.5t-8 46.5q0 34 8 47.5t31 13.5h127v131q0 492 432 492q99 0 150 -20.5t51 -76.5q0 -41 -9.5 -55t-31.5 -14q-13 0 -59.5 8t-79.5 8q-134 0 -200 -77.5t-66 -239.5v-156h270q23 0 31 -13.5 t8 -47.5q0 -33 -8 -46.5t-31 -13.5h-270v-542h393q27 0 37 -17t10 -59t-10 -58t-37 -16z" />
<glyph unicode="&#xa4;" horiz-adv-x="1134" d="M924 231l-162 166q-80 -63 -197 -63q-114 0 -194 63l-164 -166q-18 -18 -37 -18q-23 0 -51 25q-29 26 -29 51q0 19 33 55l149 152q-57 86 -57 192t57 189l-149 151q-33 36 -33 55q0 26 29 52q27 24 51 24q19 0 37 -18l164 -166q85 65 200 65q111 0 191 -63l164 164 q18 18 37 18q24 0 51 -24q28 -25 28 -52q0 -20 -32 -55l-148 -149q58 -88 58 -191q0 -104 -60 -192l148 -152q32 -32 32 -55q0 -28 -26 -51q-32 -25 -53 -25q-16 0 -37 18zM565 473q93 0 151 59.5t58 155.5q0 95 -58.5 155t-150.5 60q-91 0 -147 -60t-56 -155t56 -155 t147 -60z" />
<glyph unicode="&#xa5;" horiz-adv-x="1058" d="M860 350h-242v-276q0 -40 -20 -57t-70 -17t-70 17t-20 57v276h-241q-24 0 -32.5 13.5t-8.5 42.5t8.5 42t32.5 13h241v123l-12 20h-229q-24 0 -32.5 13t-8.5 42t8.5 42.5t32.5 13.5h170l-328 592q-16 24 -16 45q0 32 23 46.5t75 14.5q53 0 77.5 -15t45.5 -57l112 -233 q159 -332 181 -383h4q53 126 176 383l117 238q18 38 41 52.5t69 14.5q92 0 92 -53q0 -23 -16 -45l-328 -600h168q24 0 32.5 -13.5t8.5 -42.5t-8.5 -42t-32.5 -13h-229l-13 -22v-121h242q24 0 32.5 -13t8.5 -42t-8.5 -42.5t-32.5 -13.5z" />
<glyph unicode="&#xa6;" horiz-adv-x="528" d="M184 850v688q0 31 18 43t62 12t62 -12t18 -43v-688q0 -31 -18 -43t-62 -12t-62 12t-18 43zM184 -383v688q0 31 18 43t62 12t62 -12t18 -43v-688q0 -31 -18 -43t-62 -12t-62 12t-18 43z" />
<glyph unicode="&#xa7;" horiz-adv-x="1015" d="M705 297q89 -60 128 -124t39 -165q0 -147 -101 -222t-271 -75q-86 0 -171 17t-134 41q-29 14 -40.5 32t-11.5 56q0 36 11.5 50.5t35.5 14.5q22 0 76 -20q123 -43 221 -43q213 0 213 145q0 76 -51.5 123.5t-199.5 124.5q-168 89 -236 160.5t-68 181.5q0 95 55 161t146 93 q-105 64 -153 131.5t-48 157.5q0 129 97 206.5t282 77.5q136 0 236 -41q30 -12 41.5 -29t11.5 -53q0 -34 -10 -46.5t-33 -12.5q-20 0 -70 12q-86 23 -184 23q-92 0 -145.5 -34.5t-53.5 -96.5q0 -65 56.5 -113t226.5 -143q106 -60 157.5 -99.5t80 -94.5t28.5 -134 q0 -181 -161 -262zM463 436l133 -71q109 48 109 174q0 56 -29 93t-103 79l-114 67q-71 -14 -112.5 -55.5t-41.5 -101.5q0 -61 40 -101.5t118 -83.5z" />
<glyph unicode="&#xa8;" horiz-adv-x="1101" d="M436 1196l-74 -74q-16 -16 -36 -16q-21 0 -37 16l-74 74q-16 16 -16 37q0 19 16 35l74 73q17 17 37 17q19 0 36 -17l74 -73q17 -17 17 -35q0 -20 -17 -37zM887 1196l-74 -74q-16 -16 -37 -16t-37 16l-73 74q-17 17 -17 37q0 18 17 35l73 73q17 17 37 17t37 -17l74 -73 q16 -16 16 -35q0 -21 -16 -37z" />
<glyph unicode="&#xa9;" horiz-adv-x="1855" d="M1642 707q0 -321 -196.5 -517t-517.5 -196t-518 196t-197 517t197 516.5t518 195.5t517.5 -195.5t196.5 -516.5zM928 76q283 0 455.5 173.5t172.5 457.5t-172.5 457t-455.5 173t-456 -173t-173 -457t173 -457.5t456 -173.5zM1157 311q-72 -35 -205 -35q-87 0 -163 26 t-137 77t-96.5 135.5t-35.5 192.5q0 107 37 191.5t99.5 135.5t138 77t157.5 26q118 0 199 -35q24 -10 32.5 -25.5t8.5 -48.5q0 -55 -25 -55q-7 0 -28 6t-29 8q-74 21 -141 21q-126 0 -206.5 -75t-80.5 -226q0 -152 81 -225.5t208 -73.5q71 0 145 24q7 2 19.5 6.5t21.5 7.5 t14 3q27 0 27 -62q0 -32 -9.5 -48.5t-31.5 -27.5z" />
<glyph unicode="&#xaa;" horiz-adv-x="835" d="M582 662v18q0 13 6 55q-73 -133 -244 -133q-127 0 -204 63.5t-77 174.5q0 125 101 194.5t285 69.5q44 0 126 -10v14q0 90 -40.5 135t-131.5 45q-85 0 -182 -33q-40 -12 -59 -12q-20 0 -28.5 12t-8.5 43q0 32 7.5 46.5t27.5 23.5q45 20 116.5 33.5t143.5 13.5 q156 0 236.5 -77.5t80.5 -225.5v-450q0 -29 -18 -39.5t-60 -10.5t-59.5 10.5t-17.5 39.5zM578 987q-58 8 -107 8q-118 0 -176.5 -34.5t-58.5 -110.5q0 -58 34.5 -90.5t98.5 -32.5q122 0 182 113q27 53 27 147z" />
<glyph unicode="&#xab;" horiz-adv-x="942" d="M295 156l-170 241q-31 42 -31 80q0 32 31 80l170 244q15 24 32 32.5t52 8.5q72 0 72 -35q0 -11 -13 -33l-178 -297l178 -295q13 -22 13 -32q0 -35 -72 -35q-35 0 -52 8.5t-32 32.5zM680 156l-170 241q-28 38 -31 80q0 32 31 80l170 244q15 24 32 32.5t52 8.5q72 0 72 -35 q0 -11 -13 -33l-178 -297l178 -295q13 -22 13 -32q0 -35 -72 -35q-35 0 -52 8.5t-32 32.5z" />
<glyph unicode="&#xac;" horiz-adv-x="1187" d="M918 281v401h-789q-33 0 -44 15t-11 55q0 39 11 54t44 15h872q38 0 55 -16.5t17 -54.5v-469q0 -34 -17 -46t-61 -12q-45 0 -61 11.5t-16 46.5z" />
<glyph unicode="&#xad;" horiz-adv-x="643" d="M506 475h-367q-32 0 -43.5 16t-11.5 62t11.5 62t43.5 16h367q31 0 43 -16.5t12 -61.5t-12 -61.5t-43 -16.5z" />
<glyph unicode="&#xae;" horiz-adv-x="1052" d="M889 1040q0 -162 -100 -261t-263 -99t-262.5 98.5t-99.5 261.5t99.5 262t262.5 99t263 -99t100 -262zM526 739q133 0 215 83t82 218t-82 218t-215 83t-215 -83t-82 -218t82 -218t215 -83zM606 852l-137 160h-4v-156q0 -14 -7 -19.5t-26 -5.5q-20 0 -26.5 5.5t-6.5 19.5 v373q0 24 25 24h88q150 0 150 -120q0 -103 -113 -117l117 -131q18 -22 18 -35q0 -19 -33 -19q-18 0 -27 4.5t-18 16.5zM465 1065h29q98 0 98 68q0 63 -86 63h-41v-131z" />
<glyph unicode="&#xaf;" horiz-adv-x="1087" d="M825 1171h-563q-33 0 -33 52q0 51 33 51h563q33 0 33 -51q0 -52 -33 -52z" />
<glyph unicode="&#xb0;" horiz-adv-x="804" d="M717 1171q0 -138 -87.5 -222.5t-228.5 -84.5t-227 84.5t-86 222.5t86 223t227 85t228.5 -85t87.5 -223zM401 981q84 0 135.5 52t51.5 138t-51.5 138.5t-135.5 52.5q-83 0 -133.5 -52.5t-50.5 -138.5t50.5 -138t133.5 -52z" />
<glyph unicode="&#xb1;" horiz-adv-x="1204" d="M1059 592h-381v-270q0 -33 -17 -44.5t-61 -11.5q-43 0 -60.5 11.5t-17.5 44.5v270h-381q-33 0 -44 15.5t-11 56.5t11 56t44 15h381v271q0 31 18 43t60 12q44 0 61 -11.5t17 -43.5v-271h381q33 0 44 -15t11 -56t-11 -56.5t-44 -15.5zM1061 0h-916q-34 0 -45.5 15.5 t-11.5 56.5t11.5 56t45.5 15h916q34 0 45.5 -15t11.5 -56t-11.5 -56.5t-45.5 -15.5z" />
<glyph unicode="&#xb2;" horiz-adv-x="770" d="M621 565h-488q-43 0 -43 41v41q0 27 6.5 39.5t26.5 28.5l192 176q97 89 140 152.5t43 132.5q0 66 -37.5 103.5t-112.5 37.5q-70 0 -168 -35q-21 -8 -41 -8q-30 0 -30 51q0 29 6.5 42t23.5 19q108 46 221 46q134 0 209.5 -66t75.5 -178q0 -96 -48.5 -174.5t-166.5 -184.5 q-120 -109 -170 -151q160 4 272 4h89q25 0 34 -12.5t9 -46.5t-9 -46t-34 -12z" />
<glyph unicode="&#xb3;" horiz-adv-x="765" d="M473 1008q182 -47 182 -217q0 -111 -86.5 -175.5t-236.5 -64.5q-119 0 -209 31q-19 8 -26 20t-7 41q0 51 31 51q11 0 65 -14q70 -16 140 -16q186 0 186 135q0 149 -211 149q-29 0 -40 12t-11 46q0 31 11 42t40 11q201 0 201 137q0 123 -148 123q-50 0 -166 -31 q-30 -10 -43 -10q-30 0 -30 51q0 30 8 43t27 19q97 41 217 41q129 0 202.5 -60t73.5 -162q0 -158 -170 -202z" />
<glyph unicode="&#xb4;" horiz-adv-x="915" d="M672 1350l-176 -244q-16 -22 -31 -29.5t-49 -7.5q-60 0 -60 29q0 9 11 35l120 237q14 29 36.5 40t72.5 11q90 0 90 -37q0 -13 -14 -34z" />
<glyph unicode="&#xb5;" horiz-adv-x="1263" d="M862 158h-4q-76 -181 -283 -181q-78 0 -141.5 29.5t-97.5 79.5l-6 -4q6 -120 6 -313v-129q0 -39 -19 -54.5t-69 -15.5q-49 0 -67.5 15.5t-18.5 54.5v1245q0 39 18.5 54t67.5 15q50 0 69 -15t19 -54v-471q0 -139 64 -216t188 -77q125 0 190.5 97t65.5 265v402 q0 39 18.5 54t67.5 15q50 0 69 -15t19 -54v-631q0 -61 16.5 -89t59.5 -28q35 0 47 -15t12 -54q0 -46 -20 -62t-84 -16q-90 0 -134 38t-53 130z" />
<glyph unicode="&#xb6;" horiz-adv-x="1249" d="M883 -270v1554h-213v-1554q0 -32 -17 -45t-57 -13q-42 0 -59 13t-17 45v759q-215 6 -336 127t-121 330q0 218 135 342.5t373 124.5h549q23 0 32 -14t9 -49q0 -37 -9 -51.5t-32 -14.5h-88v-1554q0 -32 -17 -45t-59 -13q-40 0 -56.5 13t-16.5 45z" />
<glyph unicode="&#xb7;" horiz-adv-x="561" d="M414 522l-95 -94q-16 -16 -36 -16q-21 0 -37 16l-96 94q-17 17 -17 37q0 18 17 35l96 92q16 16 37 16q17 0 36 -16l95 -92q16 -16 16 -35q0 -21 -16 -37z" />
<glyph unicode="&#xb8;" horiz-adv-x="991" d="M348 -176l23 194h106l-22 -141q30 10 67 10q57 0 102.5 -41.5t45.5 -115.5q0 -185 -230 -185q-55 0 -98 15q-18 8 -18 39q0 24 7.5 32.5t26.5 8.5q11 0 37.5 -3.5t46.5 -3.5q42 0 69.5 20.5t27.5 67.5q0 41 -24 63.5t-62 22.5q-16 0 -43 -5t-39 -5q-23 0 -23 27z" />
<glyph unicode="&#xb9;" horiz-adv-x="710" d="M324 608v426q0 146 6 223l-111 -102q-19 -16 -35 -16q-21 0 -46 25t-25 46q0 20 30 47l164 136q27 22 53 22h62q45 0 45 -43v-764q0 -26 -15 -36.5t-55 -10.5q-41 0 -57 10.5t-16 36.5z" />
<glyph unicode="&#xba;" horiz-adv-x="944" d="M471 602q-183 0 -293 112t-110 298q0 184 110 293.5t293 109.5q185 0 295.5 -109.5t110.5 -293.5q0 -186 -111 -298t-295 -112zM471 733q109 0 169 73.5t60 205.5q0 130 -60 202t-169 72q-107 0 -167 -72t-60 -202q0 -132 60 -205.5t167 -73.5z" />
<glyph unicode="&#xbb;" horiz-adv-x="942" d="M430 397l-168 -241q-15 -24 -33 -32.5t-53 -8.5q-70 0 -70 35q0 14 11 32l178 295l-178 297q-11 18 -11 33q0 35 70 35q35 0 53 -8.5t33 -32.5l168 -244q33 -44 33 -80q0 -33 -33 -80zM815 397l-168 -241q-15 -24 -33 -32.5t-53 -8.5q-69 0 -69 35q0 15 10 32l178 295 l-178 297q-10 17 -10 33q0 35 69 35q35 0 53 -8.5t33 -32.5l168 -244q33 -44 33 -80q0 -33 -33 -80z" />
<glyph unicode="&#xbc;" horiz-adv-x="1734" d="M393 25l807 1437q13 23 27.5 32t46.5 9q61 0 61 -37q0 -12 -10 -32l-807 -1438q-12 -24 -27.5 -32.5t-48.5 -8.5q-59 0 -59 37q0 13 10 33zM324 608v426q0 146 6 223l-111 -102q-19 -16 -35 -16q-21 0 -46 25t-25 46q0 20 30 47l164 136q25 22 53 22h62q45 0 45 -43v-764 q0 -26 -15 -36.5t-55 -10.5q-41 0 -57 10.5t-16 36.5zM1640 180h-77v-135q0 -25 -15 -35t-53 -10t-53 10t-15 35v135h-352q-51 0 -51 49v35q0 27 16 51l320 506q11 18 23 25.5t36 7.5h99q45 0 45 -43v-516h77q23 0 31 -11t8 -46q0 -34 -8 -46t-31 -12zM1430 295v237 q0 55 4 199q-60 -108 -76 -133l-189 -303h261z" />
<glyph unicode="&#xbd;" horiz-adv-x="1800" d="M393 25l807 1437q13 23 27.5 32t46.5 9q61 0 61 -37q0 -12 -10 -32l-807 -1438q-12 -24 -27.5 -32.5t-48.5 -8.5q-59 0 -59 37q0 13 10 33zM324 608v426q0 146 6 223l-111 -102q-19 -16 -35 -16q-21 0 -46 25t-25 46q0 20 30 47l164 136q25 22 53 22h62q45 0 45 -43v-764 q0 -26 -15 -36.5t-55 -10.5q-41 0 -57 10.5t-16 36.5zM1651 0h-490q-41 0 -41 41v41q0 26 6 37.5t27 30.5l190 176q100 94 142.5 154.5t42.5 129.5q0 66 -37.5 104t-114.5 38q-48 0 -119 -21.5t-88 -21.5q-30 0 -30 51q0 29 6.5 42t23.5 19q106 45 222 45q134 0 209 -65.5 t75 -177.5q0 -95 -49 -175t-166 -184l-170 -151q156 4 273 4h88q23 0 32 -13t9 -47q0 -33 -8.5 -45t-32.5 -12z" />
<glyph unicode="&#xbe;" horiz-adv-x="1816" d="M500 25l809 1437q13 24 26 32.5t45 8.5q64 0 64 -37q0 -12 -10 -32l-809 -1438q-13 -23 -27.5 -32t-46.5 -9q-62 0 -62 37q0 11 11 33zM473 1008q182 -47 182 -217q0 -111 -86.5 -175.5t-236.5 -64.5q-134 0 -188 20.5t-54 71.5t31 51q12 0 80.5 -15t124.5 -15 q186 0 186 135q0 149 -211 149q-29 0 -40 12t-11 46q0 31 11 42t40 11q201 0 201 137q0 123 -148 123q-48 0 -123 -20.5t-86 -20.5q-30 0 -30 51q0 29 7.5 41.5t27.5 20.5q113 41 217 41q129 0 202.5 -60t73.5 -162q0 -158 -170 -202zM1724 180h-77v-135q0 -25 -15 -35 t-53 -10q-39 0 -54.5 10t-15.5 35v135h-350q-51 0 -51 49v35q0 27 16 51l318 506q11 18 23.5 25.5t37.5 7.5h99q45 0 45 -43v-516h77q22 0 30.5 -11.5t8.5 -45.5q0 -33 -8.5 -45.5t-30.5 -12.5zM1511 295v237q0 17 5 197q-40 -75 -76 -131l-187 -303h258z" />
<glyph unicode="&#xbf;" horiz-adv-x="886" d="M569 782l-94 -92q-22 -18 -37 -18q-19 0 -37 18l-94 92q-16 16 -16 35q0 21 16 37l94 92q19 19 37 19t37 -19l94 -92q19 -19 19 -37q0 -16 -19 -35zM524 487v-32q0 -101 -25 -164t-108 -162q-46 -56 -70 -90t-44.5 -86.5t-20.5 -106.5q0 -81 50.5 -130.5t137.5 -49.5 q67 0 166 29t121 29q41 0 41 -66q0 -73 -94.5 -109t-255.5 -36q-170 0 -264.5 91.5t-94.5 219.5q0 97 38.5 171.5t134.5 192.5q77 95 97.5 145t20.5 136v18q0 34 19 47t67 13q47 0 65.5 -13t18.5 -47z" />
<glyph unicode="&#xc0;" horiz-adv-x="1327" d="M584 1565l-176 243q-15 22 -15 35q0 37 88 37q50 0 73.5 -11.5t37.5 -39.5l119 -238q12 -21 12 -35q0 -28 -59 -28q-35 0 -50.5 7.5t-29.5 29.5zM1085 82l-118 305h-607l-118 -305q-20 -52 -43.5 -69t-73.5 -17q-45 0 -65.5 12.5t-20.5 48.5q0 28 16 64l488 1192 q27 67 48.5 86.5t72.5 19.5t72 -19.5t48 -86.5l488 -1192q16 -36 16 -64q0 -36 -20.5 -48.5t-65.5 -12.5q-50 0 -73.5 17t-43.5 69zM905 545l-114 295q-26 66 -125 360h-4q-99 -294 -125 -360l-115 -295h483z" />
<glyph unicode="&#xc1;" horiz-adv-x="1327" d="M1085 82l-118 305h-607l-118 -305q-20 -52 -43.5 -69t-73.5 -17q-45 0 -65.5 12.5t-20.5 48.5q0 28 16 64l488 1192q27 67 48.5 86.5t72.5 19.5t72 -19.5t48 -86.5l488 -1192q16 -36 16 -64q0 -36 -20.5 -48.5t-65.5 -12.5q-50 0 -73.5 17t-43.5 69zM905 545l-114 295 q-26 66 -125 360h-4q-99 -294 -125 -360l-115 -295h483zM920 1808l-177 -243q-16 -22 -31 -29.5t-48 -7.5q-60 0 -60 28q0 12 10 35l121 238q14 29 36.5 40t72.5 11q90 0 90 -37q0 -14 -14 -35z" />
<glyph unicode="&#xc2;" horiz-adv-x="1327" d="M834 1559l-170 210l-170 -210q-12 -17 -26.5 -23t-45.5 -6q-55 0 -55 26q0 12 12 27l162 248q19 27 46 38t81 11q55 0 82 -11t45 -38l157 -248q13 -16 13 -27q0 -26 -56 -26q-33 0 -47 5.5t-28 23.5zM1085 82l-118 305h-607l-118 -305q-20 -52 -43.5 -69t-73.5 -17 q-45 0 -65.5 12.5t-20.5 48.5q0 28 16 64l488 1192q27 67 48.5 86.5t72.5 19.5t72 -19.5t48 -86.5l488 -1192q16 -36 16 -64q0 -36 -20.5 -48.5t-65.5 -12.5q-50 0 -73.5 17t-43.5 69zM905 545l-114 295q-26 66 -125 360h-4q-99 -294 -125 -360l-115 -295h483z" />
<glyph unicode="&#xc3;" horiz-adv-x="1327" d="M1085 82l-118 305h-607l-118 -305q-20 -52 -43.5 -69t-73.5 -17q-45 0 -65.5 12.5t-20.5 48.5q0 28 16 64l488 1192q27 67 48.5 86.5t72.5 19.5t72 -19.5t48 -86.5l488 -1192q16 -36 16 -64q0 -36 -20.5 -48.5t-65.5 -12.5q-50 0 -73.5 17t-43.5 69zM905 545l-114 295 q-26 66 -125 360h-4q-99 -294 -125 -360l-115 -295h483zM817 1577q-60 0 -171.5 44t-149.5 44q-31 0 -51.5 -12t-28.5 -26t-16 -30.5t-15 -21.5q-8 -6 -31 -6q-22 0 -30.5 6.5t-8.5 23.5q0 74 55.5 134.5t141.5 60.5q60 0 172.5 -44t146.5 -44q77 0 101 78q6 18 41 18 q39 0 39 -30q0 -68 -51.5 -131.5t-143.5 -63.5z" />
<glyph unicode="&#xc4;" horiz-adv-x="1327" d="M549 1655l-74 -74q-16 -16 -37 -16t-37 16l-73 74q-17 17 -17 37q0 17 17 34l73 74q17 17 37 17t37 -17l74 -74q16 -16 16 -34q0 -21 -16 -37zM999 1655l-73 -74q-16 -16 -37 -16t-37 16l-74 74q-16 16 -16 37q0 18 16 34l74 74q17 17 37 17t37 -17l73 -74q17 -17 17 -34 q0 -20 -17 -37zM1085 82l-118 305h-607l-118 -305q-20 -52 -43.5 -69t-73.5 -17q-45 0 -65.5 12.5t-20.5 48.5q0 28 16 64l488 1192q27 67 48.5 86.5t72.5 19.5t72 -19.5t48 -86.5l488 -1192q16 -36 16 -64q0 -36 -20.5 -48.5t-65.5 -12.5q-50 0 -73.5 17t-43.5 69zM905 545 l-114 295q-26 66 -125 360h-4q-99 -294 -125 -360l-115 -295h483z" />
<glyph unicode="&#xc5;" horiz-adv-x="1327" d="M858 1683q0 -84 -53.5 -135t-140.5 -51q-88 0 -141.5 52.5t-53.5 138.5q0 84 53.5 135t141.5 51q87 0 140.5 -52.5t53.5 -138.5zM772 1683q0 51 -30 82t-78 31q-50 0 -79.5 -29.5t-29.5 -78.5q0 -51 30 -82t79 -31q48 0 78 29.5t30 78.5zM1085 82l-118 305h-607 l-118 -305q-20 -52 -43.5 -69t-73.5 -17q-45 0 -65.5 12.5t-20.5 48.5q0 28 16 64l488 1192q27 67 48.5 86.5t72.5 19.5t72 -19.5t48 -86.5l488 -1192q16 -36 16 -64q0 -36 -20.5 -48.5t-65.5 -12.5q-50 0 -73.5 17t-43.5 69zM905 545l-114 295q-26 66 -125 360h-4 q-99 -294 -125 -360l-115 -295h483z" />
<glyph unicode="&#xc6;" horiz-adv-x="1738" d="M1556 0h-583q-36 0 -53 17.5t-19 54.5l-12 315h-490l-155 -293q-19 -36 -28 -50t-23 -28t-29.5 -17t-42.5 -3q-49 0 -71.5 13t-22.5 44q0 26 18 58l651 1173q43 77 72.5 103t87.5 26h664q33 0 46 -17.5t13 -62.5t-13 -62.5t-46 -17.5h-480l15 -442h444q34 0 47 -17.5 t13 -60.5t-13 -60.5t-47 -17.5h-438l20 -495h475q34 0 47 -17t13 -63q0 -44 -13 -62t-47 -18zM883 535l-25 718h-8q-63 -142 -199 -397l-172 -321h404z" />
<glyph unicode="&#xc7;" horiz-adv-x="1261" d="M647 -205l23 191q-262 39 -411.5 225.5t-149.5 495.5q0 175 51 314t142.5 229.5t217.5 138t277 47.5q99 0 183.5 -19t137.5 -47q33 -19 44.5 -38.5t11.5 -57.5q0 -64 -41 -64q-22 0 -76 21q-112 47 -254 47q-229 0 -362.5 -149t-133.5 -422q0 -271 133.5 -419.5 t364.5 -148.5q127 0 252 47q77 25 84 25q43 0 43 -70q0 -36 -11.5 -55.5t-44.5 -38.5q-53 -29 -139.5 -49.5t-189.5 -20.5h-25l-20 -124q30 10 67 10q57 0 102.5 -42t45.5 -116q0 -95 -59.5 -139.5t-155.5 -44.5q-45 0 -95 8q-20 3 -28 12t-8 33t7.5 32.5t26.5 8.5 q15 0 42 -3t42 -3q42 0 69.5 20.5t27.5 67.5q0 41 -24 63.5t-62 22.5q-28 0 -68 -8q-2 0 -9 -2t-9 -2q-19 0 -19 24z" />
<glyph unicode="&#xc8;" horiz-adv-x="1097" d="M494 1565l-177 243q-14 21 -14 35q0 37 88 37q50 0 73.5 -11.5t37.5 -39.5l119 -238q12 -21 12 -35q0 -28 -60 -28q-35 0 -50 7.5t-29 29.5zM901 0h-647q-38 0 -54 16t-16 54v1273q0 38 16 54t54 16h641q34 0 47.5 -18t13.5 -62t-13.5 -62t-47.5 -18h-524v-442h481 q32 0 45.5 -17.5t13.5 -60.5t-13.5 -60.5t-45.5 -17.5h-481v-495h530q34 0 48 -17.5t14 -62.5q0 -44 -14 -62t-48 -18z" />
<glyph unicode="&#xc9;" horiz-adv-x="1097" d="M829 1808l-176 -243q-16 -22 -31 -29.5t-49 -7.5q-59 0 -59 28q0 12 10 35l121 238q14 29 36.5 40t72.5 11q90 0 90 -37q0 -13 -15 -35zM901 0h-647q-38 0 -54 16t-16 54v1273q0 38 16 54t54 16h641q34 0 47.5 -18t13.5 -62t-13.5 -62t-47.5 -18h-524v-442h481 q32 0 45.5 -17.5t13.5 -60.5t-13.5 -60.5t-45.5 -17.5h-481v-495h530q34 0 48 -17.5t14 -62.5q0 -44 -14 -62t-48 -18z" />
<glyph unicode="&#xca;" horiz-adv-x="1097" d="M743 1559l-170 210l-170 -210q-12 -17 -26 -23t-45 -6q-56 0 -56 26q0 11 13 27l162 248q19 27 46 38t81 11q55 0 82 -11t45 -38l157 -248q12 -15 12 -27q0 -26 -55 -26q-33 0 -47.5 5.5t-28.5 23.5zM901 0h-647q-38 0 -54 16t-16 54v1273q0 38 16 54t54 16h641 q34 0 47.5 -18t13.5 -62t-13.5 -62t-47.5 -18h-524v-442h481q32 0 45.5 -17.5t13.5 -60.5t-13.5 -60.5t-45.5 -17.5h-481v-495h530q34 0 48 -17.5t14 -62.5q0 -44 -14 -62t-48 -18z" />
<glyph unicode="&#xcb;" horiz-adv-x="1097" d="M459 1655l-74 -74q-16 -16 -37 -16t-37 16l-73 74q-17 17 -17 37q0 17 17 34l73 74q17 17 37 17t37 -17l74 -74q16 -16 16 -34q0 -21 -16 -37zM909 1655l-73 -74q-16 -16 -37 -16t-37 16l-74 74q-16 16 -16 37q0 18 16 34l74 74q17 17 37 17t37 -17l73 -74q17 -17 17 -34 q0 -20 -17 -37zM901 0h-647q-38 0 -54 16t-16 54v1273q0 38 16 54t54 16h641q34 0 47.5 -18t13.5 -62t-13.5 -62t-47.5 -18h-524v-442h481q32 0 45.5 -17.5t13.5 -60.5t-13.5 -60.5t-45.5 -17.5h-481v-495h530q34 0 48 -17.5t14 -62.5q0 -44 -14 -62t-48 -18z" />
<glyph unicode="&#xcc;" horiz-adv-x="557" d="M199 1565l-176 243q-15 22 -15 35q0 37 88 37q50 0 73.5 -11.5t37.5 -39.5l119 -238q12 -21 12 -35q0 -28 -59 -28q-35 0 -49.5 7.5t-30.5 29.5zM184 74v1265q0 41 20.5 57.5t74.5 16.5q53 0 73.5 -17t20.5 -57v-1265q0 -40 -20.5 -57t-73.5 -17q-54 0 -74.5 16.5 t-20.5 57.5z" />
<glyph unicode="&#xcd;" horiz-adv-x="557" d="M535 1808l-177 -243q-16 -22 -31 -29.5t-48 -7.5q-60 0 -60 28q0 12 10 35l121 238q14 29 36.5 40t72.5 11q90 0 90 -37q0 -14 -14 -35zM184 74v1265q0 41 20.5 57.5t74.5 16.5q53 0 73.5 -17t20.5 -57v-1265q0 -40 -20.5 -57t-73.5 -17q-54 0 -74.5 16.5t-20.5 57.5z " />
<glyph unicode="&#xce;" horiz-adv-x="557" d="M449 1559l-170 210l-170 -210q-12 -17 -26.5 -23t-45.5 -6q-55 0 -55 26q0 12 12 27l162 248q19 27 46 38t81 11q55 0 82 -11t45 -38l157 -248q13 -16 13 -27q0 -26 -56 -26q-33 0 -47 5.5t-28 23.5zM184 74v1265q0 41 20.5 57.5t74.5 16.5q53 0 73.5 -17t20.5 -57v-1265 q0 -40 -20.5 -57t-73.5 -17q-54 0 -74.5 16.5t-20.5 57.5z" />
<glyph unicode="&#xcf;" horiz-adv-x="557" d="M164 1655l-74 -74q-16 -16 -37 -16t-37 16l-73 74q-17 17 -17 37q0 17 17 34l73 74q17 17 37 17t37 -17l74 -74q16 -16 16 -34q0 -21 -16 -37zM614 1655l-73 -74q-16 -16 -37 -16t-37 16l-74 74q-16 16 -16 37q0 18 16 34l74 74q17 17 37 17t37 -17l73 -74q17 -17 17 -34 q0 -20 -17 -37zM184 74v1265q0 41 20.5 57.5t74.5 16.5q53 0 73.5 -17t20.5 -57v-1265q0 -40 -20.5 -57t-73.5 -17q-54 0 -74.5 16.5t-20.5 57.5z" />
<glyph unicode="&#xd0;" horiz-adv-x="1462" d="M541 0h-258q-38 0 -54 16t-16 54v618h-90q-26 0 -35.5 12t-9.5 45t9.5 45.5t35.5 12.5h90v540q0 38 16 54t54 16h260q387 0 598 -179t211 -527q0 -349 -211 -528t-600 -179zM399 152h109q319 0 484 139.5t165 415.5t-163 413t-478 137h-117v-454h263q26 0 35.5 -12.5 t9.5 -45.5t-9.5 -45t-35.5 -12h-263v-536z" />
<glyph unicode="&#xd1;" horiz-adv-x="1472" d="M1118 229h4q-8 148 -8 344v768q0 40 18.5 56t67.5 16q50 0 69 -16t19 -56v-1247q0 -53 -24 -73.5t-88 -20.5q-67 0 -96.5 23t-82.5 108l-426 674q-111 176 -215 373h-4q6 -132 6 -318v-788q0 -40 -18.5 -56t-67.5 -16q-50 0 -69 16t-19 56v1253q0 49 25 68.5t92 19.5 q39 0 63.5 -5.5t46 -24.5t34.5 -37t40 -62l398 -641q118 -194 235 -414zM920 1577q-60 0 -172 44t-150 44q-31 0 -51.5 -12t-28.5 -26t-16 -30.5t-15 -21.5q-8 -6 -30 -6t-30.5 6.5t-8.5 23.5q0 74 55 134.5t141 60.5q60 0 173 -44t147 -44q47 0 68.5 22t31.5 56q6 18 41 18 q39 0 39 -30q0 -68 -51 -131.5t-143 -63.5z" />
<glyph unicode="&#xd2;" horiz-adv-x="1560" d="M700 1565l-176 243q-14 21 -14 35q0 37 88 37q50 0 73.5 -11.5t37.5 -39.5l118 -238q13 -23 13 -35q0 -28 -60 -28q-35 0 -49.5 7.5t-30.5 29.5zM780 -23q-311 0 -487 194t-176 536t175.5 535.5t487.5 193.5t488 -193.5t176 -535.5t-176 -536t-488 -194zM780 129 q218 0 341.5 150t123.5 428t-123.5 427.5t-341.5 149.5t-341.5 -149.5t-123.5 -427.5t123.5 -428t341.5 -150z" />
<glyph unicode="&#xd3;" horiz-adv-x="1560" d="M1036 1808l-176 -243q-16 -22 -31 -29.5t-49 -7.5q-59 0 -59 28q0 12 10 35l121 238q14 29 36.5 40t72.5 11q90 0 90 -37q0 -13 -15 -35zM780 -23q-311 0 -487 194t-176 536t175.5 535.5t487.5 193.5t488 -193.5t176 -535.5t-176 -536t-488 -194zM780 129 q218 0 341.5 150t123.5 428t-123.5 427.5t-341.5 149.5t-341.5 -149.5t-123.5 -427.5t123.5 -428t341.5 -150z" />
<glyph unicode="&#xd4;" horiz-adv-x="1560" d="M950 1559l-170 210l-170 -210q-12 -17 -26 -23t-45 -6q-56 0 -56 26q0 11 13 27l161 248q19 27 46 38t81 11q55 0 82 -11t45 -38l158 -248q12 -15 12 -27q0 -26 -55 -26q-33 0 -47.5 5.5t-28.5 23.5zM780 -23q-311 0 -487 194t-176 536t175.5 535.5t487.5 193.5 t488 -193.5t176 -535.5t-176 -536t-488 -194zM780 129q218 0 341.5 150t123.5 428t-123.5 427.5t-341.5 149.5t-341.5 -149.5t-123.5 -427.5t123.5 -428t341.5 -150z" />
<glyph unicode="&#xd5;" horiz-adv-x="1560" d="M780 -23q-311 0 -487 194t-176 536t175.5 535.5t487.5 193.5t488 -193.5t176 -535.5t-176 -536t-488 -194zM780 129q218 0 341.5 150t123.5 428t-123.5 427.5t-341.5 149.5t-341.5 -149.5t-123.5 -427.5t123.5 -428t341.5 -150zM934 1577q-60 0 -172 44t-150 44 q-40 0 -61 -18t-31.5 -42.5t-17.5 -29.5q-8 -6 -31 -6q-22 0 -30.5 6.5t-8.5 23.5q0 74 55.5 134.5t141.5 60.5q60 0 172.5 -44t146.5 -44q77 0 101 78q6 18 41 18q38 0 38 -30q0 -68 -51 -131.5t-143 -63.5z" />
<glyph unicode="&#xd6;" horiz-adv-x="1560" d="M666 1655l-74 -74q-16 -16 -37 -16t-37 16l-74 74q-16 16 -16 37q0 18 16 34l74 74q17 17 37 17t37 -17l74 -74q16 -16 16 -34q0 -21 -16 -37zM1116 1655l-74 -74q-16 -16 -36 -16q-21 0 -37 16l-74 74q-16 16 -16 37q0 18 16 34l74 74q17 17 37 17q19 0 36 -17l74 -74 q17 -17 17 -34q0 -20 -17 -37zM780 -23q-311 0 -487 194t-176 536t175.5 535.5t487.5 193.5t488 -193.5t176 -535.5t-176 -536t-488 -194zM780 129q218 0 341.5 150t123.5 428t-123.5 427.5t-341.5 149.5t-341.5 -149.5t-123.5 -427.5t123.5 -428t341.5 -150z" />
<glyph unicode="&#xd7;" horiz-adv-x="1204" d="M920 90l-322 320l-319 -320q-20 -20 -39 -20q-21 0 -52.5 31.5t-31.5 52.5q0 16 20 39l320 321l-322 320q-18 18 -18 34q0 26 32.5 60.5t59.5 34.5q18 0 37 -19l321 -321l320 319q21 21 37 21q23 0 54.5 -32t31.5 -54q0 -16 -21 -37l-319 -320l319 -321q21 -25 21 -37 q0 -23 -34 -57.5t-57 -34.5q-15 0 -38 20z" />
<glyph unicode="&#xd8;" horiz-adv-x="1560" d="M373 98l-97 -125q-13 -16 -24 -16q-14 0 -41 18q-33 26 -33 39q0 11 12 29l101 131q-174 192 -174 533q0 342 175.5 535.5t487.5 193.5q235 0 400 -115l94 121q12 18 26 18q15 0 46 -24q30 -21 30 -37q0 -9 -12 -29l-98 -127q178 -193 178 -536q0 -342 -176 -536 t-488 -194q-243 0 -407 121zM408 324l665 860q-115 100 -293 100q-218 0 -341.5 -149.5t-123.5 -427.5q0 -235 93 -383zM1149 1096l-668 -860q116 -107 299 -107q218 0 341.5 150t123.5 428q0 243 -96 389z" />
<glyph unicode="&#xd9;" horiz-adv-x="1433" d="M647 1565l-176 243q-14 21 -14 35q0 37 88 37q50 0 73 -11t37 -40l119 -238q12 -21 12 -35q0 -28 -59 -28q-35 0 -49.5 7.5t-30.5 29.5zM1071 500v839q0 40 20.5 57t73.5 17q54 0 74.5 -16.5t20.5 -57.5v-864q0 -227 -140 -362.5t-401 -135.5q-263 0 -404 135t-141 363 v864q0 41 20 57.5t74 16.5q53 0 73.5 -17t20.5 -57v-839q0 -367 353 -367q179 0 267.5 93.5t88.5 273.5z" />
<glyph unicode="&#xda;" horiz-adv-x="1433" d="M983 1808l-176 -243q-16 -22 -31 -29.5t-49 -7.5q-59 0 -59 28q0 12 10 35l121 238q14 29 36.5 40t71.5 11q90 0 90 -37q0 -14 -14 -35zM1071 500v839q0 40 20.5 57t73.5 17q54 0 74.5 -16.5t20.5 -57.5v-864q0 -227 -140 -362.5t-401 -135.5q-263 0 -404 135t-141 363 v864q0 41 20 57.5t74 16.5q53 0 73.5 -17t20.5 -57v-839q0 -367 353 -367q179 0 267.5 93.5t88.5 273.5z" />
<glyph unicode="&#xdb;" horiz-adv-x="1433" d="M897 1559l-170 210l-170 -210q-12 -17 -26.5 -23t-45.5 -6q-55 0 -55 26q0 12 12 27l162 248q19 27 46 38t81 11q55 0 82 -11t45 -38l158 -248q12 -15 12 -27q0 -26 -55 -26q-33 0 -47.5 5.5t-28.5 23.5zM1071 500v839q0 40 20.5 57t73.5 17q54 0 74.5 -16.5t20.5 -57.5 v-864q0 -227 -140 -362.5t-401 -135.5q-263 0 -404 135t-141 363v864q0 41 20 57.5t74 16.5q53 0 73.5 -17t20.5 -57v-839q0 -367 353 -367q179 0 267.5 93.5t88.5 273.5z" />
<glyph unicode="&#xdc;" horiz-adv-x="1433" d="M612 1655l-73 -74q-16 -16 -37 -16t-37 16l-74 74q-16 16 -16 37q0 18 16 34l74 74q17 17 37 17t37 -17l73 -74q17 -17 17 -34q0 -20 -17 -37zM1063 1655l-74 -74q-16 -16 -37 -16t-37 16l-73 74q-17 17 -17 37q0 17 17 34l73 74q17 17 37 17t37 -17l74 -74 q16 -16 16 -34q0 -21 -16 -37zM1071 500v839q0 40 20.5 57t73.5 17q54 0 74.5 -16.5t20.5 -57.5v-864q0 -227 -140 -362.5t-401 -135.5q-263 0 -404 135t-141 363v864q0 41 20 57.5t74 16.5q53 0 73.5 -17t20.5 -57v-839q0 -367 353 -367q179 0 267.5 93.5t88.5 273.5z" />
<glyph unicode="&#xdd;" horiz-adv-x="1153" d="M844 1808l-176 -243q-16 -22 -31 -29.5t-49 -7.5q-60 0 -60 28q0 9 11 35l120 238q14 29 36.5 40t72.5 11q90 0 90 -37q0 -14 -14 -35zM481 74v510l-440 723q-16 24 -16 45q0 33 20 47t72 14q50 0 75 -15.5t48 -56.5l118 -213q15 -27 66.5 -117.5t92.5 -164.5t58 -109h5 q72 140 211 391l118 218q22 38 45.5 52.5t75.5 14.5q98 0 98 -53q0 -23 -16 -45l-442 -733v-508q0 -40 -21 -57t-74 -17t-73.5 17t-20.5 57z" />
<glyph unicode="&#xde;" horiz-adv-x="1052" d="M453 317h-82v-243q0 -40 -21 -57t-74 -17t-72.5 16.5t-19.5 57.5v1265q0 41 19.5 57.5t72.5 16.5t74 -17t21 -57v-186h102q526 0 526 -418t-546 -418zM371 469h51q199 0 293 60t94 214q0 135 -93 196.5t-253 61.5h-92v-532z" />
<glyph unicode="&#xdf;" horiz-adv-x="1163" d="M598 135h12q138 0 211.5 69t73.5 193q0 127 -81 198t-226 71q-38 0 -51 15.5t-13 55.5t13 56t51 16q108 0 179 66.5t71 177.5q0 117 -67 180t-183 63q-112 0 -181 -72.5t-69 -213.5v-938q0 -40 -19.5 -56t-70.5 -16q-50 0 -69 16t-19 56v948q0 197 117 306.5t321 109.5 q192 0 306 -98t114 -267q0 -246 -242 -321v-2q143 -31 222 -125t79 -240q0 -189 -125.5 -292t-341.5 -103q-58 0 -78 13.5t-20 61.5q0 47 18 59.5t68 12.5z" />
<glyph unicode="&#xe0;" horiz-adv-x="999" d="M432 1106l-176 244q-14 21 -14 34q0 37 88 37q50 0 73 -11t37 -40l119 -237q12 -21 12 -35q0 -29 -59 -29q-35 0 -49.5 7.5t-30.5 29.5zM715 59v19q0 33 4 69h-4q-43 -75 -121 -119t-184 -44q-147 0 -237.5 75t-90.5 211q0 151 119.5 234.5t337.5 83.5q92 0 172 -13v27 q0 114 -55.5 177t-172.5 63q-96 0 -217 -41q-53 -17 -71 -17q-19 0 -28 13.5t-9 46.5q0 34 8 50t31 26q138 57 305 57q185 0 278.5 -101t93.5 -270v-547q0 -32 -17.5 -45.5t-61.5 -13.5t-62 13.5t-18 45.5zM713 463q-62 10 -146 10q-305 0 -305 -188q0 -79 47.5 -123.5 t130.5 -44.5q81 0 143.5 39.5t94.5 103.5q35 66 35 203z" />
<glyph unicode="&#xe1;" horiz-adv-x="999" d="M768 1350l-176 -244q-16 -22 -31 -29.5t-49 -7.5q-59 0 -59 29q0 12 10 35l121 237q14 29 36 40t72 11q90 0 90 -37q0 -13 -14 -34zM715 59v19q0 33 4 69h-4q-43 -75 -121 -119t-184 -44q-147 0 -237.5 75t-90.5 211q0 151 119.5 234.5t337.5 83.5q92 0 172 -13v27 q0 114 -55.5 177t-172.5 63q-96 0 -217 -41q-53 -17 -71 -17q-19 0 -28 13.5t-9 46.5q0 34 8 50t31 26q138 57 305 57q185 0 278.5 -101t93.5 -270v-547q0 -32 -17.5 -45.5t-61.5 -13.5t-62 13.5t-18 45.5zM713 463q-62 10 -146 10q-305 0 -305 -188q0 -79 47.5 -123.5 t130.5 -44.5q81 0 143.5 39.5t94.5 103.5q35 66 35 203z" />
<glyph unicode="&#xe2;" horiz-adv-x="999" d="M682 1100l-170 211l-170 -211q-12 -17 -26.5 -23t-45.5 -6q-55 0 -55 27q0 11 12 26l162 248q19 27 46 38t81 11q55 0 82 -11t45 -38l158 -248q12 -15 12 -26q0 -27 -55 -27q-33 0 -47.5 5.5t-28.5 23.5zM715 59v19q0 33 4 69h-4q-43 -75 -121 -119t-184 -44 q-147 0 -237.5 75t-90.5 211q0 151 119.5 234.5t337.5 83.5q92 0 172 -13v27q0 114 -55.5 177t-172.5 63q-96 0 -217 -41q-53 -17 -71 -17q-19 0 -28 13.5t-9 46.5q0 34 8 50t31 26q138 57 305 57q185 0 278.5 -101t93.5 -270v-547q0 -32 -17.5 -45.5t-61.5 -13.5t-62 13.5 t-18 45.5zM713 463q-62 10 -146 10q-305 0 -305 -188q0 -79 47.5 -123.5t130.5 -44.5q81 0 143.5 39.5t94.5 103.5q35 66 35 203z" />
<glyph unicode="&#xe3;" horiz-adv-x="999" d="M715 59v19q0 33 4 69h-4q-43 -75 -121 -119t-184 -44q-147 0 -237.5 75t-90.5 211q0 151 119.5 234.5t337.5 83.5q92 0 172 -13v27q0 114 -55.5 177t-172.5 63q-96 0 -217 -41q-53 -17 -71 -17q-19 0 -28 13.5t-9 46.5q0 34 8 50t31 26q138 57 305 57q185 0 278.5 -101 t93.5 -270v-547q0 -32 -17.5 -45.5t-61.5 -13.5t-62 13.5t-18 45.5zM713 463q-62 10 -146 10q-305 0 -305 -188q0 -79 47.5 -123.5t130.5 -44.5q81 0 143.5 39.5t94.5 103.5q35 66 35 203zM666 1118q-60 0 -172 44t-150 44q-31 0 -51.5 -12t-28.5 -26t-16 -30.5t-15 -21.5 q-8 -6 -30 -6t-30.5 7t-8.5 24q0 74 55 134t141 60q60 0 173 -44t147 -44q47 0 68.5 22t31.5 56q6 18 41 18q39 0 39 -30q0 -68 -51 -131.5t-143 -63.5z" />
<glyph unicode="&#xe4;" horiz-adv-x="999" d="M397 1196l-73 -74q-16 -16 -37 -16t-37 16l-74 74q-16 16 -16 37q0 19 16 35l74 73q17 17 37 17t37 -17l73 -73q17 -17 17 -35q0 -20 -17 -37zM848 1196l-74 -74q-16 -16 -37 -16t-37 16l-73 74q-17 17 -17 37q0 18 17 35l73 73q17 17 37 17t37 -17l74 -73q16 -16 16 -35 q0 -21 -16 -37zM715 59v19q0 33 4 69h-4q-43 -75 -121 -119t-184 -44q-147 0 -237.5 75t-90.5 211q0 151 119.5 234.5t337.5 83.5q92 0 172 -13v27q0 114 -55.5 177t-172.5 63q-96 0 -217 -41q-53 -17 -71 -17q-19 0 -28 13.5t-9 46.5q0 34 8 50t31 26q138 57 305 57 q185 0 278.5 -101t93.5 -270v-547q0 -32 -17.5 -45.5t-61.5 -13.5t-62 13.5t-18 45.5zM713 463q-62 10 -146 10q-305 0 -305 -188q0 -79 47.5 -123.5t130.5 -44.5q81 0 143.5 39.5t94.5 103.5q35 66 35 203z" />
<glyph unicode="&#xe5;" horiz-adv-x="999" d="M707 1225q0 -84 -54 -135.5t-141 -51.5q-88 0 -141.5 52.5t-53.5 138.5q0 85 53.5 135.5t141.5 50.5q87 0 141 -52t54 -138zM512 1116q48 0 78.5 30t30.5 79q0 50 -30.5 81t-78.5 31q-50 0 -79.5 -29.5t-29.5 -78.5q0 -51 30 -82t79 -31zM715 59v19q0 33 4 69h-4 q-43 -75 -121 -119t-184 -44q-147 0 -237.5 75t-90.5 211q0 151 119.5 234.5t337.5 83.5q92 0 172 -13v27q0 114 -55.5 177t-172.5 63q-96 0 -217 -41q-53 -17 -71 -17q-19 0 -28 13.5t-9 46.5q0 34 8 50t31 26q138 57 305 57q185 0 278.5 -101t93.5 -270v-547 q0 -32 -17.5 -45.5t-61.5 -13.5t-62 13.5t-18 45.5zM713 463q-62 10 -146 10q-305 0 -305 -188q0 -79 47.5 -123.5t130.5 -44.5q81 0 143.5 39.5t94.5 103.5q35 66 35 203z" />
<glyph unicode="&#xe6;" horiz-adv-x="1622" d="M1526 438h-647q6 -157 87 -239t228 -82q77 0 156 22q12 4 30.5 10.5t30.5 10.5t19 4q34 0 34 -64q0 -32 -12 -49.5t-43 -32.5q-84 -41 -225 -41q-137 0 -236.5 52.5t-148.5 142.5h-4q-109 -190 -373 -190q-155 0 -247.5 76t-92.5 212q0 151 119.5 234.5t337.5 83.5 q92 0 172 -13v27q0 114 -55.5 177t-172.5 63q-96 0 -217 -41q-53 -17 -71 -17q-19 0 -28 13.5t-9 46.5q0 34 8 50t31 26q129 57 305 57q225 0 311 -174q50 85 135.5 129.5t188.5 44.5q191 0 292 -120t101 -347q0 -36 -4 -72zM881 569h483q0 128 -61.5 201.5t-174.5 73.5 q-109 0 -174 -75t-73 -200zM713 463q-62 10 -146 10q-305 0 -305 -190q0 -77 47.5 -121.5t130.5 -44.5q81 0 143.5 40t94.5 105q35 66 35 201z" />
<glyph unicode="&#xe7;" horiz-adv-x="954" d="M588 -23h-29l-20 -122q30 10 67 10q57 0 102.5 -42t45.5 -116q0 -95 -59.5 -139.5t-155.5 -44.5q-45 0 -95 8q-20 3 -28 12t-8 33t7.5 32.5t26.5 8.5q13 0 40 -3t44 -3q42 0 69.5 20.5t27.5 67.5q0 41 -24 63.5t-62 22.5q-24 0 -50.5 -5t-31.5 -5q-20 0 -23 20 q0 9 23 197q-168 36 -270.5 160.5t-102.5 326.5q0 122 42.5 219t114 156.5t160.5 91t187 31.5q141 0 233 -41q45 -19 45 -82q0 -61 -30 -61q-3 0 -64 16q-90 25 -166 25q-153 0 -245.5 -90t-92.5 -265q0 -174 93 -265t245 -91q93 0 172 27q46 16 64 16q30 0 30 -64 q0 -34 -9.5 -52t-33.5 -32q-34 -17 -99.5 -29t-139.5 -12z" />
<glyph unicode="&#xe8;" horiz-adv-x="1028" d="M453 1106l-177 244q-14 21 -14 34q0 37 88 37q50 0 73.5 -11.5t37.5 -39.5l119 -237q12 -21 12 -35q0 -29 -60 -29q-35 0 -49 7.5t-30 29.5zM934 438h-660q5 -150 87.5 -233.5t232.5 -83.5q85 0 164 22q12 4 30.5 10.5t30.5 10.5t19 4q34 0 34 -66q0 -32 -12 -50.5 t-43 -31.5q-88 -43 -235 -43q-81 0 -153 18t-134.5 57.5t-107 97.5t-70 142t-25.5 187q0 238 122.5 368t317.5 130q196 0 301 -120t105 -347q0 -36 -4 -72zM274 569h496q0 127 -64.5 201t-177.5 74q-112 0 -179 -75t-75 -200z" />
<glyph unicode="&#xe9;" horiz-adv-x="1028" d="M788 1350l-176 -244q-16 -22 -31 -29.5t-49 -7.5q-59 0 -59 29q0 12 10 35l121 237q14 29 36.5 40t72.5 11q90 0 90 -37q0 -12 -15 -34zM934 438h-660q5 -150 87.5 -233.5t232.5 -83.5q85 0 164 22q12 4 30.5 10.5t30.5 10.5t19 4q34 0 34 -66q0 -32 -12 -50.5t-43 -31.5 q-88 -43 -235 -43q-81 0 -153 18t-134.5 57.5t-107 97.5t-70 142t-25.5 187q0 238 122.5 368t317.5 130q196 0 301 -120t105 -347q0 -36 -4 -72zM274 569h496q0 127 -64.5 201t-177.5 74q-112 0 -179 -75t-75 -200z" />
<glyph unicode="&#xea;" horiz-adv-x="1028" d="M702 1100l-170 211l-170 -211q-12 -17 -26 -23t-45 -6q-55 0 -55 27q0 11 12 26l162 248q19 27 46 38t81 11q55 0 82 -11t45 -38l157 -248q13 -16 13 -26q0 -27 -56 -27q-33 0 -47.5 5.5t-28.5 23.5zM934 438h-660q5 -150 87.5 -233.5t232.5 -83.5q85 0 164 22 q12 4 30.5 10.5t30.5 10.5t19 4q34 0 34 -66q0 -32 -12 -50.5t-43 -31.5q-88 -43 -235 -43q-81 0 -153 18t-134.5 57.5t-107 97.5t-70 142t-25.5 187q0 238 122.5 368t317.5 130q196 0 301 -120t105 -347q0 -36 -4 -72zM274 569h496q0 127 -64.5 201t-177.5 74 q-112 0 -179 -75t-75 -200z" />
<glyph unicode="&#xeb;" horiz-adv-x="1028" d="M418 1196l-74 -74q-16 -16 -37 -16t-37 16l-73 74q-17 17 -17 37q0 18 17 35l73 73q17 17 37 17t37 -17l74 -73q16 -16 16 -35q0 -21 -16 -37zM868 1196l-73 -74q-16 -16 -37 -16t-37 16l-74 74q-16 16 -16 37q0 19 16 35l74 73q17 17 37 17t37 -17l73 -73q17 -17 17 -35 q0 -20 -17 -37zM934 438h-660q5 -150 87.5 -233.5t232.5 -83.5q85 0 164 22q12 4 30.5 10.5t30.5 10.5t19 4q34 0 34 -66q0 -32 -12 -50.5t-43 -31.5q-88 -43 -235 -43q-81 0 -153 18t-134.5 57.5t-107 97.5t-70 142t-25.5 187q0 238 122.5 368t317.5 130q196 0 301 -120 t105 -347q0 -36 -4 -72zM274 569h496q0 127 -64.5 201t-177.5 74q-112 0 -179 -75t-75 -200z" />
<glyph unicode="&#xec;" horiz-adv-x="565" d="M199 1106l-176 244q-15 22 -15 34q0 37 88 37q50 0 73.5 -11.5t37.5 -39.5l119 -237q12 -21 12 -35q0 -29 -59 -29q-35 0 -49.5 7.5t-30.5 29.5zM195 72v811q0 40 18.5 55.5t69.5 15.5t69.5 -15.5t18.5 -55.5v-811q0 -40 -19 -56t-69 -16t-69 16t-19 56z" />
<glyph unicode="&#xed;" horiz-adv-x="565" d="M535 1350l-177 -244q-16 -22 -31 -29.5t-48 -7.5q-60 0 -60 29q0 12 10 35l121 237q14 29 36.5 40t72.5 11q90 0 90 -37q0 -13 -14 -34zM195 72v811q0 40 18.5 55.5t69.5 15.5t69.5 -15.5t18.5 -55.5v-811q0 -40 -19 -56t-69 -16t-69 16t-19 56z" />
<glyph unicode="&#xee;" horiz-adv-x="565" d="M449 1100l-170 211l-170 -211q-12 -17 -26.5 -23t-45.5 -6q-55 0 -55 27q0 11 12 26l162 248q19 27 46 38t81 11q55 0 82 -11t45 -38l157 -248q13 -16 13 -26q0 -27 -56 -27q-33 0 -47 5.5t-28 23.5zM195 72v811q0 40 18.5 55.5t69.5 15.5t69.5 -15.5t18.5 -55.5v-811 q0 -40 -19 -56t-69 -16t-69 16t-19 56z" />
<glyph unicode="&#xef;" horiz-adv-x="565" d="M164 1196l-74 -74q-16 -16 -37 -16t-37 16l-73 74q-17 17 -17 37q0 18 17 35l73 73q17 17 37 17t37 -17l74 -73q16 -16 16 -35q0 -21 -16 -37zM614 1196l-73 -74q-16 -16 -37 -16t-37 16l-74 74q-16 16 -16 37q0 19 16 35l74 73q17 17 37 17t37 -17l73 -73q17 -17 17 -35 q0 -20 -17 -37zM195 72v811q0 40 18.5 55.5t69.5 15.5t69.5 -15.5t18.5 -55.5v-811q0 -40 -19 -56t-69 -16t-69 16t-19 56z" />
<glyph unicode="&#xf0;" horiz-adv-x="1230" d="M918 866h4q-77 254 -326 416l-227 -139q-17 -10 -27 -10q-11 0 -23 12l-20 26q-14 18 -14 29q0 15 26 31l191 110q-85 50 -203 84q-23 6 -33 19.5t-10 42.5q0 38 15 55t48 17q57 0 154.5 -38.5t173.5 -86.5l152 90q36 20 43 20q12 0 26 -18l17 -23q10 -13 10 -22 q0 -15 -18 -27l-136 -80q398 -296 398 -799q0 -274 -140.5 -436t-388.5 -162q-230 0 -374 140t-144 370q0 228 139.5 366t354.5 138q100 0 188 -34.5t144 -90.5zM614 121q151 0 240.5 102.5t89.5 274.5q0 160 -88.5 255t-239.5 95q-152 0 -242.5 -95.5t-90.5 -258.5 q0 -171 89.5 -272t241.5 -101z" />
<glyph unicode="&#xf1;" horiz-adv-x="1165" d="M836 70v467q0 294 -232 294q-132 0 -205 -99.5t-73 -256.5v-405q0 -39 -18.5 -54.5t-67.5 -15.5q-50 0 -69 15.5t-19 54.5v815q0 38 19.5 53.5t68.5 15.5t66.5 -15t17.5 -54v-19q0 -23 -5 -73h5q103 184 329 184q167 0 262 -104t95 -289v-514q0 -39 -18.5 -54.5 t-67.5 -15.5q-50 0 -69 15.5t-19 54.5zM770 1118q-60 0 -171.5 44t-149.5 44q-31 0 -51.5 -12t-28.5 -26t-16 -30.5t-15 -21.5q-8 -6 -31 -6q-22 0 -30.5 7t-8.5 24q0 74 55.5 134t141.5 60q60 0 172.5 -44t146.5 -44q77 0 101 78q6 18 41 18q39 0 39 -30 q0 -68 -51.5 -131.5t-143.5 -63.5z" />
<glyph unicode="&#xf2;" horiz-adv-x="1155" d="M498 1106l-176 244q-15 22 -15 34q0 37 88 37q50 0 73.5 -11.5t37.5 -39.5l119 -237q12 -21 12 -35q0 -29 -59 -29q-35 0 -49.5 7.5t-30.5 29.5zM578 -23q-226 0 -356 134t-130 368q0 232 130 365t356 133t355.5 -133t129.5 -365q0 -234 -129.5 -368t-355.5 -134z M578 119q139 0 220 93t81 267q0 173 -81.5 266t-219.5 93t-220 -93t-82 -266q0 -174 81.5 -267t220.5 -93z" />
<glyph unicode="&#xf3;" horiz-adv-x="1155" d="M834 1350l-177 -244q-16 -22 -31 -29.5t-48 -7.5q-60 0 -60 29q0 12 10 35l121 237q14 29 36.5 40t72.5 11q90 0 90 -37q0 -13 -14 -34zM578 -23q-226 0 -356 134t-130 368q0 232 130 365t356 133t355.5 -133t129.5 -365q0 -234 -129.5 -368t-355.5 -134zM578 119 q139 0 220 93t81 267q0 173 -81.5 266t-219.5 93t-220 -93t-82 -266q0 -174 81.5 -267t220.5 -93z" />
<glyph unicode="&#xf4;" horiz-adv-x="1155" d="M748 1100l-170 211l-170 -211q-12 -17 -26.5 -23t-45.5 -6q-55 0 -55 27q0 11 12 26l162 248q19 27 46 38t81 11q55 0 82 -11t45 -38l157 -248q13 -16 13 -26q0 -27 -56 -27q-33 0 -47 5.5t-28 23.5zM578 -23q-226 0 -356 134t-130 368q0 232 130 365t356 133t355.5 -133 t129.5 -365q0 -234 -129.5 -368t-355.5 -134zM578 119q139 0 220 93t81 267q0 173 -81.5 266t-219.5 93t-220 -93t-82 -266q0 -174 81.5 -267t220.5 -93z" />
<glyph unicode="&#xf5;" horiz-adv-x="1155" d="M578 -23q-226 0 -356 134t-130 368q0 232 130 365t356 133t355.5 -133t129.5 -365q0 -234 -129.5 -368t-355.5 -134zM578 119q139 0 220 93t81 267q0 173 -81.5 266t-219.5 93t-220 -93t-82 -266q0 -174 81.5 -267t220.5 -93zM731 1118q-60 0 -171.5 44t-149.5 44 q-31 0 -51.5 -12t-28.5 -26t-16 -30.5t-15 -21.5q-8 -6 -31 -6q-22 0 -30.5 7t-8.5 24q0 74 55.5 134t141.5 60q60 0 172.5 -44t146.5 -44q77 0 101 78q6 18 41 18q39 0 39 -30q0 -68 -51.5 -131.5t-143.5 -63.5z" />
<glyph unicode="&#xf6;" horiz-adv-x="1155" d="M463 1196l-74 -74q-16 -16 -37 -16t-37 16l-73 74q-17 17 -17 37q0 18 17 35l73 73q17 17 37 17t37 -17l74 -73q16 -16 16 -35q0 -21 -16 -37zM913 1196l-73 -74q-16 -16 -37 -16t-37 16l-74 74q-16 16 -16 37q0 19 16 35l74 73q17 17 37 17t37 -17l73 -73q17 -17 17 -35 q0 -20 -17 -37zM578 -23q-226 0 -356 134t-130 368q0 232 130 365t356 133t355.5 -133t129.5 -365q0 -234 -129.5 -368t-355.5 -134zM578 119q139 0 220 93t81 267q0 173 -81.5 266t-219.5 93t-220 -93t-82 -266q0 -174 81.5 -267t220.5 -93z" />
<glyph unicode="&#xf7;" horiz-adv-x="1204" d="M707 850l-68 -66q-16 -16 -37 -16q-18 0 -37 16l-67 66q-17 17 -17 37q0 18 17 35l67 65q17 17 37 17t37 -17l68 -65q16 -13 16 -35q0 -21 -16 -37zM1061 446h-918q-33 0 -44 15.5t-11 56.5t11 56.5t44 15.5h918q33 0 44 -15.5t11 -56.5t-11 -56.5t-44 -15.5zM707 115 l-68 -66q-16 -16 -37 -16q-18 0 -37 16l-67 66q-17 17 -17 37t17 34l67 66q16 16 37 16t37 -16l68 -66q16 -13 16 -34t-16 -37z" />
<glyph unicode="&#xf8;" horiz-adv-x="1153" d="M315 39l-69 -90q-12 -15 -23 -15q-12 0 -39 17q-28 20 -28 35q0 10 12 26l68 86q-144 135 -144 381q0 232 130 365t356 133q164 0 280 -72l84 109q11 14 25 14q19 0 41 -18q28 -22 28 -35q0 -11 -12 -27l-86 -110q123 -132 123 -359q0 -235 -128.5 -368.5t-354.5 -133.5 q-151 0 -263 62zM338 231l426 551q-75 60 -186 60q-141 0 -223.5 -94t-82.5 -269q0 -154 66 -248zM834 702l-422 -540q65 -45 166 -45q141 0 223 93.5t82 268.5q0 133 -49 223z" />
<glyph unicode="&#xf9;" horiz-adv-x="1165" d="M508 1106l-176 244q-15 22 -15 34q0 37 89 37q50 0 73 -11t37 -40l119 -237q12 -21 12 -35q0 -29 -59 -29q-35 0 -49.5 7.5t-30.5 29.5zM840 70v18q0 34 4 74h-4q-102 -185 -326 -185q-163 0 -260.5 95.5t-97.5 289.5v523q0 39 18.5 54t67.5 15q50 0 69 -15t19 -54v-473 q0 -138 54 -213.5t179 -75.5q131 0 204 99.5t73 256.5v406q0 39 18.5 54t67.5 15q50 0 69 -15t19 -54v-815q0 -39 -19 -54.5t-69 -15.5t-68 15.5t-18 54.5z" />
<glyph unicode="&#xfa;" horiz-adv-x="1165" d="M844 1350l-176 -244q-16 -22 -31 -29.5t-49 -7.5q-60 0 -60 29q0 9 11 35l120 237q14 29 36.5 40t72.5 11q90 0 90 -37q0 -13 -14 -34zM840 70v18q0 34 4 74h-4q-102 -185 -326 -185q-163 0 -260.5 95.5t-97.5 289.5v523q0 39 18.5 54t67.5 15q50 0 69 -15t19 -54v-473 q0 -138 54 -213.5t179 -75.5q131 0 204 99.5t73 256.5v406q0 39 18.5 54t67.5 15q50 0 69 -15t19 -54v-815q0 -39 -19 -54.5t-69 -15.5t-68 15.5t-18 54.5z" />
<glyph unicode="&#xfb;" horiz-adv-x="1165" d="M758 1100l-170 211l-170 -211q-12 -17 -26.5 -23t-45.5 -6q-55 0 -55 27q0 11 12 26l162 248q19 27 46 38t81 11q55 0 82 -11t45 -38l158 -248q12 -15 12 -26q0 -27 -55 -27q-33 0 -47.5 5.5t-28.5 23.5zM840 70v18q0 34 4 74h-4q-102 -185 -326 -185q-163 0 -260.5 95.5 t-97.5 289.5v523q0 39 18.5 54t67.5 15q50 0 69 -15t19 -54v-473q0 -138 54 -213.5t179 -75.5q131 0 204 99.5t73 256.5v406q0 39 18.5 54t67.5 15q50 0 69 -15t19 -54v-815q0 -39 -19 -54.5t-69 -15.5t-68 15.5t-18 54.5z" />
<glyph unicode="&#xfc;" horiz-adv-x="1165" d="M473 1196l-74 -74q-16 -16 -37 -16q-20 0 -36 16l-74 74q-16 16 -16 37q0 19 16 35l74 73q17 17 36 17q20 0 37 -17l74 -73q16 -16 16 -35q0 -21 -16 -37zM924 1196l-74 -74q-16 -16 -37 -16t-37 16l-74 74q-16 16 -16 37q0 19 16 35l74 73q17 17 37 17t37 -17l74 -73 q16 -16 16 -35q0 -21 -16 -37zM840 70v18q0 34 4 74h-4q-102 -185 -326 -185q-163 0 -260.5 95.5t-97.5 289.5v523q0 39 18.5 54t67.5 15q50 0 69 -15t19 -54v-473q0 -138 54 -213.5t179 -75.5q131 0 204 99.5t73 256.5v406q0 39 18.5 54t67.5 15q50 0 69 -15t19 -54v-815 q0 -39 -19 -54.5t-69 -15.5t-68 15.5t-18 54.5z" />
<glyph unicode="&#xfd;" horiz-adv-x="948" d="M739 1350l-176 -244q-16 -22 -31 -29.5t-49 -7.5q-59 0 -59 29q0 12 10 35l121 237q14 29 36.5 40t72.5 11q90 0 90 -37q0 -12 -15 -34zM399 -49l-348 891q-14 42 -14 59q0 28 20 40.5t64 12.5q47 0 67.5 -13.5t34.5 -53.5l135 -404q33 -97 113 -346h4q19 58 69 201.5 t60 173.5l125 365q15 44 38 60.5t69 16.5q77 0 77 -55q0 -24 -14 -59l-352 -918q-74 -193 -142 -263.5t-182 -70.5q-79 0 -119 21q-34 14 -34 65q0 68 39 68q12 0 43 -6t53 -6q62 0 103.5 47t90.5 174z" />
<glyph unicode="&#xfe;" horiz-adv-x="1179" d="M170 -319v1662q0 39 18.5 54.5t67.5 15.5q50 0 69 -15.5t19 -54.5v-249q0 -174 -6 -291h4q47 83 132.5 128.5t195.5 45.5q190 0 302.5 -135.5t112.5 -364.5t-112 -364.5t-303 -135.5q-110 0 -194.5 43.5t-133.5 129.5h-4q6 -117 6 -291v-178q0 -39 -19 -54.5t-69 -15.5 q-49 0 -67.5 15.5t-18.5 54.5zM629 123q124 0 198 92t74 264q0 170 -74 260t-198 90q-133 0 -212 -90t-79 -262t79 -263t212 -91z" />
<glyph unicode="&#xff;" horiz-adv-x="948" d="M369 1196l-74 -74q-16 -16 -37 -16t-37 16l-74 74q-16 16 -16 37q0 19 16 35l74 73q17 17 37 17t37 -17l74 -73q16 -16 16 -35q0 -21 -16 -37zM819 1196l-74 -74q-16 -16 -36 -16q-21 0 -37 16l-74 74q-16 16 -16 37q0 19 16 35l74 73q17 17 37 17q19 0 36 -17l74 -73 q17 -17 17 -35q0 -20 -17 -37zM399 -49l-348 891q-14 42 -14 59q0 28 20 40.5t64 12.5q47 0 67.5 -13.5t34.5 -53.5l135 -404q33 -97 113 -346h4q19 58 69 201.5t60 173.5l125 365q15 44 38 60.5t69 16.5q77 0 77 -55q0 -24 -14 -59l-352 -918q-74 -193 -142 -263.5 t-182 -70.5q-79 0 -119 21q-34 14 -34 65q0 68 39 68q12 0 43 -6t53 -6q62 0 103.5 47t90.5 174z" />
<glyph unicode="&#x131;" horiz-adv-x="565" d="M195 72v811q0 40 18.5 55.5t69.5 15.5t69.5 -15.5t18.5 -55.5v-811q0 -40 -19 -56t-69 -16t-69 16t-19 56z" />
<glyph unicode="&#x141;" horiz-adv-x="1077" d="M969 0h-650q-38 0 -53.5 16t-15.5 54v598l-113 -66q-17 -10 -33 -10q-34 0 -34 59q0 33 10.5 49t42.5 35l127 74v530q0 41 20 57.5t74 16.5q53 0 72.5 -16.5t19.5 -57.5v-421l182 106q20 12 33 12q37 0 37 -59q0 -34 -11 -50t-44 -36l-197 -115v-612h533q34 0 46.5 -18 t12.5 -64t-12.5 -64t-46.5 -18z" />
<glyph unicode="&#x142;" horiz-adv-x="610" d="M215 70v626l-115 -92q-18 -14 -32 -14t-24.5 14.5t-10.5 42.5q0 30 10.5 46t42.5 42l129 105v503q0 39 19 54.5t69 15.5t69 -15.5t19 -54.5v-360l105 84q17 14 32 14q37 0 37 -55q0 -31 -10.5 -47.5t-42.5 -42.5l-121 -98v-768q0 -39 -19 -54.5t-69 -15.5t-69 15.5 t-19 54.5z" />
<glyph unicode="&#x152;" horiz-adv-x="1927" d="M1729 0h-613q-50 0 -157 -8t-162 -8q-317 0 -504 188.5t-187 534.5q0 175 51 313.5t143 228t218 136.5t277 47q68 0 186 -9.5t172 -9.5h569q34 0 47 -18t13 -62t-13 -62t-47 -18h-510v-442h465q32 0 46 -17.5t14 -60.5t-14 -60.5t-46 -17.5h-465v-495h517 q34 0 47.5 -17.5t13.5 -62.5q0 -44 -13.5 -62t-47.5 -18zM1028 164v1081q-98 29 -227 29q-229 0 -362.5 -147t-133.5 -420q0 -271 133.5 -419.5t364.5 -148.5q119 0 225 25z" />
<glyph unicode="&#x153;" horiz-adv-x="1777" d="M1683 438h-653q6 -150 87.5 -234.5t223.5 -84.5q78 0 164 24q14 3 42.5 13t37.5 10q35 0 35 -64q0 -32 -12 -49.5t-43 -32.5q-84 -43 -236 -43q-120 0 -222.5 48t-156.5 143q-122 -191 -381 -191q-223 0 -350 133.5t-127 368.5q0 232 127 365t350 133q259 0 377 -186 q55 91 144.5 138.5t197.5 47.5q192 0 296 -120.5t104 -346.5q0 -27 -5 -72zM1030 569h490q0 126 -64 200.5t-174 74.5q-111 0 -177.5 -75t-74.5 -200zM569 119q135 0 213 92.5t78 267.5q0 174 -78 266.5t-213 92.5q-134 0 -213.5 -93t-79.5 -266q0 -174 79.5 -267t213.5 -93 z" />
<glyph unicode="&#x160;" horiz-adv-x="1058" d="M844 1825l-162 -246q-20 -27 -46 -38t-81 -11q-54 0 -81.5 11t-45.5 38l-158 246q-12 15 -12 28q0 27 55 27q33 0 47.5 -5.5t28.5 -23.5l170 -213l170 213q12 17 26.5 23t45.5 6q55 0 55 -27q0 -13 -12 -28zM956 338q0 -171 -108.5 -266t-319.5 -95q-100 0 -193 19 t-153 51q-38 20 -50.5 37.5t-12.5 56.5q0 42 11 59t34 17q26 0 104 -31q137 -53 254 -53q114 0 178 51t64 140q0 56 -14.5 98t-53.5 82t-89.5 74t-139.5 84q-190 109 -264 201t-74 222q0 158 115 254.5t321 96.5q152 0 262 -43q31 -11 44.5 -29t13.5 -57q0 -68 -37 -68 q-11 0 -98 21q-95 22 -170 22q-127 0 -192.5 -52.5t-65.5 -135.5q0 -45 12.5 -78t49.5 -68.5t84.5 -67t137.5 -85.5q194 -112 272 -210.5t78 -246.5z" />
<glyph unicode="&#x161;" horiz-adv-x="804" d="M705 1366l-162 -246q-20 -27 -46 -38t-81 -11q-54 0 -81.5 11t-45.5 38l-158 246q-12 15 -12 29q0 26 55 26q34 0 48 -5.5t28 -22.5l170 -213l170 213q12 17 26.5 22.5t45.5 5.5q55 0 55 -26q0 -14 -12 -29zM717 236q0 -122 -87.5 -190.5t-232.5 -68.5q-74 0 -146 14 t-114 36q-23 11 -33 27t-10 50q0 66 43 66q20 0 60 -16q111 -39 190 -39q66 0 109 30t43 86q0 61 -38 101.5t-153 105.5q-140 80 -196 140t-56 153q0 115 85.5 180.5t246.5 65.5q107 0 197 -35q27 -11 37 -25t10 -47q0 -35 -9 -47t-28 -12q-12 0 -62 10q-92 21 -145 21 q-73 0 -115.5 -27.5t-42.5 -77.5t41 -85.5t174 -110.5q66 -37 103.5 -63.5t70 -62t45.5 -78.5t13 -101z" />
<glyph unicode="&#x178;" horiz-adv-x="1153" d="M473 1655l-74 -74q-16 -16 -37 -16q-20 0 -36 16l-74 74q-16 16 -16 37q0 18 16 34l74 74q17 17 36 17q20 0 37 -17l74 -74q16 -16 16 -34q0 -21 -16 -37zM924 1655l-74 -74q-16 -16 -37 -16t-37 16l-74 74q-16 16 -16 37q0 18 16 34l74 74q17 17 37 17t37 -17l74 -74 q16 -16 16 -34q0 -21 -16 -37zM481 74v510l-440 723q-16 24 -16 45q0 33 20 47t72 14q50 0 75 -15.5t48 -56.5l118 -213q15 -27 66.5 -117.5t92.5 -164.5t58 -109h5q72 140 211 391l118 218q22 38 45.5 52.5t75.5 14.5q98 0 98 -53q0 -23 -16 -45l-442 -733v-508 q0 -40 -21 -57t-74 -17t-73.5 17t-20.5 57z" />
<glyph unicode="&#x17d;" horiz-adv-x="1134" d="M883 1825l-162 -246q-19 -27 -46 -38t-81 -11t-81.5 11t-45.5 38l-158 246q-12 15 -12 28q0 27 55 27q33 0 47.5 -5.5t28.5 -23.5l170 -213l170 213q13 16 27.5 22.5t44.5 6.5q55 0 55 -27q0 -13 -12 -28zM993 0h-839q-38 0 -54 16t-16 54v53q0 26 7.5 44.5t29.5 49.5 l694 1034h-645q-34 0 -46.5 18t-12.5 64q0 45 13 62.5t46 17.5h797q38 0 53.5 -16t15.5 -54v-51q0 -39 -37 -94l-696 -1038h690q34 0 47 -17t13 -63q0 -44 -13 -62t-47 -18z" />
<glyph unicode="&#x17e;" horiz-adv-x="937" d="M784 1366l-161 -246q-19 -27 -46 -38t-81 -11t-81.5 11t-45.5 38l-158 246q-12 15 -12 29q0 26 55 26q34 0 48 -5.5t28 -22.5l170 -213l170 213q13 16 26.5 22t44.5 6q56 0 56 -26q0 -13 -13 -29zM805 0h-664q-32 0 -45.5 13.5t-13.5 45.5v45q0 33 22 62l535 649h-487 q-30 0 -41 15.5t-11 54.5t11 54t41 15h626q34 0 47 -13t13 -46v-43q0 -32 -23 -61l-528 -652h518q30 0 40.5 -14.5t10.5 -54.5q0 -39 -10.5 -54.5t-40.5 -15.5z" />
<glyph unicode="&#x192;" horiz-adv-x="1099" d="M309 72l131 624h-172q-23 0 -31 13t-8 43q0 32 8 44.5t31 12.5h191l41 207q46 231 127.5 325.5t234.5 94.5q63 0 88 -19t25 -71q0 -64 -41 -64q-6 0 -27 2t-35 2q-34 0 -60 -13.5t-44.5 -35.5t-34 -63.5t-26.5 -85t-25 -111.5l-33 -168h193q23 0 31 -12.5t8 -44.5 q0 -30 -8 -43t-31 -13h-211l-139 -663q-26 -120 -54 -196.5t-69.5 -128.5t-98 -73.5t-137.5 -21.5q-57 0 -85 17t-28 57q0 80 43 80q7 0 27 -2.5t31 -2.5q28 0 50.5 8t40 27.5t30.5 42t25 62t21 75.5t21 95z" />
<glyph unicode="&#x2c6;" horiz-adv-x="983" d="M659 1100l-170 211l-170 -211q-12 -17 -26 -23t-45 -6q-55 0 -55 27q0 11 12 26l162 248q19 27 46 38t81 11q55 0 82 -11t45 -38l157 -248q13 -16 13 -26q0 -27 -56 -27q-33 0 -47.5 5.5t-28.5 23.5z" />
<glyph unicode="&#x2c7;" horiz-adv-x="983" d="M778 1366l-162 -246q-20 -27 -46 -38t-81 -11q-54 0 -81.5 11t-45.5 38l-157 246q-12 15 -12 29q0 26 55 26q34 0 48 -5.5t28 -22.5l170 -213l170 213q12 17 26 22.5t45 5.5q56 0 56 -26q0 -13 -13 -29z" />
<glyph unicode="&#x2d8;" horiz-adv-x="1001" d="M815 1331q0 -112 -82.5 -191t-230.5 -79t-231 79t-83 191q0 23 13 31t43 8q28 0 38 -7t15 -26q21 -76 69.5 -116.5t135.5 -40.5q159 0 203 157q5 18 16 25.5t39 7.5q30 0 42.5 -8t12.5 -31z" />
<glyph unicode="&#x2d9;" horiz-adv-x="1056" d="M655 1178l-90 -91q-16 -16 -37 -16q-20 0 -36 16l-91 91q-16 16 -16 36q0 19 16 35l91 90q17 17 36 17q20 0 37 -17l90 -90q17 -17 17 -35q0 -19 -17 -36z" />
<glyph unicode="&#x2da;" horiz-adv-x="1019" d="M707 1225q0 -84 -54 -135.5t-141 -51.5q-88 0 -141.5 52.5t-53.5 138.5q0 85 53.5 135.5t141.5 50.5q87 0 141 -52t54 -138zM512 1116q48 0 78.5 30t30.5 79q0 50 -30.5 81t-78.5 31q-50 0 -79.5 -29.5t-29.5 -78.5q0 -51 30 -82t79 -31z" />
<glyph unicode="&#x2db;" horiz-adv-x="1001" d="M539 31h98q-107 -110 -141.5 -168t-34.5 -119q0 -46 28 -71t72 -25q32 0 62 7t34 7q14 0 19.5 -8.5t5.5 -30.5q0 -24 -7 -34t-22 -17q-52 -14 -110 -14q-36 0 -70 8.5t-66 27t-51.5 54t-19.5 84.5q0 73 44 139t159 160z" />
<glyph unicode="&#x2dc;" horiz-adv-x="1034" d="M670 1118q-60 0 -172 44t-150 44q-40 0 -61 -18t-31.5 -42.5t-17.5 -29.5q-8 -6 -31 -6q-22 0 -30.5 7t-8.5 24q0 74 55.5 134t141.5 60q60 0 172.5 -44t146.5 -44q47 0 68.5 22t31.5 56q6 18 41 18q39 0 39 -30q0 -68 -51 -131.5t-143 -63.5z" />
<glyph unicode="&#x2dd;" horiz-adv-x="956" d="M506 1335l-176 -229q-15 -22 -29.5 -29.5t-46.5 -7.5q-31 0 -44 6t-13 23q0 12 10 35l110 225q12 28 36 39.5t77 11.5q92 0 92 -37q0 -18 -16 -37zM911 1335l-176 -229q-15 -22 -29.5 -29.5t-46.5 -7.5q-31 0 -44 6t-13 23q0 12 10 35l111 225q12 28 36 39.5t77 11.5 q92 0 92 -37q0 -17 -17 -37z" />
<glyph unicode="&#x394;" horiz-adv-x="1435" d="M1282 0h-1128q-38 0 -55 17.5t-17 54.5v98l500 1186q14 31 35 44t59 13h69q41 0 63.5 -13t37.5 -46l508 -1184v-98q0 -72 -72 -72zM1153 168l-279 676q-95 235 -161 422h-4q-70 -184 -166 -422l-279 -676h889z" />
<glyph unicode="&#x3a9;" horiz-adv-x="1581" d="M1393 0h-412q-72 0 -72 72v88q322 290 322 624q0 239 -118 367.5t-325 128.5q-206 0 -322 -128.5t-116 -369.5q0 -332 322 -622v-88q0 -72 -72 -72h-412q-38 0 -51.5 17.5t-13.5 66.5t13.5 66.5t51.5 17.5q190 0 281 -8l2 4q-145 127 -230 296t-85 349q0 288 171 457.5 t468 169.5q292 0 460 -168.5t168 -454.5q0 -182 -85 -352.5t-230 -296.5l2 -4q101 8 283 8q37 0 51 -17.5t14 -66.5t-14 -66.5t-51 -17.5z" />
<glyph unicode="&#x3bc;" horiz-adv-x="1263" d="M862 158h-4q-76 -181 -283 -181q-78 0 -141.5 29.5t-97.5 79.5l-6 -4q6 -120 6 -313v-129q0 -39 -19 -54.5t-69 -15.5q-49 0 -67.5 15.5t-18.5 54.5v1245q0 39 18.5 54t67.5 15q50 0 69 -15t19 -54v-471q0 -139 64 -216t188 -77q125 0 190.5 97t65.5 265v402 q0 39 18.5 54t67.5 15q50 0 69 -15t19 -54v-631q0 -61 16.5 -89t59.5 -28q35 0 47 -15t12 -54q0 -46 -20 -62t-84 -16q-90 0 -134 38t-53 130z" />
<glyph unicode="&#x3c0;" horiz-adv-x="1271" d="M791 295v493h-320l-51 -720q-3 -38 -24.5 -53t-71.5 -15q-93 0 -93 51q0 7 5 47l86 690h-183q-34 0 -47.5 17.5t-13.5 64.5t13.5 65.5t47.5 18.5h998q34 0 47.5 -18.5t13.5 -65.5t-13.5 -64.5t-47.5 -17.5h-183v-469q0 -98 28 -139t99 -41q33 0 45.5 -15t12.5 -58 t-15 -60.5t-65 -17.5q-137 0 -202.5 71t-65.5 236z" />
<glyph unicode="&#xe01;" horiz-adv-x="1247" d="M903 68v665q0 143 -86 222t-231 79q-90 0 -175 -33t-147 -86v-6l217 -82q24 -9 30.5 -20t6.5 -47q0 -34 -6.5 -44t-30.5 -16q-77 -20 -116 -68.5t-39 -137.5v-426q0 -36 -19.5 -52t-68.5 -16q-47 0 -66.5 16t-19.5 52v411q0 214 194 264v7l-201 71q-23 8 -32 18.5 t-9 34.5v56q0 27 8.5 40.5t39.5 41.5q83 74 200.5 116.5t257.5 42.5q217 0 341 -115t124 -302v-686q0 -36 -19 -52t-67 -16t-67 16t-19 52z" />
<glyph unicode="&#xe02;" horiz-adv-x="1171" d="M825 338v741q0 37 19.5 53.5t68.5 16.5q48 0 67 -16t19 -54v-753q0 -165 -108 -257t-303 -92q-192 0 -300 92.5t-108 256.5v100q0 69 27.5 134t58.5 104t88 100l-4 4q-33 -25 -88 -25q-87 0 -143 57t-56 148q0 94 62.5 151.5t165.5 57.5q105 0 169 -58.5t64 -160.5 q0 -71 -18 -130.5t-43.5 -101.5t-51 -82.5t-43.5 -92t-18 -109.5v-84q0 -105 63.5 -165t174.5 -60q112 0 174.5 59.5t62.5 165.5zM287 856q40 0 64 25.5t24 66.5q0 42 -24.5 68t-63.5 26t-63.5 -26t-24.5 -68q0 -41 24 -66.5t64 -25.5z" />
<glyph unicode="&#xe03;" horiz-adv-x="1228" d="M883 340v739q0 38 19 54t67 16q49 0 68.5 -16.5t19.5 -53.5v-751q0 -167 -108 -259t-304 -92q-197 0 -303 91.5t-106 259.5v88q0 103 52.5 194.5t145.5 192.5l-12 10q-26 -30 -71 -49t-97 -19q-97 0 -157 56.5t-60 148.5q0 94 59.5 150.5t157.5 56.5q100 0 159.5 -55.5 t59.5 -151.5q0 -18 -2 -26l14 -11q52 73 52 179q0 34 14 47.5t51 13.5q40 0 55 -20.5t15 -75.5q0 -71 -27.5 -140t-66.5 -126t-78 -113t-66.5 -120.5t-27.5 -127.5v-90q0 -109 62.5 -168t176.5 -59t176 59t62 168zM252 858q40 0 64 25.5t24 66.5q0 42 -24.5 68t-63.5 26 q-38 0 -62 -26.5t-24 -67.5t24 -66.5t62 -25.5z" />
<glyph unicode="&#xe04;" horiz-adv-x="1361" d="M1018 68v622q0 163 -89 254.5t-249 91.5q-163 0 -253.5 -91.5t-90.5 -254.5q0 -103 -4 -205l6 -2q40 115 131 192t207 77q95 0 154 -55t59 -146q0 -89 -56.5 -144t-148.5 -55q-78 0 -132.5 42.5t-66.5 113.5q-68 -52 -103.5 -155t-35.5 -232v-53q0 -36 -19.5 -52 t-68.5 -16q-48 0 -67 16t-19 52v614q0 230 134.5 359.5t373.5 129.5t374.5 -129.5t135.5 -359.5v-614q0 -36 -19 -52t-67 -16q-47 0 -66.5 16t-19.5 52zM680 461q39 0 62.5 24.5t23.5 65.5t-23.5 65.5t-62.5 24.5q-40 0 -64 -24.5t-24 -65.5t24 -65.5t64 -24.5z" />
<glyph unicode="&#xe05;" horiz-adv-x="1370" d="M1026 68v727q0 93 -40.5 155.5t-115.5 87.5l-96 -116q-20 -23 -36 -30t-54 -7q-39 0 -55.5 7.5t-34.5 29.5l-96 116q-77 -25 -118.5 -87.5t-41.5 -155.5q0 -184 -4 -306l6 -2q41 115 131.5 192t208.5 77q95 0 154 -55t59 -146q0 -89 -56 -144t-147 -55q-79 0 -133 42.5 t-65 113.5q-71 -53 -108.5 -155.5t-37.5 -231.5v-57q0 -36 -19.5 -52t-68.5 -16q-48 0 -67 16t-19 52v716q0 164 82.5 264.5t220.5 122.5h29q30 0 46 -11t40 -42l92 -121h4l92 121q24 31 40 42t46 11h29q139 -22 222 -122.5t83 -264.5v-716q0 -36 -19 -52t-67 -16 q-47 0 -66.5 16t-19.5 52zM684 465q39 0 62.5 24.5t23.5 65.5t-23.5 65.5t-62.5 24.5q-40 0 -64 -24.5t-24 -65.5t24 -65.5t64 -24.5z" />
<glyph unicode="&#xe06;" horiz-adv-x="1300" d="M952 223h4q-6 99 -6 183v673q0 38 19 54t67 16q49 0 68.5 -16.5t19.5 -53.5v-1018q0 -32 -19 -46.5t-65 -14.5q-38 0 -56 8.5t-32 30.5q-55 81 -175.5 157.5t-233.5 94.5l4 -76q-2 -106 -64 -167.5t-168 -61.5q-105 0 -169 62.5t-64 164.5q0 101 60.5 164t158.5 63 q32 0 78 -8l2 2q-4 50 -4 119q0 75 20 129.5t66 118.5l-14 12q-53 -68 -166 -68q-97 0 -157 56.5t-60 148.5q0 94 59.5 150.5t157.5 56.5t157.5 -54t59.5 -147q0 -22 -2 -32l16 -13q49 69 49 181q0 34 15.5 47.5t50.5 13.5q41 0 56 -20t15 -76q0 -65 -16 -119t-38 -92.5 t-44.5 -77.5t-38.5 -93.5t-16 -119.5v-137q112 -19 225.5 -75.5t179.5 -119.5zM281 858q40 0 64 25.5t24 66.5q0 42 -24.5 68t-63.5 26q-38 0 -62 -26.5t-24 -67.5q0 -40 24 -66t62 -26zM313 104q41 0 67 30t26 79q0 52 -25 80.5t-68 28.5t-67.5 -29.5t-24.5 -79.5 t24.5 -79.5t67.5 -29.5z" />
<glyph unicode="&#xe07;" horiz-adv-x="1056" d="M717 295v340q0 65 4 131l-2 2q-27 -23 -82 -23q-91 0 -149 56.5t-58 146.5q0 94 63 151.5t164 57.5q104 0 168 -59t64 -154v-663q0 -147 -90 -225.5t-258 -78.5q-43 0 -72.5 2t-66 9.5t-60.5 25t-35 45.5l-260 639q-10 30 -10 41q0 52 90 52q44 0 66.5 -15t35.5 -47 l211 -569q11 -29 32.5 -39t76.5 -10q168 0 168 184zM653 856q40 0 64 25.5t24 66.5q0 42 -24.5 68t-63.5 26t-63.5 -26t-24.5 -68q0 -41 24 -66.5t64 -25.5z" />
<glyph unicode="&#xe08;" horiz-adv-x="1163" d="M436 45l-33 178q-16 82 -22 146l-2 2q-30 -27 -88 -27q-91 0 -149 54t-58 143q0 91 60.5 146.5t160.5 55.5q191 0 223 -208l66 -418q18 -6 53 -6q111 0 165 109.5t54 348.5q0 465 -338 465q-164 0 -323 -69q-49 -17 -60 -17q-20 0 -28 14.5t-8 49.5t9 50.5t36 29.5 q63 31 170 55t221 24q249 0 372 -147t123 -455q0 -301 -101.5 -446.5t-303.5 -145.5q-88 0 -139.5 13t-59.5 55zM299 453q38 0 61 24t23 64t-23 65t-61 25t-61 -25t-23 -65t23 -64t61 -24z" />
<glyph unicode="&#xe09;" horiz-adv-x="1355" d="M1118 393v-4q64 -21 101.5 -71.5t37.5 -120.5q0 -95 -61.5 -153t-161.5 -58q-101 0 -163 56t-62 148q0 35 12 67.5t33 49.5l-2 4q-28 4 -47 4q-80 0 -147 -64t-111 -200q-9 -31 -26 -41t-58 -10q-46 0 -64 14.5t-18 46.5v160q0 63 4 129l-2 2q-26 -22 -80 -22 q-89 0 -144 55.5t-55 146.5q0 93 60.5 149t161.5 56t162 -57.5t61 -151.5v-65q0 -134 -8 -205h4q47 94 128.5 140t180.5 46q57 0 123 -20q16 19 16 59v236q0 317 -362 317q-174 0 -371 -86q-36 -12 -49 -12q-37 0 -37 66q0 34 9.5 49.5t35.5 27.5q190 90 432 90 q255 0 384.5 -115t129.5 -335v-223q0 -78 -47 -105zM322 440q39 0 62.5 25t23.5 67t-23.5 67.5t-62.5 25.5q-38 0 -62 -26t-24 -67t24 -66.5t62 -25.5zM1034 98q40 0 66 27t26 70q0 44 -26 71t-66 27q-41 0 -66.5 -27t-25.5 -71q0 -43 25.5 -70t66.5 -27z" />
<glyph unicode="&#xe0a;" horiz-adv-x="1175" d="M842 342v225q0 74 -30.5 115.5t-94.5 62.5q-22 6 -33 15.5t-20 30.5q-13 29 -13 45q0 15 17 32q107 97 198 248q20 32 40.5 43.5t66.5 11.5q42 0 65 -15t23 -40q0 -30 -21 -65q-72 -111 -221 -217v-5q100 -35 148.5 -94t48.5 -172v-233q0 -166 -111 -259.5t-309 -93.5 q-196 0 -306 93.5t-110 259.5v96q0 69 27.5 134t58.5 104t88 100l-4 4q-33 -25 -88 -25q-87 0 -143 57t-56 148q0 94 62.5 151.5t165.5 57.5q102 0 166.5 -60.5t64.5 -162.5q0 -72 -17.5 -132t-43 -101t-51 -79t-43 -86t-17.5 -104v-90q0 -107 65.5 -168t180.5 -61t180.5 61 t65.5 168zM287 856q40 0 64 25.5t24 66.5q0 42 -24.5 68t-63.5 26t-63.5 -26t-24.5 -68q0 -41 24 -66.5t64 -25.5z" />
<glyph unicode="&#xe0b;" horiz-adv-x="1247" d="M913 348v219q0 74 -30.5 114.5t-96.5 63.5q-22 6 -33 15.5t-20 30.5q-12 27 -12 45q0 14 18 32q108 100 197 248q22 33 41.5 44t64.5 11q42 0 66.5 -15t24.5 -40q0 -32 -23 -65q-75 -115 -221 -217v-5q100 -35 149 -94t49 -172v-227q0 -169 -113.5 -264t-314.5 -95 q-199 0 -311 95t-112 264v80q0 103 53 194t147 193l-14 8q-25 -30 -70 -48t-98 -18q-97 0 -157 56.5t-60 148.5q0 94 59.5 150.5t157.5 56.5q100 0 159.5 -55.5t59.5 -151.5q0 -4 -1 -13t-1 -13l14 -11q48 64 52 179q0 34 14 47.5t51 13.5q40 0 55 -20.5t15 -75.5 q0 -71 -27.5 -140t-66.5 -126t-78 -113t-66.5 -120.5t-27.5 -127.5v-82q0 -110 67 -172.5t186 -62.5t186.5 62.5t67.5 172.5zM252 858q40 0 64 25.5t24 66.5q0 42 -24.5 68t-63.5 26q-38 0 -62 -26.5t-24 -67.5t24 -66.5t62 -25.5z" />
<glyph unicode="&#xe0c;" horiz-adv-x="1861" d="M1518 223h4q-6 99 -6 183v673q0 38 18.5 54t64.5 16q49 0 68 -16t19 -54v-1018q0 -32 -18 -46.5t-62 -14.5q-36 0 -52 8t-34 33q-52 78 -170 153.5t-226 92.5q21 -35 21 -90q0 -97 -58 -154t-155 -57q-100 0 -158.5 57t-58.5 154t53 153.5t143 59.5v323q0 142 -88 221.5 t-233 79.5q-90 0 -177 -33.5t-149 -85.5v-6l217 -82q24 -9 30.5 -20t6.5 -47q0 -34 -6.5 -44t-30.5 -16q-78 -22 -118.5 -70t-40.5 -136v-127l2 -2q29 22 79 22q88 0 141.5 -54t53.5 -143q0 -91 -59.5 -146.5t-157.5 -55.5q-103 0 -165 60.5t-62 158.5v272q0 214 192 264v7 l-201 71q-23 8 -32 18.5t-9 34.5v56q0 27 8.5 40.5t39.5 41.5q83 73 202.5 116t259.5 43q217 0 342 -115t125 -302v-340q130 -18 248 -72.5t189 -118.5zM932 98q38 0 61 26.5t23 72.5q0 47 -22.5 73.5t-61.5 26.5q-40 0 -63 -26.5t-23 -73.5q0 -46 23 -72.5t63 -26.5z M383 100q39 0 62.5 24.5t23.5 65.5q0 40 -24 65.5t-62 25.5q-39 0 -62.5 -25.5t-23.5 -65.5q0 -41 23 -65.5t63 -24.5z" />
<glyph unicode="&#xe0d;" horiz-adv-x="1902" d="M1561 365v714q0 37 19.5 53.5t64.5 16.5q48 0 67 -16t19 -54v-727q0 -167 -110 -261.5t-306 -94.5t-306 94.5t-110 261.5v381q0 142 -86.5 221.5t-228.5 79.5q-89 0 -173.5 -33t-146.5 -86v-6l217 -82q24 -9 30.5 -20t6.5 -47q0 -34 -6.5 -44t-30.5 -16 q-78 -22 -118.5 -70t-40.5 -136v-127l2 -2q33 22 82 22q88 0 141 -54t53 -143q0 -91 -59.5 -146.5t-157.5 -55.5q-104 0 -166.5 60t-62.5 159v272q0 214 192 264v7l-201 71q-23 8 -32 18.5t-9 34.5v56q0 27 8.5 40.5t39.5 41.5q83 74 199.5 116.5t256.5 42.5 q214 0 337.5 -115t123.5 -302v-389q0 -109 65.5 -170.5t180.5 -61.5t180.5 61.5t65.5 170.5zM385 100q39 0 62.5 24.5t23.5 65.5q0 40 -24 65.5t-62 25.5q-39 0 -63.5 -25.5t-24.5 -65.5q0 -41 24 -65.5t64 -24.5zM1272 -418q24 -6 55 -6q95 0 160.5 59.5t85.5 161.5 q7 37 25 50.5t57 13.5q78 0 78 -64q0 -25 -9 -55q-39 -137 -144.5 -214t-268.5 -77q-164 0 -265.5 71.5t-101.5 184.5q0 84 52.5 134t142.5 50q89 0 141.5 -48t52.5 -126q0 -96 -61 -135zM1141 -369q33 0 54.5 21.5t21.5 56.5q0 36 -21.5 58t-54.5 22q-34 0 -55 -22t-21 -58 q0 -35 21 -56.5t55 -21.5z" />
<glyph unicode="&#xe0e;" horiz-adv-x="1349" d="M1006 -137v870q0 142 -87 221.5t-231 79.5q-96 0 -185.5 -32t-152.5 -84v-7l254 -98q25 -10 32 -20.5t7 -42.5q0 -31 -7 -41t-30 -15q-60 -14 -89.5 -56t-29.5 -124v-313q0 -95 -61 -153t-160 -58q-98 0 -157.5 54.5t-59.5 143.5q0 88 53.5 141.5t141.5 53.5q48 0 75 -23 l3 2q-7 51 -7 136q0 185 160 235v6l-233 82q-22 8 -31.5 19t-9.5 34v56q0 27 8.5 41t38.5 41q83 73 202.5 116t260.5 43q218 0 343.5 -115.5t125.5 -301.5v-1194q0 -54 -23 -73t-80 -19q-49 0 -68.5 6.5t-43.5 29.5q-88 81 -205 148q-43 -93 -118 -149t-181 -56t-173 54.5 t-67 148.5q0 103 75.5 161t190.5 58q50 0 103.5 -14.5t89.5 -34.5q8 16 8 57q0 9 -1 26t-1 25q0 32 17.5 47t58.5 15q44 0 63 -19.5t19 -62.5q0 -68 -33 -144q113 -57 203 -143q-8 106 -8 242zM262 98q38 0 61 25t23 65t-23 65.5t-61 25.5t-62 -25.5t-24 -65.5t24 -65 t62 -25zM645 -297q-78 43 -153 43q-61 0 -93 -23.5t-32 -66.5q0 -42 28.5 -64t75.5 -22q117 0 174 133z" />
<glyph unicode="&#xe0f;" horiz-adv-x="1349" d="M967 -492l-107 123l-78 -125q-18 -26 -28 -32t-37 -6q-29 0 -41 5.5t-21 24.5q-44 75 -84 117q-68 -168 -247 -168q-101 0 -162.5 53.5t-61.5 143.5q0 95 68 152t168 57q46 0 93 -14.5t79 -39.5q6 24 6 58q0 7 -1 23.5t-1 23.5q0 63 78 63q82 0 82 -82q0 -31 -14 -81.5 t-31 -82.5q59 -55 92 -124l84 139q11 18 20.5 23t32.5 5q22 0 31.5 -5t27.5 -25l99 -111q-8 136 -8 195v915q0 142 -87 221.5t-231 79.5q-96 0 -185.5 -32t-152.5 -84v-7l254 -98q25 -10 32 -20.5t7 -42.5q0 -31 -7 -41t-30 -15q-60 -14 -89.5 -56t-29.5 -124v-313 q0 -95 -61 -153t-160 -58q-98 0 -157.5 54.5t-59.5 143.5q0 88 53.5 141.5t141.5 53.5q48 0 75 -23l3 2q-7 51 -7 136q0 185 160 235v6l-233 82q-22 8 -31.5 19t-9.5 34v56q0 27 8.5 41t38.5 41q83 73 202.5 116t260.5 43q218 0 343.5 -115.5t125.5 -301.5v-1194 q0 -54 -22.5 -73t-78.5 -19q-50 0 -69.5 7t-42.5 33zM262 98q38 0 61 25t23 65t-23 65.5t-61 25.5t-62 -25.5t-24 -65.5t24 -65t62 -25zM475 -309q-57 43 -127 43q-47 0 -76.5 -24t-29.5 -62q0 -36 25 -58t65 -22q105 0 143 123z" />
<glyph unicode="&#xe10;" horiz-adv-x="1134" d="M430 70l-10 49q-14 73 -17 121l-2 2q-29 -29 -90 -29q-91 0 -146.5 53.5t-55.5 141.5q0 89 58 143.5t155 54.5q193 0 223 -205l37 -264q28 -8 57 -8q147 0 147 266q0 140 -44.5 203.5t-159.5 85.5q-211 40 -443 55q-35 3 -35 37v107q0 143 93.5 215.5t240.5 72.5 q72 0 198.5 -22.5t182.5 -22.5q33 0 73.5 6.5t47.5 6.5q20 0 29.5 -15t9.5 -53q0 -42 -36.5 -60t-111.5 -18q-67 0 -192.5 22.5t-194.5 22.5q-172 0 -172 -147v-35q158 -10 324 -39q112 -20 182.5 -51.5t109.5 -84t53.5 -117t14.5 -163.5q0 -194 -82 -297.5t-245 -103.5 q-85 0 -146 18q-26 8 -37.5 18.5t-15.5 33.5zM317 319q38 0 61 24.5t23 64.5q0 39 -23 63.5t-61 24.5t-59.5 -24.5t-21.5 -63.5q0 -40 21.5 -64.5t59.5 -24.5zM768 -573l-94 98l-49 -68q-15 -20 -25.5 -25t-36.5 -5q-28 0 -38 4.5t-17 21.5q-18 42 -68 96 q-55 -141 -196 -141q-86 0 -139.5 47t-53.5 127q0 81 55 128.5t140 47.5t149 -51q4 28 4 47q0 9 -1 26t-1 25q0 52 66 52q69 0 69 -70q0 -69 -45 -143q51 -51 78 -109l60 76q11 15 20 19.5t29 4.5q18 0 27.5 -5t25.5 -21l70 -74q63 0 63 49v66l-2 2q-30 -6 -41 -6 q-70 0 -114 41.5t-44 111.5q0 69 48.5 112.5t126.5 43.5q76 0 124 -44.5t48 -115.5v-203q0 -91 -58 -128t-180 -37zM829 -264q28 0 44 17t16 46q0 28 -16 45t-44 17q-27 0 -43 -17t-16 -45q0 -29 15.5 -46t43.5 -17zM362 -393q-47 41 -102 41q-37 0 -59.5 -17t-22.5 -49 q0 -30 21 -47.5t55 -17.5q35 0 64 24.5t44 65.5z" />
<glyph unicode="&#xe11;" horiz-adv-x="1396" d="M1053 68v798q0 168 -131 168q-100 0 -207.5 -98.5t-179.5 -256t-72 -312.5v-299q0 -36 -19 -52t-65 -16q-49 0 -68.5 16t-19.5 52v303q0 126 36 224.5t111 203.5l-18 12q-55 -66 -166 -66q-97 0 -157 56.5t-60 148.5q0 94 59.5 150.5t157.5 56.5q95 0 152 -54t57 -145 q0 -22 -2 -34l16 -11q35 93 35 179q0 34 14 47.5t49 13.5q38 0 53 -20.5t15 -67.5q0 -59 -20 -104l4 -3q141 211 336 211q126 0 194 -72t68 -216v-813q0 -36 -19 -52t-67 -16t-67 16t-19 52zM252 858q40 0 64 25.5t24 66.5q0 42 -24.5 68t-63.5 26q-38 0 -62 -26.5 t-24 -67.5q0 -40 24 -66t62 -26z" />
<glyph unicode="&#xe12;" horiz-adv-x="2033" d="M1692 219h4q-6 99 -6 182v678q0 37 19 53.5t65 16.5t65 -16.5t19 -53.5v-1018q0 -32 -17.5 -46.5t-60.5 -14.5q-39 0 -55 8t-31 33q-54 80 -170.5 155t-229.5 91q23 -38 23 -90q0 -96 -58.5 -153.5t-154.5 -57.5q-99 0 -157 57t-58 154q0 96 52 153t142 60v366 q0 105 -49.5 171.5t-134.5 90.5l-98 -116q-20 -23 -35.5 -30t-54.5 -7t-55.5 7.5t-34.5 29.5l-97 116q-186 -50 -186 -262v-635q105 23 194.5 82.5t143.5 141.5q-103 0 -162 52.5t-59 139.5q0 92 58 145.5t155 53.5q101 0 157 -58t56 -155q0 -103 -57.5 -204.5 t-147.5 -174.5t-202.5 -118.5t-219.5 -45.5h-25q-57 0 -57 57v711q0 177 90 278.5t240 124.5h30q30 0 47 -11.5t39 -41.5l91 -121h4l92 121q18 23 26 31.5t22.5 15t35.5 6.5h31q150 -23 240.5 -124.5t90.5 -278.5v-354q134 -18 251.5 -73t189.5 -122zM666 467q40 0 64 24.5 t24 65.5t-24 65.5t-64 24.5t-63 -24.5t-23 -65.5t23 -65.5t63 -24.5zM1102 98q40 0 63 26.5t23 72.5q0 47 -23 73.5t-63 26.5t-62 -26.5t-22 -73.5q0 -46 22 -72.5t62 -26.5z" />
<glyph unicode="&#xe13;" horiz-adv-x="1898" d="M1663 389v-4q137 -45 137 -188q0 -95 -60.5 -153t-160.5 -58q-101 0 -162 57.5t-61 151.5q0 74 45 112l-4 4q-20 4 -45 4q-91 0 -166 -70t-121 -196q-12 -30 -28.5 -39.5t-55.5 -9.5q-46 0 -64 14.5t-18 46.5v672q0 142 -85.5 221.5t-229.5 79.5q-89 0 -173.5 -33 t-146.5 -86v-6l211 -82q24 -9 30.5 -20t6.5 -47q0 -34 -6.5 -44t-30.5 -16q-153 -42 -153 -206v-127l2 -2q29 22 79 22q88 0 141.5 -54t53.5 -143q0 -91 -59.5 -146.5t-157.5 -55.5q-103 0 -165 60.5t-62 158.5v272q0 214 192 264v7l-201 71q-23 8 -32 18.5t-9 34.5v56 q0 27 8.5 40.5t39.5 41.5q83 74 199.5 116.5t256.5 42.5q216 0 338.5 -115t122.5 -302v-189q0 -188 -8 -305h4q114 182 321 182q76 0 134 -22q18 21 18 61v598q0 37 19.5 53.5t66.5 16.5t66.5 -16.5t19.5 -53.5v-587q0 -79 -47 -103zM1579 100q40 0 66 27.5t26 71.5 q0 42 -26 69t-66 27q-41 0 -66.5 -26.5t-25.5 -69.5q0 -44 25.5 -71.5t66.5 -27.5zM383 100q39 0 62.5 24.5t23.5 65.5q0 40 -24 65.5t-62 25.5q-39 0 -62.5 -25.5t-23.5 -65.5q0 -41 23 -65.5t63 -24.5z" />
<glyph unicode="&#xe14;" horiz-adv-x="1359" d="M1020 68v622q0 163 -90 254.5t-250 91.5t-250 -91.5t-90 -254.5v-551q102 25 195 84t147 137q-103 0 -161 52.5t-58 140.5q0 92 57.5 145.5t153.5 53.5q101 0 157 -57t56 -156q0 -108 -58.5 -209.5t-149.5 -172.5t-204 -114t-221 -43h-25q-57 0 -57 57v625 q0 230 134.5 359.5t373.5 129.5t373.5 -129.5t134.5 -359.5v-614q0 -37 -18 -52.5t-66 -15.5q-46 0 -65 16t-19 52zM672 463q40 0 64 25t24 65q0 41 -24 65.5t-64 24.5q-39 0 -62.5 -24.5t-23.5 -65.5q0 -40 24 -65t62 -25z" />
<glyph unicode="&#xe15;" horiz-adv-x="1388" d="M1049 68v727q0 92 -44 155t-122 88l-97 -116q-20 -23 -36 -30t-56 -7q-39 0 -55.5 7.5t-34.5 29.5l-96 116q-80 -25 -124 -87.5t-44 -155.5v-656q106 25 203.5 86.5t154.5 139.5q-102 0 -160.5 52.5t-58.5 139.5q0 92 57.5 145.5t153.5 53.5q101 0 157 -57.5t56 -155.5 q0 -108 -60 -210.5t-153 -174t-209 -115t-227 -43.5h-25q-57 0 -57 57v727q0 164 85.5 264t227.5 123h31q30 0 47 -11.5t39 -41.5l90 -121h4l92 121q18 23 26 31.5t23 15t37 6.5h29q143 -22 228.5 -122.5t85.5 -264.5v-716q0 -36 -19 -52t-65 -16t-65 16t-19 52zM688 467 q40 0 64 25t24 65q0 41 -24 65.5t-64 24.5q-39 0 -62.5 -24.5t-23.5 -65.5q0 -40 24 -65t62 -25z" />
<glyph unicode="&#xe16;" horiz-adv-x="1255" d="M911 68v665q0 142 -88 221.5t-233 79.5q-90 0 -177 -33.5t-149 -85.5v-6l217 -82q24 -9 30.5 -20t6.5 -47q0 -34 -6.5 -44t-30.5 -16q-77 -21 -116 -69t-39 -137v-127l2 -2q26 22 80 22q86 0 139 -54t53 -143q0 -91 -59.5 -146.5t-157.5 -55.5q-104 0 -166.5 60 t-62.5 159v272q0 214 192 264v7l-201 71q-23 8 -32 18.5t-9 34.5v56q0 27 8.5 40.5t39.5 41.5q83 73 202.5 116t259.5 43q218 0 343.5 -115.5t125.5 -301.5v-686q0 -36 -19 -52t-67 -16t-67 16t-19 52zM385 100q39 0 62.5 24.5t23.5 65.5q0 40 -24 65.5t-62 25.5 q-39 0 -63.5 -25.5t-24.5 -65.5q0 -41 24 -65.5t64 -24.5z" />
<glyph unicode="&#xe17;" horiz-adv-x="1419" d="M1073 68v778q0 88 -38 138t-115 50q-113 0 -213 -125t-157.5 -319t-57.5 -397v-125q0 -36 -19.5 -52t-66.5 -16t-67 16t-20 52v567q0 49 5 131l-2 2q-23 -23 -82 -23q-91 0 -148 56t-57 147q0 94 62 151.5t163 57.5q105 0 165 -59t60 -160v-121q0 -52 -4 -102h4 q20 68 47 128.5t68 122t90 105t116.5 71t143.5 27.5q142 0 219.5 -79.5t77.5 -225.5v-796q0 -36 -19 -52t-67 -16q-49 0 -68.5 16t-19.5 52zM256 856q40 0 64 25.5t24 66.5q0 42 -24.5 68t-63.5 26t-63.5 -26t-24.5 -68q0 -41 24 -66.5t64 -25.5z" />
<glyph unicode="&#xe18;" horiz-adv-x="1185" d="M1042 444v-106q0 -170 -118 -265.5t-330 -95.5q-211 0 -330 95.5t-119 265.5v151q0 36 19.5 52t66.5 16q48 0 67 -16t19 -52v-133q0 -117 73 -181t204 -64t203.5 64t72.5 181v84q0 95 -48 139t-171 66q-210 37 -483 49q-37 3 -37 37v121q0 154 96 236.5t254 82.5 q82 0 208 -21.5t185 -21.5q42 0 74 6.5t39 6.5q20 0 28.5 -14t8.5 -52q0 -45 -35 -63.5t-108 -18.5q-69 0 -192.5 21.5t-199.5 21.5q-90 0 -140 -43t-50 -127v-53q148 -6 412 -49q92 -16 148 -35t100.5 -54t63.5 -91t19 -140z" />
<glyph unicode="&#xe19;" horiz-adv-x="1366" d="M1126 389v-4q67 -22 104.5 -72.5t37.5 -119.5q0 -93 -62 -150t-162 -57t-161.5 57t-61.5 150q0 35 13 67t32 47l-2 4q-24 4 -51 4q-99 0 -182.5 -67.5t-138.5 -194.5q-15 -32 -32 -42.5t-57 -10.5q-46 0 -63.5 14.5t-17.5 46.5v574q0 65 4 131l-2 2q-27 -23 -84 -23 q-91 0 -148 56t-57 147q0 94 62 151.5t165 57.5t166.5 -59t63.5 -154v-395q0 -156 -9 -291h4q138 184 365 184q75 0 131 -20q18 21 18 59v598q0 37 19.5 53.5t66.5 16.5q49 0 68 -16t19 -54v-587q0 -78 -48 -103zM256 856q40 0 64 25.5t24 66.5q0 42 -24.5 68t-63.5 26 t-62.5 -26t-23.5 -68t23.5 -67t62.5 -25zM1044 96q40 0 66.5 27.5t26.5 69.5q0 44 -26.5 71t-66.5 27q-41 0 -66.5 -27t-25.5 -71q0 -43 25.5 -70t66.5 -27z" />
<glyph unicode="&#xe1a;" horiz-adv-x="1386" d="M1040 356v723q0 37 19.5 53.5t68.5 16.5q48 0 67 -16t19 -54v-735q0 -173 -117 -270t-327 -97q-212 0 -330 97t-118 270v291q0 65 4 131l-2 2q-27 -23 -84 -23q-91 0 -148 56t-57 147q0 94 62 151.5t165 57.5t166.5 -59t63.5 -154v-588q0 -114 73 -178.5t205 -64.5 q127 0 198.5 64.5t71.5 178.5zM256 856q40 0 64 25.5t24 66.5q0 42 -24.5 68t-63.5 26t-62.5 -26t-23.5 -68t23.5 -67t62.5 -25z" />
<glyph unicode="&#xe1b;" horiz-adv-x="1386" d="M1040 356v1157q0 36 19.5 52t68.5 16q48 0 67 -16t19 -52v-1169q0 -173 -117 -270t-327 -97q-212 0 -330 97t-118 270v291q0 65 4 131l-2 2q-27 -23 -84 -23q-91 0 -148 56t-57 147q0 94 62 151.5t165 57.5t166.5 -59t63.5 -154v-588q0 -114 73 -178.5t205 -64.5 q127 0 198.5 64.5t71.5 178.5zM256 856q40 0 64 25.5t24 66.5q0 42 -24.5 68t-63.5 26t-62.5 -26t-23.5 -68t23.5 -67t62.5 -25z" />
<glyph unicode="&#xe1c;" horiz-adv-x="1386" d="M1042 133h5q-5 153 -5 225v723q0 37 18.5 52.5t65.5 15.5q46 0 65 -15.5t19 -52.5v-983q0 -56 -30 -77t-101 -21q-77 0 -106 17t-58 73l-122 229q-56 108 -97 197h-4q-73 -143 -102 -197l-123 -231q-20 -40 -34.5 -56t-41 -24t-78.5 -8q-74 0 -105.5 21t-31.5 77v840 q0 100 62 159.5t165 59.5t165.5 -57.5t62.5 -151.5q0 -90 -57.5 -146.5t-147.5 -56.5q-53 0 -86 25l-2 -2q4 -66 4 -131v-279q0 -144 -8 -225h4q56 111 106 199l154 270q19 34 38.5 45.5t59.5 11.5q41 0 61.5 -11.5t39.5 -45.5l143 -264q21 -38 54.5 -108.5t47.5 -96.5z M410 856q40 0 64 25.5t24 66.5q0 42 -24.5 68t-63.5 26t-62.5 -26t-23.5 -68t23.5 -67t62.5 -25z" />
<glyph unicode="&#xe1d;" horiz-adv-x="1386" d="M1042 133h5q-5 153 -5 225v1158q0 37 18.5 51t65.5 14q46 0 65 -14.5t19 -50.5v-1418q0 -56 -30 -77t-101 -21q-77 0 -106 17t-58 73l-122 229q-56 108 -97 197h-4q-73 -143 -102 -197l-123 -231q-20 -40 -34.5 -56t-41 -24t-78.5 -8q-74 0 -105.5 21t-31.5 77v840 q0 100 62 159.5t165 59.5t165.5 -57.5t62.5 -151.5q0 -90 -57.5 -146.5t-147.5 -56.5q-53 0 -86 25l-2 -2q4 -66 4 -131v-279q0 -144 -8 -225h4q56 111 106 199l154 270q19 34 38.5 45.5t59.5 11.5q41 0 61.5 -11.5t39.5 -45.5l143 -264q21 -38 54.5 -108.5t47.5 -96.5z M410 856q40 0 64 25.5t24 66.5q0 42 -24.5 68t-63.5 26t-62.5 -26t-23.5 -68t23.5 -67t62.5 -25z" />
<glyph unicode="&#xe1e;" horiz-adv-x="1566" d="M1227 147h4q-4 122 -4 263v671q0 37 18.5 52.5t65.5 15.5q46 0 65 -15.5t19 -52.5v-962q0 -71 -30.5 -95t-115.5 -24q-76 0 -103.5 16t-41.5 64l-148 475q-45 144 -98 360h-4q-49 -184 -111 -389l-137 -450q-14 -44 -41 -60t-100 -16q-78 0 -110.5 21t-32.5 77v512 q0 90 4 156l-2 2q-27 -23 -84 -23q-91 0 -148 56t-57 147q0 94 62 151.5t165 57.5q102 0 163.5 -58.5t61.5 -154.5v-534q0 -141 -8 -263h4q18 55 57.5 192.5t51.5 176.5l158 508q12 41 33 54.5t71 13.5t72.5 -13.5t34.5 -54.5l159 -504q10 -33 107 -373zM256 856 q40 0 64 25.5t24 66.5q0 42 -24.5 68t-63.5 26t-62.5 -26t-23.5 -68t23.5 -67t62.5 -25z" />
<glyph unicode="&#xe1f;" horiz-adv-x="1566" d="M1227 147h4q-4 122 -4 263v1106q0 37 18.5 51t65.5 14q46 0 65 -14.5t19 -50.5v-1397q0 -71 -30.5 -95t-115.5 -24q-76 0 -103.5 16t-41.5 64l-148 475q-45 144 -98 360h-4q-49 -184 -111 -389l-137 -450q-14 -44 -41 -60t-100 -16q-78 0 -110.5 21t-32.5 77v512 q0 90 4 156l-2 2q-27 -23 -84 -23q-91 0 -148 56t-57 147q0 94 62 151.5t165 57.5q102 0 163.5 -58.5t61.5 -154.5v-534q0 -141 -8 -263h4q18 55 57.5 192.5t51.5 176.5l158 508q12 41 33 54.5t71 13.5t72.5 -13.5t34.5 -54.5l159 -504q10 -33 107 -373zM256 856 q40 0 64 25.5t24 66.5q0 42 -24.5 68t-63.5 26t-62.5 -26t-23.5 -68t23.5 -67t62.5 -25z" />
<glyph unicode="&#xe20;" horiz-adv-x="1349" d="M1006 68v665q0 142 -87 221.5t-231 79.5q-96 0 -185.5 -32t-152.5 -84v-7l254 -98q25 -10 32 -20.5t7 -42.5q0 -31 -7 -41t-30 -15q-60 -14 -89.5 -56t-29.5 -124v-315q0 -95 -61 -153t-160 -58q-98 0 -157.5 54.5t-59.5 143.5q0 88 53.5 141.5t141.5 53.5q47 0 75 -21 l3 2q-7 47 -7 136q0 185 160 235v6l-233 82q-22 8 -31.5 19t-9.5 34v56q0 27 8.5 41t38.5 41q83 73 202.5 116t260.5 43q218 0 343.5 -115.5t125.5 -301.5v-686q0 -36 -19.5 -52t-68.5 -16q-48 0 -67 16t-19 52zM262 96q38 0 61 25t23 65t-23 65t-61 25t-62 -25t-24 -65 t24 -65t62 -25z" />
<glyph unicode="&#xe21;" horiz-adv-x="1318" d="M971 223h4q-6 99 -6 183v673q0 38 19 54t67 16q49 0 68.5 -16.5t19.5 -53.5v-1018q0 -32 -19 -46.5t-65 -14.5q-38 0 -56 8t-32 29q-57 82 -179 159t-237 95l4 -76q6 -104 -58 -166.5t-171 -62.5t-169.5 61.5t-62.5 165.5q0 103 64 165t162 62q35 0 67 -8l2 2 q-4 54 -4 98v103q0 65 4 131l-2 2q-27 -23 -84 -23q-91 0 -148 56t-57 147q0 94 62.5 151.5t165.5 57.5t166 -59t63 -154v-526q117 -19 230 -75t182 -120zM324 856q40 0 64 25.5t24 66.5q0 42 -24.5 68t-63.5 26t-62.5 -26t-23.5 -68t23.5 -67t62.5 -25zM326 104 q43 0 67.5 29.5t24.5 79.5q0 52 -24 80.5t-68 28.5q-41 0 -67 -30t-26 -79t26 -79t67 -30z" />
<glyph unicode="&#xe22;" horiz-adv-x="1273" d="M874 0h-641q-73 0 -73 74v250q0 93 37.5 152t130.5 85v4q-100 34 -154.5 118t-54.5 189q0 132 61 208.5t182 76.5q98 0 157 -54t59 -145q0 -89 -53 -141.5t-142 -52.5q-49 0 -74 14q7 -77 64.5 -119.5t148.5 -42.5h80q30 0 41.5 -13t11.5 -52t-11.5 -52.5t-41.5 -13.5 h-100q-87 0 -128.5 -35.5t-41.5 -111.5v-201h499q93 0 93 92v850q0 37 19.5 53.5t68.5 16.5q48 0 67 -16t19 -54v-856q0 -223 -224 -223zM365 870q38 0 61 24t23 64t-23 65.5t-61 25.5t-62 -25.5t-24 -65.5t24 -64t62 -24z" />
<glyph unicode="&#xe23;" horiz-adv-x="997" d="M774 508v-297q0 -100 -64 -161.5t-169 -61.5q-101 0 -164.5 57.5t-63.5 151.5q0 91 56.5 146.5t148.5 55.5q60 0 84 -24l2 4q-2 29 -2 96v45q0 66 -31 100.5t-106 49.5q-162 31 -361 45q-34 3 -34 37v122q0 145 91 221t236 76q69 0 190 -22.5t181 -22.5q33 0 63.5 6.5 t38.5 6.5q20 0 28.5 -15t8.5 -53q0 -80 -129 -80q-71 0 -190.5 22.5t-184.5 22.5q-167 0 -167 -153v-54q140 -10 286 -41q139 -29 195.5 -87t56.5 -193zM537 102q40 0 65 27t25 68t-25 67.5t-65 26.5t-65.5 -26.5t-25.5 -67.5t25.5 -68t65.5 -27z" />
<glyph unicode="&#xe24;" horiz-adv-x="1255" d="M911 -465v1198q0 142 -88 221.5t-233 79.5q-90 0 -177 -33.5t-149 -85.5v-6l217 -82q24 -9 30.5 -20t6.5 -47q0 -34 -6.5 -44t-30.5 -16q-77 -21 -116 -69t-39 -137v-127l2 -2q26 22 80 22q86 0 139 -54t53 -143q0 -91 -59.5 -146.5t-157.5 -55.5q-104 0 -166.5 60 t-62.5 159v272q0 214 192 264v7l-201 71q-23 8 -32 18.5t-9 34.5v56q0 27 8.5 40.5t39.5 41.5q83 73 202.5 116t259.5 43q218 0 343.5 -115.5t125.5 -301.5v-1219q0 -36 -19 -51.5t-67 -15.5t-67 15.5t-19 51.5zM385 100q39 0 62.5 24.5t23.5 65.5q0 40 -24 65.5t-62 25.5 q-39 0 -63.5 -25.5t-24.5 -65.5q0 -41 24 -65.5t64 -24.5z" />
<glyph unicode="&#xe25;" horiz-adv-x="1187" d="M842 68v477q-128 51 -271 51q-137 0 -218 -60t-95 -171l2 -3q40 37 100 37q92 0 147.5 -55.5t55.5 -148.5q0 -95 -61 -152t-162 -57q-119 0 -185.5 82.5t-66.5 228.5q0 199 124.5 313.5t344.5 114.5q140 0 285 -53v82q0 127 -78 204.5t-229 77.5t-316 -71 q-38 -19 -57 -19q-35 0 -35 66q0 35 9 50.5t36 29.5q63 33 166.5 56t218.5 23q217 0 338 -111.5t121 -301.5v-690q0 -36 -19 -52t-67 -16q-49 0 -68.5 16t-19.5 52zM340 98q41 0 66.5 27t25.5 70q0 41 -25.5 67.5t-66.5 26.5q-40 0 -65 -26.5t-25 -67.5q0 -43 25 -70t65 -27 z" />
<glyph unicode="&#xe26;" horiz-adv-x="1349" d="M1006 -465v1198q0 142 -87 221.5t-231 79.5q-96 0 -185.5 -32t-152.5 -84v-7l254 -98q25 -10 32 -20.5t7 -42.5q0 -31 -7 -41t-30 -15q-60 -14 -89.5 -56t-29.5 -124v-315q0 -95 -61 -153t-160 -58q-98 0 -157.5 54.5t-59.5 143.5q0 88 53.5 141.5t141.5 53.5 q47 0 75 -21l3 2q-7 47 -7 136q0 185 160 235v6l-233 82q-22 8 -31.5 19t-9.5 34v56q0 27 8.5 41t38.5 41q83 73 202.5 116t260.5 43q218 0 343.5 -115.5t125.5 -301.5v-1219q0 -36 -19.5 -51.5t-68.5 -15.5q-48 0 -67 15.5t-19 51.5zM262 96q38 0 61 25t23 65t-23 65 t-61 25t-62 -25t-24 -65t24 -65t62 -25z" />
<glyph unicode="&#xe27;" horiz-adv-x="974" d="M637 379l2 4q-4 58 -4 96v285q0 131 -67 200.5t-197 69.5q-124 0 -262 -61q-39 -17 -52 -17q-37 0 -37 66q0 32 9.5 48t36.5 30q54 29 140.5 50t190.5 21q196 0 304 -100t108 -291v-569q0 -100 -65 -161.5t-169 -61.5q-103 0 -165 57.5t-62 151.5q0 91 55.5 146.5 t147.5 55.5q53 0 86 -20zM569 102q41 0 65.5 26.5t24.5 68.5t-24.5 68t-65.5 26q-39 0 -63.5 -26t-24.5 -68t24.5 -68.5t63.5 -26.5z" />
<glyph unicode="&#xe28;" horiz-adv-x="1378" d="M1018 68v622q0 163 -89 254.5t-249 91.5q-163 0 -253.5 -91.5t-90.5 -254.5q0 -103 -4 -205l6 -2q42 116 131.5 192.5t206.5 76.5q95 0 154 -55t59 -146q0 -89 -56.5 -144t-148.5 -55q-78 0 -132.5 42.5t-66.5 113.5q-68 -52 -103.5 -155t-35.5 -232v-53q0 -36 -19.5 -52 t-68.5 -16q-48 0 -67 16t-19 52v614q0 230 134.5 359.5t373.5 129.5q162 0 281 -61q65 17 132.5 48t109.5 52t57 21q53 0 53 -74q0 -65 -46 -92t-184 -55q107 -125 107 -328v-614q0 -36 -19 -52t-67 -16q-47 0 -66.5 16t-19.5 52zM680 461q39 0 62.5 24.5t23.5 65.5 t-23.5 65.5t-62.5 24.5q-40 0 -64 -24.5t-24 -65.5t24 -65.5t64 -24.5z" />
<glyph unicode="&#xe29;" horiz-adv-x="1452" d="M1227 489v-145q0 -173 -119.5 -270t-329.5 -97q-213 0 -334.5 97t-121.5 270v291q0 65 4 131l-2 2q-27 -23 -84 -23q-91 0 -148 56t-57 147q0 94 62 151.5t165 57.5t166.5 -59t63.5 -154v-588q0 -114 76.5 -178.5t209.5 -64.5q129 0 204 64.5t75 178.5v90q-36 -8 -103 -8 q-161 0 -255.5 64t-94.5 168q0 80 49 128t131 48t131.5 -45t49.5 -119q0 -34 -14.5 -67t-37.5 -48v-4q27 -10 76 -10q40 0 68 8v518q0 37 19 53.5t65 16.5q47 0 66.5 -16.5t19.5 -53.5v-454q48 38 67 104q8 25 20 35t38 10q33 0 53 -17t20 -48q0 -61 -59.5 -124.5 t-138.5 -95.5zM256 856q40 0 64 25.5t24 66.5q0 42 -24.5 68t-63.5 26t-62.5 -26t-23.5 -68t23.5 -67t62.5 -25zM786 602q32 0 52 21t20 55t-20 54t-52 20q-34 0 -53.5 -20t-19.5 -54t20 -55t53 -21z" />
<glyph unicode="&#xe2a;" horiz-adv-x="1212" d="M842 68v477q-128 51 -271 51q-137 0 -218 -60t-95 -171l2 -3q40 37 100 37q92 0 147.5 -55.5t55.5 -148.5q0 -95 -61 -152t-162 -57q-119 0 -185.5 82.5t-66.5 228.5q0 199 124.5 313.5t344.5 114.5q140 0 285 -53v82q0 127 -78 204.5t-229 77.5t-316 -71 q-38 -19 -57 -19q-35 0 -35 66q0 35 9 50.5t36 29.5q63 33 166.5 56t218.5 23q151 0 262 -57q60 18 124.5 48t104 49.5t54.5 19.5q53 0 53 -74q0 -64 -43 -91t-174 -54q78 -104 78 -254v-690q0 -36 -19 -52t-67 -16q-49 0 -68.5 16t-19.5 52zM340 98q41 0 66.5 27t25.5 70 q0 41 -25.5 67.5t-66.5 26.5q-40 0 -65 -26.5t-25 -67.5q0 -43 25 -70t65 -27z" />
<glyph unicode="&#xe2b;" horiz-adv-x="1382" d="M1014 860q40 0 64 25.5t24 66.5t-24 66.5t-64 25.5t-64 -25.5t-24 -66.5t24 -66.5t64 -25.5zM1024 68v489q0 64 -18 103.5t-62 58.5q-188 -11 -320 -178.5t-132 -397.5v-75q0 -36 -19 -52t-65 -16q-48 0 -67 16t-19 52v567q0 65 4 131l-2 2q-27 -23 -84 -23 q-91 0 -148 56t-57 147q0 94 62 151.5t165 57.5t166.5 -59t63.5 -154v-172q0 -66 -5 -246h5q51 113 139 192.5t200 106.5q-38 53 -38 127q0 94 60.5 151.5t160.5 57.5t160.5 -57.5t60.5 -151.5q0 -128 -111 -184q72 -60 72 -199v-501q0 -36 -19 -52t-67 -16t-67 16t-19 52z M256 856q40 0 64 25.5t24 66.5q0 42 -24.5 68t-63.5 26t-62.5 -26t-23.5 -68t23.5 -67t62.5 -25z" />
<glyph unicode="&#xe2c;" horiz-adv-x="1599" d="M1227 147h4q-4 122 -4 263v766q-116 12 -184 69.5t-68 149.5q0 86 52 136t140 50q89 0 142 -47t53 -127q0 -68 -49 -107q12 -4 24 -4q101 0 140 203q8 38 22.5 51t52.5 13t55 -15t17 -51q0 -21 -8 -57q-24 -98 -79.5 -164t-141.5 -90v-1067q0 -71 -30.5 -95t-115.5 -24 q-75 0 -101 15.5t-44 64.5l-141 393q-28 76 -107 346h-4q-54 -192 -117 -375l-129 -368q-16 -45 -42.5 -60.5t-98.5 -15.5q-78 0 -110.5 21t-32.5 77v512q0 90 4 156l-2 2q-27 -23 -84 -23q-91 0 -148 56t-57 147q0 94 62 151.5t165 57.5q102 0 163.5 -58.5t61.5 -154.5 v-534q0 -172 -6 -263h4q74 233 105 320l160 455q13 41 34.5 54t69.5 13t68.5 -13t35.5 -54l162 -451q52 -146 107 -324zM1169 1315q33 0 53.5 22t20.5 58q0 37 -20 59.5t-54 22.5t-53.5 -22.5t-19.5 -59.5q0 -36 20 -58t53 -22zM256 856q40 0 64 25.5t24 66.5q0 42 -24.5 68 t-63.5 26t-62.5 -26t-23.5 -68t23.5 -67t62.5 -25z" />
<glyph unicode="&#xe2d;" horiz-adv-x="1241" d="M850 0h-625q-73 0 -73 74v465q0 95 63.5 154t167.5 59q101 0 163 -57.5t62 -151.5q0 -91 -57 -147t-148 -56q-59 0 -81 22l-3 -2q5 -83 5 -131v-92h483q92 0 92 92v500q0 142 -89.5 224.5t-254.5 82.5q-147 0 -342 -75q-39 -13 -49 -13q-37 0 -37 66q0 34 9.5 50t35.5 28 q68 32 174.5 55.5t226.5 23.5q234 0 367 -116.5t133 -325.5v-506q0 -223 -223 -223zM389 451q40 0 64 25.5t24 66.5q0 42 -24.5 68t-63.5 26t-63.5 -26t-24.5 -68q0 -41 24 -66.5t64 -25.5z" />
<glyph unicode="&#xe2e;" horiz-adv-x="1267" d="M850 0h-625q-73 0 -73 74v465q0 95 64 154t167 59q101 0 163 -57.5t62 -151.5q0 -91 -57 -147t-148 -56q-55 0 -81 22l-3 -2q5 -83 5 -131v-92h483q92 0 92 92v500q0 142 -89.5 224.5t-254.5 82.5q-147 0 -342 -75q-39 -13 -49 -13q-37 0 -37 66q0 34 9.5 50t35.5 28 q68 32 174.5 55.5t226.5 23.5q169 0 289 -63q122 35 230 96q50 27 69 27q53 0 53 -74q0 -42 -12 -61t-47 -37q-63 -28 -172 -49q90 -110 90 -281v-506q0 -223 -223 -223zM389 451q40 0 64 25.5t24 66.5q0 42 -24.5 68t-63.5 26t-63.5 -26t-24.5 -68q0 -41 24 -66.5t64 -25.5 z" />
<glyph unicode="&#xe2f;" horiz-adv-x="1128" d="M778 68v501q-38 -61 -115.5 -96t-173.5 -35q-184 0 -295.5 96t-111.5 275v135q0 96 62.5 154.5t164.5 58.5q100 0 160.5 -56.5t60.5 -148.5q0 -90 -55 -146t-143 -56q-49 0 -80 22l-2 -2q8 -90 72 -142.5t178 -52.5q124 0 202 74t78 195v235q0 37 19.5 53.5t66.5 16.5 t66.5 -16.5t19.5 -53.5v-1011q0 -36 -19.5 -52t-68.5 -16q-48 0 -67 16t-19 52zM313 862q39 0 62.5 24.5t23.5 65.5t-23.5 65.5t-62.5 24.5t-62.5 -24.5t-23.5 -65.5t23.5 -65.5t62.5 -24.5z" />
<glyph unicode="&#xe30;" horiz-adv-x="921" d="M414 791q15 -3 28 -3q80 0 143 52.5t93 156.5q11 39 27 51.5t55 12.5q76 0 76 -66q0 -23 -9 -47q-46 -143 -150.5 -212.5t-254.5 -69.5q-162 0 -257 63t-95 168q0 82 52.5 132t141.5 50t143 -47.5t54 -126.5q0 -76 -47 -114zM266 819q34 0 55 22t21 58q0 35 -21 56.5 t-55 21.5t-55 -21.5t-21 -56.5q0 -36 21 -58t55 -22zM414 162q10 -2 28 -2q80 0 143 52.5t93 156.5q11 38 26.5 50.5t55.5 12.5t58 -15.5t18 -49.5q0 -24 -9 -48q-95 -282 -405 -282q-162 0 -257 63t-95 168q0 82 52.5 132.5t141.5 50.5t143 -48t54 -127q0 -76 -47 -114z M266 190q34 0 55 22t21 58q0 35 -21 56.5t-55 21.5t-55 -21.5t-21 -56.5q0 -36 21 -58t55 -22z" />
<glyph unicode="&#xe31;" d="M-399 1438q10 -2 28 -2q94 0 166 48t101 152q11 37 28 50.5t56 13.5q73 0 73 -66q0 -26 -8 -45q-48 -142 -159.5 -209t-270.5 -67q-166 0 -262 63t-96 168q0 83 52 132.5t142 49.5q89 0 142 -47t53 -127q0 -78 -45 -114zM-547 1464q34 0 55 22.5t21 59.5q0 35 -21 57.5 t-55 22.5q-35 0 -56.5 -22.5t-21.5 -57.5q0 -37 21.5 -59.5t56.5 -22.5z" />
<glyph unicode="&#xe32;" horiz-adv-x="940" d="M594 68v714q0 119 -59 185.5t-173 66.5q-109 0 -245 -57q-37 -16 -51 -16q-37 0 -37 65q0 32 10 49t35 29q128 67 315 67q175 0 277 -99t102 -277v-727q0 -36 -19.5 -52t-68.5 -16q-48 0 -67 16t-19 52z" />
<glyph unicode="&#xe33;" horiz-adv-x="940" d="M-70 1516q0 -99 -65 -159.5t-172 -60.5q-106 0 -171 61t-65 159t65 158.5t171 60.5q107 0 172 -60.5t65 -158.5zM-307 1405q47 0 75.5 30t28.5 81t-28 79.5t-76 28.5q-47 0 -76 -29t-29 -79t29.5 -80.5t75.5 -30.5zM594 68v714q0 119 -59 185.5t-173 66.5 q-109 0 -245 -57q-37 -16 -51 -16q-37 0 -37 65q0 32 10 49t35 29q128 67 315 67q175 0 277 -99t102 -277v-727q0 -36 -19.5 -52t-68.5 -16q-48 0 -67 16t-19 52z" />
<glyph unicode="&#xe34;" d="M-227 1317h-873q-51 0 -51 51v53q44 145 178 230.5t311 85.5q175 0 310 -86t176 -230v-53q0 -51 -51 -51zM-995 1432h663q-29 83 -119 133.5t-211 50.5t-212.5 -50.5t-120.5 -133.5z" />
<glyph unicode="&#xe35;" d="M-227 1317h-873q-51 0 -51 51v53q44 145 176 230.5t307 85.5q98 0 187.5 -34t142.5 -93v108q0 31 18.5 43.5t61.5 12.5q44 0 63 -12.5t19 -43.5v-350q0 -51 -51 -51zM-995 1432h663q-29 83 -119 133.5t-211 50.5t-212.5 -50.5t-120.5 -133.5z" />
<glyph unicode="&#xe36;" d="M-227 1317h-873q-51 0 -51 51v53q44 144 176.5 230t302.5 86q119 0 199 -39q13 47 55 74.5t101 27.5q74 0 120.5 -45t46.5 -115q0 -91 -67 -127q32 -44 41 -88v-57q0 -51 -51 -51zM-317 1571q31 0 50 19.5t19 51.5t-19 52t-50 20q-32 0 -52 -20t-20 -52t20 -51.5 t52 -19.5zM-993 1432h657q-28 82 -118 133t-208 51q-122 0 -212.5 -50.5t-118.5 -133.5z" />
<glyph unicode="&#xe37;" d="M-227 1317h-873q-51 0 -51 51v53q44 144 174.5 229t298.5 85q75 0 154 -27v43q0 26 15 35.5t50 9.5q36 0 51 -9.5t15 -35.5v-96q51 -28 88 -80v176q0 26 14 35.5t49 9.5q36 0 51 -9.5t15 -35.5v-383q0 -51 -51 -51zM-995 1432h663q-33 81 -123.5 132.5t-212.5 51.5 q-117 0 -207.5 -50.5t-119.5 -133.5z" />
<glyph unicode="&#xe38;" d="M-338 -571v69q0 30 4 62l-2 2q-15 -11 -49 -11q-69 0 -111.5 42.5t-42.5 111.5q0 72 48.5 116t128.5 44q84 0 135 -45.5t51 -122.5v-268q0 -34 -17.5 -47t-64.5 -13q-46 0 -63 13t-17 47zM-365 -362q31 0 49.5 19t18.5 50t-18.5 49.5t-49.5 18.5q-29 0 -47 -18.5 t-18 -49.5t18 -50t47 -19z" />
<glyph unicode="&#xe39;" d="M-330 -463v260q0 33 17 46.5t59 13.5q43 0 60.5 -13t17.5 -47v-284q0 -158 -240 -158q-237 0 -237 158q0 23 4 47l-2 2q-18 -11 -49 -11q-69 0 -111.5 42.5t-42.5 111.5q0 72 47.5 116t126.5 44q82 0 129 -45.5t47 -124.5v-158q0 -69 88 -69q45 0 65.5 16.5t20.5 52.5z M-684 -362q31 0 49.5 19t18.5 50t-18.5 49.5t-49.5 18.5q-29 0 -47.5 -18.5t-18.5 -49.5t18.5 -50t47.5 -19z" />
<glyph unicode="&#xe3a;" d="M-270 -422q-63 0 -103.5 39.5t-40.5 103.5q0 63 40.5 103.5t103.5 40.5q64 0 103.5 -40.5t39.5 -103.5q0 -65 -39.5 -104t-103.5 -39z" />
<glyph unicode="&#xe3f;" horiz-adv-x="1224" d="M547 -154v154h-283q-38 0 -53.5 16t-15.5 54v1267q0 39 15.5 55.5t53.5 16.5h283v156q0 20 11.5 28.5t37.5 8.5t37.5 -8.5t11.5 -28.5v-160q189 -15 295.5 -106.5t106.5 -251.5q0 -120 -50 -196.5t-153 -123.5v-4q241 -87 241 -320q0 -82 -22 -147.5t-61 -110.5 t-95.5 -76t-120.5 -46.5t-141 -20.5v-156q0 -20 -11 -28t-38 -8t-38 8t-11 28zM547 799v463h-170v-463h170zM645 1253v-446q219 33 219 223q0 184 -219 223zM547 147v510h-170v-510h170zM645 649v-495q139 18 197.5 80t58.5 167q0 104 -61 166t-195 82z" />
<glyph unicode="&#xe40;" horiz-adv-x="679" d="M352 367l2 -2q31 22 84 22q87 0 140 -54t53 -143q0 -91 -59.5 -146.5t-157.5 -55.5q-105 0 -168.5 61t-63.5 162v868q0 38 19 54t67 16q49 0 68.5 -16.5t19.5 -53.5v-567q0 -47 -4 -145zM416 100q39 0 62.5 24.5t23.5 65.5q0 40 -24 65.5t-62 25.5q-39 0 -63.5 -25.5 t-24.5 -65.5q0 -41 24 -65.5t64 -24.5z" />
<glyph unicode="&#xe41;" horiz-adv-x="1323" d="M352 367l2 -2q31 22 84 22q87 0 140 -54t53 -143q0 -91 -59.5 -146.5t-157.5 -55.5q-105 0 -168.5 61t-63.5 162v868q0 38 19 54t67 16q49 0 68.5 -16.5t19.5 -53.5v-567q0 -47 -4 -145zM993 367l4 -2q31 22 84 22q85 0 139 -54t54 -143q0 -91 -60.5 -146.5t-158.5 -55.5 q-105 0 -168.5 61t-63.5 162v868q0 37 19.5 53.5t68.5 16.5q48 0 67 -16t19 -54v-567q0 -47 -4 -145zM416 100q39 0 62.5 24.5t23.5 65.5q0 40 -24 65.5t-62 25.5q-39 0 -63.5 -25.5t-24.5 -65.5q0 -41 24 -65.5t64 -24.5zM1057 100q39 0 62.5 24.5t23.5 65.5q0 40 -24 65.5 t-62 25.5t-62 -25.5t-24 -65.5q0 -41 23.5 -65.5t62.5 -24.5z" />
<glyph unicode="&#xe42;" horiz-adv-x="890" d="M541 367l2 -2q31 22 84 22q86 0 139 -54t53 -143q0 -91 -60 -146.5t-159 -55.5q-103 0 -166 61t-63 162v1059q0 71 -26.5 105.5t-92.5 49.5q-113 25 -242 41q-19 3 -27 11.5t-8 29.5v109q0 145 93 222t241 77q70 0 196.5 -23.5t186.5 -23.5q34 0 65.5 7t39.5 7 q18 0 26 -14.5t8 -52.5q0 -45 -31.5 -63.5t-97.5 -18.5q-70 0 -195 23.5t-192 23.5q-172 0 -172 -156v-51q102 -14 191 -37q82 -19 125 -46.5t63.5 -80.5t20.5 -145v-752q0 -96 -2 -145zM602 100q40 0 64 24.5t24 65.5q0 40 -24.5 65.5t-63.5 25.5q-38 0 -62 -25.5 t-24 -65.5q0 -41 23.5 -65.5t62.5 -24.5z" />
<glyph unicode="&#xe43;" horiz-adv-x="837" d="M500 367l2 -2q31 22 84 22q86 0 139 -54t53 -143q0 -91 -59.5 -146.5t-157.5 -55.5q-104 0 -167.5 61t-63.5 162v620q0 114 29.5 188t123.5 220q61 96 83 163.5t22 141.5q0 104 -60.5 170t-169.5 66q-73 0 -125.5 -31t-74.5 -84l4 -6q43 24 92 24q82 0 133 -52t51 -136 q0 -91 -57 -147t-150 -56q-109 0 -176 72t-67 192q0 161 103.5 260t283.5 99q88 0 161 -29.5t120 -79t72.5 -112.5t25.5 -133q0 -97 -25 -173.5t-82 -170.5q-90 -149 -116.5 -216t-26.5 -167v-322q0 -47 -4 -145zM229 1403q38 0 61 24t23 64q0 38 -23 62t-61 24t-62 -24 t-24 -62q0 -40 24 -64t62 -24zM563 100q39 0 62.5 24.5t23.5 65.5q0 40 -24 65.5t-62 25.5q-39 0 -63.5 -25.5t-24.5 -65.5q0 -41 24 -65.5t64 -24.5z" />
<glyph unicode="&#xe44;" horiz-adv-x="823" d="M477 367l2 -2q31 22 84 22q87 0 140 -54t53 -143q0 -91 -60 -146.5t-159 -55.5q-103 0 -166.5 61t-63.5 162v956q0 173 59.5 304t196.5 243q-113 -37 -250 -37q-82 0 -177 21.5t-154 52.5q-30 16 -40 32.5t-10 55.5q0 72 48 72q23 0 83 -29q144 -67 277 -67q139 0 268 61 q40 18 54 18q25 0 43 -30l38 -72q13 -26 13 -37q0 -26 -29 -49q-140 -121 -194 -243.5t-54 -295.5v-655q0 -96 -2 -145zM539 100q40 0 64 24.5t24 65.5q0 40 -24.5 65.5t-63.5 25.5q-38 0 -62 -25.5t-24 -65.5q0 -41 23.5 -65.5t62.5 -24.5z" />
<glyph unicode="&#xe45;" horiz-adv-x="940" d="M594 -465v1247q0 119 -59 185.5t-173 66.5q-109 0 -245 -57q-37 -16 -51 -16q-37 0 -37 65q0 32 10 49t35 29q128 67 315 67q175 0 277 -99t102 -277v-1260q0 -36 -19.5 -51.5t-68.5 -15.5q-48 0 -67 15.5t-19 51.5z" />
<glyph unicode="&#xe46;" horiz-adv-x="1206" d="M819 -465v1313q0 132 -117 166l-114 -111q-16 -16 -53 -16q-36 0 -54 16l-119 111q-50 -13 -83 -53.5t-33 -102.5v-84q34 21 76 21q87 0 141.5 -55.5t54.5 -147.5q0 -91 -60.5 -147t-158.5 -56q-100 0 -162.5 59.5t-62.5 161.5v232q0 132 69 208.5t185 104.5h24 q29 0 45 -16l133 -133h5l133 133q16 16 45 16h24q256 -55 256 -315v-1305q0 -36 -19 -51.5t-67 -15.5q-49 0 -68.5 15.5t-19.5 51.5zM303 498q39 0 63.5 26t24.5 68q0 41 -24 66.5t-64 25.5t-65 -25.5t-25 -66.5t25 -67.5t65 -26.5z" />
<glyph unicode="&#xe47;" d="M-483 1409v4q-21 21 -21 68q0 59 41.5 96t108.5 37q66 0 107.5 -41t41.5 -107q0 -81 -57 -127.5t-156 -46.5q-208 0 -262 152h-4l-39 -113q-9 -26 -33 -26q-100 0 -169.5 67.5t-69.5 181.5q0 121 77 194t211 73h451q24 0 33.5 -14t9.5 -48t-9 -46.5t-34 -12.5h-446 q-73 0 -112.5 -39t-39.5 -107q0 -98 76 -133l39 103q7 20 19 25t44 5q46 0 58 -28q43 -119 118 -119q9 0 17 2zM-354 1407q25 0 41 17.5t16 43.5q0 29 -16 46.5t-41 17.5q-26 0 -42 -17.5t-16 -46.5q0 -27 16 -44t42 -17z" />
<glyph unicode="&#xe48;" d="M-338 1935v252q0 33 19 46.5t61 13.5q44 0 63 -13.5t19 -46.5v-252q0 -33 -19 -46t-63 -13q-42 0 -61 13t-19 46z" />
<glyph unicode="&#xe49;" d="M-485 2001v4q-70 3 -114 41.5t-44 99.5q0 69 45.5 111.5t118.5 42.5t118.5 -42t45.5 -110q0 -47 -27 -96.5t-70 -81.5q238 48 258 277q3 26 18.5 35.5t51.5 9.5q33 0 52.5 -12t19.5 -31q0 -53 -14 -104t-50.5 -102.5t-91 -90t-143.5 -62.5t-201 -24q-65 0 -81.5 7.5 t-16.5 35.5q0 16 4.5 23t15.5 12q62 20 105 57zM-479 2085q28 0 45.5 17t17.5 46t-17.5 47.5t-45.5 18.5q-29 0 -47.5 -18.5t-18.5 -47.5t18 -46t48 -17z" />
<glyph unicode="&#xe4a;" d="M-233 1874h-31q-35 0 -35 29v186q0 67 -55 84l-60 -55q-9 -9 -26 -9q-18 0 -27 9l-70 55q-23 -4 -39 -23.5t-18 -42.5q61 -1 95 -33.5t34 -88.5q0 -58 -36 -92.5t-95 -34.5q-70 0 -109.5 46.5t-39.5 123.5q0 92 49 163q52 72 129 86h20q19 0 31 -12l74 -63h2l71 63 q15 12 31 12h21q71 -20 105 -61.5t34 -120.5v-113q113 28 119 256q1 26 18 37t51 11q66 0 66 -50q-5 -173 -82.5 -267.5t-226.5 -94.5zM-598 1931q23 0 36 14t13 37q0 24 -13 38t-36 14t-36 -14t-13 -38q0 -23 13 -37t36 -14z" />
<glyph unicode="&#xe4b;" d="M-53 2044l-131 4l2 -119q0 -29 -18 -41t-58 -12t-57 12t-17 41l2 119l-133 -4q-31 -1 -42 12.5t-11 52.5t11.5 53t41.5 13l133 -6l-2 119q0 29 17.5 40t56.5 11q41 0 58.5 -11t17.5 -40l-2 -119l131 6q30 1 41.5 -13t11.5 -53t-11 -52.5t-42 -12.5z" />
<glyph unicode="&#xe4c;" d="M-123 2224l-172 -100v-4q40 -15 62 -49.5t22 -79.5q0 -74 -48.5 -119t-127.5 -45q-80 0 -129 45.5t-49 118.5q0 104 104 168l275 163q15 9 24 9q23 0 40.5 -26.5t17.5 -53.5q0 -16 -19 -27zM-387 1923q31 0 49.5 18.5t18.5 49.5t-18.5 49t-49.5 18t-49.5 -18t-18.5 -49 t18.5 -49.5t49.5 -18.5z" />
<glyph unicode="&#xe4d;" d="M-70 1516q0 -99 -65 -159.5t-172 -60.5q-106 0 -171 61t-65 159t65 158.5t171 60.5q107 0 172 -60.5t65 -158.5zM-307 1405q47 0 75.5 30t28.5 81t-28 79.5t-76 28.5q-47 0 -76 -29t-29 -79t29.5 -80.5t75.5 -30.5z" />
<glyph unicode="&#xe4e;" d="M-233 1593l-9 -26q-9 -23 -32 -23q-14 0 -51 7.5t-62 7.5q-90 0 -90 -72q0 -74 98 -74q20 0 46 4t32 4q14 2 20.5 -9t6.5 -38q0 -43 -24.5 -58.5t-100.5 -15.5q-95 0 -161.5 47.5t-66.5 139.5q0 78 53.5 127t139.5 49q25 0 49 -6l2 4q-41 33 -41 88q0 50 37.5 81.5 t99.5 31.5h158q27 0 37 -14t10 -50q0 -37 -9.5 -50t-37.5 -13h-111q-53 0 -53 -47q0 -38 45 -56q19 -10 19 -20q0 -7 -4 -19z" />
<glyph unicode="&#xe4f;" horiz-adv-x="1454" d="M1294 537q0 -238 -156 -384.5t-411 -146.5t-411 146.5t-156 384.5q0 239 156 385.5t411 146.5t411 -146.5t156 -385.5zM1145 537q0 183 -115 294t-303 111t-303 -111t-115 -294q0 -181 115 -292.5t303 -111.5t303 111.5t115 292.5zM727 315q-95 0 -152 61.5t-57 160.5 t57 160t152 61q94 0 151.5 -61.5t57.5 -159.5q0 -99 -58 -160.5t-151 -61.5z" />
<glyph unicode="&#xe50;" horiz-adv-x="1368" d="M1247 524q0 -247 -154.5 -397t-408.5 -150t-407.5 150t-153.5 397q0 248 154 398.5t407 150.5q254 0 408.5 -151t154.5 -398zM684 113q173 0 279 112.5t106 298.5t-106 300t-279 114q-172 0 -278.5 -114t-106.5 -300q0 -185 106.5 -298t278.5 -113z" />
<glyph unicode="&#xe51;" horiz-adv-x="1409" d="M449 342l6 4q-21 30 -21 82q0 89 61 143t158 54q101 0 163.5 -58t62.5 -153q0 -106 -75.5 -168t-211.5 -62q-96 0 -178.5 23t-151 70.5t-108 130.5t-39.5 194q0 205 151.5 338t413.5 133q285 0 446.5 -160.5t161.5 -423.5q0 -206 -88.5 -352t-245.5 -218.5t-370 -72.5 q-37 0 -54.5 16t-17.5 54q0 40 15 55t53 15q246 0 388 129t142 379q0 204 -113 324t-319 120q-185 0 -288 -93t-103 -243q0 -192 162 -260zM653 315q41 0 68 27t27 70q0 44 -26.5 71t-68.5 27t-68 -27t-26 -71q0 -43 26.5 -70t67.5 -27z" />
<glyph unicode="&#xe52;" horiz-adv-x="1558" d="M1128 0h-882q-82 0 -82 82v1102q0 35 19.5 50t66.5 15q46 0 65 -15t19 -50v-1047h762q73 0 105 32.5t32 104.5v492q0 71 -28.5 110.5t-82.5 57.5l-110 -90q-20 -15 -49 -15q-33 0 -52 15l-114 90q-111 -32 -111 -158v-57q35 22 78 22q87 0 142 -56t55 -146 q0 -92 -61 -148.5t-159 -56.5q-99 0 -159 57.5t-60 153.5v215q0 135 62 209t174 104h24q26 0 45 -16l131 -113h5l129 113q16 16 45 16h24q120 -29 181 -101.5t61 -211.5v-486q0 -145 -65 -209.5t-210 -64.5zM743 444q41 0 66 26t25 67q0 42 -25 68t-66 26q-39 0 -63.5 -26 t-24.5 -68q0 -41 24 -67t64 -26z" />
<glyph unicode="&#xe53;" horiz-adv-x="1400" d="M1075 66v677q0 95 -37 144t-106 49q-65 0 -103 -43.5t-38 -126.5v-219q0 -37 -18 -51.5t-64 -14.5t-64 14.5t-18 51.5v223q0 77 -40.5 121.5t-105.5 44.5q-76 0 -115.5 -49t-39.5 -139v-246q0 -53 -4 -135l4 -2q28 22 82 22q86 0 139 -54t53 -143q0 -91 -59.5 -146.5 t-157.5 -55.5q-103 0 -165 60.5t-62 158.5v514q0 171 81.5 261.5t223.5 90.5q88 0 154.5 -43t97.5 -119q32 77 97.5 119.5t154.5 42.5q137 0 208.5 -86.5t71.5 -259.5v-661q0 -36 -18.5 -51t-67.5 -15q-46 0 -65 15.5t-19 50.5zM385 100q39 0 62.5 24.5t23.5 65.5 q0 40 -24 65.5t-62 25.5q-39 0 -62.5 -25.5t-23.5 -65.5q0 -41 23 -65.5t63 -24.5z" />
<glyph unicode="&#xe54;" horiz-adv-x="1341" d="M911 301l-2 -4q21 -81 93.5 -131.5t154.5 -50.5q40 0 64 6q4 1 11.5 2.5t13 2.5t9.5 1q29 0 29 -61q0 -46 -29.5 -62t-109.5 -16q-78 0 -153 28t-130 80q-92 -119 -272 -119q-94 0 -175 32t-145.5 95t-101.5 166t-37 234q0 261 151 403t433 142h366v135q0 36 18.5 50.5 t63.5 14.5q46 0 65 -15t19 -50v-191q0 -43 -19.5 -62.5t-62.5 -19.5h-454q-202 0 -305 -103t-103 -304q0 -193 86.5 -292t214.5 -99q115 0 184 69q-94 121 -94 269q0 114 65 177.5t173 63.5q99 0 160 -57t61 -150q0 -87 -54 -141.5t-130 -54.5q-34 0 -58 12zM930 391 q40 0 64 25.5t24 66.5t-24 66.5t-64 25.5t-64 -25.5t-24 -66.5t24 -66.5t64 -25.5z" />
<glyph unicode="&#xe55;" horiz-adv-x="1351" d="M911 301l-2 -4q21 -81 93.5 -131.5t154.5 -50.5q27 0 58 6t40 6q29 0 29 -61q0 -46 -29.5 -62t-109.5 -16q-78 0 -153 28t-130 80q-92 -119 -272 -119q-94 0 -175 32t-145.5 95t-101.5 166t-37 234q0 197 85 327t245 177q-33 51 -33 114q0 92 61.5 148.5t161.5 56.5 t161.5 -56.5t61.5 -148.5q0 -38 -12 -73h268v135q0 36 18.5 50.5t63.5 14.5q46 0 64 -14t18 -51v-191q0 -43 -19 -62.5t-61 -19.5h-503q-202 0 -305 -103t-103 -304q0 -193 86.5 -292t214.5 -99q63 0 105.5 16.5t78.5 52.5q-94 121 -94 269q0 114 65 177.5t173 63.5 q99 0 160 -57t61 -150q0 -87 -54 -141.5t-130 -54.5q-34 0 -58 12zM651 1026q43 0 68.5 26.5t25.5 69.5t-26 70t-68 27q-43 0 -69.5 -27t-26.5 -70t26.5 -69.5t69.5 -26.5zM930 391q40 0 64 25.5t24 66.5t-24 66.5t-64 25.5t-64 -25.5t-24 -66.5t24 -66.5t64 -25.5z" />
<glyph unicode="&#xe56;" horiz-adv-x="1314" d="M352 266l-2 -2q33 -73 118 -112t196 -39q169 0 264.5 110.5t95.5 300.5q0 192 -94.5 303t-259.5 111q-172 0 -301 -119q-20 -18 -32 -23t-34 -5h-65q-74 0 -74 71v322q0 37 18 51t64 14t64 -14t18 -51v-246q60 60 152 97.5t204 37.5q235 0 376.5 -149t141.5 -400 q0 -252 -145.5 -399.5t-397.5 -147.5q-230 0 -377 118t-147 323q0 112 65 178t169 66q99 0 161 -58t62 -153q0 -84 -50.5 -139.5t-131.5 -55.5q-35 0 -58 10zM369 360q40 0 64 26t24 67q0 40 -24 65t-64 25q-39 0 -62.5 -25t-23.5 -65q0 -42 23.5 -67.5t62.5 -25.5z" />
<glyph unicode="&#xe57;" horiz-adv-x="1837" d="M1356 0h-217q-72 0 -72 72v671q0 193 -139 193q-66 0 -105 -44t-39 -126v-219q0 -37 -17.5 -51.5t-61.5 -14.5q-46 0 -64 14.5t-18 51.5v223q0 77 -40.5 121.5t-105.5 44.5q-76 0 -114.5 -49t-38.5 -139v-246q0 -32 -5 -135l5 -2q28 22 82 22q86 0 139 -54t53 -143 q0 -91 -59.5 -146.5t-157.5 -55.5q-102 0 -163.5 60t-61.5 159v514q0 172 79.5 262t221.5 90q88 0 154.5 -43t97.5 -119q32 77 97.5 119.5t154.5 42.5q274 0 274 -346v-592h106q86 0 125 42.5t39 137.5v869q0 36 19.5 50.5t64.5 14.5q46 0 65 -14.5t19 -50.5v-858 q0 -171 -75.5 -248.5t-241.5 -77.5zM383 100q39 0 62.5 24.5t23.5 65.5q0 40 -24 65.5t-62 25.5q-39 0 -62.5 -25.5t-23.5 -65.5q0 -41 23 -65.5t63 -24.5z" />
<glyph unicode="&#xe58;" horiz-adv-x="1439" d="M674 236h-4l-70 -209q-6 -21 -14.5 -28t-28.5 -7q-176 0 -293 142t-117 372q0 259 151.5 401t432.5 142h375v135q0 36 18.5 50.5t63.5 14.5t63.5 -14.5t18.5 -50.5v-191q0 -43 -19 -62.5t-61 -19.5h-463q-202 0 -305 -102t-103 -303q0 -151 54 -247.5t141 -123.5l72 205 q8 25 25 35t59 10t56.5 -10t21.5 -35q62 -227 239 -227q75 0 120 43.5t54 119.5q-24 -12 -65 -12q-91 0 -150 58t-59 147q0 93 61 151t158 58q104 0 167.5 -65.5t63.5 -180.5q0 -455 -331 -455q-254 0 -332 259zM1106 379q40 0 64 25.5t24 66.5q0 40 -24 65t-64 25t-64 -25 t-24 -65q0 -41 24 -66.5t64 -25.5z" />
<glyph unicode="&#xe59;" horiz-adv-x="1411" d="M1006 47l-244 707q-30 86 -78 135t-129 49q-112 0 -183 -97t-71 -278q0 -164 70 -276l4 -2q21 55 69 84.5t109 29.5q93 0 150 -56t57 -148t-59 -149.5t-156 -57.5q-117 0 -212.5 78t-148.5 209.5t-53 287.5q0 234 115 372t299 138q96 0 170 -44.5t112 -121.5 q12 78 64 124t129 46q59 0 104.5 -31.5t67.5 -76.5l49 223q6 31 23.5 44t56.5 13q76 0 76 -53q0 -14 -11 -53l-90 -320q-12 -39 -51 -39h-84q-11 75 -44 117.5t-87 42.5q-53 0 -85 -35t-36 -98l260 -741q7 -24 7 -33q0 -37 -80 -37q-40 0 -60.5 9.5t-29.5 37.5zM545 104 q39 0 63.5 25t24.5 66q0 40 -25 65t-63 25q-40 0 -64 -25t-24 -65q0 -41 24 -66t64 -25z" />
<glyph unicode="&#xe5b;" horiz-adv-x="2025" d="M1942 358h-273q-23 0 -32.5 8.5t-14.5 30.5l-59 238h-7l-92 -344q-7 -26 -21.5 -33.5t-51.5 -7.5q-39 0 -54 7t-24 34l-84 264h-6q-41 -224 -177 -340.5t-356 -116.5q-242 0 -390 135.5t-148 358.5q0 207 123 322.5t315 115.5q99 0 178.5 -41t124.5 -112q61 -96 61 -228 q0 -117 -65.5 -187.5t-171.5 -70.5q-98 0 -158.5 56t-60.5 147q0 89 53 143t139 54q42 0 86 -19l2 4q-10 49 -60.5 85t-137.5 36q-117 0 -194 -81.5t-77 -223.5q0 -164 107.5 -261.5t281.5 -97.5q137 0 236 71.5t147 187t49 260.5q0 42 13.5 53.5t58.5 11.5q41 0 57.5 -12 t26.5 -43l100 -336h5l86 332q9 37 25.5 48t60.5 11q41 0 58 -13t26 -50l65 -265h230q26 0 36.5 -14t10.5 -51t-10.5 -51.5t-36.5 -14.5zM807 596q0 40 -24.5 64t-65.5 24t-65.5 -24t-24.5 -64t24.5 -64t65.5 -24t65.5 24t24.5 64z" />
<glyph unicode="&#x2000;" horiz-adv-x="1169" />
<glyph unicode="&#x2001;" horiz-adv-x="2339" />
<glyph unicode="&#x2002;" horiz-adv-x="1169" />
<glyph unicode="&#x2003;" horiz-adv-x="2339" />
<glyph unicode="&#x2004;" horiz-adv-x="779" />
<glyph unicode="&#x2005;" horiz-adv-x="584" />
<glyph unicode="&#x2006;" horiz-adv-x="389" />
<glyph unicode="&#x2007;" horiz-adv-x="389" />
<glyph unicode="&#x2008;" horiz-adv-x="292" />
<glyph unicode="&#x2009;" horiz-adv-x="467" />
<glyph unicode="&#x200a;" horiz-adv-x="129" />
<glyph unicode="&#x2010;" horiz-adv-x="643" d="M506 475h-367q-32 0 -43.5 16t-11.5 62t11.5 62t43.5 16h367q31 0 43 -16.5t12 -61.5t-12 -61.5t-43 -16.5z" />
<glyph unicode="&#x2011;" horiz-adv-x="643" d="M506 475h-367q-32 0 -43.5 16t-11.5 62t11.5 62t43.5 16h367q31 0 43 -16.5t12 -61.5t-12 -61.5t-43 -16.5z" />
<glyph unicode="&#x2012;" horiz-adv-x="643" d="M506 475h-367q-32 0 -43.5 16t-11.5 62t11.5 62t43.5 16h367q31 0 43 -16.5t12 -61.5t-12 -61.5t-43 -16.5z" />
<glyph unicode="&#x2013;" horiz-adv-x="1208" d="M1032 485h-856q-31 0 -42 15t-11 55q0 39 11.5 53.5t41.5 14.5h856q30 0 41.5 -14.5t11.5 -53.5q0 -40 -11 -55t-42 -15z" />
<glyph unicode="&#x2014;" horiz-adv-x="1779" d="M1604 485h-1428q-31 0 -42 15t-11 55q0 39 11.5 53.5t41.5 14.5h1428q31 0 42 -14.5t11 -53.5q0 -40 -11 -55t-42 -15z" />
<glyph unicode="&#x2018;" horiz-adv-x="479" d="M102 1108l131 319q15 37 31 48.5t51 11.5q66 0 66 -43q0 -7 -8 -39l-90 -313q-11 -39 -30.5 -52.5t-68.5 -13.5q-88 0 -88 47q0 20 6 35z" />
<glyph unicode="&#x2019;" horiz-adv-x="479" d="M106 1108l89 313q11 39 31 52.5t69 13.5q88 0 88 -47q0 -15 -8 -35l-131 -320q-15 -37 -30 -48t-50 -11q-66 0 -66 43q0 7 8 39z" />
<glyph unicode="&#x201a;" horiz-adv-x="479" d="M106 -186l89 313q11 39 31 52.5t69 13.5q88 0 88 -48q0 -14 -8 -34l-131 -320q-15 -37 -30 -48t-50 -11q-66 0 -66 43q0 7 8 39z" />
<glyph unicode="&#x201c;" horiz-adv-x="829" d="M102 1108l131 319q15 37 31 48.5t51 11.5q66 0 66 -43q0 -7 -8 -39l-90 -313q-11 -38 -30.5 -51t-68.5 -13q-88 0 -88 45q0 20 6 35zM453 1108l131 319q15 37 31 48.5t51 11.5q65 0 65 -43q0 -7 -8 -39l-88 -313q-11 -38 -31 -51t-69 -13q-89 0 -89 45q0 17 7 35z" />
<glyph unicode="&#x201d;" horiz-adv-x="831" d="M106 1110l89 313q11 38 31 51t69 13q88 0 88 -45q0 -20 -6 -35l-131 -320q-15 -37 -31 -48t-51 -11q-66 0 -66 43q0 7 8 39zM459 1110l90 313q11 39 30 51.5t68 12.5q88 0 88 -45q0 -20 -6 -35l-131 -320q-15 -37 -31 -48t-51 -11q-65 0 -65 43q0 7 8 39z" />
<glyph unicode="&#x201e;" horiz-adv-x="829" d="M106 -182l91 309q11 39 30 52.5t68 13.5q90 0 90 -48q0 -14 -8 -34l-133 -316q-15 -36 -30.5 -47.5t-49.5 -11.5q-66 0 -66 43q0 18 8 39zM455 -182l90 309q11 39 31 52.5t69 13.5q88 0 88 -48q0 -14 -8 -34l-131 -316q-15 -37 -31 -48t-51 -11q-66 0 -66 43q0 3 9 39z " />
<glyph unicode="&#x2020;" horiz-adv-x="1163" d="M504 55v854h-283q-27 0 -36 14t-9 52q0 37 9 51t36 14h283v318q0 32 17 43.5t61 11.5q43 0 60 -11.5t17 -43.5v-318h283q27 0 36 -14t9 -51q0 -38 -9 -52t-36 -14h-283v-854q0 -32 -17 -43.5t-60 -11.5q-44 0 -61 11.5t-17 43.5z" />
<glyph unicode="&#x2021;" horiz-adv-x="1163" d="M942 371h-283v-316q0 -32 -17 -43.5t-60 -11.5q-44 0 -61 11.5t-17 43.5v316h-283q-27 0 -36 13.5t-9 51.5q0 37 9 51.5t36 14.5h283v407h-283q-27 0 -36 14t-9 52q0 37 9 51t36 14h283v318q0 32 17 43.5t61 11.5q43 0 60 -11.5t17 -43.5v-318h283q27 0 36 -14t9 -51 q0 -38 -9 -52t-36 -14h-283v-407h283q27 0 36 -14.5t9 -51.5q0 -38 -9 -51.5t-36 -13.5z" />
<glyph unicode="&#x2022;" horiz-adv-x="915" d="M457 344q-130 0 -209.5 80t-79.5 211q0 128 79.5 207.5t209.5 79.5t209 -79.5t79 -207.5q0 -131 -79 -211t-209 -80z" />
<glyph unicode="&#x2026;" horiz-adv-x="1904" d="M489 96l-94 -92q-18 -18 -37 -18q-18 0 -36 18l-97 92q-16 16 -16 37q0 19 16 35l97 92q23 19 36 19q18 0 37 -19l94 -92q17 -17 17 -35q0 -20 -17 -37zM1083 96l-94 -92q-18 -18 -37 -18t-37 18l-96 92q-16 16 -16 37q0 19 16 35l96 92q23 19 37 19q18 0 37 -19l94 -92 q17 -17 17 -35q0 -20 -17 -37zM1677 96l-94 -92q-18 -18 -37 -18t-37 18l-96 92q-16 16 -16 37q0 19 16 35l96 92q23 19 37 19q18 0 37 -19l94 -92q17 -17 17 -35q0 -20 -17 -37z" />
<glyph unicode="&#x202f;" horiz-adv-x="467" />
<glyph unicode="&#x2030;" horiz-adv-x="2611" d="M416 20l891 1440q15 24 30 33.5t47 9.5q64 0 64 -37q0 -15 -10 -28l-891 -1440q-15 -24 -30.5 -33.5t-47.5 -9.5q-63 0 -63 37q0 15 10 28zM459 690q-149 0 -232.5 98t-83.5 275t83.5 275t232.5 98q148 0 230.5 -98t82.5 -275t-82.5 -275t-230.5 -98zM459 815 q80 0 122 63.5t42 184.5t-42 185.5t-122 64.5t-123 -64.5t-43 -185.5t43 -184.5t123 -63.5zM1370 -23q-148 0 -230.5 98t-82.5 275t82.5 275t230.5 98q149 0 232.5 -98t83.5 -275t-83.5 -275t-232.5 -98zM2152 -23q-148 0 -231.5 98t-83.5 275t83.5 275t231.5 98 q149 0 232.5 -98t83.5 -275t-83.5 -275t-232.5 -98zM1370 100q80 0 123 64.5t43 185.5t-43 184.5t-123 63.5t-122 -63.5t-42 -184.5t42 -185.5t122 -64.5zM2152 100q80 0 122 64.5t42 185.5t-42 184.5t-122 63.5t-121.5 -63.5t-41.5 -184.5q0 -122 42 -186t121 -64z" />
<glyph unicode="&#x2039;" horiz-adv-x="557" d="M295 156l-170 241q-31 42 -31 80q0 32 31 80l170 244q15 24 32 32.5t52 8.5q72 0 72 -35q0 -11 -13 -33l-178 -297l178 -295q13 -22 13 -32q0 -35 -72 -35q-35 0 -52 8.5t-32 32.5z" />
<glyph unicode="&#x203a;" horiz-adv-x="557" d="M430 397l-168 -241q-15 -24 -33 -32.5t-53 -8.5q-70 0 -70 35q0 14 11 32l178 295l-178 297q-11 18 -11 33q0 35 70 35q35 0 53 -8.5t33 -32.5l168 -244q33 -44 33 -80q0 -33 -33 -80z" />
<glyph unicode="&#x2044;" horiz-adv-x="262" d="M-328 25l807 1437q13 23 28 32t48 9q63 0 63 -37q0 -12 -10 -32l-809 -1438q-13 -24 -26.5 -32.5t-46.5 -8.5q-64 0 -64 37q0 13 10 33z" />
<glyph unicode="&#x205f;" horiz-adv-x="584" />
<glyph unicode="&#x20ac;" horiz-adv-x="1323" d="M942 541h-450q14 -87 43 -156.5t67.5 -114.5t86.5 -75t97 -43t103 -13q97 0 188 31q14 4 33.5 10.5t32.5 10.5t20 4q41 0 41 -70q0 -38 -11.5 -57.5t-43.5 -36.5q-102 -54 -264 -54q-84 0 -161 20t-149 63.5t-128.5 108t-97.5 160t-58 212.5h-152q-29 0 -40 7t-11 30 q0 69 72 69h123q-2 18 -2 60q0 32 4 90h-146q-29 0 -40 7t-11 30q0 69 72 69h137q19 111 61 201t98 151t126 102.5t145 60t156 18.5q134 0 256 -47q34 -14 46.5 -33.5t12.5 -63.5q0 -65 -39 -65q-9 0 -90 22q-86 25 -178 25q-64 0 -123.5 -20t-113.5 -62t-95 -116t-61 -173 h465q29 0 40 -6.5t11 -28.5q0 -71 -72 -71h-459q-4 -58 -4 -90q0 -42 2 -60h482q29 0 40 -6.5t11 -28.5q0 -71 -72 -71z" />
<glyph unicode="&#x2122;" horiz-adv-x="1830" d="M360 688v592h-176q-18 0 -25 9.5t-7 39.5t7 40.5t25 10.5h473q18 0 26.5 -11t8.5 -40t-8 -39t-27 -10h-180v-592q0 -22 -12 -31.5t-45 -9.5t-46.5 9.5t-13.5 31.5zM1511 688v389q0 128 2 189h-2q-39 -95 -77 -199l-144 -375q-11 -28 -25.5 -36.5t-52.5 -8.5t-52 8.5 t-25 36.5l-148 375q-3 9 -34 90t-40 109h-2q4 -126 4 -189v-389q0 -23 -11 -32t-42 -9t-42 9t-11 32v625q0 36 21 51.5t69 15.5q52 0 74.5 -15.5t38.5 -57.5l118 -312q56 -141 87 -245h2q33 123 81 245l123 312q18 43 39 58t72 15q45 0 66.5 -15.5t21.5 -51.5v-625 q0 -23 -12 -32t-43 -9t-43.5 9t-12.5 32z" />
<glyph unicode="&#x2202;" horiz-adv-x="1212" d="M899 866h4q-62 198 -228 340.5t-394 216.5q-23 8 -33 21.5t-10 42.5q0 38 15 55t48 17q114 0 289 -100.5t299 -235.5q111 -119 171 -292t60 -356q0 -274 -140 -436t-388 -162q-230 0 -374 140t-144 370q0 228 139 366t354 138q100 0 188 -34.5t144 -90.5zM596 121 q151 0 240.5 102.5t89.5 274.5q0 160 -88.5 255t-239.5 95q-153 0 -243.5 -96t-90.5 -258q0 -170 90 -271.5t242 -101.5z" />
<glyph unicode="&#x220f;" horiz-adv-x="1540" d="M1169 -334v1733h-798v-1733q0 -32 -19 -43.5t-73 -11.5q-56 0 -75.5 11.5t-19.5 43.5v1819q0 37 17 54t55 17h1028q38 0 55 -17t17 -54v-1819q0 -32 -19 -43.5t-73 -11.5t-74.5 11.5t-20.5 43.5z" />
<glyph unicode="&#x2211;" horiz-adv-x="1345" d="M1208 -389h-1050q-38 0 -55 17.5t-17 54.5v75l635 846l-608 815v66q0 37 16.5 54t54.5 17h996q35 0 47 -17t12 -62t-12 -62.5t-47 -17.5h-443q-132 0 -372 6l-3 -2q138 -181 279 -375l299 -412l-346 -464q-25 -33 -84 -112t-109.5 -146t-89.5 -117l2 -2q240 6 402 6h493 q35 0 47.5 -18t12.5 -66t-12.5 -66t-47.5 -18z" />
<glyph unicode="&#x2212;" horiz-adv-x="1204" d="M1061 446h-918q-33 0 -44 15.5t-11 56.5t11 56.5t44 15.5h918q33 0 44 -15.5t11 -56.5t-11 -56.5t-44 -15.5z" />
<glyph unicode="&#x221a;" horiz-adv-x="1267" d="M688 -229h4q7 43 22.5 114.5t33 150t22.5 101.5l301 1362q6 31 27 44t71 13q43 0 65.5 -13.5t22.5 -35.5q0 -1 -1 -4.5t-1 -5.5l-426 -1808q-10 -41 -38.5 -59.5t-98.5 -18.5q-71 0 -99 18t-42 58l-250 706h-195q-34 0 -45.5 17t-11.5 61q0 46 11.5 63t45.5 17h261 q44 0 60 -12.5t30 -53.5l123 -358q55 -163 108 -356z" />
<glyph unicode="&#x221e;" horiz-adv-x="1615" d="M791 332q-49 -121 -140 -186.5t-207 -65.5q-154 0 -254 108t-100 289q0 182 103 288.5t264 106.5q123 0 218.5 -65.5t151.5 -185.5q51 122 139.5 186.5t204.5 64.5q154 0 254.5 -108t100.5 -289q0 -182 -101.5 -288.5t-261.5 -106.5q-124 0 -221 66t-151 186zM872 469 q42 -105 112 -171.5t165 -66.5q93 0 152 66t59 182q0 114 -59 179t-154 65q-100 0 -169 -71t-106 -183zM741 481q-41 106 -110 173t-164 67q-93 0 -153 -65.5t-60 -180.5q0 -116 60.5 -181t156.5 -65q98 0 165.5 69t104.5 183z" />
<glyph unicode="&#x222b;" horiz-adv-x="684" d="M213 -80v1303q0 172 74.5 252.5t224.5 80.5q74 0 100.5 -15t26.5 -64q0 -43 -11.5 -59.5t-37.5 -16.5q-10 0 -36 2t-32 2q-61 0 -91 -40t-30 -138v-1309q0 -172 -74.5 -253t-224.5 -81q-73 0 -100 16t-27 64q0 41 12 58.5t38 17.5q12 0 33.5 -1t29.5 -1q26 0 47 6 q44 13 61 55.5t17 120.5z" />
<glyph unicode="&#x2248;" horiz-adv-x="1204" d="M1079 657q-38 -41 -103 -65.5t-136 -24.5q-76 0 -146 26.5t-115.5 57.5t-109.5 57.5t-129 26.5q-40 0 -77.5 -15t-59.5 -33t-43 -33t-33 -15q-15 0 -23 14t-8 54q0 31 5.5 48t23.5 36q38 41 103 65.5t134 24.5q76 0 146 -26.5t115.5 -57.5t109.5 -57.5t129 -26.5 q40 0 78 15t61 33t44.5 33t31.5 15q15 0 23 -14t8 -54q0 -31 -5.5 -48t-23.5 -36zM1079 236q-37 -41 -102.5 -66t-136.5 -25q-76 0 -146 26.5t-115.5 57.5t-109.5 57.5t-129 26.5q-104 0 -188 -84q-12 -12 -25 -12q-15 0 -23 14t-8 54q0 33 5 49t24 37q37 40 102.5 64 t134.5 24q76 0 146 -26.5t115.5 -57.5t109.5 -57.5t129 -26.5q105 0 191 86q12 12 24 12q15 0 23 -13.5t8 -53.5q0 -32 -5.5 -48.5t-23.5 -37.5z" />
<glyph unicode="&#x2260;" horiz-adv-x="1204" d="M1061 246h-494l-141 -273q-14 -28 -31 -37.5t-55 -9.5q-72 0 -72 39q0 7 13 37l125 244h-263q-33 0 -44 15t-11 56t11 56.5t44 15.5h336l133 258h-469q-33 0 -44 15.5t-11 56.5t11 56.5t44 15.5h543l143 276q14 28 31 37.5t55 9.5q72 0 72 -39q0 -13 -12 -37l-127 -247 h213q33 0 44 -15.5t11 -56.5t-11 -56.5t-44 -15.5h-287l-133 -258h420q33 0 44 -15.5t11 -56.5t-11 -56t-44 -15z" />
<glyph unicode="&#x2264;" horiz-adv-x="1204" d="M1049 262l-809 240q-97 29 -121.5 55t-24.5 98q0 75 24.5 101t121.5 55l809 248q24 6 26 6q41 0 41 -80q0 -49 -15.5 -69.5t-51.5 -30.5l-431 -117q-68 -19 -202.5 -53.5t-184.5 -48.5v-4q101 -33 387 -111l431 -117q36 -10 51.5 -30.5t15.5 -69.5q0 -78 -41 -78 q-2 0 -26 6zM1067 0h-917q-33 0 -44.5 15.5t-11.5 56.5t11.5 56t44.5 15h917q33 0 44 -15t11 -56t-11 -56.5t-44 -15.5z" />
<glyph unicode="&#x2265;" horiz-adv-x="1204" d="M977 502l-809 -240q-24 -6 -27 -6q-41 0 -41 78q0 50 15.5 70t52.5 30l430 117q284 78 387 111v4q-53 15 -187.5 49.5t-199.5 52.5l-430 117q-36 10 -52 31t-16 69q0 80 41 80q3 0 27 -6l809 -248q97 -29 121 -55t24 -101q0 -72 -25 -98.5t-120 -54.5zM1067 0h-917 q-33 0 -44.5 15.5t-11.5 56.5t11.5 56t44.5 15h917q33 0 44 -15t11 -56t-11 -56.5t-44 -15.5z" />
<glyph unicode="&#x25ca;" horiz-adv-x="1058" d="M948 621l-272 -535q-28 -53 -55 -69.5t-89 -16.5q-64 0 -92.5 16.5t-54.5 69.5l-274 535q-25 48 -25 86t25 86l274 534q28 54 55 70t92 16q61 0 88.5 -17t55.5 -71l272 -532q25 -48 25 -86t-25 -86zM530 111h5q119 260 167 350l121 241l-127 250q-25 47 -84.5 177 t-76.5 174h-5q-57 -128 -170 -351l-122 -245l122 -246q137 -270 170 -350z" />
<glyph unicode="&#x25fc;" horiz-adv-x="952" d="M0 952h952v-952h-952v952z" />
<glyph unicode="&#xf700;" horiz-adv-x="1081" d="M397 240l-2 2q-29 -29 -90 -29q-91 0 -147 53.5t-56 141.5q0 89 58 143.5t155 54.5q100 0 156 -54t68 -151l36 -288q25 -7 58 -7q69 0 108 69.5t39 207.5q0 145 -45.5 212t-159.5 89q-212 40 -442 55q-35 3 -35 37v107q0 143 93.5 215.5t240.5 72.5q72 0 198.5 -22.5 t182.5 -22.5q33 0 73.5 6.5t47.5 6.5q20 0 29.5 -15t9.5 -53q0 -42 -36.5 -60t-111.5 -18q-67 0 -192.5 22.5t-194.5 22.5q-172 0 -172 -147v-35q158 -10 324 -39q111 -20 181.5 -52.5t110 -87t54 -121t14.5 -167.5q0 -412 -323 -412q-76 0 -150 19q-25 6 -37 17t-16 34 q-24 134 -27 193zM311 319q38 0 61 24.5t23 64.5q0 39 -23 63.5t-61 24.5t-60 -24.5t-22 -63.5q0 -40 22 -64.5t60 -24.5z" />
<glyph unicode="&#xf701;" d="M-524 1317h-783q-51 0 -51 51v53q46 145 166.5 230.5t278.5 85.5q154 0 276 -86t164 -230v-53q0 -51 -51 -51zM-1204 1432h577q-31 84 -107.5 134t-178.5 50t-181 -50t-110 -134z" />
<glyph unicode="&#xf702;" d="M-524 1317h-783q-51 0 -51 51v53q35 146 149.5 231t274.5 85q90 0 173 -34t130 -91v106q0 30 19 43t61 13t60 -13t18 -43v-350q0 -51 -51 -51zM-1204 1432h575q-28 83 -110.5 133.5t-190.5 50.5q-104 0 -179 -50.5t-95 -133.5z" />
<glyph unicode="&#xf703;" d="M-532 1317h-775q-51 0 -51 51v53q43 142 163 228t259 86q93 0 162 -37q10 49 50.5 75.5t100.5 26.5q74 0 121 -45t47 -115q0 -91 -67 -127q32 -44 41 -88v-57q0 -51 -51 -51zM-623 1571q31 0 50.5 19.5t19.5 51.5t-19.5 52t-50.5 20q-32 0 -51.5 -20t-19.5 -52 t19.5 -51.5t51.5 -19.5zM-1204 1432h563q-28 83 -104 133.5t-179 50.5q-97 0 -174.5 -50.5t-105.5 -133.5z" />
<glyph unicode="&#xf704;" d="M-524 1317h-783q-51 0 -51 51v53q44 145 154.5 228.5t251.5 83.5q63 0 133 -25v43q0 26 15.5 36.5t49.5 10.5t49 -10.5t15 -36.5v-96q44 -24 88 -82v178q0 26 14 35.5t49 9.5q36 0 51 -9.5t15 -35.5v-383q0 -51 -51 -51zM-1196 1432h567q-40 82 -120 133t-181 51 q-92 0 -165 -50.5t-101 -133.5z" />
<glyph unicode="&#xf705;" d="M-762 1378v281q0 33 19.5 47t64.5 14t64.5 -14t19.5 -47v-281q0 -34 -19.5 -47.5t-64.5 -13.5t-64.5 13.5t-19.5 47.5z" />
<glyph unicode="&#xf706;" d="M-893 1470l-2 5q-77 3 -123.5 45t-46.5 110q0 75 48 120.5t128 45.5q79 0 127.5 -45t48.5 -117q0 -119 -84 -200q118 22 187 105.5t80 199.5q3 28 19.5 38.5t55.5 10.5q82 0 82 -47q0 -66 -20 -128t-63.5 -118t-106.5 -97.5t-154 -66t-201 -24.5q-69 0 -89.5 9t-20.5 40 q0 33 22 41q68 20 113 73zM-889 1565q31 0 50.5 19t19.5 50t-19.5 49.5t-50.5 18.5t-50 -18.5t-19 -49.5t19 -50t50 -19z" />
<glyph unicode="&#xf707;" d="M-696 1315h-33q-41 0 -41 33v213q0 39 -13.5 60t-45.5 30l-66 -62q-11 -8 -31 -8q-19 0 -30 8l-78 62q-27 -5 -46.5 -26t-19.5 -48q67 -1 106.5 -38t39.5 -99q0 -65 -40.5 -103.5t-107.5 -38.5q-74 0 -119 52.5t-45 138.5q0 105 54 182q58 79 145 96h23q18 0 34 -12 l82 -74h4l78 74q18 12 37 12h23q78 -21 113.5 -66.5t35.5 -133.5v-127q125 32 131 284q1 28 19.5 40t56.5 12q76 0 76 -56q-5 -192 -91 -298.5t-251 -106.5zM-1102 1380q26 0 40.5 15.5t14.5 42.5q0 26 -14.5 41.5t-40.5 15.5q-25 0 -40 -15.5t-15 -41.5t15 -42t40 -16z" />
<glyph unicode="&#xf708;" d="M-537 1495l-133 4l2 -129q0 -30 -19 -41.5t-63 -11.5q-41 0 -60 11.5t-19 41.5l2 129l-131 -4q-32 -1 -44 14.5t-12 55.5t12 53.5t44 11.5l131 -4l-2 127q0 30 19.5 42.5t61.5 12.5t61 -12.5t19 -42.5l-2 -127l133 4q31 0 42.5 -13.5t11.5 -53.5q0 -39 -12 -54t-42 -14z " />
<glyph unicode="&#xf709;" d="M-453 1724l-186 -114q44 -17 68 -55.5t24 -88.5q0 -78 -53 -127t-139 -49q-88 0 -141.5 49t-53.5 129q0 115 113 183l303 180q17 10 24 10q25 0 44.5 -29.5t19.5 -58.5q0 -17 -23 -29zM-739 1395q34 0 53.5 19.5t19.5 53.5t-19.5 54t-53.5 20t-55 -20t-21 -54 q0 -33 21 -53t55 -20z" />
<glyph unicode="&#xf70a;" d="M-342 1378v281q0 33 19.5 47t64.5 14t64.5 -14t19.5 -47v-281q0 -34 -19.5 -47.5t-64.5 -13.5t-64.5 13.5t-19.5 47.5z" />
<glyph unicode="&#xf70b;" d="M-575 1470l-3 5q-77 3 -123.5 45t-46.5 110q0 75 48.5 120.5t128.5 45.5q79 0 127.5 -45t48.5 -117q0 -119 -84 -200q118 22 186.5 105.5t79.5 199.5q3 27 20 38t56 11q82 0 82 -47q0 -66 -20 -128t-63.5 -118t-106.5 -97.5t-154 -66t-201 -24.5q-69 0 -90 9t-21 40 q0 32 23 41q68 20 113 73zM-571 1565q31 0 50 19t19 50t-19 49.5t-50 18.5t-50.5 -18.5t-19.5 -49.5t19.5 -50t50.5 -19z" />
<glyph unicode="&#xf70c;" d="M-369 1315h-32q-41 0 -41 33v213q0 39 -14 60t-46 30l-69 -62q-11 -8 -31 -8t-31 8l-86 62q-27 -5 -46 -26t-19 -48q67 -1 106 -38t39 -99q0 -65 -40 -103.5t-107 -38.5q-74 0 -119 52.5t-45 138.5q0 107 53 182q58 79 145 96h23q19 0 35 -12l90 -74h4l82 74q18 12 37 12 h22q78 -21 114 -66.5t36 -133.5v-127q125 32 131 284q1 28 19.5 40t56.5 12q75 0 75 -56q-5 -192 -91 -298.5t-251 -106.5zM-786 1380q26 0 40.5 15.5t14.5 42.5q0 26 -14.5 41.5t-40.5 15.5q-25 0 -40.5 -15.5t-15.5 -41.5t15.5 -42t40.5 -16z" />
<glyph unicode="&#xf70d;" d="M-117 1495l-133 4l2 -129q0 -30 -19 -41.5t-63 -11.5q-42 0 -61 11.5t-19 41.5l2 129l-131 -4q-32 -1 -43.5 14t-11.5 56q0 40 11.5 53.5t43.5 11.5l131 -4l-2 127q0 30 20 42.5t62 12.5t61 -12.5t19 -42.5l-2 -127l133 4q31 0 42.5 -13.5t11.5 -53.5q0 -39 -12 -54 t-42 -14z" />
<glyph unicode="&#xf70e;" d="M-121 1724l-186 -114q44 -17 68 -55.5t24 -88.5q0 -78 -53.5 -127t-139.5 -49q-87 0 -140.5 49t-53.5 129q0 115 113 183l303 180q17 10 24 10q25 0 44.5 -29.5t19.5 -58.5q0 -17 -23 -29zM-408 1395q34 0 54 19.5t20 53.5t-20 54t-54 20t-54.5 -20t-20.5 -54t20.5 -53.5 t54.5 -19.5z" />
<glyph unicode="&#xf70f;" horiz-adv-x="1902" d="M1561 346v733q0 37 19.5 53.5t64.5 16.5q48 0 67 -16t19 -54v-745q0 -168 -110 -262.5t-306 -94.5t-306 94.5t-110 262.5v399q0 142 -86.5 221.5t-228.5 79.5q-89 0 -173.5 -33t-146.5 -86v-6l217 -82q24 -9 30.5 -20t6.5 -47q0 -34 -6.5 -44t-30.5 -16 q-78 -22 -118.5 -70t-40.5 -136v-127l2 -2q33 22 82 22q88 0 141 -54t53 -143q0 -91 -59.5 -146.5t-157.5 -55.5q-104 0 -166.5 60t-62.5 159v272q0 214 192 264v7l-201 71q-23 8 -32 18.5t-9 34.5v56q0 27 8.5 40.5t39.5 41.5q83 74 199.5 116.5t256.5 42.5 q214 0 337.5 -115t123.5 -302v-408q0 -109 65 -170t181 -61t181 61t65 170zM385 100q39 0 62.5 24.5t23.5 65.5q0 40 -24 65.5t-62 25.5q-39 0 -63.5 -25.5t-24.5 -65.5q0 -41 24 -65.5t64 -24.5z" />
<glyph unicode="&#xf710;" d="M-737 1438q10 -2 28 -2q84 0 151 48t97 152q11 37 28 50.5t56 13.5q74 0 74 -66q0 -26 -8 -45q-49 -142 -156.5 -209t-257.5 -67q-165 0 -260.5 63t-95.5 168q0 82 52.5 132t141.5 50t143 -47.5t54 -126.5q0 -76 -47 -114zM-885 1464q35 0 56.5 22.5t21.5 59.5 q0 35 -21.5 57.5t-56.5 22.5q-34 0 -56 -22.5t-22 -57.5q0 -36 22 -59t56 -23z" />
<glyph unicode="&#xf711;" d="M-455 1516q0 -98 -65.5 -159t-171.5 -61t-172 61t-66 159t66 158.5t172 60.5t171.5 -60.5t65.5 -158.5zM-692 1405q47 0 75.5 30t28.5 81t-28 79.5t-76 28.5t-76.5 -29t-28.5 -79q0 -51 29 -81t76 -30z" />
<glyph unicode="&#xf712;" d="M-698 1409l2 4q-23 20 -23 68q2 59 42.5 96t107.5 37q66 0 107.5 -41t41.5 -107q0 -81 -57 -127.5t-156 -46.5q-205 0 -262 152h-4l-39 -113q-9 -26 -31 -26q-100 0 -170.5 67.5t-70.5 181.5q0 121 77 194t211 73h451q24 0 33.5 -14t9.5 -48t-9 -46.5t-34 -12.5h-447 q-71 0 -110 -39t-39 -107q0 -98 76 -133l39 103q7 19 19 24.5t42 5.5q48 0 57 -28q19 -52 49.5 -85.5t69.5 -33.5q11 0 17 2zM-569 1407q26 0 41.5 17t15.5 44q0 29 -15.5 46.5t-41.5 17.5t-42 -17.5t-16 -46.5q0 -27 16 -44t42 -17z" />
<glyph unicode="&#xf713;" d="M-635 1935v252q0 33 19 46.5t61 13.5t61 -13.5t19 -46.5v-252q0 -33 -19 -46t-61 -13t-61 13t-19 46z" />
<glyph unicode="&#xf714;" d="M-809 2001v4q-70 3 -114 41.5t-44 99.5q0 69 45.5 111.5t118.5 42.5t118.5 -42t45.5 -110q0 -47 -26.5 -96.5t-69.5 -81.5q238 48 258 277q3 26 18 35.5t51 9.5q33 0 52.5 -12t19.5 -31q0 -53 -14 -104t-50.5 -102.5t-91 -90t-143.5 -62.5t-201 -24q-65 0 -81.5 7.5 t-16.5 35.5q0 26 21 35q61 20 104 57zM-803 2085q28 0 46 17t18 46t-18 47.5t-46 18.5q-29 0 -47 -18.5t-18 -47.5t18 -46t47 -17z" />
<glyph unicode="&#xf715;" d="M-559 1874h-31q-35 0 -35 29v186q0 67 -55 84l-59 -55q-9 -9 -27 -9t-27 9l-69 55q-23 -4 -39.5 -23.5t-18.5 -42.5q61 -1 95 -33.5t34 -88.5q0 -58 -36 -92.5t-95 -34.5q-70 0 -109.5 46.5t-39.5 123.5q0 92 49 163q52 72 129 86h21q18 0 30 -12l74 -63h2l72 63 q15 12 30 12h21q71 -20 105 -61.5t34 -120.5v-113q113 28 119 256q3 48 70 48q65 0 65 -50q-5 -173 -82.5 -267.5t-226.5 -94.5zM-924 1931q23 0 36.5 14t13.5 37t-13.5 37.5t-36.5 14.5t-36 -14t-13 -38q0 -23 13 -37t36 -14z" />
<glyph unicode="&#xf716;" d="M-365 2036l-127 4l3 -113q0 -28 -17 -39.5t-55 -11.5t-55 11.5t-17 39.5l2 113l-127 -2q-29 0 -39 12t-10 49t10 49.5t39 12.5l127 -4l-2 110q0 28 17 39.5t55 11.5q39 0 55.5 -11t16.5 -40l-3 -110l127 4q30 0 41 -13t11 -51q0 -35 -11.5 -48.5t-40.5 -12.5z" />
<glyph unicode="&#xf717;" d="M-395 2224l-172 -100v-4q40 -15 62 -49.5t22 -79.5q0 -74 -48.5 -119t-127.5 -45q-80 0 -129.5 45.5t-49.5 118.5q0 103 105 168l274 163q15 9 25 9q23 0 40 -26.5t17 -53.5q0 -16 -18 -27zM-659 1923q31 0 49 18.5t18 49.5t-18 49t-49 18t-49.5 -18t-18.5 -49 t18.5 -49.5t49.5 -18.5z" />
<glyph unicode="&#xf718;" d="M-338 -983v65q0 30 4 62l-2 2q-13 -10 -49 -10q-69 0 -111.5 42t-42.5 111q0 72 48.5 116t128.5 44q84 0 135 -45.5t51 -122.5v-264q0 -34 -17.5 -46.5t-64.5 -12.5q-46 0 -63 12.5t-17 46.5zM-365 -778q31 0 49.5 19t18.5 50t-18.5 49.5t-49.5 18.5q-29 0 -47 -18.5 t-18 -49.5t18 -50t47 -19z" />
<glyph unicode="&#xf719;" d="M-330 -874v256q0 33 17 46t59 13q43 0 60.5 -13t17.5 -46v-279q0 -160 -240 -160q-237 0 -237 160q0 25 4 41l-2 2q-17 -10 -49 -10q-69 0 -111.5 42t-42.5 111q0 72 47.5 116t126.5 44q82 0 129 -45.5t47 -124.5v-153q0 -70 88 -70q86 0 86 70zM-684 -778q31 0 49.5 19 t18.5 50t-18.5 49.5t-49.5 18.5q-29 0 -47.5 -18.5t-18.5 -49.5t18.5 -50t47.5 -19z" />
<glyph unicode="&#xf71a;" d="M-270 -840q-63 0 -103.5 40t-40.5 104q0 63 40.5 103t103.5 40q64 0 103.5 -40t39.5 -103q0 -65 -39.5 -104.5t-103.5 -39.5z" />
<glyph unicode="&#xf71b;" horiz-adv-x="1349" d="M1006 -35v768q0 142 -87 221.5t-231 79.5q-96 0 -185.5 -32t-152.5 -84v-7l254 -98q25 -10 32 -20.5t7 -42.5q0 -31 -7 -41t-30 -15q-60 -14 -89.5 -56t-29.5 -124v-309q0 -95 -61 -153t-160 -58q-98 0 -157.5 55t-59.5 144q0 88 53.5 141t141.5 53q49 0 75 -22l3 2 q-7 51 -7 131q0 185 160 235v6l-233 82q-22 8 -31.5 19t-9.5 34v56q0 27 8.5 41t38.5 41q83 73 202.5 116t260.5 43q218 0 343.5 -115.5t125.5 -301.5v-1092q0 -54 -23 -73t-80 -19q-49 0 -68 7t-44 30q-85 78 -205 147q-43 -93 -118 -149t-181 -56t-173 54.5t-67 148.5 q0 103 75.5 161t190.5 58q97 0 193 -49q8 21 8 58q0 9 -1 26t-1 25q0 32 17 46.5t59 14.5q44 0 63 -19.5t19 -62.5q0 -67 -33 -143q113 -57 203 -143q-8 106 -8 241zM262 102q38 0 61 25.5t23 65.5t-23 65t-61 25t-62 -25t-24 -65t24 -65.5t62 -25.5zM645 -195 q-78 43 -153 43q-61 0 -93 -23.5t-32 -66.5q0 -42 28.5 -64t75.5 -22q117 0 174 133z" />
<glyph unicode="&#xf71c;" horiz-adv-x="1349" d="M967 -389l-103 123l-73 -125q-13 -25 -25.5 -32t-40.5 -7q-30 0 -41 6t-22 27q-36 73 -76 116q-64 -170 -246 -170q-100 0 -161.5 53.5t-61.5 143.5q0 95 67.5 152t167.5 57q95 0 172 -53q8 19 8 55q0 8 -1 24t-1 23q0 64 76 64q82 0 82 -82q0 -32 -15 -80.5t-34 -81.5 q57 -57 88 -127l80 141q9 18 19 23.5t34 5.5q21 0 30.5 -5.5t29.5 -25.5l94 -110q-8 136 -8 194v813q0 142 -87 221.5t-231 79.5q-96 0 -185.5 -32t-152.5 -84v-7l254 -98q25 -10 32 -20.5t7 -42.5q0 -31 -7 -41t-30 -15q-60 -14 -89.5 -56t-29.5 -124v-309q0 -95 -61 -153 t-160 -58q-98 0 -157.5 55t-59.5 144q0 88 53.5 141t141.5 53q49 0 75 -22l3 2q-7 51 -7 131q0 185 160 235v6l-233 82q-22 8 -31.5 19t-9.5 34v56q0 27 8.5 41t38.5 41q83 73 202.5 116t260.5 43q218 0 343.5 -115.5t125.5 -301.5v-1092q0 -54 -22.5 -73t-78.5 -19 q-49 0 -69 7.5t-43 33.5zM262 102q38 0 61 25.5t23 65.5t-23 65t-61 25t-62 -25t-24 -65t24 -65.5t62 -25.5zM489 -207q-57 43 -127 43q-47 0 -75.5 -24t-28.5 -62q0 -36 24.5 -59t63.5 -23q55 0 91 33.5t52 91.5z" />
<glyph unicode="&#xf71d;" horiz-adv-x="1619" d="M1169 143h5q-5 165 -5 267v340q-119 11 -188.5 69t-69.5 152q0 86 52 136t139 50q89 0 141.5 -47t52.5 -127q0 -67 -49 -106q15 -5 25 -5q100 0 139 203q8 37 23 50.5t53 13.5t55 -15t17 -51q0 -17 -9 -57q-49 -198 -213 -252v-645q0 -71 -29.5 -95t-107.5 -24 q-66 0 -93.5 16t-49.5 64l-139 305q-52 117 -91 225h-4q-51 -139 -100 -252l-125 -282q-20 -45 -46 -60.5t-95 -15.5q-73 0 -104 21t-31 77v512q0 90 4 156l-2 2q-27 -23 -84 -23q-91 0 -148 56t-57 147q0 94 62 151.5t165 57.5q102 0 163.5 -58.5t61.5 -154.5v-534 q0 -168 -6 -267h4q17 37 35.5 79t41 93.5t34.5 79.5l133 301q19 43 36 55.5t60 12.5t61.5 -13t37.5 -55l135 -297q19 -43 57.5 -133.5t52.5 -122.5zM1104 891q34 0 55 22.5t21 57.5q0 37 -21 59.5t-55 22.5q-32 0 -53 -22.5t-21 -59.5q0 -35 21 -57.5t53 -22.5zM256 856 q40 0 64 25.5t24 66.5q0 42 -24.5 68t-63.5 26t-62.5 -26t-23.5 -68t23.5 -67t62.5 -25z" />
<glyph unicode="&#xf8ff;" horiz-adv-x="1658" d="M1296 37q-149 -55 -467 -55t-467 55q-148 55 -204 205q-56 151 -56 467t56 467q55 149 204 204q151 56 467 56t467 -56q150 -56 205 -204q55 -149 55 -467t-55 -467q-55 -150 -205 -205zM1266 293v457q0 173 -125.5 287t-311.5 114t-311 -113.5t-125 -287.5v-457h174 l195 209q32 -13 67 -13q78 0 131.5 53t53.5 132t-53.5 131.5t-131.5 52.5q-79 0 -132.5 -52.5t-53.5 -131.5q0 -52 27 -99l-133 -145v320q0 121 83.5 196.5t208.5 75.5t209 -75.5t84 -196.5v-457h144zM829 596q-31 0 -54 23t-23 55q0 31 23 53.5t54 22.5t53.5 -22t22.5 -54 t-22.5 -55t-53.5 -23z" />
<glyph horiz-adv-x="1163" d="M848 154h-4q-38 -85 -120.5 -131t-199.5 -46q-195 0 -312.5 136t-117.5 364q0 229 118 364.5t308 135.5q113 0 196.5 -44.5t123.5 -123.5h4v86q0 32 18.5 45.5t67.5 13.5q46 0 64 -13.5t18 -45.5v-836q0 -32 -18 -45.5t-64 -13.5q-49 0 -67.5 13.5t-18.5 45.5q0 41 4 95z M555 121q132 0 208.5 91.5t76.5 264.5t-76.5 265t-208.5 92q-126 0 -201 -92t-75 -263q0 -173 75 -265.5t201 -92.5z" />
<glyph horiz-adv-x="1255" d="M911 -362v1095q0 142 -88 221.5t-233 79.5q-90 0 -177 -33.5t-149 -85.5v-6l217 -82q24 -9 30.5 -20t6.5 -47q0 -34 -6.5 -44t-30.5 -16q-77 -21 -116 -69t-39 -137v-127l2 -2q26 22 80 22q86 0 139 -54t53 -143q0 -91 -59.5 -146.5t-157.5 -55.5q-104 0 -166.5 60 t-62.5 159v272q0 214 192 264v7l-201 71q-23 8 -32 18.5t-9 34.5v56q0 27 8.5 40.5t39.5 41.5q83 73 202.5 116t259.5 43q218 0 343.5 -115.5t125.5 -301.5v-1116q0 -36 -19 -52t-67 -16t-67 16t-19 52zM385 100q39 0 62.5 24.5t23.5 65.5q0 40 -24 65.5t-62 25.5 q-39 0 -63.5 -25.5t-24.5 -65.5q0 -41 24 -65.5t64 -24.5z" />
<glyph horiz-adv-x="1349" d="M1006 -362v1095q0 142 -87 221.5t-231 79.5q-96 0 -185.5 -32t-152.5 -84v-7l254 -98q25 -10 32 -20.5t7 -42.5q0 -31 -7 -41t-30 -15q-60 -14 -89.5 -56t-29.5 -124v-315q0 -95 -61 -153t-160 -58q-98 0 -157.5 54.5t-59.5 143.5q0 88 53.5 141.5t141.5 53.5 q50 0 75 -21l3 2q-7 47 -7 136q0 185 160 235v6l-233 82q-22 8 -31.5 19t-9.5 34v56q0 27 8.5 41t38.5 41q83 73 202.5 116t260.5 43q218 0 343.5 -115.5t125.5 -301.5v-1116q0 -36 -19.5 -52t-68.5 -16q-48 0 -67 16t-19 52zM262 96q38 0 61 25t23 65t-23 65t-61 25 t-62 -25t-24 -65t24 -65t62 -25z" />
<glyph horiz-adv-x="940" d="M-455 1516q0 -98 -65.5 -159t-171.5 -61t-172 61t-66 159t66 158.5t172 60.5t171.5 -60.5t65.5 -158.5zM-692 1405q47 0 75.5 30t28.5 81t-28 79.5t-76 28.5t-76.5 -29t-28.5 -79q0 -51 29 -81t76 -30zM594 68v714q0 119 -59 185.5t-173 66.5q-109 0 -245 -57 q-37 -16 -51 -16q-37 0 -37 65q0 32 10 49t35 29q128 67 315 67q175 0 277 -99t102 -277v-727q0 -36 -19.5 -52t-68.5 -16q-48 0 -67 16t-19 52z" />
<glyph d="M-520 1593l-8 -26q-9 -23 -33 -23q-13 0 -50 7.5t-63 7.5q-90 0 -90 -72q0 -74 98 -74q22 0 47 4t35 4q23 0 23 -47q0 -43 -24.5 -58.5t-100.5 -15.5q-95 0 -161 47.5t-66 139.5q0 78 53 127t139 49q25 0 49 -6l2 4q-41 33 -41 88q0 50 38 81.5t100 31.5h157q27 0 37 -14 t10 -50q0 -37 -9.5 -50t-37.5 -13h-110q-54 0 -54 -47q0 -38 45 -56q19 -10 19 -20q0 -7 -4 -19z" />
</font>
</defs>
</svg>
