<?xml version="1.0" standalone="no"?>
<!DOCTYPE svg PUBLIC "-//W3C//DTD SVG 1.1//EN" "http://www.w3.org/Graphics/SVG/1.1/DTD/svg11.dtd" >
<svg xmlns="http://www.w3.org/2000/svg">
<metadata></metadata>
<defs>
<font id="tatsana_chonbold" horiz-adv-x="0" >
<font-face units-per-em="2048" ascent="1638" descent="-410" />
<missing-glyph horiz-adv-x="655" />
<glyph unicode="&#xe2f;&#xe2f;" horiz-adv-x="1773" d="M1135 0h-279v557h-8q-149 -111 -340 -111q-196 0 -319 96t-123 269q0 114 57.5 199t145.5 125.5t190 40.5q122 0 233 -54v-233q-112 53 -203 53q-73 0 -117 -37t-44 -94q0 -59 50 -95t150 -36q163 0 328 111v360h279v-1151zM1610 0h-279v1151h279v-1151z" />
<glyph unicode="&#xe4f;&#x22;" horiz-adv-x="1474" d="M1376 575q0 -126 -45 -235.5t-126.5 -190.5t-202.5 -127.5t-265 -46.5t-265 46.5t-202.5 127.5t-126.5 190.5t-45 235.5t45 236t126.5 191t202.5 127.5t265 46.5t265 -46.5t202.5 -127.5t126.5 -191t45 -236zM1192 575q0 118 -52 216.5t-157 159.5t-246 61 q-106 0 -193 -35.5t-143.5 -96t-87 -139t-30.5 -166.5t30.5 -166.5t87 -138.5t143.5 -95.5t193 -35.5q141 0 246 61t157 159t52 216zM1008 575q0 -108 -71 -188t-200 -80t-199.5 80t-70.5 188t70.5 188.5t199.5 80.5t200 -80.5t71 -188.5zM653 1266h-200l-29 475h258z M1055 1266h-201l-29 475h258z" />
<glyph unicode="&#xe24;&#xe32;" horiz-adv-x="2260" d="M2118 -492h-279v1141q0 281 -305 281q-148 0 -254 -56q43 -104 43 -239v-1127h-279v1086q0 176 -73 262t-260 86q-271 0 -338 -176h303v-164q-105 -14 -175.5 -105.5t-70.5 -191.5q0 -62 33 -89.5t100 -27.5q84 0 195 48v-213q-34 -15 -58.5 -23.5t-71.5 -16.5t-102 -8 q-175 0 -274.5 73t-99.5 218q0 109 54.5 194.5t141.5 141.5h-250v123q61 229 210.5 340t406.5 111q261 0 415 -111q73 46 200.5 78.5t244.5 32.5q543 0 543 -486v-1182z" />
<glyph unicode="&#xe26;&#xe32;" horiz-adv-x="2260" d="M2118 -492h-279v1141q0 281 -305 281q-148 0 -254 -56q43 -104 43 -239v-1127h-279v1086q0 175 -70 261.5t-245 86.5q-252 0 -319 -176h303v-164q-66 -9 -104 -48t-49 -85t-11 -109v-131q0 -125 -77 -189.5t-206 -64.5q-92 0 -160 37v213q55 -37 103 -37q29 0 45 13 t16 49v86q0 183 117 266h-252v123q60 228 206.5 339.5t391.5 111.5q249 0 400 -111q72 47 198.5 79t243.5 32q543 0 543 -486v-1182z" />
<glyph unicode="fi" horiz-adv-x="1406" d="M1233 0h-270v782h-451v-782h-270v782h-226l62 242h164v78q0 108 31.5 189.5t86.5 129.5t123.5 71.5t149.5 23.5q109 0 190 -58v-237q-78 45 -161 45q-78 0 -114 -44t-36 -141v-57h721v-1024zM1102 1122h-8l-183 183v8l183 182h8l182 -182v-8z" />
<glyph unicode="fl" horiz-adv-x="1404" d="M1233 0h-270v1178q-57 51 -107 73.5t-113 22.5q-114 0 -172.5 -64.5t-58.5 -169.5v-16h348l-61 -242h-287v-782h-270v782h-226l62 242h164v37q0 223 112.5 339t319.5 116q213 0 323 -119h9l227 94v-1491z" />
<glyph />
<glyph />
<glyph unicode="&#xd;" horiz-adv-x="655" />
<glyph unicode=" "  horiz-adv-x="655" />
<glyph unicode="&#x09;" horiz-adv-x="655" />
<glyph unicode="&#xa0;" horiz-adv-x="655" />
<glyph unicode="!" horiz-adv-x="745" d="M479 442h-213l-37 971h287zM492 0h-238v246h238v-246z" />
<glyph unicode="&#x22;" horiz-adv-x="929" d="M365 938h-201l-29 475h258zM766 938h-201l-28 475h258z" />
<glyph unicode="#" horiz-adv-x="1660" d="M1087 0h-278l82 352h-287l-82 -352h-278l82 352h-252l61 238h246l55 237h-252l62 238h246l79 348h279l-80 -348h287l80 348h278l-80 -348h252l-61 -238h-246l-55 -237h252l-62 -238h-246zM946 590l55 237h-286l-56 -237h287z" />
<glyph unicode="$" horiz-adv-x="1331" d="M791 -205h-205v187q-144 14 -270.5 59.5t-200.5 99.5v258q224 -145 471 -170v367l-64 18q-72 21 -125.5 42.5t-105.5 55.5t-84.5 75.5t-52 101.5t-19.5 135q0 193 118.5 298.5t332.5 117.5v178h205v-186q187 -22 348 -111v-258q-191 96 -348 119v-355q232 -65 331 -167.5 t99 -264.5q0 -189 -115 -292t-315 -123v-185zM586 887v301q-172 -17 -172 -137q0 -56 40.5 -93.5t131.5 -70.5zM791 532v-299q151 26 151 144q0 56 -35 90.5t-116 64.5z" />
<glyph unicode="%" horiz-adv-x="1665" d="M399 745q-142 0 -217.5 99.5t-75.5 249.5t75.5 249t217.5 99t217.5 -99t75.5 -249t-75.5 -249.5t-217.5 -99.5zM469 0h-299l1024 1413h299zM399 930q43 0 65.5 47t22.5 117t-22.5 116.5t-65.5 46.5t-65.5 -46.5t-22.5 -116.5t22.5 -117t65.5 -47zM1266 -25 q-142 0 -217.5 99.5t-75.5 249.5t75.5 249t217.5 99t217.5 -99t75.5 -249t-75.5 -249.5t-217.5 -99.5zM1266 160q43 0 65.5 47t22.5 117t-22.5 116.5t-65.5 46.5t-65.5 -46.5t-22.5 -116.5t22.5 -117t65.5 -47z" />
<glyph unicode="&#x26;" horiz-adv-x="1388" d="M1323 0h-307l-55 57q-178 -82 -375 -82q-122 0 -218 31.5t-155 86t-89 125t-30 151.5q0 225 230 374q-78 96 -113 172t-35 160q0 74 27.5 139.5t79.5 117t135.5 81t187.5 29.5q207 0 318.5 -107t111.5 -272q0 -129 -77.5 -209t-260.5 -160l271 -301q71 88 71 185 q0 65 -49 139h279q49 -74 49 -168q0 -202 -166 -361zM551 864q111 42 159 89t48 110q0 61 -40 97t-112 36t-111.5 -36t-39.5 -93q0 -80 96 -203zM776 254l-280 297q-123 -67 -123 -166q0 -76 62 -120t186 -44q78 0 155 33z" />
<glyph unicode="'" horiz-adv-x="528" d="M365 938h-201l-29 475h258z" />
<glyph unicode="(" horiz-adv-x="831" d="M745 -205h-237q-180 213 -258 422t-78 449q0 234 71 443t224 427h238q-246 -389 -246 -870q0 -240 64 -453t222 -418z" />
<glyph unicode=")" horiz-adv-x="831" d="M324 -205h-238q159 205 223 418.5t64 452.5q0 481 -246 870h238q153 -217 223.5 -426.5t70.5 -443.5q0 -241 -77.5 -450t-257.5 -421z" />
<glyph unicode="*" horiz-adv-x="884" d="M690 797l-180 155l41 -235h-217l41 235l-180 -155l-109 188l242 80l-242 80l109 188l180 -155l-41 235h217l-41 -235l180 155l109 -188l-242 -80l242 -80z" />
<glyph unicode="+" horiz-adv-x="1294" d="M778 123h-262v405h-401v213h401v406h262v-406h402v-213h-402v-405z" />
<glyph unicode="," horiz-adv-x="520" d="M307 -217h-201l54 475h258z" />
<glyph unicode="-" horiz-adv-x="811" d="M754 422h-697v237h697v-237z" />
<glyph unicode="." horiz-adv-x="622" d="M451 0h-279v287h279v-287z" />
<glyph unicode="/" horiz-adv-x="1183" d="M332 0h-299l819 1413h299z" />
<glyph unicode="0" horiz-adv-x="1376" d="M688 -25q-142 0 -253 54t-180 148.5t-104.5 216t-35.5 263.5t35.5 263.5t104.5 216t180 148.5t253 54q114 0 209 -35.5t161.5 -98t113 -148.5t68.5 -186.5t22 -213.5t-22 -213.5t-68.5 -186.5t-113 -148.5t-161.5 -98t-209 -35.5zM688 229q76 0 132.5 33t89.5 93t49 135 t16 167t-16 167t-49 135t-89.5 93t-132.5 33t-132.5 -33t-89.5 -93t-49 -135t-16 -167t16 -167t49 -135t89.5 -93t132.5 -33z" />
<glyph unicode="1" horiz-adv-x="753" d="M582 0h-287v1053h-246l62 258h471v-1311z" />
<glyph unicode="2" horiz-adv-x="1204" d="M1094 0h-983v238l452 387q133 114 178 178t45 125q0 80 -54.5 116.5t-162.5 36.5q-96 0 -188.5 -30t-228.5 -99v267q112 63 212.5 91.5t225.5 28.5q239 0 361 -98t122 -283q0 -46 -9 -89t-21.5 -78t-41.5 -76.5t-52 -70.5t-71.5 -76.5t-81 -77.5t-98.5 -89l-159 -143h555 v-258z" />
<glyph unicode="3" horiz-adv-x="1161" d="M557 561h-303l61 221h213q107 0 159 40t52 112q0 151 -219 151q-173 0 -397 -112v258q100 55 199 81.5t223 26.5q239 0 360 -95.5t121 -270.5q0 -178 -125 -291q166 -93 166 -305q0 -189 -130.5 -295.5t-369.5 -106.5q-282 0 -485 146v262q239 -154 453 -154 q127 0 186 49.5t59 129.5q0 153 -223 153z" />
<glyph unicode="4" horiz-adv-x="1193" d="M961 0h-287v287h-613v237l584 787h316v-787h163v-237h-163v-287zM674 524v467l-342 -467h342z" />
<glyph unicode="5" horiz-adv-x="1163" d="M111 123v254q92 -71 209.5 -109.5t216.5 -38.5q121 0 182 56t61 145q0 94 -63 147.5t-156 53.5q-116 0 -174 -80l-264 41l86 719h838l-103 -258h-495l-31 -250h8q65 65 211 65q88 0 165 -28.5t136.5 -83t94 -141t34.5 -195.5q0 -212 -127 -328.5t-362 -116.5 q-265 0 -467 148z" />
<glyph unicode="6" horiz-adv-x="1249" d="M1065 1227v-266q-172 120 -363 120q-138 0 -215 -68t-77 -202h8q104 90 272 90q209 0 333 -119t124 -329q0 -222 -137.5 -350t-362.5 -128q-254 0 -393 168.5t-139 485.5q0 175 43 311.5t120.5 223t180.5 131t227 44.5q202 0 379 -112zM866 444q0 91 -60.5 151t-164.5 60 t-164.5 -60t-60.5 -151t60.5 -153t164.5 -62t164.5 62t60.5 153z" />
<glyph unicode="7" horiz-adv-x="1089" d="M516 0h-323l524 1053h-668l62 258h917v-238z" />
<glyph unicode="8" horiz-adv-x="1245" d="M983 686q168 -105 168 -309q0 -189 -145.5 -295.5t-382.5 -106.5t-383 106.5t-146 295.5q0 204 168 309q-106 106 -106 264q0 184 130.5 286.5t336.5 102.5t336.5 -102.5t130.5 -286.5q0 -157 -107 -264zM803 932q0 70 -53 111.5t-127 41.5q-75 0 -128 -41.5t-53 -111.5 t53.5 -112t127.5 -42t127 41.5t53 112.5zM778 575q-74 -18 -155 -18q-85 0 -158 21q-39 -25 -61.5 -67.5t-22.5 -92.5q0 -89 69.5 -139t172.5 -50t172 50t69 137q0 48 -23 91.5t-63 67.5z" />
<glyph unicode="9" horiz-adv-x="1249" d="M840 504h-9q-104 -90 -268 -90q-202 0 -331.5 120t-129.5 334q0 218 134 344.5t354 126.5q248 0 396.5 -168.5t148.5 -492.5q0 -170 -43.5 -305t-120.5 -221.5t-181 -131.5t-227 -45q-196 0 -358 107v258q162 -107 340 -107q140 0 217.5 68.5t77.5 202.5zM825 870 q0 91 -60.5 153t-164.5 62t-164.5 -62t-60.5 -153t60.5 -151t164.5 -60t164.5 60t60.5 151z" />
<glyph unicode=":" horiz-adv-x="622" d="M451 737h-279v287h279v-287zM451 0h-279v287h279v-287z" />
<glyph unicode=";" horiz-adv-x="622" d="M328 -217h-201l53 475h258zM451 737h-279v287h279v-287z" />
<glyph unicode="&#x3c;" horiz-adv-x="1368" d="M1196 123l-1065 399v226l1065 399v-242l-821 -270l821 -270v-242z" />
<glyph unicode="=" horiz-adv-x="1351" d="M1208 750h-1065v221h1065v-221zM1208 299h-1065v221h1065v-221z" />
<glyph unicode="&#x3e;" horiz-adv-x="1368" d="M1237 522l-1065 -399v242l821 270l-821 270v242l1065 -399v-226z" />
<glyph unicode="?" horiz-adv-x="1138" d="M664 442h-287v62q0 105 41 180t135 154q107 89 145.5 135t38.5 100q0 60 -43.5 85.5t-134.5 25.5q-197 0 -436 -129v266q209 121 465 121q211 0 323.5 -84.5t112.5 -245.5q0 -56 -15.5 -108.5t-34.5 -88.5t-54 -77t-55.5 -60.5t-57.5 -52.5q-58 -51 -83 -78t-42.5 -68 t-17.5 -96v-41zM659 0h-278v287h278v-287z" />
<glyph unicode="@" horiz-adv-x="2093" d="M1294 -47v-246q-118 -59 -297 -59q-272 0 -473 112.5t-307 316t-106 474.5q0 154 35.5 287t111.5 245t188.5 191t274.5 123.5t362 44.5q899 0 899 -897q0 -131 -19.5 -232t-62.5 -178.5t-116.5 -118.5t-175.5 -41q-129 0 -205.5 68.5t-106.5 183.5h-8 q-123 -112 -268 -112q-203 0 -314.5 119.5t-111.5 310.5q0 190 111.5 310t310.5 120q149 0 237 -96h9v73h217v-598q0 -74 24 -120t74 -46q139 0 139 349q0 80 -6.5 147t-24.5 137.5t-47.5 126t-78 105.5t-113 83t-156 52.5t-203.5 19.5q-180 0 -317 -48t-223 -136 t-129 -207.5t-43 -267.5q0 -311 175 -489.5t472 -178.5q82 0 144 16.5t128 55.5zM1042 319q99 0 158.5 61t59.5 165t-59.5 164.5t-158.5 60.5t-158 -60.5t-59 -164.5t59 -165t158 -61z" />
<glyph unicode="A" horiz-adv-x="1523" d="M1499 0h-295l-145 336h-602l-146 -336h-286l583 1348l-41 94h307zM952 578l-82 213q-61 158 -108 290h-8q-34 -95 -109 -290l-82 -213h389z" />
<glyph unicode="B" horiz-adv-x="1429" d="M887 0h-707v1413h658q191 0 299 -113.5t108 -291.5q0 -158 -94 -265q86 -51 131 -141t45 -199q0 -177 -115 -290t-325 -113zM459 827h338q76 0 123 48t47 122t-47 122t-123 48h-338v-340zM459 246h387q92 0 147.5 57t55.5 150q0 119 -91 176q-51 -15 -133 -15h-366v-368z " />
<glyph unicode="C" horiz-adv-x="1441" d="M1339 397v-258q-203 -164 -495 -164q-333 0 -533 202t-200 532t200 531.5t533 201.5q292 0 495 -164v-258q-82 74 -201 123t-264 49q-230 0 -357.5 -131.5t-127.5 -351.5q0 -104 30.5 -191.5t89.5 -153t152.5 -102.5t212.5 -37q140 0 258.5 47t206.5 125z" />
<glyph unicode="D" horiz-adv-x="1622" d="M827 0h-647v1413h647q154 0 283.5 -55.5t216.5 -151.5t135.5 -224.5t48.5 -274.5t-48.5 -275t-135.5 -224.5t-216.5 -151.5t-283.5 -56zM459 246h327q210 0 328.5 130t118.5 331t-118.5 330.5t-328.5 129.5h-327v-921z" />
<glyph unicode="E" horiz-adv-x="1404" d="M1266 0h-1086v1413h1065v-250h-786v-329h766l-82 -246h-684v-338h807v-250z" />
<glyph unicode="F" horiz-adv-x="1323" d="M1102 524h-643v-524h-279v1413h1045v-250h-766v-389h725z" />
<glyph unicode="G" horiz-adv-x="1576" d="M1421 0h-20l-209 102h-12q-143 -127 -359 -127q-208 0 -370 95t-251 263.5t-89 381.5q0 156 50 288.5t144 230t237.5 153t321.5 55.5q264 0 496 -127v-250q-239 131 -457 131q-126 0 -225.5 -37.5t-162 -103t-94.5 -152.5t-32 -190q0 -216 130 -354t345 -138 q178 0 287 109v237h-352l82 242h540v-809z" />
<glyph unicode="H" horiz-adv-x="1589" d="M1409 0h-279v582h-671v-582h-279v1413h279v-582h671v582h279v-1413z" />
<glyph unicode="I" horiz-adv-x="655" d="M467 0h-279v1413h279v-1413z" />
<glyph unicode="J" horiz-adv-x="1191" d="M750 506v657h-336l82 250h532v-928q0 -247 -143 -378.5t-412 -131.5q-211 0 -432 103v250q223 -103 405 -103q153 0 228.5 65.5t75.5 215.5z" />
<glyph unicode="K" horiz-adv-x="1411" d="M1386 0h-335l-516 625l-76 -78v-547h-279v1413h279v-528l510 528h336l-682 -698h159z" />
<glyph unicode="L" horiz-adv-x="1228" d="M1102 0h-922v1413h279v-1163h725z" />
<glyph unicode="M" horiz-adv-x="2064" d="M2023 0h-299l-112 406q-78 280 -133 555h-9q-69 -292 -155 -555l-133 -406h-316l-139 406q-97 281 -174 555h-8q-54 -285 -121 -555l-100 -406h-283l356 1352l-37 90h312l137 -418q103 -316 215 -717h8q97 356 209 717l102 328l-32 90h311z" />
<glyph unicode="N" horiz-adv-x="1650" d="M1470 0h-323l-318 451q-286 405 -378 577h-9q10 -112 13.5 -209.5t3.5 -367.5v-451h-279v1360l-61 82h344l338 -479q284 -403 399 -619h8q-10 107 -13 211.5t-3 407.5v450h278v-1413z" />
<glyph unicode="O" horiz-adv-x="1695" d="M1585 709q0 -157 -52 -292.5t-146.5 -233t-233.5 -153t-305 -55.5t-305 55.5t-233.5 153t-146.5 233t-52 292.5t52 292t146.5 232.5t233.5 153t305 55.5t305 -55.5t233.5 -153t146.5 -232.5t52 -292zM848 221q220 0 339.5 132.5t119.5 355.5t-119.5 355t-339.5 132 t-339.5 -132t-119.5 -355t119.5 -355.5t339.5 -132.5z" />
<glyph unicode="P" horiz-adv-x="1386" d="M459 0h-279v1413h666q221 0 350 -133t129 -336t-129 -336t-350 -133h-387v-475zM459 721h358q105 0 167.5 62t62.5 161t-62.5 161t-167.5 62h-358v-446z" />
<glyph unicode="Q" horiz-adv-x="1695" d="M1368 -74v-233q-99 -41 -223 -41q-182 0 -298.5 88t-139.5 246q-274 44 -435 241.5t-161 481.5q0 157 52 292t146.5 232.5t233.5 153t305 55.5t305 -55.5t233.5 -153t146.5 -232.5t52 -292q0 -188 -71.5 -341.5t-207.5 -253.5t-319 -128q30 -101 187 -101q95 0 194 41z M848 221q220 0 339.5 132.5t119.5 355.5t-119.5 355t-339.5 132t-339.5 -132t-119.5 -355t119.5 -355.5t339.5 -132.5z" />
<glyph unicode="R" horiz-adv-x="1427" d="M1366 0h-311l-328 537h-268v-537h-279v1413h658q201 0 323.5 -122t122.5 -316q0 -151 -76 -259.5t-204 -152.5zM459 770h350q86 0 141.5 55.5t55.5 143.5t-55.5 143t-141.5 55h-350v-397z" />
<glyph unicode="S" horiz-adv-x="1331" d="M651 578l-129 36q-72 21 -125.5 42.5t-105.5 55.5t-84.5 75.5t-52 101.5t-19.5 135q0 206 135.5 312t376.5 106q275 0 492 -121v-258q-252 129 -477 129q-248 0 -248 -141q0 -66 56.5 -107.5t188.5 -79.5l132 -37q232 -65 331 -167.5t99 -264.5q0 -107 -39 -188.5 t-110 -131.5t-165.5 -75t-210.5 -25q-175 0 -333 50t-248 116v258q274 -174 567 -174q134 0 197 38t63 114q0 73 -63 113.5t-228 87.5z" />
<glyph unicode="T" horiz-adv-x="1359" d="M819 0h-278v1163h-496v250h1270v-250h-496v-1163z" />
<glyph unicode="U" horiz-adv-x="1556" d="M1114 537v876h279v-835q0 -124 -38.5 -231.5t-113 -191t-193.5 -132t-270 -48.5t-270 48.5t-193 132t-112.5 191t-38.5 231.5v835h278v-876q0 -138 93 -225t243 -87t243 87t93 225z" />
<glyph unicode="V" horiz-adv-x="1515" d="M915 0h-315l-559 1413h303l203 -530q137 -363 211 -594h8q74 231 211 594l203 530h295z" />
<glyph unicode="W" horiz-adv-x="2146" d="M1667 0h-315l-154 508q-65 216 -119 457h-8q-61 -270 -119 -457l-157 -508h-316l-430 1413h295l137 -483q86 -309 160 -590h8q74 281 160 590l119 418l-33 94h309l148 -512q73 -251 159 -590h9q70 287 155 590l133 483h289z" />
<glyph unicode="X" horiz-adv-x="1437" d="M1413 0h-332l-149 207q-120 169 -211 311h-8q-76 -117 -215 -311l-150 -207h-323l532 719l-512 694h332l131 -184q116 -166 209 -305h8q102 149 213 305l131 184h324l-512 -694z" />
<glyph unicode="Y" horiz-adv-x="1449" d="M864 0h-278v494l-549 919h319l193 -358q32 -61 88 -164t88 -164h8q32 61 88 164t88 164l193 358h311l-549 -919v-494z" />
<glyph unicode="Z" horiz-adv-x="1449" d="M1327 0h-1208v193l794 978h-753v242h1147v-192l-795 -979h815v-242z" />
<glyph unicode="[" horiz-adv-x="831" d="M745 -205h-573v1741h573v-242h-286v-1257h286v-242z" />
<glyph unicode="\" horiz-adv-x="1183" d="M1151 0h-299l-819 1413h299z" />
<glyph unicode="]" horiz-adv-x="831" d="M659 -205h-573v242h287v1257h-287v242h573v-1741z" />
<glyph unicode="^" horiz-adv-x="1069" d="M1012 729h-258l-219 508l-220 -508h-258l349 713h258z" />
<glyph unicode="_" horiz-adv-x="974" d="M999 -287h-1024v205h1024v-205z" />
<glyph unicode="`" horiz-adv-x="430" d="M389 1147h-205l-143 348h246z" />
<glyph unicode="a" horiz-adv-x="1363" d="M1200 -4h-29l-200 106h-8q-78 -70 -158.5 -98.5t-177.5 -28.5q-168 0 -290.5 71.5t-182.5 192t-60 275.5t60 276t180.5 192t286.5 71q110 0 181 -31t120 -90h8v92h270v-1028zM647 209q126 0 204.5 85t78.5 220q0 134 -78.5 217.5t-204.5 83.5t-204 -83.5t-78 -217.5 q0 -135 78 -220t204 -85z" />
<glyph unicode="b" horiz-adv-x="1363" d="M401 102h-8l-200 -106h-29v1417l270 82v-565h8q55 59 128.5 91t183.5 32q239 0 377.5 -151.5t138.5 -387.5q0 -156 -61 -277t-183 -191.5t-289 -70.5q-97 0 -177.5 28.5t-158.5 98.5zM717 213q126 0 204 83t78 218q0 134 -78 217.5t-204 83.5t-204.5 -83.5t-78.5 -217.5 q0 -135 78.5 -218t204.5 -83z" />
<glyph unicode="c" horiz-adv-x="1105" d="M1016 295v-242q-162 -78 -338 -78q-269 0 -426.5 150.5t-157.5 388.5t157.5 388.5t426.5 150.5q176 0 338 -78v-242q-166 78 -316 78q-164 0 -249.5 -78t-85.5 -219t85.5 -219t249.5 -78q150 0 316 78z" />
<glyph unicode="d" horiz-adv-x="1363" d="M1200 -4h-29l-200 106h-8q-78 -70 -158.5 -98.5t-177.5 -28.5q-167 0 -289 71t-183 191.5t-61 274.5q0 237 140.5 389t379.5 152q103 0 176.5 -31t131.5 -92h8v483l270 82v-1499zM647 217q126 0 204.5 82.5t78.5 214.5q0 131 -78.5 214t-204.5 83t-204 -83t-78 -214 q0 -132 78 -214.5t204 -82.5z" />
<glyph unicode="e" horiz-adv-x="1216" d="M1053 311v-225q-114 -61 -209.5 -86t-194.5 -25q-137 0 -243.5 40.5t-174 113.5t-102.5 171.5t-35 217.5q0 159 59 278.5t178.5 188t286.5 68.5q129 0 228 -41.5t159.5 -114.5t90.5 -168t30 -207v-108h-768q48 -205 318 -205q175 0 377 102zM358 610h504 q-34 213 -237 213q-101 0 -173 -53.5t-94 -159.5z" />
<glyph unicode="f" horiz-adv-x="892" d="M512 0h-270v782h-226l62 242h164v37q0 455 422 455q156 0 278 -70v-229q-120 57 -233 57q-111 0 -154 -53t-43 -181v-16h348l-61 -242h-287v-782z" />
<glyph unicode="g" horiz-adv-x="1363" d="M930 53v70h-8q-57 -59 -127.5 -91t-182.5 -32q-110 0 -204 34t-164 98t-110 165.5t-40 228.5q0 169 69.5 290t185 179t263.5 58q200 0 351 -123h8l200 102h29v-999q0 -230 -148.5 -348.5t-420.5 -118.5q-275 0 -455 110v246q95 -60 212 -91.5t228 -31.5q161 0 237.5 66.5 t76.5 187.5zM647 238q124 0 203.5 80t79.5 208t-79.5 208.5t-203.5 80.5t-203 -80.5t-79 -208.5t79 -208t203 -80z" />
<glyph unicode="h" horiz-adv-x="1323" d="M1188 0h-270v551q0 117 -66 188.5t-176 71.5t-176 -71.5t-66 -188.5v-551h-270v1413l270 82v-563h8q128 121 316 121q200 0 315 -124t115 -358v-571z" />
<glyph unicode="i" horiz-adv-x="614" d="M442 0h-270v1024h270v-1024zM311 1122h-8l-182 183v8l182 182h8l183 -182v-8z" />
<glyph unicode="j" horiz-adv-x="616" d="M311 1122h-8l-182 183v8l182 182h8l183 -182v-8zM172 -45v1069h270v-1085q0 -373 -374 -373q-125 0 -244 53v234q101 -46 199 -46q76 0 112.5 30.5t36.5 117.5z" />
<glyph unicode="k" horiz-adv-x="1226" d="M1210 0h-331l-377 469l-68 -57v-412h-270v1434l270 82v-807l375 315h340l-549 -471h154z" />
<glyph unicode="l" horiz-adv-x="614" d="M442 0h-270v1413l270 82v-1495z" />
<glyph unicode="m" horiz-adv-x="1994" d="M1860 0h-271v571q0 114 -61.5 177t-159.5 63t-159.5 -63t-61.5 -177v-571h-270v571q0 114 -62 177t-160 63t-159.5 -63t-61.5 -177v-571h-270v1032h29l200 -102h8q111 123 299 123q239 0 361 -162q125 162 352 162q199 0 323 -119.5t124 -341.5v-592z" />
<glyph unicode="n" horiz-adv-x="1323" d="M1188 0h-270v555q0 115 -66 185.5t-176 70.5t-176 -70.5t-66 -185.5v-555h-270v1032h29l204 -143h9q129 164 354 164q198 0 313 -124t115 -358v-571z" />
<glyph unicode="o" horiz-adv-x="1335" d="M1241 514q0 -110 -39 -207t-110 -171.5t-181 -117.5t-243 -43t-243 43t-181.5 117.5t-110.5 171.5t-39 207t39 207t110.5 171.5t181.5 117.5t243 43t243 -43t181 -117.5t110 -171.5t39 -207zM971 514q0 57 -18.5 109.5t-54 96t-95.5 69.5t-135 26t-135 -26t-95.5 -69.5 t-54 -96t-18.5 -109.5t18.5 -109.5t54 -96t95.5 -69.5t135 -26t135 26t95.5 69.5t54 96t18.5 109.5z" />
<glyph unicode="p" horiz-adv-x="1363" d="M434 -410h-270v1442h29l200 -102h8q151 123 347 123q229 0 375.5 -145t146.5 -394q0 -250 -147.5 -394.5t-381.5 -144.5q-194 0 -299 99h-8v-484zM717 213q125 0 203.5 82.5t78.5 218.5t-78.5 218.5t-203.5 82.5t-204 -82.5t-79 -218.5t79 -218.5t204 -82.5z" />
<glyph unicode="q" horiz-adv-x="1363" d="M1200 -410h-270v508h-8q-116 -123 -306 -123q-148 0 -265.5 63t-187 186.5t-69.5 289.5q0 249 146.5 394t375.5 145q196 0 347 -123h8l200 102h29v-1442zM647 213q125 0 204 82.5t79 218.5t-79 218.5t-204 82.5t-203.5 -82.5t-78.5 -218.5t78.5 -218.5t203.5 -82.5z" />
<glyph unicode="r" horiz-adv-x="933" d="M434 0h-270v1032h29l200 -143h8q109 164 338 164q84 0 158 -29v-246q-62 17 -121 17q-160 0 -251 -95t-91 -258v-442z" />
<glyph unicode="s" horiz-adv-x="1011" d="M483 389l-114 29q-118 30 -194.5 106.5t-76.5 204.5q0 157 115.5 240.5t306.5 83.5q167 0 316 -66v-233q-69 28 -156.5 46.5t-159.5 18.5q-68 0 -109.5 -19.5t-41.5 -58.5q0 -38 31.5 -57t115.5 -41l115 -29q287 -72 287 -311q0 -155 -112.5 -241.5t-305.5 -86.5 q-207 0 -402 107v233q192 -106 391 -106q86 0 122 19t36 59q0 36 -33 57t-131 45z" />
<glyph unicode="t" horiz-adv-x="983" d="M942 287v-234q-76 -41 -134.5 -59.5t-145.5 -18.5q-94 0 -169.5 25t-132.5 76.5t-87.5 136.5t-30.5 199v370h-226l62 242h164v254l270 82v-336h348l-61 -242h-287v-350q0 -110 46.5 -162.5t150.5 -52.5q107 0 233 70z" />
<glyph unicode="u" horiz-adv-x="1327" d="M1163 -4h-28l-201 106h-8q-71 -63 -150 -95t-186 -32q-202 0 -326.5 118t-124.5 343v588h271v-567q0 -115 64.5 -177.5t176.5 -62.5t177 62.5t65 177.5v567h270v-1028z" />
<glyph unicode="v" horiz-adv-x="1187" d="M741 0h-295l-430 1024h295l150 -393q96 -253 135 -377h8q39 124 135 377l150 393h282z" />
<glyph unicode="w" horiz-adv-x="1720" d="M1380 0h-295l-122 369q-54 165 -99 350h-8q-48 -197 -98 -350l-123 -369h-295l-324 1024h295l97 -350q60 -213 98 -357h8q53 194 102 357l89 297l-46 82h349l112 -379q44 -148 99 -357h8q15 59 98 357l96 350h283z" />
<glyph unicode="x" horiz-adv-x="1122" d="M1106 0h-315l-103 147q-66 99 -125 197h-8q-49 -86 -127 -197l-104 -147h-308l392 526l-371 498h315l97 -139q66 -99 110 -172h8q41 69 113 172l98 139h307l-368 -498z" />
<glyph unicode="y" horiz-adv-x="1167" d="M610 -410h-282l170 451h-113l-369 983h299l119 -324q79 -212 154 -426h8q75 214 154 426l118 324h283z" />
<glyph unicode="z" horiz-adv-x="1150" d="M1044 0h-942v201l574 594h-533v229h881v-201l-573 -594h593v-229z" />
<glyph unicode="{" horiz-adv-x="1019" d="M905 -205h-217q-150 0 -243 84.5t-93 239.5v262q0 83 -30 123.5t-101 40.5h-135v241h135q71 0 101 40.5t30 123.5v262q0 155 93 239.5t243 84.5h217v-242h-135q-71 0 -101 -40.5t-30 -123.5v-131q0 -204 -129 -333q129 -129 129 -334v-131q0 -83 30 -123.5t101 -40.5h135 v-242z" />
<glyph unicode="|" horiz-adv-x="630" d="M459 -287h-287v1700h287v-1700z" />
<glyph unicode="}" horiz-adv-x="1019" d="M332 -205h-217v242h135q71 0 101 40.5t30 123.5v131q0 205 129 334q-129 129 -129 333v131q0 83 -30 123.5t-101 40.5h-135v242h217q150 0 243 -84.5t93 -239.5v-262q0 -83 30 -123.5t101 -40.5h135v-241h-135q-71 0 -101 -40.5t-30 -123.5v-262q0 -155 -93 -239.5 t-243 -84.5z" />
<glyph unicode="~" horiz-adv-x="1236" d="M905 786h246q0 -190 -70 -266t-227 -76q-78 0 -138.5 16.5t-96.5 39.5t-65.5 46t-61 39.5t-66.5 16.5q-94 0 -94 -117h-246q0 190 71 266t228 76q78 0 138.5 -16t96.5 -39.5t65.5 -46.5t61 -39t66.5 -16q52 0 72 30.5t20 85.5z" />
<glyph unicode="&#xa1;" horiz-adv-x="745" d="M492 778h-238v246h238v-246zM516 -389h-287l37 971h213z" />
<glyph unicode="&#xa2;" horiz-adv-x="1105" d="M782 -193h-204v175q-225 29 -354.5 174t-129.5 358t129.5 358.5t354.5 174.5v174h204v-174q123 -18 234 -72v-242q-126 59 -234 72v-582q108 13 234 72v-242q-108 -53 -234 -71v-175zM578 231v566q-105 -26 -159 -99t-54 -184t54 -184t159 -99z" />
<glyph unicode="&#xa3;" horiz-adv-x="1200" d="M1069 0h-934v254q117 57 159 128.5t46 223.5h-225l53 213h172v168q0 237 113.5 346t316.5 109q151 0 279 -70v-258q-128 70 -238 70q-111 0 -152 -53t-41 -164v-148h340l-61 -213h-279q-2 -125 -31.5 -208t-97.5 -140h641z" />
<glyph unicode="&#xa4;" horiz-adv-x="1175" d="M918 309l-142 142q-85 -37 -188 -37q-104 0 -189 37l-141 -142l-152 152l134 133q-54 88 -54 197q0 108 54 196l-134 133l152 152l141 -142q85 37 189 37q103 0 188 -37l142 142l151 -152l-133 -133q53 -86 53 -196q0 -111 -53 -197l133 -133zM588 627q77 0 120.5 50 t43.5 114t-43.5 113.5t-120.5 49.5t-120.5 -49.5t-43.5 -113.5t43.5 -114t120.5 -50z" />
<glyph unicode="&#xa5;" horiz-adv-x="1449" d="M1219 221h-355v-221h-278v221h-406l62 180h344v93l-31 51h-381l62 180h213l-412 688h319l193 -358q32 -61 88 -164t88 -164h8q32 61 88 164t88 164l193 358h311l-412 -688h285l-61 -180h-330l-31 -51v-93h416z" />
<glyph unicode="&#xa6;" horiz-adv-x="630" d="M459 692h-287v721h287v-721zM459 -287h-287v721h287v-721z" />
<glyph unicode="&#xa7;" horiz-adv-x="1048" d="M500 158l-152 51q-233 78 -233 323q0 193 135 293q-135 99 -135 273q0 162 114 253t301 91q170 0 322 -66v-233q-149 65 -297 65q-91 0 -130.5 -24t-39.5 -72q0 -47 35 -77t112 -56l152 -51q250 -85 250 -316q0 -187 -166 -290q166 -90 166 -285q0 -162 -113.5 -255 t-306.5 -93q-210 0 -399 106v234q194 -107 383 -107q91 0 128.5 24.5t37.5 71.5q0 46 -35.5 77t-128.5 63zM530 729q-186 -33 -186 -158q0 -109 148 -161q122 18 167.5 60.5t45.5 100.5q0 53 -38 91t-137 67z" />
<glyph unicode="&#xa8;" horiz-adv-x="802" d="M319 1188h-278v287h278v-287zM762 1188h-279v287h279v-287z" />
<glyph unicode="&#xa9;" horiz-adv-x="1761" d="M1651 709q0 -214 -94.5 -380.5t-270 -260t-405.5 -93.5t-405.5 93.5t-270 260t-94.5 380.5t94.5 380t270 259.5t405.5 93.5t405.5 -93.5t270 -259.5t94.5 -380zM1446 709q0 156 -67 279.5t-196.5 196t-301.5 72.5t-302 -72.5t-197 -196t-67 -279.5q0 -116 39.5 -217 t111 -174.5t179 -115.5t236.5 -42q258 0 411.5 155t153.5 394zM1196 557v-190q-126 -58 -252 -58q-205 0 -323.5 111.5t-118.5 290.5q0 177 118 288t324 111q128 0 252 -57v-189q-129 58 -233 58q-122 0 -186 -57t-64 -154q0 -98 63.5 -154.5t186.5 -56.5q107 0 233 57z" />
<glyph unicode="&#xaa;" horiz-adv-x="1036" d="M913 686h-28l-162 119h-14q-27 -63 -99 -97t-145 -34q-179 0 -279 106.5t-100 276.5q0 168 97.5 276.5t267.5 108.5q142 0 221 -86h8v65h233v-735zM479 862q82 0 131 53.5t49 141.5q0 85 -48.5 139.5t-127.5 54.5t-131.5 -55t-52.5 -139q0 -88 49 -141.5t131 -53.5z" />
<glyph unicode="&#xab;" horiz-adv-x="1220" d="M631 195h-258l-246 335v21l246 336h258l-246 -342v-8zM1073 195h-258l-246 335v21l246 336h258l-246 -342v-8z" />
<glyph unicode="&#xac;" horiz-adv-x="1294" d="M1180 123h-262v405h-803v213h1065v-618z" />
<glyph unicode="&#xad;" horiz-adv-x="811" d="M754 422h-697v237h697v-237z" />
<glyph unicode="&#xae;" horiz-adv-x="905" d="M848 1085q0 -167 -107.5 -271.5t-287.5 -104.5t-288 104.5t-108 271.5t108 272t288 105t287.5 -104.5t107.5 -272.5zM735 1085q0 120 -76 197.5t-206 77.5t-206.5 -77.5t-76.5 -197.5t76 -197t207 -77q130 0 206 77t76 197zM610 915h-98l-70 117h-26v-117h-90v340h149 q52 0 84.5 -27.5t32.5 -78.5q0 -75 -64 -105zM416 1106h45q21 0 33 12t12 31q0 41 -45 41h-45v-84z" />
<glyph unicode="&#xaf;" horiz-adv-x="655" d="M614 1229h-573v184h573v-184z" />
<glyph unicode="&#xb0;" horiz-adv-x="712" d="M655 1153q0 -119 -80 -200t-219 -81t-219 81t-80 200t80 200t219 81t219 -81t80 -200zM356 1051q47 0 75 30t28 72t-28 73t-75 31t-74.5 -31t-27.5 -73t27.5 -72t74.5 -30z" />
<glyph unicode="&#xb1;" horiz-adv-x="1351" d="M1208 717h-401v-225h-262v225h-402v205h402v225h262v-225h401v-205zM1208 123h-1065v213h1065v-213z" />
<glyph unicode="&#xb2;" horiz-adv-x="733" d="M639 913h-528v156l217 186q48 42 67 72t19 62q0 30 -17.5 43.5t-56.5 13.5q-85 0 -209 -68v176q102 64 242 64q119 0 182 -51.5t63 -143.5q0 -125 -112 -229l-117 -109h250v-172z" />
<glyph unicode="&#xb3;" horiz-adv-x="681" d="M508 1272v-8q46 -16 75 -55t29 -95q0 -96 -86 -152.5t-207 -56.5q-139 0 -241 76v172q125 -80 227 -80q53 0 78 18.5t25 47.5q0 61 -111 61h-129l61 135h68q90 0 90 58q0 57 -90 57q-81 0 -199 -59v170q106 57 228 57q119 0 192.5 -54.5t73.5 -154.5q0 -108 -84 -137z " />
<glyph unicode="&#xb4;" horiz-adv-x="430" d="M246 1147h-205l102 348h246z" />
<glyph unicode="&#xb5;" horiz-adv-x="1351" d="M1188 -25h-21l-206 123h-9q-56 -60 -132 -91.5t-150 -31.5q-72 0 -134.5 29t-93.5 74h-8v-512l-270 -62v1520h270v-551q0 -115 66 -185.5t176 -70.5t176 70.5t66 185.5v551h270v-1049z" />
<glyph unicode="&#xb6;" horiz-adv-x="1523" d="M1352 -287h-267v1454h-225v-1454h-266v766q-254 0 -387 129t-133 338t133 338t387 129h758v-1700z" />
<glyph unicode="&#xb7;" horiz-adv-x="622" d="M451 401h-279v287h279v-287z" />
<glyph unicode="&#xb8;" horiz-adv-x="616" d="M41 -549v143q94 -49 188 -49q72 0 107 27.5t35 75.5t-34.5 75t-105.5 27q-90 0 -190 -53v121l109 223h204q-55 -93 -108 -152q35 5 45 5q109 0 186.5 -64.5t77.5 -185.5q0 -119 -79 -180.5t-212 -61.5q-128 0 -223 49z" />
<glyph unicode="&#xb9;" horiz-adv-x="622" d="M451 909h-205v525h-205l61 172h349v-697z" />
<glyph unicode="&#xba;" horiz-adv-x="991" d="M905 1057q0 -162 -110.5 -272.5t-298.5 -110.5t-299 110.5t-111 272.5t111 272.5t299 110.5t298.5 -110.5t110.5 -272.5zM496 872q87 0 135.5 55.5t48.5 129.5t-48.5 129t-135.5 55t-136 -55t-49 -129t49 -129.5t136 -55.5z" />
<glyph unicode="&#xbb;" horiz-adv-x="1220" d="M406 195h-259l246 342v8l-246 342h259l245 -336v-21zM848 195h-258l246 342v8l-246 342h258l246 -336v-21z" />
<glyph unicode="&#xbc;" horiz-adv-x="1867" d="M451 717h-205v524h-205l61 172h349v-696zM545 0h-299l1024 1413h299zM1692 0h-205v131h-324v168l289 397h240v-397h82v-168h-82v-131zM1487 299v195l-139 -195h139z" />
<glyph unicode="&#xbd;" horiz-adv-x="1894" d="M451 717h-205v524h-205l61 172h349v-696zM545 0h-299l1024 1413h299zM1800 0h-528v156l217 186q48 42 67 71.5t19 61.5q0 30 -17.5 43.5t-56.5 13.5q-87 0 -209 -67v176q102 64 242 64q119 0 182.5 -51.5t63.5 -143.5q0 -124 -113 -229l-117 -109h250v-172z" />
<glyph unicode="&#xbe;" horiz-adv-x="1941" d="M508 1075v-8q46 -16 75 -54.5t29 -94.5q0 -96 -86 -152.5t-207 -56.5q-140 0 -241 75v172q124 -79 227 -79q53 0 78 18t25 47q0 62 -111 62h-129l61 135h68q90 0 90 57t-90 57q-81 0 -199 -59v170q106 57 228 57q119 0 192.5 -54.5t73.5 -154.5q0 -108 -84 -137zM618 0 h-299l1024 1413h299zM1765 0h-204v131h-324v168l289 397h239v-397h82v-168h-82v-131zM1561 299v195l-140 -195h140z" />
<glyph unicode="&#xbf;" horiz-adv-x="1138" d="M758 737h-279v287h279v-287zM1016 -23v-266q-209 -121 -465 -121q-211 0 -323.5 84.5t-112.5 245.5q0 56 15.5 108.5t34.5 88.5t54 77t55.5 60.5t57.5 52.5q58 51 83 78t42.5 68t17.5 96v41h287v-62q0 -105 -41 -179.5t-135 -153.5q-107 -89 -146 -135.5t-39 -100.5 q0 -60 44 -85.5t135 -25.5q197 0 436 129z" />
<glyph unicode="&#xc0;" horiz-adv-x="1523" d="M842 1536h-205l-143 348h245zM1499 0h-295l-145 336h-602l-146 -336h-286l583 1348l-41 94h307zM952 578l-82 213q-61 158 -108 290h-8q-34 -95 -109 -290l-82 -213h389z" />
<glyph unicode="&#xc1;" horiz-adv-x="1523" d="M862 1536h-205l103 348h246zM1499 0h-295l-145 336h-602l-146 -336h-286l583 1348l-41 94h307zM952 578l-82 213q-61 158 -108 290h-8q-34 -95 -109 -290l-82 -213h389z" />
<glyph unicode="&#xc2;" horiz-adv-x="1523" d="M1118 1536h-246l-122 209l-123 -209h-246l266 348h205zM1499 0h-295l-145 336h-602l-146 -336h-286l583 1348l-41 94h307zM952 578l-82 213q-61 158 -108 290h-8q-34 -95 -109 -290l-82 -213h389z" />
<glyph unicode="&#xc3;" horiz-adv-x="1523" d="M899 1765h197q0 -134 -58 -185.5t-159 -51.5q-47 0 -82 9.5t-54 23.5t-33.5 28t-30 23.5t-34.5 9.5q-45 0 -45 -57h-197q0 132 57.5 184.5t153.5 52.5q54 0 94.5 -14.5t59 -32.5t41 -32.5t45.5 -14.5q45 0 45 57zM1499 0h-295l-145 336h-602l-146 -336h-286l583 1348 l-41 94h307zM952 578l-82 213q-61 158 -108 290h-8q-34 -95 -109 -290l-82 -213h389z" />
<glyph unicode="&#xc4;" horiz-adv-x="1523" d="M668 1536h-279v287h279v-287zM1110 1536h-279v287h279v-287zM1499 0h-295l-145 336h-602l-146 -336h-286l583 1348l-41 94h307zM952 578l-82 213q-61 158 -108 290h-8q-34 -95 -109 -290l-82 -213h389z" />
<glyph unicode="&#xc5;" horiz-adv-x="1523" d="M950 1714q0 -81 -56.5 -133.5t-143.5 -52.5t-144 52.5t-57 133.5t57 134t144 53t143.5 -53t56.5 -134zM823 1714q0 29 -20 49.5t-53 20.5t-53.5 -20.5t-20.5 -49.5t20.5 -49t53.5 -20t53 20t20 49zM1499 0h-295l-145 336h-602l-146 -336h-286l583 1348l-41 94h307z M952 578l-82 213q-61 158 -108 290h-8q-34 -95 -109 -290l-82 -213h389z" />
<glyph unicode="&#xc6;" horiz-adv-x="2088" d="M1950 0h-1045v336h-450l-136 -336h-294l585 1348l-41 65h1360v-258h-737v-319h635l-82 -258h-553v-320h758v-258zM905 586v569h-127l-221 -569h348z" />
<glyph unicode="&#xc7;" horiz-adv-x="1441" d="M553 -549v143q94 -49 188 -49q72 0 107 27.5t35 75.5t-34.5 75t-105.5 27q-90 0 -190 -53v121l88 180q-248 57 -389 246.5t-141 464.5q0 330 200 531.5t533 201.5q292 0 495 -164v-258q-82 74 -201 123t-264 49q-230 0 -357.5 -131.5t-127.5 -351.5q0 -104 30.5 -191.5 t89.5 -153t152.5 -102.5t212.5 -37q140 0 258.5 47t206.5 125v-258q-203 -164 -495 -164h-19q-38 -54 -67 -86q35 5 45 5q109 0 186.5 -64.5t77.5 -185.5q0 -119 -79 -180.5t-212 -61.5q-128 0 -223 49z" />
<glyph unicode="&#xc8;" horiz-adv-x="1404" d="M848 1536h-205l-143 348h245zM1266 0h-1086v1413h1065v-250h-786v-329h766l-82 -246h-684v-338h807v-250z" />
<glyph unicode="&#xc9;" horiz-adv-x="1404" d="M786 1536h-204l102 348h246zM1266 0h-1086v1413h1065v-250h-786v-329h766l-82 -246h-684v-338h807v-250z" />
<glyph unicode="&#xca;" horiz-adv-x="1404" d="M1083 1536h-245l-123 209l-123 -209h-246l266 348h205zM1266 0h-1086v1413h1065v-250h-786v-329h766l-82 -246h-684v-338h807v-250z" />
<glyph unicode="&#xcb;" horiz-adv-x="1404" d="M633 1528h-279v287h279v-287zM1075 1528h-278v287h278v-287zM1266 0h-1086v1413h1065v-250h-786v-329h766l-82 -246h-684v-338h807v-250z" />
<glyph unicode="&#xcc;" horiz-adv-x="655" d="M430 1536h-205l-143 348h246zM467 0h-279v1413h279v-1413z" />
<glyph unicode="&#xcd;" horiz-adv-x="655" d="M430 1536h-205l103 348h245zM467 0h-279v1413h279v-1413z" />
<glyph unicode="&#xce;" horiz-adv-x="655" d="M696 1536h-245l-123 209l-123 -209h-246l266 348h205zM467 0h-279v1413h279v-1413z" />
<glyph unicode="&#xcf;" horiz-adv-x="655" d="M246 1536h-279v287h279v-287zM688 1536h-278v287h278v-287zM467 0h-279v1413h279v-1413z" />
<glyph unicode="&#xd0;" horiz-adv-x="1662" d="M868 0h-647v578h-180v258h180v577h647q154 0 283.5 -55.5t216.5 -151.5t135.5 -224.5t48.5 -274.5t-48.5 -275t-135.5 -224.5t-216.5 -151.5t-283.5 -56zM500 246h327q210 0 328.5 130t118.5 331t-118.5 330.5t-328.5 129.5h-327v-331h319v-258h-319v-332z" />
<glyph unicode="&#xd1;" horiz-adv-x="1650" d="M967 1765h196q0 -134 -58 -185.5t-159 -51.5q-47 0 -82 9.5t-54 23.5t-33 28t-29.5 23.5t-34.5 9.5q-45 0 -45 -57h-197q0 132 57.5 184.5t153.5 52.5q54 0 94.5 -14.5t59 -32.5t41 -32.5t45.5 -14.5q45 0 45 57zM1470 0h-323l-318 451q-286 405 -378 577h-9 q10 -112 13.5 -209.5t3.5 -367.5v-451h-279v1360l-61 82h344l338 -479q284 -403 399 -619h8q-10 107 -13 211.5t-3 407.5v450h278v-1413z" />
<glyph unicode="&#xd2;" horiz-adv-x="1695" d="M961 1536h-205l-144 348h246zM1585 709q0 -157 -52 -292.5t-146.5 -233t-233.5 -153t-305 -55.5t-305 55.5t-233.5 153t-146.5 233t-52 292.5t52 292t146.5 232.5t233.5 153t305 55.5t305 -55.5t233.5 -153t146.5 -232.5t52 -292zM848 221q220 0 339.5 132.5t119.5 355.5 t-119.5 355t-339.5 132t-339.5 -132t-119.5 -355t119.5 -355.5t339.5 -132.5z" />
<glyph unicode="&#xd3;" horiz-adv-x="1695" d="M936 1536h-205l103 348h245zM1585 709q0 -157 -52 -292.5t-146.5 -233t-233.5 -153t-305 -55.5t-305 55.5t-233.5 153t-146.5 233t-52 292.5t52 292t146.5 232.5t233.5 153t305 55.5t305 -55.5t233.5 -153t146.5 -232.5t52 -292zM848 221q220 0 339.5 132.5t119.5 355.5 t-119.5 355t-339.5 132t-339.5 -132t-119.5 -355t119.5 -355.5t339.5 -132.5z" />
<glyph unicode="&#xd4;" horiz-adv-x="1695" d="M1219 1536h-246l-123 209l-123 -209h-246l267 348h204zM1585 709q0 -157 -52 -292.5t-146.5 -233t-233.5 -153t-305 -55.5t-305 55.5t-233.5 153t-146.5 233t-52 292.5t52 292t146.5 232.5t233.5 153t305 55.5t305 -55.5t233.5 -153t146.5 -232.5t52 -292zM848 221 q220 0 339.5 132.5t119.5 355.5t-119.5 355t-339.5 132t-339.5 -132t-119.5 -355t119.5 -355.5t339.5 -132.5z" />
<glyph unicode="&#xd5;" horiz-adv-x="1695" d="M999 1765h197q0 -134 -58 -185.5t-159 -51.5q-47 0 -82 9.5t-54 23.5t-33.5 28t-30 23.5t-34.5 9.5q-45 0 -45 -57h-196q0 132 57.5 184.5t153.5 52.5q44 0 78.5 -9.5t54.5 -23.5t36 -28t33.5 -23.5t36.5 -9.5q45 0 45 57zM1585 709q0 -157 -52 -292.5t-146.5 -233 t-233.5 -153t-305 -55.5t-305 55.5t-233.5 153t-146.5 233t-52 292.5t52 292t146.5 232.5t233.5 153t305 55.5t305 -55.5t233.5 -153t146.5 -232.5t52 -292zM848 221q220 0 339.5 132.5t119.5 355.5t-119.5 355t-339.5 132t-339.5 -132t-119.5 -355t119.5 -355.5 t339.5 -132.5z" />
<glyph unicode="&#xd6;" horiz-adv-x="1695" d="M768 1536h-279v287h279v-287zM1210 1536h-278v287h278v-287zM1585 709q0 -157 -52 -292.5t-146.5 -233t-233.5 -153t-305 -55.5t-305 55.5t-233.5 153t-146.5 233t-52 292.5t52 292t146.5 232.5t233.5 153t305 55.5t305 -55.5t233.5 -153t146.5 -232.5t52 -292zM848 221 q220 0 339.5 132.5t119.5 355.5t-119.5 355t-339.5 132t-339.5 -132t-119.5 -355t119.5 -355.5t339.5 -132.5z" />
<glyph unicode="&#xd7;" horiz-adv-x="1191" d="M926 154l-330 329l-330 -329l-151 151l329 330l-329 330l151 151l330 -330l330 330l151 -151l-329 -330l329 -330z" />
<glyph unicode="&#xd8;" horiz-adv-x="1695" d="M297 -111l-166 140l154 182q-174 199 -174 498q0 157 52 292t146.5 232.5t233.5 153t305 55.5q219 0 387 -94l119 141l166 -139l-115 -138q180 -198 180 -503q0 -157 -52 -292.5t-146.5 -233t-233.5 -153t-305 -55.5q-224 0 -395 99zM459 420l610 731q-95 45 -221 45 q-220 0 -339.5 -132t-119.5 -355q0 -168 70 -289zM1231 1006l-615 -734q102 -51 232 -51q220 0 339.5 132.5t119.5 355.5q0 178 -76 297z" />
<glyph unicode="&#xd9;" horiz-adv-x="1556" d="M889 1536h-205l-143 348h245zM1114 537v876h279v-835q0 -124 -38.5 -231.5t-113 -191t-193.5 -132t-270 -48.5t-270 48.5t-193 132t-112.5 191t-38.5 231.5v835h278v-876q0 -138 93 -225t243 -87t243 87t93 225z" />
<glyph unicode="&#xda;" horiz-adv-x="1556" d="M870 1536h-204l102 348h246zM1114 537v876h279v-835q0 -124 -38.5 -231.5t-113 -191t-193.5 -132t-270 -48.5t-270 48.5t-193 132t-112.5 191t-38.5 231.5v835h278v-876q0 -138 93 -225t243 -87t243 87t93 225z" />
<glyph unicode="&#xdb;" horiz-adv-x="1556" d="M1147 1536h-246l-123 209l-123 -209h-245l266 348h205zM1114 537v876h279v-835q0 -124 -38.5 -231.5t-113 -191t-193.5 -132t-270 -48.5t-270 48.5t-193 132t-112.5 191t-38.5 231.5v835h278v-876q0 -138 93 -225t243 -87t243 87t93 225z" />
<glyph unicode="&#xdc;" horiz-adv-x="1556" d="M696 1536h-278v287h278v-287zM1139 1536h-279v287h279v-287zM1114 537v876h279v-835q0 -124 -38.5 -231.5t-113 -191t-193.5 -132t-270 -48.5t-270 48.5t-193 132t-112.5 191t-38.5 231.5v835h278v-876q0 -138 93 -225t243 -87t243 87t93 225z" />
<glyph unicode="&#xdd;" horiz-adv-x="1449" d="M821 1536h-205l103 348h246zM864 0h-278v494l-549 919h319l193 -358q32 -61 88 -164t88 -164h8q32 61 88 164t88 164l193 358h311l-549 -919v-494z" />
<glyph unicode="&#xde;" horiz-adv-x="1312" d="M784 279h-317v-279h-279v1413h279v-278h317q226 0 346.5 -114t120.5 -314t-120.5 -314t-346.5 -114zM467 537h289q114 0 161.5 45t47.5 125t-47.5 125t-161.5 45h-289v-340z" />
<glyph unicode="&#xdf;" horiz-adv-x="1290" d="M545 23v249q89 -47 153 -47q84 0 147.5 49.5t63.5 143.5q0 64 -33 109t-78.5 64t-95.5 19h-137l62 238h28q106 0 155.5 50t49.5 124q0 72 -49.5 121t-157.5 49q-49 0 -86 -11.5t-58.5 -30.5t-35 -46.5t-18 -55t-4.5 -61.5v-987h-287v1028q0 189 135.5 301.5t362.5 112.5 q120 0 214 -33t152.5 -91t88.5 -133.5t30 -162.5q0 -90 -35 -166t-108 -125q78 -39 131 -126t53 -197q0 -208 -122 -320.5t-318 -112.5q-112 0 -203 48z" />
<glyph unicode="&#xe0;" horiz-adv-x="1363" d="M766 1147h-205l-143 348h246zM1200 -4h-29l-200 106h-8q-78 -70 -158.5 -98.5t-177.5 -28.5q-168 0 -290.5 71.5t-182.5 192t-60 275.5t60 276t180.5 192t286.5 71q110 0 181 -31t120 -90h8v92h270v-1028zM647 209q126 0 204.5 85t78.5 220q0 134 -78.5 217.5 t-204.5 83.5t-204 -83.5t-78 -217.5q0 -135 78 -220t204 -85z" />
<glyph unicode="&#xe1;" horiz-adv-x="1363" d="M752 1147h-205l102 348h246zM1200 -4h-29l-200 106h-8q-78 -70 -158.5 -98.5t-177.5 -28.5q-168 0 -290.5 71.5t-182.5 192t-60 275.5t60 276t180.5 192t286.5 71q110 0 181 -31t120 -90h8v92h270v-1028zM647 209q126 0 204.5 85t78.5 220q0 134 -78.5 217.5t-204.5 83.5 t-204 -83.5t-78 -217.5q0 -135 78 -220t204 -85z" />
<glyph unicode="&#xe2;" horiz-adv-x="1363" d="M1024 1147h-246l-123 209l-123 -209h-245l266 348h205zM1200 -4h-29l-200 106h-8q-78 -70 -158.5 -98.5t-177.5 -28.5q-168 0 -290.5 71.5t-182.5 192t-60 275.5t60 276t180.5 192t286.5 71q110 0 181 -31t120 -90h8v92h270v-1028zM647 209q126 0 204.5 85t78.5 220 q0 134 -78.5 217.5t-204.5 83.5t-204 -83.5t-78 -217.5q0 -135 78 -220t204 -85z" />
<glyph unicode="&#xe3;" horiz-adv-x="1363" d="M805 1376h196q0 -134 -58 -185.5t-159 -51.5q-47 0 -82 9.5t-54 23.5t-33 28t-29.5 23.5t-34.5 9.5q-45 0 -45 -57h-197q0 132 57.5 184.5t153.5 52.5q54 0 94.5 -14.5t59 -32.5t41 -32.5t45.5 -14.5q45 0 45 57zM1200 -4h-29l-200 106h-8q-78 -70 -158.5 -98.5 t-177.5 -28.5q-168 0 -290.5 71.5t-182.5 192t-60 275.5t60 276t180.5 192t286.5 71q110 0 181 -31t120 -90h8v92h270v-1028zM647 209q126 0 204.5 85t78.5 220q0 134 -78.5 217.5t-204.5 83.5t-204 -83.5t-78 -217.5q0 -135 78 -220t204 -85z" />
<glyph unicode="&#xe4;" horiz-adv-x="1363" d="M573 1147h-278v287h278v-287zM1016 1147h-279v287h279v-287zM1200 -4h-29l-200 106h-8q-78 -70 -158.5 -98.5t-177.5 -28.5q-168 0 -290.5 71.5t-182.5 192t-60 275.5t60 276t180.5 192t286.5 71q110 0 181 -31t120 -90h8v92h270v-1028zM647 209q126 0 204.5 85t78.5 220 q0 134 -78.5 217.5t-204.5 83.5t-204 -83.5t-78 -217.5q0 -135 78 -220t204 -85z" />
<glyph unicode="&#xe5;" horiz-adv-x="1363" d="M856 1325q0 -81 -57 -133.5t-144 -52.5t-143.5 52.5t-56.5 133.5t56.5 133.5t143.5 52.5t144 -52.5t57 -133.5zM729 1325q0 29 -20.5 49.5t-53.5 20.5t-53 -20.5t-20 -49.5t20 -49.5t53 -20.5t53.5 20.5t20.5 49.5zM1200 -4h-29l-200 106h-8q-78 -70 -158.5 -98.5 t-177.5 -28.5q-168 0 -290.5 71.5t-182.5 192t-60 275.5t60 276t180.5 192t286.5 71q110 0 181 -31t120 -90h8v92h270v-1028zM647 209q126 0 204.5 85t78.5 220q0 134 -78.5 217.5t-204.5 83.5t-204 -83.5t-78 -217.5q0 -135 78 -220t204 -85z" />
<glyph unicode="&#xe6;" horiz-adv-x="1957" d="M1794 311v-225q-115 -61 -209.5 -86t-193.5 -25q-261 0 -420 156h-8q-156 -156 -433 -156q-212 0 -330 89t-118 251t116 253t316 91q177 0 313 -81h9v20q0 89 -80.5 155t-237.5 66q-182 0 -354 -94v229q198 99 414 99q132 0 223.5 -35t161.5 -105h8q140 140 385 140 q131 0 231 -42t160.5 -116t90.5 -168t30 -205v-108h-766q26 -107 103.5 -156t211.5 -49q173 0 377 102zM1098 610h506q-33 213 -238 213q-103 0 -174 -54t-94 -159zM836 393q-129 66 -287 66q-197 0 -197 -131t195 -131q130 0 209.5 53.5t79.5 142.5z" />
<glyph unicode="&#xe7;" horiz-adv-x="1105" d="M410 -549v143q94 -49 188 -49q141 0 141 103q0 102 -139 102q-90 0 -190 -53v121l86 178q-189 47 -295.5 185.5t-106.5 332.5q0 238 157.5 388.5t426.5 150.5q176 0 338 -78v-242q-166 78 -316 78q-164 0 -249.5 -78t-85.5 -219t85.5 -219t249.5 -78q150 0 316 78v-242 q-162 -78 -334 -78q-35 -50 -68 -86q35 5 45 5q109 0 187 -64.5t78 -185.5q0 -119 -79 -180.5t-212 -61.5q-128 0 -223 49z" />
<glyph unicode="&#xe8;" horiz-adv-x="1216" d="M715 1147h-205l-143 348h245zM1053 311v-225q-114 -61 -209.5 -86t-194.5 -25q-137 0 -243.5 40.5t-174 113.5t-102.5 171.5t-35 217.5q0 159 59 278.5t178.5 188t286.5 68.5q129 0 228 -41.5t159.5 -114.5t90.5 -168t30 -207v-108h-768q48 -205 318 -205q175 0 377 102z M358 610h504q-34 213 -237 213q-101 0 -173 -53.5t-94 -159.5z" />
<glyph unicode="&#xe9;" horiz-adv-x="1216" d="M707 1147h-205l102 348h246zM1053 311v-225q-114 -61 -209.5 -86t-194.5 -25q-137 0 -243.5 40.5t-174 113.5t-102.5 171.5t-35 217.5q0 159 59 278.5t178.5 188t286.5 68.5q129 0 228 -41.5t159.5 -114.5t90.5 -168t30 -207v-108h-768q48 -205 318 -205q175 0 377 102z M358 610h504q-34 213 -237 213q-101 0 -173 -53.5t-94 -159.5z" />
<glyph unicode="&#xea;" horiz-adv-x="1216" d="M979 1147h-246l-123 209l-123 -209h-245l266 348h205zM1053 311v-225q-114 -61 -209.5 -86t-194.5 -25q-137 0 -243.5 40.5t-174 113.5t-102.5 171.5t-35 217.5q0 159 59 278.5t178.5 188t286.5 68.5q129 0 228 -41.5t159.5 -114.5t90.5 -168t30 -207v-108h-768 q48 -205 318 -205q175 0 377 102zM358 610h504q-34 213 -237 213q-101 0 -173 -53.5t-94 -159.5z" />
<glyph unicode="&#xeb;" horiz-adv-x="1216" d="M528 1139h-278v286h278v-286zM971 1139h-279v286h279v-286zM1053 311v-225q-114 -61 -209.5 -86t-194.5 -25q-137 0 -243.5 40.5t-174 113.5t-102.5 171.5t-35 217.5q0 159 59 278.5t178.5 188t286.5 68.5q129 0 228 -41.5t159.5 -114.5t90.5 -168t30 -207v-108h-768 q48 -205 318 -205q175 0 377 102zM358 610h504q-34 213 -237 213q-101 0 -173 -53.5t-94 -159.5z" />
<glyph unicode="&#xec;" horiz-adv-x="614" d="M412 1147h-205l-144 348h246zM442 0h-270v1024h270v-1024z" />
<glyph unicode="&#xed;" horiz-adv-x="614" d="M406 1147h-205l102 348h246zM442 0h-270v1024h270v-1024z" />
<glyph unicode="&#xee;" horiz-adv-x="614" d="M676 1147h-246l-123 209l-123 -209h-245l266 348h205zM442 0h-270v1024h270v-1024z" />
<glyph unicode="&#xef;" horiz-adv-x="614" d="M223 1147h-278v287h278v-287zM666 1147h-279v287h279v-287zM442 0h-270v1024h270v-1024z" />
<glyph unicode="&#xf0;" horiz-adv-x="1327" d="M1192 1188l-109 -21q129 -222 129 -532q0 -151 -32.5 -270t-99 -207.5t-176.5 -135.5t-257 -47q-139 0 -246.5 41t-173.5 113t-99.5 165t-33.5 202q0 151 60.5 271t179.5 190.5t278 70.5q150 0 246 -67h8q-20 84 -57 157l-240 -45v205l123 22q-66 79 -143 142h307 q52 -45 96 -92l240 43v-205zM647 217q130 0 206.5 80t76.5 205q0 124 -77 204t-206 80t-205.5 -80t-76.5 -204q0 -126 76 -205.5t206 -79.5z" />
<glyph unicode="&#xf1;" horiz-adv-x="1323" d="M825 1376h197q0 -134 -58 -185.5t-159 -51.5q-47 0 -82 9.5t-54 23.5t-33.5 28t-30 23.5t-34.5 9.5q-45 0 -45 -57h-196q0 132 57.5 184.5t153.5 52.5q44 0 78.5 -9.5t54.5 -23.5t36 -28t33.5 -23.5t36.5 -9.5q45 0 45 57zM1188 0h-270v555q0 115 -66 185.5t-176 70.5 t-176 -70.5t-66 -185.5v-555h-270v1032h29l204 -143h9q129 164 354 164q198 0 313 -124t115 -358v-571z" />
<glyph unicode="&#xf2;" horiz-adv-x="1335" d="M772 1147h-205l-143 348h246zM1241 514q0 -110 -39 -207t-110 -171.5t-181 -117.5t-243 -43t-243 43t-181.5 117.5t-110.5 171.5t-39 207t39 207t110.5 171.5t181.5 117.5t243 43t243 -43t181 -117.5t110 -171.5t39 -207zM971 514q0 57 -18.5 109.5t-54 96t-95.5 69.5 t-135 26t-135 -26t-95.5 -69.5t-54 -96t-18.5 -109.5t18.5 -109.5t54 -96t95.5 -69.5t135 -26t135 26t95.5 69.5t54 96t18.5 109.5z" />
<glyph unicode="&#xf3;" horiz-adv-x="1335" d="M766 1147h-205l103 348h245zM1241 514q0 -110 -39 -207t-110 -171.5t-181 -117.5t-243 -43t-243 43t-181.5 117.5t-110.5 171.5t-39 207t39 207t110.5 171.5t181.5 117.5t243 43t243 -43t181 -117.5t110 -171.5t39 -207zM971 514q0 57 -18.5 109.5t-54 96t-95.5 69.5 t-135 26t-135 -26t-95.5 -69.5t-54 -96t-18.5 -109.5t18.5 -109.5t54 -96t95.5 -69.5t135 -26t135 26t95.5 69.5t54 96t18.5 109.5z" />
<glyph unicode="&#xf4;" horiz-adv-x="1335" d="M1036 1147h-245l-123 209l-123 -209h-246l266 348h205zM1241 514q0 -110 -39 -207t-110 -171.5t-181 -117.5t-243 -43t-243 43t-181.5 117.5t-110.5 171.5t-39 207t39 207t110.5 171.5t181.5 117.5t243 43t243 -43t181 -117.5t110 -171.5t39 -207zM971 514 q0 57 -18.5 109.5t-54 96t-95.5 69.5t-135 26t-135 -26t-95.5 -69.5t-54 -96t-18.5 -109.5t18.5 -109.5t54 -96t95.5 -69.5t135 -26t135 26t95.5 69.5t54 96t18.5 109.5z" />
<glyph unicode="&#xf5;" horiz-adv-x="1335" d="M817 1376h197q0 -134 -58 -185.5t-159 -51.5q-47 0 -82 9.5t-54 23.5t-33.5 28t-30 23.5t-34.5 9.5q-45 0 -45 -57h-196q0 132 57 184.5t153 52.5q54 0 94.5 -14.5t59 -32.5t41 -32.5t45.5 -14.5q45 0 45 57zM1241 514q0 -110 -39 -207t-110 -171.5t-181 -117.5t-243 -43 t-243 43t-181.5 117.5t-110.5 171.5t-39 207t39 207t110.5 171.5t181.5 117.5t243 43t243 -43t181 -117.5t110 -171.5t39 -207zM971 514q0 57 -18.5 109.5t-54 96t-95.5 69.5t-135 26t-135 -26t-95.5 -69.5t-54 -96t-18.5 -109.5t18.5 -109.5t54 -96t95.5 -69.5t135 -26 t135 26t95.5 69.5t54 96t18.5 109.5z" />
<glyph unicode="&#xf6;" horiz-adv-x="1335" d="M586 1147h-279v287h279v-287zM1028 1147h-278v287h278v-287zM1241 514q0 -110 -39 -207t-110 -171.5t-181 -117.5t-243 -43t-243 43t-181.5 117.5t-110.5 171.5t-39 207t39 207t110.5 171.5t181.5 117.5t243 43t243 -43t181 -117.5t110 -171.5t39 -207zM971 514 q0 57 -18.5 109.5t-54 96t-95.5 69.5t-135 26t-135 -26t-95.5 -69.5t-54 -96t-18.5 -109.5t18.5 -109.5t54 -96t95.5 -69.5t135 -26t135 26t95.5 69.5t54 96t18.5 109.5z" />
<glyph unicode="&#xf7;" horiz-adv-x="1294" d="M786 868h-278v287h278v-287zM1180 524h-1065v221h1065v-221zM786 115h-278v286h278v-286z" />
<glyph unicode="&#xf8;" horiz-adv-x="1335" d="M244 -147l-144 120l140 166q-70 73 -108 170.5t-38 204.5q0 110 39 207t110.5 171.5t181.5 117.5t243 43q159 0 286 -62l121 144l144 -121l-115 -135q137 -149 137 -365q0 -110 -39 -207t-110 -171.5t-181 -117.5t-243 -43q-150 0 -275 56zM412 344l379 451 q-62 20 -123 20q-75 0 -135 -26t-95.5 -69.5t-54 -96t-18.5 -109.5q0 -97 47 -170zM932 672l-373 -443q53 -16 109 -16q75 0 135 26t95.5 69.5t54 96t18.5 109.5q0 87 -39 158z" />
<glyph unicode="&#xf9;" horiz-adv-x="1327" d="M760 1147h-205l-143 348h245zM1163 -4h-28l-201 106h-8q-71 -63 -150 -95t-186 -32q-202 0 -326.5 118t-124.5 343v588h271v-567q0 -115 64.5 -177.5t176.5 -62.5t177 62.5t65 177.5v567h270v-1028z" />
<glyph unicode="&#xfa;" horiz-adv-x="1327" d="M731 1147h-205l103 348h245zM1163 -4h-28l-201 106h-8q-71 -63 -150 -95t-186 -32q-202 0 -326.5 118t-124.5 343v588h271v-567q0 -115 64.5 -177.5t176.5 -62.5t177 62.5t65 177.5v567h270v-1028z" />
<glyph unicode="&#xfb;" horiz-adv-x="1327" d="M1020 1147h-246l-123 209l-123 -209h-245l266 348h205zM1163 -4h-28l-201 106h-8q-71 -63 -150 -95t-186 -32q-202 0 -326.5 118t-124.5 343v588h271v-567q0 -115 64.5 -177.5t176.5 -62.5t177 62.5t65 177.5v567h270v-1028z" />
<glyph unicode="&#xfc;" horiz-adv-x="1327" d="M569 1147h-278v287h278v-287zM1012 1147h-279v287h279v-287zM1163 -4h-28l-201 106h-8q-71 -63 -150 -95t-186 -32q-202 0 -326.5 118t-124.5 343v588h271v-567q0 -115 64.5 -177.5t176.5 -62.5t177 62.5t65 177.5v567h270v-1028z" />
<glyph unicode="&#xfd;" horiz-adv-x="1167" d="M694 1147h-205l103 348h246zM610 -410h-282l170 451h-113l-369 983h299l119 -324q79 -212 154 -426h8q75 214 154 426l118 324h283z" />
<glyph unicode="&#xfe;" horiz-adv-x="1363" d="M434 -410h-270v1848h270v-484h8q105 99 299 99q234 0 381.5 -144.5t147.5 -394.5t-147.5 -394.5t-381.5 -144.5q-194 0 -299 99h-8v-484zM717 213q125 0 203.5 82.5t78.5 218.5t-78.5 218.5t-203.5 82.5t-204 -82.5t-79 -218.5t79 -218.5t204 -82.5z" />
<glyph unicode="&#xff;" horiz-adv-x="1167" d="M526 1147h-278v287h278v-287zM969 1147h-279v287h279v-287zM610 -410h-282l170 451h-113l-369 983h299l119 -324q79 -212 154 -426h8q75 214 154 426l118 324h283z" />
<glyph unicode="&#x131;" horiz-adv-x="614" d="M442 0h-270v1024h270v-1024z" />
<glyph unicode="&#x141;" horiz-adv-x="1253" d="M1102 0h-922v408l-160 -93v267l160 92v739h279v-579l381 219v-267l-381 -219v-317h725z" />
<glyph unicode="&#x142;" horiz-adv-x="598" d="M442 0h-270v541l-131 -39v246l131 38v627l270 82v-627l115 35v-246l-115 -34v-623z" />
<glyph unicode="&#x152;" horiz-adv-x="2420" d="M2281 0h-1044v156h-8q-55 -81 -171 -131t-272 -50q-201 0 -355.5 95.5t-237 262t-82.5 376.5t82.5 376.5t237 261.5t355.5 95q155 0 271 -52t172 -133h8v156h1024v-258h-737v-319h635l-82 -258h-553v-320h757v-258zM827 229q200 0 315 131t115 349t-115 348.5t-315 130.5 t-315 -130.5t-115 -348.5t115 -349t315 -131z" />
<glyph unicode="&#x153;" horiz-adv-x="2072" d="M1909 311v-225q-119 -62 -209 -86.5t-187 -24.5q-163 0 -268 57t-164 173h-8q-56 -112 -163 -171t-259 -59q-129 0 -235.5 43t-176 117.5t-107.5 171.5t-38 207t38 207.5t107 171.5t175.5 117t234.5 43q155 0 261.5 -61.5t162.5 -172.5h8q118 234 412 234 q123 0 218.5 -42t153.5 -115.5t87.5 -168t29.5 -205.5v-108h-765q26 -107 103.5 -156t211.5 -49q173 0 377 102zM1212 610h506q-33 213 -237 213q-103 0 -174.5 -54.5t-94.5 -158.5zM971 514q0 57 -18.5 109.5t-54 96t-95.5 69.5t-135 26t-135 -26t-95.5 -69.5t-54 -96 t-18.5 -109.5t18.5 -109.5t54 -96t95.5 -69.5t135 -26t135 26t95.5 69.5t54 96t18.5 109.5z" />
<glyph unicode="&#x160;" horiz-adv-x="1331" d="M762 1536h-205l-266 348h246l122 -209l123 209h246zM651 578l-129 36q-72 21 -125.5 42.5t-105.5 55.5t-84.5 75.5t-52 101.5t-19.5 135q0 206 135.5 312t376.5 106q275 0 492 -121v-258q-252 129 -477 129q-248 0 -248 -141q0 -66 56.5 -107.5t188.5 -79.5l132 -37 q232 -65 331 -167.5t99 -264.5q0 -107 -39 -188.5t-110 -131.5t-165.5 -75t-210.5 -25q-175 0 -333 50t-248 116v258q274 -174 567 -174q134 0 197 38t63 114q0 73 -63 113.5t-228 87.5z" />
<glyph unicode="&#x161;" horiz-adv-x="1011" d="M594 1147h-205l-266 348h246l123 -209l122 209h246zM483 389l-114 29q-118 30 -194.5 106.5t-76.5 204.5q0 157 115.5 240.5t306.5 83.5q167 0 316 -66v-233q-69 28 -156.5 46.5t-159.5 18.5q-68 0 -109.5 -19.5t-41.5 -58.5q0 -38 31.5 -57t115.5 -41l115 -29 q287 -72 287 -311q0 -155 -112.5 -241.5t-305.5 -86.5q-207 0 -402 107v233q192 -106 391 -106q86 0 122 19t36 59q0 36 -33 57t-131 45z" />
<glyph unicode="&#x178;" horiz-adv-x="1449" d="M645 1528h-278v287h278v-287zM1087 1528h-278v287h278v-287zM864 0h-278v494l-549 919h319l193 -358q32 -61 88 -164t88 -164h8q32 61 88 164t88 164l193 358h311l-549 -919v-494z" />
<glyph unicode="&#x17d;" horiz-adv-x="1449" d="M838 1536h-205l-266 348h245l123 -209l123 209h246zM1327 0h-1208v193l794 978h-753v242h1147v-192l-795 -979h815v-242z" />
<glyph unicode="&#x17e;" horiz-adv-x="1150" d="M684 1147h-205l-266 348h246l123 -209l123 209h245zM1044 0h-942v201l574 594h-533v229h881v-201l-573 -594h593v-229z" />
<glyph unicode="&#x192;" horiz-adv-x="1077" d="M913 811h-211l-81 -463q-36 -200 -128 -286.5t-255 -86.5q-112 0 -201 50v237q87 -49 153 -49q60 0 93 35t51 133l76 430h-222l62 213h199l8 45q36 200 128 286.5t255 86.5q113 0 200 -49v-238q-87 49 -153 49q-60 0 -93 -35t-51 -133l-2 -12h234z" />
<glyph unicode="&#x2c6;" horiz-adv-x="819" d="M778 1147h-246l-122 209l-123 -209h-246l266 348h205z" />
<glyph unicode="&#x2c7;" horiz-adv-x="819" d="M512 1147h-205l-266 348h246l123 -209l122 209h246z" />
<glyph unicode="&#x2d8;" horiz-adv-x="753" d="M487 1454h226q0 -158 -82.5 -236.5t-253.5 -78.5t-253.5 78.5t-82.5 236.5h225q0 -131 111 -131q110 0 110 131z" />
<glyph unicode="&#x2d9;" horiz-adv-x="368" d="M328 1325q0 -56 -40.5 -96.5t-103.5 -40.5q-64 0 -103.5 40.5t-39.5 96.5t39.5 96.5t103.5 40.5q63 0 103.5 -40.5t40.5 -96.5z" />
<glyph unicode="&#x2da;" horiz-adv-x="483" d="M442 1325q0 -81 -56.5 -133.5t-143.5 -52.5t-144 52.5t-57 133.5t57 133.5t144 52.5t143.5 -52.5t56.5 -133.5zM315 1325q0 29 -20 49.5t-53 20.5t-53.5 -20.5t-20.5 -49.5t20.5 -49.5t53.5 -20.5t53 20.5t20 49.5z" />
<glyph unicode="&#x2db;" horiz-adv-x="538" d="M498 -186v-205q-67 -43 -172 -43q-53 0 -101 12t-90.5 37t-68 70.5t-25.5 107.5q0 145 133 268h246q-48 -45 -81.5 -107.5t-33.5 -111.5q0 -71 74 -71q52 0 119 43z" />
<glyph unicode="&#x2dc;" horiz-adv-x="856" d="M578 1376h196q0 -134 -58 -185.5t-159 -51.5q-47 0 -82 9.5t-54 23.5t-33 28t-29.5 23.5t-34.5 9.5q-45 0 -45 -57h-197q0 132 57.5 184.5t153.5 52.5q44 0 78.5 -9.5t54.5 -23.5t36 -28t33.5 -23.5t36.5 -9.5q46 0 46 57z" />
<glyph unicode="&#x2dd;" horiz-adv-x="819" d="M246 1147h-205l102 348h246zM635 1147h-205l102 348h246z" />
<glyph unicode="&#x394;" horiz-adv-x="1374" d="M1337 0h-1300v205l498 1143l-50 94h318l534 -1237v-205zM1022 246l-336 844h-8l-336 -844h680z" />
<glyph unicode="&#x3a9;" horiz-adv-x="1753" d="M1675 0h-696v289q101 28 171 95t103 159.5t33 204.5q0 202 -107.5 321t-301.5 119t-302 -119t-108 -321q0 -171 77.5 -293.5t227.5 -165.5v-289h-694v246h352v8q-126 91 -188 226t-62 294q0 140 47 261t133.5 212t220 143t296.5 52t296 -52t220 -143t133.5 -212 t46.5 -261q0 -347 -270 -520v-8h372v-246z" />
<glyph unicode="&#x3bc;" horiz-adv-x="1368" d="M1196 -25h-20l-207 123h-8q-56 -60 -132 -91.5t-151 -31.5q-72 0 -133.5 29t-93.5 74h-9v-512l-270 -62v1520h270v-551q0 -115 66 -185.5t176 -70.5t176 70.5t66 185.5v551h270v-1049z" />
<glyph unicode="&#x3c0;" horiz-adv-x="1703" d="M1663 291v-238q-75 -40 -134.5 -59t-144.5 -19q-197 0 -309 108t-112 333v366h-287v-782h-270v782h-390l62 242h1544l-61 -242h-328v-346q0 -110 46.5 -162.5t150.5 -52.5q107 0 233 70z" />
<glyph unicode="&#xe01;" horiz-adv-x="1433" d="M1290 0h-278v594q0 174 -72.5 261t-251.5 87q-256 0 -323 -176h303v-164q-102 -15 -153.5 -107t-51.5 -241v-254h-279v274q0 106 45.5 189.5t120.5 138.5h-260v123q61 230 212.5 340.5t393.5 110.5q284 0 439 -141.5t155 -399.5v-635z" />
<glyph unicode="&#xe02;" horiz-adv-x="1302" d="M881 420v727h278v-703q0 -240 -127.5 -354.5t-378.5 -114.5q-254 0 -386 112.5t-132 330.5q0 159 71.5 274.5t215.5 220.5h-287l62 234h495v-229q-141 -129 -209.5 -244.5t-68.5 -235.5q0 -217 229 -217q118 0 178 53.5t60 145.5z" />
<glyph unicode="&#xe03;" horiz-adv-x="1310" d="M889 408v739h278v-739q0 -214 -131 -323.5t-381 -109.5q-245 0 -378.5 100t-133.5 275q0 67 20.5 127t53.5 104t72.5 83t79.5 70t73 58.5t53.5 55.5t20.5 55q0 26 -18 36.5t-56 10.5l-92 -78h-20q-70 78 -158 78q-71 0 -111 -32v225q41 33 113 33q118 0 162 -107h8 l125 107h25q114 0 191 -63t77 -171q0 -51 -19 -98t-48.5 -84t-66 -72.5t-73 -69.5t-66 -68t-48.5 -75t-19 -84q0 -82 63 -126t168 -44q115 0 175.5 52t60.5 135z" />
<glyph unicode="&#xe04;" horiz-adv-x="1417" d="M1274 0h-279v637q0 138 -70 215.5t-216 77.5t-216.5 -77.5t-70.5 -215.5v-115q78 72 192 72h177l-62 -225h-143q-97 0 -130.5 -44t-33.5 -165v-160h-279v678q0 227 145.5 362.5t420.5 135.5t420 -135.5t145 -362.5v-678z" />
<glyph unicode="&#xe05;" horiz-adv-x="1458" d="M1315 0h-279v676q0 115 -23.5 172.5t-78.5 69.5l-195 -148h-20l-195 148q-55 -12 -78.5 -69.5t-23.5 -172.5v-154q78 72 192 72h177l-62 -225h-143q-97 0 -130.5 -44t-33.5 -165v-160h-279v717q0 208 103.5 326t306.5 133l172 -164h8l172 164q203 -15 306.5 -133 t103.5 -326v-717z" />
<glyph unicode="&#xe06;" horiz-adv-x="1388" d="M967 397v750h278v-709q0 -224 -119.5 -343.5t-351.5 -119.5q-243 0 -381 148h-12l-201 -148h-28v379q0 89 36.5 166t88 128.5t103 95t88 84t36.5 75.5q0 26 -18 36.5t-56 10.5l-92 -78h-21q-70 78 -157 78q-71 0 -111 -32v225q41 33 113 33q118 0 162 -107h8l125 107h24 q113 0 191 -62.5t78 -175.5q0 -68 -33 -130.5t-80 -110t-94 -92t-80 -97t-33 -105.5q0 -79 70 -130.5t217 -51.5q250 0 250 176z" />
<glyph unicode="&#xe07;" horiz-adv-x="1269" d="M569 0h-143l-401 788h286l287 -542q151 0 223 96.5t72 269.5q0 318 -242 318q-117 0 -221 -66v246q109 66 266 66q233 0 354 -141t121 -394q0 -291 -156 -466t-446 -175z" />
<glyph unicode="&#xe08;" horiz-adv-x="1273" d="M590 0h-184l-177 481h-161l61 205h301l160 -444q138 0 222.5 94t84.5 256q0 163 -93.5 252.5t-289.5 89.5q-118 0 -233 -31.5t-191 -79.5v246q184 107 455 107q314 0 472.5 -152t158.5 -410q0 -141 -47 -258.5t-128 -194.5t-186.5 -119t-224.5 -42z" />
<glyph unicode="&#xe09;" horiz-adv-x="1347" d="M1204 -25h-28l-201 148h-12q-71 -74 -154 -111t-201 -37q-203 0 -299 105.5t-96 298.5v55h-143l61 205h328v-207q0 -98 59.5 -154.5t173.5 -56.5t174 56.5t60 154.5v248q0 68 -26 118.5t-72.5 79.5t-104.5 42.5t-129 13.5q-220 0 -434 -129v246q220 125 481 125 q265 0 414 -113.5t149 -341.5v-746z" />
<glyph unicode="&#xe0a;" horiz-adv-x="1339" d="M1208 489v-45q0 -131 -34.5 -222.5t-104.5 -145t-165 -77.5t-226 -24q-101 0 -182 13.5t-149.5 45.5t-114.5 82t-71.5 125t-25.5 173q0 112 35.5 203.5t95.5 158.5t156 137h-287l62 234h495v-229q-145 -132 -211.5 -246.5t-66.5 -235.5q0 -110 59 -162.5t199 -52.5 q134 0 196 52t62 171v45q0 176 -166 211v148l203 299h295l-252 -320q110 -26 154 -113.5t44 -224.5z" />
<glyph unicode="&#xe0b;" horiz-adv-x="1384" d="M1229 489v-45q0 -250 -130.5 -359.5t-402.5 -109.5q-275 0 -414 98.5t-139 274.5q0 68 20.5 128t53.5 104.5t72.5 83t79.5 70t73 59t53.5 55.5t20.5 55q0 26 -18 36.5t-56 10.5l-92 -78h-20q-70 78 -158 78q-71 0 -111 -32v225q41 33 113 33q118 0 162 -107h8l125 107h25 q114 0 191 -63t77 -171q0 -51 -19 -98t-48.5 -84t-66 -72.5t-73 -69.5t-66 -68t-48.5 -75t-19 -84q0 -79 64.5 -124.5t201.5 -45.5q131 0 196.5 50t65.5 173v45q0 81 -30.5 127t-92.5 72v164l197 295h285l-240 -334q46 -16 78.5 -47.5t49.5 -75.5t24.5 -92.5t7.5 -108.5z " />
<glyph unicode="&#xe0c;" horiz-adv-x="2158" d="M1737 440v707h278v-748q0 -71 -16 -133.5t-50.5 -116t-84 -92t-120 -60.5t-155.5 -22q-211 0 -352 148h-12l-201 -148h-29v619q0 174 -69 261t-240 87q-249 0 -313 -176h303v-164q-105 -14 -175.5 -105.5t-70.5 -191.5q0 -62 33 -89.5t100 -27.5q84 0 195 48v-213 q-34 -15 -58.5 -23.5t-71.5 -16.5t-102 -8q-175 0 -274.5 73t-99.5 218q0 109 54.5 194.5t141.5 141.5h-250v123q60 228 205.5 339.5t386.5 111.5q279 0 431.5 -141.5t152.5 -399.5v-195q0 -97 60 -158t171 -61t171.5 61.5t60.5 157.5z" />
<glyph unicode="&#xe0d;" horiz-adv-x="2183" d="M1737 45v78h-8q-116 -123 -308 -123q-207 0 -316.5 119.5t-109.5 304.5v170q0 174 -69 261t-240 87q-249 0 -313 -176h303v-164q-105 -14 -175.5 -105.5t-70.5 -191.5q0 -62 33 -89.5t100 -27.5q84 0 195 48v-213q-34 -15 -58.5 -23.5t-71.5 -16.5t-102 -8 q-175 0 -274.5 73t-99.5 218q0 109 54.5 194.5t141.5 141.5h-250v123q60 228 205.5 339.5t386.5 111.5q279 0 431.5 -141.5t152.5 -399.5v-170q0 -97 60 -158t171 -61t171.5 61.5t60.5 157.5v682h278v-1114q0 -228 -146.5 -347.5t-402.5 -119.5q-254 0 -450 123v233 q95 -59 210 -91t218 -32q146 0 219.5 66t73.5 180z" />
<glyph unicode="&#xe0e;" horiz-adv-x="1466" d="M924 -532h-74q-63 73 -155 113t-195 40q-186 0 -303 -153h-9v237q66 68 145 100.5t187 32.5q235 0 373 -153h31q51 10 85.5 55.5t34.5 118.5v735q0 175 -70 261.5t-245 86.5q-252 0 -319 -176h303v-164q-66 -9 -104 -48t-49 -85t-11 -109v-131q0 -125 -77 -189.5 t-206 -64.5q-92 0 -160 37v213q55 -37 103 -37q29 0 45 13t16 49v86q0 183 117 266h-252v123q60 228 206.5 339.5t391.5 111.5q284 0 437 -141t153 -400v-768q0 -118 -58 -211t-148 -140.5t-193 -47.5z" />
<glyph unicode="&#xe0f;" horiz-adv-x="1466" d="M924 -532h-29l-141 118h-9l-141 -118h-94q-72 167 -221 167q-61 0 -113 -28v217q54 29 129 29q91 0 162.5 -39.5t107.5 -128.5h9l155 118h21l155 -118q57 9 93 54.5t36 119.5v735q0 175 -70 261.5t-245 86.5q-252 0 -319 -176h303v-164q-66 -9 -104 -48t-49 -85t-11 -109 v-131q0 -125 -77 -189.5t-206 -64.5q-92 0 -160 37v213q55 -37 103 -37q29 0 45 13t16 49v86q0 183 117 266h-252v123q60 228 206.5 339.5t391.5 111.5q284 0 437 -141t153 -400v-768q0 -118 -58 -211t-148 -140.5t-193 -47.5z" />
<glyph unicode="&#xe10;" horiz-adv-x="1292" d="M795 -532h-29l-129 118h-8l-129 -118h-94q-72 167 -222 167q-63 0 -116 -36v215q53 36 135 36q193 0 260 -167h8l152 127h20l152 -127q67 10 116.5 60.5t49.5 123.5q0 71 -27 120t-78 64q-54 -20 -125 -35.5t-123 -15.5h-184l-178 481h-162l61 205h301l162 -444 q138 0 222.5 94t84.5 256q0 163 -93.5 252.5t-289.5 89.5q-118 0 -232.5 -31.5t-190.5 -79.5v246q78 46 196.5 76.5t253.5 30.5q176 0 311 -58l78 131h299l-180 -272q127 -151 127 -375q0 -132 -46 -245t-124 -191q80 -41 125 -116.5t45 -180.5q0 -120 -58 -213.5 t-148 -140.5t-193 -47z" />
<glyph unicode="&#xe11;" horiz-adv-x="1476" d="M1333 0h-278v864q0 33 -17 51.5t-47 18.5q-35 0 -84 -43l-377 -322q-57 -48 -76.5 -110.5t-19.5 -149.5v-309h-278v309q0 132 36.5 213.5t149.5 179.5l61 54q42 36 60 61.5t18 56.5q0 76 -96 76l-84 -69h-20q-46 69 -146 69q-75 0 -115 -32v225q41 33 113 33 q109 0 154 -99h8l117 99h24q208 0 256 -170h10l84 75q111 95 258 95q142 0 215.5 -90t73.5 -230v-856z" />
<glyph unicode="&#xe12;" horiz-adv-x="2215" d="M1794 440v707h279v-748q0 -89 -26.5 -165t-78 -134.5t-136 -91.5t-192.5 -33q-115 0 -199.5 37.5t-154.5 110.5h-12l-201 -148h-29v701q0 216 -126 242l-187 -148h-20l-187 148q-76 -19 -111.5 -114.5t-35.5 -228.5q0 -191 75 -278.5t232 -87.5q58 0 101.5 11t103.5 36 v-233q-61 -25 -108 -36.5t-115 -11.5q-91 0 -172 19.5t-154.5 64.5t-126.5 111.5t-84 166.5t-31 224q0 251 120 412.5t335 202.5l164 -164h8l164 164q197 -15 315.5 -136t118.5 -323v-277q0 -97 61 -158t175 -61t174.5 61t60.5 158z" />
<glyph unicode="&#xe13;" horiz-adv-x="2183" d="M2015 -25h-28l-201 148h-12q-141 -148 -353 -148q-85 0 -155.5 22t-120 60.5t-84 92t-50.5 116t-16 133.5v195q0 174 -69 261t-240 87q-249 0 -313 -176h303v-164q-105 -14 -175.5 -105.5t-70.5 -191.5q0 -62 33 -89.5t100 -27.5q84 0 195 48v-213q-34 -15 -58.5 -23.5 t-71.5 -16.5t-102 -8q-175 0 -274.5 73t-99.5 218q0 109 54.5 194.5t141.5 141.5h-250v123q60 228 205.5 339.5t386.5 111.5q279 0 431.5 -141.5t152.5 -399.5v-195q0 -97 60 -158t171 -61t171.5 61.5t60.5 157.5v707h278v-1172z" />
<glyph unicode="&#xe14;" horiz-adv-x="1462" d="M1319 0h-279v614q0 155 -81 235.5t-240 80.5q-91 0 -159.5 -31t-107.5 -84.5t-58 -116.5t-19 -135q0 -70 18 -131t54 -112t99 -81t146 -30q80 0 185 43v-234q-105 -43 -203 -43q-120 0 -218.5 33.5t-164.5 90t-110.5 133.5t-64.5 161t-20 176q0 94 20.5 179.5t67.5 164.5 t117.5 136.5t177.5 92t240 34.5q132 0 239.5 -32t189 -96.5t126.5 -169.5t45 -243v-635z" />
<glyph unicode="&#xe15;" horiz-adv-x="1499" d="M1356 0h-279v676q0 109 -36 169t-95 73l-198 -148h-21l-199 148q-74 -19 -112.5 -115.5t-38.5 -233.5q0 -187 78.5 -273.5t242.5 -86.5q108 0 215 47v-233q-109 -48 -233 -48q-95 0 -179 20t-159 64.5t-128.5 111.5t-84.5 166.5t-31 223.5q0 255 123 415t340 200 l172 -164h8l172 164q203 -15 323 -136t120 -323v-717z" />
<glyph unicode="&#xe16;" horiz-adv-x="1466" d="M1323 0h-279v594q0 176 -73 262t-260 86q-271 0 -338 -176h303v-164q-105 -14 -175.5 -105.5t-70.5 -191.5q0 -62 33 -89.5t100 -27.5q84 0 195 48v-213q-34 -15 -58.5 -23.5t-71.5 -16.5t-102 -8q-175 0 -274.5 73t-99.5 218q0 109 54.5 194.5t141.5 141.5h-250v123 q61 229 210.5 340t406.5 111q297 0 452.5 -140.5t155.5 -400.5v-635z" />
<glyph unicode="&#xe17;" horiz-adv-x="1417" d="M1274 0h-279v629q0 138 -66.5 219.5t-207.5 81.5t-208 -82t-67 -219v-629h-278v1147h278v-123h13q57 71 150 111.5t214 40.5q223 0 337 -135.5t114 -370.5v-670z" />
<glyph unicode="&#xe18;" horiz-adv-x="1277" d="M1184 416v-78q0 -170 -136 -266.5t-397 -96.5t-396.5 96.5t-135.5 266.5v143h278v-155q0 -62 64.5 -89.5t189.5 -27.5t189.5 27.5t64.5 89.5v49q0 54 -40 82.5t-136 46.5l-278 49q-180 32 -264.5 101.5t-84.5 205.5q0 81 43.5 143.5t119 99.5t168.5 55t200 18 q133 0 263 -26t226 -75v-241q-75 45 -232.5 76.5t-295.5 31.5q-213 0 -213 -76q0 -36 47.5 -58.5t159.5 -43.5l280 -51q155 -28 235.5 -97t80.5 -200z" />
<glyph unicode="&#xe19;" horiz-adv-x="1417" d="M1249 -25h-28l-201 148h-12q-138 -148 -371 -148q-125 0 -220.5 39t-154.5 109.5t-89 165t-30 209.5v649h279v-629q0 -149 65 -223t209 -74t209.5 74t65.5 223v629h278v-1172z" />
<glyph unicode="&#xe1a;" horiz-adv-x="1392" d="M971 481v666h278v-625q0 -265 -140.5 -406t-412.5 -141t-412.5 141t-140.5 406v625h279v-666q0 -127 65.5 -193.5t208.5 -66.5t209 66.5t66 193.5z" />
<glyph unicode="&#xe1b;" horiz-adv-x="1413" d="M991 481v1063h279v-1022q0 -263 -145 -405t-418 -142t-418.5 142t-145.5 405v625h279v-666q0 -260 285 -260q284 0 284 260z" />
<glyph unicode="&#xe1c;" horiz-adv-x="1667" d="M1245 348v799h279v-778q0 -197 -91 -295.5t-278 -98.5q-112 0 -186 33.5t-135 102.5q-62 -68 -137 -102t-185 -34q-369 0 -369 394v778h463l-61 -201h-123v-598q0 -59 36.5 -93t104.5 -34t105 34t37 93v475h258v-475q0 -60 36 -93.5t105 -33.5t105 33.5t36 93.5z" />
<glyph unicode="&#xe1d;" horiz-adv-x="1667" d="M1245 348v1196h279v-1175q0 -197 -91 -295.5t-278 -98.5q-112 0 -186 33.5t-135 102.5q-62 -68 -137 -102t-185 -34q-369 0 -369 394v778h463l-61 -201h-123v-598q0 -59 36.5 -93t104.5 -34t105 34t37 93v475h258v-475q0 -60 36 -93.5t105 -33.5t105 33.5t36 93.5z" />
<glyph unicode="&#xe1e;" horiz-adv-x="1646" d="M1327 0h-315l-107 412q-33 125 -78 321h-8q-45 -196 -78 -321l-106 -412h-316l-278 1147h283l88 -395q55 -243 86 -418h8q21 91 51 210t35 140l80 330l-43 92h340l100 -424q10 -40 39 -150t49 -198h8q18 83 45 218t41 200l84 395h271z" />
<glyph unicode="&#xe1f;" horiz-adv-x="1585" d="M1319 0h-328l-106 412q-52 199 -78 329h-8q-26 -130 -78 -329l-107 -412h-315l-258 1147h283l73 -395q14 -77 40.5 -212t39.5 -206h8q21 91 51 210t35 140l80 330l-43 92h340l101 -424q10 -41 38.5 -150.5t49.5 -197.5h8q14 82 35 216.5t32 201.5l131 792h283z" />
<glyph unicode="&#xe20;" horiz-adv-x="1466" d="M1323 0h-279v594q0 175 -70 261.5t-245 86.5q-252 0 -319 -176h303v-164q-66 -9 -104 -48t-49 -85t-11 -109v-131q0 -125 -77 -189.5t-206 -64.5q-92 0 -160 37v213q55 -37 103 -37q29 0 45 13t16 49v86q0 183 117 266h-252v123q60 228 206.5 339.5t391.5 111.5 q284 0 437 -141t153 -400v-635z" />
<glyph unicode="&#xe21;" horiz-adv-x="1417" d="M995 518v629h279v-649q0 -115 -30 -209.5t-89 -165t-154.5 -109.5t-220.5 -39q-232 0 -370 148h-13l-200 -148h-29v1172h278v-629q0 -149 65.5 -223t209.5 -74t209 74t65 223z" />
<glyph unicode="&#xe22;" horiz-adv-x="1347" d="M926 430v717h278v-758q0 -192 -145 -303t-414 -111q-140 0 -248 31t-171.5 84.5t-95.5 119t-32 140.5q0 91 54 157t149 99q-91 23 -136.5 92t-45.5 150q0 165 102 246.5t277 81.5q130 0 231 -58v-225q-99 57 -190 57q-142 0 -142 -114q0 -45 32 -80t99 -35h234l-62 -225 h-172q-151 0 -151 -125q0 -63 61.5 -106.5t212.5 -43.5q70 0 121 11.5t80.5 29.5t46.5 47t22 56.5t5 64.5z" />
<glyph unicode="&#xe23;" horiz-adv-x="1163" d="M557 467l-119 29q-81 20 -140.5 45t-108.5 64t-74 95.5t-25 130.5q0 165 122.5 255t350.5 90q252 0 449 -101v-241q-200 108 -439 108q-106 0 -155 -22.5t-49 -73.5q0 -46 44 -68t173 -53l119 -29q189 -45 278.5 -123.5t89.5 -224.5q0 -178 -126.5 -275.5t-360.5 -97.5 q-147 0 -267 34.5t-188 76.5v233q69 -42 182 -76t252 -34q230 0 230 115q0 24 -11.5 43t-28 32t-51.5 26t-63.5 21t-83.5 21z" />
<glyph unicode="&#xe24;" horiz-adv-x="1466" d="M1323 -492h-279v1086q0 176 -73 262t-260 86q-271 0 -338 -176h303v-164q-105 -14 -175.5 -105.5t-70.5 -191.5q0 -62 33 -89.5t100 -27.5q84 0 195 48v-213q-34 -15 -58.5 -23.5t-71.5 -16.5t-102 -8q-175 0 -274.5 73t-99.5 218q0 109 54.5 194.5t141.5 141.5h-250v123 q61 229 210.5 340t406.5 111q297 0 452.5 -140.5t155.5 -400.5v-1127z" />
<glyph unicode="&#xe25;" horiz-adv-x="1359" d="M1217 0h-279v406q-181 106 -358 106q-117 0 -172.5 -43.5t-55.5 -112.5q0 -67 45 -107t142 -40q115 0 215 53v-233q-96 -54 -232 -54q-195 0 -313.5 98.5t-118.5 284.5q0 189 128.5 288t340.5 99q209 0 371 -106h8v61q0 124 -78 179t-246 55q-250 0 -442 -109v246 q196 105 492 105q286 0 419.5 -106.5t133.5 -328.5v-741z" />
<glyph unicode="&#xe26;" horiz-adv-x="1466" d="M1323 -492h-279v1086q0 175 -70 261.5t-245 86.5q-252 0 -319 -176h303v-164q-66 -9 -104 -48t-49 -85t-11 -109v-131q0 -125 -77 -189.5t-206 -64.5q-92 0 -160 37v213q55 -37 103 -37q29 0 45 13t16 49v86q0 183 117 266h-252v123q60 228 206.5 339.5t391.5 111.5 q284 0 437 -141t153 -400v-1127z" />
<glyph unicode="&#xe27;" horiz-adv-x="1200" d="M90 74v245q168 -98 356 -98q183 0 280 90.5t97 263.5t-97 264t-280 91q-186 0 -356 -99v246q170 99 387 99q293 0 459 -152.5t166 -448.5t-166 -448t-459 -152q-217 0 -387 99z" />
<glyph unicode="&#xe28;" horiz-adv-x="1417" d="M1274 0h-279v637q0 138 -70 215.5t-216 77.5t-216.5 -77.5t-70.5 -215.5v-135q77 71 192 71h177l-62 -225h-143q-97 0 -130.5 -44t-33.5 -165v-139h-279v678q0 227 145.5 362.5t420.5 135.5q147 0 268 -46l72 119h299l-172 -260q98 -122 98 -311v-678z" />
<glyph unicode="&#xe29;" horiz-adv-x="1437" d="M1438 553h-164v-31q0 -265 -142.5 -406t-422.5 -141t-423 141t-143 406v625h279v-666q0 -128 67.5 -194t219.5 -66t219 66t67 194v72h-327l61 205h266v389h279v-389h164v-205z" />
<glyph unicode="&#xe2a;" horiz-adv-x="1359" d="M1217 0h-279v406q-181 106 -358 106q-117 0 -172.5 -43.5t-55.5 -112.5q0 -67 45 -107t142 -40q115 0 215 53v-233q-96 -54 -232 -54q-195 0 -313.5 98.5t-118.5 284.5q0 189 128.5 288t340.5 99q209 0 371 -106h8v41q0 69 -26 119t-74 79t-109.5 42.5t-138.5 13.5 q-237 0 -418 -109v246q179 105 453 105q167 0 295 -46l71 119h299l-168 -252q95 -113 95 -276v-721z" />
<glyph unicode="&#xe2b;" horiz-adv-x="1417" d="M1274 0h-279v371q0 124 -39.5 180.5t-136.5 56.5h-170l-203 -176v-432h-278v1147h278v-408l480 408h348l-365 -316q187 -9 276 -111t89 -308v-412z" />
<glyph unicode="&#xe2c;" horiz-adv-x="1576" d="M1327 0h-315l-109 299q-59 165 -90 319h-8q-19 -100 -37 -166.5t-53 -152.5l-121 -299h-315l-238 1147h283l110 -588q23 -127 39 -285h8q53 177 99 285l118 293l-41 106h240l150 -399q32 -87 92 -285h8q29 181 53 285l60 264q8 50 8 66q0 97 -71 147t-179 62v131l156 315 h282l-180 -332q121 -25 186.5 -107t65.5 -210q0 -64 -19 -145z" />
<glyph unicode="&#xe2d;" horiz-adv-x="1355" d="M598 438h-231v-127q97 -90 262 -90q168 0 259 92.5t91 261.5q0 168 -108.5 261.5t-297.5 93.5q-109 0 -227 -32.5t-217 -96.5v254q96 61 224 91t253 30q294 0 472.5 -160t178.5 -441q0 -284 -161.5 -442t-442.5 -158q-168 0 -307 59t-225 169v440h538z" />
<glyph unicode="&#xe2e;" horiz-adv-x="1355" d="M598 438h-231v-127q97 -90 262 -90q168 0 259 92.5t91 261.5q0 168 -108.5 261.5t-297.5 93.5q-109 0 -227 -32.5t-217 -96.5v254q96 61 224 91t253 30q177 0 324 -64l82 137h299l-187 -280q133 -152 133 -394q0 -284 -161.5 -442t-442.5 -158q-168 0 -307 59t-225 169 v440h538z" />
<glyph unicode="&#xe2f;" horiz-adv-x="1298" d="M1135 0h-279v557h-8q-77 -57 -155.5 -84t-205.5 -27q-113 0 -207 40.5t-154 125t-60 199.5q0 86 34 157t89 115.5t121.5 68.5t135.5 24q131 0 246 -54v-233q-112 53 -205 53q-72 0 -115.5 -37t-43.5 -94q0 -59 50 -95t150 -36q163 0 328 111v360h279v-1151z" />
<glyph unicode="&#xe30;" horiz-adv-x="831" d="M721 676h-615v368h238v-163h438zM721 123h-615v389h238v-184h438z" />
<glyph unicode="&#xe31;" d="M61 1331h-831v377h238v-172h655z" />
<glyph unicode="&#xe32;" horiz-adv-x="1060" d="M918 0h-279v649q0 141 -63 211t-214 70q-196 0 -346 -105v254q149 97 387 97q267 0 391 -119.5t124 -366.5v-690z" />
<glyph unicode="&#xe33;" horiz-adv-x="1060" d="M918 0h-279v649q0 141 -63 211t-214 70q-196 0 -346 -105v254q149 97 387 97q267 0 391 -119.5t124 -366.5v-690zM-195 1532q0 37 -25.5 64.5t-82.5 27.5t-83 -27.5t-26 -64.5t26 -64.5t83 -27.5t82.5 27.5t25.5 64.5zM-43 1532q0 -98 -65 -163.5t-195 -65.5t-195 65.5 t-65 163.5t65 163.5t195 65.5t195 -65.5t65 -163.5z" />
<glyph unicode="&#xe34;" d="M-143 1331h-1086l62 205h1024v-205z" />
<glyph unicode="&#xe35;" d="M-143 1331h-1086l62 205h786v205h238v-410z" />
<glyph unicode="&#xe36;" d="M-332 1331h-897l62 205h592q0 104 61.5 175t181.5 71q121 0 182.5 -62.5t61.5 -163.5q0 -97 -67.5 -161t-176.5 -64zM-254 1567q0 31 -22 52t-58 21t-58 -21t-22 -52q0 -32 22 -53t58 -21t58 21t22 53z" />
<glyph unicode="&#xe37;" d="M-143 1331h-1086l62 205h454v205h213v-205h144v205h213v-410z" />
<glyph unicode="&#xe38;" d="M-143 -573h-238v245h-164l62 205h340v-450z" />
<glyph unicode="&#xe39;" d="M-360 -342v219h217v-207q0 -141 -96.5 -212.5t-243.5 -71.5q-71 0 -130.5 14.5t-107.5 44.5t-75 83.5t-27 125.5v18h-164l61 205h320v-219q0 -96 123 -96q17 0 29 1t31.5 6t31.5 14.5t21.5 28.5t9.5 46z" />
<glyph unicode="&#xe3a;" d="M-123 -268q0 -66 -44 -110t-116 -44t-115.5 44t-43.5 110t43.5 109.5t115.5 43.5t116 -43.5t44 -109.5z" />
<glyph unicode="&#xe3f;" horiz-adv-x="1429" d="M807 -205h-205v205h-422v1413h422v205h205v-205h31q191 0 299 -113.5t108 -291.5q0 -158 -94 -265q86 -51 131 -141t45 -199q0 -177 -115 -290t-325 -113h-80v-205zM602 827v340h-143v-340h143zM807 1167v-340q71 3 115.5 51t44.5 119t-44.5 119t-115.5 51zM807 246h39 q92 0 147.5 57t55.5 150q0 119 -91 176q-51 -15 -133 -15h-18v-368zM602 246v368h-143v-368h143z" />
<glyph unicode="&#xe40;" horiz-adv-x="655" d="M569 0h-401v1147h278v-901h185z" />
<glyph unicode="&#xe41;" horiz-adv-x="1310" d="M569 0h-401v1147h278v-901h185zM1225 0h-402v1147h279v-901h184z" />
<glyph unicode="&#xe42;" horiz-adv-x="808" d="M702 0h-442v1104q0 74 -26 131t-70 90.5t-91 52t-100 25.5v205q96 111 237.5 166t311.5 55q213 0 369 -78v-217q-156 78 -348 78q-100 0 -172.5 -19t-132.5 -73q152 -41 226.5 -142t74.5 -233v-899h225z" />
<glyph unicode="&#xe43;" horiz-adv-x="753" d="M668 0h-443v1057q0 61 20.5 112t51.5 83.5t67.5 64t67.5 55t51.5 54t20.5 63.5q0 54 -63.5 88.5t-166.5 34.5q-183 0 -303 -86v217q120 86 353 86q196 0 317 -87.5t121 -228.5q0 -62 -14 -111.5t-37 -81.5t-50.5 -57.5t-55 -45.5t-50.5 -39.5t-37 -44.5t-14 -56v-831h225 z" />
<glyph unicode="&#xe44;" horiz-adv-x="774" d="M688 0h-442v1149q0 155 39.5 264t136.5 174h-504l62 217h770v-213q-127 -44 -176.5 -153t-49.5 -330v-862h226z" />
<glyph unicode="&#xe45;" horiz-adv-x="1060" d="M918 -492h-279v1141q0 141 -63 211t-214 70q-196 0 -346 -105v254q149 97 387 97q267 0 391 -119.5t124 -366.5v-1182z" />
<glyph unicode="&#xe46;" horiz-adv-x="1400" d="M1204 -246h-278v983q0 162 -135 193l-156 -123h-21l-155 123q-63 -15 -99 -61t-36 -107q0 -73 53 -118.5t151 -45.5q83 0 144 41v-233q-58 -41 -172 -41q-90 0 -165 22t-137 68t-97 127t-35 190q0 374 417 404l138 -132h8l137 132q438 -23 438 -410v-1012z" />
<glyph unicode="&#xe47;" d="M-238 1544v-188q-61 -33 -139 -33q-97 0 -203 72h-8l-121 -72q-344 0 -344 262q0 125 78 192.5t217 67.5h520v-184h-499q-99 0 -99 -76t99 -76l143 72h21q61 -40 108 -56t100 -16q62 0 127 35z" />
<glyph unicode="&#xe48;" d="M-143 1880h-238v363h238v-363z" />
<glyph unicode="&#xe49;" d="M72 1880h-621v186h-184l61 197h353v-197h452z" />
<glyph unicode="&#xe4a;" d="M-139 1880h-195q47 56 47 115q0 68 -59 96l-105 -72h-20l-104 72q-60 -28 -60 -96q0 -53 49 -115h-219q-49 77 -49 166q0 86 69 147.5t193 81.5l127 -106h8l127 106q112 -18 173 -71t67 -129q53 53 53 125q0 55 -31 102h201q31 -47 31 -125q0 -126 -87 -201t-216 -96z " />
<glyph unicode="&#xe4b;" d="M51 2034h-205v-154h-217v154h-204v159h204v154h217v-154h205v-159z" />
<glyph unicode="&#xe4c;" d="M-53 1917h-307v-164h-234v361h602z" />
<glyph unicode="&#xe4d;" d="M-195 1532q0 37 -25.5 64.5t-82.5 27.5t-83 -27.5t-26 -64.5t26 -64.5t83 -27.5t82.5 27.5t25.5 64.5zM-43 1532q0 -98 -65 -163.5t-195 -65.5t-195 65.5t-65 163.5t65 163.5t195 65.5t195 -65.5t65 -163.5z" />
<glyph unicode="&#xe4e;" d="M-391 1518v-158q-63 -39 -191 -39q-122 0 -202 47.5t-80 132.5q0 66 47 115t145 70q-38 18 -55.5 47t-17.5 55q0 74 86.5 119t212.5 45q67 0 131 -14t102 -35v-123q-27 11 -88 24t-111 13q-90 0 -90 -48q0 -19 23 -38t69 -19h84l-41 -115h-170q-39 0 -61.5 -18.5 t-22.5 -42.5q0 -23 23.5 -41t62.5 -18q78 0 144 41z" />
<glyph unicode="&#xe4f;" horiz-adv-x="1474" d="M1376 575q0 -126 -45 -235.5t-126.5 -190.5t-202.5 -127.5t-265 -46.5t-265 46.5t-202.5 127.5t-126.5 190.5t-45 235.5t45 236t126.5 191t202.5 127.5t265 46.5t265 -46.5t202.5 -127.5t126.5 -191t45 -236zM1192 575q0 118 -52 216.5t-157 159.5t-246 61 q-106 0 -193 -35.5t-143.5 -96t-87 -139t-30.5 -166.5t30.5 -166.5t87 -138.5t143.5 -95.5t193 -35.5q141 0 246 61t157 159t52 216zM1008 575q0 -108 -71 -188t-200 -80t-199.5 80t-70.5 188t70.5 188.5t199.5 80.5t200 -80.5t71 -188.5z" />
<glyph unicode="&#xe50;" horiz-adv-x="1400" d="M1303 514q0 -111 -38 -207.5t-110.5 -171t-189.5 -117.5t-265 -43t-264.5 43t-189.5 117.5t-110.5 171t-37.5 207.5t37.5 207.5t110.5 171t189.5 117.5t264.5 43t265 -43t189.5 -117.5t110.5 -171t38 -207.5zM1032 514q0 57 -19 109t-57 96t-104 70t-152 26t-151.5 -26 t-103.5 -70t-57 -95.5t-19 -109.5t19 -109.5t57 -95.5t103.5 -70t151.5 -26t152 26t104 70t57 96t19 109z" />
<glyph unicode="&#xe51;" horiz-adv-x="1413" d="M319 -82v238q119 -66 312 -66q113 0 192.5 26t124.5 75.5t64.5 112.5t19.5 147q0 364 -360 364q-149 0 -226 -57t-77 -152q0 -76 54 -124t169 -48q107 0 196 47v-225q-89 -47 -221 -47q-233 0 -351 107.5t-118 283.5q0 96 35 176.5t105 143t184 98t262 35.5 q304 0 461.5 -149.5t157.5 -438.5q0 -140 -37.5 -250.5t-114.5 -192.5t-203 -125.5t-295 -43.5q-217 0 -334 65z" />
<glyph unicode="&#xe52;" horiz-adv-x="1589" d="M1454 676v-215q0 -240 -154.5 -363t-500.5 -123t-501 123t-155 363v788h271v-809q0 -49 17.5 -86.5t59 -68.5t119.5 -47.5t189 -16.5t189 16.5t119.5 47.5t59 68.5t17.5 86.5v236q0 70 -18 103t-64 48l-113 -94h-20l-113 94q-90 -28 -90 -137q0 -121 106 -121h144 l-62 -213h-102q-71 0 -130 19t-106 58.5t-73.5 107.5t-26.5 159q0 326 340 353l119 -103h8l119 103q183 -15 267.5 -101.5t84.5 -275.5z" />
<glyph unicode="&#xe53;" horiz-adv-x="1568" d="M1425 0h-270v668q0 147 -111 147q-55 0 -84.5 -37t-29.5 -110v-299h-250v299q0 73 -30.5 110t-86.5 37q-88 0 -131 -84t-43 -221t42.5 -219t125.5 -82q70 0 123 37v-234q-51 -37 -145 -37q-191 0 -303.5 140t-112.5 409q0 263 108.5 396t298.5 133q96 0 164 -35t121 -109 q57 74 127 109t168 35q319 0 319 -365v-688z" />
<glyph unicode="&#xe54;" horiz-adv-x="1384" d="M1282 -25h-102q-209 0 -322 74q-120 -74 -266 -74q-147 0 -259 71t-169.5 189.5t-57.5 264.5q0 111 35 205t104 166t180.5 112.5t254.5 40.5h283q90 0 90 115v110h270v-119q0 -181 -92.5 -262.5t-267.5 -81.5h-283q-81 0 -141.5 -23t-95 -64.5t-50.5 -91t-16 -109.5 q0 -53 13 -102t40 -91t74.5 -67t109.5 -25q66 0 119 18q-8 39 -8 88q0 81 26.5 140t73.5 92.5t104.5 49t127.5 15.5q93 0 155 -30v-185q-64 31 -125 31q-112 0 -112 -106q0 -66 53 -95.5t180 -29.5h135z" />
<glyph unicode="&#xe55;" horiz-adv-x="1384" d="M1282 -25h-102q-209 0 -322 74q-120 -74 -266 -74q-147 0 -259 71t-169.5 189.5t-57.5 264.5q0 168 79.5 295.5t236.5 187.5q-14 35 -14 80q0 96 64.5 160.5t174.5 64.5t175 -64.5t65 -160.5q0 -27 -2 -39h78q90 0 90 115v110h270v-119q0 -181 -92.5 -262.5t-267.5 -81.5 h-283q-81 0 -141.5 -23t-95 -64.5t-50.5 -91t-16 -109.5q0 -53 13 -102t40 -91t74.5 -67t109.5 -25q66 0 119 18q-8 39 -8 88q0 81 26.5 140t73.5 92.5t104.5 49t127.5 15.5q93 0 155 -30v-185q-64 31 -125 31q-112 0 -112 -106q0 -66 53 -95.5t180 -29.5h135zM739 1063 q0 37 -26 61.5t-66 24.5t-66 -24.5t-26 -61.5t26 -61.5t66 -24.5t66 24.5t26 61.5z" />
<glyph unicode="&#xe56;" horiz-adv-x="1376" d="M625 598v-217q-72 43 -136 43q-57 0 -84.5 -22t-27.5 -58q0 -62 72.5 -96.5t191.5 -34.5q184 0 271 81.5t87 221.5q0 143 -86 227t-251 84q-88 0 -163 -24t-122 -64h-189l-163 510h270l86 -282q113 86 324 86q279 0 422 -138t143 -403q0 -537 -600 -537q-269 0 -416.5 99 t-147.5 262q0 129 89.5 217t257.5 88q90 0 172 -43z" />
<glyph unicode="&#xe57;" horiz-adv-x="1961" d="M1548 328v921h271v-930q0 -181 -93 -262.5t-268 -81.5t-267.5 81.5t-92.5 262.5v357q0 139 -103 139q-51 0 -78.5 -35t-27.5 -104v-307h-250v307q0 68 -29.5 103.5t-77.5 35.5q-73 0 -108 -83t-35 -218q0 -138 36.5 -221.5t111.5 -83.5q28 0 64.5 10t57.5 27v-234 q-51 -37 -149 -37q-391 0 -391 549q0 529 362 529q100 0 166 -38.5t117 -111.5q56 77 126 113.5t165 36.5q147 0 230 -84.5t83 -259.5v-381q0 -115 90 -115t90 115z" />
<glyph unicode="&#xe58;" horiz-adv-x="1433" d="M967 -25l-181 103h-8l-180 -103q-242 0 -367 142t-125 383t125 382.5t367 141.5h344q90 0 90 115v110h271v-119q0 -181 -93 -262.5t-268 -81.5h-344q-105 0 -163 -78.5t-58 -207.5t58 -208t163 -79l174 102h21l174 -102q69 0 100 30t31 91q0 63 -29 94t-78 31h-164 l62 213h123q153 0 244.5 -86t91.5 -262q0 -349 -381 -349z" />
<glyph unicode="&#xe59;" horiz-adv-x="1435" d="M1163 0h-270l-225 688q-12 38 -19.5 55.5t-20 37.5t-29.5 27t-42 7q-83 0 -125.5 -84.5t-42.5 -220.5q0 -135 42.5 -218t125.5 -83q72 0 123 37v-234q-52 -37 -145 -37q-191 0 -303.5 140t-112.5 413q0 261 108 393t318 132q177 0 268 -107q53 107 172 107q111 0 176 -86 l86 282h271l-195 -612h-168q-15 97 -47 143.5t-88 46.5q-75 0 -102 -77z" />
<glyph unicode="&#xe5b;" horiz-adv-x="2576" d="M2540 643v-246q-83 60 -197 60q-132 0 -225 -90t-148 -242h-41l-174 307h-8l-199 -348h-41l-223 389h-8q-34 -203 -181 -325.5t-393 -122.5q-176 0 -311 63t-214 189.5t-79 300.5q0 172 78.5 299.5t206.5 190t287 62.5q129 0 223 -51v-245q-94 51 -197 51 q-138 0 -228.5 -79.5t-90.5 -225.5q0 -149 96 -229.5t246 -80.5q183 0 293 115t110 295q0 56 -16 100l-59 103h243l234 -406h8l199 365h41l174 -324h8q131 184 370 184q134 0 216 -59z" />
<glyph unicode="&#x2000;" horiz-adv-x="1173" />
<glyph unicode="&#x2001;" horiz-adv-x="2347" />
<glyph unicode="&#x2002;" horiz-adv-x="1173" />
<glyph unicode="&#x2003;" horiz-adv-x="2347" />
<glyph unicode="&#x2004;" horiz-adv-x="782" />
<glyph unicode="&#x2005;" horiz-adv-x="586" />
<glyph unicode="&#x2006;" horiz-adv-x="391" />
<glyph unicode="&#x2007;" horiz-adv-x="391" />
<glyph unicode="&#x2008;" horiz-adv-x="293" />
<glyph unicode="&#x2009;" horiz-adv-x="469" />
<glyph unicode="&#x200a;" horiz-adv-x="130" />
<glyph unicode="&#x2010;" horiz-adv-x="811" d="M754 422h-697v237h697v-237z" />
<glyph unicode="&#x2011;" horiz-adv-x="811" d="M754 422h-697v237h697v-237z" />
<glyph unicode="&#x2012;" horiz-adv-x="811" d="M754 422h-697v237h697v-237z" />
<glyph unicode="&#x2013;" horiz-adv-x="1343" d="M1286 422h-1229v237h1229v-237z" />
<glyph unicode="&#x2014;" horiz-adv-x="1957" d="M1901 422h-1844v237h1844v-237z" />
<glyph unicode="&#x2018;" horiz-adv-x="520" d="M360 938h-258l111 475h201z" />
<glyph unicode="&#x2019;" horiz-adv-x="520" d="M307 938h-201l54 475h258z" />
<glyph unicode="&#x201a;" horiz-adv-x="520" d="M307 -217h-201l54 475h258z" />
<glyph unicode="&#x201c;" horiz-adv-x="954" d="M360 938h-258l111 475h201zM795 938h-258l110 475h201z" />
<glyph unicode="&#x201d;" horiz-adv-x="954" d="M307 938h-201l54 475h258zM741 938h-200l53 475h258z" />
<glyph unicode="&#x201e;" horiz-adv-x="954" d="M307 -217h-201l54 475h258zM741 -217h-200l53 475h258z" />
<glyph unicode="&#x2020;" horiz-adv-x="1056" d="M672 0h-287v815h-328v238h328v360h287v-360h327v-238h-327v-815z" />
<glyph unicode="&#x2021;" horiz-adv-x="1056" d="M672 0h-287v360h-328v246h328v201h-328v246h328v360h287v-360h327v-246h-327v-201h327v-246h-327v-360z" />
<glyph unicode="&#x2022;" horiz-adv-x="1089" d="M934 649q0 -158 -106 -267.5t-283 -109.5t-283 109.5t-106 267.5t106 267.5t283 109.5t283 -109.5t106 -267.5z" />
<glyph unicode="&#x2026;" horiz-adv-x="1589" d="M451 0h-279v287h279v-287zM934 0h-279v287h279v-287zM1417 0h-278v287h278v-287z" />
<glyph unicode="&#x202f;" horiz-adv-x="469" />
<glyph unicode="&#x2030;" horiz-adv-x="2373" d="M399 745q-142 0 -217.5 99.5t-75.5 249.5t75.5 249t217.5 99t217.5 -99t75.5 -249t-75.5 -249.5t-217.5 -99.5zM469 0h-299l1024 1413h299zM399 930q43 0 65.5 47t22.5 117t-22.5 116.5t-65.5 46.5t-65.5 -46.5t-22.5 -116.5t22.5 -117t65.5 -47zM1266 -25 q-142 0 -217.5 99.5t-75.5 249.5t75.5 249t217.5 99t217.5 -99t75.5 -249t-75.5 -249.5t-217.5 -99.5zM1974 -25q-142 0 -217.5 99.5t-75.5 249.5t75.5 249t217.5 99t217.5 -99t75.5 -249t-75.5 -249.5t-217.5 -99.5zM1266 160q43 0 65.5 47t22.5 117t-22.5 116.5 t-65.5 46.5t-65.5 -46.5t-22.5 -116.5t22.5 -117t65.5 -47zM1974 160q43 0 65.5 47t22.5 117t-22.5 116.5t-65.5 46.5t-65.5 -46.5t-22.5 -116.5t22.5 -117t65.5 -47z" />
<glyph unicode="&#x2039;" horiz-adv-x="778" d="M631 195h-258l-246 335v21l246 336h258l-246 -342v-8z" />
<glyph unicode="&#x203a;" horiz-adv-x="778" d="M406 195h-259l246 342v8l-246 342h259l245 -336v-21z" />
<glyph unicode="&#x2044;" horiz-adv-x="913" d="M94 0h-299l1024 1413h299z" />
<glyph unicode="&#x205f;" horiz-adv-x="586" />
<glyph unicode="&#x20ac;" horiz-adv-x="1527" d="M1442 397v-258q-203 -164 -496 -164q-262 0 -446 129t-252 353h-217l61 180h123q-2 23 -2 72q0 48 2 71h-195l62 181h166q68 224 251.5 352.5t446.5 128.5q293 0 496 -164v-258q-82 74 -201 123t-264 49q-154 0 -263.5 -60.5t-166.5 -170.5h620l-61 -181h-610 q-4 -46 -4 -71q0 -26 4 -72h661l-61 -180h-549q58 -110 166 -171t264 -61q140 0 258.5 47t206.5 125z" />
<glyph unicode="&#x2122;" horiz-adv-x="1923" d="M1853 729h-225l-49 203q-34 143 -39 211h-8q-9 -83 -47 -211l-62 -203h-202l-62 203q-27 86 -35 126t-10 85h-8q-5 -68 -39 -211l-47 -203h-217l160 674l-21 47h234l71 -209q50 -145 76 -242h8q26 97 76 242l57 162l-20 47h233zM528 729h-217v516h-274v197h766v-197h-275 v-516z" />
<glyph unicode="&#x2202;" horiz-adv-x="1327" d="M858 961h8q-32 131 -112 255.5t-205 225.5h336q327 -293 327 -799q0 -156 -32.5 -277t-99.5 -209.5t-176 -135t-257 -46.5q-139 0 -246.5 41t-173.5 113t-99.5 165t-33.5 202q0 151 60.5 271t179.5 190.5t278 70.5q150 0 246 -67zM647 217q130 0 206.5 80t76.5 205 q0 124 -77 204t-206 80t-205.5 -80t-76.5 -204q0 -126 76 -205.5t206 -79.5z" />
<glyph unicode="&#x220f;" horiz-adv-x="1347" d="M1176 -246h-287v1401h-430v-1401h-287v1659h1004v-1659z" />
<glyph unicode="&#x2211;" horiz-adv-x="1122" d="M991 -246h-860v197l434 629v8l-434 629v196h860v-237h-524l401 -582v-21l-401 -581h524v-238z" />
<glyph unicode="&#x2212;" horiz-adv-x="1294" d="M1180 524h-1065v221h1065v-221z" />
<glyph unicode="&#x221a;" horiz-adv-x="1191" d="M668 -246h-349l-286 932h274l187 -651l391 1378h274z" />
<glyph unicode="&#x221e;" horiz-adv-x="1843" d="M928 426h-8q-72 -96 -165.5 -150.5t-226.5 -54.5q-134 0 -234 57.5t-150 151t-50 207.5t50 207.5t150 151t234 57.5q133 0 226.5 -54.5t165.5 -150.5h8q73 97 164 151t223 54q134 0 234 -57.5t150 -151t50 -207.5t-50 -207.5t-150 -151t-234 -57.5q-132 0 -223 54 t-164 151zM788 635v8q-50 84 -100 126t-129 42q-90 0 -142 -52t-52 -122t52 -122t142 -52q78 0 127.5 41.5t101.5 130.5zM1055 643v-8q52 -89 101.5 -130.5t127.5 -41.5q90 0 142.5 52t52.5 122t-52.5 122t-142.5 52q-79 0 -129 -42t-100 -126z" />
<glyph unicode="&#x222b;" horiz-adv-x="1040" d="M37 -254v250q101 -45 192 -45q75 0 111.5 31t36.5 116v971q0 103 30 178t84.5 116t120.5 60t148 19q125 0 244 -53v-250q-101 45 -193 45q-75 0 -111 -31t-36 -117v-970q0 -103 -30 -178t-84.5 -116t-120.5 -60t-148 -19q-125 0 -244 53z" />
<glyph unicode="&#x2248;" horiz-adv-x="1277" d="M926 1071h245q0 -190 -70 -266t-227 -76q-78 0 -138.5 16.5t-96.5 39.5t-65.5 46t-61 39.5t-66.5 16.5q-94 0 -94 -117h-246q0 190 71.5 266t228.5 76q78 0 138.5 -16.5t96.5 -39.5t65.5 -46t61 -39.5t66.5 -16.5q52 0 72 31t20 86zM926 500h245q0 -190 -70 -266 t-227 -76q-78 0 -138.5 16t-96.5 39t-65.5 46.5t-61 39.5t-66.5 16q-94 0 -94 -116h-246q0 190 71.5 266t228.5 76q78 0 138.5 -16.5t96.5 -39.5t65.5 -46t61 -39.5t66.5 -16.5q52 0 72 31t20 86z" />
<glyph unicode="&#x2260;" horiz-adv-x="1351" d="M1208 299h-563l-133 -299h-246l133 299h-256v221h355l102 230h-457v221h555l142 319h245l-141 -319h264v-221h-362l-103 -230h465v-221z" />
<glyph unicode="&#x2264;" horiz-adv-x="1355" d="M1200 471l-1065 225v226l1065 225v-221l-706 -117l706 -117v-221zM1200 123h-1065v213h1065v-213z" />
<glyph unicode="&#x2265;" horiz-adv-x="1355" d="M1221 696l-1065 -225v221l706 117l-706 117v221l1065 -225v-226zM1221 123h-1065v213h1065v-213z" />
<glyph unicode="&#x25ca;" horiz-adv-x="1204" d="M766 0h-328l-360 696v21l360 696h328l360 -696v-21zM602 201l250 501v9l-250 501l-250 -501v-9z" />
<glyph unicode="&#x25fc;" horiz-adv-x="1024" d="M0 1024h1024v-1024h-1024v1024z" />
<glyph unicode="&#xf700;" horiz-adv-x="1275" d="M592 0h-184l-179 481h-161l61 205h301l162 -444q138 0 222.5 94t84.5 256q0 163 -93.5 252.5t-289.5 89.5q-118 0 -233 -31.5t-191 -79.5v246q78 46 197 76.5t254 30.5q176 0 311 -58l78 131h299l-180 -272q127 -151 127 -377q0 -133 -47.5 -247t-127.5 -190.5 t-186.5 -119.5t-224.5 -43z" />
<glyph unicode="&#xf701;" d="M-543 1331h-839l61 205h778v-205z" />
<glyph unicode="&#xf702;" d="M-543 1331h-839l61 205h541v205h237v-410z" />
<glyph unicode="&#xf703;" d="M-725 1331h-657l61 205h352q0 104 62 175t182 71q121 0 182.5 -62.5t61.5 -163.5q0 -97 -67.5 -161t-176.5 -64zM-645 1567q0 31 -22 52t-58 21t-58 -21t-22 -52q0 -32 22 -53t58 -21t58 21t22 53z" />
<glyph unicode="&#xf704;" d="M-543 1331h-839l61 205h242v205h200v-205h136v205h200v-410z" />
<glyph unicode="&#xf705;" d="M-616 1331h-258v422h258v-422z" />
<glyph unicode="&#xf706;" d="M-573 1331h-525v205h-184l61 205h361v-205h348z" />
<glyph unicode="&#xf707;" d="M-614 1331h-189q49 61 49 125q0 80 -61 105l-82 -74h-21l-81 74q-62 -25 -62 -105q0 -64 49 -125h-209q-49 90 -49 178q0 86 67.5 152t184.5 84l107 -107h8l106 107q107 -17 168.5 -86.5t61.5 -167.5q53 62 53 156q0 67 -31 127h209q33 -59 33 -129q0 -86 -46 -155 t-115 -107.5t-150 -51.5z" />
<glyph unicode="&#xf708;" d="M-537 1495h-215v-164h-237v164h-215v174h215v164h237v-164h215v-174z" />
<glyph unicode="&#xf709;" d="M-569 1495h-267v-164h-237v369h565z" />
<glyph unicode="&#xf70a;" d="M-156 1331h-258v422h258v-422z" />
<glyph unicode="&#xf70b;" d="M4 1331h-682v205h-184l61 205h361v-205h506z" />
<glyph unicode="&#xf70c;" d="M-360 1331h-189q49 61 49 125q0 35 -14 68.5t-47 46.5l-111 -74h-20l-111 74q-59 -25 -59 -103q0 -34 13.5 -72.5t33.5 -64.5h-229q-48 91 -48 170q0 95 71.5 162t199.5 92l135 -106h8l135 106q108 -17 169 -88t61 -176q53 62 53 156q0 67 -31 127h209q33 -59 33 -129 q0 -86 -46 -155t-115 -107.5t-150 -51.5z" />
<glyph unicode="&#xf70d;" d="M-96 1495h-226v-164h-237v164h-225v174h225v164h237v-164h226v-174z" />
<glyph unicode="&#xf70e;" d="M-82 1495h-326v-164h-258v369h646z" />
<glyph unicode="&#xf70f;" horiz-adv-x="2158" d="M1737 420v727h278v-768q0 -85 -29.5 -156.5t-89.5 -128t-160 -88t-231 -31.5t-231 31.5t-160 88t-89.5 128t-29.5 156.5v215q0 174 -69 261t-240 87q-249 0 -313 -176h303v-164q-105 -14 -175.5 -105.5t-70.5 -191.5q0 -62 33 -89.5t100 -27.5q84 0 195 48v-213 q-34 -15 -58.5 -23.5t-71.5 -16.5t-102 -8q-175 0 -274.5 73t-99.5 218q0 109 54.5 194.5t141.5 141.5h-250v123q60 228 205.5 339.5t386.5 111.5q279 0 431.5 -141.5t152.5 -399.5v-215q0 -88 61.5 -143.5t169.5 -55.5t170 55.5t62 143.5z" />
<glyph unicode="&#xf710;" d="M-205 1331h-913v377h237v-172h738z" />
<glyph unicode="&#xf711;" d="M-694 1532q0 37 -26 64.5t-83 27.5t-82.5 -27.5t-25.5 -64.5t25.5 -64.5t82.5 -27.5t83 27.5t26 64.5zM-543 1532q0 -98 -65 -163.5t-195 -65.5t-195 65.5t-65 163.5t65 163.5t195 65.5t195 -65.5t65 -163.5z" />
<glyph unicode="&#xf712;" d="M-506 1544v-188q-61 -33 -139 -33q-54 0 -93 16.5t-96 55.5h-8l-106 -72q-344 0 -344 262q0 125 78 192.5t217 67.5h491v-184h-471q-98 0 -98 -76t98 -76l129 72h21q64 -41 103.5 -56.5t90.5 -15.5q62 0 127 35z" />
<glyph unicode="&#xf713;" d="M-543 1880h-237v363h237v-363z" />
<glyph unicode="&#xf714;" d="M-289 1880h-620v186h-185l62 197h352v-197h453z" />
<glyph unicode="&#xf715;" d="M-463 1880h-194q47 56 47 115q0 68 -60 96l-104 -72h-21l-104 72q-59 -28 -59 -96q0 -53 49 -115h-219q-50 79 -50 166q0 86 69.5 147.5t193.5 81.5l127 -106h8l127 106q112 -18 172.5 -71t66.5 -129q54 54 54 125q0 55 -31 102h201q30 -46 30 -125q0 -126 -87 -201 t-216 -96z" />
<glyph unicode="&#xf716;" d="M-348 2034h-205v-154h-217v154h-205v159h205v154h217v-154h205v-159z" />
<glyph unicode="&#xf717;" d="M-393 1917h-307v-164h-234v361h602z" />
<glyph unicode="&#xf718;" d="M-143 -942h-238v246h-164l62 204h340v-450z" />
<glyph unicode="&#xf719;" d="M-143 -492v-206q0 -72 -26.5 -121.5t-76 -75.5t-106.5 -36.5t-131 -10.5q-61 0 -106 4.5t-91.5 18.5t-76 38t-48 66t-18.5 100v19h-164l61 204h320v-178q0 -96 123 -96q17 0 29 1t31.5 6t31.5 14.5t21.5 28.5t9.5 46v178h217z" />
<glyph unicode="&#xf71a;" d="M-123 -637q0 -66 -44 -110t-116 -44t-115.5 44t-43.5 110t43.5 110t115.5 44t116 -44t44 -110z" />
<glyph unicode="&#xf71b;" horiz-adv-x="1466" d="M924 -416h-74q-63 73 -155 113.5t-195 40.5q-185 0 -303 -154h-9v238q66 68 145 100.5t187 32.5q235 0 373 -154h31q51 10 85.5 55.5t34.5 118.5v619q0 175 -70 261.5t-245 86.5q-252 0 -319 -176h303v-164q-66 -9 -104 -48t-49 -85t-11 -109v-86q0 -125 -77 -189.5 t-206 -64.5q-92 0 -160 37v213q55 -37 103 -37q29 0 45 13t16 49v41q0 183 117 266h-252v123q60 228 206.5 339.5t391.5 111.5q284 0 437 -141t153 -400v-651q0 -118 -58 -211.5t-148 -141t-193 -47.5z" />
<glyph unicode="&#xf71c;" horiz-adv-x="1466" d="M924 -416h-29l-141 119h-9l-141 -119h-94q-73 168 -221 168q-61 0 -113 -28v217q52 28 129 28q91 0 162.5 -39.5t107.5 -128.5h9l155 119h21l155 -119q57 9 93 54.5t36 119.5v619q0 175 -70 261.5t-245 86.5q-252 0 -319 -176h303v-164q-66 -9 -104 -48t-49 -85t-11 -109 v-86q0 -125 -77 -189.5t-206 -64.5q-92 0 -160 37v213q55 -37 103 -37q29 0 45 13t16 49v41q0 183 117 266h-252v123q60 228 206.5 339.5t391.5 111.5q284 0 437 -141t153 -400v-651q0 -118 -58 -211.5t-148 -141t-193 -47.5z" />
<glyph unicode="&#xf71d;" horiz-adv-x="1536" d="M1327 0h-315l-109 299q-3 9 -16.5 46.5t-16 45.5t-12.5 36.5t-13 40.5t-10 36.5t-12 46t-10 47.5h-8q-17 -90 -34.5 -147.5t-55.5 -151.5l-121 -299h-315l-238 1147h283l122 -651q19 -102 27 -222h8q40 150 72 222l145 335l-30 99h217l184 -434q30 -72 70 -222h8 q13 102 39 222l20 90q13 60 13 96q0 83 -46.5 126.5t-140.5 55.5v131l182 254h279l-225 -291q209 -46 209 -270q0 -70 -23 -164z" />
<glyph unicode="&#xf8ff;" horiz-adv-x="1658" d="M1296 37q-149 -55 -467 -55t-467 55q-148 55 -204 205q-56 151 -56 467t56 467q55 149 204 204q151 56 467 56t467 -56q150 -56 205 -204q55 -149 55 -467t-55 -467q-55 -150 -205 -205zM1266 293v457q0 173 -125.5 287t-311.5 114t-311 -113.5t-125 -287.5v-457h174 l195 209q32 -13 67 -13q78 0 131.5 53t53.5 132t-53.5 131.5t-131.5 52.5q-79 0 -132.5 -52.5t-53.5 -131.5q0 -52 27 -99l-133 -145v320q0 121 83.5 196.5t208.5 75.5t209 -75.5t84 -196.5v-457h144zM829 596q-31 0 -54 23t-23 55q0 31 23 53.5t54 22.5t53.5 -22t22.5 -54 t-22.5 -55t-53.5 -23z" />
<glyph horiz-adv-x="1241" d="M1106 -4h-21l-208 106h-9q-141 -127 -362 -127q-195 0 -309.5 89.5t-114.5 250.5q0 162 116 253t316 91q177 0 313 -81h9v20q0 89 -80.5 155t-237.5 66q-182 0 -354 -94v229q198 99 420 99q522 0 522 -496v-561zM836 393q-129 66 -287 66q-197 0 -197 -131t195 -131 q130 0 209.5 53.5t79.5 142.5z" />
<glyph horiz-adv-x="1241" d="M700 1147h-204l102 348h246zM1106 -4h-21l-208 106h-9q-141 -127 -362 -127q-195 0 -309.5 89.5t-114.5 250.5q0 162 116 253t316 91q177 0 313 -81h9v20q0 89 -80.5 155t-237.5 66q-182 0 -354 -94v229q198 99 420 99q522 0 522 -496v-561zM836 393q-129 66 -287 66 q-197 0 -197 -131t195 -131q130 0 209.5 53.5t79.5 142.5z" />
<glyph horiz-adv-x="1241" d="M969 1147h-246l-123 209l-123 -209h-246l267 348h204zM1106 -4h-21l-208 106h-9q-141 -127 -362 -127q-195 0 -309.5 89.5t-114.5 250.5q0 162 116 253t316 91q177 0 313 -81h9v20q0 89 -80.5 155t-237.5 66q-182 0 -354 -94v229q198 99 420 99q522 0 522 -496v-561z M836 393q-129 66 -287 66q-197 0 -197 -131t195 -131q130 0 209.5 53.5t79.5 142.5z" />
<glyph horiz-adv-x="1241" d="M518 1147h-278v287h278v-287zM961 1147h-279v287h279v-287zM1106 -4h-21l-208 106h-9q-141 -127 -362 -127q-195 0 -309.5 89.5t-114.5 250.5q0 162 116 253t316 91q177 0 313 -81h9v20q0 89 -80.5 155t-237.5 66q-182 0 -354 -94v229q198 99 420 99q522 0 522 -496v-561 zM836 393q-129 66 -287 66q-197 0 -197 -131t195 -131q130 0 209.5 53.5t79.5 142.5z" />
<glyph horiz-adv-x="1241" d="M705 1147h-205l-144 348h246zM1106 -4h-21l-208 106h-9q-141 -127 -362 -127q-195 0 -309.5 89.5t-114.5 250.5q0 162 116 253t316 91q177 0 313 -81h9v20q0 89 -80.5 155t-237.5 66q-182 0 -354 -94v229q198 99 420 99q522 0 522 -496v-561zM836 393q-129 66 -287 66 q-197 0 -197 -131t195 -131q130 0 209.5 53.5t79.5 142.5z" />
<glyph horiz-adv-x="1241" d="M799 1325q0 -81 -57 -133.5t-144 -52.5t-144 52.5t-57 133.5t57 133.5t144 52.5t144 -52.5t57 -133.5zM672 1325q0 29 -20.5 49.5t-53.5 20.5t-53.5 -20.5t-20.5 -49.5t20.5 -49.5t53.5 -20.5t53.5 20.5t20.5 49.5zM1106 -4h-21l-208 106h-9q-141 -127 -362 -127 q-195 0 -309.5 89.5t-114.5 250.5q0 162 116 253t316 91q177 0 313 -81h9v20q0 89 -80.5 155t-237.5 66q-182 0 -354 -94v229q198 99 420 99q522 0 522 -496v-561zM836 393q-129 66 -287 66q-197 0 -197 -131t195 -131q130 0 209.5 53.5t79.5 142.5z" />
<glyph horiz-adv-x="1241" d="M750 1376h196q0 -134 -58 -185.5t-159 -51.5q-47 0 -82 9.5t-54 23.5t-33 28t-29.5 23.5t-34.5 9.5q-45 0 -45 -57h-197q0 132 57.5 184.5t153.5 52.5q54 0 94.5 -14.5t59 -32.5t41 -32.5t45.5 -14.5q45 0 45 57zM1106 -4h-21l-208 106h-9q-141 -127 -362 -127 q-195 0 -309.5 89.5t-114.5 250.5q0 162 116 253t316 91q177 0 313 -81h9v20q0 89 -80.5 155t-237.5 66q-182 0 -354 -94v229q198 99 420 99q522 0 522 -496v-561zM836 393q-129 66 -287 66q-197 0 -197 -131t195 -131q130 0 209.5 53.5t79.5 142.5z" />
<glyph horiz-adv-x="1466" d="M1323 -369h-279v963q0 176 -73 262t-260 86q-271 0 -338 -176h303v-164q-105 -14 -175.5 -105.5t-70.5 -191.5q0 -62 33 -89.5t100 -27.5q84 0 195 48v-213q-34 -15 -58.5 -23.5t-71.5 -16.5t-102 -8q-175 0 -274.5 73t-99.5 218q0 109 54.5 194.5t141.5 141.5h-250v123 q61 229 210.5 340t406.5 111q297 0 452.5 -140.5t155.5 -400.5v-1004z" />
<glyph horiz-adv-x="1466" d="M1323 -369h-279v963q0 175 -70 261.5t-245 86.5q-252 0 -319 -176h303v-164q-66 -9 -104 -48t-49 -85t-11 -109v-131q0 -125 -77 -189.5t-206 -64.5q-92 0 -160 37v213q55 -37 103 -37q29 0 45 13t16 49v86q0 183 117 266h-252v123q60 228 206.5 339.5t391.5 111.5 q284 0 437 -141t153 -400v-1004z" />
<glyph horiz-adv-x="1060" d="M918 0h-279v649q0 141 -63 211t-214 70q-196 0 -346 -105v254q149 97 387 97q267 0 391 -119.5t124 -366.5v-690zM-694 1532q0 37 -26 64.5t-83 27.5t-82.5 -27.5t-25.5 -64.5t25.5 -64.5t82.5 -27.5t83 27.5t26 64.5zM-543 1532q0 -98 -65 -163.5t-195 -65.5t-195 65.5 t-65 163.5t65 163.5t195 65.5t195 -65.5t65 -163.5z" />
<glyph d="M-637 1518v-158q-63 -39 -168 -39q-122 0 -200 47.5t-78 132.5q0 62 45.5 107t130.5 67q-43 30 -43 101q0 76 80.5 124t203.5 48q116 0 207 -50v-133q-1 0 -26 8.5t-35.5 11.5t-34 9t-46.5 8t-48 2q-88 0 -88 -47q0 -20 18.5 -37.5t63.5 -17.5h137l-53 -115h-211 q-39 0 -61.5 -17t-22.5 -40t23 -38t63 -15q77 0 143 41z" />
</font>
</defs>
</svg>
