<?xml version="1.0" standalone="no"?>
<!DOCTYPE svg PUBLIC "-//W3C//DTD SVG 1.1//EN" "http://www.w3.org/Graphics/SVG/1.1/DTD/svg11.dtd" >
<svg xmlns="http://www.w3.org/2000/svg">
<metadata></metadata>
<defs>
<font id="tatsana_suksaitalic" horiz-adv-x="0" >
<font-face units-per-em="2048" ascent="1536" descent="-512" />
<missing-glyph horiz-adv-x="552" />
<glyph unicode="&#xe2f;&#xe2f;" horiz-adv-x="1517" d="M709 68l86 501q-47 -61 -132 -96t-180 -35q-162 0 -256 74t-94 213q0 26 8 84l23 135q15 95 88 154t176 59q89 0 141 -45.5t52 -120.5q0 -103 -73 -172t-169 -69q-49 0 -74 22l-2 -2q0 -4 -1 -11.5t-1 -10.5q0 -80 54.5 -126.5t160.5 -46.5q124 0 215.5 74t114.5 195 l43 235q6 37 27.5 53.5t68.5 16.5q40 0 58 -11.5t18 -37.5q0 -13 -2 -21l-178 -1011q-6 -36 -29 -52t-72 -16q-39 0 -56 10.5t-17 34.5q0 15 2 23zM1098 68l178 1011q6 37 27.5 53.5t68.5 16.5q41 0 59.5 -11.5t18.5 -37.5q0 -15 -2 -21l-178 -1011q-6 -36 -29 -52t-72 -16 q-39 0 -56 10.5t-17 34.5q0 15 2 23zM381 862q44 0 74 30.5t30 78.5q0 34 -18.5 52.5t-52.5 18.5q-44 0 -73.5 -31t-29.5 -81q0 -31 19 -49.5t51 -18.5z" />
<glyph unicode="&#xe4f;&#x22;" horiz-adv-x="1454" d="M1315 645q0 -138 -52.5 -258t-143 -203t-213.5 -130.5t-261 -47.5q-225 0 -355 115t-130 311q0 138 53.5 257.5t144 202t214 130t259.5 47.5q223 0 353.5 -115t130.5 -309zM1161 618q0 149 -94 236.5t-258 87.5q-101 0 -192.5 -36t-159 -99.5t-107 -155.5t-39.5 -198 q0 -147 95.5 -233.5t259.5 -86.5q136 0 248.5 60.5t179.5 172.5t67 252zM698 315q-81 0 -127.5 46.5t-46.5 123.5q0 118 73 195.5t179 77.5q82 0 128 -46.5t46 -125.5q0 -116 -74.5 -193.5t-177.5 -77.5zM635 1198l51 432q5 38 23.5 53t64.5 15q38 0 55 -9t17 -32 q0 -7 -4 -27l-101 -432q-4 -18 -17 -25.5t-40 -7.5q-28 0 -38.5 7t-10.5 26zM973 1198l51 432q5 38 23.5 53t64.5 15q38 0 55 -9t17 -32q0 -7 -4 -27l-101 -432q-4 -19 -16.5 -26t-40.5 -7t-38.5 7t-10.5 26z" />
<glyph unicode="&#xe24;&#xe32;" horiz-adv-x="1878" d="M1370 -459l219 1254q4 18 4 49q0 94 -65.5 142t-175.5 48q-53 0 -123 -16t-123 -39q33 -65 33 -152q0 -14 -9 -79l-215 -1219q-6 -36 -23 -48.5t-61 -12.5q-86 0 -86 55q0 9 3 18l210 1198q7 44 7 68q0 110 -70.5 168.5t-194.5 58.5q-93 0 -188 -35t-166 -88l-6 -2 l197 -84q18 -8 24 -16.5t6 -28.5q0 -50 -7 -64.5t-30 -19.5q-174 -37 -202 -209l-21 -116q29 16 74 16q78 0 124 -44.5t46 -119.5q0 -104 -68.5 -169.5t-175.5 -65.5q-94 0 -149.5 50t-55.5 130q0 13 4 45l50 272q21 112 81 172.5t158 85.5v7l-182 73q-20 8 -29.5 17.5 t-9.5 25.5q0 9 2 15l12 67q10 52 99.5 105t211.5 85.5t226 32.5q178 0 289 -81q12 8 18 10q165 71 346 71q172 0 281.5 -78.5t109.5 -222.5q0 -30 -6 -67l-225 -1274q-6 -36 -23 -48.5t-61 -12.5q-86 0 -86 55q0 12 2 18zM307 100q45 0 82 34.5t37 86.5q0 28 -17.5 44 t-46.5 16q-50 0 -85 -34.5t-35 -86.5q0 -28 17 -44t48 -16z" />
<glyph unicode="&#xe26;&#xe32;" horiz-adv-x="1980" d="M1473 -459l219 1254q4 18 4 49q0 94 -66 142t-176 48q-55 0 -124.5 -16t-123.5 -39q29 -69 29 -141q0 -26 -8 -84l-213 -1219q-6 -36 -29 -51.5t-72 -15.5q-41 0 -58 11t-17 36q0 12 2 20l211 1198q6 35 6 66q0 113 -71.5 174t-197.5 61q-97 0 -193.5 -32.5t-166.5 -83.5 v-7l236 -98q16 -7 23 -14t7 -21q0 -46 -12.5 -62.5t-38.5 -21.5q-121 -25 -149 -180l-56 -315q-17 -95 -88.5 -153t-169.5 -58q-87 0 -136.5 43t-49.5 116q0 101 67.5 167.5t163.5 66.5q49 0 74 -21l2 2q10 125 37 197q50 134 184 174v6l-219 82q-19 7 -27 15t-8 26 q0 1 1 5.5t1 6.5l11 56q11 58 102 115t216 91.5t235 34.5q180 0 284 -81q6 6 17 10q165 71 346 71q172 0 281.5 -78.5t109.5 -222.5q0 -30 -6 -67l-226 -1274q-6 -36 -23 -48.5t-61 -12.5q-86 0 -86 55q0 9 3 18zM195 96q43 0 72.5 32t29.5 81q0 31 -19 49t-51 18 q-43 0 -73.5 -30.5t-30.5 -77.5q0 -33 19.5 -52.5t52.5 -19.5z" />
<glyph unicode="fi" horiz-adv-x="1335" d="M215 70l129 741h-182q-23 0 -32 8.5t-9 28.5q0 102 65 102h183l24 133q34 182 125 261t234 79q141 0 141 -65q0 -86 -53 -86q-9 0 -38 3t-46 3q-78 0 -122.5 -40.5t-62.5 -145.5l-24 -142h211q25 0 34 -8.5t9 -30.5q0 -100 -66 -100h-213l-131 -741q-8 -39 -29.5 -54.5 t-70.5 -15.5q-42 0 -60 10.5t-18 36.5q0 15 2 23zM1294 1198l-92 -76q-26 -20 -39 -20q-17 0 -35 20l-63 76q-12 15 -12 29q0 26 24 45l92 76q21 18 41 18t33 -18l64 -76q14 -17 14 -31q0 -22 -27 -43zM893 72l143 811q6 40 28 55.5t73 15.5q41 0 59 -11.5t18 -37.5 q0 -14 -2 -22l-143 -811q-8 -41 -29 -56.5t-71 -15.5q-41 0 -59.5 10.5t-18.5 38.5q0 15 2 23z" />
<glyph unicode="fl" horiz-adv-x="1286" d="M215 70l129 741h-182q-23 0 -32 8.5t-9 28.5q0 102 65 102h183l24 133q34 182 125 261t234 79q141 0 141 -65q0 -86 -53 -86q-9 0 -38 3t-46 3q-78 0 -122.5 -40.5t-62.5 -145.5l-24 -142h211q25 0 34 -8.5t9 -30.5q0 -100 -66 -100h-213l-131 -741q-8 -39 -29.5 -54.5 t-70.5 -15.5q-42 0 -60 10.5t-18 36.5q0 15 2 23zM868 70l226 1273q6 39 28 54.5t72 15.5q41 0 59.5 -11t18.5 -38q0 -13 -2 -21l-226 -1273q-6 -39 -28 -54.5t-72 -15.5q-42 0 -60 10.5t-18 36.5q0 15 2 23z" />
<glyph />
<glyph />
<glyph unicode="&#xd;" horiz-adv-x="552" />
<glyph unicode=" "  horiz-adv-x="552" />
<glyph unicode="&#x09;" horiz-adv-x="552" />
<glyph unicode="&#xa0;" horiz-adv-x="552" />
<glyph unicode="!" horiz-adv-x="696" d="M276 455l125 878q6 43 32 61.5t83 18.5q50 0 71 -13t21 -44q0 -15 -2 -23l-190 -878q-6 -28 -23 -40t-55 -12q-35 0 -48.5 11.5t-13.5 40.5zM414 96l-109 -92q-21 -18 -41 -18q-18 0 -33 18l-77 92q-13 17 -13 31q0 19 25 41l110 92q22 19 39 19q19 0 35 -19l76 -92 q12 -15 12 -29q0 -22 -24 -43z" />
<glyph unicode="&#x22;" horiz-adv-x="870" d="M287 852l61 494q4 38 24.5 52.5t65.5 14.5q36 0 53 -9t17 -32q0 -6 -4 -26l-111 -494q-4 -18 -17 -25.5t-40 -7.5q-28 0 -38.5 7t-10.5 26zM612 852l62 494q4 38 24.5 52.5t65.5 14.5q36 0 53 -9t17 -32q0 -1 -5 -26l-110 -494q-4 -18 -17 -25.5t-40 -7.5q-28 0 -39 7 t-11 26z" />
<glyph unicode="#" horiz-adv-x="1222" d="M1034 416h-188l-137 -375q-9 -24 -26.5 -32.5t-55.5 -8.5q-66 0 -66 29q0 9 8 37l127 350h-268l-137 -373q-7 -26 -25 -34.5t-57 -8.5q-64 0 -64 29q0 8 11 37l125 350h-170q-27 0 -27 30q0 7 4 31q6 34 16 48t29 14h193l118 329h-168q-26 0 -26 31q0 7 4 31 q6 34 15.5 47.5t29.5 13.5h190l138 381q9 24 27 32.5t57 8.5q63 0 63 -27q0 -11 -10 -38l-127 -357h268l137 379q9 25 27.5 34t56.5 9q64 0 64 -27q0 -11 -10 -38l-127 -357h164q28 0 28 -30q0 -7 -4 -31q-6 -34 -16 -48t-29 -14h-186l-121 -329h166q28 0 28 -31 q0 -7 -4 -31q-6 -34 -16 -47.5t-29 -13.5zM741 539l121 329h-270l-119 -329h268z" />
<glyph unicode="$" horiz-adv-x="1114" d="M414 -164l24 141q-85 3 -168.5 21.5t-141.5 51.5t-58 71q0 33 15.5 62.5t47.5 29.5q12 0 63.5 -19t127 -39t143.5 -22l86 494q-46 34 -63.5 47t-59 47.5t-60 55t-47.5 56.5t-42.5 67t-24 71.5t-10.5 83.5q0 166 118.5 267.5t331.5 111.5l23 131q5 37 53 37 q22 0 32.5 -5.5t10.5 -23.5l-22 -139q68 -3 125 -15t97 -36.5t40 -57.5q0 -18 -3.5 -36t-15 -36t-30.5 -18q-6 0 -42.5 10t-92.5 21.5t-105 15.5l-92 -516q53 -39 84 -63.5t74.5 -67t67 -79.5t41 -88.5t17.5 -107.5q0 -162 -105.5 -262.5t-315.5 -117.5l-25 -134 q-4 -20 -16.5 -28t-38.5 -8q-43 0 -43 26zM590 831l78 447q-110 -11 -172 -63.5t-62 -137.5q0 -71 40.5 -128.5t115.5 -117.5zM637 559l-74 -422q205 27 205 207q0 60 -34 111.5t-97 103.5z" />
<glyph unicode="%" horiz-adv-x="1828" d="M336 20l1143 1440q19 24 36.5 33.5t49.5 9.5q59 0 59 -28q0 -15 -16 -37l-1145 -1440q-19 -24 -36.5 -33.5t-49.5 -9.5q-58 0 -58 31q0 14 17 34zM496 690q-123 0 -189.5 71t-66.5 200q0 130 45.5 237t135.5 172.5t208 65.5q123 0 189.5 -70t66.5 -199 q0 -130 -45.5 -237.5t-135.5 -173.5t-208 -66zM518 815q65 0 115.5 51.5t75 127.5t24.5 159q0 77 -33 118.5t-94 41.5q-67 0 -118 -52t-75 -128.5t-24 -161.5q0 -75 33 -115.5t96 -40.5zM1282 -23q-123 0 -189.5 70t-66.5 199q0 201 105.5 339t283.5 138q123 0 189.5 -70 t66.5 -198q0 -131 -45 -238.5t-135 -173.5t-209 -66zM1305 100q67 0 117.5 53t74 129.5t23.5 159.5q0 75 -33 115.5t-94 40.5q-67 0 -117.5 -51.5t-74 -127.5t-23.5 -161q0 -158 127 -158z" />
<glyph unicode="&#x26;" horiz-adv-x="1357" d="M1026 61l-63 91q-110 -88 -219 -130t-252 -42q-183 0 -291.5 88t-108.5 235q0 156 110 281.5t308 191.5q-115 127 -115 264q0 70 27 137t78.5 122.5t135.5 89.5t187 34q158 0 240 -68.5t82 -180.5q0 -276 -400 -443l271 -360q94 117 145 307q9 41 28.5 56.5t70.5 15.5 q73 0 73 -48q0 -12 -2 -20q-25 -96 -85.5 -204t-151.5 -208l157 -196q13 -16 13 -29q0 -21 -30 -33t-77 -12q-53 0 -79 12t-52 49zM682 838q289 117 289 309q0 68 -44.5 104.5t-119.5 36.5q-105 0 -173.5 -62t-68.5 -163q0 -108 117 -225zM885 256l-310 412 q-147 -52 -219.5 -139t-72.5 -191q0 -98 71.5 -153.5t186.5 -55.5q200 0 344 127z" />
<glyph unicode="'" horiz-adv-x="530" d="M281 852l61 494q4 38 24 52.5t64 14.5q36 0 53 -9t17 -32q0 -6 -4 -26l-111 -494q-4 -18 -17 -25.5t-40 -7.5q-26 0 -36.5 7t-10.5 26z" />
<glyph unicode="(" horiz-adv-x="620" d="M412 -246q0 -41 -72 -41q-40 0 -62.5 12.5t-41.5 51.5q-140 283 -140 588q0 302 110.5 575t328.5 535q32 39 60 52t71 13q57 0 57 -29q0 -13 -21 -45q-217 -290 -318 -551t-101 -550q0 -268 123 -578q6 -18 6 -33z" />
<glyph unicode=")" horiz-adv-x="620" d="M139 -223q-33 -39 -61 -51.5t-68 -12.5q-59 0 -59 29q0 17 22 45q215 295 316.5 553.5t101.5 546.5q0 268 -125 579q-6 18 -6 31q0 43 72 43q42 0 64.5 -12.5t41.5 -52.5q140 -294 140 -588q0 -578 -439 -1110z" />
<glyph unicode="*" horiz-adv-x="1097" d="M743 799l-100 221l-182 -221q-19 -25 -41 -25q-34 0 -63 23.5t-29 52.5q0 18 16 37l209 207l-242 65q-26 7 -26 31q0 39 26.5 81t57.5 42q10 0 22 -6l225 -97l27 265q3 28 23.5 40.5t64.5 12.5q72 0 72 -39q0 -2 -1 -7t-1 -7l-64 -265l256 95q8 4 25 4q47 0 47 -76 q0 -64 -43 -74l-268 -65l139 -207q6 -12 6 -23q0 -33 -44 -61.5t-79 -28.5q-24 0 -33 25z" />
<glyph unicode="+" horiz-adv-x="1204" d="M1053 444h-379l-68 -389q-6 -31 -26 -43t-62 -12q-37 0 -53 8t-16 31q0 10 2 16l67 389h-383q-26 0 -35.5 9t-9.5 32q0 103 74 103h381l67 389q6 32 25 43.5t63 11.5q36 0 53 -8.5t17 -32.5q0 -2 -1 -6.5t-1 -7.5l-68 -389h379q25 0 35 -8.5t10 -28.5q0 -107 -71 -107z " />
<glyph unicode="," horiz-adv-x="440" d="M297 150l-205 -347q-22 -36 -39.5 -47.5t-52.5 -11.5q-59 0 -59 35q0 20 12 47l160 342q15 36 38.5 50.5t71.5 14.5q86 0 86 -43q0 -16 -12 -40z" />
<glyph unicode="-" horiz-adv-x="643" d="M510 475h-367q-25 0 -35 8.5t-10 30.5q0 11 4 39q7 45 22 61.5t46 16.5h369q24 0 34.5 -9t10.5 -32q0 -9 -4 -37q-7 -45 -22.5 -61.5t-47.5 -16.5z" />
<glyph unicode="." horiz-adv-x="561" d="M346 96l-110 -92q-21 -18 -41 -18q-18 0 -33 18l-78 92q-12 16 -12 31q0 20 24 41l111 92q22 19 39 19q19 0 35 -19l77 -92q13 -16 13 -29q0 -22 -25 -43z" />
<glyph unicode="/" horiz-adv-x="946" d="M88 68l705 1304q13 23 31.5 32t58.5 9q65 0 65 -35q0 -16 -8 -32l-700 -1303q-13 -23 -33.5 -33t-61.5 -10q-67 0 -67 35q0 13 10 33z" />
<glyph unicode="0" horiz-adv-x="1204" d="M518 -23q-199 0 -303 127t-104 361q0 84 10.5 173t34 185t59 183.5t89 166.5t119 137t154.5 92t191 34q198 0 302 -123.5t104 -356.5q0 -83 -10.5 -172t-34.5 -185t-59 -185t-88.5 -169t-119 -139t-154.5 -94t-190 -35zM541 123q99 0 178.5 61t127.5 153t80.5 208.5 t45 219t12.5 193.5q0 332 -237 332q-72 0 -134.5 -32.5t-107 -87t-81 -127.5t-59.5 -151t-38.5 -161t-22 -154t-6.5 -133q0 -163 59.5 -242t182.5 -79z" />
<glyph unicode="1" horiz-adv-x="1204" d="M514 72l129 735q12 69 43 217.5t35 171.5h-4q-13 -11 -50 -42.5t-68 -56.5t-67 -52.5t-64 -43.5t-42 -16q-26 0 -52 31t-26 59q0 32 62 78l315 227q25 19 43 26t45 7h70q47 0 47 -39q0 -12 -2 -18l-226 -1284q-6 -39 -29 -55.5t-77 -16.5q-47 0 -65.5 11.5t-18.5 39.5 q0 13 2 21z" />
<glyph unicode="2" horiz-adv-x="1204" d="M920 0h-809q-50 0 -50 39q0 12 2 18l9 49q6 32 21.5 51t60.5 56l372 301q214 172 312 300t98 269q0 93 -58.5 147t-177.5 54q-110 0 -292 -57q-43 -15 -68 -15q-18 0 -26.5 8.5t-8.5 32.5q0 87 64 111q62 25 166.5 48.5t212.5 23.5q184 0 286.5 -83.5t102.5 -234.5 q0 -123 -54 -234t-152 -213t-272 -243q-228 -185 -356 -276v-5q222 7 508 7h137q25 0 35 -8.5t10 -30.5q0 -115 -73 -115z" />
<glyph unicode="3" horiz-adv-x="1204" d="M758 735l-2 -4q131 -23 205.5 -96t74.5 -195q0 -212 -164 -337.5t-430 -125.5q-175 0 -274.5 28t-99.5 73q0 53 18 74.5t43 21.5q21 0 68 -12t116.5 -24.5t143.5 -12.5q179 0 284 79t105 226q0 109 -89 167t-247 58q-35 0 -49.5 9.5t-14.5 35.5q0 56 21.5 77.5t69.5 21.5 q187 0 300 82t113 223q0 90 -61.5 138t-177.5 48q-75 0 -150 -17t-129.5 -33.5t-77.5 -16.5q-35 0 -35 37q2 87 64 110t165 44.5t208 21.5q187 0 286 -76t99 -209q0 -177 -105 -280t-278 -136z" />
<glyph unicode="4" horiz-adv-x="1204" d="M1047 313h-142l-43 -245q-6 -37 -28.5 -52.5t-73.5 -15.5q-41 0 -58.5 10t-17.5 35q0 15 2 23l43 245h-586q-63 0 -63 52q0 12 2 20l8 49q2 13 6.5 25t8 17.5t13 19.5t13.5 20l668 840q25 31 45 44t57 13h115q69 0 69 -59q0 -17 -2 -25l-151 -864h139q25 0 36 -9t11 -32 q0 -61 -17.5 -86t-53.5 -25zM758 465l82 461q37 216 67 352h-4q-47 -64 -215 -279l-418 -534h488z" />
<glyph unicode="5" horiz-adv-x="1204" d="M1079 1264h-555l-84 -418q110 26 205 26q186 0 295 -90.5t109 -251.5q0 -127 -46 -232t-127 -175t-191.5 -108t-238.5 -38q-170 0 -258 30.5t-88 74.5q0 48 18 70t46 22q13 0 110 -24.5t179 -24.5q185 0 293 98t108 273q0 113 -75.5 174t-205.5 61q-72 0 -166.5 -19.5 t-115.5 -19.5q-17 0 -26 8t-9 21q0 2 1 5t1 5l115 598q15 84 100 84h633q23 0 33 -8.5t10 -30.5q0 -110 -70 -110z" />
<glyph unicode="6" horiz-adv-x="1204" d="M342 721h2q67 84 166.5 135t220.5 51q177 0 275 -93.5t98 -254.5q0 -166 -75 -299.5t-204.5 -208t-287.5 -74.5q-199 0 -303.5 114t-104.5 339q0 93 13.5 189.5t42.5 195.5t72 189t105.5 169.5t138.5 137.5t176.5 91.5t213.5 33.5q126 0 205.5 -25t79.5 -70 q0 -94 -56 -94q-16 0 -101.5 20.5t-141.5 20.5q-193 0 -338 -144t-197 -423zM563 117q146 0 249 114.5t103 294.5q0 113 -63.5 176.5t-181.5 63.5q-156 0 -258.5 -111.5t-102.5 -277.5q0 -120 67.5 -190t186.5 -70z" />
<glyph unicode="7" horiz-adv-x="1204" d="M289 104l690 1153h-676q-25 0 -35 8.5t-10 30.5q0 64 18 90.5t56 26.5h805q24 0 36.5 -8t12.5 -35l-8 -70q-4 -37 -39 -94l-670 -1132q-26 -44 -49 -59t-72 -15q-84 0 -84 41q0 21 25 63z" />
<glyph unicode="8" horiz-adv-x="1204" d="M858 739q123 -53 185.5 -125.5t62.5 -175.5q0 -139 -78.5 -245t-210.5 -161t-295 -55q-209 0 -327.5 83t-118.5 229q0 298 381 450q-211 103 -211 281q0 182 151 299t391 117q191 0 297.5 -75t106.5 -208q0 -136 -81.5 -236.5t-252.5 -177.5zM694 801q310 108 310 315 q0 87 -64.5 134.5t-183.5 47.5q-146 0 -236 -73t-90 -189q0 -86 67.5 -141.5t196.5 -93.5zM625 670q-164 -48 -260.5 -138.5t-96.5 -216.5q0 -96 75 -147t210 -51q160 0 260 78t100 213q0 92 -72 156t-216 106z" />
<glyph unicode="9" horiz-adv-x="1204" d="M948 698h-2q-65 -85 -164.5 -134.5t-220.5 -49.5q-177 0 -276 91.5t-99 252.5q0 99 28 188.5t79.5 159.5t121 122t157 80t182.5 28q200 0 303.5 -112.5t103.5 -338.5q0 -119 -19 -236.5t-57.5 -231.5t-101 -211t-143.5 -171t-192.5 -116t-241.5 -42q-139 0 -222.5 24 t-83.5 69q0 51 16 73.5t40 22.5q7 0 98 -20.5t166 -20.5q422 0 528 573zM621 653q157 0 257.5 109.5t100.5 269.5q0 121 -67 192.5t-183 71.5q-148 0 -249 -113.5t-101 -291.5q0 -111 63 -174.5t179 -63.5z" />
<glyph unicode=":" horiz-adv-x="604" d="M487 784l-110 -94q-19 -16 -39 -16q-22 0 -35 16l-78 94q-12 12 -12 27q0 23 25 45l110 92q24 17 41 17q19 0 33 -17l80 -92q10 -10 10 -29q0 -22 -25 -43zM367 96l-111 -92q-21 -18 -41 -18q-18 0 -33 18l-78 92q-12 16 -12 31q0 19 25 41l110 92q22 19 39 19 q19 0 35 -19l78 -92q12 -15 12 -29q0 -22 -24 -43z" />
<glyph unicode=";" horiz-adv-x="604" d="M487 784l-110 -94q-19 -16 -39 -16q-22 0 -35 16l-78 94q-12 12 -12 27q0 23 25 45l110 92q24 17 41 17q16 0 33 -17l80 -92q10 -10 10 -29q0 -22 -25 -43zM330 150l-205 -347q-22 -36 -39.5 -47.5t-52.5 -11.5q-60 0 -60 35q0 18 13 47l159 342q16 37 38 51t73 14 q86 0 86 -43q0 -16 -12 -40z" />
<glyph unicode="&#x3c;" horiz-adv-x="1204" d="M969 43l-754 315q-75 32 -98 50.5t-23 56.5q0 86 34 127t140 80l869 319q15 6 26 6q29 0 29 -41q0 -60 -21.5 -90.5t-66.5 -46.5l-463 -166q-220 -77 -399 -131v-4q246 -94 350 -137l405 -166q28 -12 41 -26.5t13 -43.5q0 -46 -15.5 -76t-44.5 -30q-14 0 -22 4z" />
<glyph unicode="=" horiz-adv-x="1204" d="M1090 647h-916q-27 0 -37 9.5t-10 33.5q0 101 72 101h917q25 0 35 -8.5t10 -30.5q0 -49 -15 -77t-56 -28zM1020 246h-916q-26 0 -36.5 8.5t-10.5 28.5q0 52 15.5 79t56.5 27h915q27 0 37.5 -7t10.5 -26q0 -110 -72 -110z" />
<glyph unicode="&#x3e;" horiz-adv-x="1204" d="M948 358l-864 -315q-18 -6 -29 -6q-28 0 -28 45q0 58 20 88t66 45l465 166q225 79 403 137v4q-198 67 -356 131l-406 166q-26 10 -38.5 25.5t-12.5 44.5q0 48 14.5 78t42.5 30q10 0 25 -6l754 -319q72 -30 94 -51t22 -64q0 -83 -32.5 -121.5t-139.5 -77.5z" />
<glyph unicode="?" horiz-adv-x="884" d="M532 481q-9 -50 -27.5 -65t-70.5 -15q-43 0 -58.5 9.5t-15.5 35.5q0 15 7 50q15 98 51.5 159.5t138.5 163.5q44 44 70.5 73.5t57.5 72.5t45.5 86.5t14.5 89.5q0 66 -42 104.5t-117 38.5q-68 0 -171 -28.5t-126 -28.5q-33 0 -33 41q0 31 17 66t51 46q5 2 36.5 12.5 t42 13.5t41.5 11t54 10.5t60 5.5t77 3q150 0 228.5 -72.5t78.5 -181.5q0 -50 -11.5 -95.5t-28.5 -81t-52 -80.5t-65.5 -77.5t-84.5 -87.5q-95 -95 -124.5 -144.5t-43.5 -134.5zM512 96l-111 -92q-21 -18 -41 -18q-17 0 -32 18l-78 92q-10 13 -10 29q0 24 22 43l113 92 q27 19 41 19q17 0 33 -19l75 -92q11 -14 11 -27q0 -25 -23 -45z" />
<glyph unicode="@" horiz-adv-x="2023" d="M1198 344h-4q-122 -203 -332 -203q-128 0 -199 72t-71 197q0 121 43 239.5t116 210.5t176.5 148.5t215.5 56.5q91 0 151.5 -44.5t71.5 -115.5h4l29 72q10 27 31 38t63 11q63 0 63 -35q0 -13 -6 -28l-170 -404q-69 -159 -69 -221q0 -70 82 -70q95 0 182.5 99t136.5 237.5 t49 263.5q0 212 -146 335.5t-401 123.5q-188 0 -354.5 -76t-283 -203.5t-184.5 -299t-68 -357.5q0 -255 171.5 -399t460.5 -144q211 0 461 89q32 8 37 8q27 0 27 -41q0 -42 -70.5 -79.5t-198 -61t-280.5 -23.5q-338 0 -537.5 168.5t-199.5 466.5q0 214 80.5 410t217.5 338.5 t329.5 227.5t406.5 85q308 0 482.5 -148t174.5 -401q0 -108 -25 -216t-74 -203t-114 -168.5t-151.5 -116t-180.5 -42.5q-74 0 -116.5 30.5t-42.5 84.5q0 26 16 88zM920 274q49 0 98.5 26.5t90 70t75.5 99.5t59 115t37.5 116.5t13.5 103.5q0 60 -39 96.5t-106 36.5 q-104 0 -195.5 -79t-142.5 -194t-51 -227q0 -84 43 -124t117 -40z" />
<glyph unicode="A" horiz-adv-x="1325" d="M1020 84l-66 311h-598l-176 -313q-30 -52 -55 -69t-78 -17q-88 0 -88 51q0 25 27 74l694 1192q37 65 65 85.5t82 20.5t75.5 -21.5t35.5 -86.5l268 -1190q6 -27 6 -51q0 -38 -21.5 -56t-68.5 -18q-52 0 -71.5 18t-30.5 70zM924 543l-64 299q-38 196 -61 348h-4 q-86 -172 -187 -350l-168 -297h484z" />
<glyph unicode="B" horiz-adv-x="1206" d="M485 0h-313q-61 0 -61 49q0 13 2 21l225 1273q6 38 25.5 54t58.5 16h305q202 0 315 -74.5t113 -218.5q0 -127 -64 -229.5t-202 -159.5v-4q192 -73 192 -256q0 -67 -17.5 -130.5t-61 -126.5t-109.5 -109.5t-171 -75.5t-237 -29zM426 801h149q112 0 191.5 23.5t121 65 t59.5 87.5t18 102q0 187 -301 187h-156zM309 147h164q418 0 418 312q0 100 -84 151.5t-266 51.5h-140z" />
<glyph unicode="C" horiz-adv-x="1265" d="M1130 154q0 -78 -111 -127.5t-300 -49.5q-275 0 -429.5 142.5t-154.5 406.5q0 189 58 355t163.5 289t263 194.5t345.5 71.5q87 0 167 -15.5t133.5 -46.5t53.5 -71q0 -78 -53 -78q-10 0 -120 26.5t-192 26.5q-117 0 -217 -39t-172.5 -107t-124 -159.5t-77 -197.5 t-25.5 -220q0 -200 108.5 -308t303.5 -108q74 0 150.5 18t128 36t63.5 18q38 0 38 -57z" />
<glyph unicode="D" horiz-adv-x="1435" d="M430 0h-258q-61 0 -61 49q0 13 2 21l225 1273q6 38 25.5 54t58.5 16h258q335 0 517.5 -139.5t182.5 -405.5q0 -125 -28.5 -242.5t-99 -233t-176 -201t-272 -138.5t-374.5 -53zM315 152h107q174 0 310.5 43.5t219 111.5t136 161t74 183t20.5 187q0 211 -141 317.5 t-414 106.5h-117z" />
<glyph unicode="E" horiz-adv-x="1099" d="M819 0h-647q-61 0 -61 49q0 13 2 21l225 1273q6 38 25.5 54t58.5 16h641q27 0 38 -10.5t11 -36.5q0 -48 -18 -80.5t-60 -32.5h-526l-78 -442h481q27 0 38.5 -10.5t11.5 -34.5q0 -111 -76 -111h-482l-88 -495h531q28 0 39.5 -10t11.5 -35q0 -115 -78 -115z" />
<glyph unicode="F" horiz-adv-x="1019" d="M866 637h-465l-100 -563q-6 -41 -29 -57.5t-77 -16.5q-42 0 -62 11.5t-20 39.5q0 15 2 23l223 1269q6 38 25.5 54t58.5 16h614q27 0 38 -10.5t11 -36.5q0 -115 -79 -115h-498l-80 -458h465q26 0 37.5 -10t11.5 -35q0 -111 -76 -111z" />
<glyph unicode="G" horiz-adv-x="1458" d="M1075 199l74 430h-203q-26 0 -37.5 10t-11.5 35q0 108 76 108h315q60 0 60 -45q0 -16 -2 -24l-107 -609q-205 -127 -518 -127q-283 0 -435.5 141t-152.5 402q0 151 35.5 288t107 251.5t172.5 198.5t238 131t297 47q98 0 197 -21t164 -56t65 -73q0 -29 -13 -57.5 t-40 -28.5q-17 0 -75.5 19.5t-143.5 39t-168 19.5q-150 0 -271.5 -59.5t-199 -160.5t-119 -230.5t-41.5 -274.5q0 -197 106 -305.5t308 -108.5q194 0 323 60z" />
<glyph unicode="H" horiz-adv-x="1437" d="M995 74l103 575h-695l-102 -575q-6 -40 -29.5 -57t-76.5 -17q-43 0 -63.5 11.5t-20.5 41.5q0 13 2 21l223 1265q8 41 31 57.5t77 16.5q42 0 62 -11.5t20 -41.5q0 -13 -2 -21l-94 -530h694l95 530q8 41 31 57.5t77 16.5q42 0 62 -11.5t20 -41.5q0 -13 -2 -21l-223 -1265 q-8 -41 -31 -57.5t-76 -16.5q-43 0 -63.5 11.5t-20.5 41.5q0 13 2 21z" />
<glyph unicode="I" horiz-adv-x="555" d="M113 74l223 1265q6 40 29.5 57t78.5 17q45 0 63.5 -11t18.5 -38q0 -17 -2 -25l-223 -1265q-8 -41 -30.5 -57.5t-75.5 -16.5q-43 0 -63.5 11.5t-20.5 41.5q0 13 2 21z" />
<glyph unicode="J" horiz-adv-x="768" d="M387 379l170 960q6 40 30 57t77 17q46 0 65 -11.5t19 -39.5q0 -11 -3 -23l-174 -979q-32 -181 -130.5 -282t-264.5 -101q-44 0 -77.5 3.5t-65.5 12.5t-49 28t-17 47q0 40 18 69t50 29q16 0 61.5 -10.5t77.5 -10.5q88 0 140 55.5t73 178.5z" />
<glyph unicode="K" horiz-adv-x="1212" d="M903 49l-483 668h-6l-113 -643q-8 -41 -30.5 -57.5t-75.5 -16.5q-43 0 -63.5 11.5t-20.5 41.5q0 13 2 21l223 1265q6 40 29.5 57t78.5 17q45 0 63.5 -11t18.5 -38q0 -17 -2 -25l-102 -569h6l659 600q26 24 50.5 33.5t66.5 9.5q39 0 59.5 -13.5t20.5 -35.5q0 -32 -39 -68 l-618 -544l467 -641q20 -29 20 -52q0 -29 -30.5 -44t-73.5 -15q-44 0 -65 10t-42 39z" />
<glyph unicode="L" horiz-adv-x="1011" d="M819 0h-649q-32 0 -45.5 11t-13.5 34q0 15 2 25l223 1269q6 40 29.5 57t78.5 17q45 0 63.5 -11t18.5 -38q0 -17 -2 -25l-209 -1179h531q28 0 39.5 -10t11.5 -35q0 -115 -78 -115z" />
<glyph unicode="M" horiz-adv-x="1888" d="M1450 74l133 753q53 290 72 379h-4q-7 -12 -87 -149t-122 -205l-467 -789q-22 -37 -46 -50t-73 -13q-48 0 -66.5 12.5t-27.5 50.5l-195 799q-28 111 -80 344h-4q-10 -65 -36 -218.5t-27 -160.5l-131 -753q-8 -41 -29.5 -57.5t-71.5 -16.5q-77 0 -77 53q0 13 2 21 l219 1239q9 54 47.5 77t112.5 23q63 0 97.5 -15t49 -41.5t27.5 -80.5l151 -670q63 -295 82 -395h4q88 170 225 405l385 660q34 58 58.5 85t60.5 39.5t97 12.5q124 0 124 -76q0 -16 -2 -24l-219 -1239q-6 -40 -28.5 -57t-71.5 -17q-84 0 -84 55q0 3 1 9.5t1 9.5z" />
<glyph unicode="N" horiz-adv-x="1472" d="M1075 229h4q12 114 51 344l138 768q8 40 28.5 56t69.5 16q42 0 60 -10.5t18 -36.5q0 -15 -2 -25l-221 -1247q-9 -53 -36.5 -73.5t-92.5 -20.5q-67 0 -92.5 23t-63.5 108l-305 674q-91 199 -150 373h-4q-21 -154 -49 -318l-139 -788q-8 -40 -30 -56t-71 -16 q-40 0 -58.5 11.5t-18.5 39.5q0 13 2 21l221 1253q8 48 37 68t96 20q39 0 62.5 -5.5t42 -24.5t28 -37t29.5 -62l282 -641q106 -248 164 -414z" />
<glyph unicode="O" horiz-adv-x="1564" d="M705 -23q-267 0 -415.5 150.5t-148.5 411.5q0 131 29.5 257.5t94 243t156.5 204t226 140t293 52.5q266 0 414.5 -149.5t148.5 -409.5q0 -131 -30 -257.5t-94.5 -243.5t-156.5 -205t-225.5 -141t-291.5 -53zM715 129q121 0 221.5 45t167.5 119t113.5 171t67 198.5 t20.5 205.5q0 199 -98.5 307.5t-276.5 108.5q-99 0 -185.5 -31t-149.5 -85.5t-112.5 -126t-79.5 -154.5t-45.5 -168t-15.5 -170q0 -203 96.5 -311.5t276.5 -108.5z" />
<glyph unicode="P" horiz-adv-x="1056" d="M115 74l223 1269q6 38 25 54t57 16h221q461 0 461 -321q0 -133 -47 -233t-132.5 -161.5t-198.5 -92t-253 -30.5h-84l-88 -501q-8 -41 -29.5 -57.5t-74.5 -16.5q-42 0 -62 11.5t-20 39.5q0 15 2 23zM414 729h53q80 0 145 10.5t110 28t79.5 43.5t54.5 53.5t32.5 62t16.5 65 t4 65.5q0 107 -82 156t-225 49h-94z" />
<glyph unicode="Q" horiz-adv-x="1564" d="M932 8q-105 -31 -227 -31q-267 0 -415.5 150.5t-148.5 411.5q0 131 29.5 257.5t94 243t156.5 204t226 140t293 52.5q266 0 414.5 -149.5t148.5 -409.5q0 -151 -40.5 -296t-127.5 -275t-211 -210q86 -37 146.5 -82.5t60.5 -83.5q0 -44 -36 -77t-78 -33q-23 0 -62.5 26.5 t-106 78t-116.5 83.5zM715 129q121 0 221.5 45t167.5 119t113.5 171t67 198.5t20.5 205.5q0 199 -98.5 307.5t-276.5 108.5q-99 0 -185.5 -31t-149.5 -85.5t-112.5 -126t-79.5 -154.5t-45.5 -168t-15.5 -170q0 -203 96.5 -311.5t276.5 -108.5z" />
<glyph unicode="R" horiz-adv-x="1099" d="M784 47l-348 574h-41l-96 -547q-6 -41 -28.5 -57.5t-75.5 -16.5q-42 0 -62 11.5t-20 39.5q0 15 2 23l223 1269q6 38 25.5 54t58.5 16h248q446 0 446 -307q0 -66 -14.5 -126t-49.5 -119.5t-88.5 -105.5t-136.5 -80t-188 -46l336 -516q18 -30 18 -54q0 -29 -28 -44t-76 -15 q-45 0 -66 10t-39 37zM422 770h80q105 0 183 19t122 47.5t70.5 70.5t34.5 80t8 84q0 186 -293 186h-119z" />
<glyph unicode="S" horiz-adv-x="1071" d="M940 360q0 -178 -124.5 -280.5t-360.5 -102.5q-90 0 -181.5 19.5t-153 54t-61.5 72.5q0 37 16.5 63.5t43.5 26.5q16 0 68.5 -20t130.5 -40t155 -20q270 0 270 205q0 58 -28 109.5t-73 93t-99.5 82t-109 84.5t-99.5 92t-73 113.5t-28 140.5q0 180 134.5 281.5t357.5 101.5 q121 0 215 -26.5t94 -78.5q0 -29 -12.5 -59.5t-38.5 -30.5q-8 0 -47 10.5t-98 20.5t-115 10q-139 0 -217 -58t-78 -153q0 -57 28 -108.5t73.5 -93.5t100 -83t109 -85.5t100 -92.5t73.5 -112t28 -136z" />
<glyph unicode="T" horiz-adv-x="1134" d="M397 74l207 1177h-358q-49 0 -49 45q0 117 79 117h914q27 0 38 -10.5t11 -36.5q0 -115 -78 -115h-366l-209 -1177q-6 -41 -29.5 -57.5t-77.5 -16.5q-43 0 -63.5 11.5t-20.5 41.5q0 13 2 21z" />
<glyph unicode="U" horiz-adv-x="1433" d="M1081 500l148 841q6 39 29 55.5t75 16.5q44 0 63 -11.5t19 -39.5q0 -13 -2 -21l-153 -866q-39 -228 -202.5 -363t-426.5 -135q-223 0 -345 103.5t-122 288.5q0 44 10 106l152 864q6 40 29.5 57t78.5 17q45 0 63.5 -11t18.5 -38q0 -17 -2 -25l-147 -839q-11 -68 -11 -103 q0 -264 301 -264q180 0 286.5 94t137.5 273z" />
<glyph unicode="V" horiz-adv-x="1273" d="M573 186h5q100 201 223 430l385 719q24 44 55 61t82 17q76 0 76 -45q0 -24 -23 -68l-684 -1218q-28 -53 -58 -69.5t-89 -16.5q-57 0 -79.5 17.5t-33.5 70.5l-244 1225q-4 28 -4 39q0 37 22.5 51t74.5 14q51 0 71.5 -17t28.5 -61l133 -712q42 -221 59 -437z" />
<glyph unicode="W" horiz-adv-x="1921" d="M1331 174h4q43 121 164 406l322 755q21 49 42.5 63.5t80.5 14.5q84 0 84 -45q0 -21 -21 -68l-553 -1212q-25 -56 -58 -74t-96 -18q-64 0 -90 19t-30 77l-64 807q-17 223 -22 322h-4q-132 -321 -136 -330l-342 -801q-24 -58 -56 -76t-97 -18q-66 0 -91.5 18.5t-31.5 75.5 l-131 1219q-2 12 -2 34q0 39 20.5 54.5t77.5 15.5q48 0 69 -16t25 -62l66 -778q14 -161 22 -383h4q50 140 162 404l318 743q23 53 56.5 72.5t100.5 19.5q68 0 91 -18.5t28 -73.5l66 -741q11 -127 22 -406z" />
<glyph unicode="X" horiz-adv-x="1306" d="M967 68l-88 174q-154 295 -193 383q-140 -167 -332 -383l-157 -181q-31 -36 -58 -49.5t-80 -13.5q-92 0 -92 47q0 26 27 53l571 629l-317 580q-12 21 -12 41q0 29 26 47t68 18q53 0 74 -15t42 -57l95 -186q125 -244 172 -346q255 314 278 342l168 201q30 34 56.5 47.5 t76.5 13.5q86 0 86 -45q0 -18 -26 -51l-521 -590l338 -627q11 -19 11 -39q0 -28 -26.5 -45.5t-72.5 -17.5q-51 0 -71.5 14t-42.5 56z" />
<glyph unicode="Y" horiz-adv-x="1159" d="M416 74l90 510l-318 731q-10 23 -10 41q0 57 105 57q51 0 72.5 -15.5t37.5 -56.5l82 -213q123 -324 143 -391h5q69 103 282 391l160 218q29 39 54.5 53t80.5 14q88 0 88 -47q0 -23 -22 -51l-574 -733l-88 -508q-8 -41 -30.5 -57.5t-75.5 -16.5q-43 0 -63.5 11.5 t-20.5 41.5q0 13 2 21z" />
<glyph unicode="Z" horiz-adv-x="1138" d="M913 0h-841q-29 0 -44.5 14t-15.5 35l8 62q5 34 25 57l909 1083h-647q-25 0 -36 10.5t-11 34.5q0 117 78 117h797q57 0 57 -45q0 -6 -6 -63q-2 -27 -27 -60l-909 -1085h690q26 0 37.5 -10t11.5 -35q0 -115 -76 -115z" />
<glyph unicode="[" horiz-adv-x="692" d="M385 -287h-264q-60 0 -60 47q0 17 2 25l295 1683q12 72 86 72h265q23 0 32 -8.5t9 -28.5q0 -18 -2 -30q-6 -38 -20.5 -53t-43.5 -15h-166l-274 -1557h164q25 0 34 -8t9 -30q0 -17 -2 -29q-8 -39 -21.5 -53.5t-42.5 -14.5z" />
<glyph unicode="\" horiz-adv-x="946" d="M557 43l-242 1303q-2 6 -2 16q0 29 21 40t63 11q40 0 54.5 -9t19.5 -32l242 -1304q0 -3 1 -8.5t1 -8.5q0 -51 -82 -51q-41 0 -57 10t-19 33z" />
<glyph unicode="]" horiz-adv-x="692" d="M301 -287h-264q-43 0 -43 37q0 7 4 31q6 38 20 52.5t43 14.5h166l275 1557h-166q-43 0 -43 37q0 7 4 31q6 38 20 52.5t43 14.5h265q59 0 59 -47q0 -17 -2 -25l-295 -1683q-12 -72 -86 -72z" />
<glyph unicode="^" horiz-adv-x="1103" d="M829 606l-67 344q-58 328 -60 342h-4q-82 -163 -182 -342l-192 -344q-22 -38 -41 -50.5t-56 -12.5q-73 0 -73 37q0 20 26 67l402 694q23 41 50.5 56.5t86.5 15.5q60 0 82.5 -15.5t32.5 -56.5l151 -694q6 -24 6 -43q0 -32 -20 -46.5t-64 -14.5q-38 0 -54.5 12.5 t-23.5 50.5z" />
<glyph unicode="_" horiz-adv-x="962" d="M782 -256h-860q-24 0 -34.5 7t-10.5 26q0 65 62 65h860q24 0 34.5 -6t10.5 -24q0 -68 -62 -68z" />
<glyph unicode="`" horiz-adv-x="915" d="M532 1106l-133 244q-10 20 -10 28q0 43 96 43q50 0 72 -11.5t31 -39.5l76 -237q6 -18 6 -29q0 -35 -64 -35q-35 0 -49 7.5t-25 29.5z" />
<glyph unicode="a" horiz-adv-x="1005" d="M647 53l21 94h-4q-126 -163 -334 -163q-136 0 -211.5 65.5t-75.5 177.5q0 69 28.5 130.5t87.5 114.5t163 84.5t241 31.5q97 0 170 -13l6 27q6 35 6 64q0 176 -192 176q-82 0 -188 -29t-125 -29q-37 0 -37 50q0 55 33 73q48 28 145 49t182 21q175 0 261.5 -74t86.5 -207 q0 -49 -8 -90l-96 -547q-6 -34 -25 -46.5t-65 -12.5q-34 0 -53 7.5t-19 31.5q0 8 2 14zM715 463q-58 10 -144 10q-179 0 -262.5 -58.5t-83.5 -156.5q0 -66 41 -103.5t123 -37.5q138 0 219.5 96t106.5 250z" />
<glyph unicode="b" horiz-adv-x="1167" d="M270 150h-4q-2 -8 -2 -25q-5 -38 -8.5 -55t-14.5 -36.5t-31 -26.5t-54 -7q-76 0 -76 39q0 12 2 18l227 1286q6 39 28 54.5t71 15.5q42 0 59.5 -10t17.5 -35q0 -17 -2 -25l-49 -274q-28 -160 -55 -274h4q69 86 162.5 134t199.5 48q159 0 249.5 -95.5t90.5 -269.5 q0 -89 -19 -177t-61 -171t-101.5 -146.5t-147 -102t-191.5 -38.5q-108 0 -186.5 45t-108.5 128zM557 123q69 0 127 28.5t97 75t67 107t40.5 124t12.5 126.5q0 120 -59.5 183.5t-161.5 63.5q-91 0 -163 -41.5t-114.5 -109t-64 -145.5t-21.5 -160q0 -124 63.5 -188t176.5 -64z " />
<glyph unicode="c" horiz-adv-x="958" d="M809 121q0 -74 -74.5 -109t-226.5 -35q-194 0 -314 102.5t-120 291.5q0 172 71 309t208 217t317 80q111 0 188.5 -27.5t77.5 -77.5q0 -75 -45 -75q-5 0 -80 18.5t-141 18.5q-185 0 -296.5 -124.5t-111.5 -316.5q0 -131 75.5 -200.5t207.5 -69.5q50 0 105.5 10.5 t92.5 21.5t43 11q23 0 23 -45z" />
<glyph unicode="d" horiz-adv-x="1169" d="M793 154h-5q-53 -85 -141 -131t-201 -46q-172 0 -267 101t-95 276q0 88 21.5 176.5t66 168.5t105.5 142t147 99t184 37q108 0 186.5 -45t104.5 -123h4q21 147 45 285l43 249q6 38 29 54t72 16q41 0 59 -11.5t18 -37.5q0 -15 -2 -21l-227 -1284q-6 -32 -26 -45.5 t-66 -13.5q-41 0 -58.5 12.5t-17.5 40.5q0 26 21 101zM496 123q90 0 161 42.5t112 111t62 146.5t21 159q0 122 -61 185.5t-170 63.5q-88 0 -157.5 -42t-110 -110.5t-61 -146t-20.5 -157.5q0 -121 60 -186.5t164 -65.5z" />
<glyph unicode="e" horiz-adv-x="1032" d="M930 438h-660q-4 -23 -4 -65q0 -121 69 -186.5t197 -65.5q75 0 162 23.5t92 23.5q27 0 27 -35q0 -156 -317 -156q-185 0 -299.5 95t-114.5 284q0 100 22.5 192t68 170t109.5 136t151.5 90.5t189.5 32.5q170 0 252.5 -92.5t82.5 -247.5q0 -90 -28 -199zM293 569h495 q7 47 7 72q0 96 -51.5 149.5t-147.5 53.5q-112 0 -192.5 -75t-110.5 -200z" />
<glyph unicode="f" horiz-adv-x="770" d="M215 70l129 745h-182q-23 0 -32 8.5t-9 28.5q0 102 65 102h183l24 129q34 182 125 261t234 79q141 0 141 -65q0 -86 -53 -86q-9 0 -38 3t-46 3q-78 0 -122.5 -40.5t-62.5 -145.5l-24 -138h211q25 0 34 -8.5t9 -30.5q0 -100 -66 -100h-213l-131 -745q-8 -39 -29.5 -54.5 t-70.5 -15.5q-42 0 -60 10.5t-18 36.5q0 15 2 23z" />
<glyph unicode="g" horiz-adv-x="1183" d="M801 168h-4q-53 -78 -143 -124t-203 -46q-167 0 -266 97.5t-99 271.5q0 88 21.5 175t66 165.5t105.5 138.5t147 95.5t184 35.5q109 0 189 -47t108 -127h4q6 97 24 124t87 27q43 0 59.5 -10.5t16.5 -30.5q0 -12 -2 -18l-152 -868q-39 -221 -161 -330t-347 -109 q-96 0 -181 14.5t-140.5 45t-55.5 69.5q0 36 14.5 57t41.5 21q19 0 68.5 -16.5t118.5 -32.5t134 -16q75 0 131.5 21t94 56t65.5 93.5t44 120t30 147.5zM502 143q88 0 159 40.5t113.5 106t65 142t22.5 154.5q0 122 -63.5 185t-175.5 63q-87 0 -156.5 -40.5t-110 -106 t-61.5 -141.5t-21 -155q0 -120 62 -184t166 -64z" />
<glyph unicode="h" horiz-adv-x="1181" d="M778 70l82 467q10 62 10 100q0 194 -188 194q-131 0 -223 -101t-119 -255l-72 -405q-8 -39 -29 -54.5t-71 -15.5q-76 0 -76 47q0 15 2 23l223 1273q6 38 29 54t72 16q42 0 60 -11t18 -38q0 -13 -2 -21l-64 -354q-19 -105 -41 -198h4q140 186 361 186q148 0 224.5 -79.5 t76.5 -213.5q0 -36 -11 -100l-90 -514q-8 -39 -29.5 -54.5t-70.5 -15.5q-42 0 -60 11.5t-18 39.5q0 13 2 19z" />
<glyph unicode="i" horiz-adv-x="565" d="M524 1198l-92 -76q-26 -20 -39 -20q-17 0 -35 20l-63 76q-12 15 -12 29q0 26 24 45l92 76q21 18 41 18t33 -18l64 -76q14 -17 14 -31q0 -22 -27 -43zM123 72l143 811q6 40 28 55.5t73 15.5q41 0 59 -11.5t18 -37.5q0 -14 -2 -22l-143 -811q-8 -41 -29 -56.5t-71 -15.5 q-41 0 -59.5 10.5t-18.5 38.5q0 15 2 23z" />
<glyph unicode="j" horiz-adv-x="587" d="M545 1198l-90 -76q-26 -20 -41 -20q-18 0 -33 20l-66 76q-12 12 -12 29q0 21 27 45l90 76q23 18 41 18q20 0 33 -18l65 -76q12 -14 12 -31q0 -23 -26 -43zM109 -129l178 1012q8 40 29.5 55.5t72.5 15.5q40 0 59 -11t19 -40q0 -12 -2 -20l-182 -1026q-48 -277 -295 -277 q-144 0 -144 64q0 32 16 60t48 28q12 0 37 -3t43 -3q96 0 121 145z" />
<glyph unicode="k" horiz-adv-x="1021" d="M705 63l-351 441h-6l-76 -434q-8 -39 -30 -54.5t-72 -15.5q-41 0 -59.5 11.5t-18.5 37.5q0 13 2 21l223 1273q6 38 29 54t74 16q42 0 60 -10.5t18 -36.5q0 -15 -2 -23l-140 -790h6l418 356q30 25 55.5 35t65.5 10q37 0 57.5 -12t20.5 -33q0 -31 -49 -71l-377 -303 l348 -429q23 -29 23 -53q0 -53 -90 -53q-53 0 -76 12.5t-53 50.5z" />
<glyph unicode="l" horiz-adv-x="516" d="M98 70l226 1273q6 39 28 54.5t72 15.5q41 0 59.5 -11t18.5 -38q0 -13 -2 -21l-226 -1273q-6 -39 -28 -54.5t-72 -15.5q-42 0 -60 10.5t-18 36.5q0 15 2 23z" />
<glyph unicode="m" horiz-adv-x="1728" d="M1327 70l86 487q8 49 8 100q0 86 -36.5 130t-122.5 44q-117 0 -201.5 -99t-110.5 -245l-73 -417q-8 -38 -30 -54t-69 -16q-42 0 -60 11.5t-18 39.5q0 13 2 19l86 487q9 56 9 100q0 86 -37 130t-123 44q-117 0 -201 -99t-110 -245l-74 -417q-8 -39 -29.5 -54.5 t-70.5 -15.5q-38 0 -56 11.5t-18 39.5q0 13 2 19l143 815q6 38 28.5 53.5t70.5 15.5q40 0 56.5 -11t16.5 -38q0 -32 -22 -112h4q60 84 146.5 134t189.5 50q105 0 170.5 -54t79.5 -143h4q60 89 153 143t207 54q137 0 208 -74.5t71 -200.5q0 -34 -11 -98l-94 -534 q-8 -39 -28.5 -54.5t-69.5 -15.5q-42 0 -60 11t-18 38q0 13 2 21z" />
<glyph unicode="n" horiz-adv-x="1167" d="M764 70l82 467q10 62 10 100q0 194 -188 194q-132 0 -223.5 -100t-118.5 -256l-70 -405q-6 -38 -28.5 -54t-71.5 -16q-78 0 -78 49q0 13 2 21l143 815q6 38 28 53.5t71 15.5q43 0 60 -12t17 -41q0 -18 -22 -108h4q135 184 360 184q146 0 221.5 -80t75.5 -217 q0 -52 -8 -96l-90 -514q-8 -39 -29.5 -54.5t-70.5 -15.5q-42 0 -60 11.5t-18 39.5q0 13 2 19z" />
<glyph unicode="o" horiz-adv-x="1159" d="M522 -23q-199 0 -319.5 109.5t-120.5 294.5q0 124 38.5 232.5t109.5 189.5t177.5 127.5t235.5 46.5q198 0 316 -113t118 -293q0 -263 -148 -428.5t-407 -165.5zM532 119q163 0 260 125.5t97 318.5q0 125 -69.5 200t-188.5 75q-161 0 -261 -130t-100 -319 q0 -127 71 -198.5t191 -71.5z" />
<glyph unicode="p" horiz-adv-x="1189" d="M219 -141l-33 -178q-6 -39 -28.5 -54.5t-73.5 -15.5q-41 0 -58.5 10t-17.5 35q0 17 2 25l215 1214q5 32 26 45.5t71 13.5q42 0 58.5 -12t16.5 -39q0 -16 -20 -106h4q137 180 367 180q155 0 245 -98.5t90 -272.5q0 -86 -20 -173t-62 -169t-101.5 -146t-145.5 -102.5 t-187 -38.5q-107 0 -185 43t-114 127h-4q-7 -71 -45 -288zM551 123q85 0 153.5 42.5t108.5 111t61 147.5t21 160q0 121 -58 183t-161 62q-73 0 -134.5 -27t-103 -72.5t-70.5 -104.5t-42 -122t-13 -128q0 -123 63.5 -187.5t174.5 -64.5z" />
<glyph unicode="q" horiz-adv-x="1163" d="M696 -319l39 217q12 67 47 239h-4q-49 -73 -137 -116.5t-201 -43.5q-167 0 -262.5 99.5t-95.5 275.5q0 88 21.5 176.5t65.5 169.5t105 143t147 99t185 37q108 0 186.5 -47t106.5 -127h4q4 42 6 59.5t9 40.5t18 31t30 14t48 6q43 0 59.5 -9t16.5 -30q0 -8 -3 -20 l-213 -1214q-6 -39 -28.5 -54.5t-73.5 -15.5q-42 0 -60 11t-18 38q0 13 2 21zM494 121q72 0 132.5 28t101 74.5t69.5 107t42 125t13 128.5q0 123 -62 186.5t-172 63.5q-87 0 -155.5 -42.5t-109 -111t-61 -147.5t-20.5 -160q0 -122 60 -187t162 -65z" />
<glyph unicode="r" horiz-adv-x="704" d="M76 70l143 815q6 38 28.5 53.5t71.5 15.5q42 0 59 -11t17 -38q0 -13 -9 -61t-15 -62h4q132 195 307 195q42 0 60 -10t18 -39q0 -40 -14.5 -77.5t-45.5 -37.5q-7 0 -28 2t-35 2q-51 0 -97.5 -19t-90 -59.5t-77 -113.5t-50.5 -172l-68 -383q-8 -39 -29 -54.5t-71 -15.5 q-43 0 -61.5 11.5t-18.5 39.5q0 13 2 19z" />
<glyph unicode="s" horiz-adv-x="811" d="M678 252q0 -130 -92.5 -202.5t-261.5 -72.5q-71 0 -136.5 12t-112 38t-46.5 61t14 57.5t41 22.5q3 0 87 -26.5t151 -26.5q93 0 135.5 31t42.5 94q0 36 -20 69t-51.5 59t-70 52.5t-77.5 55.5t-70.5 62t-51.5 78.5t-20 98.5q0 121 94 191.5t256 70.5q98 0 176 -24.5 t78 -67.5q0 -74 -47 -74q-3 0 -77 15.5t-127 15.5q-83 0 -129 -31t-46 -90q0 -44 37 -85.5t90 -79t106.5 -78.5t90.5 -99.5t37 -126.5z" />
<glyph unicode="t" horiz-adv-x="772" d="M225 274l94 541h-176q-23 0 -32 8.5t-9 28.5q0 102 66 102h178l45 250q6 35 27.5 48.5t66.5 13.5q78 0 78 -45q0 -11 -2 -17l-45 -250h223q23 0 32 -8.5t9 -30.5q0 -100 -65 -100h-223l-91 -516q-4 -18 -4 -51q0 -117 121 -117q23 0 58 5t42 5q33 0 33 -39 q0 -68 -41.5 -91t-134.5 -23q-127 0 -191.5 57t-64.5 160q0 31 6 69z" />
<glyph unicode="u" horiz-adv-x="1167" d="M788 162h-4q-133 -185 -358 -185q-149 0 -225 73t-76 208q0 42 10 104l92 523q6 38 28.5 53.5t72.5 15.5q41 0 59.5 -11.5t18.5 -37.5q0 -11 -3 -20l-84 -473q-8 -49 -8 -99q0 -95 45 -142.5t144 -47.5q131 0 222 99.5t118 256.5l71 406q6 38 28.5 53.5t72.5 15.5 q78 0 78 -53q0 -7 -3 -16l-143 -815q-8 -39 -30 -54.5t-72 -15.5q-43 0 -59.5 12.5t-16.5 40.5q0 12 3 27.5t9.5 42t9.5 39.5z" />
<glyph unicode="v" horiz-adv-x="950" d="M414 137h4q48 98 192 375l189 365q25 46 46 61.5t66 15.5q78 0 78 -49q0 -25 -24 -65l-430 -764q-30 -52 -58 -69t-86 -17q-57 0 -81 17.5t-34 68.5l-155 776q-4 32 -4 41q0 34 20 47.5t70 13.5q48 0 67 -14t25 -53l61 -404q6 -40 16.5 -108.5t19.5 -126.5t18 -111z" />
<glyph unicode="w" horiz-adv-x="1492" d="M1016 135l330 748q17 40 39.5 54.5t66.5 14.5q72 0 72 -45q0 -20 -21 -67l-364 -768q-23 -50 -53 -67t-89 -17q-65 0 -90.5 17t-29.5 67l-66 731h-4q-24 -47 -55 -119t-69 -163t-58 -138l-142 -311q-22 -47 -53.5 -64.5t-93.5 -17.5t-87.5 16.5t-31.5 65.5l-98 776 q-4 36 -4 45q0 36 18.5 48.5t71.5 12.5q41 0 61.5 -14.5t24.5 -52.5l41 -404q4 -48 8 -106t8.5 -129.5t7.5 -110.5h4q41 101 175 400l149 333q23 48 52 66t93 18t87 -17.5t28 -66.5l33 -335q31 -347 35 -400h4z" />
<glyph unicode="x" horiz-adv-x="976" d="M666 68l-64 125q-103 210 -113 231h-4q-54 -56 -206 -236l-109 -129q-29 -34 -52 -46.5t-71 -12.5q-90 0 -90 39q0 20 27 47l383 412l-209 358q-17 31 -17 47q0 51 95 51q49 0 68 -12.5t40 -54.5l49 -96q47 -89 113 -224h4q47 59 184 224l88 104q31 36 55 47.5t74 11.5 q80 0 80 -39q0 -18 -24 -45l-340 -372l221 -404q14 -22 14 -43q0 -51 -90 -51q-47 0 -66.5 13.5t-39.5 54.5z" />
<glyph unicode="y" horiz-adv-x="952" d="M311 -49l-194 903q-4 14 -4 39q0 34 21.5 47.5t72.5 13.5q50 0 70 -14t26 -53l115 -750h4l385 740q25 47 47.5 62t69.5 15q71 0 71 -39q0 -23 -24 -67l-518 -926q-110 -197 -185 -265.5t-192 -68.5q-146 0 -146 66q0 27 13 57.5t39 30.5q12 0 42.5 -6t51.5 -6 q62 0 113 47.5t122 173.5z" />
<glyph unicode="z" horiz-adv-x="942" d="M723 0h-668q-26 0 -38 12t-9 33l10 74q2 14 88 100q253 251 588 596h-481q-23 0 -33 8.5t-10 30.5q0 100 68 100h626q15 0 22.5 -0.5t17 -8t9.5 -21.5q0 -7 -6 -60q-3 -27 -16 -43l-660 -682h517q24 0 33.5 -8t9.5 -29q0 -102 -68 -102z" />
<glyph unicode="{" horiz-adv-x="724" d="M360 258l-32 -184q-9 -65 -9 -78q0 -166 173 -166q24 0 24 -25q0 -51 -15 -71.5t-50 -20.5q-148 0 -224.5 66t-76.5 196q0 47 8 91l39 208q10 65 10 99q0 60 -25.5 93.5t-85.5 53.5q-32 10 -43.5 21t-11.5 37q0 19 6 49q9 57 25 75t63 31q88 26 126.5 79t57.5 167l37 209 q30 173 138 262.5t280 89.5q22 0 31.5 -7.5t9.5 -25.5q0 -16 -2 -24q-6 -36 -14 -48t-27 -12q-207 0 -250 -243l-30 -185q-21 -125 -54.5 -195t-88 -107t-152.5 -64v-4q99 -35 138.5 -81.5t39.5 -137.5q0 -62 -15 -148z" />
<glyph unicode="|" horiz-adv-x="530" d="M33 -383l340 1921q4 31 24 43t64 12q40 0 57 -9t17 -32q0 -2 -1.5 -7t-1.5 -7l-339 -1921q-6 -31 -26.5 -43t-64.5 -12q-39 0 -55 8.5t-16 30.5q0 10 2 16z" />
<glyph unicode="}" horiz-adv-x="724" d="M461 274l-39 -208q-31 -174 -138 -263.5t-278 -89.5q-23 0 -33 8.5t-10 28.5q0 13 2 21q6 35 14 47t27 12q207 0 250 244l33 184q21 122 53.5 190.5t86.5 107t153 69.5v4q-99 30 -140 75t-41 134q0 37 19 157l31 185q8 39 8 80q0 163 -172 163q-25 0 -25 23q0 52 16.5 73 t51.5 21q147 0 223 -65.5t76 -194.5q0 -48 -8 -92l-37 -209q-11 -71 -11 -100q0 -59 25 -93t84 -53q32 -10 43.5 -21t11.5 -40q0 -9 -4 -45q-10 -58 -26.5 -76t-63.5 -31q-87 -25 -124 -78t-58 -168z" />
<glyph unicode="~" horiz-adv-x="1212" d="M1124 582q0 -67 -50 -117t-117 -72t-136 -22q-63 0 -116 17.5t-91.5 42t-75.5 49t-84.5 42t-101.5 17.5q-39 0 -81 -15t-69.5 -33.5t-50.5 -33.5t-30 -15q-12 0 -17.5 5.5t-5.5 21.5q0 97 92 156t209 59q63 0 116.5 -17.5t92 -42t76 -49t85 -42t101.5 -17.5q50 0 103 24 t87.5 48t41.5 24q11 0 16.5 -6t5.5 -24z" />
<glyph unicode="&#xa1;" horiz-adv-x="696" d="M532 782l-110 -92q-21 -18 -41 -18q-18 0 -33 18l-78 92q-12 15 -12 29q0 22 25 43l110 92q22 19 39 19q19 0 35 -19l78 -92q10 -13 10 -29q0 -23 -23 -43zM94 -385l185 870q6 28 22.5 40t54.5 12q35 0 48.5 -8.5t13.5 -28.5v-15l-119 -870q-6 -42 -33.5 -60t-85.5 -18 q-47 0 -68.5 12.5t-21.5 40.5q0 5 4 25z" />
<glyph unicode="&#xa2;" horiz-adv-x="1032" d="M172 -217l121 250q-180 99 -180 332q0 138 51 255.5t135 194t191.5 119.5t222.5 43h41l116 237q11 25 54 25t43 -20q0 -5 -9 -27l-108 -227q65 -13 94 -31t29 -53q0 -33 -12 -60.5t-33 -27.5q-5 0 -65 16.5t-83 17.5l-331 -682q56 -22 133 -22q45 0 101 10.5t95.5 21.5 t44.5 11q23 0 23 -31q0 -85 -76.5 -121.5t-230.5 -36.5q-92 0 -162 23l-117 -240q-11 -24 -51 -24q-45 0 -45 20q0 11 8 27zM373 193l311 641q-173 -7 -279 -132t-106 -319q0 -122 74 -190z" />
<glyph unicode="&#xa3;" horiz-adv-x="1062" d="M807 0h-725q-21 0 -30 9t-9 30q0 43 16 77t50 34h145l96 542h-127q-33 0 -33 31q0 90 54 90h127l22 131q42 246 174.5 369t345.5 123q185 0 185 -78q0 -36 -14.5 -62t-41.5 -26q-13 0 -57.5 8t-77.5 8q-135 0 -213.5 -77t-107.5 -240l-29 -156h268q33 0 33 -29 q0 -38 -12.5 -65t-40.5 -27h-268l-97 -542h394q20 0 28 -9.5t8 -31.5q0 -45 -14.5 -77t-48.5 -32z" />
<glyph unicode="&#xa4;" horiz-adv-x="1136" d="M883 231l-135 166q-88 -63 -205 -63q-116 0 -187 63l-192 -166q-21 -18 -41 -18q-23 0 -44.5 22.5t-21.5 47.5q0 26 43 61l179 152q-29 57 -29 125q0 150 96 256l-125 151q-22 25 -22 49q0 25 32 53.5t60 28.5q22 0 35 -18l135 -166q95 65 211 65q111 0 180 -63l192 164 q21 18 39 18q25 0 46.5 -22t21.5 -47q0 -24 -43 -62l-174 -149q29 -57 29 -125q0 -65 -25.5 -134t-73.5 -124l121 -152q25 -31 25 -49q0 -25 -33 -53.5t-62 -28.5q-17 0 -32 18zM567 473q109 0 178.5 79t69.5 185q0 75 -47 120.5t-125 45.5q-102 0 -174 -75.5t-72 -186.5 q0 -77 45.5 -122.5t124.5 -45.5z" />
<glyph unicode="&#xa5;" horiz-adv-x="1056" d="M838 350h-244l-49 -276q-6 -40 -28.5 -57t-74.5 -17q-40 0 -58.5 11.5t-18.5 39.5q0 15 2 23l49 276h-244q-19 0 -26 7.5t-7 23.5q0 80 51 80h244l23 123l-8 20h-232q-33 0 -33 33q0 29 11.5 53.5t40.5 24.5h172l-226 592q-6 18 -6 36q0 70 105 70q52 0 74 -15.5 t34 -56.5l72 -233q75 -238 110 -383h4q37 60 248 381l156 240q24 38 50.5 52.5t76.5 14.5q86 0 86 -43q0 -19 -25 -55l-436 -600h170q33 0 33 -31q0 -80 -53 -80h-230l-16 -22l-21 -121h242q35 0 35 -29q0 -82 -53 -82z" />
<glyph unicode="&#xa6;" horiz-adv-x="530" d="M250 850l123 688q5 31 24 43t64 12q39 0 55 -9t16 -32v-14l-122 -688q-6 -31 -25 -43t-63 -12q-40 0 -57 9t-17 32q0 2 1 6.5t1 7.5zM33 -383l121 688q4 30 25.5 42.5t66.5 12.5q37 0 53 -8t16 -28q0 -13 -2 -19l-120 -688q-6 -31 -26.5 -43t-64.5 -12q-39 0 -55 9 t-16 32q0 8 2 14z" />
<glyph unicode="&#xa7;" horiz-adv-x="1017" d="M674 297q65 -48 95 -98t30 -119q0 -159 -108.5 -264t-295.5 -105q-89 0 -171 15.5t-135.5 45t-53.5 66.5q0 39 16 61.5t45 22.5q2 0 111 -31.5t176 -31.5q117 0 178.5 48.5t61.5 125.5q0 47 -25.5 87.5t-66 71t-89 60.5t-97.5 61.5t-89.5 66.5t-66 83.5t-25.5 105.5 q0 105 67 175t185 104q-156 108 -156 252q0 47 13 91t43.5 86.5t77 74t118.5 50.5t162 19q117 0 203 -24t86 -76q0 -82 -56 -82q-4 0 -93 17.5t-155 17.5q-101 0 -163 -42t-62 -114q0 -41 25 -78.5t65 -67.5t88 -59.5t96.5 -61.5t88.5 -67t65 -82.5t25 -101.5 q0 -211 -213 -303zM459 436l119 -71q65 25 105 81.5t40 124.5q0 40 -24.5 72t-80.5 68l-102 67q-83 -17 -133.5 -68t-50.5 -118q0 -49 32 -83t95 -73z" />
<glyph unicode="&#xa8;" horiz-adv-x="1101" d="M563 1196l-88 -74q-19 -16 -39 -16q-22 0 -35 16l-59 74q-12 15 -12 31q0 20 24 41l86 73q20 17 39 17q21 0 35 -17l61 -73q13 -16 13 -29q0 -22 -25 -43zM1014 1196l-88 -74q-19 -16 -39 -16q-22 0 -35 16l-59 74q-13 16 -13 31q0 19 25 41l86 73q20 17 39 17 q21 0 35 -17l61 -73q12 -15 12 -29q0 -23 -24 -43z" />
<glyph unicode="&#xa9;" horiz-adv-x="1855" d="M842 -6q-280 0 -440 150.5t-160 406.5q0 175 63 333.5t173.5 276.5t270.5 188t345 70q279 0 440.5 -150.5t161.5 -406.5q0 -175 -63.5 -334t-174.5 -277t-271.5 -187.5t-344.5 -69.5zM858 76q162 0 303.5 62t238 166.5t151.5 244t55 293.5q0 229 -140.5 362t-386.5 133 q-131 0 -249 -40t-208 -112t-156.5 -167.5t-101 -210.5t-34.5 -238q0 -227 141 -360t387 -133zM1186 424q0 -148 -268 -148q-76 0 -140.5 20t-115.5 59t-80 103.5t-29 147.5q0 123 44.5 225.5t118.5 168t165 101.5t188 36t159 -23.5t62 -64.5q0 -29 -9 -50.5t-26 -21.5 q-2 0 -66.5 15.5t-125.5 15.5q-147 0 -245.5 -102t-98.5 -275q0 -113 65 -168t174 -55q43 0 91.5 10t81 20.5t36.5 10.5q19 0 19 -25z" />
<glyph unicode="&#xaa;" horiz-adv-x="833" d="M614 662l17 73q-92 -133 -264 -133q-112 0 -178 50.5t-66 140.5q0 145 118 228t316 83q72 0 127 -10l2 14q6 30 6 57q0 123 -145 123q-49 0 -137.5 -22.5t-114.5 -22.5q-29 0 -29 33q0 72 49 92q48 20 123 33.5t146 13.5q125 0 197.5 -54.5t72.5 -172.5q0 -32 -6 -76 l-80 -450q-4 -29 -23 -39.5t-61 -10.5q-38 0 -55 7.5t-17 27.5q0 9 2 15zM668 987q-62 8 -105 8q-264 0 -264 -174q0 -45 29 -69.5t84 -24.5q123 0 202 113q41 59 54 147z" />
<glyph unicode="&#xab;" horiz-adv-x="944" d="M240 156l-127 241q-19 37 -19 68q0 36 47 92l211 244q21 24 39.5 32.5t52.5 8.5q64 0 64 -29q0 -20 -16 -39l-230 -297l127 -295q6 -15 6 -26q0 -41 -80 -41q-35 0 -48.5 8t-26.5 33zM625 156l-127 241q-19 37 -19 68q0 36 47 92l211 244q21 24 39.5 32.5t52.5 8.5 q64 0 64 -29q0 -20 -16 -39l-230 -297l127 -295q6 -15 6 -26q0 -41 -80 -41q-35 0 -48.5 8t-26.5 33z" />
<glyph unicode="&#xac;" horiz-adv-x="1189" d="M885 281l67 401h-786q-26 0 -35.5 8t-9.5 29q0 50 14.5 76t54.5 26h873q33 0 47 -11t14 -36q0 -16 -2 -24l-82 -469q-6 -34 -26 -46t-64 -12q-36 0 -51.5 7.5t-15.5 29.5q0 13 2 21z" />
<glyph unicode="&#xad;" horiz-adv-x="643" d="M506 475h-367q-25 0 -35 8.5t-10 30.5q0 65 18.5 91t53.5 26h369q24 0 34.5 -9t10.5 -32q0 -115 -74 -115z" />
<glyph unicode="&#xae;" horiz-adv-x="1052" d="M563 680q-142 0 -223.5 76.5t-81.5 206.5q0 189 123 313.5t309 124.5q141 0 222 -76.5t81 -206.5q0 -189 -123.5 -313.5t-306.5 -124.5zM573 739q151 0 253 106t102 259q0 109 -67.5 173t-182.5 64q-153 0 -252.5 -105.5t-99.5 -264.5q0 -107 65.5 -169.5t181.5 -62.5z M672 852l-109 160h-4l-27 -156q-3 -14 -10.5 -19.5t-27.5 -5.5q-29 0 -29 15q0 2 1 5t1 5l65 373q3 24 29 24h88q63 0 97 -24t34 -70q0 -59 -35.5 -97.5t-99.5 -45.5l92 -131q13 -19 13 -31q0 -23 -37 -23q-28 0 -41 21zM569 1065h29q111 0 111 78q0 53 -78 53h-41z" />
<glyph unicode="&#xaf;" horiz-adv-x="1087" d="M948 1171h-563q-27 0 -27 31q0 72 45 72h564q24 0 24 -29q0 -36 -12 -55t-31 -19z" />
<glyph unicode="&#xb0;" horiz-adv-x="804" d="M471 864q-123 0 -193.5 65t-70.5 175q0 157 104.5 266t268.5 109q122 0 193 -65.5t71 -176.5q0 -155 -105 -264t-268 -109zM492 981q98 0 159.5 70.5t61.5 165.5q0 66 -42 105.5t-114 39.5q-93 0 -157 -66t-64 -168q0 -68 42 -107.5t114 -39.5z" />
<glyph unicode="&#xb1;" horiz-adv-x="1204" d="M1077 592h-379l-47 -270q-6 -33 -24.5 -44.5t-61.5 -11.5q-38 0 -54.5 8.5t-16.5 30.5q0 11 2 17l47 270h-381q-27 0 -36 9t-9 32q0 49 15 75.5t56 26.5h381l47 271q6 32 25.5 43.5t63.5 11.5q35 0 52 -9t17 -32q0 -2 -1 -6.5t-1 -7.5l-47 -271h379q27 0 36 -9t9 -32 q0 -48 -15.5 -75t-56.5 -27zM977 0h-916q-26 0 -37.5 8.5t-11.5 28.5q0 106 74 106h915q27 0 36.5 -9t9.5 -32q0 -49 -14.5 -75.5t-55.5 -26.5z" />
<glyph unicode="&#xb2;" horiz-adv-x="772" d="M639 565h-489q-37 0 -37 29q0 8 2 12l6 41q4 26 12.5 37.5t32.5 30.5l223 176q127 100 181.5 169t54.5 148q0 109 -129 109q-46 0 -120.5 -21.5t-94.5 -21.5q-25 0 -25 26q0 68 45 86q122 46 227 46q118 0 183 -52t65 -143q0 -50 -17 -99t-41.5 -87.5t-65 -81.5 t-74.5 -72t-84 -68q-55 -44 -123.5 -95.5t-73.5 -55.5q160 4 274 4h88q18 0 25.5 -7.5t7.5 -25.5q0 -84 -53 -84z" />
<glyph unicode="&#xb3;" horiz-adv-x="763" d="M565 1008q148 -42 148 -170q0 -130 -102 -208.5t-267 -78.5q-115 0 -172 18t-57 49q0 39 13.5 57.5t29.5 18.5q11 0 75.5 -15t122.5 -15q215 0 215 163q0 60 -48 90.5t-138 30.5q-25 0 -36 7t-11 26q0 45 16 61.5t49 16.5q106 0 167 43t61 121q0 96 -129 96 q-47 0 -126 -20.5t-89 -20.5q-25 0 -25 29q0 70 47 84q126 41 223 41q116 0 180 -47.5t64 -131.5q0 -93 -57 -159t-154 -86z" />
<glyph unicode="&#xb4;" horiz-adv-x="915" d="M825 1350l-219 -244q-20 -22 -36.5 -29.5t-49.5 -7.5q-57 0 -57 23q0 11 20 41l162 237q20 28 44 39.5t73 11.5q84 0 84 -32q0 -15 -21 -39z" />
<glyph unicode="&#xb5;" horiz-adv-x="1263" d="M807 158h-4q-111 -181 -316 -181q-78 0 -136 29.5t-85 79.5l-6 -4q-12 -93 -49 -313l-21 -129q-6 -39 -28.5 -54.5t-73.5 -15.5q-40 0 -58 10t-18 37q0 15 2 23l219 1245q6 38 28.5 53.5t72.5 15.5q41 0 59.5 -11t18.5 -40q0 -3 -1 -9t-1 -9l-84 -471q-9 -46 -9 -84 q0 -101 52 -155t155 -54q125 0 207.5 97t112.5 265l71 402q6 38 28 53.5t73 15.5q40 0 58 -10t18 -37q0 -14 -2 -22l-111 -631q-4 -20 -4 -51q0 -34 13 -50t44 -16q29 0 40 -10.5t11 -34.5q0 -51 -24.5 -76.5t-95.5 -25.5q-81 0 -119.5 32t-38.5 105q0 5 1 15.5t1 15.5z" />
<glyph unicode="&#xb6;" horiz-adv-x="1251" d="M752 -270l274 1554h-215l-272 -1554q-6 -32 -25 -45t-59 -13q-36 0 -52 9t-16 30q0 13 2 19l135 759q-185 6 -285 97.5t-100 251.5q0 121 41 226t116 182.5t189 122t252 44.5h551q17 0 24 -8.5t7 -28.5q0 -38 -14 -65t-41 -27h-90l-273 -1554q-6 -32 -25.5 -45t-60.5 -13 q-34 0 -49.5 9t-15.5 30q0 13 2 19z" />
<glyph unicode="&#xb7;" horiz-adv-x="561" d="M422 522l-111 -94q-19 -16 -41 -16q-19 0 -32 16l-80 94q-11 15 -11 29q0 23 23 43l111 92q22 16 41 16t32 -16l80 -92q10 -12 10 -27q0 -26 -22 -45z" />
<glyph unicode="&#xb8;" horiz-adv-x="991" d="M264 -201l-14 -2q-19 0 -19 15q0 8 2 12l58 194h106l-47 -141q30 10 68 10q50 0 86.5 -32.5t36.5 -90.5q0 -56 -22 -99.5t-58.5 -69t-79.5 -38t-90 -12.5q-62 0 -93.5 7.5t-31.5 33.5q0 54 45 54q10 0 37 -3.5t45 -3.5q45 0 80 26t35 83q0 31 -20.5 48t-53.5 17 q-24 0 -70 -8z" />
<glyph unicode="&#xb9;" horiz-adv-x="708" d="M346 608l119 649q-137 -118 -166 -118q-20 0 -38.5 22t-18.5 43q0 26 39 53l188 136q31 22 57 22h62q37 0 37 -31q0 -2 -1 -6t-1 -6l-134 -764q-5 -27 -21.5 -37t-57.5 -10q-36 0 -51 7.5t-15 25.5q0 8 2 14z" />
<glyph unicode="&#xba;" horiz-adv-x="944" d="M494 602q-159 0 -249.5 86t-90.5 234q0 144 65.5 257.5t175 174.5t242.5 61q160 0 251 -83.5t91 -229.5q0 -145 -65.5 -260t-175.5 -177.5t-244 -62.5zM516 733q122 0 204.5 97t82.5 260q0 94 -49.5 145t-141.5 51q-121 0 -201.5 -96.5t-80.5 -257.5q0 -96 48 -147.5 t138 -51.5z" />
<glyph unicode="&#xbb;" horiz-adv-x="944" d="M422 397l-213 -241q-21 -24 -40 -32.5t-54 -8.5q-64 0 -64 28q0 14 19 39l229 295l-125 297q-6 15 -6 27q0 41 76 41q35 0 51 -8.5t27 -32.5l127 -244q18 -37 18 -63q0 -46 -45 -97zM807 397l-213 -241q-21 -24 -40 -32.5t-54 -8.5q-64 0 -64 28q0 14 19 39l229 295 l-125 297q-6 15 -6 27q0 41 76 41q35 0 51 -8.5t27 -32.5l127 -244q18 -37 18 -63q0 -46 -45 -97z" />
<glyph unicode="&#xbc;" horiz-adv-x="1732" d="M311 25l1061 1437q16 23 32 32t48 9q57 0 57 -30q0 -17 -16 -39l-1061 -1438q-19 -24 -34.5 -32.5t-47.5 -8.5q-55 0 -55 31q0 18 16 39zM346 608l119 649q-16 -14 -64 -51.5t-63 -50.5q-22 -16 -39 -16q-20 0 -38.5 22t-18.5 43q0 26 39 53l188 136q31 22 57 22h62 q37 0 37 -31q0 -2 -1 -6t-1 -6l-134 -764q-5 -27 -21.5 -37t-57.5 -10q-36 0 -51 7.5t-15 25.5q0 8 2 14zM1587 180h-78l-22 -135q-5 -25 -21.5 -35t-54.5 -10q-33 0 -48 7.5t-15 29.5l26 143h-352q-43 0 -43 39l6 45q4 23 29 51l405 506q26 33 66 33h98q22 0 30.5 -10.5 t8.5 -32.5l-92 -516h78q17 0 23.5 -6t6.5 -23q0 -48 -13 -67t-38 -19zM1397 295l41 237q22 118 39 197q-12 -16 -47 -62.5t-52 -68.5l-241 -303h260z" />
<glyph unicode="&#xbd;" horiz-adv-x="1800" d="M311 25l1061 1437q16 23 32 32t48 9q57 0 57 -30q0 -17 -16 -39l-1061 -1438q-19 -24 -34.5 -32.5t-47.5 -8.5q-55 0 -55 31q0 20 16 39zM346 608l119 649q-16 -14 -64 -51.5t-63 -50.5q-22 -16 -39 -16q-20 0 -38.5 22t-18.5 43q0 26 39 53l188 136q31 22 57 22h62 q37 0 37 -31q0 -2 -1 -6t-1 -6l-134 -764q-5 -27 -21.5 -37t-57.5 -10q-36 0 -51 7.5t-15 25.5q0 8 2 14zM1569 0h-490q-37 0 -37 29q0 8 2 12l7 41q4 26 12.5 37.5t32.5 30.5l223 176q126 99 180.5 168.5t54.5 148.5q0 109 -129 109q-46 0 -120.5 -21.5t-94.5 -21.5 q-24 0 -24 26q0 68 45 86q119 45 227 45q119 0 183.5 -52t64.5 -142q0 -61 -30.5 -126.5t-73.5 -117t-103.5 -106.5t-107 -89.5t-99 -72t-65.5 -47.5q160 4 274 4h88q18 0 25.5 -7.5t7.5 -25.5q0 -84 -53 -84z" />
<glyph unicode="&#xbe;" horiz-adv-x="1816" d="M420 25l1061 1437q16 23 32 32t48 9q57 0 57 -30q0 -17 -16 -39l-1063 -1438q-16 -23 -32 -32t-50 -9q-54 0 -54 31q0 16 17 39zM1669 180h-78l-22 -135q-5 -25 -21.5 -35t-54.5 -10q-33 0 -48 7.5t-15 29.5l26 143h-352q-43 0 -43 39l6 45q4 23 29 51l405 506 q26 33 66 33h98q22 0 30.5 -10.5t8.5 -32.5l-92 -516h78q17 0 23.5 -6t6.5 -23q0 -48 -13 -67t-38 -19zM1479 295l41 237q22 118 39 197q-12 -16 -47 -62.5t-52 -68.5l-241 -303h260zM565 1008q148 -42 148 -170q0 -130 -102 -208.5t-267 -78.5q-115 0 -172 18t-57 49 q0 39 13.5 57.5t29.5 18.5q11 0 75.5 -15t122.5 -15q215 0 215 163q0 60 -48 90.5t-138 30.5q-25 0 -36 7t-11 26q0 45 16 61.5t49 16.5q106 0 167 43t61 121q0 96 -129 96q-47 0 -126 -20.5t-89 -20.5q-25 0 -25 29q0 70 47 84q126 41 223 41q116 0 180 -47.5t64 -131.5 q0 -93 -57 -159t-154 -86z" />
<glyph unicode="&#xbf;" horiz-adv-x="888" d="M625 782l-111 -92q-18 -18 -39 -18q-20 0 -35 18l-75 92q-15 19 -15 27q0 22 27 45l108 92q22 19 41 19q17 0 33 -19l78 -92q12 -16 12 -31q0 -20 -24 -41zM633 -317q0 -86 -102 -128t-279 -42q-150 0 -228.5 74t-78.5 186q0 48 11.5 92.5t28.5 80t51 79t65.5 77 t84.5 86.5q94 95 123.5 145t44.5 136q8 47 27.5 62.5t73.5 15.5q42 0 57.5 -9.5t15.5 -35.5q0 -20 -6 -47q-18 -100 -54 -163t-136 -163q-49 -49 -72.5 -74.5t-56 -69.5t-46.5 -86t-14 -89q0 -65 42 -104.5t116 -39.5q68 0 171.5 29t127.5 29q33 0 33 -41z" />
<glyph unicode="&#xc0;" horiz-adv-x="1325" d="M774 1565l-133 243q-10 20 -10 29q0 43 96 43q50 0 71.5 -11.5t30.5 -39.5l76 -238q6 -18 6 -28q0 -35 -63 -35q-35 0 -48 7.5t-26 29.5zM1020 84l-66 311h-598l-176 -313q-30 -52 -55 -69t-78 -17q-88 0 -88 51q0 25 27 74l694 1192q37 65 65 85.5t82 20.5t75.5 -21.5 t35.5 -86.5l268 -1190q6 -27 6 -51q0 -38 -21.5 -56t-68.5 -18q-52 0 -71.5 18t-30.5 70zM924 543l-64 299q-38 196 -61 348h-4q-86 -172 -187 -350l-168 -297h484z" />
<glyph unicode="&#xc1;" horiz-adv-x="1325" d="M1153 1808l-219 -243q-20 -22 -36.5 -29.5t-49.5 -7.5q-57 0 -57 22q0 11 20 41l162 238q20 28 44 39.5t73 11.5q84 0 84 -33q0 -15 -21 -39zM1020 84l-66 311h-598l-176 -313q-30 -52 -55 -69t-78 -17q-88 0 -88 51q0 25 27 74l694 1192q37 65 65 85.5t82 20.5 t75.5 -21.5t35.5 -86.5l268 -1190q6 -27 6 -51q0 -38 -21.5 -56t-68.5 -18q-52 0 -71.5 18t-30.5 70zM924 543l-64 299q-38 196 -61 348h-4q-86 -172 -187 -350l-168 -297h484z" />
<glyph unicode="&#xc2;" horiz-adv-x="1325" d="M1022 1559l-133 210l-207 -210q-15 -17 -31 -23t-47 -6q-49 0 -49 20q0 14 16 33l205 248q24 27 52.5 38t82.5 11q56 0 81.5 -11t37.5 -38l115 -248q6 -15 6 -24q0 -29 -59 -29q-33 0 -46 5.5t-24 23.5zM1020 84l-66 311h-598l-176 -313q-30 -52 -55 -69t-78 -17 q-88 0 -88 51q0 25 27 74l694 1192q37 65 65 85.5t82 20.5t75.5 -21.5t35.5 -86.5l268 -1190q6 -27 6 -51q0 -38 -21.5 -56t-68.5 -18q-52 0 -71.5 18t-30.5 70zM924 543l-64 299q-38 196 -61 348h-4q-86 -172 -187 -350l-168 -297h484z" />
<glyph unicode="&#xc3;" horiz-adv-x="1325" d="M1020 84l-66 311h-598l-176 -313q-30 -52 -55 -69t-78 -17q-88 0 -88 51q0 25 27 74l694 1192q37 65 65 85.5t82 20.5t75.5 -21.5t35.5 -86.5l268 -1190q6 -27 6 -51q0 -38 -21.5 -56t-68.5 -18q-52 0 -71.5 18t-30.5 70zM924 543l-64 299q-38 196 -61 348h-4 q-86 -172 -187 -350l-168 -297h484zM1192 1802h29q8 0 14 -7.5t6 -14.5q0 -5 -4 -21q-31 -90 -92.5 -136t-134.5 -46q-60 0 -162 44t-143 44q-22 0 -39 -4.5t-29.5 -15t-19.5 -18.5t-17.5 -24.5t-15.5 -23.5q-6 -10 -37 -10q-35 0 -35 24q0 11 2 19q31 90 93.5 136t135.5 46 q58 0 163 -44t143 -44q52 0 81 33q8 9 19.5 27.5t20.5 27t22 8.5z" />
<glyph unicode="&#xc4;" horiz-adv-x="1325" d="M756 1655l-88 -74q-19 -16 -39 -16q-22 0 -35 16l-59 74q-13 16 -13 31q0 18 25 40l86 74q20 17 39 17q21 0 35 -17l61 -74q12 -15 12 -28q0 -23 -24 -43zM1206 1655l-88 -74q-19 -16 -39 -16q-22 0 -35 16l-59 74q-12 15 -12 31q0 19 24 40l86 74q20 17 39 17 q21 0 35 -17l62 -74q12 -15 12 -28q0 -22 -25 -43zM1020 84l-66 311h-598l-176 -313q-30 -52 -55 -69t-78 -17q-88 0 -88 51q0 25 27 74l694 1192q37 65 65 85.5t82 20.5t75.5 -21.5t35.5 -86.5l268 -1190q6 -27 6 -51q0 -38 -21.5 -56t-68.5 -18q-52 0 -71.5 18t-30.5 70z M924 543l-64 299q-38 196 -61 348h-4q-86 -172 -187 -350l-168 -297h484z" />
<glyph unicode="&#xc5;" horiz-adv-x="1325" d="M1020 84l-66 311h-598l-176 -313q-30 -52 -55 -69t-78 -17q-88 0 -88 51q0 25 27 74l694 1192q37 65 65 85.5t82 20.5t75.5 -21.5t35.5 -86.5l268 -1190q6 -27 6 -51q0 -38 -21.5 -56t-68.5 -18q-52 0 -71.5 18t-30.5 70zM924 543l-64 299q-29 134 -61 348h-4 q-86 -172 -187 -350l-168 -297h484zM1073 1724q0 -97 -66 -162t-165 -65q-76 0 -120 40.5t-44 109.5q0 100 66 163.5t165 63.5q75 0 119.5 -41t44.5 -109zM856 1575q55 0 92 37t37 96q0 40 -24.5 64t-65.5 24q-56 0 -92.5 -37.5t-36.5 -97.5q0 -39 24 -62.5t66 -23.5z" />
<glyph unicode="&#xc6;" horiz-adv-x="1738" d="M1473 0h-584q-62 0 -62 51q0 13 2 21l45 315h-487l-209 -293q-45 -65 -67 -81.5t-74 -16.5q-86 0 -86 47q0 26 31 68l858 1173q57 78 90.5 103.5t93.5 25.5h662q26 0 37.5 -10t11.5 -35q0 -115 -78 -115h-479l-64 -442h445q26 0 37.5 -10t11.5 -33q0 -113 -76 -113h-438 l-68 -495h475q27 0 38 -9.5t11 -33.5q0 -117 -77 -117zM895 535l100 718h-8q-104 -168 -266 -397l-229 -321h403z" />
<glyph unicode="&#xc7;" horiz-adv-x="1265" d="M563 -225l-14 -2q-19 0 -19 14q0 8 2 12l56 189q-216 31 -334.5 169t-118.5 369q0 189 58 355t163.5 289t263 194.5t345.5 71.5q87 0 167 -15.5t133.5 -46.5t53.5 -71q0 -35 -15 -56.5t-38 -21.5q-10 0 -120 26.5t-192 26.5q-117 0 -217 -39t-172.5 -107t-124 -159.5 t-77 -197.5t-25.5 -220q0 -200 108.5 -308t303.5 -108q74 0 150.5 18t128 36t63.5 18q38 0 38 -57q0 -78 -111 -127.5t-300 -49.5h-29l-41 -124q30 10 68 10q50 0 86.5 -32.5t36.5 -90.5t-22 -102t-59 -68.5t-79.5 -36.5t-89.5 -12q-62 0 -93.5 7.5t-31.5 33.5q0 53 45 53 q10 0 37 -3t45 -3q45 0 80 25.5t35 82.5q0 31 -20.5 48.5t-53.5 17.5q-24 0 -70 -8z" />
<glyph unicode="&#xc8;" horiz-adv-x="1099" d="M688 1565l-133 243q-10 20 -10 29q0 43 96 43q50 0 71.5 -11.5t30.5 -39.5l76 -238q6 -18 6 -28q0 -35 -63 -35q-35 0 -49 7.5t-25 29.5zM819 0h-647q-61 0 -61 49q0 13 2 21l225 1273q6 38 25.5 54t58.5 16h641q27 0 38 -10.5t11 -36.5q0 -48 -18 -80.5t-60 -32.5h-526 l-78 -442h481q27 0 38.5 -10.5t11.5 -34.5q0 -111 -76 -111h-482l-88 -495h531q28 0 39.5 -10t11.5 -35q0 -115 -78 -115z" />
<glyph unicode="&#xc9;" horiz-adv-x="1099" d="M1067 1808l-219 -243q-20 -22 -36.5 -29.5t-49.5 -7.5q-57 0 -57 22q0 11 20 41l162 238q20 28 44 39.5t73 11.5q83 0 83 -33q0 -16 -20 -39zM819 0h-647q-61 0 -61 49q0 13 2 21l225 1273q6 38 25.5 54t58.5 16h641q27 0 38 -10.5t11 -36.5q0 -48 -18 -80.5t-60 -32.5 h-526l-78 -442h481q27 0 38.5 -10.5t11.5 -34.5q0 -111 -76 -111h-482l-88 -495h531q28 0 39.5 -10t11.5 -35q0 -115 -78 -115z" />
<glyph unicode="&#xca;" horiz-adv-x="1099" d="M936 1559l-133 210l-207 -210q-15 -17 -31 -23t-47 -6q-49 0 -49 20q0 14 16 33l205 248q24 27 52.5 38t82.5 11q56 0 81.5 -11t37.5 -38l115 -248q6 -15 6 -24q0 -29 -59 -29q-33 0 -46 5.5t-24 23.5zM819 0h-647q-61 0 -61 49q0 13 2 21l225 1273q6 38 25.5 54t58.5 16 h641q27 0 38 -10.5t11 -36.5q0 -48 -18 -80.5t-60 -32.5h-526l-78 -442h481q27 0 38.5 -10.5t11.5 -34.5q0 -111 -76 -111h-482l-88 -495h531q28 0 39.5 -10t11.5 -35q0 -115 -78 -115z" />
<glyph unicode="&#xcb;" horiz-adv-x="1099" d="M670 1655l-88 -74q-19 -16 -39 -16q-22 0 -35 16l-59 74q-13 16 -13 31q0 18 25 40l86 74q20 17 39 17q21 0 35 -17l61 -74q12 -15 12 -28q0 -23 -24 -43zM1120 1655l-88 -74q-19 -16 -39 -16q-22 0 -35 16l-59 74q-12 15 -12 31q0 19 24 40l86 74q20 17 39 17 q21 0 35 -17l62 -74q12 -15 12 -28q0 -22 -25 -43zM819 0h-647q-61 0 -61 49q0 13 2 21l225 1273q6 38 25.5 54t58.5 16h641q27 0 38 -10.5t11 -36.5q0 -48 -18 -80.5t-60 -32.5h-526l-78 -442h481q27 0 38.5 -10.5t11.5 -34.5q0 -111 -76 -111h-482l-88 -495h531 q28 0 39.5 -10t11.5 -35q0 -115 -78 -115z" />
<glyph unicode="&#xcc;" horiz-adv-x="555" d="M391 1565l-133 243q-10 20 -10 29q0 43 96 43q50 0 71.5 -11.5t30.5 -39.5l76 -238q6 -18 6 -28q0 -35 -63 -35q-35 0 -49 7.5t-25 29.5zM113 74l223 1265q6 40 29.5 57t78.5 17q45 0 63.5 -11t18.5 -38q0 -17 -2 -25l-223 -1265q-8 -41 -30.5 -57.5t-75.5 -16.5 q-43 0 -63.5 11.5t-20.5 41.5q0 13 2 21z" />
<glyph unicode="&#xcd;" horiz-adv-x="555" d="M770 1808l-219 -243q-20 -22 -36.5 -29.5t-49.5 -7.5q-57 0 -57 22q0 11 20 41l162 238q20 28 44 39.5t73 11.5q84 0 84 -33q0 -15 -21 -39zM113 74l223 1265q6 40 29.5 57t78.5 17q45 0 63.5 -11t18.5 -38q0 -17 -2 -25l-223 -1265q-8 -41 -30.5 -57.5t-75.5 -16.5 q-43 0 -63.5 11.5t-20.5 41.5q0 13 2 21z" />
<glyph unicode="&#xce;" horiz-adv-x="555" d="M639 1559l-133 210l-207 -210q-15 -17 -31 -23t-47 -6q-49 0 -49 20q0 14 16 33l205 248q24 27 52.5 38t82.5 11q56 0 81.5 -11t37.5 -38l115 -248q6 -15 6 -24q0 -29 -59 -29q-33 0 -46 5.5t-24 23.5zM113 74l223 1265q6 40 29.5 57t78.5 17q45 0 63.5 -11t18.5 -38 q0 -17 -2 -25l-223 -1265q-8 -41 -30.5 -57.5t-75.5 -16.5q-43 0 -63.5 11.5t-20.5 41.5q0 13 2 21z" />
<glyph unicode="&#xcf;" horiz-adv-x="555" d="M373 1655l-88 -74q-19 -16 -39 -16q-22 0 -35 16l-59 74q-13 16 -13 31q0 18 25 40l86 74q20 17 39 17q21 0 35 -17l61 -74q12 -15 12 -28q0 -23 -24 -43zM823 1655l-88 -74q-19 -16 -39 -16q-21 0 -34 16l-60 74q-12 15 -12 31q0 19 24 40l86 74q20 17 39 17 q21 0 35 -17l62 -74q12 -15 12 -28q0 -22 -25 -43zM113 74l223 1265q6 40 29.5 57t78.5 17q45 0 63.5 -11t18.5 -38q0 -17 -2 -25l-223 -1265q-8 -41 -30.5 -57.5t-75.5 -16.5q-43 0 -63.5 11.5t-20.5 41.5q0 13 2 21z" />
<glyph unicode="&#xd0;" horiz-adv-x="1462" d="M457 0h-258q-62 0 -62 49q0 13 2 21l109 618h-90q-20 0 -28.5 7t-8.5 24q0 84 59 84h88l97 540q6 38 25.5 54t58.5 16h258q335 0 517.5 -139.5t182.5 -405.5q0 -125 -28.5 -242.5t-99 -233t-176 -201t-272 -138.5t-374.5 -53zM342 152h107q174 0 310 43.5t218.5 111.5 t136.5 161t74 183t20 187q0 211 -141 317.5t-414 106.5h-116l-80 -459h262q20 0 28.5 -7t8.5 -26q0 -82 -58 -82h-262z" />
<glyph unicode="&#xd1;" horiz-adv-x="1472" d="M1296 1802h29q8 0 14.5 -7.5t6.5 -14.5q0 -1 -5 -21q-31 -90 -92.5 -136t-134.5 -46q-60 0 -162 44t-143 44q-22 0 -39 -4.5t-29.5 -15t-19.5 -18.5t-17.5 -24.5t-15.5 -23.5q-6 -10 -37 -10q-35 0 -35 24q0 11 2 19q31 89 94 135.5t136 46.5q58 0 162.5 -44t142.5 -44 q53 0 82 33q8 10 19 28t20 26.5t22 8.5zM1075 229h4q12 114 51 344l138 768q8 40 28.5 56t69.5 16q42 0 60 -10.5t18 -36.5q0 -15 -2 -25l-221 -1247q-9 -53 -36.5 -73.5t-92.5 -20.5q-67 0 -92.5 23t-63.5 108l-305 674q-91 199 -150 373h-4q-21 -154 -49 -318l-139 -788 q-8 -40 -30 -56t-71 -16q-40 0 -58.5 11.5t-18.5 39.5q0 13 2 21l221 1253q8 48 37 68t96 20q39 0 62.5 -5.5t42 -24.5t28 -37t29.5 -62l282 -641q106 -248 164 -414z" />
<glyph unicode="&#xd2;" horiz-adv-x="1564" d="M895 1565l-133 243q-10 20 -10 29q0 43 96 43q50 0 71.5 -11.5t30.5 -39.5l76 -238q6 -18 6 -28q0 -35 -63 -35q-35 0 -49 7.5t-25 29.5zM705 -23q-267 0 -415.5 150.5t-148.5 411.5q0 131 29.5 257.5t94 243t156.5 204t226 140t293 52.5q266 0 414.5 -149.5 t148.5 -409.5q0 -131 -30 -257.5t-94.5 -243.5t-156.5 -205t-225.5 -141t-291.5 -53zM715 129q121 0 221.5 45t167.5 119t113.5 171t67 198.5t20.5 205.5q0 199 -98.5 307.5t-276.5 108.5q-99 0 -185.5 -31t-149.5 -85.5t-112.5 -126t-79.5 -154.5t-45.5 -168t-15.5 -170 q0 -203 96.5 -311.5t276.5 -108.5z" />
<glyph unicode="&#xd3;" horiz-adv-x="1564" d="M1274 1808l-219 -243q-20 -22 -36.5 -29.5t-49.5 -7.5q-58 0 -58 22q0 10 21 41l162 238q20 28 44 39.5t72 11.5q84 0 84 -33q0 -16 -20 -39zM705 -23q-267 0 -415.5 150.5t-148.5 411.5q0 131 29.5 257.5t94 243t156.5 204t226 140t293 52.5q266 0 414.5 -149.5 t148.5 -409.5q0 -131 -30 -257.5t-94.5 -243.5t-156.5 -205t-225.5 -141t-291.5 -53zM715 129q121 0 221.5 45t167.5 119t113.5 171t67 198.5t20.5 205.5q0 199 -98.5 307.5t-276.5 108.5q-99 0 -185.5 -31t-149.5 -85.5t-112.5 -126t-79.5 -154.5t-45.5 -168t-15.5 -170 q0 -203 96.5 -311.5t276.5 -108.5z" />
<glyph unicode="&#xd4;" horiz-adv-x="1564" d="M1143 1559l-133 210l-207 -210q-15 -17 -31 -23t-47 -6q-49 0 -49 20q0 14 16 33l205 248q24 27 52.5 38t82.5 11q56 0 81.5 -11t37.5 -38l115 -248q6 -15 6 -24q0 -29 -60 -29q-33 0 -45.5 5.5t-23.5 23.5zM705 -23q-267 0 -415.5 150.5t-148.5 411.5q0 131 29.5 257.5 t94 243t156.5 204t226 140t293 52.5q266 0 414.5 -149.5t148.5 -409.5q0 -131 -30 -257.5t-94.5 -243.5t-156.5 -205t-225.5 -141t-291.5 -53zM715 129q121 0 221.5 45t167.5 119t113.5 171t67 198.5t20.5 205.5q0 199 -98.5 307.5t-276.5 108.5q-99 0 -185.5 -31 t-149.5 -85.5t-112.5 -126t-79.5 -154.5t-45.5 -168t-15.5 -170q0 -203 96.5 -311.5t276.5 -108.5z" />
<glyph unicode="&#xd5;" horiz-adv-x="1564" d="M705 -23q-267 0 -415.5 150.5t-148.5 411.5q0 131 29.5 257.5t94 243t156.5 204t226 140t293 52.5q266 0 414.5 -149.5t148.5 -409.5q0 -131 -30 -257.5t-94.5 -243.5t-156.5 -205t-225.5 -141t-291.5 -53zM715 129q121 0 221.5 45t167.5 119t113.5 171t67 198.5 t20.5 205.5q0 199 -98.5 307.5t-276.5 108.5q-99 0 -185.5 -31t-149.5 -85.5t-112.5 -126t-79.5 -154.5t-45.5 -168t-15.5 -170q0 -203 96.5 -311.5t276.5 -108.5zM1313 1802h28q8 0 14.5 -7.5t6.5 -14.5q0 -5 -4 -21q-31 -90 -93 -136t-135 -46q-60 0 -162 44t-143 44 q-22 0 -39 -4.5t-29 -15t-19 -18.5t-17.5 -24.5t-15.5 -23.5q-6 -10 -37 -10q-35 0 -35 24q0 11 2 19q31 90 93.5 136t135.5 46q58 0 162.5 -44t142.5 -44q53 0 82 33q8 9 19.5 27.5t20.5 27t22 8.5z" />
<glyph unicode="&#xd6;" horiz-adv-x="1564" d="M877 1655l-89 -74q-19 -16 -38 -16q-22 0 -35 16l-60 74q-12 15 -12 31q0 18 25 40l86 74q20 17 39 17q20 0 34 -17l62 -74q12 -15 12 -28q0 -23 -24 -43zM1327 1655l-88 -74q-19 -16 -39 -16q-22 0 -35 16l-59 74q-12 15 -12 31q0 19 24 40l86 74q20 17 39 17 q21 0 35 -17l61 -74q13 -16 13 -28q0 -22 -25 -43zM705 -23q-267 0 -415.5 150.5t-148.5 411.5q0 131 29.5 257.5t94 243t156.5 204t226 140t293 52.5q266 0 414.5 -149.5t148.5 -409.5q0 -131 -30 -257.5t-94.5 -243.5t-156.5 -205t-225.5 -141t-291.5 -53zM715 129 q121 0 221.5 45t167.5 119t113.5 171t67 198.5t20.5 205.5q0 199 -98.5 307.5t-276.5 108.5q-99 0 -185.5 -31t-149.5 -85.5t-112.5 -126t-79.5 -154.5t-45.5 -168t-15.5 -170q0 -203 96.5 -311.5t276.5 -108.5z" />
<glyph unicode="&#xd7;" horiz-adv-x="1204" d="M852 90l-266 320l-375 -320q-27 -20 -43 -20q-21 0 -44.5 30.5t-23.5 53.5q0 15 27 39l377 321l-264 320q-15 15 -15 30q0 23 40 61t69 38q19 0 35 -19l264 -321l375 319q28 21 43 21q20 0 44.5 -29t24.5 -51q0 -18 -28 -43l-375 -320l264 -321q10 -13 10 -27 q0 -34 -36.5 -68t-67.5 -34q-18 0 -35 20z" />
<glyph unicode="&#xd8;" horiz-adv-x="1560" d="M313 104l-125 -131q-18 -18 -30 -18t-35 20q-27 24 -27 37q0 8 19 31l129 137q-103 139 -103 359q0 131 29.5 257.5t94 243t156.5 204t226 140t293 52.5q237 0 383 -121l121 127q18 18 31 18q14 0 41 -24q22 -19 22 -33q0 -12 -18 -33l-125 -131q108 -138 108 -362 q0 -131 -30 -257.5t-94.5 -243.5t-156.5 -205t-225.5 -141t-291.5 -53q-246 0 -392 127zM383 326l815 858q-95 100 -268 100q-99 0 -185.5 -31t-149.5 -85.5t-112.5 -126t-79.5 -154.5t-45.5 -168t-15.5 -170q0 -130 41 -223zM1260 1096l-820 -858q92 -109 275 -109 q121 0 221.5 45t167.5 119t113.5 171t67 198.5t20.5 205.5q0 133 -45 228z" />
<glyph unicode="&#xd9;" horiz-adv-x="1433" d="M840 1565l-133 243q-11 22 -11 29q0 43 97 43q50 0 71.5 -11.5t30.5 -39.5l76 -238q6 -18 6 -28q0 -35 -64 -35q-35 0 -48.5 7.5t-24.5 29.5zM1081 500l148 841q6 39 29 55.5t75 16.5q44 0 63 -11.5t19 -39.5q0 -13 -2 -21l-153 -866q-39 -228 -202.5 -363t-426.5 -135 q-223 0 -345 103.5t-122 288.5q0 44 10 106l152 864q6 40 29.5 57t78.5 17q45 0 63.5 -11t18.5 -38q0 -17 -2 -25l-147 -839q-11 -68 -11 -103q0 -264 301 -264q180 0 286.5 94t137.5 273z" />
<glyph unicode="&#xda;" horiz-adv-x="1433" d="M1219 1808l-220 -243q-20 -22 -36.5 -29.5t-49.5 -7.5q-57 0 -57 22q0 10 21 41l161 238q20 28 44 39.5t73 11.5q84 0 84 -33q0 -16 -20 -39zM1081 500l148 841q6 39 29 55.5t75 16.5q44 0 63 -11.5t19 -39.5q0 -13 -2 -21l-153 -866q-39 -228 -202.5 -363t-426.5 -135 q-223 0 -345 103.5t-122 288.5q0 44 10 106l152 864q6 40 29.5 57t78.5 17q45 0 63.5 -11t18.5 -38q0 -17 -2 -25l-147 -839q-11 -68 -11 -103q0 -264 301 -264q180 0 286.5 94t137.5 273z" />
<glyph unicode="&#xdb;" horiz-adv-x="1433" d="M1087 1559l-133 210l-206 -210q-15 -17 -31 -23t-47 -6q-49 0 -49 20q0 14 16 33l205 248q24 27 52.5 38t82.5 11q56 0 81.5 -11t37.5 -38l114 -248q7 -18 7 -24q0 -29 -60 -29q-33 0 -46 5.5t-24 23.5zM1081 500l148 841q6 39 29 55.5t75 16.5q44 0 63 -11.5t19 -39.5 q0 -13 -2 -21l-153 -866q-39 -228 -202.5 -363t-426.5 -135q-223 0 -345 103.5t-122 288.5q0 44 10 106l152 864q6 40 29.5 57t78.5 17q45 0 63.5 -11t18.5 -38q0 -17 -2 -25l-147 -839q-11 -68 -11 -103q0 -264 301 -264q180 0 286.5 94t137.5 273z" />
<glyph unicode="&#xdc;" horiz-adv-x="1433" d="M821 1655l-88 -74q-19 -16 -39 -16q-22 0 -35 16l-59 74q-12 15 -12 31q0 19 24 40l86 74q20 17 39 17q21 0 35 -17l62 -74q12 -15 12 -28q0 -22 -25 -43zM1272 1655l-88 -74q-19 -16 -39 -16q-22 0 -35 16l-59 74q-13 16 -13 31q0 18 25 40l86 74q20 17 39 17 q21 0 35 -17l61 -74q12 -15 12 -28q0 -23 -24 -43zM1081 500l148 841q6 39 29 55.5t75 16.5q44 0 63 -11.5t19 -39.5q0 -13 -2 -21l-153 -866q-39 -228 -202.5 -363t-426.5 -135q-223 0 -345 103.5t-122 288.5q0 44 10 106l152 864q6 40 29.5 57t78.5 17q45 0 63.5 -11 t18.5 -38q0 -17 -2 -25l-147 -839q-11 -68 -11 -103q0 -264 301 -264q180 0 286.5 94t137.5 273z" />
<glyph unicode="&#xdd;" horiz-adv-x="1159" d="M1083 1808l-219 -243q-20 -22 -36.5 -29.5t-49.5 -7.5q-57 0 -57 22q0 11 20 41l162 238q20 28 44 39.5t73 11.5q84 0 84 -33q0 -15 -21 -39zM416 74l90 510l-318 731q-10 23 -10 41q0 57 105 57q51 0 72.5 -15.5t37.5 -56.5l82 -213q123 -324 143 -391h5q69 103 282 391 l160 218q29 39 54.5 53t80.5 14q88 0 88 -47q0 -23 -22 -51l-574 -733l-88 -508q-8 -41 -30.5 -57.5t-75.5 -16.5q-43 0 -63.5 11.5t-20.5 41.5q0 13 2 21z" />
<glyph unicode="&#xde;" horiz-adv-x="1054" d="M424 317h-82l-43 -243q-8 -41 -30.5 -57.5t-75.5 -16.5q-48 0 -65 12.5t-17 42.5q0 8 1 13t1 6l223 1265q6 41 29 57.5t79 16.5q48 0 64 -12t16 -43q0 -8 -1 -13t-1 -6l-33 -186h105q84 0 150.5 -9t126.5 -32.5t99 -62t62 -99.5t23 -143q0 -158 -81.5 -270t-222 -166 t-327.5 -54zM369 469h51q207 0 324.5 76t117.5 233q0 123 -75 173t-230 50h-94z" />
<glyph unicode="&#xdf;" horiz-adv-x="1163" d="M823 750v-2q118 -27 182 -99.5t64 -185.5q0 -143 -71.5 -252t-194.5 -166t-279 -57q-49 0 -68.5 8.5t-19.5 36.5q0 30 6 50t13 30t24.5 15t30 6t39.5 1q154 0 245 88t91 232q0 101 -68.5 156t-195.5 55q-30 0 -42 9.5t-12 31.5q0 55 18.5 78.5t61.5 23.5q123 0 210 83.5 t87 217.5q0 90 -56.5 138t-156.5 48q-112 0 -194.5 -73t-106.5 -213l-164 -938q-8 -40 -30 -56t-72 -16q-42 0 -60 10.5t-18 36.5q0 17 2 25l166 948q33 196 171 306t343 110q169 0 264.5 -76.5t95.5 -214.5q0 -147 -80 -249.5t-225 -145.5z" />
<glyph unicode="&#xe0;" horiz-adv-x="1005" d="M549 1106l-133 244q-10 20 -10 28q0 43 96 43q50 0 71.5 -11.5t30.5 -39.5l76 -237q6 -18 6 -29q0 -35 -63 -35q-35 0 -49 7.5t-25 29.5zM647 53l21 94h-4q-126 -163 -334 -163q-136 0 -211.5 65.5t-75.5 177.5q0 69 28.5 130.5t87.5 114.5t163 84.5t241 31.5 q97 0 170 -13l6 27q6 35 6 64q0 176 -192 176q-82 0 -188 -29t-125 -29q-37 0 -37 50q0 55 33 73q48 28 145 49t182 21q175 0 261.5 -74t86.5 -207q0 -49 -8 -90l-96 -547q-6 -34 -25 -46.5t-65 -12.5q-34 0 -53 7.5t-19 31.5q0 8 2 14zM715 463q-58 10 -144 10 q-179 0 -262.5 -58.5t-83.5 -156.5q0 -66 41 -103.5t123 -37.5q138 0 219.5 96t106.5 250z" />
<glyph unicode="&#xe1;" horiz-adv-x="1005" d="M928 1350l-219 -244q-20 -22 -36.5 -29.5t-49.5 -7.5q-58 0 -58 23q0 10 21 41l162 237q20 28 44 39.5t72 11.5q84 0 84 -32q0 -16 -20 -39zM647 53l21 94h-4q-126 -163 -334 -163q-136 0 -211.5 65.5t-75.5 177.5q0 69 28.5 130.5t87.5 114.5t163 84.5t241 31.5 q97 0 170 -13l6 27q6 35 6 64q0 176 -192 176q-82 0 -188 -29t-125 -29q-37 0 -37 50q0 55 33 73q48 28 145 49t182 21q175 0 261.5 -74t86.5 -207q0 -49 -8 -90l-96 -547q-6 -34 -25 -46.5t-65 -12.5q-34 0 -53 7.5t-19 31.5q0 8 2 14zM715 463q-58 10 -144 10 q-179 0 -262.5 -58.5t-83.5 -156.5q0 -66 41 -103.5t123 -37.5q138 0 219.5 96t106.5 250z" />
<glyph unicode="&#xe2;" horiz-adv-x="1005" d="M797 1100l-133 211l-207 -211q-15 -17 -31 -23t-47 -6q-49 0 -49 21q0 13 16 32l205 248q24 27 52.5 38t82.5 11q56 0 81.5 -11t37.5 -38l115 -248q6 -15 6 -24q0 -29 -60 -29q-33 0 -45.5 5.5t-23.5 23.5zM647 53l21 94h-4q-126 -163 -334 -163q-136 0 -211.5 65.5 t-75.5 177.5q0 69 28.5 130.5t87.5 114.5t163 84.5t241 31.5q97 0 170 -13l6 27q6 35 6 64q0 176 -192 176q-82 0 -188 -29t-125 -29q-37 0 -37 50q0 55 33 73q48 28 145 49t182 21q175 0 261.5 -74t86.5 -207q0 -49 -8 -90l-96 -547q-6 -34 -25 -46.5t-65 -12.5 q-34 0 -53 7.5t-19 31.5q0 8 2 14zM715 463q-58 10 -144 10q-179 0 -262.5 -58.5t-83.5 -156.5q0 -66 41 -103.5t123 -37.5q138 0 219.5 96t106.5 250z" />
<glyph unicode="&#xe3;" horiz-adv-x="1005" d="M647 53l21 94h-4q-126 -163 -334 -163q-136 0 -211.5 65.5t-75.5 177.5q0 69 28.5 130.5t87.5 114.5t163 84.5t241 31.5q97 0 170 -13l6 27q6 35 6 64q0 176 -192 176q-82 0 -188 -29t-125 -29q-37 0 -37 50q0 55 33 73q48 28 145 49t182 21q175 0 261.5 -74t86.5 -207 q0 -49 -8 -90l-96 -547q-6 -34 -25 -46.5t-65 -12.5q-34 0 -53 7.5t-19 31.5q0 8 2 14zM715 463q-58 10 -144 10q-179 0 -262.5 -58.5t-83.5 -156.5q0 -66 41 -103.5t123 -37.5q138 0 219.5 96t106.5 250zM967 1343h28q8 0 14.5 -7.5t6.5 -14.5q0 -5 -4 -21 q-31 -90 -93 -136t-135 -46q-60 0 -162 44t-143 44q-22 0 -39 -4.5t-29.5 -15t-19.5 -18.5t-17.5 -24.5t-15.5 -23.5q-6 -10 -36 -10q-35 0 -35 25q0 10 2 18q31 90 93.5 136t135.5 46q58 0 162.5 -44t142.5 -44q53 0 82 33q8 9 19.5 27.5t20.5 27t22 8.5z" />
<glyph unicode="&#xe4;" horiz-adv-x="1005" d="M530 1196l-88 -74q-19 -16 -39 -16q-21 0 -34 16l-60 74q-12 15 -12 31q0 19 25 41l86 73q20 17 38 17q21 0 35 -17l62 -73q12 -15 12 -29q0 -22 -25 -43zM981 1196l-88 -74q-19 -16 -39 -16q-22 0 -35 16l-59 74q-12 15 -12 31q0 20 24 41l86 73q20 17 39 17 q21 0 35 -17l61 -73q13 -16 13 -29q0 -22 -25 -43zM647 53l21 94h-4q-126 -163 -334 -163q-136 0 -211.5 65.5t-75.5 177.5q0 69 28.5 130.5t87.5 114.5t163 84.5t241 31.5q97 0 170 -13l6 27q6 35 6 64q0 176 -192 176q-82 0 -188 -29t-125 -29q-37 0 -37 50q0 55 33 73 q48 28 145 49t182 21q175 0 261.5 -74t86.5 -207q0 -49 -8 -90l-96 -547q-6 -34 -25 -46.5t-65 -12.5q-34 0 -53 7.5t-19 31.5q0 8 2 14zM715 463q-58 10 -144 10q-179 0 -262.5 -58.5t-83.5 -156.5q0 -66 41 -103.5t123 -37.5q138 0 219.5 96t106.5 250z" />
<glyph unicode="&#xe5;" horiz-adv-x="1005" d="M647 53l21 94h-4q-126 -163 -334 -163q-136 0 -211.5 65.5t-75.5 177.5q0 69 28.5 130.5t87.5 114.5t163 84.5t241 31.5q97 0 170 -13l6 27q6 35 6 64q0 176 -192 176q-82 0 -188 -29t-125 -29q-37 0 -37 50q0 55 33 73q48 28 145 49t182 21q175 0 261.5 -74t86.5 -207 q0 -49 -8 -90l-96 -547q-6 -34 -25 -46.5t-65 -12.5q-34 0 -53 7.5t-19 31.5q0 8 2 14zM715 463q-58 10 -144 10q-179 0 -262.5 -58.5t-83.5 -156.5q0 -66 41 -103.5t123 -37.5q138 0 219.5 96t106.5 250zM848 1266q0 -96 -66.5 -162t-165.5 -66q-76 0 -119.5 40.5 t-43.5 109.5q0 100 66 163.5t165 63.5q75 0 119.5 -40.5t44.5 -108.5zM631 1116q55 0 92 37t37 96q0 40 -24.5 64t-65.5 24q-56 0 -92.5 -37.5t-36.5 -97.5q0 -39 24 -62.5t66 -23.5z" />
<glyph unicode="&#xe6;" horiz-adv-x="1622" d="M1513 438h-641q-6 -40 -6 -73q0 -122 68 -185t196 -63q67 0 149 23.5t93 23.5q27 0 27 -37q0 -73 -77 -111.5t-228 -38.5q-136 0 -226.5 52.5t-122.5 142.5h-4q-146 -190 -407 -190q-137 0 -216 60t-79 171q0 121 71 207.5t186 127t261 40.5q94 0 170 -13l4 27q6 38 6 70 q0 170 -190 170q-68 0 -172 -29t-127 -29q-29 0 -29 33q0 81 53 103q59 25 145 41t173 16q221 0 280 -174q63 85 157.5 129.5t197.5 44.5q158 0 240.5 -83t82.5 -243q0 -48 -10 -111t-25 -102zM895 569h483q8 54 8 76q0 93 -49.5 146t-142.5 53q-110 0 -189 -74.5 t-110 -200.5zM709 463q-58 10 -144 10q-158 0 -250 -55.5t-92 -171.5q0 -60 41 -94.5t113 -34.5q136 0 219.5 92.5t112.5 253.5z" />
<glyph unicode="&#xe7;" horiz-adv-x="958" d="M346 -223l-14 -2q-19 0 -19 14q0 2 1 6t1 6l56 191q-137 32 -217 129t-80 250q0 172 71 309t208 217t317 80q111 0 188.5 -27.5t77.5 -77.5q0 -75 -45 -75q-5 0 -80 18.5t-141 18.5q-185 0 -296.5 -124.5t-111.5 -316.5q0 -131 75.5 -200.5t207.5 -69.5q50 0 105.5 10.5 t92.5 21.5t43 11q23 0 23 -45q-4 -75 -77 -109.5t-224 -34.5h-35l-41 -122q30 10 68 10q50 0 86.5 -32.5t36.5 -90.5q0 -5 -5 -35q-16 -95 -82.5 -139.5t-162.5 -44.5q-46 0 -92 8q-16 3 -23.5 10t-7.5 23q0 53 43 53q10 0 37 -3t45 -3q96 0 112 88q2 6 2 20q0 32 -20 49 t-53 17q-24 0 -70 -8z" />
<glyph unicode="&#xe8;" horiz-adv-x="1032" d="M565 1106l-133 244q-10 20 -10 28q0 43 96 43q50 0 72 -11.5t31 -39.5l75 -237q6 -18 6 -29q0 -35 -63 -35q-35 0 -49 7.5t-25 29.5zM930 438h-660q-4 -23 -4 -65q0 -121 69 -186.5t197 -65.5q75 0 162 23.5t92 23.5q27 0 27 -35q0 -156 -317 -156q-185 0 -299.5 95 t-114.5 284q0 100 22.5 192t68 170t109.5 136t151.5 90.5t189.5 32.5q170 0 252.5 -92.5t82.5 -247.5q0 -90 -28 -199zM293 569h495q7 47 7 72q0 96 -51.5 149.5t-147.5 53.5q-112 0 -192.5 -75t-110.5 -200z" />
<glyph unicode="&#xe9;" horiz-adv-x="1032" d="M944 1350l-219 -244q-20 -22 -36.5 -29.5t-49.5 -7.5q-57 0 -57 23q0 11 20 41l162 237q20 28 44 39.5t73 11.5q84 0 84 -32q0 -15 -21 -39zM930 438h-660q-4 -23 -4 -65q0 -121 69 -186.5t197 -65.5q75 0 162 23.5t92 23.5q27 0 27 -35q0 -156 -317 -156 q-185 0 -299.5 95t-114.5 284q0 100 22.5 192t68 170t109.5 136t151.5 90.5t189.5 32.5q170 0 252.5 -92.5t82.5 -247.5q0 -90 -28 -199zM293 569h495q7 47 7 72q0 96 -51.5 149.5t-147.5 53.5q-112 0 -192.5 -75t-110.5 -200z" />
<glyph unicode="&#xea;" horiz-adv-x="1032" d="M813 1100l-133 211l-207 -211q-15 -17 -31 -23t-47 -6q-49 0 -49 21q0 13 16 32l205 248q24 27 52.5 38t82.5 11q56 0 81.5 -11t37.5 -38l115 -248q6 -15 6 -24q0 -29 -59 -29q-33 0 -46 5.5t-24 23.5zM930 438h-660q-4 -23 -4 -65q0 -121 69 -186.5t197 -65.5 q75 0 162 23.5t92 23.5q27 0 27 -35q0 -156 -317 -156q-185 0 -299.5 95t-114.5 284q0 100 22.5 192t68 170t109.5 136t151.5 90.5t189.5 32.5q170 0 252.5 -92.5t82.5 -247.5q0 -90 -28 -199zM293 569h495q7 47 7 72q0 96 -51.5 149.5t-147.5 53.5q-112 0 -192.5 -75 t-110.5 -200z" />
<glyph unicode="&#xeb;" horiz-adv-x="1032" d="M547 1196l-88 -74q-19 -16 -39 -16q-22 0 -35 16l-59 74q-13 16 -13 31q0 19 25 41l86 73q20 17 39 17q21 0 35 -17l61 -73q12 -15 12 -29q0 -23 -24 -43zM997 1196l-88 -74q-19 -16 -39 -16q-21 0 -34 16l-60 74q-12 15 -12 31q0 20 24 41l86 73q20 17 39 17 q21 0 35 -17l62 -73q12 -15 12 -29q0 -22 -25 -43zM930 438h-660q-4 -23 -4 -65q0 -121 69 -186.5t197 -65.5q75 0 162 23.5t92 23.5q27 0 27 -35q0 -156 -317 -156q-185 0 -299.5 95t-114.5 284q0 100 22.5 192t68 170t109.5 136t151.5 90.5t189.5 32.5q170 0 252.5 -92.5 t82.5 -247.5q0 -90 -28 -199zM293 569h495q7 47 7 72q0 96 -51.5 149.5t-147.5 53.5q-112 0 -192.5 -75t-110.5 -200z" />
<glyph unicode="&#xec;" horiz-adv-x="565" d="M315 1106l-133 244q-10 20 -10 28q0 43 96 43q50 0 72 -11.5t31 -39.5l75 -237q7 -21 7 -29q0 -35 -64 -35q-35 0 -49 7.5t-25 29.5zM123 72l143 811q8 40 30 55.5t73 15.5q41 0 58 -10.5t17 -36.5q0 -16 -2 -24l-143 -811q-8 -41 -29 -56.5t-71 -15.5q-42 0 -60 10.5 t-18 36.5q0 17 2 25z" />
<glyph unicode="&#xed;" horiz-adv-x="565" d="M694 1350l-219 -244q-20 -22 -36.5 -29.5t-49.5 -7.5q-57 0 -57 23q0 11 20 41l162 237q20 28 44 39.5t73 11.5q84 0 84 -32q0 -15 -21 -39zM123 72l143 811q8 40 30 55.5t73 15.5q41 0 58 -10.5t17 -36.5q0 -16 -2 -24l-143 -811q-8 -41 -29 -56.5t-71 -15.5 q-42 0 -60 10.5t-18 36.5q0 17 2 25z" />
<glyph unicode="&#xee;" horiz-adv-x="565" d="M563 1100l-133 211l-207 -211q-15 -17 -31 -23t-47 -6q-49 0 -49 21q0 12 17 32l204 248q24 27 53 38t83 11q55 0 80.5 -11t37.5 -38l115 -248q6 -15 6 -24q0 -29 -59 -29q-33 0 -46 5.5t-24 23.5zM123 72l143 811q8 40 30 55.5t73 15.5q41 0 58 -10.5t17 -36.5 q0 -16 -2 -24l-143 -811q-8 -41 -29 -56.5t-71 -15.5q-42 0 -60 10.5t-18 36.5q0 17 2 25z" />
<glyph unicode="&#xef;" horiz-adv-x="565" d="M297 1196l-88 -74q-19 -16 -39 -16q-22 0 -35 16l-59 74q-13 16 -13 31q0 19 25 41l86 73q20 17 39 17q21 0 35 -17l61 -73q13 -16 13 -29q0 -22 -25 -43zM748 1196l-89 -74q-19 -16 -38 -16q-22 0 -35 16l-60 74q-12 15 -12 31q0 19 25 41l86 73q20 17 39 17 q20 0 34 -17l62 -73q12 -15 12 -29q0 -23 -24 -43zM123 72l143 811q8 40 30 55.5t73 15.5q41 0 58 -10.5t17 -36.5q0 -16 -2 -24l-143 -811q-8 -41 -29 -56.5t-71 -15.5q-42 0 -60 10.5t-18 36.5q0 17 2 25z" />
<glyph unicode="&#xf0;" horiz-adv-x="1230" d="M985 866h4q-35 256 -252 416l-250 -139q-17 -10 -28 -10q-12 0 -21 12l-16 26q-8 13 -8 27q0 18 30 33l209 110q-73 50 -186 84q-35 9 -35 41q0 13 2 21q7 38 25.5 55t50.5 17q57 0 148 -38.5t159 -86.5l166 90q38 20 47 20q14 0 23 -18l14 -23q6 -12 6 -20 q0 -18 -22 -29l-152 -80q275 -237 275 -604q0 -163 -44.5 -306.5t-126 -252t-206 -171.5t-275.5 -63q-201 0 -319.5 109t-118.5 293q0 124 45 236.5t123 195t188.5 131.5t235.5 49q100 0 182.5 -34.5t126.5 -90.5zM551 121q118 0 212 66t143.5 170t49.5 223q0 125 -72 196.5 t-202 71.5q-120 0 -214 -61.5t-143 -162t-49 -221.5q0 -132 72.5 -207t202.5 -75z" />
<glyph unicode="&#xf1;" horiz-adv-x="1167" d="M764 70l82 467q10 62 10 100q0 194 -188 194q-132 0 -223.5 -100t-118.5 -256l-70 -405q-8 -39 -29.5 -54.5t-70.5 -15.5q-78 0 -78 49q0 13 2 21l143 815q6 38 28 53.5t71 15.5q43 0 60 -12t17 -41q0 -18 -22 -108h4q135 184 360 184q146 0 221.5 -80t75.5 -217 q0 -52 -8 -96l-90 -514q-8 -39 -29.5 -54.5t-70.5 -15.5q-42 0 -60 11.5t-18 39.5q0 13 2 19zM1065 1343h29q8 0 14 -7.5t6 -14.5q0 -5 -4 -21q-31 -90 -92.5 -136t-134.5 -46q-60 0 -162 44t-143 44q-22 0 -39 -4.5t-29.5 -15t-19.5 -18.5t-17.5 -24.5t-15.5 -23.5 q-6 -10 -37 -10q-35 0 -35 25q0 10 2 18q31 90 93.5 136t135.5 46q58 0 163 -44t143 -44q53 0 82 33q8 10 19 28t20 26.5t22 8.5z" />
<glyph unicode="&#xf2;" horiz-adv-x="1159" d="M610 1106l-133 244q-10 20 -10 28q0 43 96 43q50 0 72 -11.5t31 -39.5l75 -237q7 -21 7 -29q0 -35 -64 -35q-35 0 -49 7.5t-25 29.5zM522 -23q-199 0 -319.5 109.5t-120.5 294.5q0 124 38.5 232.5t109.5 189.5t177.5 127.5t235.5 46.5q198 0 316 -113t118 -293 q0 -263 -148 -428.5t-407 -165.5zM532 119q163 0 260 125.5t97 318.5q0 125 -69.5 200t-188.5 75q-161 0 -261 -130t-100 -319q0 -127 71 -198.5t191 -71.5z" />
<glyph unicode="&#xf3;" horiz-adv-x="1159" d="M989 1350l-219 -244q-20 -22 -36.5 -29.5t-49.5 -7.5q-57 0 -57 23q0 11 20 41l162 237q20 28 44 39.5t73 11.5q84 0 84 -32q0 -15 -21 -39zM522 -23q-199 0 -319.5 109.5t-120.5 294.5q0 124 38.5 232.5t109.5 189.5t177.5 127.5t235.5 46.5q198 0 316 -113t118 -293 q0 -263 -148 -428.5t-407 -165.5zM532 119q163 0 260 125.5t97 318.5q0 125 -69.5 200t-188.5 75q-161 0 -261 -130t-100 -319q0 -127 71 -198.5t191 -71.5z" />
<glyph unicode="&#xf4;" horiz-adv-x="1159" d="M858 1100l-133 211l-207 -211q-15 -17 -31 -23t-47 -6q-49 0 -49 21q0 12 17 32l204 248q24 27 53 38t83 11q56 0 81 -11t37 -38l115 -248q6 -15 6 -24q0 -29 -59 -29q-33 0 -46 5.5t-24 23.5zM522 -23q-199 0 -319.5 109.5t-120.5 294.5q0 124 38.5 232.5t109.5 189.5 t177.5 127.5t235.5 46.5q198 0 316 -113t118 -293q0 -263 -148 -428.5t-407 -165.5zM532 119q163 0 260 125.5t97 318.5q0 125 -69.5 200t-188.5 75q-161 0 -261 -130t-100 -319q0 -127 71 -198.5t191 -71.5z" />
<glyph unicode="&#xf5;" horiz-adv-x="1159" d="M522 -23q-199 0 -319.5 109.5t-120.5 294.5q0 124 38.5 232.5t109.5 189.5t177.5 127.5t235.5 46.5q198 0 316 -113t118 -293q0 -263 -148 -428.5t-407 -165.5zM532 119q163 0 260 125.5t97 318.5q0 125 -69.5 200t-188.5 75q-161 0 -261 -130t-100 -319 q0 -127 71 -198.5t191 -71.5zM1028 1343h29q8 0 14 -7.5t6 -14.5q0 -5 -4 -21q-31 -90 -92.5 -136t-134.5 -46q-60 0 -162 44t-143 44q-22 0 -39 -4.5t-29.5 -15t-19.5 -18.5t-17.5 -24.5t-15.5 -23.5q-6 -10 -37 -10q-35 0 -35 25q0 10 2 18q31 89 94 135.5t136 46.5 q58 0 162.5 -44t142.5 -44q53 0 82 33q8 10 19 28t20 26.5t22 8.5z" />
<glyph unicode="&#xf6;" horiz-adv-x="1159" d="M592 1196l-88 -74q-19 -16 -39 -16q-22 0 -35 16l-59 74q-13 16 -13 31q0 19 25 41l86 73q20 17 39 17q21 0 35 -17l61 -73q12 -15 12 -29q0 -23 -24 -43zM1042 1196l-88 -74q-19 -16 -39 -16q-21 0 -34 16l-60 74q-12 15 -12 31q0 19 25 41l86 73q20 17 38 17 q21 0 35 -17l62 -73q12 -15 12 -29q0 -22 -25 -43zM522 -23q-199 0 -319.5 109.5t-120.5 294.5q0 124 38.5 232.5t109.5 189.5t177.5 127.5t235.5 46.5q198 0 316 -113t118 -293q0 -263 -148 -428.5t-407 -165.5zM532 119q163 0 260 125.5t97 318.5q0 125 -69.5 200 t-188.5 75q-161 0 -261 -130t-100 -319q0 -127 71 -198.5t191 -71.5z" />
<glyph unicode="&#xf7;" horiz-adv-x="1204" d="M772 850l-80 -66q-19 -16 -39 -16q-19 0 -35 16l-55 66q-10 12 -10 33q0 23 22 39l80 65q21 17 39 17t35 -17l55 -65q11 -15 11 -27q0 -26 -23 -45zM1053 446h-916q-26 0 -36.5 8.5t-10.5 30.5q0 105 74 105h915q26 0 35.5 -9.5t9.5 -31.5q0 -103 -71 -103zM643 115 l-80 -66q-19 -16 -39 -16q-22 0 -35 16l-55 66q-10 13 -10 35q0 17 22 36l80 66q20 16 39 16t35 -16l55 -66q11 -15 11 -24q0 -30 -23 -47z" />
<glyph unicode="&#xf8;" horiz-adv-x="1159" d="M250 49l-96 -100q-17 -17 -29 -17q-16 0 -35.5 20t-19.5 32q0 11 14 28l94 99q-96 110 -96 270q0 124 38.5 232.5t109.5 189.5t177.5 127.5t235.5 46.5q162 0 281 -82l112 119q16 16 29 16t35 -19t22 -32q0 -15 -16 -31l-115 -119q86 -109 86 -258q0 -263 -148 -428.5 t-407 -165.5q-157 0 -272 72zM303 244l506 530q-70 64 -178 64q-161 0 -261 -130t-100 -319q0 -81 33 -145zM864 694l-499 -524q66 -51 167 -51q163 0 260 125.5t97 318.5q0 73 -25 131z" />
<glyph unicode="&#xf9;" horiz-adv-x="1167" d="M618 1106l-133 244q-10 20 -10 28q0 43 96 43q50 0 72 -11.5t31 -39.5l76 -237q6 -18 6 -29q0 -35 -64 -35q-35 0 -49 7.5t-25 29.5zM788 162h-4q-133 -185 -358 -185q-149 0 -225 73t-76 208q0 42 10 104l92 523q6 38 28.5 53.5t72.5 15.5q41 0 59.5 -11.5t18.5 -37.5 q0 -11 -3 -20l-84 -473q-8 -49 -8 -99q0 -95 45 -142.5t144 -47.5q131 0 222 99.5t118 256.5l71 406q6 38 28.5 53.5t72.5 15.5q78 0 78 -53q0 -7 -3 -16l-143 -815q-8 -39 -30 -54.5t-72 -15.5q-43 0 -59.5 12.5t-16.5 40.5q0 12 3 27.5t9.5 42t9.5 39.5z" />
<glyph unicode="&#xfa;" horiz-adv-x="1167" d="M997 1350l-219 -244q-20 -22 -36.5 -29.5t-49.5 -7.5q-57 0 -57 23q0 11 20 41l162 237q20 28 44 39.5t73 11.5q84 0 84 -32q0 -15 -21 -39zM788 162h-4q-133 -185 -358 -185q-149 0 -225 73t-76 208q0 42 10 104l92 523q6 38 28.5 53.5t72.5 15.5q41 0 59.5 -11.5 t18.5 -37.5q0 -11 -3 -20l-84 -473q-8 -49 -8 -99q0 -95 45 -142.5t144 -47.5q131 0 222 99.5t118 256.5l71 406q6 38 28.5 53.5t72.5 15.5q78 0 78 -53q0 -7 -3 -16l-143 -815q-8 -39 -30 -54.5t-72 -15.5q-43 0 -59.5 12.5t-16.5 40.5q0 12 3 27.5t9.5 42t9.5 39.5z" />
<glyph unicode="&#xfb;" horiz-adv-x="1167" d="M866 1100l-133 211l-207 -211q-15 -17 -30.5 -23t-46.5 -6q-50 0 -50 21q0 12 17 32l205 248q24 27 52.5 38t82.5 11q56 0 81 -11t37 -38l115 -248q6 -15 6 -24q0 -29 -59 -29q-33 0 -46 5.5t-24 23.5zM788 162h-4q-133 -185 -358 -185q-149 0 -225 73t-76 208 q0 42 10 104l92 523q6 38 28.5 53.5t72.5 15.5q41 0 59.5 -11.5t18.5 -37.5q0 -11 -3 -20l-84 -473q-8 -49 -8 -99q0 -95 45 -142.5t144 -47.5q131 0 222 99.5t118 256.5l71 406q6 38 28.5 53.5t72.5 15.5q78 0 78 -53q0 -7 -3 -16l-143 -815q-8 -39 -30 -54.5t-72 -15.5 q-43 0 -59.5 12.5t-16.5 40.5q0 12 3 27.5t9.5 42t9.5 39.5z" />
<glyph unicode="&#xfc;" horiz-adv-x="1167" d="M600 1196l-88 -74q-19 -16 -39 -16q-22 0 -35 16l-59 74q-12 15 -12 31q0 20 24 41l86 73q20 17 39 17q21 0 35 -17l61 -73q13 -16 13 -29q0 -22 -25 -43zM1051 1196l-88 -74q-19 -16 -39 -16q-22 0 -35 16l-60 74q-12 15 -12 31q0 19 25 41l86 73q20 17 39 17 q20 0 34 -17l62 -73q12 -15 12 -29q0 -23 -24 -43zM788 162h-4q-133 -185 -358 -185q-149 0 -225 73t-76 208q0 42 10 104l92 523q6 38 28.5 53.5t72.5 15.5q41 0 59.5 -11.5t18.5 -37.5q0 -11 -3 -20l-84 -473q-8 -49 -8 -99q0 -95 45 -142.5t144 -47.5q131 0 222 99.5 t118 256.5l71 406q6 38 28.5 53.5t72.5 15.5q78 0 78 -53q0 -7 -3 -16l-143 -815q-8 -39 -30 -54.5t-72 -15.5q-43 0 -59.5 12.5t-16.5 40.5q0 12 3 27.5t9.5 42t9.5 39.5z" />
<glyph unicode="&#xfd;" horiz-adv-x="952" d="M897 1350l-219 -244q-20 -22 -36.5 -29.5t-49.5 -7.5q-57 0 -57 23q0 11 20 41l162 237q20 28 44 39.5t73 11.5q84 0 84 -32q0 -15 -21 -39zM311 -49l-194 903q-4 14 -4 39q0 34 21.5 47.5t72.5 13.5q50 0 70 -14t26 -53l115 -750h4l385 740q25 47 47.5 62t69.5 15 q71 0 71 -39q0 -23 -24 -67l-518 -926q-110 -197 -185 -265.5t-192 -68.5q-146 0 -146 66q0 27 13 57.5t39 30.5q12 0 42.5 -6t51.5 -6q62 0 113 47.5t122 173.5z" />
<glyph unicode="&#xfe;" horiz-adv-x="1204" d="M236 -141l-31 -178q-8 -39 -30.5 -54.5t-72.5 -15.5q-42 0 -58.5 10.5t-16.5 38.5q0 13 2 21l295 1662q6 39 27.5 54.5t70.5 15.5q43 0 60.5 -10.5t17.5 -38.5q0 -13 -2 -21l-43 -249q-22 -126 -60 -291h4q63 84 156 129t205 45q159 0 248.5 -98t89.5 -269 q0 -124 -36.5 -238t-101.5 -202t-163.5 -140.5t-214.5 -52.5q-110 0 -187 43.5t-110 129.5h-4q-8 -79 -45 -291zM567 123q106 0 187 69t120 172t39 218q0 122 -58.5 184.5t-162.5 62.5q-134 0 -228.5 -89.5t-125.5 -262.5q-8 -49 -8 -100q0 -121 59.5 -187.5t177.5 -66.5z " />
<glyph unicode="&#xff;" horiz-adv-x="952" d="M500 1196l-88 -74q-19 -16 -39 -16q-22 0 -35 16l-59 74q-13 16 -13 31q0 19 25 41l86 73q20 17 39 17q21 0 35 -17l61 -73q12 -15 12 -29q0 -23 -24 -43zM950 1196l-88 -74q-19 -16 -39 -16q-22 0 -35 16l-59 74q-12 15 -12 31q0 20 24 41l86 73q20 17 39 17 q21 0 35 -17l62 -73q12 -15 12 -29q0 -22 -25 -43zM311 -49l-194 903q-4 14 -4 39q0 34 21.5 47.5t72.5 13.5q50 0 70 -14t26 -53l115 -750h4l385 740q25 47 47.5 62t69.5 15q71 0 71 -39q0 -23 -24 -67l-518 -926q-110 -197 -185 -265.5t-192 -68.5q-146 0 -146 66 q0 27 13 57.5t39 30.5q12 0 42.5 -6t51.5 -6q62 0 113 47.5t122 173.5z" />
<glyph unicode="&#x131;" horiz-adv-x="565" d="M123 72l143 811q8 40 30 55.5t73 15.5q41 0 58 -10.5t17 -36.5q0 -16 -2 -24l-143 -811q-8 -41 -29 -56.5t-71 -15.5q-42 0 -60 10.5t-18 36.5q0 17 2 25z" />
<glyph unicode="&#x141;" horiz-adv-x="1079" d="M885 0h-647q-33 0 -47.5 10.5t-14.5 36.5q0 15 2 23l107 598l-123 -66q-23 -10 -33 -10q-29 0 -29 47q0 38 15 57t55 39l139 74l94 530q6 41 29.5 57.5t77.5 16.5q45 0 63.5 -11t18.5 -38q0 -15 -2 -25l-74 -421l201 106q17 10 33 10q26 0 26 -41q0 -42 -14.5 -61 t-54.5 -41l-215 -115l-109 -612h530q27 0 39.5 -10.5t12.5 -36.5q0 -117 -80 -117z" />
<glyph unicode="&#x142;" horiz-adv-x="612" d="M143 70l111 626l-129 -92q-20 -14 -37 -14q-25 0 -25 41q0 39 11.5 54.5t56.5 49.5l150 105l88 503q6 39 28 54.5t72 15.5q43 0 60.5 -10.5t17.5 -38.5q0 -13 -2 -21l-64 -360l119 84q17 14 35 14q12 0 20.5 -13t8.5 -34q0 -33 -13 -49t-57 -49l-139 -98l-136 -768 q-6 -39 -28 -54.5t-72 -15.5q-42 0 -60 10.5t-18 36.5q0 15 2 23z" />
<glyph unicode="&#x152;" horiz-adv-x="1927" d="M1645 0h-615q-49 0 -157 -8t-164 -8q-271 0 -425.5 145t-154.5 410q0 190 58.5 354t164 283.5t261 187.5t341.5 68q67 0 188.5 -9.5t174.5 -9.5h569q28 0 38.5 -10.5t10.5 -38.5q0 -19 -2 -31q-9 -45 -25.5 -62.5t-49.5 -17.5h-510l-78 -442h465q49 0 49 -45q0 -9 -4 -33 q-8 -43 -24 -60.5t-48 -17.5h-465l-88 -495h518q27 0 38 -9.5t11 -33.5q0 -9 -4 -37q-8 -45 -23.5 -62.5t-49.5 -17.5zM973 164l190 1081q-92 29 -223 29q-113 0 -211 -37.5t-170.5 -104.5t-124.5 -157.5t-78 -197t-26 -222.5q0 -201 109 -308.5t304 -107.5q117 0 230 25z " />
<glyph unicode="&#x153;" horiz-adv-x="1777" d="M1671 438h-649q-4 -23 -4 -63q0 -122 67.5 -189t192.5 -67q72 0 156 23.5t96 23.5q26 0 26 -33q0 -156 -307 -156q-122 0 -219 48t-135 143q-153 -191 -406 -191q-191 0 -300 103.5t-109 284.5q0 174 68.5 312.5t199 219t301.5 80.5q127 0 218.5 -47.5t133.5 -138.5 q70 91 165 138.5t202 47.5q161 0 248.5 -86t87.5 -248q0 -49 -9.5 -110t-23.5 -95zM1047 569h489q6 40 6 72q0 96 -50.5 149.5t-143.5 53.5q-111 0 -191 -75t-110 -200zM506 119q86 0 156.5 39t115 105t68.5 148.5t24 172.5q0 124 -63 189t-174 65q-70 0 -130 -25.5 t-102.5 -70t-73 -104t-45 -126.5t-14.5 -139q0 -124 63 -189t175 -65z" />
<glyph unicode="&#x160;" horiz-adv-x="1071" d="M1083 1825l-204 -246q-24 -27 -53.5 -38t-84.5 -11q-54 0 -79 11t-37 38l-115 246q-6 15 -6 24q0 31 57 31q33 0 47 -6t25 -23l131 -213l209 213q15 17 30 23t46 6q53 0 53 -22q0 -11 -19 -33zM940 360q0 -178 -124.5 -280.5t-360.5 -102.5q-90 0 -181.5 19.5t-153 54 t-61.5 72.5q0 37 16.5 63.5t43.5 26.5q16 0 68.5 -20t130.5 -40t155 -20q270 0 270 205q0 58 -28 109.5t-73 93t-99.5 82t-109 84.5t-99.5 92t-73 113.5t-28 140.5q0 180 134.5 281.5t357.5 101.5q121 0 215 -26.5t94 -78.5q0 -29 -12.5 -59.5t-38.5 -30.5q-8 0 -47 10.5 t-98 20.5t-115 10q-139 0 -217 -58t-78 -153q0 -57 28 -108.5t73.5 -93.5t100 -83t109 -85.5t100 -92.5t73.5 -112t28 -136z" />
<glyph unicode="&#x161;" horiz-adv-x="811" d="M864 1366l-205 -246q-24 -27 -53 -38t-84 -11q-54 0 -79 11t-37 38l-115 246q-6 15 -6 25q0 17 13.5 23.5t43.5 6.5q34 0 48 -5.5t24 -22.5l131 -213l209 213q15 17 29.5 22.5t45.5 5.5q54 0 54 -22q0 -11 -19 -33zM678 252q0 -130 -92.5 -202.5t-261.5 -72.5 q-71 0 -136.5 12t-112 38t-46.5 61t14 57.5t41 22.5q3 0 87 -26.5t151 -26.5q93 0 135.5 31t42.5 94q0 36 -20 69t-51.5 59t-70 52.5t-77.5 55.5t-70.5 62t-51.5 78.5t-20 98.5q0 121 94 191.5t256 70.5q98 0 176 -24.5t78 -67.5q0 -74 -47 -74q-3 0 -77 15.5t-127 15.5 q-83 0 -129 -31t-46 -90q0 -44 37 -85.5t90 -79t106.5 -78.5t90.5 -99.5t37 -126.5z" />
<glyph unicode="&#x178;" horiz-adv-x="1159" d="M686 1655l-88 -74q-19 -16 -39 -16q-22 0 -35 16l-59 74q-12 15 -12 31q0 19 24 40l86 74q20 17 39 17q21 0 35 -17l61 -74q13 -16 13 -28q0 -22 -25 -43zM1137 1655l-88 -74q-19 -16 -39 -16q-22 0 -35 16l-60 74q-12 15 -12 31q0 18 25 40l86 74q20 17 39 17 q20 0 34 -17l62 -74q12 -15 12 -28q0 -23 -24 -43zM416 74l90 510l-318 731q-10 23 -10 41q0 57 105 57q51 0 72.5 -15.5t37.5 -56.5l82 -213q123 -324 143 -391h5q69 103 282 391l160 218q29 39 54.5 53t80.5 14q88 0 88 -47q0 -23 -22 -51l-574 -733l-88 -508 q-8 -41 -30.5 -57.5t-75.5 -16.5q-43 0 -63.5 11.5t-20.5 41.5q0 13 2 21z" />
<glyph unicode="&#x17d;" horiz-adv-x="1138" d="M1126 1825l-204 -246q-24 -27 -53.5 -38t-84.5 -11q-54 0 -79 11t-37 38l-115 246q-6 15 -6 24q0 31 57 31q33 0 47 -6t25 -23l131 -213l209 213q15 17 30 23t46 6q53 0 53 -22q0 -11 -19 -33zM913 0h-841q-29 0 -44.5 14t-15.5 35l8 62q5 34 25 57l909 1083h-647 q-25 0 -36 10.5t-11 34.5q0 117 78 117h797q57 0 57 -45q0 -6 -6 -63q-2 -27 -27 -60l-909 -1085h690q26 0 37.5 -10t11.5 -35q0 -115 -76 -115z" />
<glyph unicode="&#x17e;" horiz-adv-x="942" d="M944 1366l-205 -246q-24 -27 -53 -38t-84 -11q-54 0 -79.5 11t-37.5 38l-114 246q-6 15 -6 25q0 17 13.5 23.5t43.5 6.5q34 0 48 -5.5t24 -22.5l131 -213l209 213q15 17 29.5 22.5t45.5 5.5q54 0 54 -22q0 -11 -19 -33zM723 0h-668q-26 0 -38 12t-9 33l10 74q2 14 88 100 q253 251 588 596h-481q-23 0 -33 8.5t-10 30.5q0 100 68 100h626q15 0 22.5 -0.5t17 -8t9.5 -21.5q0 -7 -6 -60q-3 -27 -16 -43l-660 -682h517q24 0 33.5 -8t9.5 -29q0 -102 -68 -102z" />
<glyph unicode="&#x192;" horiz-adv-x="1099" d="M881 696h-211l-256 -663q-91 -236 -183 -328t-249 -92q-52 0 -76.5 13t-24.5 44q0 35 15 66t43 31q8 0 27.5 -2.5t29.5 -2.5q79 0 128 69t116 241l239 624h-172q-33 0 -33 29q0 31 12.5 57.5t39.5 26.5h192l76 207q87 231 186 325.5t252 94.5q52 0 75 -13t23 -43 q0 -40 -13 -69t-42 -29q-6 0 -25 2t-32 2q-43 0 -76.5 -18t-63 -61t-52.5 -93.5t-56 -136.5l-61 -168h190q18 0 25.5 -8t7.5 -27q0 -78 -51 -78z" />
<glyph unicode="&#x2c6;" horiz-adv-x="983" d="M770 1100l-133 211l-207 -211q-15 -17 -31 -23t-47 -6q-49 0 -49 21q0 13 16 32l205 248q24 27 52.5 38t82.5 11q56 0 81.5 -11t37.5 -38l115 -248q6 -15 6 -24q0 -29 -59 -29q-33 0 -46 5.5t-24 23.5z" />
<glyph unicode="&#x2c7;" horiz-adv-x="983" d="M936 1366l-205 -246q-24 -27 -53 -38t-84 -11q-54 0 -79.5 11t-37.5 38l-115 246q-6 15 -6 25q0 30 58 30q34 0 47 -5.5t24 -22.5l131 -213l209 213q15 17 30 22.5t46 5.5q53 0 53 -22q0 -12 -18 -33z" />
<glyph unicode="&#x2d8;" horiz-adv-x="1001" d="M969 1339q0 -37 -24.5 -83.5t-68 -90.5t-115.5 -74t-155 -30q-130 0 -199 63t-69 160q0 50 12 68t53 18q28 0 38 -7.5t12 -25.5q7 -157 174 -157t231 157q8 18 21 25.5t41 7.5q27 0 38 -6.5t11 -24.5z" />
<glyph unicode="&#x2d9;" horiz-adv-x="1056" d="M778 1178l-106 -91q-19 -16 -41 -16q-20 0 -33 16l-74 91q-10 12 -10 28q0 26 23 43l106 90q20 17 39 17q21 0 35 -17l74 -90q10 -13 10 -28q0 -24 -23 -43z" />
<glyph unicode="&#x2da;" horiz-adv-x="1019" d="M842 1266q0 -99 -67.5 -163.5t-164.5 -64.5q-76 0 -120 40.5t-44 109.5q0 100 66.5 163.5t165.5 63.5q75 0 119.5 -40.5t44.5 -108.5zM625 1116q55 0 92 37t37 96q0 40 -24.5 64t-65.5 24q-56 0 -92.5 -37.5t-36.5 -97.5q0 -39 24 -62.5t66 -23.5z" />
<glyph unicode="&#x2db;" horiz-adv-x="1001" d="M461 31h98q-137 -119 -183 -181t-46 -126q0 -36 23.5 -56t62.5 -20q32 0 63 7t35 7q21 0 21 -22q0 -26 -12.5 -43.5t-36 -25.5t-47 -10.5t-56.5 -2.5q-48 0 -86.5 11.5t-67 43.5t-28.5 82q0 84 57 158.5t203 177.5z" />
<glyph unicode="&#x2dc;" horiz-adv-x="1034" d="M981 1343h29q8 0 14 -7.5t6 -14.5q0 -5 -4 -21q-31 -90 -92.5 -136t-134.5 -46q-60 0 -162 44t-143 44q-22 0 -39 -4.5t-29.5 -15t-19.5 -18.5t-17.5 -24.5t-15.5 -23.5q-6 -10 -37 -10q-35 0 -35 25q0 10 2 18q31 90 93.5 136t135.5 46q58 0 163 -44t143 -44q53 0 82 33 q8 10 19 28t20 26.5t22 8.5z" />
<glyph unicode="&#x2dd;" horiz-adv-x="956" d="M657 1335l-217 -229q-22 -22 -37 -29.5t-45 -7.5q-51 0 -51 25q0 12 17 39l149 225q18 29 43 40t78 11q86 0 86 -33q0 -18 -23 -41zM1063 1335l-217 -229q-22 -22 -37 -29.5t-45 -7.5q-53 0 -53 25q0 15 18 39l150 225q18 29 43 40t77 11q86 0 86 -33q0 -19 -22 -41z" />
<glyph unicode="&#x394;" horiz-adv-x="1435" d="M1198 0h-1128q-62 0 -62 51q0 13 2 21l19 98l710 1186q19 31 43 44t62 13h69q40 0 59.5 -13t28.5 -46l299 -1184l-18 -98q-12 -72 -84 -72zM1100 168l-160 676q-64 291 -88 422h-4q-74 -144 -240 -422l-397 -676h889z" />
<glyph unicode="&#x3a9;" horiz-adv-x="1581" d="M1309 0h-412q-61 0 -61 51q0 13 2 21l16 88q442 345 442 760q0 175 -95.5 267.5t-270.5 92.5q-162 0 -286.5 -88t-187.5 -228t-63 -305q0 -261 221 -499l-14 -88q-12 -72 -84 -72h-412q-30 0 -42.5 9.5t-12.5 35.5q0 68 21.5 95.5t62.5 27.5q193 0 281 -8l2 4 q-100 103 -155.5 236.5t-55.5 281.5q0 167 59 309t161 239t241.5 151.5t298.5 54.5q253 0 391.5 -128.5t138.5 -353.5q0 -220 -120 -429t-322 -361l2 -4q101 8 282 8q30 0 43 -10t13 -37q0 -121 -84 -121z" />
<glyph unicode="&#x3bc;" horiz-adv-x="1263" d="M807 158h-4q-111 -181 -316 -181q-78 0 -136 29.5t-85 79.5l-6 -4q-12 -93 -49 -313l-21 -129q-6 -39 -28.5 -54.5t-73.5 -15.5q-42 0 -59 10.5t-17 36.5q0 15 2 23l219 1245q6 38 28.5 53.5t72.5 15.5q41 0 59.5 -11.5t18.5 -37.5q0 -12 -2 -20l-84 -471q-9 -46 -9 -86 q0 -100 52 -153.5t155 -53.5q125 0 207.5 97t112.5 265l71 402q6 38 28 53.5t73 15.5q42 0 59 -10.5t17 -36.5q0 -14 -2 -22l-111 -631q-4 -20 -4 -51q0 -34 13 -50t44 -16q28 0 39.5 -10t11.5 -33q0 -16 -2 -26q-8 -46 -31 -62t-87 -16q-81 0 -119.5 32t-38.5 105 q0 5 1 15.5t1 15.5z" />
<glyph unicode="&#x3c0;" horiz-adv-x="1271" d="M758 295l86 493h-320l-176 -720q-9 -38 -33.5 -53t-76.5 -15q-43 0 -61.5 10t-18.5 35q0 20 10 53l207 690h-182q-27 0 -38.5 9.5t-11.5 33.5q0 11 4 39q6 46 23.5 65t52.5 19h998q28 0 38.5 -11t10.5 -40q0 -21 -2 -33q-9 -46 -26.5 -64t-51.5 -18h-182l-82 -469 q-8 -41 -8 -77q0 -54 24.5 -78.5t79.5 -24.5q26 0 36.5 -8t10.5 -31q0 -6 -4 -34q-8 -43 -26.5 -60.5t-67.5 -17.5q-113 0 -168 47t-55 153q0 56 10 107z" />
<glyph unicode="&#xe01;" horiz-adv-x="1249" d="M831 68l117 665q6 35 6 66q0 113 -71 174t-197 61q-96 0 -190.5 -32t-163.5 -84v-7l211 -88q28 -11 28 -37q0 -16 -2 -26q-6 -32 -14 -41t-33 -14q-82 -19 -129.5 -68t-62.5 -139l-76 -430q-6 -36 -28.5 -52t-71.5 -16q-74 0 -74 45q0 15 2 23l72 411q37 215 239 264l2 7 l-188 71q-35 12 -35 39q0 8 2 14l10 56q4 27 15 40.5t47 41.5q96 74 221.5 116.5t265.5 42.5q191 0 295.5 -90.5t104.5 -242.5q0 -19 -9 -84l-118 -686q-6 -36 -29 -52t-72 -16q-41 0 -58.5 10.5t-17.5 34.5q0 15 2 23z" />
<glyph unicode="&#xe02;" horiz-adv-x="1171" d="M801 338l133 741q6 38 28 54t70 16q41 0 58.5 -11t17.5 -36q0 -15 -2 -23l-133 -753q-29 -165 -153.5 -257t-319.5 -92q-168 0 -260.5 72t-92.5 203q0 27 7 74l16 100q6 36 17.5 68.5t33 64.5t36.5 53.5t48.5 55t47.5 47t53 49.5l-5 4q-37 -25 -92 -25q-75 0 -120.5 44 t-45.5 116q0 112 76.5 183t192.5 71q92 0 145 -45.5t53 -126.5q0 -15 -4 -47q-12 -71 -40.5 -130.5t-61.5 -101.5t-66 -82.5t-60.5 -92t-37.5 -109.5l-14 -84q-4 -18 -4 -51q0 -84 52 -129t150 -45q112 0 184.5 59.5t92.5 165.5zM354 856q45 0 76 31t31 80q0 34 -19.5 54.5 t-54.5 20.5q-44 0 -75 -32.5t-31 -79.5q0 -34 19 -54t54 -20z" />
<glyph unicode="&#xe03;" horiz-adv-x="1228" d="M858 340l131 739q6 38 28 54t70 16q41 0 59.5 -11.5t18.5 -37.5q0 -15 -2 -21l-133 -751q-29 -167 -153 -259t-320 -92q-172 0 -263 71t-91 202q0 38 6 78l14 88q9 54 34 107t67 104t77.5 88t90.5 88l-13 10q-30 -30 -78 -49t-100 -19q-84 0 -134 44t-50 118 q0 111 73.5 180.5t184.5 69.5q87 0 136.5 -43t49.5 -121q0 -27 -10 -69l12 -11q61 70 82 179q6 34 23.5 47.5t52.5 13.5q31 0 44 -11t13 -40q0 -74 -34.5 -147.5t-86 -135.5t-104.5 -122t-97 -129t-57 -134l-18 -94q-4 -18 -4 -53q0 -85 52.5 -129.5t150.5 -44.5 q114 0 186 59t92 168zM319 858q45 0 76 31t31 80q0 34 -19.5 54.5t-54.5 20.5q-44 0 -74 -32.5t-30 -81.5q0 -34 18.5 -53t52.5 -19z" />
<glyph unicode="&#xe04;" horiz-adv-x="1361" d="M946 68l109 622q8 41 8 86q0 123 -74.5 191.5t-210.5 68.5q-162 0 -269 -91.5t-136 -254.5q-18 -105 -41 -205l6 -2q64 117 166 193t219 76q84 0 133 -43t49 -117q0 -97 -71 -168.5t-172 -71.5q-78 0 -125.5 43t-47.5 113q-153 -101 -206 -387l-11 -53q-8 -37 -29 -52.5 t-69 -15.5q-41 0 -58.5 10.5t-17.5 34.5q0 15 2 23l107 614q40 230 198 359.5t398 129.5q208 0 321 -98.5t113 -277.5q0 -48 -10 -113l-109 -614q-6 -36 -28.5 -52t-69.5 -16q-41 0 -58.5 11t-17.5 36q0 13 2 21zM676 461q43 0 73.5 32t30.5 76q0 34 -18.5 53t-52.5 19 q-45 0 -76 -30.5t-31 -80.5q0 -32 20 -50.5t54 -18.5z" />
<glyph unicode="&#xe05;" horiz-adv-x="1370" d="M954 68l129 727q7 35 7 59q0 69 -31 116.5t-88 67.5l-119 -116q-23 -23 -40 -30t-56 -7t-54.5 7.5t-29.5 29.5l-76 116q-80 -25 -133 -87.5t-70 -155.5l-57 -306l6 -2q64 118 166 193.5t221 75.5q84 0 133 -44t49 -118q0 -102 -71.5 -170t-171.5 -68q-82 0 -126 42 t-44 114q-82 -53 -139 -157t-76 -230l-9 -57q-5 -36 -28 -52t-72 -16q-41 0 -58.5 11t-17.5 36q0 13 2 21l125 716q28 163 129.5 263.5t243.5 123.5h29q31 0 46.5 -11.5t31.5 -41.5l69 -121h4l115 121q26 31 44.5 42t49.5 11h29q116 -19 181 -94t65 -200q0 -43 -9 -93 l-127 -716q-6 -36 -28 -52t-70 -16q-40 0 -58 11.5t-18 37.5q0 13 2 19zM682 465q43 0 73.5 30t30.5 78q0 34 -19 53t-54 19q-45 0 -76 -30t-31 -78q0 -34 20.5 -53t55.5 -19z" />
<glyph unicode="&#xe06;" horiz-adv-x="1298" d="M905 223h4q7 55 27 183l121 673q6 38 28 54t70 16q41 0 58.5 -11t17.5 -36q0 -15 -2 -23l-178 -1018q-6 -32 -27.5 -46.5t-67.5 -14.5q-38 0 -54.5 8.5t-27.5 30.5q-40 81 -147 157.5t-217 94.5l-10 -74q-15 -106 -89.5 -168.5t-181.5 -62.5q-92 0 -145 48.5t-53 131.5 q0 108 75.5 191t188.5 83q36 0 76 -8l2 2l16 119q10 74 39.5 127t89.5 121l-12 12q-61 -68 -176 -68q-86 0 -135.5 44t-49.5 118q0 109 73 179.5t183 70.5q86 0 135.5 -42t49.5 -116q0 -38 -11 -75l15 -13q61 69 82 181q6 35 23 48t53 13q32 0 45.5 -12t13.5 -41 q0 -11 -4 -43q-11 -65 -36.5 -119t-55 -92.5t-59 -77.5t-55 -93.5t-36.5 -119.5l-24 -137q108 -19 210.5 -75.5t157.5 -119.5zM348 858q44 0 74.5 32.5t30.5 82.5q0 33 -19.5 52t-52.5 19q-45 0 -75 -32.5t-30 -83.5q0 -31 19.5 -50.5t52.5 -19.5zM248 104q48 0 80 39 t32 101q0 37 -19.5 57.5t-55.5 20.5q-50 0 -81.5 -38.5t-31.5 -99.5q0 -37 20 -58.5t56 -21.5z" />
<glyph unicode="&#xe07;" horiz-adv-x="1056" d="M684 295l59 340q5 30 29 131l-2 2q-31 -23 -86 -23q-79 0 -126.5 44t-47.5 118q0 108 77.5 179t188.5 71q92 0 145.5 -46.5t53.5 -123.5q0 -15 -4 -43l-117 -663q-26 -147 -129.5 -225.5t-271.5 -78.5q-44 0 -71 2t-63.5 9t-58 25t-27.5 46l-145 639q-4 16 -4 31 q0 62 100 62q44 0 63 -14.5t25 -47.5l113 -569q5 -29 24 -39t74 -10q83 0 134.5 46.5t66.5 137.5zM719 856q45 0 75.5 32t30.5 81q0 34 -19.5 53.5t-53.5 19.5q-45 0 -75 -32.5t-30 -83.5q0 -32 19 -51t53 -19z" />
<glyph unicode="&#xe08;" horiz-adv-x="1161" d="M356 45v178q0 81 6 146l-2 2q-34 -27 -84 -27q-81 0 -126.5 45t-45.5 121q0 105 64 169t172 64q190 0 190 -208v-418q18 -6 52 -6q111 0 185 109.5t116 348.5q16 94 16 162q0 303 -272 303q-165 0 -338 -69q-49 -17 -62 -17q-28 0 -28 37q0 17 2 27q6 34 18 50t41 30 q69 31 181.5 55t226.5 24q204 0 305.5 -98t101.5 -301q0 -80 -20 -203q-102 -592 -508 -592q-85 0 -148 17q-21 6 -30.5 16.5t-12.5 34.5zM293 453q43 0 72.5 30.5t29.5 79.5q0 31 -18.5 49.5t-50.5 18.5q-43 0 -73 -32t-30 -81q0 -29 19 -47t51 -18z" />
<glyph unicode="&#xe09;" horiz-adv-x="1368" d="M1104 393v-4q51 -17 80.5 -58t29.5 -98q0 -107 -79 -177t-187 -70q-89 0 -140.5 44.5t-51.5 119.5q0 43 18 89t49 68v4q-28 4 -47 4q-80 0 -158 -64t-145 -200q-15 -31 -34 -41t-60 -10q-40 0 -57 10.5t-17 34.5q0 10 2 16q46 254 55 289l-2 2q-29 -22 -84 -22 q-76 0 -121.5 44t-45.5 118q0 107 76.5 176t187.5 69q88 0 139 -45t51 -121q0 -15 -4 -43l-12 -65q-29 -151 -43 -205h4q63 94 152.5 140t189.5 46q53 0 119 -20q20 20 26 59l43 236q6 40 6 76q0 241 -313 241q-173 0 -387 -86q-40 -12 -51 -12q-29 0 -29 41q0 43 15.5 66 t46.5 36q209 90 448 90q221 0 333 -86.5t112 -253.5q0 -39 -11 -110l-39 -223q-14 -79 -65 -105zM317 440q44 0 73.5 31.5t29.5 81.5q0 33 -18.5 52.5t-53.5 19.5q-45 0 -75.5 -31t-30.5 -80q0 -34 20 -54t55 -20zM967 98q45 0 78.5 34t33.5 85q0 35 -20.5 55.5t-57.5 20.5 q-45 0 -77.5 -34t-32.5 -87q0 -34 21 -54t55 -20z" />
<glyph unicode="&#xe0a;" horiz-adv-x="1175" d="M819 342l39 225q4 18 4 49q0 93 -98 129q-28 9 -39.5 30t-11.5 61q4 15 24 32q121 96 242 248q26 33 48 44t67 11q39 0 60.5 -12t21.5 -33q0 -53 -87.5 -135t-207.5 -157v-5q79 -30 118 -74t39 -122q0 -33 -6 -70l-41 -233q-29 -166 -157.5 -259.5t-325.5 -93.5 q-173 0 -267 73.5t-94 205.5q0 27 7 74l16 96q9 53 30.5 99t59.5 91.5t65.5 72.5t80.5 75l-5 4q-37 -25 -92 -25q-75 0 -120.5 44t-45.5 116q0 112 76.5 183t192.5 71q89 0 141.5 -46.5t52.5 -127.5q0 -33 -4 -49q-15 -74 -44 -134.5t-61.5 -101t-64 -78t-56.5 -85 t-34 -103.5l-14 -90q-6 -27 -6 -53q0 -83 55 -129.5t155 -46.5q114 0 191 61t96 168zM354 856q45 0 76 31t31 80q0 34 -19.5 54.5t-54.5 20.5q-44 0 -75 -32.5t-31 -79.5q0 -34 19 -54t54 -20z" />
<glyph unicode="&#xe0b;" horiz-adv-x="1245" d="M889 348l39 219q4 18 4 49q0 93 -98 129q-29 9 -40.5 30.5t-11.5 60.5q4 14 25 32q121 96 242 248q26 33 47.5 44t66.5 11q39 0 60.5 -12t21.5 -33q0 -53 -87.5 -135t-207.5 -157v-5q79 -31 118.5 -74.5t39.5 -121.5q0 -33 -6 -70l-41 -227q-31 -169 -159.5 -264 t-330.5 -95q-177 0 -272.5 74.5t-95.5 210.5q0 34 6 74l14 80q10 54 35 107t65.5 103.5t78 89t90.5 87.5l-13 8q-30 -30 -77.5 -48t-100.5 -18q-86 0 -135 44t-49 118q0 109 73 179.5t183 70.5q88 0 137 -43t49 -119q0 -29 -10 -71l14 -11q57 69 82 179q6 34 22 47.5 t54 13.5q31 0 44 -11.5t13 -41.5q0 -11 -4 -43q-13 -71 -53 -140t-89 -126t-97.5 -113t-87.5 -120.5t-50 -127.5l-14 -82q-4 -18 -4 -53q0 -86 56 -134t159 -48q120 0 197.5 62t97.5 173zM319 858q44 0 74.5 32.5t30.5 82.5q0 33 -19 52t-53 19q-45 0 -74.5 -32.5 t-29.5 -83.5q0 -32 19 -51t52 -19z" />
<glyph unicode="&#xe0c;" horiz-adv-x="1861" d="M1466 219l13 10q10 81 26 183l119 673q6 37 22.5 50.5t57.5 13.5q88 0 88 -57q0 -13 -2 -19l-178 -1018q-6 -32 -21.5 -43.5t-54.5 -11.5q-11 0 -20.5 1t-16 2t-12.5 5t-9 5.5t-8 8t-6.5 9t-6.5 11t-7 11.5q-48 77 -147.5 146t-208.5 82q4 -24 4 -50q0 -31 -4 -49 q-17 -92 -76 -144t-150 -52t-146.5 52.5t-55.5 139.5q0 106 69.5 169t159.5 63h4l59 329q7 44 7 68q0 110 -71 168.5t-192 58.5q-96 0 -190.5 -35t-165.5 -88l-6 -2l197 -84q18 -8 24 -16.5t6 -28.5q0 -21 -2 -35q-4 -31 -9.5 -37.5t-25.5 -11.5q-81 -20 -133.5 -67 t-68.5 -142l-21 -116q29 16 76 16q75 0 121.5 -44.5t46.5 -119.5q0 -103 -65.5 -169t-176.5 -66q-94 0 -150.5 50t-56.5 130q0 17 4 45l50 272q21 113 78 174.5t153 85.5l8 5l-182 73q-23 10 -32 22.5t-5 35.5l10 55q6 37 13.5 49t40.5 37q89 65 219 107t264 42 q195 0 304.5 -91t109.5 -246q0 -40 -9 -86l-63 -334q126 -17 233.5 -73.5t167.5 -121.5zM862 98q45 0 76 30.5t31 86.5q0 76 -74 76q-43 0 -70.5 -26.5t-33.5 -76.5q-4 -39 16.5 -64.5t54.5 -25.5zM319 96q43 0 73 32t30 81q0 31 -19 49t-51 18q-43 0 -73.5 -30.5 t-30.5 -77.5q0 -33 19 -52.5t52 -19.5z" />
<glyph unicode="&#xe0d;" horiz-adv-x="1908" d="M1542 371l127 714q6 37 23.5 50.5t58.5 13.5q86 0 86 -57q0 -13 -2 -19l-127 -727q-29 -167 -152 -258.5t-315 -91.5q-177 0 -273 76.5t-96 212.5q0 29 7 73l67 381q6 37 6 70q0 109 -69 167t-189 58q-93 0 -184.5 -34.5t-163.5 -88.5l-6 -2l197 -84q18 -8 24 -16.5 t6 -28.5q0 -50 -7 -64.5t-30 -19.5q-178 -38 -206 -209l-21 -116q37 16 76 16q79 0 125.5 -44.5t46.5 -119.5q0 -104 -68.5 -169.5t-175.5 -65.5q-94 0 -149.5 50t-55.5 130q0 13 4 45l50 272q21 113 78 174.5t153 85.5l8 5l-182 73q-20 8 -29.5 17.5t-9.5 25.5q0 9 2 15 l10 55q12 64 101.5 119.5t207 85.5t224.5 30q192 0 298.5 -94t106.5 -248q0 -23 -8 -81l-67 -390q-5 -23 -5 -53q0 -83 51 -127.5t148 -44.5q119 0 199 64t100 174zM319 96q43 0 73 32t30 81q0 31 -19 49t-51 18q-43 0 -73.5 -30.5t-30.5 -77.5q0 -33 19 -52.5t52 -19.5z M1116 -422q12 -2 41 -2q97 0 174 64t123 172q13 31 29 40t51 9q43 0 59.5 -19t16.5 -59q0 -21 -15 -55q-61 -132 -177 -204.5t-277 -72.5q-151 0 -242.5 64t-91.5 166q0 94 60 152t157 58q82 0 129 -40.5t47 -108.5q0 -43 -20.5 -91.5t-63.5 -72.5zM991 -371q40 0 67 28 t27 71q0 29 -17 46t-48 17q-39 0 -65.5 -29t-26.5 -71q0 -28 17 -45t46 -17z" />
<glyph unicode="&#xe0e;" horiz-adv-x="1349" d="M899 -137l152 870q6 35 6 66q0 113 -71.5 174t-197.5 61q-97 0 -193.5 -32.5t-166.5 -83.5v-7l236 -98q16 -7 23 -14t7 -21q0 -46 -12.5 -62.5t-38.5 -21.5q-121 -25 -149 -180l-56 -313q-17 -95 -88.5 -153t-169.5 -58q-87 0 -136.5 43.5t-49.5 116.5q0 101 68.5 167 t164.5 66q49 0 72 -23l2 2q11 160 60 249.5t161 121.5v6l-219 82q-19 7 -27 15t-8 26q0 1 1 5.5t1 6.5l11 56q11 58 102 115t216 91.5t235 34.5q191 0 296 -90.5t105 -242.5q0 -26 -8 -84l-211 -1194q-9 -54 -34.5 -73t-82.5 -19q-49 0 -67 6.5t-39 29.5q-75 82 -179 148 q-132 -205 -335 -205q-94 0 -150.5 44t-56.5 120q0 81 45 141t114 88.5t150 28.5q100 0 184 -49q10 14 17 57l6 51q6 32 26.5 47t61.5 15q37 0 53 -13.5t16 -42.5q0 -30 -18 -81t-41 -89q107 -62 176 -143q5 66 37 242zM195 98q43 0 72.5 32t29.5 81q0 31 -19 49.5t-51 18.5 q-43 0 -73.5 -31t-30.5 -78q0 -33 19.5 -52.5t52.5 -19.5zM508 -297q-68 43 -146 43q-67 0 -105 -28t-38 -78q0 -35 25 -52.5t67 -17.5q118 0 197 133z" />
<glyph unicode="&#xe0f;" horiz-adv-x="1349" d="M797 -492l-86 123l-99 -125q-20 -26 -32 -32t-41 -6q-31 0 -50 23t-37 64t-32 60q-97 -168 -279 -168q-88 0 -139 42t-51 114q0 112 82.5 181t193.5 69q98 0 162 -54q8 22 13.5 51.5t9.5 47.5t12.5 35.5t27 25.5t48.5 8q69 0 69 -59q0 -30 -23 -89t-54 -98 q45 -48 71 -124l109 139q14 17 25 22.5t34 5.5q22 0 30.5 -5t22.5 -25l80 -111q10 119 25 195l162 915q6 38 6 68q0 111 -71.5 172t-197.5 61q-97 0 -193.5 -32.5t-166.5 -83.5v-7l236 -98q16 -7 23 -14t7 -21q0 -46 -12.5 -62.5t-38.5 -21.5q-121 -25 -149 -180l-56 -313 q-17 -95 -88.5 -153t-169.5 -58q-87 0 -136.5 43.5t-49.5 116.5q0 101 68.5 167t164.5 66q49 0 72 -23l2 2q11 160 60 249.5t161 121.5v6l-219 82q-19 7 -27 15t-8 26q0 1 1 5.5t1 6.5l11 56q11 58 102 115t216 91.5t235 34.5q191 0 296 -90.5t105 -242.5q0 -26 -8 -84 l-211 -1194q-9 -54 -34 -73t-81 -19q-49 0 -67 7t-37 33zM195 98q43 0 72.5 32t29.5 81q0 31 -19 49.5t-51 18.5q-43 0 -73.5 -31t-30.5 -78q0 -33 19.5 -52.5t52.5 -19.5zM336 -309q-50 43 -119 43q-53 0 -88 -29.5t-35 -73.5q0 -29 21.5 -46t56.5 -17q106 0 164 123z" />
<glyph unicode="&#xe10;" horiz-adv-x="1134" d="M362 76v162q-28 -25 -86 -25q-84 0 -133 45t-49 121q0 100 67 163.5t173 63.5q102 0 150.5 -58.5t43.5 -156.5l-12 -256q21 -6 51 -6q74 0 127.5 70t79.5 211q12 64 12 110q0 76 -35 115.5t-116 54.5q-273 51 -420 51q-55 0 -55 45q0 11 2 17l16 86q28 143 128 212.5 t243 69.5q77 0 199.5 -22.5t173.5 -22.5q37 0 79.5 6.5t45.5 6.5q36 0 36 -49q0 -21 -2 -33q-6 -36 -40.5 -50t-106.5 -14t-193.5 22.5t-185.5 22.5q-87 0 -147 -38.5t-70 -114.5l-4 -29q111 -7 311 -41q171 -30 240 -96t69 -187q0 -71 -14 -145q-33 -188 -128.5 -287.5 t-254.5 -99.5q-64 0 -143 18q-52 11 -52 58zM291 317q43 0 72.5 31t29.5 78q0 33 -19 52.5t-52 19.5q-43 0 -73 -32t-30 -79q0 -32 19 -51t53 -19zM606 -575l-82 98l-61 -74q-13 -16 -20.5 -20t-22.5 -4q-41 0 -51.5 6.5t-20.5 31.5q-18 49 -51 82q-81 -139 -215 -139 q-79 0 -126.5 40t-47.5 110q0 92 62 146t153 54q75 0 147 -47q12 20 19 58l8 51q3 21 16 29t43 8q32 0 51 -15t19 -45q0 -33 -20.5 -78t-53.5 -86q42 -42 58 -104l75 88q11 13 18 15.5t25 2.5q21 0 31.5 -7t22.5 -25l59 -68q31 0 52.5 14.5t25.5 40.5l10 60q-20 -4 -33 -4 q-64 0 -103.5 35t-39.5 96q0 77 54 127.5t138 50.5q71 0 113.5 -38t42.5 -99q0 -19 -2 -29l-35 -203q-14 -90 -75.5 -124.5t-182.5 -34.5zM715 -268q31 0 52 22.5t21 57.5q0 49 -51 49q-33 0 -54 -21.5t-21 -56.5q0 -51 53 -51zM227 -385q-39 31 -86 31q-39 0 -73.5 -23.5 t-34.5 -66.5q0 -41 55 -41q39 0 75.5 27t63.5 73z" />
<glyph unicode="&#xe11;" horiz-adv-x="1396" d="M979 68l139 798q6 34 6 60q0 108 -106 108q-73 0 -166 -59.5t-176 -152.5t-148.5 -216t-85.5 -239l-51 -299q-6 -36 -28.5 -52t-69.5 -16q-41 0 -58.5 11t-17.5 36q0 13 2 21l51 303q21 126 75 224.5t151 203.5l-19 12q-62 -66 -176 -66q-86 0 -135 44t-49 118 q0 109 73 179.5t183 70.5q84 0 131 -41.5t47 -114.5q0 -33 -12 -77l16 -11q47 80 66 179q6 34 22 47.5t51 13.5q56 0 56 -51q0 -27 -12 -70.5t-31 -70.5l4 -3q178 211 374 211q106 0 163 -51.5t57 -154.5q0 -17 -9 -82l-143 -813q-6 -36 -28 -52t-70 -16q-41 0 -59.5 11.5 t-18.5 37.5q0 13 2 19zM319 858q44 0 74.5 32.5t30.5 82.5q0 33 -19 52t-53 19q-45 0 -74.5 -32.5t-29.5 -83.5q0 -31 19 -50.5t52 -19.5z" />
<glyph unicode="&#xe12;" horiz-adv-x="2035" d="M1647 219h4q10 107 24 182l121 678q6 37 27.5 53.5t68.5 16.5q40 0 58 -11.5t18 -37.5q0 -13 -2 -21l-180 -1018q-6 -32 -26.5 -46.5t-63.5 -14.5q-38 0 -53 8t-27 33q-41 81 -142 155.5t-212 90.5q10 -23 10 -54q0 -109 -75 -178t-179 -69q-86 0 -134 43t-48 118 q0 116 68.5 188t168.5 75l64 366q6 35 6 64q0 153 -146 198l-116 -116q-23 -23 -41 -30t-58 -7q-39 0 -54.5 7.5t-29.5 29.5l-75 116q-193 -50 -232 -262l-112 -635q109 23 207.5 82t168.5 142q-91 0 -140.5 41t-49.5 114q0 105 73 170.5t179 65.5q84 0 132 -43t48 -119 q0 -88 -46.5 -178t-123.5 -163t-171.5 -131t-195.5 -90t-190 -32h-25q-51 0 -51 43q0 8 2 14l127 711q31 177 139.5 278.5t262.5 124.5h30q30 0 45 -11.5t31 -41.5l70 -121h4l115 121q27 31 44 42t48 11h30q125 -20 198 -96.5t73 -208.5q0 -40 -10 -98l-62 -354 q130 -18 237.5 -73t168.5 -122zM664 467q44 0 75 30t31 78q0 34 -19.5 53t-54.5 19q-45 0 -74.5 -31t-29.5 -81q0 -31 19.5 -49.5t52.5 -18.5zM1036 98q44 0 74.5 34t30.5 91q0 35 -18 54.5t-52 19.5q-45 0 -74.5 -34t-29.5 -93q0 -34 18 -53t51 -19z" />
<glyph unicode="&#xe13;" horiz-adv-x="1900" d="M1655 385l-15 -2q113 -39 113 -156q0 -107 -70.5 -174t-179.5 -67q-93 0 -145.5 49t-52.5 133q0 13 4 41q10 65 57 102l8 2q-10 2 -39 2q-47 0 -91 -20t-88 -61t-80.5 -85.5t-84.5 -111.5q-18 -25 -32 -31t-50 -6q-84 0 -84 51q0 11 2 17l119 671q6 37 6 70 q0 109 -68 167t-190 58q-93 0 -184.5 -34.5t-163.5 -88.5l-6 -2l190 -84q18 -8 24.5 -16.5t6.5 -28.5q0 -21 -2 -35q-5 -31 -9.5 -38t-25.5 -11q-172 -40 -200 -209l-21 -116q29 16 74 16q79 0 125.5 -44.5t46.5 -119.5q0 -104 -68.5 -169.5t-175.5 -65.5q-93 0 -148 50 t-55 130q0 13 4 45l50 272q21 113 78 174.5t153 85.5l8 5l-182 73q-23 10 -32 22.5t-5 35.5l10 55q4 24 6.5 33t13.5 23t34 30q215 149 479 149q193 0 299 -93.5t106 -246.5q0 -25 -8 -83l-33 -189q-36 -209 -63 -305l4 12q141 176 346 176q61 0 131 -18q34 27 39 63 l107 598q6 37 23.5 50.5t60.5 13.5q86 0 86 -57q0 -13 -2 -19l-103 -588q-14 -78 -57 -100zM1509 96q47 0 80 32.5t33 82.5q0 37 -21.5 58.5t-56.5 21.5q-41 0 -70 -26.5t-38 -71.5q-2 -8 -2 -23q0 -34 20.5 -54t54.5 -20zM319 96q43 0 73 32t30 81q0 31 -19 49t-51 18 q-43 0 -73.5 -30.5t-30.5 -77.5q0 -33 19 -52.5t52 -19.5z" />
<glyph unicode="&#xe14;" horiz-adv-x="1359" d="M948 68l109 622q8 41 8 86q0 123 -74.5 191.5t-210.5 68.5q-160 0 -267.5 -92t-135.5 -254l-96 -551q107 25 209.5 84t168.5 137q-89 0 -138.5 42t-49.5 114q0 104 74 170t178 66q83 0 131.5 -43t48.5 -115q0 -78 -33.5 -156t-90 -142t-131 -120t-155.5 -94t-165 -60 t-158 -22h-25q-51 0 -51 43q0 8 2 14l113 625q41 230 198 359.5t396 129.5q207 0 319.5 -97.5t112.5 -276.5q0 -47 -10 -115l-109 -614q-6 -37 -27 -52.5t-69 -15.5q-40 0 -57 11t-17 36q0 13 2 21zM670 463q45 0 75.5 30.5t30.5 77.5q0 34 -19.5 53t-54.5 19 q-45 0 -75.5 -30t-30.5 -78q0 -32 20 -52t54 -20z" />
<glyph unicode="&#xe15;" horiz-adv-x="1388" d="M977 68l127 727q6 30 6 59q0 69 -33.5 116.5t-95.5 67.5l-117 -116q-23 -23 -40.5 -30t-55.5 -7q-39 0 -55.5 7.5t-30.5 29.5l-74 116q-85 -25 -140.5 -87.5t-72.5 -155.5l-114 -656q111 25 219.5 86.5t177.5 139.5q-90 0 -139.5 42t-49.5 113q0 105 73 170.5t177 65.5 q85 0 134 -44t49 -114q0 -94 -48.5 -186t-128.5 -165t-177.5 -129.5t-202 -87t-195.5 -30.5h-25q-51 0 -51 43q0 8 2 14l129 727q28 163 133 263.5t250 123.5h31q29 0 45.5 -12t32.5 -41l67 -121h4l115 121q26 31 44.5 42t49.5 11h29q118 -19 186 -96t68 -203q0 -47 -8 -88 l-127 -716q-6 -36 -28 -52t-68 -16q-40 0 -57 11t-17 36q0 13 2 21zM688 467q44 0 74.5 32t30.5 79q0 32 -20 50.5t-54 18.5q-44 0 -74.5 -30t-30.5 -80q0 -32 20 -51t54 -19z" />
<glyph unicode="&#xe16;" horiz-adv-x="1255" d="M840 74l118 665q7 44 7 68q0 110 -70.5 168.5t-194.5 58.5q-94 0 -192.5 -34.5t-167.5 -86.5v-4l197 -84q18 -8 24 -16.5t6 -28.5q0 -21 -2 -35q-5 -31 -9.5 -38t-25.5 -11q-174 -38 -202 -209l-21 -116q29 16 74 16q78 0 124 -44.5t46 -119.5q0 -104 -68.5 -169.5 t-175.5 -65.5q-94 0 -149.5 50t-55.5 130q0 13 4 45l50 272q21 114 79.5 176t159.5 89l-182 73q-20 8 -29.5 17.5t-9.5 25.5q0 2 1 7.5t1 7.5l10 61q4 20 7 29.5t14 22.5t33 28q99 69 224.5 109t260.5 40q196 0 305 -93.5t109 -248.5q0 -16 -9 -81l-120 -687 q-6 -36 -23 -48.5t-61 -12.5q-88 0 -88 57q0 11 2 17zM319 96q43 0 73 32t30 81q0 31 -19 49t-51 18q-43 0 -73.5 -30.5t-30.5 -77.5q0 -33 19 -52.5t52 -19.5z" />
<glyph unicode="&#xe17;" horiz-adv-x="1419" d="M1001 68l138 778q6 30 6 57q0 62 -31 96.5t-94 34.5q-83 0 -177 -74.5t-173.5 -192.5t-142 -271t-87.5 -303l-20 -125q-6 -36 -28.5 -52t-69.5 -16q-74 0 -74 45q0 15 2 23l98 567q13 88 29 131l-2 2q-31 -23 -88 -23q-79 0 -125.5 44t-46.5 116q0 110 75.5 181t188.5 71 q92 0 142 -45t50 -123q0 -33 -4 -51l-43 -223h4q32 68 69.5 128.5t89.5 122t109 105t129 71t148 27.5q121 0 185.5 -58t64.5 -167q0 -24 -8 -82l-139 -794q-6 -36 -28.5 -52t-70.5 -16q-41 0 -59.5 11.5t-18.5 37.5q0 13 2 19zM322 856q45 0 75.5 32t30.5 81q0 34 -20 53.5 t-54 19.5q-45 0 -74.5 -32.5t-29.5 -83.5q0 -32 19 -51t53 -19z" />
<glyph unicode="&#xe18;" horiz-adv-x="1185" d="M1036 438l-20 -106q-32 -170 -161.5 -262.5t-336.5 -92.5q-191 0 -296 78t-105 217q0 34 6 72l27 152q6 35 23 48t60 13q89 0 89 -57q0 -8 -3 -17l-24 -133q-6 -30 -6 -57q0 -89 59.5 -135.5t169.5 -46.5q134 0 221.5 66.5t110.5 184.5l16 84q6 30 6 58q0 63 -41 94 t-139 49q-197 34 -475 47q-39 3 -39 37q0 21 4 33l17 94q27 153 133 233t260 80q86 0 209 -21.5t178 -21.5q45 0 78.5 6.5t36.5 6.5q34 0 34 -47q0 -21 -2 -33q-6 -39 -40 -53.5t-103 -14.5q-74 0 -193 21.5t-190 21.5q-181 0 -233 -176l-15 -47q107 -4 398 -51 q156 -25 226.5 -75t70.5 -159q0 -30 -11 -90z" />
<glyph unicode="&#xe19;" horiz-adv-x="1366" d="M1112 389v-4q52 -19 80.5 -58.5t28.5 -93.5q0 -108 -76.5 -177.5t-186.5 -69.5q-88 0 -139 44.5t-51 119.5q0 46 19.5 90.5t48.5 66.5v4q-24 4 -52 4q-99 0 -195 -67.5t-173 -194.5q-20 -32 -39 -42.5t-58 -10.5q-73 0 -73 43q0 12 2 18l100 574q5 30 29 131l-2 2 q-31 -23 -88 -23q-79 0 -125.5 44t-46.5 116q0 109 76.5 180.5t189.5 71.5q92 0 145.5 -46.5t53.5 -123.5q0 -8 -5 -43l-71 -395q-32 -172 -58 -291h5q169 184 395 184q76 0 129 -20q24 24 29 59l104 598q6 37 28.5 53.5t69.5 16.5q41 0 59.5 -11.5t18.5 -37.5q0 -15 -2 -21 l-104 -587q-14 -79 -66 -103zM324 856q45 0 75.5 32t30.5 81q0 34 -20 53.5t-54 19.5q-44 0 -75 -32.5t-31 -79.5q0 -34 19.5 -54t54.5 -20zM977 96q44 0 78.5 33t34.5 82q0 37 -21.5 58.5t-56.5 21.5q-47 0 -79 -34t-32 -87q0 -34 21 -54t55 -20z" />
<glyph unicode="&#xe1a;" horiz-adv-x="1386" d="M1020 356l129 723q6 38 28 54t70 16q41 0 58.5 -11t17.5 -36q0 -15 -2 -23l-129 -735q-31 -173 -165 -270t-345 -97q-188 0 -289.5 77t-101.5 218q0 34 6 72l51 291q10 51 29 131l-2 2q-31 -23 -88 -23q-79 0 -125.5 44t-46.5 116q0 109 76.5 180.5t189.5 71.5 q92 0 145.5 -46.5t53.5 -123.5q0 -8 -5 -43l-104 -588q-4 -18 -4 -51q0 -91 62 -141.5t178 -50.5q127 0 210 64.5t103 178.5zM324 856q45 0 75.5 32t30.5 81q0 34 -20 53.5t-54 19.5q-44 0 -75 -32.5t-31 -79.5q0 -34 19.5 -54t54.5 -20z" />
<glyph unicode="&#xe1b;" horiz-adv-x="1386" d="M1020 356l205 1155q6 38 28 54t70 16q41 0 58.5 -11t17.5 -36q0 -15 -2 -23l-205 -1167q-31 -173 -165 -270t-345 -97q-188 0 -289.5 77t-101.5 218q0 34 6 72l51 291q10 51 29 131l-2 2q-31 -23 -88 -23q-79 0 -125.5 44t-46.5 116q0 109 76.5 180.5t189.5 71.5 q92 0 145.5 -46.5t53.5 -123.5q0 -8 -5 -43l-104 -588q-4 -18 -4 -51q0 -91 62 -141.5t178 -50.5q127 0 210 64.5t103 178.5zM324 856q45 0 75.5 32t30.5 81q0 34 -20 53.5t-54 19.5q-44 0 -75 -32.5t-31 -79.5q0 -34 19.5 -54t54.5 -20z" />
<glyph unicode="&#xe1c;" horiz-adv-x="1386" d="M983 133h4q10 105 33 225l129 723q6 37 27.5 52.5t68.5 15.5q39 0 56.5 -10.5t17.5 -34.5q0 -15 -2 -23l-174 -983q-10 -56 -43.5 -77t-104.5 -21q-54 0 -81 8.5t-39.5 25.5t-26.5 56l-82 229q-33 90 -64 197h-4l-299 -428q-40 -57 -68 -72.5t-102 -15.5q-65 0 -94 16 t-29 56q0 11 3 26l149 840q17 100 89 159.5t177 59.5q90 0 142.5 -46.5t52.5 -123.5q0 -103 -74 -172.5t-172 -69.5q-51 0 -80 25l-2 -2q-8 -63 -20 -131l-49 -279q-9 -54 -48 -225h5q67 100 141 199l201 270q25 34 46.5 45.5t61.5 11.5q41 0 58.5 -11.5t29.5 -45.5z M477 856q45 0 76 32t31 81q0 34 -20 53.5t-54 19.5q-44 0 -75.5 -32.5t-31.5 -79.5q0 -34 19.5 -54t54.5 -20z" />
<glyph unicode="&#xe1d;" horiz-adv-x="1386" d="M983 133h4q10 105 33 225l205 1155q6 37 27.5 52.5t68.5 15.5q39 0 56.5 -10.5t17.5 -34.5q0 -15 -2 -23l-250 -1415q-10 -56 -43.5 -77t-104.5 -21q-54 0 -81 8.5t-39.5 25.5t-26.5 56l-82 229q-33 90 -64 197h-4l-299 -428q-40 -57 -68 -72.5t-102 -15.5q-65 0 -94 16 t-29 56q0 11 3 26l149 840q17 100 89 159.5t177 59.5q90 0 142.5 -46.5t52.5 -123.5q0 -103 -74 -172.5t-172 -69.5q-51 0 -80 25l-2 -2q-8 -63 -20 -131l-49 -279q-9 -54 -48 -225h5q67 100 141 199l201 270q25 34 46.5 45.5t61.5 11.5q41 0 58.5 -11.5t29.5 -45.5z M477 856q45 0 76 32t31 81q0 34 -20 53.5t-54 19.5q-44 0 -75.5 -32.5t-31.5 -79.5q0 -34 19.5 -54t54.5 -20z" />
<glyph unicode="&#xe1e;" horiz-adv-x="1566" d="M1167 147h4q3 18 11.5 71.5t16.5 103.5t15 88l119 671q6 37 28 52.5t69 15.5q39 0 56 -10.5t17 -34.5q0 -15 -2 -23l-170 -962q-12 -71 -46.5 -95t-119.5 -24q-76 0 -100.5 15.5t-30.5 64.5l-63 475q-22 171 -35 360h-4q-84 -192 -180 -389l-217 -450q-21 -44 -51 -60 t-103 -16q-69 0 -99 16t-30 58q0 14 2 24l90 512q17 90 33 156l-2 2q-31 -23 -88 -23q-79 0 -125.5 44t-46.5 116q0 109 76.5 180.5t189.5 71.5q91 0 141.5 -45t50.5 -123q0 -13 -4 -45l-94 -534q-32 -169 -53 -263h4q172 364 174 369l246 508q20 41 43.5 54.5t73.5 13.5 t69 -13.5t25 -54.5l71 -504q17 -129 39 -373zM324 856q45 0 75.5 32t30.5 81q0 34 -20 53.5t-54 19.5q-44 0 -75 -32.5t-31 -79.5q0 -34 19.5 -54t54.5 -20z" />
<glyph unicode="&#xe1f;" horiz-adv-x="1566" d="M1167 147h4q3 18 11.5 71.5t16.5 103.5t15 88l195 1106q6 37 27 51t69 14q40 0 58 -10.5t18 -36.5q0 -12 -2 -18l-248 -1397q-12 -71 -46.5 -95t-119.5 -24q-76 0 -100.5 15.5t-30.5 64.5l-63 475q-22 171 -35 360h-4q-84 -192 -180 -389l-217 -450q-21 -44 -51 -60 t-103 -16q-69 0 -99 16t-30 58q0 14 2 24l90 512q17 90 33 156l-2 2q-31 -23 -88 -23q-79 0 -125.5 44t-46.5 116q0 109 76.5 180.5t189.5 71.5q91 0 141.5 -45t50.5 -123q0 -13 -4 -45l-94 -534q-32 -169 -53 -263h4q172 364 174 369l246 508q20 41 43.5 54.5t73.5 13.5 t69 -13.5t25 -54.5l71 -504q17 -129 39 -373zM324 856q45 0 75.5 32t30.5 81q0 34 -20 53.5t-54 19.5q-44 0 -75 -32.5t-31 -79.5q0 -34 19.5 -54t54.5 -20z" />
<glyph unicode="&#xe20;" horiz-adv-x="1351" d="M195 96q43 0 72.5 32t29.5 81q0 31 -19 49t-51 18q-43 0 -73.5 -30.5t-30.5 -77.5q0 -33 19.5 -52.5t52.5 -19.5zM934 68l117 665q6 35 6 66q0 113 -71.5 174t-197.5 61q-97 0 -193.5 -32.5t-166.5 -83.5v-7l236 -98q16 -7 23 -14t7 -21q0 -4 -4 -28q-6 -32 -14.5 -41.5 t-32.5 -14.5q-61 -14 -98 -56t-51 -124l-56 -315q-17 -95 -88.5 -153t-169.5 -58q-87 0 -136.5 43t-49.5 116q0 93 67 163.5t164 70.5q53 0 74 -21l2 2q0 17 18 136q17 96 67 153t136 82v6l-215 80q-20 8 -29.5 17.5t-9.5 25.5q0 2 1 7.5t1 7.5l11 55q4 26 14.5 39t46.5 41 q96 73 223.5 116t268.5 43q191 0 296 -90.5t105 -242.5q0 -26 -8 -84l-119 -686q-6 -36 -28.5 -52t-71.5 -16q-41 0 -58.5 11t-17.5 36q0 13 2 21z" />
<glyph unicode="&#xe21;" horiz-adv-x="1316" d="M920 219l12 10q10 81 26 183l119 673q6 37 23 50.5t61 13.5q88 0 88 -57q0 -13 -2 -19l-178 -1018q-6 -31 -23 -43t-59 -12q-28 0 -45.5 7t-24 15.5t-16.5 26.5q-46 78 -153.5 152t-219.5 92l-16 -84q-20 -105 -88 -164t-170 -59q-96 0 -149.5 50t-53.5 138 q0 119 73.5 192.5t180.5 73.5q37 0 72 -10l10 10q4 60 12 99l29 147q13 64 18 80l-2 2q-31 -23 -92 -23q-79 0 -125.5 44t-46.5 118q0 109 76 179.5t190 70.5q92 0 145.5 -45.5t53.5 -122.5q0 -17 -4 -45l-98 -528q114 -19 217.5 -75.5t159.5 -121.5zM389 856q45 0 76 32 t31 81q0 34 -20 53.5t-54 19.5q-44 0 -75.5 -32.5t-31.5 -79.5q0 -34 19.5 -54t54.5 -20zM256 104q51 0 85 38t34 98q0 82 -74 82q-50 0 -83.5 -38.5t-33.5 -99.5q0 -37 19 -58.5t53 -21.5z" />
<glyph unicode="&#xe22;" horiz-adv-x="1273" d="M791 0h-641q-64 0 -64 53q0 15 2 21l43 250q16 92 64.5 151.5t146.5 85.5v4q-79 28 -119.5 92.5t-40.5 149.5q0 150 83 250t216 100q87 0 137 -43t50 -117q0 -103 -69 -168t-165 -65q-46 0 -74 14v-12q0 -71 50.5 -110.5t136.5 -39.5h80q24 0 34.5 -7t10.5 -27 q0 -55 -17.5 -76t-50.5 -21h-100q-87 0 -135.5 -35.5t-61.5 -111.5l-35 -201h500q91 0 109 92l151 850q6 38 28 54t70 16q41 0 58.5 -11.5t17.5 -37.5q0 -13 -2 -21l-151 -856q-40 -223 -262 -223zM432 870q44 0 74.5 30.5t30.5 78.5q0 32 -19 51t-53 19q-43 0 -73 -32 t-30 -81q0 -30 19 -48t51 -18z" />
<glyph unicode="&#xe23;" horiz-adv-x="997" d="M778 502l-53 -303q-17 -96 -84.5 -153.5t-165.5 -57.5q-87 0 -140.5 47.5t-53.5 122.5q0 100 67.5 161.5t163.5 61.5q50 0 74 -21l2 2q-2 21 6 66l16 98q4 28 4 41q0 45 -23.5 70t-80.5 35q-190 36 -352 45q-16 1 -25.5 13t-9.5 28q0 6 18 123q24 144 124.5 217t242.5 73 q74 0 190.5 -22.5t171.5 -22.5q37 0 69.5 6.5t37.5 6.5q37 0 37 -47q0 -58 -30.5 -79.5t-102.5 -21.5q-76 0 -191 22.5t-176 22.5q-160 0 -207 -159l-14 -48q29 -2 67.5 -7.5t65 -10.5t74.5 -14.5t65 -12.5q116 -21 168.5 -65.5t52.5 -136.5q0 -39 -8 -80zM481 96 q43 0 73 32t30 81q0 31 -19 49t-51 18q-43 0 -73.5 -30.5t-30.5 -77.5q0 -33 19 -52.5t52 -19.5z" />
<glyph unicode="&#xe24;" horiz-adv-x="1255" d="M745 -459l213 1198q7 44 7 68q0 110 -70.5 168.5t-194.5 58.5q-94 0 -192.5 -34.5t-167.5 -86.5v-4l197 -84q18 -8 24 -16.5t6 -28.5q0 -21 -2 -35q-5 -31 -9.5 -38t-25.5 -11q-174 -38 -202 -209l-21 -116q29 16 74 16q78 0 124 -44.5t46 -119.5q0 -104 -68.5 -169.5 t-175.5 -65.5q-94 0 -149.5 50t-55.5 130q0 13 4 45l50 272q21 114 79.5 176t159.5 89l-182 73q-20 8 -29.5 17.5t-9.5 25.5q0 2 1 7.5t1 7.5l10 61q4 20 7 29.5t14 22.5t33 28q99 69 224.5 109t260.5 40q196 0 305 -93.5t109 -248.5q0 -16 -9 -81l-215 -1219 q-6 -36 -23 -48.5t-61 -12.5q-88 0 -88 57q0 10 2 16zM319 96q43 0 73 32t30 81q0 31 -19 49t-51 18q-43 0 -73.5 -30.5t-30.5 -77.5q0 -33 19 -52.5t52 -19.5z" />
<glyph unicode="&#xe25;" horiz-adv-x="1187" d="M772 68l82 477q-118 51 -262 51q-137 0 -228.5 -60t-125.5 -171l2 -3q47 37 108 37q80 0 125 -42t45 -115q0 -114 -74.5 -185t-189.5 -71q-101 0 -153 60t-52 171q0 151 73 267.5t198 178.5t280 62q140 0 277 -53l14 82q6 34 6 65q0 99 -66 158t-196 59q-150 0 -330 -71 q-44 -19 -59 -19q-29 0 -29 35q0 48 16 72t48 39q68 32 176 55.5t223 23.5q191 0 293 -87t102 -240q0 -45 -8 -86l-123 -690q-6 -36 -28 -52t-70 -16q-41 0 -58.5 10.5t-17.5 34.5q0 15 2 23zM274 98q46 0 78.5 33.5t32.5 83.5q0 34 -21 54t-57 20q-45 0 -77.5 -33 t-32.5 -82q0 -36 20.5 -56t56.5 -20z" />
<glyph unicode="&#xe26;" horiz-adv-x="1351" d="M195 96q43 0 72.5 32t29.5 81q0 31 -19 49t-51 18q-43 0 -73.5 -30.5t-30.5 -77.5q0 -33 19.5 -52.5t52.5 -19.5zM840 -465l211 1198q6 35 6 66q0 113 -71.5 174t-197.5 61q-97 0 -193.5 -32.5t-166.5 -83.5v-7l236 -98q16 -7 23 -14t7 -21q0 -4 -4 -28 q-6 -32 -14.5 -41.5t-32.5 -14.5q-61 -14 -98 -56t-51 -124l-56 -315q-17 -95 -88.5 -153t-169.5 -58q-87 0 -136.5 43t-49.5 116q0 93 67 163.5t164 70.5q53 0 74 -21l2 2q0 17 18 136q17 96 67 153t136 82v6l-215 80q-20 8 -29.5 17.5t-9.5 25.5q0 2 1 7.5t1 7.5l11 55 q4 26 14.5 39t46.5 41q96 73 223.5 116t268.5 43q191 0 296 -90.5t105 -242.5q0 -26 -8 -84l-213 -1219q-6 -36 -29 -51.5t-72 -15.5q-41 0 -58 11t-17 36q0 12 2 20z" />
<glyph unicode="&#xe27;" horiz-adv-x="974" d="M621 360l2 2q0 46 14 123l49 285q8 54 8 76q0 188 -213 188q-25 0 -49 -1.5t-48 -6t-40.5 -7.5t-40 -10t-33.5 -10t-34 -11.5t-29 -10.5q-12 -4 -25 -9.5t-21 -8.5t-11 -3q-19 0 -26 8t-7 31q0 21 2 33q7 64 57 84q142 59 332 59q174 0 268 -78.5t94 -226.5q0 -48 -8 -92 l-102 -575q-17 -96 -84.5 -153.5t-165.5 -57.5q-87 0 -141 47.5t-54 122.5q0 92 67.5 157.5t164.5 65.5q49 0 74 -21zM516 96q43 0 72.5 32t29.5 81q0 31 -18.5 49t-50.5 18q-43 0 -74 -31t-31 -77q0 -33 19.5 -52.5t52.5 -19.5z" />
<glyph unicode="&#xe28;" horiz-adv-x="1378" d="M946 68l109 622q8 41 8 86q0 123 -74.5 191.5t-210.5 68.5q-162 0 -269 -91.5t-136 -254.5q-18 -105 -41 -205l6 -2q64 117 166 193t219 76q84 0 133 -43t49 -117q0 -104 -71.5 -172t-171.5 -68q-78 0 -125.5 43t-47.5 113q-153 -101 -206 -387l-11 -53q-8 -37 -29 -52.5 t-69 -15.5q-41 0 -58.5 10.5t-17.5 34.5q0 15 2 23l107 614q40 230 198.5 359.5t397.5 129.5q161 0 270 -61q65 17 138.5 48t119.5 52t62 21q43 0 43 -47q0 -20 -3 -35.5t-7 -28.5t-15.5 -24t-20 -19t-28.5 -16t-33.5 -13.5t-43 -13t-49 -11.5t-58.5 -13q59 -86 59 -215 q0 -48 -10 -113l-109 -614q-6 -36 -28.5 -52t-69.5 -16q-41 0 -58.5 11t-17.5 36q0 13 2 21zM676 461q43 0 73.5 30t30.5 78q0 34 -18.5 53t-52.5 19q-45 0 -76 -30.5t-31 -80.5q0 -32 20 -50.5t54 -18.5z" />
<glyph unicode="&#xe29;" horiz-adv-x="1452" d="M1233 487l-8 -2l-25 -141q-31 -173 -167 -270t-347 -97q-188 0 -291.5 77.5t-103.5 217.5q0 34 6 72l51 291q5 30 29 131l-2 2q-31 -23 -88 -23q-79 0 -125.5 44t-46.5 116q0 109 76.5 180.5t189.5 71.5q92 0 145.5 -46.5t53.5 -123.5q0 -8 -5 -43l-104 -588 q-4 -18 -4 -51q0 -91 63.5 -141.5t180.5 -50.5q129 0 213.5 64.5t103.5 178.5l14 86q-29 -4 -86 -4q-151 0 -236 57t-85 152q0 88 57 143.5t144 55.5q75 0 120 -37t45 -100q0 -97 -79 -148q19 -8 67 -8q36 0 76 10l92 516q6 38 28 54t70 16q41 0 58.5 -11.5t17.5 -37.5 q0 -13 -2 -21l-80 -450q18 12 43.5 50t50.5 66.5t50 28.5q33 0 53 -16t20 -45q0 -58 -70.5 -124.5t-162.5 -101.5zM324 856q45 0 75.5 32t30.5 81q0 34 -20 53.5t-54 19.5q-44 0 -75 -32.5t-31 -79.5q0 -34 19.5 -54t54.5 -20zM805 596q37 0 63.5 27.5t26.5 68.5 q0 30 -15.5 48t-45.5 18q-39 0 -65 -28.5t-26 -72.5q0 -28 16.5 -44.5t45.5 -16.5z" />
<glyph unicode="&#xe2a;" horiz-adv-x="1212" d="M772 68l82 477q-118 51 -262 51q-137 0 -228.5 -60t-125.5 -171l2 -3q47 37 108 37q80 0 125 -42t45 -115q0 -114 -74.5 -185t-189.5 -71q-101 0 -153 60t-52 171q0 151 73 267.5t198 178.5t280 62q140 0 277 -53l14 82q6 34 6 65q0 99 -66 158t-196 59q-150 0 -330 -71 q-44 -19 -59 -19q-29 0 -29 35q0 48 16 72t48 39q68 32 176 55.5t223 23.5q155 0 252 -57q63 18 132.5 48t112.5 49.5t60 19.5q41 0 41 -47q0 -35 -9.5 -59t-24 -39.5t-49.5 -29t-67.5 -21.5t-95.5 -21q43 -73 43 -170q0 -45 -8 -86l-123 -690q-6 -36 -28 -52t-70 -16 q-41 0 -58.5 10.5t-17.5 34.5q0 15 2 23zM274 98q46 0 78.5 33.5t32.5 83.5q0 34 -21 54t-57 20q-45 0 -77.5 -33t-32.5 -82q0 -36 20.5 -56t56.5 -20z" />
<glyph unicode="&#xe2b;" horiz-adv-x="1382" d="M952 74l88 489q7 44 7 66q0 68 -50 92q-127 -8 -247.5 -89t-206 -212.5t-113.5 -282.5l-14 -76q-6 -36 -23 -48.5t-59 -12.5q-88 0 -88 57q0 11 2 17l102 573q6 34 27 119l-2 2q-31 -23 -88 -23q-79 0 -125.5 44t-46.5 116q0 109 76.5 180.5t189.5 71.5q91 0 141.5 -45 t50.5 -123q0 -13 -4 -45l-30 -178q-15 -90 -50 -246l7 12q70 114 176.5 193t226.5 102q-25 42 -25 97q0 105 70.5 171t177.5 66q92 0 145.5 -48t53.5 -128q0 -78 -39.5 -136t-107.5 -85q45 -48 45 -127q0 -13 -9 -74l-88 -502q-6 -36 -23 -48.5t-61 -12.5q-88 0 -88 57 q0 11 2 17zM324 856q45 0 75.5 32t30.5 81q0 34 -20 53.5t-54 19.5q-44 0 -75 -32.5t-31 -79.5q0 -34 19.5 -54t54.5 -20zM1081 856q45 0 76 32t31 81q0 34 -20 53.5t-54 19.5q-44 0 -75 -32.5t-31 -79.5q0 -34 19 -54t54 -20z" />
<glyph unicode="&#xe2c;" horiz-adv-x="1599" d="M1167 147h4q14 108 43 263l136 766q-99 11 -157 58.5t-58 121.5q0 101 64.5 163t162.5 62q78 0 123 -37t45 -102q0 -41 -20.5 -81t-53.5 -61q12 -4 25 -4q102 0 176 203q14 38 31.5 51t56.5 13q33 0 47 -11.5t14 -38.5q0 -98 -89.5 -195.5t-194.5 -131.5l-191 -1067 q-13 -71 -47.5 -95t-118.5 -24q-76 0 -99 15t-32 65l-71 393q-24 134 -45 346h-5q-102 -226 -182 -375l-196 -368q-25 -45 -53.5 -60.5t-100.5 -15.5q-69 0 -99 16t-30 58q0 14 2 24l90 512q8 53 33 156l-2 2q-31 -23 -88 -23q-79 0 -125.5 44t-46.5 116q0 109 76.5 180.5 t189.5 71.5q91 0 141.5 -45t50.5 -123q0 -13 -4 -45l-94 -534q-32 -169 -53 -263h4q18 35 75.5 149.5t86.5 170.5l239 455q21 41 45 54t72 13q49 0 68.5 -13.5t23.5 -53.5l82 -451q35 -202 49 -324zM1317 1315q36 0 63 27t27 67q0 31 -16 49.5t-45 18.5q-38 0 -64.5 -29.5 t-26.5 -73.5q0 -27 16.5 -43t45.5 -16zM324 856q45 0 75.5 32t30.5 81q0 34 -20 53.5t-54 19.5q-44 0 -75 -32.5t-31 -79.5q0 -34 19.5 -54t54.5 -20z" />
<glyph unicode="&#xe2d;" horiz-adv-x="1236" d="M766 0h-627q-61 0 -61 51q0 15 2 23l82 465q17 96 90.5 154.5t177.5 58.5q92 0 143.5 -45.5t51.5 -124.5q0 -103 -73.5 -172.5t-172.5 -69.5q-58 0 -80 22l-2 -2q-12 -100 -18 -131l-17 -92h486q46 0 71.5 22.5t34.5 69.5l90 500q6 34 6 66q0 114 -75.5 177.5 t-221.5 63.5q-169 0 -356 -75q-39 -13 -49 -13q-29 0 -29 37q0 47 14 70t46 37q75 32 186 55.5t231 23.5q204 0 317 -90t113 -254q0 -40 -10 -98l-88 -506q-40 -223 -262 -223zM385 451q45 0 74.5 31.5t29.5 80.5q0 34 -19.5 54t-53.5 20q-42 0 -74.5 -33.5t-32.5 -79.5 q0 -34 20.5 -53.5t55.5 -19.5z" />
<glyph unicode="&#xe2e;" horiz-adv-x="1267" d="M766 0h-627q-63 0 -63 53q0 13 2 21l82 465q17 95 91.5 154t178.5 59q89 0 141 -45.5t52 -120.5q0 -106 -71.5 -176t-174.5 -70q-60 0 -78 22l-2 -2q-2 -13 -8.5 -57t-12.5 -74l-16 -92h488q46 0 71.5 22.5t34.5 69.5l90 500q6 34 6 66q0 114 -75.5 177.5t-221.5 63.5 q-173 0 -356 -75q-39 -13 -49 -13q-29 0 -29 37q0 47 14 70t46 37q75 32 186 55.5t231 23.5q168 0 277 -61q67 17 140.5 48t119.5 52t61 21q43 0 43 -47q0 -80 -54.5 -113t-205.5 -61q49 -73 49 -183q0 -40 -10 -98l-88 -506q-40 -223 -262 -223zM383 451q45 0 74.5 32 t29.5 82q0 33 -19 52.5t-52 19.5q-45 0 -76 -33t-31 -82q0 -33 20 -52t54 -19z" />
<glyph unicode="&#xe2f;" horiz-adv-x="1128" d="M707 68l88 501q-49 -61 -133 -96t-179 -35q-162 0 -256 74t-94 213q0 26 8 84l23 135q15 95 88 154t176 59q89 0 141 -45.5t52 -120.5q0 -103 -73 -172t-169 -69q-49 0 -74 22q-4 -20 -4 -24q0 -80 54.5 -126.5t160.5 -46.5q124 0 215.5 74t114.5 195l43 235 q6 37 27.5 53.5t68.5 16.5q40 0 58 -11.5t18 -37.5q0 -13 -2 -21l-178 -1011q-6 -36 -29 -52t-72 -16q-41 0 -58 11t-17 36q0 13 2 21zM381 862q44 0 74 30.5t30 78.5q0 34 -18.5 52.5t-52.5 18.5q-44 0 -73.5 -31t-29.5 -81q0 -31 19 -49.5t51 -18.5z" />
<glyph unicode="&#xe30;" horiz-adv-x="921" d="M469 791q15 -3 29 -3q82 0 153 52t119 157q18 39 35.5 51.5t56.5 12.5q68 0 68 -47q0 -22 -19 -66q-70 -142 -187 -212t-267 -70q-149 0 -233.5 53t-84.5 143q0 94 67.5 155.5t164.5 61.5q79 0 123.5 -37.5t44.5 -103.5q0 -45 -19 -84.5t-51 -62.5zM326 819q38 0 65 27 t27 69q0 29 -17.5 45.5t-46.5 16.5q-39 0 -65.5 -27t-26.5 -69q0 -29 17.5 -45.5t46.5 -16.5zM356 162q10 -2 29 -2q82 0 153 52t119 157q17 38 35 50.5t58 12.5q67 0 67 -47q0 -25 -18 -66q-70 -142 -187.5 -212t-267.5 -70q-149 0 -233 53t-84 143q0 94 67 156t164 62 q79 0 123.5 -38t44.5 -104q0 -45 -19 -84.5t-51 -62.5zM213 190q38 0 65 27.5t27 69.5q0 29 -17 45t-46 16q-39 0 -65.5 -27t-26.5 -69q0 -29 17 -45.5t46 -16.5z" />
<glyph unicode="&#xe31;" d="M-231 1438q10 -2 28 -2q94 0 174 48t127 152q17 37 37.5 50.5t59.5 13.5q65 0 65 -49q0 -11 -2 -17q-24 -83 -77.5 -147t-123 -100.5t-145 -55t-152.5 -18.5q-152 0 -236.5 53t-84.5 143q0 95 66 156t165 61q79 0 124.5 -37t45.5 -102q0 -46 -19 -86t-52 -63zM-375 1464 q40 0 67 28t27 71q0 29 -17 46t-48 17q-39 0 -65.5 -29t-26.5 -71q0 -28 17 -45t46 -17z" />
<glyph unicode="&#xe32;" horiz-adv-x="940" d="M522 68l125 714q6 38 6 72q0 86 -47.5 133t-142.5 47q-115 0 -258 -57q-40 -16 -55 -16q-27 0 -27 36q0 19 2 29q6 32 19 49t40 29q142 67 328 67q152 0 235.5 -74.5t83.5 -211.5q0 -46 -8 -90l-127 -727q-6 -36 -28.5 -52t-71.5 -16q-41 0 -58.5 11t-17.5 36q0 13 2 21z " />
<glyph unicode="&#xe33;" horiz-adv-x="940" d="M141 1561q0 -116 -79 -190.5t-199 -74.5q-94 0 -148.5 48.5t-54.5 128.5q0 115 80 188.5t201 73.5q93 0 146.5 -47t53.5 -127zM-119 1405q55 0 91 37.5t36 99.5q0 38 -23.5 60t-64.5 22q-54 0 -89.5 -36.5t-35.5 -98.5q0 -38 23 -61t63 -23zM522 68l125 714q6 38 6 72 q0 86 -47.5 133t-142.5 47q-115 0 -258 -57q-40 -16 -55 -16q-27 0 -27 36q0 19 2 29q6 32 19 49t40 29q142 67 328 67q152 0 235.5 -74.5t83.5 -211.5q0 -46 -8 -90l-127 -727q-6 -36 -28.5 -52t-71.5 -16q-41 0 -58.5 11t-17.5 36q0 13 2 21z" />
<glyph unicode="&#xe34;" d="M-78 1317h-874q-43 0 -43 35q0 10 2 16l8 53q70 145 219.5 230.5t325.5 85.5q175 0 295 -86t135 -230l-8 -53q-9 -51 -60 -51zM-827 1432h663q-14 83 -95 133.5t-202 50.5q-122 0 -222.5 -50.5t-143.5 -133.5z" />
<glyph unicode="&#xe35;" d="M-78 1317h-874q-43 0 -43 35q0 10 2 16l8 53q70 145 217.5 230.5t323.5 85.5q98 0 180.5 -34t124.5 -93l20 108q6 31 26 43.5t64 12.5q38 0 56 -9t18 -32q0 -2 -1 -7t-1 -8l-61 -350q-9 -51 -60 -51zM-827 1432h663q-14 83 -95 133.5t-202 50.5q-122 0 -222.5 -50.5 t-143.5 -133.5z" />
<glyph unicode="&#xe36;" d="M-78 1317h-874q-43 0 -43 35q0 10 2 16l8 53q70 145 217.5 230.5t318.5 85.5q118 0 191 -39q24 48 69.5 75t104.5 27q64 0 103.5 -35t39.5 -92q0 -55 -25.5 -97t-66.5 -63q22 -43 25 -88l-10 -57q-9 -51 -60 -51zM-125 1571q35 0 59.5 24.5t24.5 63.5q0 25 -16.5 40 t-42.5 15q-37 0 -60.5 -25t-23.5 -63q0 -26 15.5 -40.5t43.5 -14.5zM-825 1432h657q-14 82 -94.5 133t-198.5 51q-122 0 -222.5 -50.5t-141.5 -133.5z" />
<glyph unicode="&#xe37;" d="M-78 1317h-874q-43 0 -43 35q0 10 2 16l8 53q70 144 215.5 229t314.5 85q75 0 148 -27l8 43q4 26 21 35.5t53 9.5q32 0 45.5 -8t13.5 -31l-18 -102q44 -27 71 -80l31 176q4 25 21.5 35t52.5 10q59 0 59 -37l-69 -391q-9 -51 -60 -51zM-827 1432h663q-18 81 -99.5 132.5 t-203.5 51.5q-118 0 -218 -50.5t-142 -133.5z" />
<glyph unicode="&#xe38;" d="M-522 -571l12 69q4 24 18 62l-2 2q-22 -11 -53 -11q-60 0 -95.5 32.5t-35.5 86.5q0 85 60 140t149 55q75 0 118.5 -35t43.5 -98q0 -11 -4 -35l-47 -268q-6 -34 -26.5 -47t-66.5 -13q-40 0 -56.5 9t-16.5 32q0 13 2 19zM-510 -362q35 0 57.5 24.5t22.5 61.5q0 23 -15 37 t-40 14q-33 0 -56.5 -24t-23.5 -60q0 -25 15 -39t40 -14z" />
<glyph unicode="&#xe39;" d="M-494 -463l48 260q6 34 25 47t61 13q36 0 52.5 -9.5t16.5 -33.5q0 -11 -2 -17l-51 -284q-28 -158 -268 -158q-213 0 -213 121q0 13 4 37q7 33 12 47l-2 2q-18 -11 -51 -11q-60 0 -95.5 32.5t-35.5 86.5q0 85 59 140t148 55q72 0 111.5 -34.5t39.5 -96.5q0 -11 -4 -39 l-29 -158q0 -3 -1 -8.5t-1 -7.5q0 -53 78 -53q87 0 98 69zM-829 -362q35 0 57 24.5t22 61.5q0 23 -15 37t-40 14q-33 0 -56.5 -24t-23.5 -60q0 -24 15.5 -38.5t40.5 -14.5z" />
<glyph unicode="&#xe3a;" d="M-424 -422q-55 0 -88 31t-33 84q0 72 51.5 122t120.5 50q55 0 87 -31t32 -82q0 -76 -49 -125t-121 -49z" />
<glyph unicode="&#xe3f;" horiz-adv-x="1224" d="M451 -164l28 164h-299q-59 0 -59 47q0 15 2 23l223 1267q6 38 26 55t58 17h299l27 156q5 37 55 37q27 0 35 -8t8 -29l-29 -160q158 -18 243 -90.5t85 -198.5q0 -128 -69.5 -230t-194.5 -159l-2 -4q190 -74 190 -252q0 -200 -135.5 -324t-361.5 -143l-29 -158 q-8 -36 -55 -36q-45 0 -45 26zM621 799l81 463h-188l-80 -463h187zM799 1249l-78 -438q117 25 180.5 93t63.5 173q0 69 -43 113t-123 59zM506 147l90 508q-16 2 -188 2l-89 -510h187zM692 647l-86 -491q81 13 139 44t88.5 73.5t44 87.5t13.5 96q0 152 -199 190z" />
<glyph unicode="&#xe40;" horiz-adv-x="679" d="M334 367l2 -2q36 22 86 22q75 0 119.5 -42t44.5 -114q0 -105 -74 -174t-184 -69q-92 0 -144.5 47t-52.5 129q0 15 4 47l154 868q6 38 28 54t70 16q41 0 59.5 -11.5t18.5 -37.5q0 -15 -2 -21l-101 -567q-6 -39 -28 -145zM350 100q44 0 73.5 30.5t29.5 80.5q0 32 -19 51 t-53 19q-44 0 -74.5 -32t-30.5 -79q0 -32 20 -51t54 -19z" />
<glyph unicode="&#xe41;" horiz-adv-x="1323" d="M334 367l2 -2q36 22 86 22q75 0 119.5 -42t44.5 -114q0 -105 -74 -174t-184 -69q-92 0 -144.5 47t-52.5 129q0 15 4 47l154 868q6 38 28 54t70 16q41 0 59.5 -11.5t18.5 -37.5q0 -15 -2 -21l-101 -567q-6 -39 -28 -145zM977 367l2 -2q36 22 86 22q75 0 119.5 -42 t44.5 -114q0 -105 -74 -174t-184 -69q-92 0 -144.5 47t-52.5 129q0 15 4 47l154 868q6 38 28 54t70 16q41 0 59.5 -11.5t18.5 -37.5q0 -15 -2 -21l-100 -567q-2 -15 -29 -145zM350 100q44 0 73.5 30.5t29.5 80.5q0 32 -19 51t-53 19q-44 0 -74.5 -32t-30.5 -79q0 -32 20 -51 t54 -19zM993 100q44 0 73.5 30.5t29.5 80.5q0 32 -19 51t-53 19q-44 0 -74 -32t-30 -79q0 -32 19.5 -51t53.5 -19z" />
<glyph unicode="&#xe42;" horiz-adv-x="890" d="M520 367l4 -2q36 22 86 22q76 0 120 -43t44 -115q0 -11 -4 -39q-17 -91 -87 -146.5t-169 -55.5q-91 0 -143 47t-52 129q0 7 5 47l186 1059q4 18 4 51q0 44 -21.5 68t-72.5 36q-108 24 -234 41q-11 2 -16.5 4.5t-10.5 9.5t-5 19l22 117q28 145 134 222t253 77 q69 0 191.5 -23.5t181.5 -23.5q34 0 67 7t41 7q27 0 27 -37q0 -62 -35 -87t-112 -25q-70 0 -190.5 23.5t-186.5 23.5q-174 0 -201 -156l-10 -51q94 -13 184 -37q94 -23 133 -60t39 -116q0 -34 -10 -96l-133 -752q-3 -17 -29 -145zM537 100q45 0 74.5 30.5t29.5 80.5 q0 32 -19 51t-53 19q-44 0 -74 -32t-30 -79q0 -32 19 -51t53 -19z" />
<glyph unicode="&#xe43;" horiz-adv-x="839" d="M481 367l4 -2q31 22 86 22q75 0 118.5 -41.5t43.5 -112.5q0 -107 -73.5 -176t-184.5 -69q-91 0 -142.5 47t-51.5 129q0 15 4 47l108 620q21 115 63.5 189t161.5 219q93 112 128.5 192t35.5 164q0 83 -49.5 134t-142.5 51q-73 0 -131 -31.5t-90 -83.5l4 -6q43 24 94 24 q72 0 115 -41t43 -110q0 -103 -73.5 -171.5t-174.5 -68.5q-95 0 -149 55.5t-54 149.5q0 179 130.5 298.5t324.5 119.5q155 0 239 -83t84 -210q0 -109 -44 -201.5t-130 -203.5q-117 -150 -155 -216.5t-56 -166.5l-57 -322q-2 -14 -29 -145zM393 1403q44 0 74.5 29.5 t30.5 74.5q0 32 -20 51t-54 19q-43 0 -72.5 -29.5t-29.5 -74.5q0 -33 19 -51.5t52 -18.5zM498 100q45 0 74.5 30.5t29.5 80.5q0 32 -20 51t-54 19q-43 0 -72.5 -32t-29.5 -79q0 -32 19 -51t53 -19z" />
<glyph unicode="&#xe44;" horiz-adv-x="825" d="M459 367l2 -2q36 22 86 22q75 0 119.5 -42t44.5 -114q0 -105 -74 -174t-184 -69q-92 0 -144.5 47t-52.5 129q0 15 4 47l170 956q30 174 112.5 305t241.5 244q-107 -39 -258 -39q-120 0 -239 38.5t-119 90.5q0 53 19.5 79t43.5 26q20 0 80 -29q124 -67 264 -67 q141 0 281 61q40 18 57 18q25 0 37 -30l27 -72q6 -24 6 -27q0 -19 -8 -31.5t-29 -27.5q-163 -122 -238.5 -243.5t-105.5 -295.5l-115 -655q-6 -39 -28 -145zM475 100q44 0 73.5 30.5t29.5 80.5q0 32 -19 51t-53 19q-44 0 -74.5 -32t-30.5 -79q0 -32 20 -51t54 -19z" />
<glyph unicode="&#xe45;" horiz-adv-x="940" d="M428 -465l219 1247q6 38 6 72q0 86 -47.5 133t-142.5 47q-115 0 -258 -57q-40 -16 -55 -16q-27 0 -27 36q0 19 2 29q6 32 19 49t40 29q142 67 328 67q152 0 235.5 -74.5t83.5 -211.5q0 -46 -8 -90l-221 -1260q-6 -36 -28.5 -51.5t-71.5 -15.5q-41 0 -58.5 11t-17.5 36 q0 12 2 20z" />
<glyph unicode="&#xe46;" horiz-adv-x="1206" d="M655 -465l230 1313q4 28 4 41q0 94 -92 125l-133 -111q-18 -16 -58 -16q-35 0 -49 16l-100 111q-53 -13 -94 -54t-52 -102l-14 -84q38 21 82 21q74 0 119 -43t45 -115q0 -108 -74.5 -178t-185.5 -70q-87 0 -139 45.5t-52 126.5q0 17 4 49l41 232q23 132 106.5 208 t205.5 105h24q28 0 41 -16l111 -133h4l155 133q19 16 50 16h24q207 -48 207 -235q0 -41 -8 -80l-230 -1305q-6 -36 -28 -51.5t-70 -15.5q-41 0 -58.5 10.5t-17.5 34.5q0 14 2 22zM305 498q46 0 77.5 32.5t31.5 81.5q0 34 -20.5 53t-55.5 19q-45 0 -75 -32.5t-30 -82.5 q0 -33 19.5 -52t52.5 -19z" />
<glyph unicode="&#xe47;" d="M-319 1409l2 4q-13 16 -13 45q0 66 51 111t123 45q59 0 93 -32t34 -87q0 -92 -69.5 -147.5t-175.5 -55.5q-207 0 -236 152h-4l-59 -113q-12 -26 -35 -26q-88 0 -145.5 53.5t-57.5 144.5q0 139 97 228.5t243 89.5h451q19 0 26.5 -8t7.5 -27q0 -47 -13.5 -66.5t-41.5 -19.5 h-446q-80 0 -130.5 -50t-50.5 -132q0 -71 58 -97l55 103q10 19 23.5 24.5t46.5 5.5q40 0 47 -18q3 -9 9 -32t11.5 -36t15 -29.5t26.5 -24t40 -7.5q9 0 17 2zM-190 1407q28 0 48.5 23t20.5 55q0 22 -13.5 34.5t-35.5 12.5q-27 0 -48.5 -21.5t-21.5 -54.5q0 -22 13.5 -35.5 t36.5 -13.5z" />
<glyph unicode="&#xe48;" d="M-80 1935l43 252q6 33 27 46.5t65 13.5q37 0 54.5 -9.5t17.5 -33.5q0 -11 -2 -17l-43 -252q-7 -33 -28.5 -46t-63.5 -13q-37 0 -54.5 9.5t-17.5 33.5q0 10 2 16z" />
<glyph unicode="&#xe49;" d="M-180 2001v4q-62 3 -98.5 34.5t-36.5 82.5q0 73 57 125.5t135 52.5q64 0 100.5 -32.5t36.5 -88.5q0 -53 -36 -112t-91 -97q244 48 308 277q6 26 23.5 35.5t53.5 9.5q64 0 64 -39q0 -9 -2 -15q-50 -183 -192.5 -277.5t-372.5 -94.5q-57 0 -75 4.5t-18 21.5q0 11 2 17 q3 16 8.5 23t18.5 12q62 19 115 57zM-162 2085q32 0 55 22t23 56q0 23 -15 37t-40 14q-33 0 -55.5 -22.5t-22.5 -55.5q0 -51 55 -51z" />
<glyph unicode="&#xe4a;" d="M-16 1874h-29q-14 0 -24 7t-7 22l33 186q2 8 2 25q0 44 -43 59l-70 -55q-9 -9 -26 -9q-18 0 -27 9l-59 55q-23 -5 -43.5 -24t-24.5 -42q52 -1 80.5 -27t28.5 -69q0 -69 -45 -111t-113 -42q-59 0 -90 32.5t-31 91.5q0 111 69.5 195t158.5 100h18q21 0 29 -12l61 -63l86 63 q18 12 35 12h20q111 -32 111 -135q0 -15 -4 -47l-21 -113q60 15 99.5 78t64.5 178q8 48 76 48q57 0 57 -37v-13q-35 -173 -128.5 -267.5t-243.5 -94.5zM-371 1931q24 0 42 17t18 45q0 41 -41 41q-26 0 -43 -18t-17 -46q0 -39 41 -39z" />
<glyph unicode="&#xe4b;" d="M223 2044l-131 4l-18 -119q-4 -29 -23.5 -41t-58.5 -12q-35 0 -50.5 9t-15.5 30q0 8 2 14l23 119l-133 -4q-24 -1 -33.5 7t-9.5 30q0 54 16 75t49 19l133 -6l19 119q4 29 23 40t59 11q34 0 48.5 -8.5t14.5 -30.5v-12l-24 -119l133 6q47 3 47 -37q0 -53 -18.5 -74.5 t-51.5 -19.5z" />
<glyph unicode="&#xe4c;" d="M190 2224l-188 -100v-4q30 -12 47 -38.5t17 -60.5q0 -85 -60 -139.5t-149 -54.5q-70 0 -111 35.5t-41 97.5q0 123 137 199l303 163q18 9 25 9q20 0 32.5 -21t12.5 -47q0 -27 -25 -39zM-45 2003q0 55 -57 55q-34 0 -58 -23t-24 -59q0 -53 57 -53q34 0 58 22.5t24 57.5z " />
<glyph unicode="&#xe4d;" d="M141 1561q0 -116 -79 -190.5t-199 -74.5q-94 0 -148.5 48.5t-54.5 128.5q0 115 80 188.5t201 73.5q93 0 146.5 -47t53.5 -127zM-119 1405q55 0 91 37.5t36 99.5q0 38 -23.5 60t-64.5 22q-54 0 -89.5 -36.5t-35.5 -98.5q0 -38 23 -61t63 -23z" />
<glyph unicode="&#xe4e;" d="M-135 1421h4q16 0 16 -24q0 -56 -28.5 -76.5t-110.5 -20.5q-85 0 -142 38.5t-57 113.5q0 91 66 151t162 60q25 0 49 -6l2 4q-29 26 -29 68q0 57 45.5 95t114.5 38h160q20 0 28.5 -7t8.5 -26q0 -53 -15 -73.5t-45 -20.5h-112q-27 0 -45.5 -15.5t-18.5 -42.5 q0 -22 26.5 -38.5t26.5 -24.5q0 -1 -8 -21l-12 -26q-10 -23 -37 -23q-13 0 -48.5 7.5t-62.5 7.5q-44 0 -74 -21t-30 -63q0 -62 86 -62q21 0 48 4t32 4z" />
<glyph unicode="&#xe4f;" horiz-adv-x="1454" d="M1315 645q0 -138 -52.5 -258t-143 -203t-213.5 -130.5t-261 -47.5q-225 0 -355 115t-130 311q0 138 53.5 257.5t144 202t214 130t259.5 47.5q223 0 353.5 -115t130.5 -309zM1161 618q0 149 -94 236.5t-258 87.5q-101 0 -192.5 -36t-159 -99.5t-107 -155.5t-39.5 -198 q0 -147 95.5 -233.5t259.5 -86.5q136 0 248.5 60.5t179.5 172.5t67 252zM698 315q-81 0 -127.5 46.5t-46.5 123.5q0 118 73 195.5t179 77.5q82 0 128 -46.5t46 -125.5q0 -116 -74.5 -193.5t-177.5 -77.5z" />
<glyph unicode="&#xe50;" horiz-adv-x="1368" d="M1266 639q0 -192 -90.5 -344.5t-243 -235t-336.5 -82.5q-221 0 -348 117t-127 316q0 144 53 268.5t143.5 210.5t213.5 135t260 49q220 0 347.5 -117.5t127.5 -316.5zM621 113q94 0 179 37.5t148 102.5t100 160t37 205q0 147 -85.5 233.5t-233.5 86.5q-94 0 -179.5 -37.5 t-149 -103.5t-101 -161t-37.5 -204q0 -148 86 -233.5t236 -85.5z" />
<glyph unicode="&#xe51;" horiz-adv-x="1409" d="M424 342l8 4q-8 16 -8 47q0 101 75 166.5t181 65.5q89 0 139.5 -45.5t50.5 -122.5q0 -123 -90 -198t-239 -75q-85 0 -156.5 18t-130 55.5t-92 102t-33.5 150.5q0 115 47 218t131 179.5t208.5 121t270.5 44.5q247 0 382 -123.5t135 -333.5q0 -146 -43.5 -271.5 t-120.5 -216t-181.5 -155t-227.5 -96t-257 -31.5q-61 0 -61 48q0 50 20.5 71t61.5 21q128 0 240 39t199.5 113t138 193.5t50.5 270.5q0 158 -93 247t-269 89q-203 0 -330 -114t-127 -285q0 -142 121 -197zM625 315q47 0 80.5 33.5t33.5 83.5q0 35 -21.5 56.5t-58.5 21.5 q-46 0 -80 -34t-34 -85q0 -35 21.5 -55.5t58.5 -20.5z" />
<glyph unicode="&#xe52;" horiz-adv-x="1558" d="M1044 0h-882q-70 0 -70 57q0 17 2 25l195 1102q6 35 28.5 50t69.5 15q74 0 74 -47q0 -3 -1 -9t-1 -9l-185 -1047h762q72 0 111 32.5t51 104.5l86 492q4 18 4 49q0 89 -84 119l-127 -90q-21 -15 -53 -15q-30 0 -47 15l-98 90q-118 -31 -140 -158l-10 -57q44 22 82 22 q75 0 119.5 -43t44.5 -114q0 -109 -74.5 -179.5t-185.5 -70.5q-88 0 -137.5 45t-49.5 123q0 15 4 43l39 215q25 135 100 209t193 104h25q27 0 41 -14l112 -115h5l149 113q22 16 47 16h25q95 -24 144.5 -79t49.5 -152q0 -24 -8 -82l-86 -486q-26 -145 -102.5 -209.5 t-221.5 -64.5zM737 444q46 0 77.5 32t31.5 81q0 34 -20 54t-54 20q-43 0 -75.5 -33t-32.5 -80q0 -34 19 -54t54 -20z" />
<glyph unicode="&#xe53;" horiz-adv-x="1400" d="M1004 66l118 677q6 35 6 64q0 129 -114 129q-65 0 -111 -43.5t-61 -126.5l-39 -219q-6 -37 -27 -51.5t-67 -14.5q-40 0 -57 10t-17 35q0 13 2 21l41 223q4 28 4 41q0 59 -32.5 92t-88.5 33q-74 0 -123.5 -49.5t-64.5 -138.5l-43 -246q-5 -30 -15.5 -79.5t-11.5 -55.5 l2 -2q31 22 86 22q75 0 119.5 -42t44.5 -114q0 -105 -75 -174t-183 -69q-90 0 -142.5 47t-52.5 127q0 13 4 45l93 514q30 171 127.5 261.5t238.5 90.5q88 0 147 -43t76 -119q46 77 119.5 119.5t163.5 42.5q229 0 229 -237q0 -44 -10 -109l-116 -661q-6 -36 -28 -51t-71 -15 q-39 0 -56.5 10.5t-17.5 34.5q0 9 3 21zM319 100q41 0 73 30.5t32 76.5q0 34 -20 54t-54 20q-43 0 -73.5 -32t-30.5 -79q0 -33 19 -51.5t54 -18.5z" />
<glyph unicode="&#xe54;" horiz-adv-x="1341" d="M879 301l-2 -4q7 -81 71 -131.5t146 -50.5q21 0 55 6t45 6q23 0 23 -31q0 -66 -33.5 -87t-124.5 -21q-78 0 -148.5 28t-115.5 80q-113 -119 -293 -119q-167 0 -273 100t-106 292q0 317 189.5 498.5t502.5 181.5h367l24 135q6 35 27 50t67 15q74 0 74 -47q0 -3 -1 -9 t-1 -9l-35 -191q-8 -43 -29 -62.5t-65 -19.5h-455q-226 0 -358.5 -135t-132.5 -385q0 -138 67.5 -208t176.5 -70q113 0 194 69q-51 80 -51 195q0 146 80 230.5t205 84.5q87 0 137.5 -45.5t50.5 -122.5q0 -101 -69 -168t-152 -67q-33 0 -57 12zM915 391q44 0 75.5 32t31.5 81 q0 32 -20.5 51.5t-55.5 19.5q-44 0 -74 -32t-30 -82q0 -33 19 -51.5t54 -18.5z" />
<glyph unicode="&#xe55;" horiz-adv-x="1353" d="M879 301l-2 -4q7 -81 71 -131.5t146 -50.5q21 0 55 6t45 6q23 0 23 -31q0 -66 -33.5 -87t-124.5 -21q-78 0 -148.5 28t-115.5 80q-113 -119 -293 -119q-167 0 -273 100t-106 292q0 243 119 413.5t313 225.5q-16 32 -16 71q0 108 75.5 178t186.5 70q88 0 139 -44.5 t51 -119.5q0 -63 -28 -114h270l22 135q6 36 28.5 50.5t66.5 14.5q38 0 54.5 -10t16.5 -33q0 -14 -2 -22l-33 -191q-14 -82 -94 -82h-504q-226 0 -358.5 -135t-132.5 -385q0 -138 67.5 -208t176.5 -70q63 0 107 16.5t87 52.5q-51 80 -51 195q0 146 80 230.5t205 84.5 q87 0 137.5 -45.5t50.5 -122.5q0 -101 -69 -168t-152 -67q-33 0 -57 12zM748 1026q47 0 80.5 33.5t33.5 83.5q0 34 -22 55t-58 21q-48 0 -81 -33.5t-33 -83.5q0 -35 21.5 -55.5t58.5 -20.5zM915 391q44 0 75.5 32t31.5 81q0 32 -20.5 51.5t-55.5 19.5q-43 0 -73.5 -32.5 t-30.5 -81.5q0 -33 19 -51.5t54 -18.5z" />
<glyph unicode="&#xe56;" horiz-adv-x="1316" d="M315 266l-2 -2q20 -73 98 -112t189 -39q191 0 316.5 145t125.5 377q0 143 -76 223t-216 80q-170 0 -320 -119q-24 -18 -37 -23t-35 -5h-65q-64 0 -64 51q0 12 2 20l58 322q6 36 27 50.5t67 14.5q39 0 55.5 -10t16.5 -35q0 -12 -2 -20l-43 -246q71 60 170 97.5t211 37.5 q202 0 317 -112.5t115 -307.5q0 -149 -50 -276t-137 -214.5t-207 -136.5t-258 -49q-204 0 -329 95.5t-125 263.5q0 147 79.5 236.5t204.5 89.5q86 0 137.5 -45.5t51.5 -122.5q0 -98 -64 -168t-155 -70q-36 0 -56 10zM350 360q44 0 74.5 32t30.5 81q0 31 -20.5 50.5 t-53.5 19.5q-42 0 -74.5 -31.5t-32.5 -77.5q0 -34 20.5 -54t55.5 -20z" />
<glyph unicode="&#xe57;" horiz-adv-x="1837" d="M1272 0h-217q-62 0 -62 51q0 13 2 21l119 671q6 38 6 66q0 127 -110 127q-66 0 -113.5 -44.5t-60.5 -125.5l-39 -219q-6 -37 -26.5 -51.5t-65.5 -14.5q-39 0 -55.5 10t-16.5 35q0 13 2 21l39 223q4 28 4 43q0 58 -31.5 90.5t-87.5 32.5q-75 0 -124 -49.5t-64 -138.5 l-43 -246q-5 -30 -15.5 -79.5t-11.5 -55.5l2 -2q31 22 86 22q75 0 119.5 -42t44.5 -114q0 -105 -75 -174t-183 -69q-90 0 -141.5 47t-51.5 127q0 13 4 45l93 514q30 172 125.5 262t236.5 90q88 0 147 -43t76 -119q46 77 119.5 119.5t163.5 42.5q223 0 223 -231 q0 -47 -10 -115l-104 -592h106q86 0 133 42.5t64 137.5l151 869q6 36 29 50.5t67 14.5q39 0 56.5 -10.5t17.5 -34.5q0 -12 -2 -20l-151 -858q-31 -171 -120 -248.5t-255 -77.5zM317 100q41 0 73 30.5t32 76.5q0 34 -20 54t-54 20q-43 0 -73.5 -32t-30.5 -79q0 -33 19 -51.5 t54 -18.5z" />
<glyph unicode="&#xe58;" horiz-adv-x="1437" d="M631 236h-4l-109 -209q-11 -21 -20 -28t-29 -7q-149 0 -239.5 104t-90.5 281q0 312 190 492t502 180h375l23 135q6 35 28 50t68 15q72 0 72 -45q0 -14 -2 -20l-35 -191q-8 -43 -29 -62.5t-65 -19.5h-463q-226 0 -358 -134t-132 -384q0 -104 38 -169.5t102 -88.5l106 205 q13 25 32 35t62 10q42 0 55 -10t15 -35q10 -104 58 -165.5t141 -61.5q76 0 128 43t74 120q-27 -12 -67 -12q-79 0 -127.5 46t-48.5 120q0 106 77.5 177t182.5 71q90 0 142 -49t52 -137q0 -61 -13.5 -127.5t-46 -136.5t-78.5 -125.5t-119 -90.5t-160 -35q-134 0 -203.5 69.5 t-83.5 189.5zM1087 379q44 0 75.5 31t31.5 79q0 33 -19.5 52.5t-54.5 19.5q-41 0 -73.5 -31t-32.5 -77q0 -34 19 -54t54 -20z" />
<glyph unicode="&#xe59;" horiz-adv-x="1411" d="M930 47l-121 707q-14 85 -53.5 134.5t-120.5 49.5q-59 0 -116.5 -32t-105 -91.5t-77 -156t-29.5 -214.5q0 -99 31 -157l2 -2q31 55 84.5 84.5t114.5 29.5q82 0 129 -44t47 -119q0 -107 -75 -177.5t-181 -70.5q-149 0 -237.5 118t-88.5 316q0 145 43 269t114.5 206.5 t164.5 129t194 46.5q97 0 163.5 -45t88.5 -121q28 78 87.5 124t135.5 46q60 0 101.5 -32t52.5 -76l88 223q12 31 32.5 44t59.5 13q64 0 64 -41q0 -21 -19 -65l-147 -320q-19 -39 -58 -39h-81q0 160 -107 160q-52 0 -90 -35.5t-51 -97.5l129 -741q2 -8 2 -19q0 -51 -88 -51 q-40 0 -59 9.5t-23 37.5zM479 104q43 0 74 31t31 80q0 31 -20.5 50.5t-53.5 19.5q-45 0 -76 -32t-31 -79q0 -32 20.5 -51t55.5 -19z" />
<glyph unicode="&#xe5b;" horiz-adv-x="2025" d="M1921 358h-274q-21 0 -29 8.5t-10 30.5l-17 238h-6l-153 -344q-12 -26 -28 -33.5t-52 -7.5q-39 0 -54 7.5t-18 33.5l-37 264h-6q-82 -225 -237.5 -341t-376.5 -116q-213 0 -336 107t-123 289q0 125 44.5 229t118 169.5t167 101.5t194.5 36q142 0 223.5 -80.5t81.5 -210.5 q0 -153 -82 -250.5t-209 -97.5q-86 0 -137 44t-51 118q0 104 67 171t164 67q46 0 84 -19l2 4q-2 49 -46 85t-132 36q-61 0 -119.5 -26t-105.5 -73t-75.5 -120t-28.5 -160q0 -132 89 -208.5t242 -76.5q136 0 249 71.5t182 187.5t94 260q7 42 22 53.5t60 11.5q40 0 56 -12.5 t19 -42.5l39 -336h6l144 332q15 37 33.5 48t62.5 11q41 0 56 -13t18 -50l18 -265h230q21 0 29.5 -8.5t8.5 -29.5q0 -93 -61 -93zM723 508q45 0 75.5 30t30.5 78q0 31 -20 49.5t-55 18.5q-47 0 -78 -30t-31 -79q0 -31 20.5 -49t57.5 -18z" />
<glyph unicode="&#x2000;" horiz-adv-x="1169" />
<glyph unicode="&#x2001;" horiz-adv-x="2339" />
<glyph unicode="&#x2002;" horiz-adv-x="1169" />
<glyph unicode="&#x2003;" horiz-adv-x="2339" />
<glyph unicode="&#x2004;" horiz-adv-x="779" />
<glyph unicode="&#x2005;" horiz-adv-x="584" />
<glyph unicode="&#x2006;" horiz-adv-x="389" />
<glyph unicode="&#x2007;" horiz-adv-x="389" />
<glyph unicode="&#x2008;" horiz-adv-x="292" />
<glyph unicode="&#x2009;" horiz-adv-x="467" />
<glyph unicode="&#x200a;" horiz-adv-x="129" />
<glyph unicode="&#x2010;" horiz-adv-x="643" d="M510 475h-367q-25 0 -35 8.5t-10 30.5q0 11 4 39q7 45 22 61.5t46 16.5h369q24 0 34.5 -9t10.5 -32q0 -9 -4 -37q-7 -45 -22.5 -61.5t-47.5 -16.5z" />
<glyph unicode="&#x2011;" horiz-adv-x="643" d="M510 475h-367q-25 0 -35 8.5t-10 30.5q0 11 4 39q7 45 22 61.5t46 16.5h369q24 0 34.5 -9t10.5 -32q0 -9 -4 -37q-7 -45 -22.5 -61.5t-47.5 -16.5z" />
<glyph unicode="&#x2012;" horiz-adv-x="643" d="M510 475h-367q-25 0 -35 8.5t-10 30.5q0 11 4 39q7 45 22 61.5t46 16.5h369q24 0 34.5 -9t10.5 -32q0 -9 -4 -37q-7 -45 -22.5 -61.5t-47.5 -16.5z" />
<glyph unicode="&#x2013;" horiz-adv-x="1208" d="M1034 485h-856q-25 0 -34 8.5t-9 30.5q0 53 17 76t51 23h856q45 0 45 -37q0 -101 -70 -101z" />
<glyph unicode="&#x2014;" horiz-adv-x="1779" d="M1606 485h-1428q-25 0 -34 8.5t-9 30.5q0 53 17 76t51 23h1427q45 0 45 -37q0 -101 -69 -101z" />
<glyph unicode="&#x2018;" horiz-adv-x="479" d="M537 1405l-144 -313q-18 -39 -39.5 -52.5t-70.5 -13.5q-82 0 -82 41q0 19 14 41l188 319q22 37 39 48.5t52 11.5q57 0 57 -33q0 -21 -14 -49z" />
<glyph unicode="&#x2019;" horiz-adv-x="479" d="M537 1405l-187 -320q-22 -37 -39.5 -48t-52.5 -11q-57 0 -57 35q0 15 14 47l145 313q17 39 39.5 52.5t71.5 13.5q80 0 80 -39q0 -21 -14 -43z" />
<glyph unicode="&#x201a;" horiz-adv-x="479" d="M309 111l-188 -316q-23 -37 -40 -48t-52 -11q-58 0 -58 33q0 19 15 49l145 309q17 39 39.5 52.5t71.5 13.5q82 0 82 -41q0 -11 -15 -41z" />
<glyph unicode="&#x201c;" horiz-adv-x="831" d="M539 1405l-146 -313q-17 -38 -39 -51t-71 -13q-78 0 -78 41q0 18 12 39l186 319q22 37 40 48.5t53 11.5q57 0 57 -35q0 -16 -14 -47zM891 1405l-143 -313q-19 -39 -40.5 -51.5t-70.5 -12.5q-80 0 -80 41q0 18 12 39l187 319q22 37 39.5 48.5t52.5 11.5q57 0 57 -35 q0 -16 -14 -47z" />
<glyph unicode="&#x201d;" horiz-adv-x="831" d="M537 1407l-187 -320q-22 -37 -39.5 -48t-52.5 -11q-57 0 -57 35q0 15 14 47l143 313q19 39 40.5 51.5t70.5 12.5q80 0 80 -41q0 -18 -12 -39zM891 1407l-186 -320q-22 -36 -39.5 -47.5t-53.5 -11.5q-57 0 -57 35q0 15 14 47l146 313q17 38 39 51t71 13q78 0 78 -41 q0 -18 -12 -39z" />
<glyph unicode="&#x201e;" horiz-adv-x="831" d="M313 111l-188 -316q-23 -37 -40 -48t-52 -11q-58 0 -58 33q0 19 15 49l145 309q17 39 39.5 52.5t71.5 13.5q82 0 82 -41q0 -11 -15 -41zM662 111l-189 -316q-22 -37 -39 -48t-51 -11q-59 0 -59 33q0 14 14 49l145 309q17 39 39.5 52.5t71.5 13.5q82 0 82 -41 q0 -19 -14 -41z" />
<glyph unicode="&#x2020;" horiz-adv-x="1163" d="M430 55l152 854h-283q-22 0 -30.5 7t-8.5 24q0 40 14 70t48 30h282l58 318q6 32 24.5 43.5t63.5 11.5q37 0 53 -8.5t16 -30.5q0 -10 -2 -16l-57 -318h282q37 0 37 -28q0 -103 -59 -103h-283l-149 -854q-6 -32 -25 -43.5t-63 -11.5q-37 0 -54.5 8.5t-17.5 30.5q0 10 2 16z " />
<glyph unicode="&#x2021;" horiz-adv-x="1165" d="M926 371h-283l-55 -316q-6 -32 -25 -43.5t-63 -11.5q-37 0 -53.5 8.5t-16.5 30.5q0 10 2 16l55 316h-282q-37 0 -37 26q0 105 59 105h283l72 407h-283q-21 0 -29 8t-8 29q0 36 14.5 65t45.5 29h282l58 318q6 32 24.5 43.5t63.5 11.5q37 0 53 -8.5t16 -30.5q0 -10 -2 -16 l-55 -318h282q20 0 27.5 -7t7.5 -25q0 -99 -59 -99h-283l-71 -407h282q22 0 30.5 -7t8.5 -24q0 -100 -61 -100z" />
<glyph unicode="&#x2022;" horiz-adv-x="915" d="M432 344q-114 0 -179 62t-65 167q0 150 101 249.5t246 99.5q113 0 178 -62t65 -164q0 -153 -100.5 -252.5t-245.5 -99.5z" />
<glyph unicode="&#x2026;" horiz-adv-x="1904" d="M422 96l-111 -92q-21 -18 -41 -18q-17 0 -32 18l-78 92q-13 17 -13 31q0 19 25 41l111 92q22 19 39 19q18 0 34 -19l78 -92q12 -15 12 -29q0 -22 -24 -43zM1016 96l-111 -92q-21 -18 -41 -18q-18 0 -33 18l-77 92q-13 17 -13 31q0 19 25 41l111 92q22 19 38 19 q19 0 35 -19l78 -92q12 -15 12 -29q0 -22 -24 -43zM1610 96l-111 -92q-21 -18 -41 -18q-18 0 -33 18l-77 92q-13 17 -13 31q0 19 25 41l110 92q22 19 39 19q19 0 35 -19l78 -92q12 -15 12 -29q0 -22 -24 -43z" />
<glyph unicode="&#x202f;" horiz-adv-x="467" />
<glyph unicode="&#x2030;" horiz-adv-x="2611" d="M336 20l1143 1440q19 24 36.5 33.5t49.5 9.5q59 0 59 -28q0 -15 -16 -37l-1145 -1440q-19 -24 -36.5 -33.5t-49.5 -9.5q-58 0 -58 31q0 14 17 34zM496 690q-123 0 -189.5 71t-66.5 200q0 130 45.5 237t135.5 172.5t208 65.5q123 0 189.5 -70t66.5 -199 q0 -130 -45.5 -237.5t-135.5 -173.5t-208 -66zM518 815q65 0 115.5 51.5t75 127.5t24.5 159q0 77 -33 118.5t-94 41.5q-67 0 -118 -52t-75 -128.5t-24 -161.5q0 -75 33 -115.5t96 -40.5zM1282 -23q-123 0 -189.5 70t-66.5 199q0 201 105.5 339t283.5 138q123 0 189.5 -70 t66.5 -198q0 -131 -45 -238.5t-135 -173.5t-209 -66zM2064 -23q-123 0 -189.5 70t-66.5 199q0 201 106 339t284 138q123 0 189.5 -70t66.5 -198q0 -130 -45.5 -238t-136 -174t-208.5 -66zM1305 100q67 0 117.5 53t74 129.5t23.5 159.5q0 75 -33 115.5t-94 40.5 q-67 0 -117.5 -51.5t-74 -127.5t-23.5 -161q0 -158 127 -158zM2087 100q67 0 117.5 53t74 129.5t23.5 159.5q0 75 -33 115.5t-94 40.5q-67 0 -118 -51.5t-75 -127.5t-24 -161q0 -76 33 -117t96 -41z" />
<glyph unicode="&#x2039;" horiz-adv-x="559" d="M240 156l-127 241q-19 43 -19 68q0 36 47 92l211 244q21 24 39.5 32.5t52.5 8.5q64 0 64 -29q0 -20 -16 -39l-230 -297l127 -295q6 -15 6 -26q0 -41 -80 -41q-34 0 -48 8.5t-27 32.5z" />
<glyph unicode="&#x203a;" horiz-adv-x="559" d="M422 397l-213 -241q-21 -24 -40 -32.5t-54 -8.5q-64 0 -64 28q0 14 19 39l229 295l-125 297q-6 15 -6 27q0 41 76 41q35 0 51 -8.5t27 -32.5l127 -244q18 -37 18 -63q0 -46 -45 -97z" />
<glyph unicode="&#x2044;" horiz-adv-x="262" d="M-408 25l1061 1437q16 23 32 32t50 9q60 0 60 -30q0 -12 -19 -39l-1061 -1438q-19 -24 -34 -32.5t-48 -8.5q-57 0 -57 31q0 18 16 39z" />
<glyph unicode="&#x205f;" horiz-adv-x="584" />
<glyph unicode="&#x20ac;" horiz-adv-x="1327" d="M958 541h-448v-21q0 -102 27 -178t73.5 -119t103 -63.5t122.5 -20.5q72 0 132 14t97.5 28t52.5 14q31 0 31 -41q0 -54 -35.5 -91.5t-93.5 -54.5t-110.5 -24t-108.5 -7q-101 0 -187 30t-155 91t-108.5 164.5t-39.5 239.5v39h-157q-23 0 -35.5 9.5t-12.5 24.5 q0 25 25.5 48.5t61.5 23.5h129q11 89 26 150h-149q-23 0 -35 9.5t-12 24.5q0 25 26 48.5t62 23.5h139q87 254 266.5 393.5t411.5 139.5q72 0 137 -13t109.5 -40.5t44.5 -63.5q0 -38 -14 -65t-40 -27q-4 0 -91 23.5t-167 23.5q-145 0 -265.5 -96.5t-188.5 -274.5h462 q23 0 35.5 -10t12.5 -25q0 -25 -26 -48t-62 -23h-457q-16 -61 -29 -150h479q23 0 35 -10t12 -25q0 -26 -25 -48.5t-61 -22.5z" />
<glyph unicode="&#x2122;" horiz-adv-x="1828" d="M387 678v10l105 592h-177q-14 0 -19 5.5t-5 23.5q0 71 43 71h473q14 0 19 -5t5 -23q0 -72 -43 -72h-180l-104 -592q-3 -22 -18 -31.5t-48 -9.5q-51 0 -51 31zM1538 688l70 389q26 156 34 189h-2q-13 -24 -55.5 -99t-56.5 -100l-211 -375q-15 -28 -31.5 -36.5t-54.5 -8.5 q-37 0 -50.5 8.5t-19.5 36.5l-80 375q-3 16 -12.5 59.5t-17 81t-11.5 58.5h-2q-15 -116 -28 -189l-68 -389q-5 -23 -17.5 -32t-43.5 -9q-47 0 -47 29q0 2 1 6t1 6l110 625q6 36 30 51.5t71 15.5q53 0 72.5 -15.5t27.5 -57.5l63 -312q31 -151 43 -245h2q46 101 127 245 l177 312q24 43 48 58t74 15q78 0 78 -51q0 -10 -2 -16l-108 -625q-5 -23 -18 -32t-44 -9q-51 0 -51 29q0 2 1 6t1 6z" />
<glyph unicode="&#x2202;" horiz-adv-x="1212" d="M967 866h4q-22 113 -79 211.5t-134 169.5t-157.5 120.5t-164.5 80.5q-22 14 -22 41q0 25 20.5 45t52.5 20q125 0 246.5 -67.5t212.5 -178t147 -262t56 -311.5q0 -123 -27.5 -235.5t-82 -207.5t-131 -165.5t-180.5 -110t-224 -39.5q-201 0 -318.5 108t-117.5 294 q0 165 76 305t212 223.5t301 83.5q100 0 183 -34.5t127 -90.5zM532 121q116 0 210.5 65.5t145 171t50.5 226.5q0 123 -72.5 193.5t-201.5 70.5q-121 0 -214.5 -64t-141.5 -166t-48 -221q0 -129 72.5 -202.5t199.5 -73.5z" />
<glyph unicode="&#x220f;" horiz-adv-x="1540" d="M1026 -334l305 1733h-799l-305 -1733q-6 -32 -28 -43.5t-76 -11.5q-45 0 -64.5 8t-19.5 33q0 8 2 14l321 1819q6 37 25.5 54t56.5 17h1031q61 0 61 -53q0 -3 -1 -9t-1 -9l-322 -1819q-6 -32 -27.5 -43.5t-76.5 -11.5q-45 0 -64.5 8t-19.5 33q0 8 2 14z" />
<glyph unicode="&#x2211;" horiz-adv-x="1345" d="M1055 -389h-1053q-32 0 -45.5 12t-13.5 37q0 15 2 23l14 75l782 846l-462 815l12 66q6 37 25 54t57 17h995q28 0 38.5 -9t10.5 -34q0 -116 -76 -116h-442q-133 0 -373 6l-2 -2l439 -787l-777 -839l2 -2q240 6 404 6h493q26 0 37 -10t11 -35q0 -51 -18 -87t-60 -36z" />
<glyph unicode="&#x2212;" horiz-adv-x="1204" d="M1053 446h-916q-26 0 -36.5 8.5t-10.5 30.5q0 105 74 105h915q26 0 35.5 -9.5t9.5 -31.5q0 -103 -71 -103z" />
<glyph unicode="&#x221a;" horiz-adv-x="1273" d="M565 -229h4q125 324 142 366l542 1362q11 31 33 44t74 13q80 0 80 -40q0 -7 -4 -19l-744 -1808q-18 -41 -51.5 -59.5t-101.5 -18.5q-69 0 -93.5 18t-31.5 58l-125 706h-195q-27 0 -38 9t-11 32q0 117 74 117h262q42 0 56 -12.5t22 -53.5l61 -358q8 -46 45 -356z" />
<glyph unicode="&#x221e;" horiz-adv-x="1617" d="M766 332q-70 -121 -172 -186.5t-217 -65.5q-133 0 -213 79.5t-80 221.5q0 210 127 350.5t321 140.5q119 0 203.5 -65.5t118.5 -185.5q71 122 171.5 186.5t215.5 64.5q133 0 213 -79.5t80 -221.5q0 -133 -56 -245.5t-157 -179t-225 -66.5t-210 66t-120 186zM872 469 q26 -106 83.5 -172t150.5 -66q107 0 183.5 85t76.5 227q0 86 -47.5 133t-128.5 47q-99 0 -180.5 -71t-137.5 -183zM743 481q-24 106 -80.5 173t-148.5 67q-108 0 -185 -83.5t-77 -225.5q0 -88 47.5 -135.5t130.5 -47.5q96 0 176.5 70.5t136.5 181.5z" />
<glyph unicode="&#x222b;" horiz-adv-x="684" d="M113 -86l231 1309q30 172 119 252.5t239 80.5q59 0 87 -12t28 -45q0 -42 -17.5 -70t-47.5 -28q-10 0 -35 2t-31 2q-62 0 -97.5 -39.5t-53.5 -138.5l-232 -1309q-30 -172 -119 -253t-239 -81q-59 0 -87 12t-28 46q0 59 19.5 78.5t64.5 19.5q8 0 29.5 -1t36.5 -1 q52 0 84 42t49 134z" />
<glyph unicode="&#x2248;" horiz-adv-x="1204" d="M1159 778q0 -66 -45.5 -115.5t-113 -72.5t-142.5 -23q-63 0 -116.5 17.5t-92 42t-76 49t-85 42t-101.5 17.5q-50 0 -102 -24t-86 -48t-41 -24q-25 0 -25 27q0 67 46.5 117.5t114.5 74t142 23.5q63 0 116 -17.5t91.5 -42t75.5 -49t84.5 -42t101.5 -17.5q51 0 103.5 24 t87 48t41.5 24q12 0 17 -6t5 -25zM1085 356q0 -66 -45.5 -115.5t-113 -72.5t-142.5 -23q-63 0 -116.5 17.5t-92 42t-76 49t-85 42t-101.5 17.5q-50 0 -102 -24t-86 -48t-41 -24q-25 0 -25 27q0 67 46.5 117.5t114.5 74t142 23.5q63 0 116 -17.5t91.5 -42t75.5 -49t84.5 -42 t101.5 -17.5q51 0 103.5 24t87 48t41.5 24q12 0 17 -6t5 -25z" />
<glyph unicode="&#x2260;" horiz-adv-x="1204" d="M1020 246h-496l-188 -273q-19 -28 -36.5 -37.5t-55.5 -9.5q-66 0 -66 31q0 20 19 45l168 244h-261q-26 0 -36.5 8.5t-10.5 28.5q0 52 15.5 79t56.5 27h336l178 258h-469q-26 0 -36.5 8.5t-10.5 28.5q0 52 15.5 79.5t56.5 27.5h542l193 276q19 28 38 37.5t58 9.5 q64 0 64 -31q0 -13 -21 -45l-172 -247h213q26 0 36.5 -7t10.5 -26q0 -111 -71 -111h-287l-178 -258h419q27 0 37.5 -7t10.5 -26q0 -110 -72 -110z" />
<glyph unicode="&#x2264;" horiz-adv-x="1204" d="M1006 262l-766 240q-77 24 -101 41.5t-24 54.5q0 93 33.5 137t144.5 76l854 248q20 4 27 4q28 0 28 -39q0 -59 -19 -92.5t-69 -46.5l-448 -117q-69 -18 -210 -52.5t-196 -49.5l-2 -4q69 -23 369 -111l409 -117q28 -8 39.5 -21t11.5 -44q0 -111 -59 -111q-6 0 -22 4z M977 0h-916q-26 0 -37.5 8.5t-11.5 28.5q0 106 74 106h915q27 0 36.5 -9t9.5 -32q0 -49 -14.5 -75.5t-55.5 -26.5z" />
<glyph unicode="&#x2265;" horiz-adv-x="1204" d="M975 502l-852 -240q-20 -4 -25 -4q-32 0 -32 39q0 114 90 137l448 117q308 80 406 111l2 4q-52 16 -181 50.5t-188 51.5l-410 117q-29 8 -40 22t-11 47q0 109 58 109q8 0 24 -4l766 -248q76 -26 98.5 -44t22.5 -58q0 -61 -11 -95t-49.5 -62.5t-115.5 -49.5zM977 0h-918 q-26 0 -35.5 9.5t-9.5 31.5q0 102 70 102h917q26 0 36 -8.5t10 -28.5q0 -106 -70 -106z" />
<glyph unicode="&#x25ca;" horiz-adv-x="1060" d="M975 621l-367 -535q-37 -54 -66 -70t-91 -16q-65 0 -91 17t-43 69l-180 535q-12 37 -12 65q0 46 43 107l369 534q37 54 67.5 70t93.5 16q64 0 87 -16t42 -72l179 -532q12 -37 12 -66q0 -45 -43 -106zM467 111h4q100 161 231 350l162 241l-82 250q-16 47 -54 177t-48 174 h-4q-36 -60 -232 -351l-165 -245l79 -246q86 -262 109 -350z" />
<glyph unicode="&#x25fc;" horiz-adv-x="952" d="M0 952h952v-952h-952v952z" />
<glyph unicode="&#xf700;" horiz-adv-x="1081" d="M354 53v49q0 23 4 78t4 58q-28 -25 -86 -25q-84 0 -133 45t-49 121q0 100 67 163.5t173 63.5q97 0 145.5 -50t48.5 -138q0 -14 -20 -305q25 -7 51 -7q73 0 131 79t84 221q12 65 12 110q0 77 -35 118t-116 56q-273 51 -420 51q-55 0 -55 45q0 11 2 17l16 86 q28 143 128 212.5t243 69.5q77 0 199.5 -22.5t173.5 -22.5q37 0 79.5 6.5t45.5 6.5q36 0 36 -49q0 -21 -2 -33q-6 -36 -40.5 -50t-106.5 -14t-193.5 22.5t-185.5 22.5q-87 0 -147 -38.5t-70 -114.5l-4 -29q111 -7 311 -41q171 -30 240 -97t69 -190q0 -71 -14 -145 q-33 -190 -133.5 -298t-257.5 -108q-60 0 -143 19q-52 11 -52 57zM291 317q43 0 72.5 31t29.5 78q0 33 -19 52.5t-52 19.5q-43 0 -73 -32t-30 -79q0 -32 19 -51t53 -19z" />
<glyph unicode="&#xf701;" d="M-375 1317h-784q-43 0 -43 35q0 10 2 16l8 53q72 145 208 230.5t292 85.5q155 0 261.5 -85.5t123.5 -230.5l-8 -53q-9 -51 -60 -51zM-1036 1432h577q-15 84 -83.5 134t-170.5 50q-103 0 -191 -50.5t-132 -133.5z" />
<glyph unicode="&#xf702;" d="M-375 1317h-784q-43 0 -43 35q0 10 2 16l8 53q61 146 191 231t290 85q88 0 165.5 -34t115.5 -91l20 106q6 31 25.5 43.5t60.5 12.5q72 0 72 -41q0 -2 -1 -7t-1 -8l-61 -350q-9 -51 -60 -51zM-1036 1432h575q-12 83 -86 133.5t-182 50.5q-104 0 -188.5 -50.5 t-118.5 -133.5z" />
<glyph unicode="&#xf703;" d="M-383 1317h-776q-43 0 -43 35q0 10 2 16l8 53q69 142 204.5 228t274.5 86q91 0 154 -37q20 49 65.5 75.5t104.5 26.5q66 0 103.5 -35t37.5 -94q0 -54 -25 -95.5t-67 -62.5q24 -40 27 -88l-11 -57q-9 -51 -59 -51zM-430 1571q35 0 59.5 24.5t24.5 63.5q0 25 -17 40t-43 15 q-36 0 -59.5 -24t-23.5 -62q0 -57 59 -57zM-1036 1432h563q-14 83 -80.5 133.5t-169.5 50.5q-97 0 -183.5 -50.5t-129.5 -133.5z" />
<glyph unicode="&#xf704;" d="M-375 1317h-784q-43 0 -43 35q0 10 2 16l8 53q70 145 195 228.5t266 83.5q67 0 129 -25l8 43q4 26 21 36.5t51 10.5q57 0 57 -35v-12l-16 -96q40 -25 71 -82l31 178q4 25 21.5 35t52.5 10q30 0 43.5 -7.5t13.5 -25.5v-12l-67 -383q-9 -51 -60 -51zM-1028 1432h567 q-24 82 -95 133t-173 51q-92 0 -174 -50.5t-125 -133.5z" />
<glyph unicode="&#xf705;" d="M-614 1378l49 281q6 33 28 47t68 14q39 0 56.5 -10.5t17.5 -34.5q0 -10 -2 -16l-49 -281q-6 -34 -27.5 -47.5t-67.5 -13.5q-39 0 -57 9t-18 32q0 12 2 20z" />
<glyph unicode="&#xf706;" d="M-668 1470v5q-68 3 -106.5 37t-38.5 92q0 80 60 136t149 56q69 0 109 -35.5t40 -95.5q0 -63 -33.5 -124t-89.5 -107q123 22 206.5 105.5t115.5 199.5q7 27 26 38t58 11q74 0 74 -45q0 -8 -2 -14q-46 -196 -211.5 -309t-413.5 -113q-59 0 -78.5 5.5t-19.5 24.5q0 13 2 19 q5 34 30 41q71 21 123 73zM-645 1565q34 0 58 24t24 60q0 24 -16.5 38.5t-43.5 14.5q-34 0 -58 -22.5t-24 -57.5q0 -27 15.5 -42t44.5 -15z" />
<glyph unicode="&#xf707;" d="M-565 1315h-33q-37 0 -37 24q0 1 1 4t1 5l37 213q4 24 4 30q0 45 -45 60l-80 -62q-11 -8 -31 -8q-18 0 -30 10l-64 60q-28 -5 -52 -26t-28 -48q58 -1 90.5 -30t32.5 -79q0 -75 -51 -122.5t-123 -47.5q-64 0 -99.5 38.5t-35.5 105.5q0 118 73.5 211.5t178.5 113.5h22 q21 0 33 -12l70 -74h4l90 74q14 12 39 12h23q62 -18 91 -50.5t29 -90.5q0 -24 -6 -59l-22 -127q129 32 182 284q6 28 26 40t58 12q67 0 67 -41q0 -2 -1 -7.5t-1 -7.5q-39 -193 -143 -299t-270 -106zM-958 1380q29 0 48 19.5t19 50.5q0 45 -47 45q-30 0 -49 -20t-19 -52 q0 -43 48 -43z" />
<glyph unicode="&#xf708;" d="M-360 1495l-134 4l-20 -129q-4 -30 -24 -41.5t-62 -11.5q-37 0 -52.5 8t-15.5 29q0 10 2 16l25 129l-133 -4q-24 -1 -34.5 8t-10.5 31q0 56 16.5 76t50.5 20l134 -4l20 127q4 30 24 42.5t62 12.5q68 0 68 -39q0 -3 -1 -8t-1 -8l-23 -127l131 4h8q21 0 30 -7.5t9 -27.5 q0 -55 -17 -78.5t-52 -21.5z" />
<glyph unicode="&#xf709;" d="M-211 1724l-207 -114q70 -27 70 -113q0 -89 -67 -148t-160 -59q-77 0 -122.5 39.5t-45.5 104.5q0 135 149 217l334 180q20 10 27 10q22 0 35.5 -23.5t13.5 -52.5q0 -17 -6.5 -25.5t-20.5 -15.5zM-557 1395q38 0 64 25t26 65q0 26 -18 41.5t-47 15.5q-39 0 -64 -24.5 t-25 -65.5q0 -26 17.5 -41.5t46.5 -15.5z" />
<glyph unicode="&#xf70a;" d="M-182 1378l49 281q6 33 28 47t68 14q39 0 56.5 -10.5t17.5 -34.5q0 -10 -2 -16l-49 -281q-6 -34 -27.5 -47.5t-67.5 -13.5q-39 0 -57 9t-18 32q0 12 2 20z" />
<glyph unicode="&#xf70b;" d="M-385 1470v5q-68 3 -106.5 37t-38.5 92q0 80 59.5 136t148.5 56q69 0 109.5 -35.5t40.5 -95.5q0 -63 -33.5 -124t-89.5 -107q123 22 206.5 105.5t115.5 199.5q7 27 26 38t58 11q73 0 73 -45q0 -8 -2 -14q-46 -196 -211.5 -309t-412.5 -113q-59 0 -79 6t-20 24q0 13 2 19 q3 19 9.5 28t21.5 13q71 21 123 73zM-362 1565q34 0 57.5 24t23.5 60q0 24 -16 38.5t-43 14.5q-34 0 -58 -22.5t-24 -57.5q0 -27 15.5 -42t44.5 -15z" />
<glyph unicode="&#xf70c;" d="M-225 1315h-33q-37 0 -37 24q0 1 1 4t1 5l37 213q4 24 4 30q0 45 -45 60l-86 -62q-11 -8 -31 -8q-18 0 -30 10l-66 60q-28 -5 -52 -26t-28 -48q58 -1 90.5 -30t32.5 -79q0 -75 -51 -122.5t-123 -47.5q-64 0 -99.5 38.5t-35.5 105.5q0 118 73.5 211.5t178.5 113.5h22 q21 0 33 -12l72 -74h4l96 74q14 12 39 12h22q62 -18 91.5 -50.5t29.5 -90.5q0 -24 -6 -59l-22 -127q129 32 182 284q6 28 26 40t58 12q67 0 67 -41q0 -2 -1 -7.5t-1 -7.5q-39 -193 -143 -299t-270 -106zM-627 1380q29 0 48.5 19.5t19.5 50.5q0 45 -47 45q-30 0 -49 -20 t-19 -52q0 -43 47 -43z" />
<glyph unicode="&#xf70d;" d="M63 1495l-133 4l-20 -129q-4 -30 -24 -41.5t-62 -11.5q-37 0 -52.5 8t-15.5 29q0 10 2 16l25 129l-133 -4q-24 -1 -34.5 8t-10.5 31q0 56 16.5 76t50.5 20l133 -4l21 127q4 30 24 42.5t62 12.5q68 0 68 -39q0 -3 -1.5 -8t-1.5 -8l-22 -127l131 4h8q21 0 30 -7.5t9 -27.5 q0 -55 -17.5 -78.5t-52.5 -21.5z" />
<glyph unicode="&#xf70e;" d="M59 1724l-206 -114q69 -26 69 -113q0 -89 -67 -148t-160 -59q-77 0 -122.5 39.5t-45.5 104.5q0 135 149 217l334 180q20 10 27 10q22 0 35.5 -23.5t13.5 -52.5q0 -17 -6.5 -25.5t-20.5 -15.5zM-287 1395q38 0 64 25t26 65q0 26 -18 41.5t-47 15.5q-39 0 -63.5 -24.5 t-24.5 -65.5q0 -26 17 -41.5t46 -15.5z" />
<glyph unicode="&#xf70f;" horiz-adv-x="1902" d="M1540 352l129 733q6 37 23.5 50.5t58.5 13.5q86 0 86 -57q0 -13 -2 -19l-129 -745q-29 -167 -152 -259t-315 -92q-177 0 -273 76.5t-96 212.5q0 30 7 74l69 399q6 37 6 70q0 109 -69 167t-189 58q-93 0 -184.5 -34.5t-163.5 -88.5l-6 -2l197 -84q18 -8 24 -16.5t6 -28.5 q0 -50 -7 -64.5t-30 -19.5q-178 -38 -206 -209l-21 -116q37 16 76 16q79 0 125.5 -44.5t46.5 -119.5q0 -104 -68.5 -169.5t-175.5 -65.5q-94 0 -149.5 50t-55.5 130q0 13 4 45l50 272q21 113 78 174.5t153 85.5l8 5l-182 73q-20 8 -29.5 17.5t-9.5 25.5q0 9 2 15l10 55 q12 64 101.5 119.5t207 85.5t224.5 30q192 0 298.5 -94t106.5 -248q0 -23 -8 -81l-69 -408q-5 -23 -5 -53q0 -83 51 -127.5t148 -44.5q119 0 199 64t100 173zM319 96q43 0 73 32t30 81q0 31 -19 49t-51 18q-43 0 -73.5 -30.5t-30.5 -77.5q0 -33 19 -52.5t52 -19.5z" />
<glyph unicode="&#xf710;" d="M-567 1438q10 -2 28 -2q186 0 281 200q17 37 37 50.5t59 13.5q66 0 66 -49q0 -11 -2 -17q-24 -80 -77 -143.5t-120.5 -101t-139 -57t-140.5 -19.5q-152 0 -237 53t-85 143q0 95 66 156t165 61q79 0 124.5 -37t45.5 -102q0 -46 -19 -86t-52 -63zM-711 1464q40 0 67.5 28.5 t27.5 70.5q0 29 -17.5 46t-48.5 17q-39 0 -65.5 -29t-26.5 -71q0 -28 17 -45t46 -17z" />
<glyph unicode="&#xf711;" d="M-285 1559q0 -114 -81.5 -188.5t-198.5 -74.5q-93 0 -147 47t-54 127q0 116 79.5 190.5t199.5 74.5q94 0 148 -48t54 -128zM-545 1405q55 0 90 38t35 99q0 39 -22.5 60.5t-63.5 21.5q-54 0 -90.5 -36t-36.5 -95q0 -41 23.5 -64.5t64.5 -23.5z" />
<glyph unicode="&#xf712;" d="M-553 1409v4q-10 10 -10 39q0 69 49.5 115.5t124.5 46.5q58 0 91.5 -31.5t33.5 -85.5q0 -93 -69 -149t-175 -56q-208 0 -237 152h-5l-57 -113q-12 -26 -37 -26q-87 0 -143.5 52.5t-56.5 143.5q0 140 95.5 230t241.5 90h453q35 0 35 -33q0 -48 -14.5 -68t-42.5 -20h-447 q-78 0 -128 -48.5t-50 -129.5q0 -71 55 -101l58 103q10 18 23.5 23t43.5 7q48 0 51 -28q10 -52 35 -85.5t64 -33.5q10 0 18 2zM-426 1407q29 0 50.5 22.5t21.5 53.5q0 49 -49 49q-30 0 -50 -21.5t-20 -56.5q0 -21 12 -34t35 -13z" />
<glyph unicode="&#xf713;" d="M-371 1935l43 252q6 33 28 46.5t64 13.5q36 0 53 -9t17 -32q0 -13 -2 -19l-43 -252q-6 -33 -27 -46t-63 -13q-37 0 -54.5 9.5t-17.5 33.5q0 10 2 16z" />
<glyph unicode="&#xf714;" d="M-551 2001v4q-62 3 -98.5 34.5t-36.5 82.5q0 73 57 125.5t135 52.5q64 0 101 -32.5t37 -88.5q0 -53 -36 -112t-91 -97q243 48 307 277q6 26 24 35.5t54 9.5q63 0 63 -39q0 -9 -2 -15q-50 -183 -192.5 -277.5t-372.5 -94.5q-57 0 -74.5 4.5t-17.5 21.5q0 11 2 17 q3 17 8.5 23.5t17.5 11.5q62 19 115 57zM-532 2085q32 0 54.5 22t22.5 56q0 23 -15 37t-40 14q-33 0 -55.5 -22.5t-22.5 -55.5q0 -51 56 -51z" />
<glyph unicode="&#xf715;" d="M-326 1874h-28q-14 0 -24 7t-7 22l33 186q2 8 2 25q0 44 -43 59l-70 -55q-9 -9 -26 -9q-18 0 -27 9l-59 55q-23 -5 -43.5 -24t-24.5 -42q52 -1 80 -27t28 -69q0 -69 -44.5 -111t-112.5 -42q-59 0 -90 32.5t-31 91.5q0 111 69 195t158 100h19q20 0 28 -12l62 -63l86 63 q18 12 35 12h20q111 -32 111 -135q0 -15 -4 -47l-21 -113q60 15 99.5 78t64.5 178q8 48 76 48q57 0 57 -37v-13q-35 -173 -129 -267.5t-244 -94.5zM-680 1931q24 0 41.5 17t17.5 45q0 41 -41 41q-26 0 -42.5 -18t-16.5 -46q0 -39 41 -39z" />
<glyph unicode="&#xf716;" d="M-74 2044l-131 4l-18 -119q-4 -29 -23.5 -41t-58.5 -12q-35 0 -50.5 9t-15.5 30q0 8 2 14l23 119l-133 -4q-24 -1 -33.5 7t-9.5 30q0 54 16 75t49 19l133 -6l19 119q4 29 22.5 40t59.5 11q34 0 48.5 -8.5t14.5 -30.5v-12l-24 -119l133 6q47 3 47 -37q0 -53 -18.5 -74.5 t-51.5 -19.5z" />
<glyph unicode="&#xf717;" d="M-109 2224l-188 -100v-4q30 -12 47 -38.5t17 -60.5q0 -85 -60 -139.5t-149 -54.5q-70 0 -111 35.5t-41 97.5q0 123 137 199l303 163q18 9 25 9q20 0 32.5 -21t12.5 -47q0 -27 -25 -39zM-344 2003q0 55 -57 55q-34 0 -58 -23t-24 -59q0 -53 57 -53q34 0 58 22.5t24 57.5z " />
<glyph unicode="&#xf718;" d="M-592 -983l10 65q8 31 19 62l-2 2q-20 -10 -53 -10q-59 0 -94.5 32.5t-35.5 86.5q0 85 59 139.5t148 54.5q75 0 118.5 -35t43.5 -98q0 -11 -4 -35l-47 -264q-6 -34 -25.5 -46.5t-66.5 -12.5q-40 0 -56 9.5t-16 33.5q0 2 1 7.5t1 8.5zM-582 -778q34 0 57 23.5t23 58.5 q0 55 -55 55q-33 0 -56.5 -23t-23.5 -59q0 -25 14.5 -40t40.5 -15z" />
<glyph unicode="&#xf719;" d="M-563 -874l45 256q6 33 25 46t61 13q38 0 54 -9t16 -32q0 -9 -3 -18l-49 -279q-28 -160 -268 -160q-213 0 -213 127q0 9 4 33q3 28 10 41l-2 2q-17 -10 -51 -10q-59 0 -94 32.5t-35 86.5q0 86 58 140t147 54q73 0 112 -35t39 -100q0 -23 -2 -35l-28 -153q-2 -6 -2 -17 q0 -53 77 -53q87 0 99 70zM-901 -778q34 0 57 23.5t23 58.5q0 26 -15 40.5t-41 14.5q-33 0 -56 -23t-23 -59q0 -25 14.5 -40t40.5 -15z" />
<glyph unicode="&#xf71a;" d="M-498 -840q-55 0 -87.5 31t-32.5 84q0 72 51.5 122t120.5 50q55 0 86.5 -30.5t31.5 -82.5q0 -76 -49 -125t-121 -49z" />
<glyph unicode="&#xf71b;" horiz-adv-x="1349" d="M918 -35l133 768q6 35 6 66q0 113 -71.5 174t-197.5 61q-97 0 -193.5 -32.5t-166.5 -83.5v-7l236 -98q16 -7 23 -14t7 -21q0 -46 -12.5 -62.5t-38.5 -21.5q-121 -25 -149 -180l-56 -313q-17 -95 -88.5 -153t-169.5 -58q-87 0 -136.5 43.5t-49.5 116.5q0 101 68.5 167 t164.5 66q49 0 72 -23l2 2q11 160 60 249.5t161 121.5v6l-219 82q-19 7 -27 15t-8 26q0 1 1 5.5t1 6.5l11 56q11 58 102 115t216 91.5t235 34.5q191 0 296 -90.5t105 -242.5q0 -26 -8 -84l-193 -1092q-9 -54 -34 -73t-82 -19q-49 0 -67.5 7t-39.5 30q-74 81 -178 147 q-132 -205 -336 -205q-94 0 -150.5 44t-56.5 120q0 81 45 141t114 88.5t150 28.5q101 0 185 -49q8 12 16 58l6 51q6 32 26 46.5t62 14.5q37 0 53.5 -13t16.5 -42q0 -30 -18 -81t-41 -89q107 -62 176 -143q5 64 37 241zM195 98q43 0 72.5 32t29.5 81q0 31 -19 49.5t-51 18.5 q-43 0 -73.5 -31t-30.5 -78q0 -33 19.5 -52.5t52.5 -19.5zM526 -195q-68 43 -145 43q-67 0 -105 -28t-38 -78q0 -35 25 -52.5t67 -17.5q117 0 196 133z" />
<glyph unicode="&#xf71c;" horiz-adv-x="1349" d="M813 -389l-80 123l-96 -125q-19 -25 -31.5 -32t-40.5 -7q-35 0 -52 23.5t-30.5 64.5t-29.5 61q-93 -170 -277 -170q-89 0 -140.5 42.5t-51.5 117.5q0 109 84 177.5t192 68.5q94 0 164 -53q9 22 14.5 50.5t8.5 46.5t10.5 35t25.5 25.5t49 8.5q72 0 72 -60q0 -30 -25 -86.5 t-55 -97.5q48 -55 66 -127l104 141q12 17 23.5 23t34.5 6t32 -5.5t23 -25.5l74 -110q18 150 26 194l144 813q6 38 6 68q0 111 -71.5 172t-197.5 61q-97 0 -193.5 -32.5t-166.5 -83.5v-7l236 -98q16 -7 23 -14t7 -21q0 -46 -12.5 -62.5t-38.5 -21.5q-122 -28 -149 -180 l-56 -309q-17 -96 -87 -153.5t-171 -57.5q-86 0 -136 43.5t-50 116.5q0 101 68.5 167t164.5 66q50 0 72 -22l2 2q11 157 60.5 245.5t160.5 120.5v6l-219 82q-19 7 -27 15t-8 26q0 1 1 5.5t1 6.5l11 56q11 58 102 115t216 91.5t235 34.5q191 0 296 -90.5t105 -242.5 q0 -26 -8 -84l-193 -1092q-9 -54 -33.5 -73t-80.5 -19q-49 0 -68 7.5t-39 33.5zM197 102q43 0 72.5 31t29.5 78q0 33 -19.5 52.5t-52.5 19.5q-43 0 -72.5 -32t-29.5 -79q0 -32 19 -51t53 -19zM371 -207q-53 43 -121 43q-53 0 -88 -28t-35 -72q0 -31 21.5 -49.5t56.5 -18.5 q103 0 166 125z" />
<glyph unicode="&#xf71d;" horiz-adv-x="1619" d="M1110 143h4q29 193 43 267l60 340q-103 11 -162.5 59t-59.5 125q0 99 65.5 161t162.5 62q78 0 122 -36t44 -99q0 -91 -72 -145q15 -5 24 -5q100 0 177 203q14 38 30.5 51t55.5 13q33 0 48 -10.5t15 -36.5q0 -46 -36 -115t-103 -133t-139 -80l-115 -645q-12 -70 -46 -94.5 t-112 -24.5q-67 0 -92 16t-37 64l-86 305q-30 117 -49 225h-4q-72 -133 -146 -252l-176 -282q-28 -45 -56 -60.5t-97 -15.5q-64 0 -92.5 16t-28.5 56q0 16 2 26l90 512q17 90 33 156l-2 2q-31 -23 -88 -23q-79 0 -125.5 44t-46.5 116q0 109 76.5 180.5t189.5 71.5 q91 0 141.5 -45t50.5 -123q0 -13 -4 -45l-94 -534q-39 -208 -53 -267h4l342 553q27 43 46.5 55.5t62.5 12.5q44 0 59.5 -13t26.5 -55zM1178 891q37 0 63.5 27.5t26.5 68.5q0 30 -16 48t-46 18q-39 0 -64.5 -28.5t-25.5 -72.5q0 -28 16.5 -44.5t45.5 -16.5zM324 856 q45 0 75.5 32t30.5 81q0 34 -20 53.5t-54 19.5q-44 0 -75 -32.5t-31 -79.5q0 -34 19.5 -54t54.5 -20z" />
<glyph unicode="&#xf8ff;" horiz-adv-x="1658" d="M1296 37q-149 -55 -467 -55t-467 55q-148 55 -204 205q-56 151 -56 467t56 467q55 149 204 204q151 56 467 56t467 -56q150 -56 205 -204q55 -149 55 -467t-55 -467q-55 -150 -205 -205zM1266 293v457q0 173 -125.5 287t-311.5 114t-311 -113.5t-125 -287.5v-457h174 l195 209q33 -13 67 -13q78 0 131.5 53t53.5 132t-53.5 131.5t-131.5 52.5q-79 0 -132.5 -52.5t-53.5 -131.5q0 -52 27 -99l-133 -145v320q0 121 83.5 196.5t208.5 75.5t209 -75.5t84 -196.5v-457h144zM829 596q-31 0 -54 23t-23 55q0 31 23 53.5t54 22.5t53.5 -22t22.5 -54 t-22.5 -55t-53.5 -23z" />
<glyph horiz-adv-x="1163" d="M770 59l21 95h-5q-53 -85 -143 -131t-207 -46q-165 0 -259.5 99.5t-94.5 273.5q0 139 44 258t117.5 199t168.5 125t198 45q113 0 187.5 -44.5t99.5 -123.5h4l17 86q6 32 26 45.5t70 13.5q40 0 56.5 -10.5t16.5 -34.5q0 -2 -1 -6.5t-1 -7.5l-147 -836q-6 -32 -26 -45.5 t-66 -13.5q-43 0 -60.5 10.5t-17.5 32.5q0 10 2 16zM494 121q70 0 133.5 30t113.5 86.5t79.5 146t29.5 200.5q0 122 -61.5 186t-170.5 64q-68 0 -130 -30.5t-111 -87t-78 -146t-29 -199.5q0 -121 59.5 -185.5t164.5 -64.5z" />
<glyph horiz-adv-x="1255" d="M762 -356l196 1095q7 44 7 68q0 110 -70.5 168.5t-194.5 58.5q-94 0 -192.5 -34.5t-167.5 -86.5v-4l197 -84q18 -8 24 -16.5t6 -28.5q0 -21 -2 -35q-5 -31 -9.5 -38t-25.5 -11q-174 -38 -202 -209l-21 -116q29 16 74 16q78 0 124 -44.5t46 -119.5q0 -104 -68.5 -169.5 t-175.5 -65.5q-94 0 -149.5 50t-55.5 130q0 13 4 45l50 272q21 114 79.5 176t159.5 89l-182 73q-20 8 -29.5 17.5t-9.5 25.5q0 2 1 7.5t1 7.5l10 61q4 20 7 29.5t14 22.5t33 28q99 69 224.5 109t260.5 40q196 0 305 -93.5t109 -248.5q0 -16 -9 -81l-198 -1117 q-6 -36 -23 -48.5t-61 -12.5q-88 0 -88 57q0 11 2 17zM319 96q43 0 73 32t30 81q0 31 -19 49t-51 18q-43 0 -73.5 -30.5t-30.5 -77.5q0 -33 19 -52.5t52 -19.5z" />
<glyph horiz-adv-x="1351" d="M195 96q43 0 72.5 32t29.5 81q0 31 -19 49t-51 18q-43 0 -73.5 -30.5t-30.5 -77.5q0 -33 19.5 -52.5t52.5 -19.5zM858 -362l193 1095q6 35 6 66q0 113 -71.5 174t-197.5 61q-97 0 -193.5 -32.5t-166.5 -83.5v-7l236 -98q16 -7 23 -14t7 -21q0 -4 -4 -28 q-6 -32 -14.5 -41.5t-32.5 -14.5q-61 -14 -98 -56t-51 -124l-56 -315q-17 -95 -88.5 -153t-169.5 -58q-87 0 -136.5 43t-49.5 116q0 93 67 163.5t164 70.5q53 0 74 -21l2 2q0 17 18 136q17 96 67 153t136 82v6l-215 80q-20 8 -29.5 17.5t-9.5 25.5q0 2 1 7.5t1 7.5l11 55 q4 26 14.5 39t46.5 41q96 73 223.5 116t268.5 43q191 0 296 -90.5t105 -242.5q0 -26 -8 -84l-195 -1116q-6 -36 -28.5 -52t-71.5 -16q-41 0 -58.5 11t-17.5 36q0 13 2 21z" />
<glyph horiz-adv-x="940" d="M522 68l125 714q6 38 6 72q0 86 -47.5 133t-142.5 47q-115 0 -258 -57q-40 -16 -55 -16q-27 0 -27 36q0 19 2 29q6 32 19 49t40 29q142 67 328 67q152 0 235.5 -74.5t83.5 -211.5q0 -46 -8 -90l-127 -727q-6 -36 -28.5 -52t-71.5 -16q-41 0 -58.5 11t-17.5 36q0 13 2 21z M-285 1559q0 -114 -81.5 -188.5t-198.5 -74.5q-93 0 -147 47t-54 127q0 116 79.5 190.5t199.5 74.5q94 0 148 -48t54 -128zM-545 1405q55 0 90 38t35 99q0 39 -22.5 60.5t-63.5 21.5q-54 0 -90.5 -36t-36.5 -95q0 -41 23.5 -64.5t64.5 -23.5z" />
<glyph d="M-324 1593l-12 -26q-10 -23 -37 -23q-13 0 -48 7.5t-62 7.5q-44 0 -74.5 -21.5t-30.5 -62.5q0 -62 86 -62q21 0 48 4t32 4q21 0 21 -24q0 -56 -29 -76.5t-111 -20.5q-85 0 -141.5 38.5t-56.5 113.5q0 91 65.5 151t161.5 60q25 0 49 -6l2 4q-28 25 -28 68q0 57 45 95 t114 38h160q20 0 28.5 -7t8.5 -26q0 -53 -15 -73.5t-45 -20.5h-112q-27 0 -45.5 -15.5t-18.5 -42.5q0 -22 27 -38.5t27 -24.5q0 -2 -1.5 -5t-3.5 -7.5t-4 -8.5z" />
</font>
</defs>
</svg>
