<?xml version="1.0" standalone="no"?>
<!DOCTYPE svg PUBLIC "-//W3C//DTD SVG 1.1//EN" "http://www.w3.org/Graphics/SVG/1.1/DTD/svg11.dtd" >
<svg xmlns="http://www.w3.org/2000/svg">
<metadata></metadata>
<defs>
<font id="tatsana_chonlight" horiz-adv-x="0" >
<font-face units-per-em="2048" ascent="1638" descent="-410" />
<missing-glyph horiz-adv-x="573" />
<glyph unicode="&#xe2f;&#xe2f;" horiz-adv-x="1478" d="M991 0h-94v606h-8q-176 -160 -406 -160q-186 0 -291.5 94t-105.5 269q0 176 105.5 271.5t281.5 95.5q122 0 219 -46v-86q-97 46 -213 46q-136 0 -217.5 -67t-81.5 -212q0 -146 81.5 -212.5t221.5 -66.5q223 0 414 160v459h94v-1151zM1290 0h-94v1151h94v-1151z" />
<glyph unicode="&#xe4f;&#x22;" horiz-adv-x="1515" d="M1397 575q0 -126 -45 -235.5t-126.5 -190.5t-202.5 -127.5t-265 -46.5t-265 46.5t-202.5 127.5t-126.5 190.5t-45 235.5t45 236t126.5 191t202.5 127.5t265 46.5t265 -46.5t202.5 -127.5t126.5 -191t45 -236zM1303 575q0 102 -38 195t-106.5 164.5t-172.5 113.5t-228 42 t-228 -42t-172.5 -113.5t-106.5 -164.5t-38 -195t38 -195t106.5 -164t172.5 -113t228 -42t228 42t172.5 113t106.5 164t38 195zM1028 575q0 -108 -70.5 -188t-199.5 -80t-200 80t-71 188t71 188.5t200 80.5t199.5 -80.5t70.5 -188.5zM684 1284h-68l-16 475h98zM905 1284h-67 l-17 475h99z" />
<glyph unicode="&#xe24;&#xe32;" horiz-adv-x="1978" d="M1815 -492h-95v1301q0 147 -89 214t-263 67t-309 -64q96 -113 96 -305v-1213h-94v1192q0 190 -103 290t-311 100q-199 0 -310 -91t-122 -262h297v-78q-134 -42 -206.5 -141.5t-72.5 -234.5q0 -117 56.5 -169.5t169.5 -52.5q89 0 157 37v-90q-68 -33 -157 -33 q-152 0 -236 76t-84 223q0 132 63.5 234.5t153.5 155.5h-237v65q6 78 26.5 143.5t61.5 122.5t99.5 96.5t145 62t195.5 22.5q222 0 352 -95q142 95 373 95q207 0 325 -89t118 -258v-1321z" />
<glyph unicode="&#xe26;&#xe32;" horiz-adv-x="2058" d="M1894 -492h-94v1301q0 147 -89 214t-263 67q-171 0 -301 -60q96 -113 96 -309v-1213h-94v1192q0 193 -100 291.5t-316 98.5q-189 0 -297 -91.5t-117 -261.5h297v-78q-52 -6 -88 -23.5t-54.5 -38.5t-28.5 -58.5t-11.5 -65t-1.5 -76.5v-204q0 -116 -41 -167t-121 -51 q-75 0 -143 33v86q68 -33 135 -33q43 0 59.5 23.5t16.5 87.5v246q0 176 94 246h-209v65q35 447 518 447q218 0 344 -91q146 91 367 91q207 0 324.5 -89t117.5 -258v-1321z" />
<glyph unicode="fi" horiz-adv-x="1114" d="M922 0h-95v938h-491v-938h-94v938h-205l41 86h164v174q0 152 74.5 235t183.5 83q129 0 245 -91v-90q-58 45 -121 70t-116 25q-83 0 -127.5 -64.5t-44.5 -187.5v-154h586v-1024zM879 1217h-9l-92 94v8l92 94h9l92 -94v-8z" />
<glyph unicode="fl" horiz-adv-x="1114" d="M922 0h-95v1323q-139 107 -270 107q-117 0 -169 -62.5t-52 -189.5v-154h328l-41 -86h-287v-938h-94v938h-205l41 86h164v174q0 156 82 237t225 81q88 0 147.5 -24t130.5 -79h9l86 41v-1454z" />
<glyph />
<glyph />
<glyph unicode="&#xd;" horiz-adv-x="573" />
<glyph unicode=" "  horiz-adv-x="573" />
<glyph unicode="&#x09;" horiz-adv-x="573" />
<glyph unicode="&#xa0;" horiz-adv-x="573" />
<glyph unicode="!" horiz-adv-x="630" d="M356 442h-82l-20 971h123zM381 0h-131v131h131v-131z" />
<glyph unicode="&#x22;" horiz-adv-x="630" d="M240 938h-68l-16 475h98zM461 938h-68l-16 475h98z" />
<glyph unicode="#" horiz-adv-x="1613" d="M1380 426h-366l-99 -426h-98l98 426h-368l-98 -426h-99l99 426h-343l21 90h342l90 385h-344l21 90h344l98 422h98l-98 -422h369l98 422h98l-98 -422h364l-20 -90h-365l-90 -385h365zM936 516l90 385h-369l-90 -385h369z" />
<glyph unicode="$" horiz-adv-x="1280" d="M721 -205h-98v182q-277 18 -488 197v94q214 -178 488 -200v618l-52 14q-71 21 -123.5 41.5t-106.5 53t-88 71t-55.5 94.5t-21.5 125q0 170 119.5 263.5t327.5 93.5v176h98v-182q213 -21 366 -150v-94q-168 129 -366 154v-590l22 -6q204 -61 305 -151.5t101 -246.5 q0 -163 -107.5 -265.5t-320.5 -111.5v-180zM623 786v566q-173 0 -261 -71t-88 -196q0 -116 79.5 -180t258.5 -117zM721 655v-589q167 7 248.5 83.5t81.5 202.5q0 52 -15 92.5t-51.5 78.5t-101.5 70t-162 62z" />
<glyph unicode="%" horiz-adv-x="1705" d="M420 745q-142 0 -217.5 99.5t-75.5 249.5t75.5 249t217.5 99t217.5 -99t75.5 -249t-75.5 -249.5t-217.5 -99.5zM395 0h-110l1024 1413h110zM420 827q103 0 153 73.5t50 193.5t-50 193t-153 73t-153 -73t-50 -193t50 -193.5t153 -73.5zM1286 -25q-142 0 -217.5 99.5 t-75.5 249.5t75.5 249t217.5 99t217.5 -99t75.5 -249t-75.5 -249.5t-217.5 -99.5zM1286 57q103 0 153 73.5t50 193.5t-50 193t-153 73t-153 -73t-50 -193t50 -193.5t153 -73.5z" />
<glyph unicode="&#x26;" horiz-adv-x="1236" d="M1110 0h-115l-71 76q-162 -101 -387 -101q-212 0 -317 92t-105 252q0 70 18.5 127.5t55 103t75 78.5t94.5 70q-161 214 -161 402q0 148 92.5 245t255.5 97t255.5 -97.5t92.5 -244.5q0 -138 -93 -247t-300 -196l426 -458q127 121 127 301q0 79 -21.5 126.5t-64.5 90.5h98 q86 -86 86 -228q0 -220 -160 -362zM444 731q200 83 275.5 167.5t75.5 193.5q0 114 -63.5 187t-186.5 73q-122 0 -186 -73t-64 -183q0 -165 149 -365zM858 145l-438 476q-106 -71 -156.5 -139.5t-50.5 -162.5q0 -119 80.5 -186t249.5 -67q189 0 315 79z" />
<glyph unicode="'" horiz-adv-x="409" d="M240 938h-68l-16 475h98z" />
<glyph unicode="(" horiz-adv-x="704" d="M598 -205h-90q-176 208 -245.5 415t-69.5 456q0 243 62.5 451t211.5 419h90q-266 -421 -266 -870q0 -474 307 -871z" />
<glyph unicode=")" horiz-adv-x="704" d="M197 -205h-91q308 398 308 871q0 448 -267 870h91q149 -211 211.5 -419t62.5 -451q0 -249 -69.5 -456t-245.5 -415z" />
<glyph unicode="*" horiz-adv-x="864" d="M709 848l-238 151l10 -282h-98l12 280l-239 -149l-50 86l252 131l-252 131l50 86l239 -149l-12 280h98l-10 -283l238 152l49 -86l-246 -131l246 -131z" />
<glyph unicode="+" horiz-adv-x="1335" d="M1200 592h-485v-469h-94v469h-486v86h486v469h94v-469h485v-86z" />
<glyph unicode="," horiz-adv-x="421" d="M201 -176h-74l74 393h98z" />
<glyph unicode="-" horiz-adv-x="851" d="M774 496h-696v90h696v-90z" />
<glyph unicode="." horiz-adv-x="516" d="M324 0h-131v131h131v-131z" />
<glyph unicode="/" horiz-adv-x="1040" d="M168 0h-115l819 1413h115z" />
<glyph unicode="0" horiz-adv-x="1335" d="M668 -25q-134 0 -238 54.5t-167.5 149.5t-95.5 216t-32 262t32 262t95.5 216t167.5 149.5t238 54.5t238 -54.5t167 -149.5t95 -216t32 -262t-32 -262t-95 -216t-167 -149.5t-238 -54.5zM668 66q90 0 163.5 31t123 85.5t83.5 130t49 161.5t15 183q0 123 -25 227t-75.5 187 t-136 130.5t-197.5 47.5t-197.5 -47.5t-136.5 -130.5t-76 -187t-25 -227q0 -97 15.5 -183t49 -161.5t83.5 -130t123.5 -85.5t163.5 -31z" />
<glyph unicode="1" horiz-adv-x="712" d="M520 0h-98v1221h-352l61 90h389v-1311z" />
<glyph unicode="2" horiz-adv-x="1163" d="M1032 0h-901v82l512 487q72 69 115.5 115.5t82 102t55.5 110.5t17 117q0 125 -73 180t-226 55q-249 0 -442 -141v94q195 137 444 137q396 0 396 -321q0 -75 -21.5 -142.5t-69 -135t-99 -123.5t-136.5 -136l-412 -391h758v-90z" />
<glyph unicode="3" horiz-adv-x="1120" d="M102 121v94q110 -71 214 -110t225 -39q73 0 137 16t116 49t82.5 90t30.5 133t-30.5 133t-82.5 90.5t-116 49.5t-137 16h-267l41 90h226q147 0 236 66t89 192q0 127 -89.5 192.5t-244.5 65.5q-98 0 -184.5 -26.5t-204.5 -85.5v94q99 55 188.5 81.5t198.5 26.5 q202 0 318.5 -91t116.5 -261q0 -216 -201 -299q105 -35 173.5 -116t68.5 -216q0 -180 -125 -280.5t-330 -100.5q-251 0 -449 146z" />
<glyph unicode="4" horiz-adv-x="1153" d="M899 0h-98v352h-719v90l711 869h106v-869h164v-90h-164v-352zM801 442v742l-606 -742h606z" />
<glyph unicode="5" horiz-adv-x="1122" d="M133 143v95q208 -172 426 -172q154 0 248 84.5t94 250.5q0 169 -90 254.5t-233 85.5q-114 0 -189 -48.5t-131 -127.5l-102 21l88 725h735l-41 -90h-610l-64 -510h8q39 43 119.5 81.5t192.5 38.5q190 0 302.5 -112.5t112.5 -315.5q0 -201 -121.5 -314.5t-316.5 -113.5 q-130 0 -241.5 48t-186.5 120z" />
<glyph unicode="6" horiz-adv-x="1220" d="M1036 1206v-94q-190 137 -401 137q-204 0 -299 -128.5t-107 -420.5h9q53 84 154 142.5t243 58.5q203 0 333 -123.5t130 -341.5q0 -217 -131 -339t-355 -122q-239 0 -358 158.5t-119 511.5q0 365 126.5 529.5t377.5 164.5q118 0 211 -33.5t186 -99.5zM627 66 q167 0 269.5 98.5t102.5 273.5t-103 274t-269 99q-167 0 -270 -99t-103 -274t103 -273.5t270 -98.5z" />
<glyph unicode="7" horiz-adv-x="1048" d="M381 0h-107l582 1221h-786l41 90h856v-82z" />
<glyph unicode="8" horiz-adv-x="1204" d="M940 707q69 -48 109.5 -133.5t40.5 -190.5q0 -194 -137 -301t-351 -107q-139 0 -248 45t-174 138.5t-65 222.5q0 105 40.5 190t108.5 134q-88 98 -88 247q0 121 58.5 210.5t154 133t213.5 43.5t213.5 -43.5t154 -133t58.5 -210.5q0 -147 -88 -245zM930 952q0 135 -86 216 t-242 81t-242 -81t-86 -216q0 -134 85.5 -211t242.5 -77t242.5 77t85.5 211zM872 647q-112 -74 -270 -74t-270 74q-119 -82 -119 -256q0 -87 30 -151t84.5 -101t122.5 -55t152 -18t152.5 18t122.5 55.5t84 102t30 151.5q0 178 -119 254z" />
<glyph unicode="9" horiz-adv-x="1220" d="M991 610h-8q-120 -196 -383 -196q-217 0 -347 122.5t-130 342.5q0 217 130.5 338.5t354.5 121.5q159 0 262 -65.5t159 -217.5t56 -397t-56 -397t-163 -219.5t-274 -67.5q-221 0 -408 134v94q185 -137 412 -137q205 0 297 124.5t98 419.5zM594 504q167 0 270 99t103 274 t-103 273.5t-270 98.5t-270 -98.5t-103 -273.5t103 -274t270 -99z" />
<glyph unicode=":" horiz-adv-x="516" d="M324 893h-131v131h131v-131zM324 0h-131v131h131v-131z" />
<glyph unicode=";" horiz-adv-x="516" d="M209 -176h-74l74 393h98zM324 893h-131v131h131v-131z" />
<glyph unicode="&#x3c;" horiz-adv-x="1409" d="M1217 266l-1065 322v94l1065 322v-99l-957 -270l957 -270v-99z" />
<glyph unicode="=" horiz-adv-x="1392" d="M1229 776h-1065v86h1065v-86zM1229 408h-1065v86h1065v-86z" />
<glyph unicode="&#x3e;" horiz-adv-x="1409" d="M1257 588l-1064 -322v99l956 270l-956 270v99l1064 -322v-94z" />
<glyph unicode="?" horiz-adv-x="950" d="M455 442h-99v103q0 52 11.5 92.5t41.5 82t59 71t87 83.5q87 81 124.5 152.5t37.5 147.5q0 96 -54.5 137t-166.5 41q-101 0 -184.5 -32t-168.5 -101v94q52 50 150 89.5t205 39.5q161 0 239 -66.5t78 -199.5q0 -112 -50 -194t-157 -185q-94 -90 -123.5 -135t-29.5 -117 v-103zM479 0h-131v131h131v-131z" />
<glyph unicode="@" horiz-adv-x="1970" d="M1294 -199v-94q-112 -59 -297 -59q-197 0 -360.5 68.5t-274 188.5t-171 285t-60.5 357t61 355t174 283.5t285.5 188.5t384.5 68q201 0 348 -47.5t250 -151t154 -271.5t51 -403q0 -291 -76 -442.5t-217 -151.5q-135 0 -203.5 79t-68.5 212h-8q-52 -74 -138.5 -112.5 t-195.5 -38.5q-198 0 -309 119.5t-111 310.5t111 310.5t311 119.5q107 0 194.5 -37.5t135.5 -112.5h6v127h94v-686q0 -108 48.5 -156.5t129.5 -48.5q94 0 146.5 124t52.5 368q0 220 -44 373.5t-135 247.5t-220.5 136t-309.5 42q-188 0 -341.5 -62t-253.5 -170.5t-154 -254 t-54 -314.5q0 -229 93.5 -414t267 -292t395.5 -107q189 0 309 63zM936 199q149 0 239.5 94.5t90.5 251.5t-90.5 250.5t-239.5 93.5q-150 0 -240 -93t-90 -251t90 -252t240 -94z" />
<glyph unicode="A" horiz-adv-x="1400" d="M1356 0h-103l-200 455h-705l-201 -455h-102l602 1368l-29 74h103zM1014 545l-23 51q-138 313 -286 668h-9q-29 -68 -129.5 -304t-156.5 -364l-23 -51h627z" />
<glyph unicode="B" horiz-adv-x="1306" d="M795 0h-594v1413h534q172 0 269.5 -100.5t97.5 -263.5q0 -199 -139 -301q102 -37 161.5 -128t59.5 -229q0 -187 -108.5 -289t-280.5 -102zM299 774h428q127 0 202 73.5t75 201.5t-75 201t-202 73h-428v-549zM299 90h487q136 0 217.5 83.5t81.5 217.5q0 126 -72.5 208 t-195.5 91q-37 -6 -82 -6h-436v-594z" />
<glyph unicode="C" horiz-adv-x="1400" d="M1278 229v-94q-197 -160 -465 -160q-317 0 -499.5 200t-182.5 534t182.5 533.5t499.5 199.5q268 0 465 -160v-94q-90 73 -210 118.5t-257 45.5q-182 0 -315.5 -84.5t-200 -228.5t-66.5 -330t66.5 -330t200 -228.5t315.5 -84.5q137 0 257 45t210 118z" />
<glyph unicode="D" horiz-adv-x="1499" d="M676 0h-475v1413h475q220 0 377.5 -90.5t236 -248.5t78.5 -367q0 -156 -45.5 -285.5t-131.5 -223.5t-218 -146t-297 -52zM299 90h360q291 0 451 167.5t160 449.5t-160 449t-451 167h-360v-1233z" />
<glyph unicode="E" horiz-adv-x="1282" d="M1122 0h-921v1413h901v-90h-803v-571h782l-41 -90h-741v-572h823v-90z" />
<glyph unicode="F" horiz-adv-x="1200" d="M999 662h-700v-662h-98v1413h880v-90h-782v-571h741z" />
<glyph unicode="G" horiz-adv-x="1536" d="M1360 -8h-29l-53 147h-8q-190 -164 -461 -164q-213 0 -368 96t-232.5 260.5t-77.5 377.5q0 159 45 292.5t129.5 232t215 153.5t292.5 55q317 0 506 -201v-94q-219 205 -506 205q-184 0 -317.5 -84.5t-200 -228.5t-66.5 -330q0 -187 66.5 -330.5t201 -228t320.5 -84.5 q134 0 250 43t195 124v408h-402l41 90h459v-739z" />
<glyph unicode="H" horiz-adv-x="1466" d="M1266 0h-99v662h-868v-662h-98v1413h98v-661h868v661h99v-1413z" />
<glyph unicode="I" horiz-adv-x="516" d="M307 0h-98v1413h98v-1413z" />
<glyph unicode="J" horiz-adv-x="1110" d="M827 412v911h-352l41 90h410v-1022q0 -207 -114.5 -311.5t-322.5 -104.5q-243 0 -428 140v94q195 -143 431 -143q165 0 250 83t85 263z" />
<glyph unicode="K" horiz-adv-x="1267" d="M1223 0h-127l-684 684l-113 -113v-571h-98v1413h98v-723l723 723h119l-697 -696h62z" />
<glyph unicode="L" horiz-adv-x="1105" d="M999 0h-798v1413h98v-1323h741z" />
<glyph unicode="M" horiz-adv-x="1943" d="M1882 0h-102l-197 702q-90 327 -141 525h-8q-69 -240 -164 -525l-232 -702h-151l-242 702q-110 317 -166 525h-8q-41 -207 -123 -525l-184 -702h-103l355 1372l-29 70h107l254 -740l210 -612h9q30 91 92 285.5t106 326.5l224 670l-21 70h111z" />
<glyph unicode="N" horiz-adv-x="1527" d="M1327 0h-115l-766 1057q-54 72 -143 205h-8q4 -140 4 -205v-1057h-98v1397l-33 45h106l807 -1112q17 -25 47 -66.5t54 -75.5t43 -63h8q-4 132 -4 205v1083h98v-1413z" />
<glyph unicode="O" horiz-adv-x="1613" d="M807 -25q-313 0 -494.5 201t-181.5 533t181.5 532.5t494.5 200.5t494.5 -200.5t181.5 -532.5t-181.5 -533t-494.5 -201zM807 66q180 0 312 84t198.5 228.5t66.5 330.5t-66.5 330.5t-198.5 228.5t-312 84q-136 0 -245.5 -48.5t-182 -134.5t-111.5 -203.5t-39 -256.5 t39 -256.5t111.5 -203.5t182 -134.5t245.5 -48.5z" />
<glyph unicode="P" horiz-adv-x="1261" d="M299 0h-98v1413h542q212 0 324.5 -105t112.5 -294t-112.5 -294.5t-324.5 -105.5h-444v-614zM299 705h424q177 0 267.5 78.5t90.5 232.5q0 307 -358 307h-424v-618z" />
<glyph unicode="Q" horiz-adv-x="1613" d="M1298 -115v-94q-99 -57 -219 -57q-135 0 -216.5 62t-100.5 181q-195 9 -338 103.5t-218 256t-75 372.5q0 332 181.5 532.5t494.5 200.5t494.5 -200.5t181.5 -532.5q0 -318 -167 -516.5t-456 -215.5q11 -79 63 -116t164 -37q63 0 107 13t104 48zM807 66q180 0 312 84 t198.5 228.5t66.5 330.5t-66.5 330.5t-198.5 228.5t-312 84q-136 0 -245.5 -48.5t-182 -134.5t-111.5 -203.5t-39 -256.5t39 -256.5t111.5 -203.5t182 -134.5t245.5 -48.5z" />
<glyph unicode="R" horiz-adv-x="1298" d="M1217 0h-111l-397 643h-410v-643h-98v1413h542q183 0 289.5 -104.5t106.5 -280.5q0 -157 -85.5 -258t-236.5 -123zM299 733h436q140 0 222.5 78t82.5 217t-82.5 217t-222.5 78h-436v-590z" />
<glyph unicode="S" horiz-adv-x="1280" d="M702 662l-131 38q-71 21 -123.5 41.5t-106.5 53t-88 71t-55.5 94.5t-21.5 125q0 170 120 263.5t329 93.5q274 0 462 -156v-94q-208 160 -464 160q-173 0 -261 -71t-88 -196q0 -116 79.5 -180t258.5 -117l131 -38q204 -61 305 -151.5t101 -246.5q0 -170 -116.5 -273.5 t-348.5 -103.5q-311 0 -549 199v94q106 -88 248.5 -145t302.5 -57q185 0 275 77t90 209q0 108 -75 179.5t-274 130.5z" />
<glyph unicode="T" horiz-adv-x="1236" d="M668 0h-99v1323h-503v90h1105v-90h-503v-1323z" />
<glyph unicode="U" horiz-adv-x="1433" d="M1151 459v954h98v-946q0 -234 -142 -363t-390 -129t-390.5 129t-142.5 363v946h99v-954q0 -179 115.5 -286t318.5 -107t318.5 107t115.5 286z" />
<glyph unicode="V" horiz-adv-x="1392" d="M756 0h-119l-576 1413h103l364 -895q105 -260 164 -422h8q59 162 164 422l365 895h102z" />
<glyph unicode="W" horiz-adv-x="2033" d="M1526 0h-156l-215 729q-81 269 -135 477h-8q-51 -205 -133 -477l-215 -729h-156l-438 1413h102l270 -870q111 -366 140 -461h8q47 175 131 461l246 835l-23 64h105l264 -899q81 -282 131 -461h8q44 152 139 461l271 870h102z" />
<glyph unicode="X" horiz-adv-x="1400" d="M1356 0h-115l-264 330q-193 244 -272 352h-9q-121 -164 -272 -352l-264 -330h-115l598 743l-537 670h115l314 -389q69 -84 161 -215h9q92 131 161 215l314 389h114l-536 -670z" />
<glyph unicode="Y" horiz-adv-x="1343" d="M721 0h-98v532l-566 881h107l231 -360q140 -218 273 -439h8q148 246 272 439l232 360h106l-565 -881v-532z" />
<glyph unicode="Z" horiz-adv-x="1409" d="M1266 0h-1127v70l975 1253h-934v90h1065v-70l-975 -1253h996v-90z" />
<glyph unicode="[" horiz-adv-x="686" d="M580 -205h-387v1741h387v-90h-289v-1561h289v-90z" />
<glyph unicode="\" horiz-adv-x="1040" d="M987 0h-115l-819 1413h115z" />
<glyph unicode="]" horiz-adv-x="684" d="M492 -205h-386v90h287v1561h-287v90h386v-1741z" />
<glyph unicode="^" horiz-adv-x="946" d="M868 729h-94l-301 655l-301 -655h-94l340 713h110z" />
<glyph unicode="_" horiz-adv-x="942" d="M942 -172h-942v90h942v-90z" />
<glyph unicode="`" horiz-adv-x="333" d="M272 1147h-73l-138 348h103z" />
<glyph unicode="a" horiz-adv-x="1327" d="M1143 -4h-29l-57 188h-8q-25 -37 -60 -71t-85 -66.5t-119 -52t-146 -19.5q-160 0 -280.5 71t-182 192.5t-61.5 275.5t61.5 275.5t182 192.5t280.5 71q140 0 241 -56.5t160 -136.5h9v164h94v-1028zM631 61q129 0 226.5 62.5t146.5 164.5t49 226t-49 226t-146.5 164.5 t-226.5 62.5t-226.5 -62.5t-146.5 -164.5t-49 -226t49 -226t146.5 -164.5t226.5 -62.5z" />
<glyph unicode="b" horiz-adv-x="1327" d="M213 -4h-29v1417l95 41v-594h8q26 36 60.5 67t83.5 61t116.5 47.5t144.5 17.5q237 0 378.5 -152t141.5 -387q0 -236 -142 -387.5t-376 -151.5q-82 0 -152.5 19.5t-120.5 53.5t-83 66.5t-59 69.5h-9zM696 61q129 0 226.5 62.5t146.5 164.5t49 226t-49 226t-146.5 164.5 t-226.5 62.5t-226.5 -62.5t-146.5 -164.5t-49 -226t49 -226t146.5 -164.5t226.5 -62.5z" />
<glyph unicode="c" horiz-adv-x="1118" d="M1008 188v-90q-123 -123 -338 -123q-249 0 -402 151.5t-153 387.5t153 387.5t402 151.5q215 0 338 -123v-90q-61 61 -151 94t-191 33q-202 0 -329.5 -126.5t-127.5 -326.5t127.5 -326.5t329.5 -126.5q101 0 191 33t151 94z" />
<glyph unicode="d" horiz-adv-x="1327" d="M1143 -4h-29l-57 188h-8q-25 -37 -58.5 -69.5t-83.5 -66.5t-121 -53.5t-153 -19.5q-234 0 -376 151.5t-142 387.5q0 235 141.5 387t378.5 152q77 0 144.5 -17.5t116.5 -47.5t83.5 -61t60.5 -67h9v553l94 41v-1458zM631 61q129 0 226.5 62.5t146.5 164.5t49 226t-49 226 t-146.5 164.5t-226.5 62.5t-226.5 -62.5t-146.5 -164.5t-49 -226t49 -226t146.5 -164.5t226.5 -62.5z" />
<glyph unicode="e" horiz-adv-x="1241" d="M1057 193v-91q-175 -127 -402 -127q-249 0 -394.5 145.5t-145.5 391.5t145 393.5t375 147.5q227 0 361 -146.5t134 -392.5v-47h-919q12 -191 127.5 -298.5t310.5 -107.5q214 0 408 132zM211 553h825q-11 197 -114 305.5t-285 108.5q-186 0 -301 -110t-125 -304z" />
<glyph unicode="f" horiz-adv-x="782" d="M336 0h-94v938h-205l41 86h164v174q0 157 81 237.5t226 80.5q136 0 262 -91v-90q-134 95 -262 95q-112 0 -162.5 -63t-50.5 -189v-154h389l-41 -86h-348v-938z" />
<glyph unicode="g" horiz-adv-x="1327" d="M1049 12v172h-9q-45 -82 -149 -145.5t-258 -63.5q-156 0 -275 71t-181 192.5t-62 275.5q0 235 142 387t380 152q141 0 238 -52.5t174 -140.5h8l57 172h29v-999q0 -231 -127 -349t-363 -118q-277 0 -477 153v95q96 -73 219 -117.5t258 -44.5q195 0 295.5 95t100.5 265z M631 61q129 0 226.5 62.5t146.5 164.5t49 226t-49 226t-146.5 164.5t-226.5 62.5t-226.5 -62.5t-146.5 -164.5t-49 -226t49 -226t146.5 -164.5t226.5 -62.5z" />
<glyph unicode="h" horiz-adv-x="1200" d="M1044 0h-94v655q0 152 -75 232t-220 80q-94 0 -169 -35t-118.5 -91t-66 -120t-22.5 -129v-592h-95v1413l95 41v-584h8q51 77 142.5 130t227.5 53q182 0 284.5 -101.5t102.5 -275.5v-676z" />
<glyph unicode="i" horiz-adv-x="479" d="M244 1217h-8l-93 94v8l93 94h8l92 -94v-8zM287 0h-94v1024h94v-1024z" />
<glyph unicode="j" horiz-adv-x="479" d="M244 1217h-8l-93 94v8l93 94h8l92 -94v-8zM193 -115v1139h94v-1159q0 -152 -70.5 -225.5t-196.5 -73.5q-65 0 -113.5 19.5t-111.5 62.5v90q125 -86 232 -86q88 0 127 53t39 180z" />
<glyph unicode="k" horiz-adv-x="1034" d="M997 0h-114l-449 520l-155 -145v-375h-95v1413l95 41v-965l569 535h123l-504 -471h53z" />
<glyph unicode="l" horiz-adv-x="479" d="M287 0h-94v1413l94 41v-1454z" />
<glyph unicode="m" horiz-adv-x="1884" d="M1729 -2h-95v659q0 151 -70.5 229.5t-201.5 78.5q-88 0 -159 -35t-113 -90.5t-64 -119.5t-22 -128v-592h-95v657q0 153 -70 231.5t-202 78.5q-88 0 -159 -35t-113 -91t-64 -120t-22 -129v-592h-95v1032h29l57 -176h9q31 50 73.5 90.5t119.5 73.5t169 33q129 0 217 -60.5 t125 -173.5q55 111 157 171.5t228 60.5q166 0 263.5 -100.5t97.5 -276.5v-676z" />
<glyph unicode="n" horiz-adv-x="1200" d="M1044 0h-94v655q0 152 -75 232t-220 80q-94 0 -169 -35t-118.5 -91t-66 -120t-22.5 -129v-592h-95v1032h29l57 -176h9q22 35 52 66.5t75 62.5t110 49.5t141 18.5q181 0 284 -101.5t103 -275.5v-676z" />
<glyph unicode="o" horiz-adv-x="1327" d="M1212 514q0 -109 -38 -207t-106.5 -172t-173 -117t-230.5 -43q-167 0 -293.5 74.5t-191 196t-64.5 268.5t64.5 268.5t191 196t293.5 74.5q126 0 230.5 -43t173 -117t106.5 -172t38 -207zM1118 514q0 125 -51 226.5t-155.5 164t-247.5 62.5q-108 0 -195 -36t-143.5 -98.5 t-86.5 -144t-30 -174.5t30 -174.5t86.5 -144t143.5 -98.5t195 -36q143 0 247.5 62.5t155.5 164t51 226.5z" />
<glyph unicode="p" horiz-adv-x="1327" d="M279 -410h-95v1442h29l57 -172h9q77 88 173.5 140.5t237.5 52.5q238 0 380 -152t142 -387q0 -234 -142 -386.5t-376 -152.5q-84 0 -156 20.5t-120.5 54t-80 66.5t-50.5 68h-8v-594zM696 61q129 0 226.5 62.5t146.5 164.5t49 226t-49 226t-146.5 164.5t-226.5 62.5 t-226.5 -62.5t-146.5 -164.5t-49 -226t49 -226t146.5 -164.5t226.5 -62.5z" />
<glyph unicode="q" horiz-adv-x="1327" d="M1143 -410h-94v594h-9q-19 -35 -50.5 -68t-80 -66.5t-120.5 -54t-156 -20.5q-234 0 -376 152.5t-142 386.5q0 235 142 387t380 152q141 0 238 -52.5t174 -140.5h8l57 172h29v-1442zM631 61q129 0 226.5 62.5t146.5 164.5t49 226t-49 226t-146.5 164.5t-226.5 62.5 t-226.5 -62.5t-146.5 -164.5t-49 -226t49 -226t146.5 -164.5t226.5 -62.5z" />
<glyph unicode="r" horiz-adv-x="851" d="M279 0h-95v1032h29l57 -160h9q39 76 123 128.5t221 52.5q108 0 172 -39v-90q-71 43 -179 43q-161 0 -249 -102.5t-88 -256.5v-608z" />
<glyph unicode="s" horiz-adv-x="976" d="M535 465l-97 29q-63 19 -108.5 39.5t-93 54.5t-72.5 85.5t-25 117.5q0 123 88.5 191.5t249.5 68.5q210 0 340 -113v-90q-150 117 -342 117q-116 0 -179 -45.5t-63 -131.5q0 -81 57.5 -125.5t178.5 -80.5l96 -29q146 -43 221.5 -112.5t75.5 -190.5q0 -127 -84.5 -201 t-253.5 -74q-127 0 -230.5 41t-174.5 105v90q79 -65 182 -107.5t217 -42.5q121 0 185.5 50t64.5 143q0 73 -50.5 122.5t-182.5 88.5z" />
<glyph unicode="t" horiz-adv-x="868" d="M807 156v-90q-67 -47 -125 -69t-125 -22q-137 0 -216 81t-79 237v645h-225l41 86h184v274l94 41v-315h389l-40 -86h-349v-625q0 -252 199 -252q118 0 252 95z" />
<glyph unicode="u" horiz-adv-x="1204" d="M1020 -25h-29l-57 197h-8q-123 -197 -387 -197q-180 0 -279.5 91t-99.5 266v692h94v-672q0 -291 283 -291q82 0 149 23t110.5 61t73.5 87.5t43 100.5t13 103v588h94v-1049z" />
<glyph unicode="v" horiz-adv-x="1064" d="M590 0h-115l-438 1024h102l203 -475q131 -305 186 -453h9q46 126 186 453l203 475h102z" />
<glyph unicode="w" horiz-adv-x="1593" d="M1221 0h-140l-192 565q-53 154 -88 279h-8q-35 -126 -88 -279l-193 -565h-139l-336 1024h102l203 -616q47 -140 98 -318h9q56 187 100 318l196 579l-20 66h100l219 -645q54 -162 101 -318h8q51 178 98 318l203 616h102z" />
<glyph unicode="x" horiz-adv-x="999" d="M963 0h-103l-196 250q-111 142 -160 217h-8q-56 -84 -160 -217l-197 -250h-102l403 520l-383 504h103l205 -262q69 -86 131 -178h8q62 92 131 178l205 262h102l-383 -496z" />
<glyph unicode="y" horiz-adv-x="972" d="M395 -410h-102l170 451h-41l-385 983h102l207 -528q82 -207 143 -387h9q52 165 137 387l199 528h102z" />
<glyph unicode="z" horiz-adv-x="1110" d="M983 0h-860v66l717 872h-676v86h799v-66l-717 -872h737v-86z" />
<glyph unicode="{" horiz-adv-x="749" d="M614 -205h-135q-118 0 -173.5 54.5t-55.5 138.5v516q0 56 -15 86.5t-55 30.5h-74v90h74q40 0 55 30.5t15 85.5v496q0 99 54.5 156t174.5 57h135v-90h-135q-72 0 -101.5 -28.5t-29.5 -94.5v-496q0 -103 -61 -161q61 -58 61 -162v-516q0 -52 30 -77.5t101 -25.5h135v-90z " />
<glyph unicode="|" horiz-adv-x="483" d="M291 -287h-98v1700h98v-1700z" />
<glyph unicode="}" horiz-adv-x="749" d="M270 -205h-135v90h135q71 0 101 25.5t30 77.5v516q0 102 60 162q-60 60 -60 161v496q0 66 -29.5 94.5t-101.5 28.5h-135v90h135q120 0 175 -57t55 -156v-496q0 -56 14.5 -86t54.5 -30h74v-90h-74q-40 0 -54.5 -30.5t-14.5 -86.5v-516q0 -84 -56 -138.5t-174 -54.5z" />
<glyph unicode="~" horiz-adv-x="1196" d="M995 786h95q0 -178 -59.5 -260t-190.5 -82q-59 0 -106.5 16.5t-78.5 42.5t-57 57.5t-49.5 63.5t-49 58t-62 42.5t-81.5 16.5q-85 0 -120 -59.5t-35 -196.5h-95q0 178 59.5 260t190.5 82q60 0 107.5 -16.5t79 -42.5t57.5 -57.5t49.5 -63.5t49 -58t62 -42.5t81.5 -16.5 q84 0 118.5 59.5t34.5 196.5z" />
<glyph unicode="&#xa1;" horiz-adv-x="630" d="M381 893h-131v131h131v-131zM377 -389h-123l20 971h82z" />
<glyph unicode="&#xa2;" horiz-adv-x="1118" d="M705 -193h-95v170q-226 20 -360.5 168t-134.5 369t134.5 369t360.5 168v170h95v-168q189 -9 303 -123v-90q-55 55 -134.5 87.5t-168.5 37.5v-902q89 5 168.5 37.5t134.5 87.5v-90q-114 -114 -303 -123v-168zM610 63v902q-181 -19 -291 -142.5t-110 -308.5t110 -308.5 t291 -142.5z" />
<glyph unicode="&#xa3;" horiz-adv-x="1056" d="M926 0h-791v86q126 61 165.5 123.5t39.5 196.5v303h-205l41 90h164v325q0 156 81 237t224 81q73 0 131.5 -21.5t128.5 -68.5v-90q-142 94 -262 94q-209 0 -209 -252v-305h430l-41 -90h-389v-344q0 -102 -27.5 -165t-93.5 -110h654z" />
<glyph unicode="&#xa4;" horiz-adv-x="1091" d="M903 344l-129 131q-95 -61 -231 -61q-135 0 -226 57l-129 -127l-61 62l121 118q-107 107 -107 267q0 159 107 266l-121 119l61 61l129 -127q91 57 224 57q134 0 231 -59l131 129l62 -61l-123 -123q102 -102 102 -262q0 -161 -102 -263l121 -122zM862 791q0 78 -35 146 t-109.5 112.5t-174.5 44.5t-174.5 -44.5t-110 -112.5t-35.5 -146t35.5 -146t110 -113t174.5 -45t174.5 45t109.5 113t35 146z" />
<glyph unicode="&#xa5;" horiz-adv-x="1343" d="M1135 274h-414v-274h-98v274h-410l41 86h369v164h-410l41 86h319l-516 803h107l231 -360q140 -218 273 -439h8q148 246 272 439l232 360h106l-516 -803h406l-41 -86h-414v-164h455z" />
<glyph unicode="&#xa6;" horiz-adv-x="483" d="M291 692h-98v721h98v-721zM291 -287h-98v721h98v-721z" />
<glyph unicode="&#xa7;" horiz-adv-x="1013" d="M551 301l-96 29q-139 41 -219 115t-80 198q0 194 221 268q-102 38 -161.5 101.5t-59.5 167.5q0 125 88.5 193.5t249.5 68.5q196 0 340 -113v-90q-150 117 -342 117q-116 0 -179 -45t-63 -131q0 -82 57.5 -126.5t177.5 -80.5l97 -29q149 -45 223 -115t74 -198 q0 -101 -49.5 -168.5t-155.5 -106.5q99 -39 152 -103.5t53 -166.5q0 -127 -84.5 -200.5t-253.5 -73.5q-231 0 -406 145v90q78 -65 181.5 -107t218.5 -42q121 0 185 49.5t64 142.5q0 73 -50.5 122.5t-182.5 88.5zM516 866q-148 -33 -207 -90.5t-59 -138.5q0 -84 60.5 -135 t209.5 -94q144 30 204 85t60 146q0 86 -57 134.5t-211 92.5z" />
<glyph unicode="&#xa8;" horiz-adv-x="536" d="M193 1188h-132v131h132v-131zM475 1188h-131v131h131v-131z" />
<glyph unicode="&#xa9;" horiz-adv-x="1802" d="M1671 709q0 -214 -94.5 -380.5t-270 -260t-405.5 -93.5t-405.5 93.5t-270 260t-94.5 380.5t94.5 380t270 259.5t405.5 93.5t405.5 -93.5t270 -259.5t94.5 -380zM1573 709q0 290 -186.5 466.5t-485.5 176.5t-485.5 -176.5t-186.5 -466.5t186.5 -466.5t485.5 -176.5 t485.5 176.5t186.5 466.5zM1206 489v-90q-49 -44 -105.5 -68t-144.5 -24q-189 0 -301 112t-112 290t112 289.5t301 111.5q88 0 144.5 -24t105.5 -68v-90q-111 96 -250 96q-149 0 -234 -91t-85 -224t85 -224.5t234 -91.5q139 0 250 96z" />
<glyph unicode="&#xaa;" horiz-adv-x="935" d="M834 684h-19l-63 147h-11q-95 -157 -290 -157q-167 0 -268 107.5t-101 275.5q0 167 101.5 276t267.5 109q105 0 177.5 -43t112.5 -105h7v125h86v-735zM449 758q128 0 204 86t76 213q0 128 -76 214.5t-204 86.5t-203.5 -86.5t-75.5 -214.5q0 -127 75.5 -213t203.5 -86z " />
<glyph unicode="&#xab;" horiz-adv-x="872" d="M487 195h-94l-246 335v21l246 336h94l-245 -342v-8zM705 195h-95l-245 335v21l245 336h95l-246 -342v-8z" />
<glyph unicode="&#xac;" horiz-adv-x="1335" d="M1200 209h-94v446h-971v86h1065v-532z" />
<glyph unicode="&#xad;" horiz-adv-x="851" d="M774 496h-696v90h696v-90z" />
<glyph unicode="&#xae;" horiz-adv-x="946" d="M868 1085q0 -167 -107.5 -271.5t-287.5 -104.5t-287.5 104.5t-107.5 271.5q0 168 107.5 272.5t287.5 104.5t287.5 -104.5t107.5 -272.5zM795 1085q0 139 -87 225.5t-235 86.5t-234.5 -86.5t-86.5 -225.5t86.5 -225t234.5 -86q149 0 235.5 86t86.5 225zM623 913h-70 l-88 136h-55v-136h-58v340h135q53 0 84 -26.5t31 -75.5q0 -38 -20 -63.5t-54 -34.5zM410 1102h77q30 0 46 13.5t16 35.5t-16 35.5t-46 13.5h-77v-98z" />
<glyph unicode="&#xaf;" horiz-adv-x="614" d="M553 1280h-492v82h492v-82z" />
<glyph unicode="&#xb0;" horiz-adv-x="753" d="M676 1153q0 -119 -80 -200t-219 -81t-219 81t-80 200t80 200t219 81t219 -81t80 -200zM606 1153q0 94 -61.5 158.5t-167.5 64.5t-168 -64.5t-62 -158.5t62 -158.5t168 -64.5t167.5 64.5t61.5 158.5z" />
<glyph unicode="&#xb1;" horiz-adv-x="1392" d="M1229 776h-486v-284h-94v284h-485v86h485v285h94v-285h486v-86zM1229 227h-1065v86h1065v-86z" />
<glyph unicode="&#xb2;" horiz-adv-x="733" d="M618 909h-487v74l256 246q117 111 117 201q0 102 -127 102q-93 0 -221 -70v86q106 66 227 66q108 0 159.5 -49.5t51.5 -128.5q0 -71 -40 -137t-114 -136l-178 -172h356v-82z" />
<glyph unicode="&#xb3;" horiz-adv-x="659" d="M98 969v86q38 -26 60.5 -38.5t62 -23t86.5 -10.5q172 0 172 121t-176 121h-117l41 82h97q61 0 98 29.5t37 84.5q0 54 -38.5 82.5t-109.5 28.5q-91 0 -192 -66v86q95 62 203 62q104 0 165.5 -48.5t61.5 -144.5q0 -56 -21.5 -98.5t-64.5 -56.5q106 -37 106 -160 q0 -97 -64 -151t-194 -54q-70 0 -115 16t-98 52z" />
<glyph unicode="&#xb4;" horiz-adv-x="333" d="M135 1147h-74l109 348h102z" />
<glyph unicode="&#xb5;" horiz-adv-x="1245" d="M1053 -25h-21l-65 152h-9q-112 -152 -342 -152q-211 0 -319 134h-10v-560l-94 -41v1516h94v-637q0 -155 90 -240.5t246 -85.5t245.5 85.5t89.5 240.5v637h95v-1049z" />
<glyph unicode="&#xb6;" horiz-adv-x="1249" d="M1057 -287h-99v1610h-245v-1610h-99v766q-254 0 -387 129t-133 338t133 338t387 129h443v-1700z" />
<glyph unicode="&#xb7;" horiz-adv-x="516" d="M324 479h-131v131h131v-131z" />
<glyph unicode="&#xb8;" horiz-adv-x="544" d="M61 -451v82q95 -49 181 -49q151 0 151 111q0 110 -147 110q-88 0 -185 -53v70l136 221h90q-55 -104 -107 -172q43 16 92 16q96 0 153.5 -51t57.5 -143q0 -91 -59 -141t-168 -50q-97 0 -195 49z" />
<glyph unicode="&#xb9;" horiz-adv-x="544" d="M352 909h-90v615h-201l41 82h250v-697z" />
<glyph unicode="&#xba;" horiz-adv-x="946" d="M864 1059q0 -161 -106 -272t-285 -111t-285 111t-106 272t106 272t285 111t285 -111t106 -272zM774 1059q0 129 -79.5 214t-221.5 85t-221.5 -85t-79.5 -214t79.5 -214t221.5 -85t221.5 85t79.5 214z" />
<glyph unicode="&#xbb;" horiz-adv-x="872" d="M262 195h-94l246 342v8l-246 342h94l246 -336v-21zM479 195h-94l246 342v8l-246 342h94l246 -336v-21z" />
<glyph unicode="&#xbc;" horiz-adv-x="1685" d="M352 717h-90v614h-201l41 82h250v-696zM365 0h-111l1024 1413h111zM1489 0h-90v174h-357v82l357 440h90v-440h82v-82h-82v-174zM1399 256v322l-260 -322h260z" />
<glyph unicode="&#xbd;" horiz-adv-x="1771" d="M352 717h-90v614h-201l41 82h250v-696zM365 0h-111l1024 1413h111zM1657 0h-488v74l256 245q117 111 117 201q0 103 -127 103q-93 0 -221 -70v86q106 66 227 66q108 0 159.5 -49.5t51.5 -129.5q0 -71 -39.5 -136.5t-113.5 -135.5l-179 -172h357v-82z" />
<glyph unicode="&#xbe;" horiz-adv-x="1808" d="M465 1077v-8q104 -36 104 -156q0 -97 -64 -150.5t-194 -53.5q-71 0 -116 16t-97 51v86q37 -25 60 -37.5t62.5 -23t86.5 -10.5q172 0 172 120q0 121 -176 121h-117l41 82h97q61 0 98 30t37 85q0 54 -38.5 82t-109.5 28q-93 0 -192 -65v86q94 61 203 61q105 0 166 -48.5 t61 -145.5q0 -55 -21.5 -95.5t-62.5 -54.5zM487 0h-110l1024 1413h110zM1612 0h-90v174h-357v82l357 440h90v-440h82v-82h-82v-174zM1522 256v322l-260 -322h260z" />
<glyph unicode="&#xbf;" horiz-adv-x="950" d="M602 893h-131v131h131v-131zM807 -195v-94q-85 -67 -164.5 -98t-189.5 -31q-163 0 -240.5 66.5t-77.5 199.5q0 59 14 109.5t44.5 97.5t63 84t85.5 88q51 49 73 72.5t45 55t29.5 59t6.5 65.5v103h98v-103q0 -52 -11.5 -92.5t-41.5 -82t-59 -71t-87 -83.5 q-87 -81 -124.5 -152.5t-37.5 -147.5q0 -96 54 -137t166 -41q102 0 185.5 32t168.5 101z" />
<glyph unicode="&#xc0;" horiz-adv-x="1400" d="M713 1536h-74l-137 348h102zM1356 0h-103l-200 455h-705l-201 -455h-102l602 1368l-29 74h103zM1014 545l-23 51q-138 313 -286 668h-9q-29 -68 -129.5 -304t-156.5 -364l-23 -51h627z" />
<glyph unicode="&#xc1;" horiz-adv-x="1400" d="M735 1536h-73l108 348h102zM1356 0h-103l-200 455h-705l-201 -455h-102l602 1368l-29 74h103zM1014 545l-23 51q-138 313 -286 668h-9q-29 -68 -129.5 -304t-156.5 -364l-23 -51h627z" />
<glyph unicode="&#xc2;" horiz-adv-x="1400" d="M991 1536h-106l-168 291l-168 -291h-107l226 348h98zM1356 0h-103l-200 455h-705l-201 -455h-102l602 1368l-29 74h103zM1014 545l-23 51q-138 313 -286 668h-9q-29 -68 -129.5 -304t-156.5 -364l-23 -51h627z" />
<glyph unicode="&#xc3;" horiz-adv-x="1400" d="M924 1765h90q0 -237 -158 -237q-45 0 -83.5 20t-64 48t-47.5 56t-47 48t-51 20q-36 0 -52.5 -37.5t-16.5 -117.5h-91q0 237 158 237q45 0 83.5 -20t64 -48t47.5 -56t47 -48t51 -20q37 0 53.5 37.5t16.5 117.5zM1356 0h-103l-200 455h-705l-201 -455h-102l602 1368l-29 74 h103zM1014 545l-23 51q-138 313 -286 668h-9q-29 -68 -129.5 -304t-156.5 -364l-23 -51h627z" />
<glyph unicode="&#xc4;" horiz-adv-x="1400" d="M633 1536h-131v131h131v-131zM915 1536h-131v131h131v-131zM1356 0h-103l-200 455h-705l-201 -455h-102l602 1368l-29 74h103zM1014 545l-23 51q-138 313 -286 668h-9q-29 -68 -129.5 -304t-156.5 -364l-23 -51h627z" />
<glyph unicode="&#xc5;" horiz-adv-x="1400" d="M897 1702q0 -73 -55.5 -123.5t-132.5 -50.5t-133 50.5t-56 123.5t56 123.5t133 50.5t132.5 -50.5t55.5 -123.5zM815 1702q0 41 -29 70.5t-77 29.5t-77.5 -29.5t-29.5 -70.5t29.5 -70.5t77.5 -29.5t77 29.5t29 70.5zM1356 0h-103l-200 455h-705l-201 -455h-102l602 1368 l-29 74h103zM1014 545l-23 51q-138 313 -286 668h-9q-29 -68 -129.5 -304t-156.5 -364l-23 -51h627z" />
<glyph unicode="&#xc6;" horiz-adv-x="1884" d="M1724 0h-880v455h-496l-201 -455h-102l590 1339l-29 74h1098v-90h-762v-571h700l-40 -90h-660v-572h782v-90zM844 545v778h-123l-334 -778h457z" />
<glyph unicode="&#xc7;" horiz-adv-x="1400" d="M659 -451v82q95 -49 181 -49q151 0 151 111q0 110 -147 110q-88 0 -185 -53v70l97 157q-291 19 -458 216.5t-167 515.5q0 334 182.5 533.5t499.5 199.5q268 0 465 -160v-94q-90 73 -210 118.5t-257 45.5q-182 0 -315.5 -84.5t-200 -228.5t-66.5 -330t66.5 -330 t200 -228.5t315.5 -84.5q137 0 257 45t210 118v-94q-185 -150 -430 -160q-27 -46 -70 -106q43 16 92 16q96 0 153.5 -51t57.5 -143q0 -91 -59 -141t-168 -50q-97 0 -195 49z" />
<glyph unicode="&#xc8;" horiz-adv-x="1282" d="M719 1536h-74l-137 348h102zM1122 0h-921v1413h901v-90h-803v-571h782l-41 -90h-741v-572h823v-90z" />
<glyph unicode="&#xc9;" horiz-adv-x="1282" d="M664 1536h-74l108 348h103zM1122 0h-921v1413h901v-90h-803v-571h782l-41 -90h-741v-572h823v-90z" />
<glyph unicode="&#xca;" horiz-adv-x="1282" d="M928 1536h-107l-168 291l-168 -291h-106l225 348h98zM1122 0h-921v1413h901v-90h-803v-571h782l-41 -90h-741v-572h823v-90z" />
<glyph unicode="&#xcb;" horiz-adv-x="1282" d="M578 1536h-132v131h132v-131zM860 1536h-131v131h131v-131zM1122 0h-921v1413h901v-90h-803v-571h782l-41 -90h-741v-572h823v-90z" />
<glyph unicode="&#xcc;" horiz-adv-x="516" d="M307 1536h-74l-137 348h103zM307 0h-98v1413h98v-1413z" />
<glyph unicode="&#xcd;" horiz-adv-x="516" d="M281 1536h-74l108 348h103zM307 0h-98v1413h98v-1413z" />
<glyph unicode="&#xce;" horiz-adv-x="516" d="M532 1536h-106l-168 291l-168 -291h-106l225 348h98zM307 0h-98v1413h98v-1413z" />
<glyph unicode="&#xcf;" horiz-adv-x="516" d="M182 1536h-131v131h131v-131zM465 1536h-131v131h131v-131zM307 0h-98v1413h98v-1413z" />
<glyph unicode="&#xd0;" horiz-adv-x="1540" d="M717 0h-475v662h-201v90h201v661h475q220 0 377.5 -90.5t236 -248.5t78.5 -367q0 -156 -45.5 -285.5t-131.5 -223.5t-218 -146t-297 -52zM340 90h360q291 0 451 167.5t160 449.5t-160 449t-451 167h-360v-571h479v-90h-479v-572z" />
<glyph unicode="&#xd1;" horiz-adv-x="1527" d="M971 1765h90q0 -237 -158 -237q-45 0 -83.5 20t-64 48t-47.5 56t-47 48t-51 20q-36 0 -52.5 -37.5t-16.5 -117.5h-90q0 237 157 237q45 0 83.5 -20t64 -48t47.5 -56t47 -48t51 -20q37 0 53.5 37.5t16.5 117.5zM1327 0h-115l-766 1057q-54 72 -143 205h-8q4 -140 4 -205 v-1057h-98v1397l-33 45h106l807 -1112q17 -25 47 -66.5t54 -75.5t43 -63h8q-4 132 -4 205v1083h98v-1413z" />
<glyph unicode="&#xd2;" horiz-adv-x="1613" d="M860 1536h-74l-137 348h103zM807 -25q-313 0 -494.5 201t-181.5 533t181.5 532.5t494.5 200.5t494.5 -200.5t181.5 -532.5t-181.5 -533t-494.5 -201zM807 66q180 0 312 84t198.5 228.5t66.5 330.5t-66.5 330.5t-198.5 228.5t-312 84q-136 0 -245.5 -48.5t-182 -134.5 t-111.5 -203.5t-39 -256.5t39 -256.5t111.5 -203.5t182 -134.5t245.5 -48.5z" />
<glyph unicode="&#xd3;" horiz-adv-x="1613" d="M846 1536h-74l109 348h102zM807 -25q-313 0 -494.5 201t-181.5 533t181.5 532.5t494.5 200.5t494.5 -200.5t181.5 -532.5t-181.5 -533t-494.5 -201zM807 66q180 0 312 84t198.5 228.5t66.5 330.5t-66.5 330.5t-198.5 228.5t-312 84q-136 0 -245.5 -48.5t-182 -134.5 t-111.5 -203.5t-39 -256.5t39 -256.5t111.5 -203.5t182 -134.5t245.5 -48.5z" />
<glyph unicode="&#xd4;" horiz-adv-x="1613" d="M1090 1536h-107l-168 291l-168 -291h-106l225 348h98zM807 -25q-313 0 -494.5 201t-181.5 533t181.5 532.5t494.5 200.5t494.5 -200.5t181.5 -532.5t-181.5 -533t-494.5 -201zM807 66q180 0 312 84t198.5 228.5t66.5 330.5t-66.5 330.5t-198.5 228.5t-312 84 q-136 0 -245.5 -48.5t-182 -134.5t-111.5 -203.5t-39 -256.5t39 -256.5t111.5 -203.5t182 -134.5t245.5 -48.5z" />
<glyph unicode="&#xd5;" horiz-adv-x="1613" d="M1030 1765h90q0 -237 -157 -237q-45 0 -83.5 20t-64 48t-47.5 56t-47 48t-51 20q-37 0 -53.5 -37.5t-16.5 -117.5h-90q0 237 158 237q45 0 83.5 -20t64 -48t47.5 -56t47 -48t51 -20q36 0 52.5 37.5t16.5 117.5zM807 -25q-313 0 -494.5 201t-181.5 533t181.5 532.5 t494.5 200.5t494.5 -200.5t181.5 -532.5t-181.5 -533t-494.5 -201zM807 66q180 0 312 84t198.5 228.5t66.5 330.5t-66.5 330.5t-198.5 228.5t-312 84q-136 0 -245.5 -48.5t-182 -134.5t-111.5 -203.5t-39 -256.5t39 -256.5t111.5 -203.5t182 -134.5t245.5 -48.5z" />
<glyph unicode="&#xd6;" horiz-adv-x="1613" d="M739 1536h-131v131h131v-131zM1022 1536h-131v131h131v-131zM807 -25q-313 0 -494.5 201t-181.5 533t181.5 532.5t494.5 200.5t494.5 -200.5t181.5 -532.5t-181.5 -533t-494.5 -201zM807 66q180 0 312 84t198.5 228.5t66.5 330.5t-66.5 330.5t-198.5 228.5t-312 84 q-136 0 -245.5 -48.5t-182 -134.5t-111.5 -203.5t-39 -256.5t39 -256.5t111.5 -203.5t182 -134.5t245.5 -48.5z" />
<glyph unicode="&#xd7;" horiz-adv-x="1146" d="M946 197l-373 372l-372 -372l-66 65l373 373l-373 373l66 65l372 -373l373 373l66 -65l-373 -373l373 -373z" />
<glyph unicode="&#xd8;" horiz-adv-x="1613" d="M221 -49l-67 55l149 180q-172 197 -172 523q0 332 181.5 532.5t494.5 200.5q255 0 430 -142l139 166l68 -55l-141 -170q180 -198 180 -532q0 -332 -181.5 -533t-494.5 -201q-263 0 -440 150zM369 262l807 965q-147 125 -369 125q-136 0 -245.5 -48.5t-182 -134.5 t-111.5 -203.5t-39 -256.5q0 -268 140 -447zM1237 1165l-809 -966q152 -133 379 -133q180 0 312 84t198.5 228.5t66.5 330.5q0 280 -147 456z" />
<glyph unicode="&#xd9;" horiz-adv-x="1433" d="M762 1536h-74l-137 348h102zM1151 459v954h98v-946q0 -234 -142 -363t-390 -129t-390.5 129t-142.5 363v946h99v-954q0 -179 115.5 -286t318.5 -107t318.5 107t115.5 286z" />
<glyph unicode="&#xda;" horiz-adv-x="1433" d="M750 1536h-74l108 348h103zM1151 459v954h98v-946q0 -234 -142 -363t-390 -129t-390.5 129t-142.5 363v946h99v-954q0 -179 115.5 -286t318.5 -107t318.5 107t115.5 286z" />
<glyph unicode="&#xdb;" horiz-adv-x="1433" d="M991 1536h-106l-168 291l-168 -291h-107l226 348h98zM1151 459v954h98v-946q0 -234 -142 -363t-390 -129t-390.5 129t-142.5 363v946h99v-954q0 -179 115.5 -286t318.5 -107t318.5 107t115.5 286z" />
<glyph unicode="&#xdc;" horiz-adv-x="1433" d="M641 1536h-131v131h131v-131zM924 1536h-131v131h131v-131zM1151 459v954h98v-946q0 -234 -142 -363t-390 -129t-390.5 129t-142.5 363v946h99v-954q0 -179 115.5 -286t318.5 -107t318.5 107t115.5 286z" />
<glyph unicode="&#xdd;" horiz-adv-x="1343" d="M702 1536h-73l108 348h103zM721 0h-98v532l-566 881h107l231 -360q140 -218 273 -439h8q148 246 272 439l232 360h106l-565 -881v-532z" />
<glyph unicode="&#xde;" horiz-adv-x="1189" d="M711 362h-404v-362h-98v1413h98v-362h404q109 0 187.5 -26t123.5 -74t65.5 -108t20.5 -136t-20.5 -136t-65.5 -108.5t-123.5 -74.5t-187.5 -26zM307 453h395q164 0 236 66.5t72 187.5t-72 187.5t-236 66.5h-395v-508z" />
<glyph unicode="&#xdf;" horiz-adv-x="1208" d="M446 31v94q112 -59 230 -59q144 0 227.5 83.5t83.5 231.5q0 147 -83.5 229t-235.5 82h-222l41 90h127q332 0 332 285t-332 285q-331 0 -331 -285v-1067h-99v1087q0 179 114.5 267t317.5 88q428 0 428 -377q0 -235 -172 -322q99 -44 156 -134.5t57 -229.5 q0 -103 -32.5 -182t-90 -126.5t-131.5 -71.5t-161 -24q-118 0 -224 56z" />
<glyph unicode="&#xe0;" horiz-adv-x="1327" d="M707 1147h-74l-137 348h102zM1143 -4h-29l-57 188h-8q-25 -37 -60 -71t-85 -66.5t-119 -52t-146 -19.5q-160 0 -280.5 71t-182 192.5t-61.5 275.5t61.5 275.5t182 192.5t280.5 71q140 0 241 -56.5t160 -136.5h9v164h94v-1028zM631 61q129 0 226.5 62.5t146.5 164.5 t49 226t-49 226t-146.5 164.5t-226.5 62.5t-226.5 -62.5t-146.5 -164.5t-49 -226t49 -226t146.5 -164.5t226.5 -62.5z" />
<glyph unicode="&#xe1;" horiz-adv-x="1327" d="M696 1147h-73l108 348h103zM1143 -4h-29l-57 188h-8q-25 -37 -60 -71t-85 -66.5t-119 -52t-146 -19.5q-160 0 -280.5 71t-182 192.5t-61.5 275.5t61.5 275.5t182 192.5t280.5 71q140 0 241 -56.5t160 -136.5h9v164h94v-1028zM631 61q129 0 226.5 62.5t146.5 164.5t49 226 t-49 226t-146.5 164.5t-226.5 62.5t-226.5 -62.5t-146.5 -164.5t-49 -226t49 -226t146.5 -164.5t226.5 -62.5z" />
<glyph unicode="&#xe2;" horiz-adv-x="1327" d="M936 1147h-107l-167 291l-168 -291h-107l225 348h99zM1143 -4h-29l-57 188h-8q-25 -37 -60 -71t-85 -66.5t-119 -52t-146 -19.5q-160 0 -280.5 71t-182 192.5t-61.5 275.5t61.5 275.5t182 192.5t280.5 71q140 0 241 -56.5t160 -136.5h9v164h94v-1028zM631 61 q129 0 226.5 62.5t146.5 164.5t49 226t-49 226t-146.5 164.5t-226.5 62.5t-226.5 -62.5t-146.5 -164.5t-49 -226t49 -226t146.5 -164.5t226.5 -62.5z" />
<glyph unicode="&#xe3;" horiz-adv-x="1327" d="M874 1376h91q0 -237 -158 -237q-45 0 -83.5 20t-64 48t-47.5 56t-47 48t-51 20q-37 0 -53.5 -37.5t-16.5 -117.5h-90q0 237 158 237q45 0 83.5 -20t64 -48t47.5 -56t47 -48t51 -20q36 0 52.5 37.5t16.5 117.5zM1143 -4h-29l-57 188h-8q-25 -37 -60 -71t-85 -66.5 t-119 -52t-146 -19.5q-160 0 -280.5 71t-182 192.5t-61.5 275.5t61.5 275.5t182 192.5t280.5 71q140 0 241 -56.5t160 -136.5h9v164h94v-1028zM631 61q129 0 226.5 62.5t146.5 164.5t49 226t-49 226t-146.5 164.5t-226.5 62.5t-226.5 -62.5t-146.5 -164.5t-49 -226t49 -226 t146.5 -164.5t226.5 -62.5z" />
<glyph unicode="&#xe4;" horiz-adv-x="1327" d="M586 1147h-131v131h131v-131zM868 1147h-131v131h131v-131zM1143 -4h-29l-57 188h-8q-25 -37 -60 -71t-85 -66.5t-119 -52t-146 -19.5q-160 0 -280.5 71t-182 192.5t-61.5 275.5t61.5 275.5t182 192.5t280.5 71q140 0 241 -56.5t160 -136.5h9v164h94v-1028zM631 61 q129 0 226.5 62.5t146.5 164.5t49 226t-49 226t-146.5 164.5t-226.5 62.5t-226.5 -62.5t-146.5 -164.5t-49 -226t49 -226t146.5 -164.5t226.5 -62.5z" />
<glyph unicode="&#xe5;" horiz-adv-x="1327" d="M850 1313q0 -73 -55.5 -123.5t-132.5 -50.5t-133 50.5t-56 123.5t56 123.5t133 50.5t132.5 -50.5t55.5 -123.5zM768 1313q0 41 -29 70.5t-77 29.5t-77.5 -29.5t-29.5 -70.5t29.5 -71t77.5 -30t77 29.5t29 71.5zM1143 -4h-29l-57 188h-8q-25 -37 -60 -71t-85 -66.5 t-119 -52t-146 -19.5q-160 0 -280.5 71t-182 192.5t-61.5 275.5t61.5 275.5t182 192.5t280.5 71q140 0 241 -56.5t160 -136.5h9v164h94v-1028zM631 61q129 0 226.5 62.5t146.5 164.5t49 226t-49 226t-146.5 164.5t-226.5 62.5t-226.5 -62.5t-146.5 -164.5t-49 -226t49 -226 t146.5 -164.5t226.5 -62.5z" />
<glyph unicode="&#xe6;" horiz-adv-x="1976" d="M1792 193v-91q-88 -63 -176.5 -95t-196.5 -32q-82 0 -153 19.5t-119 48.5t-86.5 69t-60.5 75.5t-37 72.5h-9q-14 -36 -34.5 -70.5t-57.5 -75t-83 -70t-114 -49.5t-147 -20q-181 0 -298.5 93t-117.5 251q0 157 119 248.5t316 91.5q104 0 208 -24.5t160 -71.5h8v78 q0 161 -85 243.5t-269 82.5q-124 0 -216.5 -34.5t-178.5 -98.5v90q160 129 401 129q327 0 406 -238h8q45 97 151.5 167.5t258.5 70.5q215 0 346 -147t131 -392v-47h-862q13 -190 124.5 -298t286.5 -108q184 0 377 132zM1004 553h768q-12 192 -111.5 303t-267.5 111 q-166 0 -271.5 -108.5t-117.5 -305.5zM913 473q-62 49 -166.5 74.5t-207.5 25.5q-170 0 -256 -69.5t-86 -184.5q0 -119 87 -188.5t228 -69.5q185 0 293 116.5t108 295.5z" />
<glyph unicode="&#xe7;" horiz-adv-x="1118" d="M451 -451v82q95 -49 180 -49q151 0 151 111q0 110 -147 110q-87 0 -184 -53v70l100 166q-200 35 -318 179t-118 349q0 236 153 387.5t402 151.5q215 0 338 -123v-90q-61 61 -151 94t-191 33q-202 0 -329.5 -126.5t-127.5 -326.5t127.5 -326.5t329.5 -126.5q101 0 191 33 t151 94v-90q-123 -123 -338 -123h-31q-27 -46 -70 -106q43 16 93 16q96 0 153 -51t57 -143q0 -91 -59 -141t-168 -50q-96 0 -194 49z" />
<glyph unicode="&#xe8;" horiz-adv-x="1241" d="M709 1147h-74l-137 348h102zM1057 193v-91q-175 -127 -402 -127q-249 0 -394.5 145.5t-145.5 391.5t145 393.5t375 147.5q227 0 361 -146.5t134 -392.5v-47h-919q12 -191 127.5 -298.5t310.5 -107.5q214 0 408 132zM211 553h825q-11 197 -114 305.5t-285 108.5 q-186 0 -301 -110t-125 -304z" />
<glyph unicode="&#xe9;" horiz-adv-x="1241" d="M639 1147h-74l109 348h102zM1057 193v-91q-175 -127 -402 -127q-249 0 -394.5 145.5t-145.5 391.5t145 393.5t375 147.5q227 0 361 -146.5t134 -392.5v-47h-919q12 -191 127.5 -298.5t310.5 -107.5q214 0 408 132zM211 553h825q-11 197 -114 305.5t-285 108.5 q-186 0 -301 -110t-125 -304z" />
<glyph unicode="&#xea;" horiz-adv-x="1241" d="M909 1147h-106l-168 291l-168 -291h-107l226 348h98zM1057 193v-91q-175 -127 -402 -127q-249 0 -394.5 145.5t-145.5 391.5t145 393.5t375 147.5q227 0 361 -146.5t134 -392.5v-47h-919q12 -191 127.5 -298.5t310.5 -107.5q214 0 408 132zM211 553h825 q-11 197 -114 305.5t-285 108.5q-186 0 -301 -110t-125 -304z" />
<glyph unicode="&#xeb;" horiz-adv-x="1241" d="M559 1147h-131v131h131v-131zM842 1147h-131v131h131v-131zM1057 193v-91q-175 -127 -402 -127q-249 0 -394.5 145.5t-145.5 391.5t145 393.5t375 147.5q227 0 361 -146.5t134 -392.5v-47h-919q12 -191 127.5 -298.5t310.5 -107.5q214 0 408 132zM211 553h825 q-11 197 -114 305.5t-285 108.5q-186 0 -301 -110t-125 -304z" />
<glyph unicode="&#xec;" horiz-adv-x="479" d="M268 1147h-73l-138 348h103zM287 0h-94v1024h94v-1024z" />
<glyph unicode="&#xed;" horiz-adv-x="479" d="M268 1147h-73l108 348h103zM287 0h-94v1024h94v-1024z" />
<glyph unicode="&#xee;" horiz-adv-x="479" d="M514 1147h-106l-168 291l-168 -291h-107l225 348h99zM287 0h-94v1024h94v-1024z" />
<glyph unicode="&#xef;" horiz-adv-x="479" d="M164 1147h-131v131h131v-131zM446 1147h-131v131h131v-131zM287 0h-94v1024h94v-1024z" />
<glyph unicode="&#xf0;" horiz-adv-x="1265" d="M1053 780h8q-44 243 -158 420l-313 -61v82l264 51q-72 95 -166 170h107q81 -67 147 -152l188 37v-82l-137 -26q158 -252 158 -596q0 -146 -30 -262.5t-91.5 -204t-162 -134.5t-234.5 -47q-127 0 -228 42.5t-163 116t-94.5 166t-32.5 198.5q0 107 32.5 201t94.5 167 t159.5 115.5t219.5 42.5q155 0 265 -66.5t167 -177.5zM623 61q104 0 185 35.5t130 97t73.5 139t24.5 167.5t-24.5 167.5t-73.5 138.5t-130 96.5t-185 35.5t-185 -35.5t-130 -96.5t-74 -138.5t-25 -167.5t25 -167.5t74 -139t130 -97t185 -35.5z" />
<glyph unicode="&#xf1;" horiz-adv-x="1200" d="M829 1376h91q0 -237 -158 -237q-45 0 -83.5 20t-64 48t-47.5 56t-47 48t-51 20q-37 0 -53.5 -37.5t-16.5 -117.5h-90q0 237 158 237q45 0 83.5 -20t64 -48t47.5 -56t47 -48t51 -20q36 0 52.5 37.5t16.5 117.5zM1044 0h-94v655q0 152 -75 232t-220 80q-94 0 -169 -35 t-118.5 -91t-66 -120t-22.5 -129v-592h-95v1032h29l57 -176h9q22 35 52 66.5t75 62.5t110 49.5t141 18.5q181 0 284 -101.5t103 -275.5v-676z" />
<glyph unicode="&#xf2;" horiz-adv-x="1327" d="M737 1147h-73l-138 348h103zM1212 514q0 -109 -38 -207t-106.5 -172t-173 -117t-230.5 -43q-167 0 -293.5 74.5t-191 196t-64.5 268.5t64.5 268.5t191 196t293.5 74.5q126 0 230.5 -43t173 -117t106.5 -172t38 -207zM1118 514q0 125 -51 226.5t-155.5 164t-247.5 62.5 q-108 0 -195 -36t-143.5 -98.5t-86.5 -144t-30 -174.5t30 -174.5t86.5 -144t143.5 -98.5t195 -36q143 0 247.5 62.5t155.5 164t51 226.5z" />
<glyph unicode="&#xf3;" horiz-adv-x="1327" d="M662 1147h-74l108 348h103zM1212 514q0 -109 -38 -207t-106.5 -172t-173 -117t-230.5 -43q-167 0 -293.5 74.5t-191 196t-64.5 268.5t64.5 268.5t191 196t293.5 74.5q126 0 230.5 -43t173 -117t106.5 -172t38 -207zM1118 514q0 125 -51 226.5t-155.5 164t-247.5 62.5 q-108 0 -195 -36t-143.5 -98.5t-86.5 -144t-30 -174.5t30 -174.5t86.5 -144t143.5 -98.5t195 -36q143 0 247.5 62.5t155.5 164t51 226.5z" />
<glyph unicode="&#xf4;" horiz-adv-x="1327" d="M938 1147h-107l-167 291l-168 -291h-107l225 348h99zM1212 514q0 -109 -38 -207t-106.5 -172t-173 -117t-230.5 -43q-167 0 -293.5 74.5t-191 196t-64.5 268.5t64.5 268.5t191 196t293.5 74.5q126 0 230.5 -43t173 -117t106.5 -172t38 -207zM1118 514q0 125 -51 226.5 t-155.5 164t-247.5 62.5q-108 0 -195 -36t-143.5 -98.5t-86.5 -144t-30 -174.5t30 -174.5t86.5 -144t143.5 -98.5t195 -36q143 0 247.5 62.5t155.5 164t51 226.5z" />
<glyph unicode="&#xf5;" horiz-adv-x="1327" d="M879 1376h90q0 -237 -158 -237q-45 0 -83.5 20t-64 48t-47.5 56t-47 48t-51 20q-36 0 -52.5 -37.5t-16.5 -117.5h-91q0 237 158 237q45 0 83.5 -20t64 -48t47.5 -56t47 -48t51 -20q37 0 53.5 37.5t16.5 117.5zM1212 514q0 -109 -38 -207t-106.5 -172t-173 -117 t-230.5 -43q-167 0 -293.5 74.5t-191 196t-64.5 268.5t64.5 268.5t191 196t293.5 74.5q126 0 230.5 -43t173 -117t106.5 -172t38 -207zM1118 514q0 125 -51 226.5t-155.5 164t-247.5 62.5q-108 0 -195 -36t-143.5 -98.5t-86.5 -144t-30 -174.5t30 -174.5t86.5 -144 t143.5 -98.5t195 -36q143 0 247.5 62.5t155.5 164t51 226.5z" />
<glyph unicode="&#xf6;" horiz-adv-x="1327" d="M586 1147h-131v131h131v-131zM868 1147h-131v131h131v-131zM1212 514q0 -109 -38 -207t-106.5 -172t-173 -117t-230.5 -43q-167 0 -293.5 74.5t-191 196t-64.5 268.5t64.5 268.5t191 196t293.5 74.5q126 0 230.5 -43t173 -117t106.5 -172t38 -207zM1118 514 q0 125 -51 226.5t-155.5 164t-247.5 62.5q-108 0 -195 -36t-143.5 -98.5t-86.5 -144t-30 -174.5t30 -174.5t86.5 -144t143.5 -98.5t195 -36q143 0 247.5 62.5t155.5 164t51 226.5z" />
<glyph unicode="&#xf7;" horiz-adv-x="1335" d="M733 868h-131v136h131v-136zM1200 592h-1065v86h1065v-86zM733 266h-131v135h131v-135z" />
<glyph unicode="&#xf8;" horiz-adv-x="1327" d="M203 -92l-62 47l138 164q-79 73 -121.5 176t-42.5 219q0 147 64.5 268.5t191 196t293.5 74.5q186 0 319 -90l133 157l62 -51l-131 -156q79 -75 122 -178.5t43 -220.5q0 -109 -38 -207t-106.5 -172t-173 -117t-230.5 -43q-188 0 -326 95zM334 186l594 709q-112 72 -264 72 q-108 0 -195 -36t-143.5 -98.5t-86.5 -144t-30 -174.5q0 -96 32 -181.5t93 -146.5zM989 846l-594 -709q113 -76 269 -76q143 0 247.5 62.5t155.5 164t51 226.5q0 203 -129 332z" />
<glyph unicode="&#xf9;" horiz-adv-x="1204" d="M666 1147h-74l-137 348h102zM1020 -4h-29l-57 176h-8q-123 -197 -387 -197q-180 0 -279.5 91t-99.5 266v692h94v-672q0 -291 283 -291q82 0 149 23t110.5 61t73.5 87.5t43 100.5t13 103v588h94v-1028z" />
<glyph unicode="&#xfa;" horiz-adv-x="1204" d="M588 1147h-74l109 348h102zM1020 -4h-29l-57 176h-8q-123 -197 -387 -197q-180 0 -279.5 91t-99.5 266v692h94v-672q0 -291 283 -291q82 0 149 23t110.5 61t73.5 87.5t43 100.5t13 103v588h94v-1028z" />
<glyph unicode="&#xfb;" horiz-adv-x="1204" d="M864 1147h-106l-168 291l-168 -291h-107l226 348h98zM1020 -4h-29l-57 176h-8q-123 -197 -387 -197q-180 0 -279.5 91t-99.5 266v692h94v-672q0 -291 283 -291q82 0 149 23t110.5 61t73.5 87.5t43 100.5t13 103v588h94v-1028z" />
<glyph unicode="&#xfc;" horiz-adv-x="1204" d="M514 1147h-131v131h131v-131zM797 1147h-131v131h131v-131zM1020 -4h-29l-57 176h-8q-123 -197 -387 -197q-180 0 -279.5 91t-99.5 266v692h94v-672q0 -291 283 -291q82 0 149 23t110.5 61t73.5 87.5t43 100.5t13 103v588h94v-1028z" />
<glyph unicode="&#xfd;" horiz-adv-x="972" d="M492 1147h-74l108 348h103zM395 -410h-102l170 451h-41l-385 983h102l207 -528q82 -207 143 -387h9q52 165 137 387l199 528h102z" />
<glyph unicode="&#xfe;" horiz-adv-x="1327" d="M279 -410h-95v1848h95v-586h8q41 79 147.5 140t257.5 61q235 0 377.5 -152t142.5 -387t-142.5 -387t-377.5 -152q-151 0 -257.5 61t-147.5 140h-8v-586zM696 61q194 0 308 130.5t114 322.5t-114 322.5t-308 130.5t-308 -130.5t-114 -322.5t114 -322.5t308 -130.5z" />
<glyph unicode="&#xff;" horiz-adv-x="972" d="M416 1147h-131v131h131v-131zM698 1147h-131v131h131v-131zM395 -410h-102l170 451h-41l-385 983h102l207 -528q82 -207 143 -387h9q52 165 137 387l199 528h102z" />
<glyph unicode="&#x131;" horiz-adv-x="479" d="M287 0h-94v1024h94v-1024z" />
<glyph unicode="&#x141;" horiz-adv-x="1130" d="M999 0h-798v563l-181 -104v94l181 104v756h98v-700l541 311v-94l-541 -312v-528h741z" />
<glyph unicode="&#x142;" horiz-adv-x="479" d="M287 0h-94v629l-177 -56v91l177 55v694l94 41v-706l159 51v-90l-159 -52v-657z" />
<glyph unicode="&#x152;" horiz-adv-x="2297" d="M2138 0h-881v270h-8q-58 -135 -186.5 -215t-317.5 -80q-197 0 -336.5 92.5t-208.5 256.5t-69 385q0 220 68.5 383.5t209 256.5t339.5 93q188 0 312 -79.5t189 -219.5h8v270h861v-90h-762v-571h700l-41 -90h-659v-572h782v-90zM745 66q128 0 227.5 48.5t162 135t95 203 t32.5 256.5t-32.5 256.5t-95 203t-162 135t-227.5 48.5t-227 -48.5t-162 -135t-95 -203t-32 -256.5t32 -256.5t95 -203t162 -135t227 -48.5z" />
<glyph unicode="&#x153;" horiz-adv-x="2154" d="M1970 193v-91q-175 -127 -399 -127q-181 0 -304.5 79t-183.5 214h-8q-51 -130 -167 -211.5t-287 -81.5q-159 0 -275.5 74.5t-173.5 195t-57 269.5q0 110 33.5 207t95.5 171.5t160 117.5t219 43q166 0 283.5 -77.5t168.5 -207.5h8q55 128 181 206.5t288 78.5 q223 0 357.5 -146.5t134.5 -392.5v-47h-920q13 -195 130 -300.5t309 -105.5q212 0 407 132zM623 61q103 0 183.5 36t129.5 98.5t74.5 143.5t25.5 175t-25.5 175t-74.5 143.5t-129.5 98.5t-183.5 36t-183.5 -36t-130 -98.5t-75 -143.5t-25.5 -175t25.5 -175t75 -143.5 t130 -98.5t183.5 -36zM1124 553h826q-13 200 -117.5 307t-280.5 107q-182 0 -299 -109t-129 -305z" />
<glyph unicode="&#x160;" horiz-adv-x="1280" d="M680 1536h-98l-226 348h107l168 -291l168 291h106zM702 662l-131 38q-71 21 -123.5 41.5t-106.5 53t-88 71t-55.5 94.5t-21.5 125q0 170 120 263.5t329 93.5q274 0 462 -156v-94q-208 160 -464 160q-173 0 -261 -71t-88 -196q0 -116 79.5 -180t258.5 -117l131 -38 q204 -61 305 -151.5t101 -246.5q0 -170 -116.5 -273.5t-348.5 -103.5q-311 0 -549 199v94q106 -88 248.5 -145t302.5 -57q185 0 275 77t90 209q0 108 -75 179.5t-274 130.5z" />
<glyph unicode="&#x161;" horiz-adv-x="976" d="M545 1147h-99l-225 348h107l168 -291l168 291h106zM535 465l-97 29q-63 19 -108.5 39.5t-93 54.5t-72.5 85.5t-25 117.5q0 123 88.5 191.5t249.5 68.5q196 0 340 -113v-90q-150 117 -342 117q-116 0 -179 -45.5t-63 -131.5q0 -81 57.5 -125.5t178.5 -80.5l96 -29 q146 -43 221.5 -112.5t75.5 -190.5q0 -127 -84.5 -201t-253.5 -74q-229 0 -405 146v90q79 -65 182 -107.5t217 -42.5q121 0 185.5 50t64.5 143q0 73 -50.5 122.5t-182.5 88.5z" />
<glyph unicode="&#x178;" horiz-adv-x="1343" d="M596 1536h-131v131h131v-131zM879 1536h-131v131h131v-131zM721 0h-98v532l-566 881h107l231 -360q140 -218 273 -439h8q148 246 272 439l232 360h106l-565 -881v-532z" />
<glyph unicode="&#x17d;" horiz-adv-x="1409" d="M764 1536h-98l-226 348h107l168 -291l168 291h106zM1266 0h-1127v70l975 1253h-934v90h1065v-70l-975 -1253h996v-90z" />
<glyph unicode="&#x17e;" horiz-adv-x="1110" d="M602 1147h-98l-225 348h106l168 -291l168 291h106zM983 0h-860v66l717 872h-676v86h799v-66l-717 -872h737v-86z" />
<glyph unicode="&#x192;" horiz-adv-x="1105" d="M950 934h-303l-135 -725q-22 -116 -76 -175t-168 -59q-111 0 -211 68v94q104 -71 209 -71q61 0 95.5 39t52.5 137l129 692h-318l41 90h293l35 184q22 116 76 175t168 59q111 0 211 -68v-94q-106 72 -209 72q-61 0 -95.5 -39t-52.5 -137l-28 -152h327z" />
<glyph unicode="&#x2c6;" horiz-adv-x="671" d="M610 1147h-106l-168 291l-168 -291h-107l226 348h98z" />
<glyph unicode="&#x2c7;" horiz-adv-x="671" d="M385 1147h-98l-226 348h107l168 -291l168 291h106z" />
<glyph unicode="&#x2d8;" horiz-adv-x="622" d="M471 1454h90q0 -158 -61 -236.5t-189 -78.5t-189 78.5t-61 236.5h91q0 -110 36 -171.5t123 -61.5q160 0 160 233z" />
<glyph unicode="&#x2d9;" horiz-adv-x="262" d="M201 1249q0 -28 -19.5 -46.5t-50.5 -18.5t-50.5 18.5t-19.5 46.5t20 47t50 19t50 -19t20 -47z" />
<glyph unicode="&#x2da;" horiz-adv-x="499" d="M438 1325q0 -73 -55.5 -123.5t-132.5 -50.5t-133 50.5t-56 123.5t56 123.5t133 50.5t132.5 -50.5t55.5 -123.5zM356 1325q0 41 -29 70.5t-77 29.5t-77.5 -29.5t-29.5 -70.5t29.5 -70.5t77.5 -29.5t77 29.5t29 70.5z" />
<glyph unicode="&#x2db;" horiz-adv-x="468" d="M408 -301v-86q-62 -47 -168 -47q-89 0 -134 42.5t-45 121.5q0 81 39.5 152t114.5 159h90q-64 -74 -108.5 -154.5t-44.5 -142.5q0 -96 102 -96q88 0 154 51z" />
<glyph unicode="&#x2dc;" horiz-adv-x="733" d="M582 1376h90q0 -237 -158 -237q-45 0 -83.5 20t-64 48t-47.5 56t-47 48t-51 20q-36 0 -52.5 -37.5t-16.5 -117.5h-91q0 237 158 237q45 0 83.5 -20t64 -48t47.5 -56t47 -48t51 -20q37 0 53.5 37.5t16.5 117.5z" />
<glyph unicode="&#x2dd;" horiz-adv-x="587" d="M135 1147h-74l109 348h102zM389 1147h-74l109 348h102z" />
<glyph unicode="&#x394;" horiz-adv-x="1251" d="M1194 0h-1137v70l512 1319l-16 53h106l535 -1372v-70zM1083 90l-452 1167h-8l-455 -1167h915z" />
<glyph unicode="&#x3a9;" horiz-adv-x="1671" d="M1593 0h-610v125q83 21 154.5 67.5t130 118t92 178.5t33.5 236q0 282 -150.5 454.5t-406.5 172.5t-406.5 -172.5t-150.5 -454.5q0 -130 33.5 -236.5t91.5 -178t129.5 -118t154.5 -67.5v-125h-610v90h434v8q-75 37 -134.5 97t-96 126.5t-60 144t-32.5 146t-9 136.5 q0 200 78.5 356.5t228.5 247t349 90.5t349 -90.5t228 -247t78 -356.5q0 -68 -9 -136.5t-32.5 -146t-60 -144t-96 -126.5t-134.5 -97v-8h434v-90z" />
<glyph unicode="&#x3bc;" horiz-adv-x="1245" d="M1053 -25h-21l-65 152h-9q-112 -152 -342 -152q-211 0 -319 134h-10v-560l-94 -41v1516h94v-637q0 -155 90 -240.5t246 -85.5t245.5 85.5t89.5 240.5v637h95v-1049z" />
<glyph unicode="&#x3c0;" horiz-adv-x="1478" d="M1417 156v-90q-67 -47 -125 -69t-125 -22q-137 0 -216 81t-79 237v641h-409v-934h-98v934h-328l41 90h1257l-41 -90h-327v-621q0 -252 198 -252q118 0 252 95z" />
<glyph unicode="&#xe01;" horiz-adv-x="1310" d="M1147 0h-94v700q0 390 -414 390q-204 0 -313.5 -90.5t-118.5 -262.5h297v-78q-52 -6 -90 -23t-60 -39.5t-34.5 -56.5t-16.5 -66.5t-4 -76.5v-397h-94v418q0 160 114 246h-208v65q35 447 528 447q251 0 379.5 -114t128.5 -341v-721z" />
<glyph unicode="&#xe02;" horiz-adv-x="1179" d="M922 358v789h94v-768q0 -200 -110 -302t-318 -102q-206 0 -319 101t-113 297q0 185 96 364t254 324h-330l41 86h414v-78q-381 -350 -381 -686q0 -322 338 -322q164 0 249 76t85 221z" />
<glyph unicode="&#xe03;" horiz-adv-x="1187" d="M930 358v789h94v-768q0 -200 -109.5 -302t-312.5 -102t-320.5 100.5t-117.5 282.5q0 77 23 143.5t59.5 112.5t80.5 86t88 73t80.5 64t59.5 67.5t23 76.5q0 51 -38 80t-112 29l-109 -119h-20q-16 55 -48.5 87t-80.5 32q-47 0 -88 -33v90q36 29 90 29q111 0 137 -103h8 l91 103h30q95 0 158 -50.5t63 -142.5q0 -51 -22 -96t-57.5 -80.5t-78.5 -69.5t-85.5 -72t-78 -80.5t-57.5 -102t-22 -128.5q0 -143 89.5 -218t250.5 -75t246.5 76t85.5 221z" />
<glyph unicode="&#xe04;" horiz-adv-x="1294" d="M1130 0h-94v705q0 187 -101 286t-286 99q-189 0 -290 -101t-101 -284v-216q66 109 213 109h197l-41 -86h-176q-193 0 -193 -266v-246h-94v725q0 206 120.5 328.5t362.5 122.5t362.5 -122.5t120.5 -328.5v-725z" />
<glyph unicode="&#xe05;" horiz-adv-x="1335" d="M1171 0h-94v737q0 149 -48 229t-161 107l-190 -178h-21l-190 178q-113 -27 -161 -107t-48 -229v-248q66 109 213 109h197l-41 -86h-176q-193 0 -193 -266v-246h-94v758q0 180 80.5 279t251.5 139l168 -168h8l168 168q171 -40 251 -138.5t80 -279.5v-758z" />
<glyph unicode="&#xe06;" horiz-adv-x="1245" d="M987 410v737h94v-717q0 -100 -25 -182t-74.5 -143.5t-130 -95.5t-185.5 -34q-141 0 -252 56.5t-168 148.5h-8l-58 -184h-28v424q0 62 16.5 115t43.5 91t61.5 72.5t71 60t71 52.5t61.5 51t43.5 54.5t16.5 64.5q0 51 -38 80t-112 29l-108 -119h-21q-16 55 -48.5 87 t-80.5 32q-47 0 -88 -33v90q36 29 90 29q111 0 137 -103h8l91 103h30q96 0 158.5 -50t62.5 -143q0 -50 -20.5 -94t-53.5 -78t-72.5 -66t-79 -64.5t-72.5 -67.5t-53.5 -82t-20.5 -101q0 -63 27 -127t75.5 -118.5t127.5 -89t173 -34.5q159 0 248.5 94t89.5 255z" />
<glyph unicode="&#xe07;" horiz-adv-x="1146" d="M516 0h-70l-401 788h107l360 -702q107 0 189.5 45.5t132.5 125.5t75 183t25 226q0 222 -81.5 323t-242.5 101q-127 0 -229 -62v90q96 58 235 58q202 0 307 -123t105 -389q0 -141 -30.5 -259.5t-91.5 -210t-160.5 -143t-229.5 -51.5z" />
<glyph unicode="&#xe08;" horiz-adv-x="1163" d="M510 0h-70l-204 559h-136l41 86h150l211 -559q116 0 204 42.5t140 116.5t78 166.5t26 200.5q0 227 -115 352.5t-356 125.5q-108 0 -209.5 -26.5t-175.5 -72.5v90q159 95 387 95q145 0 254 -40.5t176 -115t100 -174.5t33 -225q0 -126 -33 -236t-96.5 -197t-167.5 -137.5 t-237 -50.5z" />
<glyph unicode="&#xe09;" horiz-adv-x="1220" d="M1057 -4h-29l-57 184h-8q-110 -205 -369 -205q-373 0 -373 435v143h-131l41 86h184v-250q0 -328 289 -328q170 0 264.5 105.5t94.5 284.5v268q0 177 -100 274t-306 97q-126 0 -240.5 -36t-193.5 -96v95q77 59 189.5 91t242.5 32q252 0 377 -118.5t125 -318.5v-743z" />
<glyph unicode="&#xe0a;" horiz-adv-x="1216" d="M971 358v183q0 108 -61.5 163t-207.5 74v86l285 283h119l-311 -299q64 -10 110.5 -29t84 -53.5t56.5 -90.5t19 -134v-183q0 -383 -457 -383q-228 0 -340 98t-112 296q0 192 97 369.5t253 322.5h-330l41 86h414v-78q-77 -71 -137.5 -140t-119.5 -157.5t-91.5 -190 t-32.5 -206.5q0 -159 84.5 -236.5t273.5 -77.5q185 0 274 73.5t89 223.5z" />
<glyph unicode="&#xe0b;" horiz-adv-x="1236" d="M991 358v183q0 108 -61 163t-207 74v86l285 283h118l-311 -299q64 -10 110.5 -29t84 -53.5t56.5 -90.5t19 -134v-183q0 -186 -116 -284.5t-344 -98.5q-227 0 -344 98.5t-117 280.5q0 79 23 146.5t59.5 114t80.5 86.5t88 72t80.5 62.5t59.5 67t23 76.5q0 52 -37.5 81.5 t-112.5 29.5l-109 -119h-20q-16 55 -48.5 87t-80.5 32q-47 0 -88 -33v90q36 29 90 29q111 0 137 -103h8l91 103h30q96 0 158.5 -50t62.5 -143q0 -52 -22 -97t-57.5 -79.5t-78.5 -69t-85.5 -72.5t-78 -80.5t-57.5 -103.5t-22 -133q0 -287 369 -287q189 0 276.5 73.5 t87.5 223.5z" />
<glyph unicode="&#xe0c;" horiz-adv-x="2035" d="M1778 377v770h94v-750q0 -213 -96 -317.5t-273 -104.5q-132 0 -226.5 55.5t-146.5 149.5h-8l-57 -184h-29v704q0 189 -101 289.5t-300 100.5q-191 0 -300.5 -91.5t-119.5 -261.5h297v-78q-134 -42 -206.5 -141.5t-72.5 -234.5q0 -117 56.5 -169.5t169.5 -52.5 q89 0 157 37v-90q-68 -33 -157 -33q-152 0 -236 76t-84 223q0 132 63.5 234.5t153.5 155.5h-237v65q6 78 27 143.5t61 122.5t98 96.5t142 62t188 22.5q239 0 367 -115t128 -340v-270q0 -173 97 -281.5t266 -108.5q139 0 212 79.5t73 236.5z" />
<glyph unicode="&#xe0d;" horiz-adv-x="2060" d="M1778 -29v209h-9q-107 -205 -360 -205q-190 0 -281.5 111.5t-91.5 302.5v311q0 189 -101 289.5t-300 100.5q-191 0 -300.5 -91.5t-119.5 -261.5h297v-78q-134 -42 -206.5 -141.5t-72.5 -234.5q0 -117 56.5 -169.5t169.5 -52.5q89 0 157 37v-90q-68 -33 -157 -33 q-152 0 -236 76t-84 223q0 132 63.5 234.5t153.5 155.5h-237v65q6 78 27 143.5t61 122.5t98 96.5t142 62t188 22.5q239 0 367 -115t128 -340v-311q0 -349 285 -349q165 0 264 105t99 264v717h94v-1196q0 -178 -110.5 -281.5t-319.5 -103.5q-224 0 -385 117v90 q169 -121 387 -121q169 0 251.5 82t82.5 237z" />
<glyph unicode="&#xe0e;" horiz-adv-x="1406" d="M950 -492h-39q-160 168 -358 168q-107 0 -172 -43.5t-111 -124.5h-8v113q98 141 299 141q216 0 371 -168h18q110 0 154.5 60t44.5 213v833q0 390 -406 390q-199 0 -307 -91t-117 -262h297v-78q-52 -6 -88 -23.5t-54.5 -38.5t-28.5 -58.5t-11.5 -65t-1.5 -76.5v-204 q0 -117 -41.5 -167.5t-124.5 -50.5q-71 0 -139 33v86q68 -33 133 -33q45 0 61.5 23t16.5 88v246q0 176 94 246h-209v65q35 447 520 447q247 0 373.5 -114.5t126.5 -340.5v-875q0 -173 -72.5 -255.5t-220.5 -82.5z" />
<glyph unicode="&#xe0f;" horiz-adv-x="1406" d="M930 -492h-29l-139 140h-8l-140 -140h-73q-40 92 -94.5 130t-131.5 38q-83 0 -147 -43v91q56 38 147 38q85 0 155.5 -39t107.5 -129h8l162 156h20l162 -156q58 0 96.5 10.5t67.5 37.5t42 76.5t13 125.5v856q0 390 -406 390q-199 0 -307 -91t-117 -262h297v-78 q-52 -6 -88 -23.5t-54.5 -38.5t-28.5 -58.5t-11.5 -65t-1.5 -76.5v-204q0 -117 -41.5 -167.5t-124.5 -50.5q-71 0 -139 33v86q68 -33 133 -33q45 0 61.5 23t16.5 88v246q0 176 94 246h-209v65q35 447 520 447q247 0 373.5 -114.5t126.5 -340.5v-877q0 -180 -76 -258 t-237 -78z" />
<glyph unicode="&#xe10;" horiz-adv-x="1167" d="M731 -512h-29l-127 139h-8l-127 -139h-73q-39 92 -78.5 130t-100.5 38q-56 0 -110 -33v86q54 33 115 33q144 0 210 -168h9l149 156h21l149 -156q98 15 162.5 84.5t64.5 171.5q0 83 -44 146.5t-121 99.5q-123 -76 -283 -76h-70l-204 559h-136l41 86h150l211 -559 q96 2 173 31t127.5 77.5t84.5 115.5t48.5 141.5t14.5 158.5q0 228 -114.5 354t-354.5 126q-109 0 -211 -26.5t-176 -72.5v90q159 95 387 95q221 0 361 -97l137 170h106l-178 -223q137 -143 137 -405q0 -150 -46.5 -278t-137.5 -214q184 -98 184 -299q0 -146 -89.5 -236 t-223.5 -106z" />
<glyph unicode="&#xe11;" horiz-adv-x="1333" d="M1169 0h-94v934q0 90 -25.5 123t-74.5 33q-85 0 -203 -103l-393 -340q-71 -62 -100 -122t-29 -158v-367h-94v387q0 109 38.5 181.5t116.5 140.5l82 71q103 90 103 191q0 59 -35.5 89t-114.5 30l-108 -119h-21q-16 55 -48.5 87t-80.5 32q-47 0 -88 -33v90q36 29 90 29 q111 0 137 -103h9l90 103h30q96 0 159 -50t63 -143q0 -21 -7 -45h9l125 106q84 71 144.5 101.5t131.5 30.5q90 0 139 -51.5t49 -170.5v-954z" />
<glyph unicode="&#xe12;" horiz-adv-x="2084" d="M1827 377v770h94v-750q0 -213 -96 -317.5t-273 -104.5q-132 0 -226 55.5t-146 149.5h-9l-57 -184h-29v741q0 145 -54 227t-169 113l-188 -182h-21l-188 182q-119 -28 -185.5 -156.5t-66.5 -332.5q0 -138 31.5 -241.5t88 -165t129 -91t161.5 -29.5q116 0 237 56v-90 q-107 -52 -256 -52q-234 0 -359.5 157t-125.5 456q0 514 379 588l161 -168h9l161 168q351 -72 351 -418v-307q0 -173 96.5 -281.5t265.5 -108.5q139 0 212 79.5t73 236.5z" />
<glyph unicode="&#xe13;" horiz-adv-x="2060" d="M1872 -4h-29l-57 184h-8q-110 -205 -369 -205q-373 0 -373 435v290q0 189 -101 289.5t-300 100.5q-191 0 -300.5 -91.5t-119.5 -261.5h297v-78q-134 -42 -206.5 -141.5t-72.5 -234.5q0 -117 56.5 -169.5t169.5 -52.5q89 0 157 37v-90q-68 -33 -157 -33q-152 0 -236 76 t-84 223q0 132 63.5 234.5t153.5 155.5h-237v65q6 78 27 143.5t61 122.5t98 96.5t142 62t188 22.5q239 0 367 -115t128 -340v-332q0 -328 289 -328q170 0 264.5 105.5t94.5 284.5v696h94v-1151z" />
<glyph unicode="&#xe14;" horiz-adv-x="1339" d="M1176 0h-95v688q0 112 -28.5 191t-84.5 124.5t-128.5 66t-169.5 20.5q-242 0 -349.5 -124t-107.5 -378q0 -140 31.5 -244t88.5 -164.5t129 -89.5t161 -29q114 0 235 56v-90q-107 -52 -270 -52q-224 0 -346.5 160t-122.5 455q0 299 135 442.5t408 143.5q118 0 210.5 -26 t161.5 -81t105.5 -146t36.5 -214v-709z" />
<glyph unicode="&#xe15;" horiz-adv-x="1376" d="M1212 0h-94v737q0 147 -56.5 227t-182.5 111l-189 -180h-20l-189 180q-124 -25 -196 -151t-72 -328q0 -143 31 -248t88 -166.5t130 -91t163 -29.5q114 0 235 56v-90q-107 -52 -270 -52q-224 0 -347.5 161.5t-123.5 453.5q0 264 102 409t293 177l162 -166h8l162 166 q189 -36 277.5 -141t88.5 -277v-758z" />
<glyph unicode="&#xe16;" horiz-adv-x="1318" d="M1155 0h-94v700q0 190 -103 290t-311 100q-199 0 -310 -91t-122 -262h297v-78q-134 -42 -206.5 -141.5t-72.5 -234.5q0 -117 56.5 -169.5t169.5 -52.5q89 0 157 37v-90q-68 -33 -157 -33q-152 0 -236 76t-84 223q0 132 63.5 234.5t153.5 155.5h-237v65q6 78 26.5 143.5 t61.5 122.5t99.5 96.5t145 62t195.5 22.5q248 0 378 -114.5t130 -340.5v-721z" />
<glyph unicode="&#xe17;" horiz-adv-x="1294" d="M1130 0h-94v741q0 161 -92.5 255t-255.5 94q-185 0 -295 -119t-110 -312v-659h-95v1147h95v-176h8q55 92 164.5 148.5t242.5 56.5q193 0 312.5 -116t119.5 -298v-762z" />
<glyph unicode="&#xe18;" horiz-adv-x="1159" d="M950 287v102q0 41 -10.5 72t-37 60.5t-78 51.5t-128.5 37l-303 58q-270 51 -270 256q0 252 412 252q257 0 448 -99v-94q-206 107 -446 107q-151 0 -235.5 -42t-84.5 -130q0 -128 209 -168l303 -58q162 -30 238.5 -105.5t76.5 -197.5v-102q0 -147 -114.5 -229.5 t-335.5 -82.5t-336 82.5t-115 229.5v235h95v-235q0 -226 356 -226t356 226z" />
<glyph unicode="&#xe19;" horiz-adv-x="1294" d="M1106 -4h-29l-57 184h-8q-58 -93 -169 -149t-259 -56q-214 0 -317 119t-103 336v717h94v-737q0 -172 86 -260.5t252 -88.5q200 0 308 119.5t108 311.5v655h94v-1151z" />
<glyph unicode="&#xe1a;" horiz-adv-x="1269" d="M1012 418v729h94v-709q0 -102 -24.5 -183.5t-78 -145.5t-147 -99t-221.5 -35t-221.5 35t-147 99t-78 145.5t-24.5 183.5v709h94v-729q0 -168 91.5 -262.5t285.5 -94.5t285.5 94.5t91.5 262.5z" />
<glyph unicode="&#xe1b;" horiz-adv-x="1286" d="M1028 418v1126h94v-1106q0 -102 -26 -183.5t-81 -145.5t-149.5 -99t-222.5 -35t-222.5 35t-149.5 99t-81 145.5t-26 183.5v709h94v-729q0 -167 95 -262t290 -95t290 95t95 262z" />
<glyph unicode="&#xe1c;" horiz-adv-x="1544" d="M1286 287v860h94v-840q0 -169 -85.5 -250.5t-239.5 -81.5q-217 0 -283 158q-66 -158 -283 -158q-154 0 -239.5 81.5t-85.5 250.5v840h360l-41 -86h-225v-774q0 -115 63.5 -170.5t170.5 -55.5t170 55.5t63 170.5v536h94v-536q0 -115 63.5 -170.5t170.5 -55.5t170 55.5 t63 170.5z" />
<glyph unicode="&#xe1d;" horiz-adv-x="1544" d="M1286 287v1257h94v-1237q0 -169 -85.5 -250.5t-239.5 -81.5q-217 0 -283 158q-66 -158 -283 -158q-154 0 -239.5 81.5t-85.5 250.5v840h360l-41 -86h-225v-774q0 -115 63.5 -170.5t170.5 -55.5t170 55.5t63 170.5v536h94v-536q0 -115 63.5 -170.5t170.5 -55.5t170 55.5 t63 170.5z" />
<glyph unicode="&#xe1e;" horiz-adv-x="1523" d="M1163 0h-139l-123 403q-89 289 -135 465h-8q-48 -184 -135 -465l-123 -403h-140l-299 1147h99l155 -600q85 -329 113 -447h8q39 140 131 447l144 469l-29 90h102l170 -559q109 -365 133 -447h9q59 251 110 447l158 600h98z" />
<glyph unicode="&#xe1f;" horiz-adv-x="1445" d="M1143 0h-139l-123 403q-96 311 -136 465h-8q-48 -184 -135 -465l-123 -403h-139l-279 1147h99l145 -600q56 -227 103 -441h8q33 108 72 242t59 199l143 469l-28 90h102l170 -559q64 -212 129 -441h8q12 62 39.5 210.5t44.5 230.5l201 997h98z" />
<glyph unicode="&#xe20;" horiz-adv-x="1406" d="M1243 0h-94v700q0 390 -406 390q-199 0 -307 -91t-117 -262h297v-78q-52 -6 -88 -23.5t-54.5 -38.5t-28.5 -58.5t-11.5 -65t-1.5 -76.5v-204q0 -117 -41.5 -167.5t-124.5 -50.5q-71 0 -139 33v86q68 -33 133 -33q45 0 61.5 23t16.5 88v246q0 176 94 246h-209v65 q35 447 520 447q247 0 373.5 -114.5t126.5 -340.5v-721z" />
<glyph unicode="&#xe21;" horiz-adv-x="1294" d="M1036 410v737h94v-717q0 -205 -108 -330t-317 -125q-142 0 -253.5 56.5t-168.5 148.5h-9l-57 -184h-29v1151h95v-655q0 -193 110 -312t295 -119q163 0 255.5 94t92.5 255z" />
<glyph unicode="&#xe22;" horiz-adv-x="1216" d="M958 319v828h95v-807q0 -164 -124.5 -264.5t-350.5 -100.5q-224 0 -345.5 97.5t-121.5 255.5q0 97 49 171.5t149 112.5q-87 35 -132.5 103.5t-45.5 163.5q0 146 85.5 221.5t223.5 75.5q118 0 215 -54v-90q-110 58 -213 58q-99 0 -158 -49t-59 -150q0 -104 59 -165.5 t146 -61.5h287l-41 -78h-94q-191 0 -284 -67t-93 -187q0 -122 92.5 -196.5t273.5 -74.5q184 0 285.5 74t101.5 184z" />
<glyph unicode="&#xe23;" horiz-adv-x="1040" d="M152 82v94q171 -115 380 -115q151 0 227.5 59t76.5 165q0 98 -68.5 155t-218.5 97l-115 30q-164 43 -243.5 114.5t-79.5 195.5q0 143 103 221t292 78q193 0 362 -97v-94q-182 105 -362 105q-147 0 -224 -57t-77 -159q0 -89 63.5 -135.5t214.5 -87.5l119 -33 q160 -44 244 -122t84 -209q0 -143 -100 -227.5t-295 -84.5q-123 0 -223 32t-160 75z" />
<glyph unicode="&#xe24;" horiz-adv-x="1318" d="M1155 -492h-94v1192q0 190 -103 290t-311 100q-199 0 -310 -91t-122 -262h297v-78q-134 -42 -206.5 -141.5t-72.5 -234.5q0 -117 56.5 -169.5t169.5 -52.5q89 0 157 37v-90q-68 -33 -157 -33q-152 0 -236 76t-84 223q0 132 63.5 234.5t153.5 155.5h-237v65 q6 78 26.5 143.5t61.5 122.5t99.5 96.5t145 62t195.5 22.5q248 0 378 -114.5t130 -340.5v-1213z" />
<glyph unicode="&#xe25;" horiz-adv-x="1236" d="M1073 0h-94v524q-179 127 -404 127q-179 0 -274.5 -83t-95.5 -212q0 -295 332 -295q108 0 172 37v-90q-81 -33 -181 -33q-197 0 -307 101t-110 280q0 176 128.5 278.5t335.5 102.5q115 0 220.5 -30.5t175.5 -81.5h8v94q0 183 -82 277t-283 94q-125 0 -234.5 -35.5 t-189.5 -96.5v95q161 123 422 123q126 0 217 -31.5t143.5 -91.5t76.5 -137t24 -177v-739z" />
<glyph unicode="&#xe26;" horiz-adv-x="1406" d="M1243 -492h-94v1192q0 390 -406 390q-199 0 -307 -91t-117 -262h297v-78q-52 -6 -88 -23.5t-54.5 -38.5t-28.5 -58.5t-11.5 -65t-1.5 -76.5v-204q0 -117 -41.5 -167.5t-124.5 -50.5q-71 0 -139 33v86q68 -33 133 -33q45 0 61.5 23t16.5 88v246q0 176 94 246h-209v65 q35 447 520 447q247 0 373.5 -114.5t126.5 -340.5v-1213z" />
<glyph unicode="&#xe27;" horiz-adv-x="1159" d="M111 70v94q182 -103 372 -103q212 0 337.5 129t125.5 385t-125.5 385.5t-337.5 129.5q-190 0 -372 -103v94q167 95 376 95q269 0 411 -151t142 -450t-142 -449.5t-411 -150.5q-209 0 -376 95z" />
<glyph unicode="&#xe28;" horiz-adv-x="1294" d="M1130 0h-94v705q0 187 -101 286t-286 99q-189 0 -290 -101t-101 -284v-216q66 109 213 109h197l-41 -86h-176q-193 0 -193 -266v-246h-94v725q0 206 120.5 328.5t362.5 122.5q201 0 326 -91l133 164h106l-178 -223q96 -113 96 -301v-725z" />
<glyph unicode="&#xe29;" horiz-adv-x="1302" d="M1278 612h-148v-174q0 -463 -483 -463t-483 463v709h94v-729q0 -357 389 -357t389 357v194h-430l41 86h389v449h94v-449h148v-86z" />
<glyph unicode="&#xe2a;" horiz-adv-x="1236" d="M1073 0h-94v524q-179 127 -404 127q-179 0 -274.5 -83t-95.5 -212q0 -295 332 -295q108 0 172 37v-90q-81 -33 -181 -33q-197 0 -307 101t-110 280q0 176 128.5 278.5t335.5 102.5q115 0 220.5 -30.5t175.5 -81.5h8v94q0 183 -82 277t-283 94q-125 0 -234.5 -35.5 t-189.5 -96.5v95q161 123 422 123q199 0 312 -80l125 153h106l-170 -211q88 -106 88 -299v-739z" />
<glyph unicode="&#xe2b;" horiz-adv-x="1286" d="M1130 0h-94v432q0 143 -61 212t-193 69h-194l-305 -250v-463h-95v1147h95v-578l712 578h135l-438 -354h111q159 0 243 -87.5t84 -252.5v-453z" />
<glyph unicode="&#xe2c;" horiz-adv-x="1433" d="M1143 0h-139l-138 403q-48 145 -108 338h-8q-47 -141 -121 -338l-150 -403h-139l-279 1147h99l145 -600q61 -248 107 -463h8q79 229 166 463l119 325l-25 86h98l140 -411q53 -159 149 -463h8q70 275 121 463l45 162q23 87 23 145q0 130 -76.5 201.5t-190.5 83.5v90 l160 315h98l-165 -332q54 -13 100 -39t85.5 -67t62 -103t22.5 -139q0 -78 -27 -180z" />
<glyph unicode="&#xe2d;" horiz-adv-x="1257" d="M135 137v465h408l-33 -86h-281v-346q118 -109 328 -109q234 0 360.5 136t126.5 378q0 241 -127 378t-358 137q-115 0 -222 -32.5t-181 -84.5v94q74 52 183.5 80.5t223.5 28.5q276 0 426 -161.5t150 -439.5t-150.5 -439t-427.5 -161q-288 0 -426 162z" />
<glyph unicode="&#xe2e;" horiz-adv-x="1257" d="M135 137v465h408l-33 -86h-281v-346q118 -109 328 -109q234 0 360.5 136t126.5 378q0 241 -127 378t-358 137q-115 0 -222 -32.5t-181 -84.5v94q74 52 183.5 80.5t223.5 28.5q221 0 365 -107l145 180h107l-189 -237q148 -160 148 -437q0 -278 -150.5 -439t-427.5 -161 q-288 0 -426 162z" />
<glyph unicode="&#xe2f;" horiz-adv-x="1179" d="M991 0h-94v606h-8q-176 -160 -406 -160q-186 0 -291.5 94t-105.5 269q0 176 105.5 271.5t281.5 95.5q122 0 219 -46v-86q-97 46 -213 46q-136 0 -217.5 -67t-81.5 -212q0 -146 81.5 -212.5t221.5 -66.5q223 0 414 160v459h94v-1151z" />
<glyph unicode="&#xe30;" horiz-adv-x="729" d="M618 735h-491v269h94v-183h438zM618 182h-491v289h94v-203h438z" />
<glyph unicode="&#xe31;" d="M94 1372h-749v254h94v-168h696z" />
<glyph unicode="&#xe32;" horiz-adv-x="937" d="M774 0h-94v809q0 147 -69.5 214t-225.5 67q-204 0 -348 -101v90q149 97 352 97q186 0 285.5 -88.5t99.5 -258.5v-829z" />
<glyph unicode="&#xe33;" horiz-adv-x="937" d="M774 0h-94v809q0 147 -69.5 214t-225.5 67q-204 0 -348 -101v90q149 97 352 97q186 0 285.5 -88.5t99.5 -258.5v-829zM-43 1526q0 -83 -57 -139t-154 -56t-154 56t-57 139q0 82 57 138t154 56t154 -56t57 -138zM-129 1526q0 50 -33.5 84.5t-91.5 34.5t-91.5 -34.5 t-33.5 -84.5t34 -85.5t91 -35.5t91 35.5t34 85.5z" />
<glyph unicode="&#xe34;" d="M-164 1372h-921l41 86h880v-86z" />
<glyph unicode="&#xe35;" d="M-164 1372h-921l41 86h786v242h94v-328z" />
<glyph unicode="&#xe36;" d="M-297 1372h-788l41 86h569q-33 51 -33 94q0 81 56.5 131t154.5 50t154.5 -50t56.5 -131t-56.5 -130.5t-154.5 -49.5zM-172 1552q0 48 -33 76.5t-92 28.5t-92 -28.5t-33 -76.5t33 -77t92 -29t92 29t33 77z" />
<glyph unicode="&#xe37;" d="M-164 1372h-921l41 86h569v242h94v-242h123v242h94v-328z" />
<glyph unicode="&#xe38;" d="M-164 -504h-94v254h-143l41 86h196v-340z" />
<glyph unicode="&#xe39;" d="M-258 -346v182h94v-168q0 -85 -59.5 -132.5t-171.5 -47.5t-172 47.5t-60 132.5v82h-123l41 86h177v-182q0 -43 40 -64.5t97 -21.5q58 0 97.5 21.5t39.5 64.5z" />
<glyph unicode="&#xe3a;" d="M-117 -250q0 -42 -28 -70t-72 -28t-72 28t-28 70t28 70t72 28t72 -28t28 -70z" />
<glyph unicode="&#xe3f;" horiz-adv-x="1306" d="M680 -205h-98v205h-381v1413h381v205h98v-205h55q172 0 269.5 -100.5t97.5 -263.5q0 -199 -139 -301q102 -37 161.5 -128t59.5 -229q0 -187 -108.5 -289t-280.5 -102h-115v-205zM582 774v549h-283v-549h283zM680 774h47q127 0 202 73.5t75 201.5t-75 201t-202 73h-47 v-549zM680 90h106q136 0 217.5 83.5t81.5 217.5q0 126 -72.5 208t-195.5 91q-37 -6 -82 -6h-55v-594zM582 90v594h-283v-594h283z" />
<glyph unicode="&#xe40;" horiz-adv-x="520" d="M422 0h-238v1147h95v-1061h184z" />
<glyph unicode="&#xe41;" horiz-adv-x="1040" d="M422 0h-238v1147h95v-1061h184zM942 0h-237v1147h94v-1061h184z" />
<glyph unicode="&#xe42;" horiz-adv-x="643" d="M545 0h-279v1075q0 189 -78 280.5t-249 131.5v94q157 201 421 201q189 0 369 -99v-90q-62 34 -100.5 51.5t-111 34.5t-152.5 17q-222 0 -353 -146q84 -25 145 -60t100 -76.5t62 -96t32 -112t9 -130.5v-989h226z" />
<glyph unicode="&#xe43;" horiz-adv-x="602" d="M504 0h-279v1047q0 65 22.5 119.5t57 89.5t74 69.5t74 61.5t57 63t22.5 76q0 170 -260 170q-88 0 -156.5 -27.5t-135.5 -75.5v90q138 99 303 99q166 0 255 -64.5t89 -187.5q0 -51 -23 -95.5t-57 -75t-74 -65.5t-74 -67t-57 -79t-23 -101v-961h226z" />
<glyph unicode="&#xe44;" horiz-adv-x="643" d="M545 0h-279v1176q0 219 37.5 333t145.5 174h-510l41 86h647v-77q-62 -25 -104 -48.5t-72.5 -57t-48 -67t-27 -88.5t-12.5 -111t-3 -144v-1090h226z" />
<glyph unicode="&#xe45;" horiz-adv-x="937" d="M774 -492h-94v1301q0 147 -69.5 214t-225.5 67q-204 0 -348 -101v90q149 97 352 97q186 0 285.5 -88.5t99.5 -258.5v-1321z" />
<glyph unicode="&#xe46;" horiz-adv-x="1257" d="M1053 -246h-95v1032q0 144 -53.5 207.5t-163.5 83.5l-168 -155h-20l-168 155q-102 -15 -153.5 -84t-51.5 -180q0 -119 57 -191.5t171 -72.5q96 0 165 41v-86q-69 -41 -170 -41q-144 0 -230.5 100.5t-86.5 247.5q0 145 88 246.5t244 118.5l141 -136h8l142 136 q191 -34 267.5 -120t76.5 -270v-1032z" />
<glyph unicode="&#xe47;" d="M-193 1479v-86q-57 -45 -145 -45q-60 0 -106 26.5t-103 91.5h-8l-137 -114q-123 0 -199 49t-76 151q0 101 73.5 157t188.5 56h512v-86h-520q-159 0 -159 -120q0 -121 159 -121l152 123h20q73 -72 117.5 -99.5t99.5 -27.5q74 0 131 45z" />
<glyph unicode="&#xe48;" d="M-164 1823h-94v307h94v-307z" />
<glyph unicode="&#xe49;" d="M70 1823h-519v180h-163l41 86h217v-180h465z" />
<glyph unicode="&#xe4a;" d="M-139 1823h-94q49 58 49 131q0 37 -24 71t-79 46l-102 -111h-19l-100 113q-33 -6 -56 -21.5t-33 -35t-13.5 -34t-3.5 -26.5q0 -65 49 -133h-92q-21 25 -34.5 62t-13.5 69q0 72 56.5 133.5t159.5 75.5l92 -113l90 113q99 -13 157 -73t58 -134q0 -27 -6 -45q54 29 86 77 t32 97q0 46 -38 100h92q39 -44 39 -104q0 -92 -72 -160t-180 -98z" />
<glyph unicode="&#xe4b;" d="M18 1985h-184v-162h-90v162h-184v81h184v162h90v-162h184v-81z" />
<glyph unicode="&#xe4c;" d="M-33 1884h-307v-160h-94v246h442z" />
<glyph unicode="&#xe4d;" d="M-43 1526q0 -83 -57 -139t-154 -56t-154 56t-57 139q0 82 57 138t154 56t154 -56t57 -138zM-129 1526q0 50 -33.5 84.5t-91.5 34.5t-91.5 -34.5t-33.5 -84.5t34 -85.5t91 -35.5t91 35.5t34 85.5z" />
<glyph unicode="&#xe4e;" d="M-238 1477v-82q-54 -43 -165 -43q-207 0 -207 153q0 53 41.5 88.5t95.5 40.5q-47 33 -47 78q0 69 56.5 105t144.5 36q99 0 169 -51v-80q-29 18 -48.5 27.5t-52 19t-66.5 9.5q-113 0 -113 -62q0 -36 24.5 -52.5t79.5 -16.5h129l-26 -68h-160q-68 0 -101.5 -21t-33.5 -53 q0 -75 129 -75q85 0 151 47z" />
<glyph unicode="&#xe4f;" horiz-adv-x="1515" d="M1397 575q0 -126 -45 -235.5t-126.5 -190.5t-202.5 -127.5t-265 -46.5t-265 46.5t-202.5 127.5t-126.5 190.5t-45 235.5t45 236t126.5 191t202.5 127.5t265 46.5t265 -46.5t202.5 -127.5t126.5 -191t45 -236zM1303 575q0 102 -38 195t-106.5 164.5t-172.5 113.5t-228 42 t-228 -42t-172.5 -113.5t-106.5 -164.5t-38 -195t38 -195t106.5 -164t172.5 -113t228 -42t228 42t172.5 113t106.5 164t38 195zM1028 575q0 -108 -70.5 -188t-199.5 -80t-200 80t-71 188t71 188.5t200 80.5t199.5 -80.5t70.5 -188.5z" />
<glyph unicode="&#xe50;" horiz-adv-x="1359" d="M1241 514q0 -111 -35 -207t-102 -171t-176 -118t-248 -43t-248 43t-176 118t-102 171t-35 207t35 207t102 171t176 118t248 43t248 -43t176 -118t102 -171t35 -207zM1147 514q0 70 -15.5 134t-51.5 122.5t-88.5 102t-132.5 69t-179 25.5t-179 -25.5t-132.5 -69 t-88.5 -102t-51.5 -122.5t-15.5 -134t15.5 -134t51.5 -122.5t88.5 -102t132.5 -69t179 -25.5t179 25.5t132.5 69t88.5 102t51.5 122.5t15.5 134z" />
<glyph unicode="&#xe51;" horiz-adv-x="1372" d="M788 393v-90q-104 -70 -258 -70q-194 0 -302.5 96t-108.5 267q0 96 35 178t101 144.5t170 98.5t234 36q272 0 427 -149.5t155 -411.5t-156 -412t-436 -150q-211 0 -350 95v90q69 -46 147.5 -72.5t196.5 -26.5q245 0 374.5 125.5t129.5 350.5q0 226 -128.5 350.5 t-361.5 124.5q-218 0 -331 -103.5t-113 -265.5q0 -136 80.5 -207.5t236.5 -71.5q146 0 258 74z" />
<glyph unicode="&#xe52;" horiz-adv-x="1466" d="M1217 362v351q0 93 -45 155t-117 74l-162 -147h-21l-161 147q-72 -12 -117 -74t-45 -155q0 -98 49.5 -164t130.5 -66h184l-41 -86h-163q-109 0 -181.5 83.5t-72.5 234.5q0 143 68.5 222.5t199.5 115.5l156 -152h8l155 152q132 -36 200.5 -115t68.5 -225v-330 q0 -86 -29.5 -155.5t-81.5 -116t-125 -77.5t-157 -45t-181 -14q-122 0 -223 23t-181 70t-124.5 127.5t-44.5 187.5v866h94v-887q0 -99 65.5 -168.5t171 -101t242.5 -31.5t243 31.5t171.5 101t65.5 168.5z" />
<glyph unicode="&#xe53;" horiz-adv-x="1445" d="M1282 0h-94v778q0 92 -59 140.5t-140 48.5t-139.5 -48.5t-58.5 -140.5v-409h-95v409q0 93 -59 141t-150 48q-133 0 -193.5 -110t-60.5 -345q0 -234 61 -342.5t195 -108.5q83 0 156 50v-91q-65 -45 -158 -45q-348 0 -348 539t353 539q182 0 251 -142q31 64 93.5 103 t154.5 39q130 0 210.5 -76t80.5 -199v-778z" />
<glyph unicode="&#xe54;" horiz-adv-x="1302" d="M1200 -25h-147q-142 0 -226 66q-106 -66 -252 -66q-113 0 -200 41t-140.5 113.5t-80.5 166t-27 204.5q0 112 28 205t85 165.5t153.5 113t224.5 40.5h386q58 0 90 31t32 84v110h95v-110q0 -95 -60.5 -148t-156.5 -53h-386q-108 0 -187.5 -35.5t-124 -98.5t-65 -138.5 t-20.5 -165.5q0 -89 20 -165.5t61.5 -139t112.5 -98.5t165 -36q103 0 178 52q-53 80 -53 202q0 149 79.5 224t202.5 75q81 0 152 -36v-91q-80 41 -150 41q-89 0 -139.5 -53t-50.5 -164q0 -125 67 -187.5t195 -62.5h180z" />
<glyph unicode="&#xe55;" horiz-adv-x="1302" d="M1200 -25h-147q-142 0 -226 66q-106 -66 -252 -66q-113 0 -200 41t-140.5 113.5t-80.5 166t-27 204.5q0 98 21.5 182t65.5 153t116 115.5t168 63.5q-35 44 -35 106q0 72 48.5 121t131.5 49t131.5 -49t48.5 -121q0 -54 -28 -96h209q58 0 90 31t32 84v110h95v-110 q0 -95 -60.5 -148t-156.5 -53h-386q-108 0 -187.5 -35.5t-124 -98.5t-65 -138.5t-20.5 -165.5q0 -89 20 -165.5t61.5 -139t112.5 -98.5t165 -36q103 0 178 52q-53 80 -53 202q0 149 79.5 224t202.5 75q81 0 152 -36v-91q-80 41 -150 41q-89 0 -139.5 -53t-50.5 -164 q0 -125 67 -187.5t195 -62.5h180zM745 1120q0 41 -28.5 69t-73.5 28t-73.5 -28t-28.5 -69t28.5 -68.5t73.5 -27.5t73.5 27.5t28.5 68.5z" />
<glyph unicode="&#xe56;" horiz-adv-x="1294" d="M590 459v-90q-80 41 -152 41q-93 0 -144.5 -47t-51.5 -115q0 -78 76 -132.5t247 -54.5q130 0 229.5 35.5t159.5 98.5t89.5 144t29.5 177q0 201 -118 326t-328 125q-194 0 -312 -109h-94l-176 391h98l140 -309q50 50 140.5 81.5t203.5 31.5q243 0 391.5 -142.5 t148.5 -392.5q0 -118 -36 -215.5t-108 -171.5t-189 -115t-269 -41q-111 0 -194 22t-130.5 60.5t-70.5 86t-23 104.5q0 108 76 178t211 70q83 0 156 -37z" />
<glyph unicode="&#xe57;" horiz-adv-x="1785" d="M1528 197v1052h94v-1052q0 -100 -69 -161t-177 -61t-177 61t-69 161v581q0 92 -54.5 140.5t-129.5 48.5t-129.5 -48.5t-54.5 -140.5v-409h-94v409q0 93 -55 141t-140 48q-126 0 -183 -110.5t-57 -340.5q0 -238 60.5 -346.5t195.5 -108.5q83 0 156 50v-91 q-65 -45 -158 -45q-171 0 -259.5 130.5t-88.5 410.5q0 537 338 537q174 0 238 -135q66 135 233 135q124 0 200.5 -76t76.5 -199v-581q0 -59 39 -97.5t112 -38.5t112.5 38.5t39.5 97.5z" />
<glyph unicode="&#xe58;" horiz-adv-x="1316" d="M897 -25l-178 164h-8l-179 -164q-105 0 -184 40.5t-126.5 113.5t-71 166t-23.5 205q0 113 24.5 205t76 165t140.5 113.5t210 40.5h374q58 0 90.5 31t32.5 84v110h94v-110q0 -95 -60.5 -148t-156.5 -53h-374q-101 0 -173 -35.5t-111 -99t-56 -137.5t-17 -166 q0 -120 26.5 -214t90.5 -155t158 -61l209 184h20l209 -184q74 13 128 85.5t54 176.5q0 196 -203 196h-184l41 86h164q125 0 200.5 -74.5t75.5 -209.5q0 -145 -87 -238t-226 -117z" />
<glyph unicode="&#xe59;" horiz-adv-x="1206" d="M1044 0h-98l-250 778q-32 102 -80 145.5t-129 43.5q-133 0 -193.5 -110t-60.5 -345q0 -234 61 -342.5t195 -108.5q83 0 156 50v-91q-65 -45 -158 -45q-348 0 -348 537q0 541 344 541q165 0 250 -144q39 144 174 144q121 0 185 -127l98 323h98l-143 -452h-90 q-26 83 -62.5 126.5t-89.5 43.5q-101 0 -110 -183z" />
<glyph unicode="&#xe5b;" horiz-adv-x="2611" d="M2554 561v-94q-97 68 -207 68q-59 0 -100.5 -18.5t-73.5 -62.5t-53 -94.5t-49 -138.5h-70l-277 410h-8l-125 -451h-94l-272 424h-8q0 -259 -148.5 -419t-390.5 -160q-243 0 -401 157t-158 398q0 163 76.5 289.5t204 193.5t282.5 67q120 0 211 -43v-86q-91 43 -205 43 q-200 0 -337.5 -127t-137.5 -337q0 -141 66.5 -250t171 -164t227.5 -55q193 0 327 133t134 354q0 141 -52 221l-40 64h94l379 -590h8l125 446h94l274 -407h9q42 149 117.5 219t199.5 70q122 0 207 -60z" />
<glyph unicode="&#x2000;" horiz-adv-x="1114" />
<glyph unicode="&#x2001;" horiz-adv-x="2228" />
<glyph unicode="&#x2002;" horiz-adv-x="1114" />
<glyph unicode="&#x2003;" horiz-adv-x="2228" />
<glyph unicode="&#x2004;" horiz-adv-x="742" />
<glyph unicode="&#x2005;" horiz-adv-x="557" />
<glyph unicode="&#x2006;" horiz-adv-x="371" />
<glyph unicode="&#x2007;" horiz-adv-x="371" />
<glyph unicode="&#x2008;" horiz-adv-x="278" />
<glyph unicode="&#x2009;" horiz-adv-x="445" />
<glyph unicode="&#x200a;" horiz-adv-x="123" />
<glyph unicode="&#x2010;" horiz-adv-x="851" d="M774 496h-696v90h696v-90z" />
<glyph unicode="&#x2011;" horiz-adv-x="851" d="M774 496h-696v90h696v-90z" />
<glyph unicode="&#x2012;" horiz-adv-x="851" d="M774 496h-696v90h696v-90z" />
<glyph unicode="&#x2013;" horiz-adv-x="1384" d="M1307 496h-1229v90h1229v-90z" />
<glyph unicode="&#x2014;" horiz-adv-x="1998" d="M1921 496h-1843v90h1843v-90z" />
<glyph unicode="&#x2018;" horiz-adv-x="421" d="M221 979h-98l98 434h74z" />
<glyph unicode="&#x2019;" horiz-adv-x="421" d="M201 979h-74l74 434h98z" />
<glyph unicode="&#x201a;" horiz-adv-x="421" d="M201 -176h-74l74 393h98z" />
<glyph unicode="&#x201c;" horiz-adv-x="643" d="M221 979h-98l98 434h74zM442 979h-98l98 434h74z" />
<glyph unicode="&#x201d;" horiz-adv-x="643" d="M201 979h-74l74 434h98zM422 979h-74l74 434h98z" />
<glyph unicode="&#x201e;" horiz-adv-x="643" d="M201 -176h-74l74 393h98zM401 -176h-73l73 393h99z" />
<glyph unicode="&#x2020;" horiz-adv-x="1015" d="M557 0h-98v963h-381v90h381v360h98v-360h381v-90h-381v-963z" />
<glyph unicode="&#x2021;" horiz-adv-x="1015" d="M557 0h-98v516h-381v90h381v357h-381v90h381v360h98v-360h381v-90h-381v-357h381v-90h-381v-516z" />
<glyph unicode="&#x2022;" horiz-adv-x="1130" d="M954 649q0 -158 -106 -267.5t-283 -109.5t-283 109.5t-106 267.5t106 267.5t283 109.5t283 -109.5t106 -267.5z" />
<glyph unicode="&#x2026;" horiz-adv-x="1482" d="M324 0h-131v131h131v-131zM807 0h-131v131h131v-131zM1290 0h-131v131h131v-131z" />
<glyph unicode="&#x202f;" horiz-adv-x="445" />
<glyph unicode="&#x2030;" horiz-adv-x="2414" d="M420 745q-142 0 -217.5 99.5t-75.5 249.5t75.5 249t217.5 99t217.5 -99t75.5 -249t-75.5 -249.5t-217.5 -99.5zM395 0h-110l1024 1413h110zM420 827q103 0 153 73.5t50 193.5t-50 193t-153 73t-153 -73t-50 -193t50 -193.5t153 -73.5zM1286 -25q-142 0 -217.5 99.5 t-75.5 249.5t75.5 249t217.5 99t217.5 -99t75.5 -249t-75.5 -249.5t-217.5 -99.5zM1995 -25q-142 0 -217.5 99.5t-75.5 249.5t75.5 249t217.5 99t217.5 -99t75.5 -249t-75.5 -249.5t-217.5 -99.5zM1286 57q103 0 153 73.5t50 193.5t-50 193t-153 73t-153 -73t-50 -193 t50 -193.5t153 -73.5zM1995 57q103 0 153 73.5t50 193.5t-50 193t-153 73t-153 -73t-50 -193t50 -193.5t153 -73.5z" />
<glyph unicode="&#x2039;" horiz-adv-x="655" d="M487 195h-94l-246 335v21l246 336h94l-245 -342v-8z" />
<glyph unicode="&#x203a;" horiz-adv-x="655" d="M262 195h-94l246 342v8l-246 342h94l246 -336v-21z" />
<glyph unicode="&#x2044;" horiz-adv-x="724" d="M-94 0h-111l1024 1413h111z" />
<glyph unicode="&#x205f;" horiz-adv-x="557" />
<glyph unicode="&#x20ac;" horiz-adv-x="1495" d="M1372 229v-94q-197 -160 -465 -160q-273 0 -447.5 150t-219.5 412h-201l41 90h147q-2 27 -2 82t2 82h-194l41 90h166q45 261 219.5 411t447.5 150q276 0 465 -160v-94q-90 73 -210 118.5t-257 45.5q-228 0 -375.5 -128t-189.5 -343h758l-41 -90h-729q-4 -54 -4 -82t4 -82 h764l-41 -90h-711q42 -215 189.5 -343t375.5 -128q137 0 257 45t210 118z" />
<glyph unicode="&#x2122;" horiz-adv-x="1808" d="M1718 729h-94l-86 305q-29 103 -53 228h-8q-42 -129 -80 -228l-115 -305h-106l-115 305q-30 78 -80 228h-8q-22 -121 -53 -228l-86 -305h-95l187 662l-23 59h94l133 -360q54 -148 95 -273h8q47 147 94 273l111 301l-17 59h95zM444 729h-90v631h-297v82h684v-82h-297v-631 z" />
<glyph unicode="&#x2202;" horiz-adv-x="1286" d="M1053 780h8q-73 419 -373 662h107q101 -83 173.5 -186t110.5 -211.5t55 -211t17 -210.5q0 -146 -30 -262.5t-91.5 -204t-162 -134.5t-234.5 -47q-127 0 -228 42.5t-163 116t-94.5 166t-32.5 198.5q0 107 32.5 201t94.5 167t159.5 115.5t219.5 42.5q155 0 265 -66.5 t167 -177.5zM623 61q104 0 185 35.5t130 97t73.5 139t24.5 167.5t-24.5 167.5t-73.5 138.5t-130 96.5t-185 35.5t-185 -35.5t-130 -96.5t-74 -138.5t-25 -167.5t25 -167.5t74 -139t130 -97t185 -35.5z" />
<glyph unicode="&#x220f;" horiz-adv-x="1224" d="M1032 -246h-98v1569h-643v-1569h-98v1659h839v-1659z" />
<glyph unicode="&#x2211;" horiz-adv-x="1040" d="M889 -246h-737v74l434 752v8l-434 753v74h737v-90h-619l422 -731v-21l-422 -729h619v-90z" />
<glyph unicode="&#x2212;" horiz-adv-x="1335" d="M1200 592h-1065v86h1065v-86z" />
<glyph unicode="&#x221a;" horiz-adv-x="1007" d="M463 -246h-123l-287 932h107l241 -831l447 1558h106z" />
<glyph unicode="&#x221e;" horiz-adv-x="1966" d="M989 590h-8q-34 -70 -72.5 -124t-93 -102.5t-127.5 -75t-160 -26.5q-185 0 -299 112t-114 283t114 283.5t299 112.5q87 0 160 -26.5t127.5 -75t93 -102.5t72.5 -124h8q30 57 58 100t69 88t85.5 74t105.5 47.5t131 18.5q185 0 299 -112.5t114 -283.5t-114 -283t-299 -112 q-70 0 -131 18.5t-105.5 47.5t-85.5 74t-69 88t-58 100zM928 653v17q-40 72 -75.5 120.5t-82 91.5t-104.5 64t-129 21q-147 0 -237.5 -86.5t-90.5 -223.5t90.5 -223t235.5 -86q70 0 127.5 21t104.5 65t83.5 94t77.5 125zM1038 670v-17q26 -43 43 -69t43 -62.5t47.5 -58 t51.5 -46.5t60 -38t68 -22t81 -9q144 0 234.5 86t90.5 223t-90 223.5t-237 86.5q-69 0 -124.5 -20t-102.5 -62.5t-83 -90.5t-82 -124z" />
<glyph unicode="&#x222b;" horiz-adv-x="1069" d="M483 31v1054q0 154 80 236t207 82q64 0 117.5 -21.5t124.5 -68.5v-94q-142 94 -244 94q-186 0 -186 -248v-1055q0 -154 -78 -235.5t-205 -81.5q-64 0 -117.5 21.5t-124.5 68.5v94q143 -94 242 -94q184 0 184 248z" />
<glyph unicode="&#x2248;" horiz-adv-x="1236" d="M1016 1030h94q0 -178 -59.5 -260t-190.5 -82q-59 0 -106.5 16.5t-78.5 42.5t-57 57.5t-49 63.5t-48.5 58t-62 42.5t-81.5 16.5q-85 0 -120.5 -59.5t-35.5 -196.5h-94q0 178 59.5 260t190.5 82q60 0 107.5 -16.5t78.5 -42.5t57.5 -58t49.5 -63.5t48.5 -57.5t62 -42.5 t81.5 -16.5q84 0 119 59.5t35 196.5zM1016 541h94q0 -178 -59.5 -260t-190.5 -82q-59 0 -106.5 16.5t-78.5 42.5t-57 57.5t-49 63.5t-48.5 58t-62 42.5t-81.5 16.5q-85 0 -120.5 -59.5t-35.5 -196.5h-94q0 178 59.5 260t190.5 82q60 0 107.5 -16.5t78.5 -42.5t57.5 -57.5 t49.5 -63.5t48.5 -58t62 -42.5t81.5 -16.5q84 0 119 59.5t35 196.5z" />
<glyph unicode="&#x2260;" horiz-adv-x="1392" d="M1229 408h-588l-180 -408h-103l181 408h-375v86h414l124 282h-538v86h577l191 428h102l-190 -428h385v-86h-424l-125 -282h549v-86z" />
<glyph unicode="&#x2264;" horiz-adv-x="1396" d="M1221 502l-1065 260v94l1065 260v-98l-928 -209l928 -209v-98zM1221 227h-1065v86h1065v-86z" />
<glyph unicode="&#x2265;" horiz-adv-x="1396" d="M1241 762l-1065 -260v98l928 209l-928 209v98l1065 -260v-94zM1241 227h-1065v86h1065v-86z" />
<glyph unicode="&#x25ca;" horiz-adv-x="1089" d="M631 0h-172l-361 696v21l361 696h172l360 -696v-21zM545 37l346 665v9l-346 665l-346 -665v-9z" />
<glyph unicode="&#x25fc;" horiz-adv-x="1024" d="M0 1024h1024v-1024h-1024v1024z" />
<glyph unicode="&#xf700;" horiz-adv-x="1167" d="M510 0h-70l-204 559h-136l41 86h150l211 -559q96 2 173 31t127.5 77.5t84.5 115.5t48.5 141.5t14.5 158.5q0 228 -114.5 354t-354.5 126q-109 0 -211 -26.5t-176 -72.5v90q159 95 387 95q221 0 361 -97l137 170h106l-178 -223q137 -143 137 -405q0 -126 -33 -236 t-96.5 -197t-167.5 -137.5t-237 -50.5z" />
<glyph unicode="&#xf701;" d="M-369 1372h-798l41 86h757v-86z" />
<glyph unicode="&#xf702;" d="M-369 1372h-798l41 86h663v242h94v-328z" />
<glyph unicode="&#xf703;" d="M-549 1372h-618l41 86h424q-33 51 -33 94q0 82 51 131.5t145 49.5t145.5 -49.5t51.5 -131.5q0 -81 -54.5 -130.5t-152.5 -49.5zM-428 1552q0 49 -28.5 77t-82.5 28t-82 -28t-28 -77t28 -77.5t82 -28.5t82.5 28.5t28.5 77.5z" />
<glyph unicode="&#xf704;" d="M-369 1372h-798l41 86h446v242h94v-242h123v242h94v-328z" />
<glyph unicode="&#xf705;" d="M-553 1372h-94v348h94v-348z" />
<glyph unicode="&#xf706;" d="M-350 1372h-475v201h-164l41 86h217v-201h422z" />
<glyph unicode="&#xf707;" d="M-514 1372h-94q27 49 38 80t11 72q0 122 -121 139l-113 -119h-20l-113 121q-121 -17 -121 -141q0 -41 11 -71.5t39 -80.5h-95q-26 45 -37.5 77.5t-11.5 72.5q0 89 61 151.5t175 79.5l98 -111h8l99 111q115 -17 175 -80.5t60 -150.5q0 -44 -14 -72q68 33 108.5 90.5 t40.5 130.5q0 70 -32 121h94q32 -51 32 -125q0 -81 -40.5 -143.5t-100 -97t-137.5 -54.5z" />
<glyph unicode="&#xf708;" d="M-440 1538h-191v-166h-94v166h-190v86h190v166h94v-166h191v-86z" />
<glyph unicode="&#xf709;" d="M-432 1532h-307v-160h-95v246h443z" />
<glyph unicode="&#xf70a;" d="M-164 1372h-94v348h94v-348z" />
<glyph unicode="&#xf70b;" d="M43 1372h-606v201h-164l41 86h217v-201h553z" />
<glyph unicode="&#xf70c;" d="M-301 1372h-94q27 49 38 80t11 72q0 122 -121 139l-129 -119h-20l-129 121q-121 -17 -121 -141q0 -41 11 -72t38 -80h-94q-26 46 -38 78t-12 72q0 89 61 151.5t175 79.5l115 -111h8l115 111q115 -17 175 -80.5t60 -150.5q0 -44 -14 -72q68 33 108.5 90.5t40.5 130.5 q0 68 -33 121h95q32 -51 32 -125q0 -81 -40.5 -143.5t-100 -97t-137.5 -54.5z" />
<glyph unicode="&#xf70d;" d="M-96 1538h-191v-166h-94v166h-190v86h190v166h94v-166h191v-86z" />
<glyph unicode="&#xf70e;" d="M-63 1532h-369v-160h-94v246h503z" />
<glyph unicode="&#xf70f;" horiz-adv-x="2035" d="M1778 377v770h94v-750q0 -194 -106 -308t-312 -114t-312 114t-106 308v303q0 189 -101 289.5t-300 100.5q-191 0 -300.5 -91.5t-119.5 -261.5h297v-78q-134 -42 -206.5 -141.5t-72.5 -234.5q0 -117 56.5 -169.5t169.5 -52.5q89 0 157 37v-90q-68 -33 -157 -33 q-152 0 -236 76t-84 223q0 132 63.5 234.5t153.5 155.5h-237v65q6 78 27 143.5t61 122.5t98 96.5t142 62t188 22.5q239 0 367 -115t128 -340v-344q0 -145 83 -230.5t241 -85.5t241 85.5t83 230.5z" />
<glyph unicode="&#xf710;" d="M-94 1372h-852v254h94v-168h799z" />
<glyph unicode="&#xf711;" d="M-387 1526q0 -83 -57 -139t-154 -56t-154 56t-57 139q0 82 57 138t154 56t154 -56t57 -138zM-473 1526q0 50 -33.5 84.5t-91.5 34.5t-91.5 -34.5t-33.5 -84.5t34 -85.5t91 -35.5t91 35.5t34 85.5z" />
<glyph unicode="&#xf712;" d="M-418 1479v-86q-57 -45 -145 -45q-61 0 -104 27t-85 91h-8l-117 -114q-123 0 -198.5 49t-75.5 151q0 101 73.5 157t188.5 56h492v-86h-500q-160 0 -160 -120q0 -121 160 -121l131 123h21q57 -72 98 -99.5t98 -27.5q74 0 131 45z" />
<glyph unicode="&#xf713;" d="M-369 1823h-94v307h94v-307z" />
<glyph unicode="&#xf714;" d="M-154 1823h-518v180h-164l41 86h217v-180h465z" />
<glyph unicode="&#xf715;" d="M-418 1823h-94q49 58 49 131q0 37 -23.5 71t-78.5 46l-103 -111h-18l-100 113q-43 -8 -69 -33.5t-32 -45.5t-6 -38q0 -65 49 -133h-92q-20 25 -33.5 62t-13.5 69q0 73 56 134t159 75l92 -113l90 113q99 -13 157 -73t58 -134q0 -27 -6 -45q54 29 86.5 77.5t32.5 96.5 q0 45 -39 100h92q39 -44 39 -104q0 -92 -72 -160t-180 -98z" />
<glyph unicode="&#xf716;" d="M-186 1985h-185v-162h-90v162h-184v81h184v162h90v-162h185v-81z" />
<glyph unicode="&#xf717;" d="M-229 1884h-308v-160h-94v246h443z" />
<glyph unicode="&#xf718;" d="M-164 -778h-94v200h-123l41 86h176v-286z" />
<glyph unicode="&#xf719;" d="M-258 -633v141h94v-126q0 -85 -59.5 -133t-171.5 -48t-172 48t-60 133v40h-123l41 86h177v-141q0 -43 40 -64.5t97 -21.5q58 0 97.5 21.5t39.5 64.5z" />
<glyph unicode="&#xf71a;" d="M-117 -578q0 -42 -28 -70t-72 -28t-72 28t-28 70t28 70.5t72 28.5t72 -28.5t28 -70.5z" />
<glyph unicode="&#xf71b;" horiz-adv-x="1406" d="M950 -410h-39q-160 168 -358 168q-107 0 -172 -43.5t-111 -124.5h-8v113q98 141 299 141q216 0 371 -168h18q110 0 154.5 60t44.5 213v751q0 390 -406 390q-199 0 -307 -91t-117 -262h297v-78q-52 -6 -88 -23.5t-54.5 -38.5t-28.5 -58.5t-11.5 -65t-1.5 -76.5v-204 q0 -117 -41.5 -167.5t-124.5 -50.5q-71 0 -139 33v86q68 -33 133 -33q45 0 61.5 23t16.5 88v246q0 176 94 246h-209v65q35 447 520 447q247 0 373.5 -114.5t126.5 -340.5v-793q0 -173 -72.5 -255.5t-220.5 -82.5z" />
<glyph unicode="&#xf71c;" horiz-adv-x="1406" d="M930 -410h-29l-139 140h-8l-140 -140h-73q-40 92 -94.5 130t-131.5 38q-83 0 -147 -43v90q58 39 147 39q85 0 155.5 -39t107.5 -129h8l162 156h20l162 -156q58 0 96.5 10.5t67.5 37.5t42 76.5t13 125.5v774q0 390 -406 390q-199 0 -307 -91t-117 -262h297v-78 q-52 -6 -88 -23.5t-54.5 -38.5t-28.5 -58.5t-11.5 -65t-1.5 -76.5v-204q0 -117 -41.5 -167.5t-124.5 -50.5q-71 0 -139 33v86q68 -33 133 -33q45 0 61.5 23t16.5 88v246q0 176 94 246h-209v65q35 447 520 447q247 0 373.5 -114.5t126.5 -340.5v-795q0 -180 -76 -258 t-237 -78z" />
<glyph unicode="&#xf71d;" horiz-adv-x="1402" d="M1143 0h-139l-138 403q-48 145 -108 338h-8q-47 -141 -121 -338l-150 -403h-139l-279 1147h99l164 -674q7 -28 88 -389h8l285 788l-25 86h98l289 -874h8q41 171 101 389l43 156q16 62 16 106q0 75 -46 126t-147 83v66l175 239h108l-188 -256q192 -66 192 -260 q0 -59 -18 -129z" />
<glyph unicode="&#xf8ff;" horiz-adv-x="1658" d="M1296 37q-149 -55 -467 -55t-467 55q-148 55 -204 205q-56 151 -56 467t56 467q55 149 204 204q151 56 467 56t467 -56q150 -56 205 -204q55 -149 55 -467t-55 -467q-55 -150 -205 -205zM1266 293v457q0 173 -125.5 287t-311.5 114t-311 -113.5t-125 -287.5v-457h174 l195 209q32 -13 67 -13q78 0 131.5 53t53.5 132t-53.5 131.5t-131.5 52.5q-79 0 -132.5 -52.5t-53.5 -131.5q0 -52 27 -99l-133 -145v320q0 121 83.5 196.5t208.5 75.5t209 -75.5t84 -196.5v-457h144zM829 596q-31 0 -54 23t-23 55q0 31 23 53.5t54 22.5t53.5 -22t22.5 -54 t-22.5 -55t-53.5 -23z" />
<glyph horiz-adv-x="1105" d="M950 -4h-20l-66 188h-8q-117 -209 -356 -209q-171 0 -284.5 93.5t-113.5 250.5q0 156 114.5 248t301.5 92q95 0 183 -24t147 -72h8v78q0 167 -67 246.5t-242 79.5q-119 0 -207.5 -34t-175.5 -99v90q160 129 387 129q399 0 399 -391v-666zM856 473q-129 100 -334 100 q-161 0 -243 -69t-82 -182q0 -118 82.5 -189.5t216.5 -71.5q92 0 163 35t113 94t63 131t21 152z" />
<glyph horiz-adv-x="1105" d="M549 1147h-74l109 348h102zM950 -4h-20l-66 188h-8q-117 -209 -356 -209q-171 0 -284.5 93.5t-113.5 250.5q0 156 114.5 248t301.5 92q95 0 183 -24t147 -72h8v78q0 167 -67 246.5t-242 79.5q-119 0 -207.5 -34t-175.5 -99v90q160 129 387 129q399 0 399 -391v-666z M856 473q-129 100 -334 100q-161 0 -243 -69t-82 -182q0 -118 82.5 -189.5t216.5 -71.5q92 0 163 35t113 94t63 131t21 152z" />
<glyph horiz-adv-x="1105" d="M825 1147h-106l-168 291l-168 -291h-107l226 348h98zM950 -4h-20l-66 188h-8q-117 -209 -356 -209q-171 0 -284.5 93.5t-113.5 250.5q0 156 114.5 248t301.5 92q95 0 183 -24t147 -72h8v78q0 167 -67 246.5t-242 79.5q-119 0 -207.5 -34t-175.5 -99v90q160 129 387 129 q399 0 399 -391v-666zM856 473q-129 100 -334 100q-161 0 -243 -69t-82 -182q0 -118 82.5 -189.5t216.5 -71.5q92 0 163 35t113 94t63 131t21 152z" />
<glyph horiz-adv-x="1105" d="M473 1147h-131v131h131v-131zM756 1147h-131v131h131v-131zM950 -4h-20l-66 188h-8q-117 -209 -356 -209q-171 0 -284.5 93.5t-113.5 250.5q0 156 114.5 248t301.5 92q95 0 183 -24t147 -72h8v78q0 167 -67 246.5t-242 79.5q-119 0 -207.5 -34t-175.5 -99v90 q160 129 387 129q399 0 399 -391v-666zM856 473q-129 100 -334 100q-161 0 -243 -69t-82 -182q0 -118 82.5 -189.5t216.5 -71.5q92 0 163 35t113 94t63 131t21 152z" />
<glyph horiz-adv-x="1105" d="M625 1147h-74l-137 348h102zM950 -4h-20l-66 188h-8q-117 -209 -356 -209q-171 0 -284.5 93.5t-113.5 250.5q0 156 114.5 248t301.5 92q95 0 183 -24t147 -72h8v78q0 167 -67 246.5t-242 79.5q-119 0 -207.5 -34t-175.5 -99v90q160 129 387 129q399 0 399 -391v-666z M856 473q-129 100 -334 100q-161 0 -243 -69t-82 -182q0 -118 82.5 -189.5t216.5 -71.5q92 0 163 35t113 94t63 131t21 152z" />
<glyph horiz-adv-x="1105" d="M737 1313q0 -73 -55.5 -123.5t-132.5 -50.5t-133 50.5t-56 123.5t56 123.5t133 50.5t132.5 -50.5t55.5 -123.5zM655 1313q0 41 -29 70.5t-77 29.5t-77.5 -29.5t-29.5 -70.5t29.5 -71t77.5 -30t77 29.5t29 71.5zM950 -4h-20l-66 188h-8q-117 -209 -356 -209 q-171 0 -284.5 93.5t-113.5 250.5q0 156 114.5 248t301.5 92q95 0 183 -24t147 -72h8v78q0 167 -67 246.5t-242 79.5q-119 0 -207.5 -34t-175.5 -99v90q160 129 387 129q399 0 399 -391v-666zM856 473q-129 100 -334 100q-161 0 -243 -69t-82 -182q0 -118 82.5 -189.5 t216.5 -71.5q92 0 163 35t113 94t63 131t21 152z" />
<glyph horiz-adv-x="1105" d="M764 1376h90q0 -237 -158 -237q-45 0 -83.5 20t-64 48t-47.5 56t-47 48t-51 20q-36 0 -52.5 -37.5t-16.5 -117.5h-90q0 237 157 237q45 0 83.5 -20t64 -48t47.5 -56t47 -48t51 -20q37 0 53.5 37.5t16.5 117.5zM950 -4h-20l-66 188h-8q-117 -209 -356 -209 q-171 0 -284.5 93.5t-113.5 250.5q0 156 114.5 248t301.5 92q95 0 183 -24t147 -72h8v78q0 167 -67 246.5t-242 79.5q-119 0 -207.5 -34t-175.5 -99v90q160 129 387 129q399 0 399 -391v-666zM856 473q-129 100 -334 100q-161 0 -243 -69t-82 -182q0 -118 82.5 -189.5 t216.5 -71.5q92 0 163 35t113 94t63 131t21 152z" />
<glyph horiz-adv-x="937" d="M774 0h-94v809q0 147 -69.5 214t-225.5 67q-204 0 -348 -101v90q149 97 352 97q186 0 285.5 -88.5t99.5 -258.5v-829zM-387 1526q0 -83 -57 -139t-154 -56t-154 56t-57 139q0 82 57 138t154 56t154 -56t57 -138zM-473 1526q0 50 -33.5 84.5t-91.5 34.5t-91.5 -34.5 t-33.5 -84.5t34 -85.5t91 -35.5t91 35.5t34 85.5z" />
<glyph d="M-477 1477v-82q-54 -43 -166 -43q-207 0 -207 153q0 53 41.5 88.5t95.5 40.5q-47 33 -47 78q0 69 56.5 105t144.5 36q100 0 170 -51v-80q-93 56 -168 56q-113 0 -113 -62q0 -36 25 -52.5t80 -16.5h129l-27 -68h-160q-68 0 -101.5 -21t-33.5 -53q0 -75 129 -75 q86 0 152 47z" />
<glyph horiz-adv-x="1318" d="M1155 -252h-94v952q0 190 -103 290t-311 100q-199 0 -310 -91t-122 -262h297v-78q-134 -42 -206.5 -141.5t-72.5 -234.5q0 -117 56.5 -169.5t169.5 -52.5q89 0 157 37v-90q-68 -33 -157 -33q-152 0 -236 76t-84 223q0 132 63.5 234.5t153.5 155.5h-237v65 q6 78 26.5 143.5t61.5 122.5t99.5 96.5t145 62t195.5 22.5q248 0 378 -114.5t130 -340.5v-973z" />
<glyph horiz-adv-x="1406" d="M1243 -252h-94v952q0 390 -406 390q-199 0 -307 -91t-117 -262h297v-78q-52 -6 -88 -23.5t-54.5 -38.5t-28.5 -58.5t-11.5 -65t-1.5 -76.5v-204q0 -117 -41.5 -167.5t-124.5 -50.5q-71 0 -139 33v86q68 -33 133 -33q45 0 61.5 23t16.5 88v246q0 176 94 246h-209v65 q35 447 520 447q247 0 373.5 -114.5t126.5 -340.5v-973z" />
</font>
</defs>
</svg>
